<svg width="94" height="93" viewBox="0 0 94 93" fill="none" xmlns="http://www.w3.org/2000/svg">
<path d="M61.5133 49.7628C61.7781 50.0179 62.0432 50.1958 62.247 50.3129L69.5764 57.158L60.7825 56.7526H60.6977C59.2453 56.7526 58.1361 57.4652 57.4785 58.1473C56.8128 58.8379 56.1888 59.9277 56.1888 61.2925V61.3713L56.5649 70.1496L50.9622 63.5627L50.8828 63.4803C50.2904 62.8658 49.1893 62.0317 47.6116 62.0317C46.034 62.0317 44.9329 62.8658 44.3405 63.4803L44.261 63.5627L38.4294 70.4188L38.619 61.7638V61.7235C38.619 60.3587 37.9951 59.2689 37.3293 58.5783C36.6718 57.8962 35.5625 57.1836 34.1101 57.1836H34.0686L24.7063 57.3947L31.6931 50.9996L31.7729 50.9168C32.3813 50.2857 33.1145 49.2038 33.1145 47.7177C33.1145 46.2316 32.3813 45.1497 31.7729 44.5186L31.714 44.4575L24.7195 37.842L33.6099 38.2519H33.6947C35.1471 38.2519 36.2564 37.5392 36.9139 36.8572C37.5796 36.1665 38.2036 35.0768 38.2036 33.7119V33.6332L37.8275 24.8549L43.4302 31.4418L43.5096 31.5242C44.102 32.1387 45.2032 32.9728 46.7808 32.9728C48.3584 32.9728 49.4595 32.1387 50.0519 31.5242L50.1314 31.4418L55.7341 24.8549L55.358 33.6332V33.7119C55.358 35.0768 55.9819 36.1665 56.6477 36.8572C57.3052 37.5392 58.4145 38.2519 59.8669 38.2519H59.9516L68.5889 37.8537L61.8018 44.0659L61.6667 44.2205C61.6059 44.2902 61.5552 44.3466 61.5062 44.401L61.4942 44.4143C61.4561 44.4566 61.379 44.542 61.3139 44.6187C61.2735 44.6662 61.1981 44.7565 61.1143 44.8709C61.0425 44.969 60.8786 45.1997 60.7289 45.5208C60.5882 45.8226 60.3189 46.4984 60.3907 47.3921C60.4738 48.4278 60.9667 49.2363 61.5133 49.7628Z" fill="black"/>
<path fill-rule="evenodd" clip-rule="evenodd" d="M46.9929 92.6118C72.4524 92.6118 93.0913 71.9729 93.0913 46.5134C93.0913 21.054 72.4524 0.415039 46.9929 0.415039C21.5335 0.415039 0.894531 21.054 0.894531 46.5134C0.894531 71.9729 21.5335 92.6118 46.9929 92.6118ZM79.3922 61.2925L64.4804 47.3661C64.3326 47.2129 64.2042 47.1686 64.1286 47.1426C64.0899 47.1292 64.065 47.1207 64.0585 47.1047C64.0469 47.076 64.0943 47.0234 64.2266 46.8765C64.2814 46.8156 64.3508 46.7386 64.4366 46.6403L78.5613 33.7119L59.8669 34.5738C59.4514 34.5738 59.036 34.1429 59.036 33.7119L59.8669 14.3193L47.4039 28.9715C46.9885 29.4025 46.5731 29.4025 46.1576 28.9715L33.6947 14.3193L34.5255 33.7119C34.5255 34.1429 34.1101 34.5738 33.6947 34.5738L15.0002 33.7119L29.1249 47.0713C29.5404 47.5022 29.5404 47.9332 29.1249 48.3641L15.0002 61.2925L34.1101 60.8616C34.5255 60.8616 34.941 61.2925 34.941 61.7235L34.5255 80.6851L46.9885 66.0329C47.4039 65.602 47.8194 65.602 48.2348 66.0329L60.6977 80.6851L59.8669 61.2925C59.8669 60.8616 60.2823 60.4306 60.6977 60.4306L79.3922 61.2925Z" fill="black"/>
</svg>
