<svg width="505" height="93" viewBox="0 0 505 93" fill="none" xmlns="http://www.w3.org/2000/svg">
<circle cx="46.0984" cy="46.5134" r="44.2594" stroke="black" stroke-width="3.67803"/>
<path d="M43.1477 74.551L71.0572 46.6416M71.0572 46.6416L43.1477 18.7321M71.0572 46.6416H15.2383" stroke="black" stroke-width="3.66838"/>
<path d="M223.065 65.1445H218.314V62.7809C218.253 62.8427 218.144 62.9431 217.99 63.0821C217.851 63.2212 217.557 63.4529 217.109 63.7773C216.677 64.0863 216.206 64.3721 215.696 64.6347C215.186 64.8819 214.545 65.1059 213.772 65.3067C213 65.5076 212.22 65.608 211.432 65.608C209.115 65.608 207.191 64.936 205.662 63.5919C204.132 62.2479 203.368 60.7107 203.368 58.9805C203.368 57.1112 203.955 55.5431 205.129 54.2764C206.318 53.0096 207.941 52.2062 209.995 51.8663L218.314 50.4296C218.314 49.2246 217.866 48.2127 216.97 47.3939C216.09 46.5752 214.954 46.1658 213.564 46.1658C212.359 46.1658 211.262 46.4207 210.273 46.9305C209.3 47.4248 208.628 47.9269 208.257 48.4367L207.632 49.2478L204.55 46.1658C204.642 46.0422 204.766 45.8877 204.92 45.7023C205.09 45.5015 205.453 45.1616 206.009 44.6827C206.581 44.1883 207.184 43.748 207.817 43.3618C208.45 42.9756 209.285 42.6357 210.32 42.3422C211.37 42.0332 212.452 41.8787 213.564 41.8787C216.345 41.8787 218.623 42.7053 220.4 44.3583C222.177 45.9958 223.065 48.0196 223.065 50.4296V65.1445ZM212.15 61.3441C214.081 61.3441 215.588 60.7725 216.669 59.6293C217.766 58.4707 218.314 56.8254 218.314 54.6935V54.23L210.945 55.4118C210.096 55.5663 209.408 55.9139 208.883 56.4546C208.358 56.9953 208.095 57.6751 208.095 58.4939C208.095 59.2508 208.458 59.9151 209.184 60.4867C209.926 61.0583 210.914 61.3441 212.15 61.3441ZM239.448 41.8787C240.298 41.8787 241.124 41.9869 241.928 42.2032C242.746 42.404 243.434 42.6589 243.99 42.9679C244.562 43.2614 245.072 43.5704 245.52 43.8948C245.968 44.2038 246.284 44.451 246.47 44.6363L246.794 44.9839V31.9143H251.545V65.1445H246.794V62.526C246.578 62.7423 246.269 63.0281 245.867 63.3834C245.481 63.7387 244.647 64.2022 243.364 64.7738C242.082 65.3299 240.777 65.608 239.448 65.608C236.436 65.608 233.825 64.4571 231.616 62.1552C229.407 59.8379 228.302 57.0339 228.302 53.7434C228.302 50.4528 229.407 47.6566 231.616 45.3547C233.825 43.0374 236.436 41.8787 239.448 41.8787ZM235.115 59.1195C236.521 60.6026 238.12 61.3441 239.912 61.3441C241.719 61.3441 243.318 60.6026 244.708 59.1195C246.099 57.6364 246.794 55.8521 246.794 53.7665C246.794 51.6655 246.099 49.8735 244.708 48.3904C243.318 46.9073 241.719 46.1658 239.912 46.1658C238.12 46.1658 236.521 46.9073 235.115 48.3904C233.724 49.8735 233.029 51.6655 233.029 53.7665C233.029 55.8521 233.724 57.6364 235.115 59.1195ZM269.828 65.1445H265.101L255.832 42.3654H260.814L267.464 58.9805L274.115 42.3654H279.097L269.828 65.1445ZM303.985 55.4118H286.188C286.436 57.0185 287.223 58.4089 288.552 59.583C289.896 60.7571 291.487 61.3441 293.326 61.3441C294.654 61.3441 295.89 61.0429 297.033 60.4404C298.192 59.8379 299.011 59.2508 299.49 58.6792L300.208 57.7987L303.29 60.8807C303.197 61.0043 303.051 61.1819 302.85 61.4137C302.664 61.6299 302.255 62.0084 301.622 62.5491C300.988 63.0744 300.316 63.5456 299.606 63.9627C298.895 64.3644 297.968 64.7429 296.825 65.0982C295.697 65.4381 294.531 65.608 293.326 65.608C290.097 65.608 287.308 64.4262 284.96 62.0625C282.627 59.6834 281.461 56.8331 281.461 53.5116C281.461 50.3138 282.596 47.5793 284.867 45.3084C287.154 43.022 289.888 41.8787 293.071 41.8787C296.269 41.8787 298.926 42.9447 301.042 45.0766C303.174 47.1931 304.24 49.8503 304.24 53.0482L303.985 55.4118ZM293.071 45.934C291.356 45.934 289.911 46.4438 288.737 47.4635C287.579 48.4676 286.799 49.773 286.397 51.3797H299.582C299.304 49.773 298.586 48.4676 297.427 47.4635C296.269 46.4438 294.816 45.934 293.071 45.934ZM322.246 46.3975C321.612 46.243 320.902 46.1658 320.114 46.1658C318.306 46.1658 316.862 46.7528 315.78 47.9269C314.714 49.0856 314.181 50.7154 314.181 52.8164V65.1445H309.431V42.3654H314.181V44.729L314.483 44.4278C314.622 44.2887 314.915 44.0647 315.363 43.7558C315.811 43.4313 316.282 43.1455 316.777 42.8984C317.287 42.6357 317.928 42.404 318.7 42.2032C319.488 41.9869 320.276 41.8787 321.064 41.8787H322.246V46.3975ZM328.873 39.5151V34.7646H333.137V42.3654H337.887V46.6292H333.137V58.4475C333.137 59.2972 333.407 59.9924 333.948 60.5331C334.489 61.0738 335.169 61.3441 335.987 61.3441C336.343 61.3441 336.713 61.3055 337.1 61.2283C337.501 61.151 337.81 61.0661 338.027 60.9734L338.374 60.8807V65.1445C337.432 65.4535 336.319 65.608 335.037 65.608C330.603 65.608 328.394 63.2366 328.41 58.4939V46.6292H324.123V42.3654H326.51C328.085 42.3654 328.873 41.4153 328.873 39.5151ZM349.034 42.3654V65.1445H344.283V42.3654H349.034ZM348.709 33.212C349.25 33.7527 349.52 34.4325 349.52 35.2512C349.52 36.07 349.25 36.7498 348.709 37.2905C348.169 37.8312 347.489 38.1015 346.67 38.1015C345.851 38.1015 345.172 37.8312 344.631 37.2905C344.09 36.7498 343.82 36.07 343.82 35.2512C343.82 34.4325 344.09 33.7527 344.631 33.212C345.172 32.6713 345.851 32.4009 346.67 32.4009C347.489 32.4009 348.169 32.6713 348.709 33.212ZM370.399 44.9839L367.317 48.066C367.194 47.9424 367.008 47.7724 366.761 47.5562C366.529 47.3244 366.035 47.0386 365.278 46.6987C364.537 46.3434 363.787 46.1658 363.03 46.1658C362.011 46.1658 361.2 46.4052 360.597 46.8841C360.01 47.3476 359.717 47.896 359.717 48.5294C359.717 49.1937 360.002 49.7499 360.574 50.1979C361.146 50.6459 361.864 50.9858 362.729 51.2175C363.594 51.4492 364.521 51.7428 365.51 52.0981C366.514 52.438 367.449 52.8242 368.314 53.2567C369.194 53.6893 369.92 54.3536 370.492 55.2496C371.064 56.1456 371.349 57.2271 371.349 58.4939C371.349 60.4558 370.554 62.132 368.963 63.5224C367.387 64.9128 365.332 65.608 362.799 65.608C361.686 65.608 360.62 65.469 359.601 65.1909C358.597 64.9128 357.77 64.5807 357.121 64.1944C356.472 63.8082 355.901 63.422 355.406 63.0358C354.927 62.6341 354.58 62.2942 354.364 62.0162L354.016 61.5759L357.098 58.4939C357.252 58.7101 357.476 58.9805 357.77 59.3049C358.079 59.6293 358.728 60.0542 359.717 60.5794C360.721 61.0892 361.748 61.3441 362.799 61.3441C364.065 61.3441 365.015 61.0892 365.649 60.5794C366.282 60.0542 366.599 59.359 366.599 58.4939C366.599 57.8296 366.313 57.2811 365.742 56.8486C365.17 56.4006 364.452 56.0607 363.586 55.8289C362.721 55.5818 361.787 55.2882 360.783 54.9484C359.794 54.593 358.859 54.2068 357.979 53.7897C357.113 53.3572 356.395 52.6929 355.823 51.7968C355.252 50.8854 354.966 49.7962 354.966 48.5294C354.966 46.7837 355.731 45.2388 357.26 43.8948C358.805 42.5508 360.728 41.8787 363.03 41.8787C363.942 41.8787 364.822 41.9869 365.672 42.2032C366.537 42.404 367.24 42.6589 367.781 42.9679C368.321 43.2614 368.793 43.5704 369.194 43.8948C369.611 44.2038 369.913 44.451 370.098 44.6363L370.399 44.9839ZM381.522 42.3654V65.1445H376.772V42.3654H381.522ZM381.198 33.212C381.739 33.7527 382.009 34.4325 382.009 35.2512C382.009 36.07 381.739 36.7498 381.198 37.2905C380.657 37.8312 379.978 38.1015 379.159 38.1015C378.34 38.1015 377.66 37.8312 377.12 37.2905C376.579 36.7498 376.308 36.07 376.308 35.2512C376.308 34.4325 376.579 33.7527 377.12 33.212C377.66 32.6713 378.34 32.4009 379.159 32.4009C379.978 32.4009 380.657 32.6713 381.198 33.212ZM393.155 42.3654V44.729L393.457 44.4278C393.596 44.2887 393.889 44.0647 394.337 43.7558C394.785 43.4313 395.256 43.1455 395.751 42.8984C396.261 42.6357 396.902 42.404 397.674 42.2032C398.462 41.9869 399.25 41.8787 400.038 41.8787C402.788 41.8787 405.012 42.7825 406.712 44.59C408.426 46.3975 409.284 48.8229 409.284 51.8663V65.1445H404.533V51.8663C404.533 50.2288 404.008 48.8693 402.958 47.7879C401.922 46.7065 400.633 46.1658 399.088 46.1658C397.28 46.1658 395.836 46.7528 394.754 47.9269C393.688 49.0856 393.155 50.7154 393.155 52.8164V65.1445H388.405V42.3654H393.155ZM432.063 63.7773V61.8308L431.762 62.132C431.623 62.2711 431.329 62.5028 430.881 62.8272C430.449 63.1362 429.977 63.422 429.468 63.6846C428.958 63.9318 428.317 64.1635 427.544 64.3798C426.772 64.5807 425.984 64.6811 425.181 64.6811C422.307 64.6811 419.812 63.5765 417.696 61.3673C415.579 59.1427 414.521 56.4469 414.521 53.2799C414.521 50.1129 415.579 47.4248 417.696 45.2157C419.812 42.9911 422.307 41.8787 425.181 41.8787C426.447 41.8787 427.652 42.1182 428.796 42.5971C429.939 43.076 430.765 43.5549 431.275 44.0338L432.063 44.729V42.3654H436.813V63.731C436.813 66.9289 435.717 69.6247 433.523 71.8184C431.329 74.0121 428.633 75.109 425.435 75.109C424.138 75.109 422.902 74.939 421.728 74.5992C420.554 74.2747 419.588 73.8808 418.831 73.4173C418.074 72.9693 417.41 72.5136 416.838 72.0501C416.267 71.5867 415.857 71.185 415.61 70.8451L415.216 70.3585L418.321 67.2765C418.383 67.3691 418.484 67.4927 418.623 67.6472C418.762 67.8172 419.055 68.103 419.503 68.5046C419.967 68.9217 420.453 69.2848 420.963 69.5938C421.473 69.9182 422.129 70.204 422.933 70.4512C423.736 70.7138 424.57 70.8451 425.435 70.8451C427.367 70.8451 428.95 70.1885 430.186 68.8754C431.437 67.5623 432.063 65.8629 432.063 63.7773ZM421.172 48.2282C419.889 49.6031 419.248 51.287 419.248 53.2799C419.248 55.2728 419.889 56.9567 421.172 58.3316C422.454 59.7066 423.952 60.394 425.667 60.394C427.382 60.394 428.873 59.7066 430.14 58.3316C431.422 56.9567 432.063 55.2728 432.063 53.2799C432.063 51.287 431.422 49.6031 430.14 48.2282C428.873 46.8532 427.382 46.1658 425.667 46.1658C423.952 46.1658 422.454 46.8532 421.172 48.2282Z" fill="black"/>
<path d="M157.513 49.7628C157.778 50.0179 158.043 50.1958 158.247 50.3129L165.576 57.158L156.782 56.7526H156.698C155.245 56.7526 154.136 57.4652 153.479 58.1473C152.813 58.8379 152.189 59.9277 152.189 61.2925V61.3713L152.565 70.1496L146.962 63.5627L146.883 63.4803C146.29 62.8658 145.189 62.0317 143.612 62.0317C142.034 62.0317 140.933 62.8658 140.34 63.4803L140.261 63.5627L134.429 70.4188L134.619 61.7638V61.7235C134.619 60.3587 133.995 59.2689 133.329 58.5783C132.672 57.8962 131.563 57.1836 130.11 57.1836H130.069L120.706 57.3947L127.693 50.9996L127.773 50.9168C128.381 50.2857 129.115 49.2038 129.115 47.7177C129.115 46.2316 128.381 45.1497 127.773 44.5186L127.714 44.4575L120.719 37.842L129.61 38.2519H129.695C131.147 38.2519 132.256 37.5392 132.914 36.8572C133.58 36.1665 134.204 35.0768 134.204 33.7119V33.6332L133.827 24.8549L139.43 31.4418L139.51 31.5242C140.102 32.1387 141.203 32.9728 142.781 32.9728C144.358 32.9728 145.46 32.1387 146.052 31.5242L146.131 31.4418L151.734 24.8549L151.358 33.6332V33.7119C151.358 35.0768 151.982 36.1665 152.648 36.8572C153.305 37.5392 154.414 38.2519 155.867 38.2519H155.952L164.589 37.8537L157.802 44.0659L157.667 44.2205C157.606 44.2902 157.555 44.3466 157.506 44.401L157.494 44.4143C157.456 44.4566 157.379 44.542 157.314 44.6187C157.274 44.6662 157.198 44.7565 157.114 44.8709C157.043 44.969 156.879 45.1997 156.729 45.5208C156.588 45.8226 156.319 46.4984 156.391 47.3921C156.474 48.4278 156.967 49.2363 157.513 49.7628Z" fill="black"/>
<path fill-rule="evenodd" clip-rule="evenodd" d="M142.993 92.6118C168.452 92.6118 189.091 71.9729 189.091 46.5134C189.091 21.054 168.452 0.415039 142.993 0.415039C117.533 0.415039 96.8945 21.054 96.8945 46.5134C96.8945 71.9729 117.533 92.6118 142.993 92.6118ZM175.392 61.2925L160.48 47.3661C160.333 47.2129 160.204 47.1686 160.129 47.1426C160.09 47.1292 160.065 47.1207 160.059 47.1047C160.047 47.076 160.094 47.0234 160.227 46.8765C160.281 46.8156 160.351 46.7386 160.437 46.6403L174.561 33.7119L155.867 34.5738C155.451 34.5738 155.036 34.1429 155.036 33.7119L155.867 14.3193L143.404 28.9715C142.988 29.4025 142.573 29.4025 142.158 28.9715L129.695 14.3193L130.526 33.7119C130.526 34.1429 130.11 34.5738 129.695 34.5738L111 33.7119L125.125 47.0713C125.54 47.5022 125.54 47.9332 125.125 48.3641L111 61.2925L130.11 60.8616C130.526 60.8616 130.941 61.2925 130.941 61.7235L130.526 80.6851L142.988 66.0329C143.404 65.602 143.819 65.602 144.235 66.0329L156.698 80.6851L155.867 61.2925C155.867 60.8616 156.282 60.4306 156.698 60.4306L175.392 61.2925Z" fill="black"/>
</svg>
