<svg width="1089" height="199" viewBox="0 0 1089 199" fill="none" xmlns="http://www.w3.org/2000/svg">
<circle cx="99.4997" cy="99.4997" r="95.5304" stroke="white" stroke-width="7.93874"/>
<path d="M93.1349 160.017L153.375 99.7764M153.375 99.7764L93.1349 39.536M153.375 99.7764H32.8945" stroke="white" stroke-width="7.9179"/>
<path d="M481.466 140.218H471.212V135.116C471.079 135.249 470.845 135.466 470.512 135.766C470.212 136.066 469.578 136.567 468.611 137.267C467.677 137.934 466.66 138.551 465.56 139.117C464.46 139.651 463.076 140.134 461.409 140.568C459.741 141.001 458.057 141.218 456.357 141.218C451.355 141.218 447.204 139.768 443.903 136.867C440.601 133.966 438.951 130.648 438.951 126.913C438.951 122.878 440.218 119.494 442.752 116.76C445.32 114.025 448.821 112.291 453.256 111.558L471.212 108.457C471.212 105.856 470.245 103.672 468.311 101.905C466.41 100.137 463.959 99.2536 460.958 99.2536C458.358 99.2536 455.99 99.8038 453.856 100.904C451.755 101.971 450.305 103.055 449.505 104.155L448.154 105.906L441.502 99.2536C441.702 98.9869 441.969 98.6534 442.302 98.2533C442.669 97.8198 443.452 97.0862 444.653 96.0525C445.887 94.9855 447.187 94.0351 448.554 93.2015C449.921 92.3679 451.722 91.6343 453.956 91.0008C456.223 90.3339 458.558 90.0004 460.958 90.0004C466.961 90.0004 471.879 91.7844 475.714 95.3523C479.548 98.8868 481.466 103.255 481.466 108.457V140.218ZM457.907 132.015C462.076 132.015 465.327 130.781 467.661 128.314C470.028 125.813 471.212 122.262 471.212 117.66V116.66L455.307 119.211C453.473 119.544 451.989 120.294 450.855 121.461C449.721 122.628 449.154 124.096 449.154 125.863C449.154 127.497 449.938 128.931 451.505 130.164C453.106 131.398 455.24 132.015 457.907 132.015ZM516.828 90.0004C518.662 90.0004 520.446 90.2338 522.18 90.7007C523.947 91.1341 525.431 91.6843 526.631 92.3512C527.865 92.9848 528.965 93.6517 529.932 94.3519C530.899 95.0188 531.583 95.5523 531.983 95.9525L532.683 96.7027V68.493H542.937V140.218H532.683V134.566C532.216 135.033 531.55 135.65 530.683 136.416C529.849 137.183 528.048 138.184 525.281 139.417C522.513 140.618 519.695 141.218 516.828 141.218C510.326 141.218 504.69 138.734 499.922 133.766C495.154 128.764 492.769 122.712 492.769 115.609C492.769 108.507 495.154 102.471 499.922 97.503C504.69 92.5013 510.326 90.0004 516.828 90.0004ZM507.475 127.213C510.509 130.414 513.96 132.015 517.828 132.015C521.729 132.015 525.181 130.414 528.182 127.213C531.183 124.012 532.683 120.161 532.683 115.659C532.683 111.124 531.183 107.256 528.182 104.055C525.181 100.854 521.729 99.2536 517.828 99.2536C513.96 99.2536 510.509 100.854 507.475 104.055C504.473 107.256 502.973 111.124 502.973 115.659C502.973 120.161 504.473 124.012 507.475 127.213ZM582.4 140.218H572.197L552.19 91.0508H562.944L577.299 126.913L591.654 91.0508H602.407L582.4 140.218ZM656.126 119.211H617.713C618.246 122.678 619.947 125.679 622.814 128.214C625.715 130.748 629.15 132.015 633.118 132.015C635.986 132.015 638.653 131.365 641.121 130.064C643.622 128.764 645.389 127.497 646.423 126.263L647.973 124.362L654.625 131.015C654.425 131.281 654.109 131.665 653.675 132.165C653.275 132.632 652.391 133.449 651.024 134.616C649.657 135.75 648.206 136.767 646.673 137.667C645.139 138.534 643.138 139.351 640.671 140.118C638.236 140.851 635.719 141.218 633.118 141.218C626.149 141.218 620.13 138.667 615.062 133.565C610.027 128.43 607.509 122.278 607.509 115.109C607.509 108.207 609.96 102.305 614.862 97.403C619.797 92.4679 625.699 90.0004 632.568 90.0004C639.47 90.0004 645.205 92.3012 649.774 96.9028C654.375 101.471 656.676 107.206 656.676 114.109L656.126 119.211ZM632.568 98.7534C628.866 98.7534 625.749 99.8538 623.215 102.055C620.714 104.222 619.03 107.04 618.163 110.508H646.623C646.022 107.04 644.472 104.222 641.971 102.055C639.47 99.8538 636.336 98.7534 632.568 98.7534ZM695.54 99.7538C694.172 99.4203 692.639 99.2536 690.938 99.2536C687.037 99.2536 683.919 100.521 681.585 103.055C679.284 105.556 678.134 109.074 678.134 113.609V140.218H667.88V91.0508H678.134V96.1525L678.784 95.5023C679.084 95.2022 679.717 94.7187 680.684 94.0518C681.651 93.3516 682.668 92.7347 683.735 92.2012C684.836 91.6343 686.22 91.1341 687.887 90.7007C689.587 90.2338 691.288 90.0004 692.989 90.0004H695.54V99.7538ZM709.844 84.8987V74.6451H719.048V91.0508H729.301V100.254H719.048V125.763C719.048 127.597 719.631 129.097 720.798 130.264C721.965 131.431 723.432 132.015 725.2 132.015C725.967 132.015 726.767 131.932 727.601 131.765C728.468 131.598 729.134 131.415 729.601 131.215L730.352 131.015V140.218C728.318 140.885 725.917 141.218 723.149 141.218C713.579 141.218 708.811 136.1 708.844 125.863V100.254H699.591V91.0508H704.743C708.144 91.0508 709.844 89.0001 709.844 84.8987ZM753.36 91.0508V140.218H743.106V91.0508H753.36ZM752.659 71.294C753.826 72.461 754.41 73.9282 754.41 75.6955C754.41 77.4628 753.826 78.9299 752.659 80.097C751.492 81.2641 750.025 81.8476 748.258 81.8476C746.49 81.8476 745.023 81.2641 743.856 80.097C742.689 78.9299 742.106 77.4628 742.106 75.6955C742.106 73.9282 742.689 72.461 743.856 71.294C745.023 70.1269 746.49 69.5434 748.258 69.5434C750.025 69.5434 751.492 70.1269 752.659 71.294ZM799.475 96.7027L792.823 103.355C792.556 103.088 792.156 102.721 791.623 102.255C791.123 101.754 790.055 101.138 788.422 100.404C786.821 99.6371 785.204 99.2536 783.57 99.2536C781.369 99.2536 779.619 99.7705 778.318 100.804C777.051 101.805 776.417 102.988 776.417 104.355C776.417 105.789 777.034 106.99 778.268 107.957C779.502 108.924 781.052 109.657 782.92 110.157C784.787 110.658 786.788 111.291 788.922 112.058C791.089 112.792 793.107 113.625 794.974 114.559C796.875 115.493 798.442 116.926 799.675 118.86C800.909 120.794 801.526 123.129 801.526 125.863C801.526 130.098 799.809 133.716 796.374 136.717C792.973 139.718 788.538 141.218 783.07 141.218C780.669 141.218 778.368 140.918 776.167 140.318C774 139.718 772.216 139.001 770.816 138.167C769.415 137.333 768.181 136.5 767.114 135.666C766.081 134.799 765.33 134.066 764.863 133.465L764.113 132.515L770.765 125.863C771.099 126.33 771.582 126.913 772.216 127.613C772.883 128.314 774.283 129.231 776.417 130.364C778.585 131.465 780.802 132.015 783.07 132.015C785.804 132.015 787.855 131.465 789.222 130.364C790.589 129.231 791.273 127.73 791.273 125.863C791.273 124.429 790.656 123.245 789.422 122.312C788.188 121.345 786.638 120.611 784.77 120.111C782.903 119.577 780.886 118.944 778.718 118.21C776.584 117.443 774.567 116.61 772.666 115.709C770.799 114.776 769.248 113.342 768.015 111.408C766.781 109.44 766.164 107.09 766.164 104.355C766.164 100.587 767.814 97.2529 771.116 94.3519C774.45 91.4509 778.602 90.0004 783.57 90.0004C785.537 90.0004 787.438 90.2338 789.272 90.7007C791.139 91.1341 792.656 91.6843 793.823 92.3512C794.991 92.9848 796.008 93.6517 796.875 94.3519C797.775 95.0188 798.425 95.5523 798.825 95.9525L799.475 96.7027ZM823.484 91.0508V140.218H813.23V91.0508H823.484ZM822.783 71.294C823.951 72.461 824.534 73.9282 824.534 75.6955C824.534 77.4628 823.951 78.9299 822.783 80.097C821.616 81.2641 820.149 81.8476 818.382 81.8476C816.615 81.8476 815.147 81.2641 813.98 80.097C812.813 78.9299 812.23 77.4628 812.23 75.6955C812.23 73.9282 812.813 72.461 813.98 71.294C815.147 70.1269 816.615 69.5434 818.382 69.5434C820.149 69.5434 821.616 70.1269 822.783 71.294ZM848.592 91.0508V96.1525L849.243 95.5023C849.543 95.2022 850.176 94.7187 851.143 94.0518C852.11 93.3516 853.127 92.7347 854.194 92.2012C855.295 91.6343 856.679 91.1341 858.346 90.7007C860.046 90.2338 861.747 90.0004 863.448 90.0004C869.383 90.0004 874.185 91.9511 877.853 95.8524C881.554 99.7538 883.404 104.989 883.404 111.558V140.218H873.151V111.558C873.151 108.023 872.017 105.089 869.75 102.755C867.516 100.421 864.731 99.2536 861.397 99.2536C857.495 99.2536 854.378 100.521 852.044 103.055C849.743 105.556 848.592 109.074 848.592 113.609V140.218H838.339V91.0508H848.592ZM932.571 137.267V133.065L931.921 133.716C931.621 134.016 930.988 134.516 930.021 135.216C929.087 135.883 928.07 136.5 926.969 137.067C925.869 137.6 924.485 138.1 922.818 138.567C921.151 139.001 919.45 139.217 917.716 139.217C911.514 139.217 906.129 136.833 901.561 132.065C896.992 127.263 894.708 121.445 894.708 114.609C894.708 107.773 896.992 101.971 901.561 97.2029C906.129 92.4013 911.514 90.0004 917.716 90.0004C920.451 90.0004 923.051 90.5173 925.519 91.551C927.986 92.5846 929.77 93.6183 930.871 94.652L932.571 96.1525V91.0508H942.825V137.167C942.825 144.069 940.457 149.888 935.723 154.623C930.988 159.358 925.169 161.725 918.266 161.725C915.466 161.725 912.798 161.358 910.264 160.625C907.729 159.925 905.645 159.074 904.012 158.074C902.378 157.107 900.944 156.123 899.71 155.123C898.476 154.123 897.593 153.256 897.059 152.522L896.209 151.472L902.911 144.819C903.045 145.019 903.261 145.286 903.561 145.62C903.861 145.986 904.495 146.603 905.462 147.47C906.462 148.371 907.513 149.154 908.613 149.821C909.714 150.521 911.131 151.138 912.865 151.672C914.599 152.239 916.399 152.522 918.266 152.522C922.435 152.522 925.852 151.105 928.52 148.271C931.221 145.436 932.571 141.768 932.571 137.267ZM909.063 103.705C906.296 106.673 904.912 110.307 904.912 114.609C904.912 118.91 906.296 122.545 909.063 125.513C911.831 128.48 915.065 129.964 918.767 129.964C922.468 129.964 925.686 128.48 928.42 125.513C931.188 122.545 932.571 118.91 932.571 114.609C932.571 110.307 931.188 106.673 928.42 103.705C925.686 100.737 922.468 99.2536 918.767 99.2536C915.065 99.2536 911.831 100.737 909.063 103.705Z" fill="white"/>
<path fill-rule="evenodd" clip-rule="evenodd" d="M308.638 198.999C363.591 198.999 408.138 154.452 408.138 99.4997C408.138 44.5475 363.591 0 308.638 0C253.686 0 209.139 44.5475 209.139 99.4997C209.139 154.452 253.686 198.999 308.638 198.999ZM339.529 100.158C340.107 100.691 340.681 101.061 341.118 101.302L356.159 114.78L338.001 113.977L337.826 113.969H337.65C334.633 113.969 332.271 115.392 330.817 116.839C329.365 118.284 327.918 120.652 327.918 123.693V123.87L327.926 124.047L328.719 141.814L316.69 128.245L316.526 128.059L316.35 127.884C315.032 126.572 312.688 124.903 309.405 124.903C306.122 124.903 303.777 126.572 302.459 127.884L302.284 128.059L302.119 128.245L289.591 142.378L289.993 124.767L289.995 124.676V124.585C289.995 121.544 288.548 119.177 287.096 117.732C285.642 116.284 283.28 114.862 280.263 114.862H280.177L280.091 114.864L260.619 115.285L274.741 102.882L274.928 102.719L275.103 102.544C276.417 101.236 278.114 98.8864 278.114 95.5784C278.114 92.2705 276.417 89.9204 275.103 88.6131L274.973 88.4839L274.838 88.3609L260.639 75.4745L279.015 76.2874L279.191 76.2952H279.366C282.383 76.2952 284.745 74.8725 286.199 73.4252C287.651 71.98 289.098 69.6126 289.098 66.5714V66.3942L289.09 66.2173L288.297 48.4503L300.326 62.0198L300.49 62.2053L300.666 62.3802C301.984 63.6919 304.329 65.3618 307.611 65.3618C310.894 65.3618 313.239 63.6919 314.557 62.3802L314.733 62.2053L314.897 62.0198L326.926 48.4503L326.133 66.2173L326.125 66.3942V66.5714C326.125 69.6126 327.571 71.98 329.023 73.4252C330.477 74.8725 332.839 76.2952 335.857 76.2952H336.032L336.208 76.2874L354.011 75.4998L340.481 87.3823L340.148 87.6748L339.85 88.0025C339.72 88.1456 339.611 88.2615 339.506 88.374L339.48 88.4011C339.399 88.4878 339.23 88.6674 339.086 88.8296C338.998 88.9296 338.83 89.1219 338.643 89.3667C338.485 89.5745 338.113 90.0753 337.772 90.7777C337.453 91.4335 336.821 92.9454 336.989 94.9563C337.185 97.2899 338.336 99.0548 339.529 100.158ZM378.001 123.693L368.672 115.334L345.815 94.8503C345.496 94.5328 345.218 94.4412 345.055 94.3873C344.971 94.3594 344.917 94.3416 344.904 94.3078C344.88 94.2481 344.983 94.1387 345.267 93.8362C345.385 93.7102 345.535 93.5506 345.72 93.3471L350.743 88.9355L350.93 88.7714L366.679 74.9394L376.207 66.5714L363.539 67.1318L335.857 68.3564C334.96 68.3564 334.063 67.4639 334.063 66.5714L335.294 39.0103L335.857 26.4078L327.489 35.8478L308.956 56.7536C308.06 57.6461 307.163 57.6461 306.266 56.7536L287.734 35.8478L279.366 26.4078L279.929 39.0103L281.159 66.5714C281.159 67.4639 280.263 68.3564 279.366 68.3564L251.434 67.1207L239.016 66.5714L248.22 74.9251L269.503 94.2396C270.399 95.1322 270.399 96.0247 269.503 96.9172L248.285 115.552L239.016 123.693L251.35 123.426L280.263 122.8C281.159 122.8 282.056 123.693 282.056 124.585L281.44 151.572L281.159 163.857L289.31 154.662L308.06 133.511C308.956 132.618 309.853 132.618 310.75 133.511L329.282 154.417L337.65 163.857L337.087 151.254L335.857 123.693C335.857 122.8 336.753 121.908 337.65 121.908L365.487 123.139L378.001 123.693Z" fill="white"/>
</svg>
