<svg width="94" height="94" viewBox="0 0 94 94" fill="none" xmlns="http://www.w3.org/2000/svg">
<path fill-rule="evenodd" clip-rule="evenodd" d="M93.2488 47.2367C93.2488 72.9866 72.3743 93.8611 46.6244 93.8611C20.8744 93.8611 0 72.9866 0 47.2367C0 21.4868 20.8744 0.612305 46.6244 0.612305C72.3743 0.612305 93.2488 21.4868 93.2488 47.2367ZM68.9485 47.4021L45.4729 23.9265L48.1034 21.2961L72.8941 46.0869L74.2094 47.4021L72.8941 48.7173L48.1034 73.5081L45.4729 70.8776L68.9485 47.4021ZM20.685 23.9265L44.1606 47.4021L20.685 70.8776L23.3155 73.5081L48.1062 48.7173L49.4214 47.4021L48.1062 46.0869L23.3155 21.2961L20.685 23.9265Z" fill="black"/>
</svg>
