<svg width="500" height="102" viewBox="0 0 500 102" fill="none" xmlns="http://www.w3.org/2000/svg">
<circle cx="46.6244" cy="55.2367" r="44.7644" stroke="black" stroke-width="3.72"/>
<path d="M43.642 83.5941L71.8699 55.3662M71.8699 55.3662L43.642 27.1383M71.8699 55.3662L15.4141 55.3662" stroke="black" stroke-width="3.71023"/>
<path d="M231.609 42.6123H226.805V40.2217C226.742 40.2842 226.633 40.3857 226.477 40.5264C226.336 40.667 226.039 40.9014 225.586 41.2295C225.148 41.542 224.672 41.8311 224.156 42.0967C223.641 42.3467 222.992 42.5732 222.211 42.7764C221.43 42.9795 220.641 43.0811 219.844 43.0811C217.5 43.0811 215.555 42.4014 214.008 41.042C212.461 39.6826 211.687 38.1279 211.687 36.3779C211.687 34.4873 212.281 32.9014 213.469 31.6201C214.672 30.3389 216.312 29.5264 218.391 29.1826L226.805 27.7295C226.805 26.5107 226.352 25.4873 225.445 24.6592C224.555 23.8311 223.406 23.417 222 23.417C220.781 23.417 219.672 23.6748 218.672 24.1904C217.687 24.6904 217.008 25.1982 216.633 25.7139L216 26.5342L212.883 23.417C212.977 23.292 213.102 23.1357 213.258 22.9482C213.43 22.7451 213.797 22.4014 214.359 21.917C214.937 21.417 215.547 20.9717 216.187 20.5811C216.828 20.1904 217.672 19.8467 218.719 19.5498C219.781 19.2373 220.875 19.0811 222 19.0811C224.812 19.0811 227.117 19.917 228.914 21.5889C230.711 23.2451 231.609 25.292 231.609 27.7295V42.6123ZM220.57 38.7686C222.523 38.7686 224.047 38.1904 225.141 37.0342C226.25 35.8623 226.805 34.1982 226.805 32.042V31.5732L219.352 32.7686C218.492 32.9248 217.797 33.2764 217.266 33.8232C216.734 34.3701 216.469 35.0576 216.469 35.8857C216.469 36.6514 216.836 37.3232 217.57 37.9014C218.32 38.4795 219.32 38.7686 220.57 38.7686ZM248.18 19.0811C249.039 19.0811 249.875 19.1904 250.687 19.4092C251.516 19.6123 252.211 19.8701 252.773 20.1826C253.352 20.4795 253.867 20.792 254.32 21.1201C254.773 21.4326 255.094 21.6826 255.281 21.8701L255.609 22.2217V9.00293H260.414V42.6123H255.609V39.9639C255.391 40.1826 255.078 40.4717 254.672 40.8311C254.281 41.1904 253.437 41.6592 252.141 42.2373C250.844 42.7998 249.523 43.0811 248.18 43.0811C245.133 43.0811 242.492 41.917 240.258 39.5889C238.023 37.2451 236.906 34.4092 236.906 31.0811C236.906 27.7529 238.023 24.9248 240.258 22.5967C242.492 20.2529 245.133 19.0811 248.18 19.0811ZM243.797 36.5186C245.219 38.0186 246.836 38.7686 248.648 38.7686C250.477 38.7686 252.094 38.0186 253.5 36.5186C254.906 35.0186 255.609 33.2139 255.609 31.1045C255.609 28.9795 254.906 27.167 253.5 25.667C252.094 24.167 250.477 23.417 248.648 23.417C246.836 23.417 245.219 24.167 243.797 25.667C242.391 27.167 241.687 28.9795 241.687 31.1045C241.687 33.2139 242.391 35.0186 243.797 36.5186ZM278.906 42.6123H274.125L264.75 19.5732H269.789L276.516 36.3779L283.242 19.5732H288.281L278.906 42.6123ZM297.141 19.5732V42.6123H292.336V19.5732H297.141ZM296.812 10.3154C297.359 10.8623 297.633 11.5498 297.633 12.3779C297.633 13.2061 297.359 13.8936 296.812 14.4404C296.266 14.9873 295.578 15.2607 294.75 15.2607C293.922 15.2607 293.234 14.9873 292.687 14.4404C292.141 13.8936 291.867 13.2061 291.867 12.3779C291.867 11.5498 292.141 10.8623 292.687 10.3154C293.234 9.76856 293.922 9.49512 294.75 9.49512C295.578 9.49512 296.266 9.76856 296.812 10.3154ZM318.75 22.2217L315.633 25.3389C315.508 25.2139 315.32 25.042 315.07 24.8232C314.836 24.5889 314.336 24.2998 313.57 23.9561C312.82 23.5967 312.062 23.417 311.297 23.417C310.266 23.417 309.445 23.6592 308.836 24.1436C308.242 24.6123 307.945 25.167 307.945 25.8076C307.945 26.4795 308.234 27.042 308.812 27.4951C309.391 27.9482 310.117 28.292 310.992 28.5264C311.867 28.7607 312.805 29.0576 313.805 29.417C314.82 29.7607 315.766 30.1514 316.641 30.5889C317.531 31.0264 318.266 31.6982 318.844 32.6045C319.422 33.5107 319.711 34.6045 319.711 35.8857C319.711 37.8701 318.906 39.5654 317.297 40.9717C315.703 42.3779 313.625 43.0811 311.062 43.0811C309.937 43.0811 308.859 42.9404 307.828 42.6592C306.812 42.3779 305.977 42.042 305.32 41.6514C304.664 41.2607 304.086 40.8701 303.586 40.4795C303.102 40.0732 302.75 39.7295 302.531 39.4482L302.18 39.0029L305.297 35.8857C305.453 36.1045 305.68 36.3779 305.977 36.7061C306.289 37.0342 306.945 37.4639 307.945 37.9951C308.961 38.5107 310 38.7686 311.062 38.7686C312.344 38.7686 313.305 38.5107 313.945 37.9951C314.586 37.4639 314.906 36.7607 314.906 35.8857C314.906 35.2139 314.617 34.6592 314.039 34.2217C313.461 33.7686 312.734 33.4248 311.859 33.1904C310.984 32.9404 310.039 32.6436 309.023 32.2998C308.023 31.9404 307.078 31.5498 306.187 31.1279C305.312 30.6904 304.586 30.0186 304.008 29.1123C303.43 28.1904 303.141 27.0889 303.141 25.8076C303.141 24.042 303.914 22.4795 305.461 21.1201C307.023 19.7607 308.969 19.0811 311.297 19.0811C312.219 19.0811 313.109 19.1904 313.969 19.4092C314.844 19.6123 315.555 19.8701 316.102 20.1826C316.648 20.4795 317.125 20.792 317.531 21.1201C317.953 21.4326 318.258 21.6826 318.445 21.8701L318.75 22.2217ZM340.594 36.542C342.016 35.0576 342.727 33.2451 342.727 31.1045C342.727 28.9482 342.016 27.1279 340.594 25.6436C339.172 24.1592 337.484 23.417 335.531 23.417C333.578 23.417 331.883 24.1592 330.445 25.6436C329.023 27.1279 328.312 28.9482 328.312 31.1045C328.312 33.2451 329.023 35.0576 330.445 36.542C331.883 38.0264 333.578 38.7686 335.531 38.7686C337.484 38.7686 339.172 38.0264 340.594 36.542ZM327.094 39.5186C324.719 37.1279 323.531 34.3232 323.531 31.1045C323.531 27.8701 324.719 25.0576 327.094 22.667C329.484 20.2764 332.297 19.0811 335.531 19.0811C338.766 19.0811 341.57 20.2764 343.945 22.667C346.336 25.0576 347.531 27.8701 347.531 31.1045C347.531 34.3232 346.336 37.1279 343.945 39.5186C341.57 41.8936 338.766 43.0811 335.531 43.0811C332.297 43.0811 329.484 41.8936 327.094 39.5186ZM365.766 23.6514C365.125 23.4951 364.406 23.417 363.609 23.417C361.781 23.417 360.32 24.0107 359.227 25.1982C358.148 26.3701 357.609 28.0186 357.609 30.1436V42.6123H352.805V19.5732H357.609V21.9639L357.914 21.6592C358.055 21.5186 358.352 21.292 358.805 20.9795C359.258 20.6514 359.734 20.3623 360.234 20.1123C360.75 19.8467 361.398 19.6123 362.18 19.4092C362.977 19.1904 363.773 19.0811 364.57 19.0811H365.766V23.6514ZM375.117 45.0029L376.078 42.6123L366.703 19.5732H371.742L378.469 36.3779L385.195 19.5732H390.234L379.898 45.0029C378.711 47.8467 377.531 49.8389 376.359 50.9795C375.203 52.1201 373.75 52.6904 372 52.6904C371.359 52.6904 370.758 52.6514 370.195 52.5732C369.633 52.4951 369.219 52.4092 368.953 52.3154L368.625 52.2217V47.8857C369.422 48.1982 370.227 48.3623 371.039 48.3779C372.867 48.3623 374.227 47.2373 375.117 45.0029ZM227.766 70.2217L224.648 73.3389C224.523 73.2139 224.336 73.042 224.086 72.8232C223.852 72.5889 223.352 72.2998 222.586 71.9561C221.836 71.5967 221.078 71.417 220.312 71.417C219.281 71.417 218.461 71.6592 217.852 72.1436C217.258 72.6123 216.961 73.167 216.961 73.8076C216.961 74.4795 217.25 75.042 217.828 75.4951C218.406 75.9482 219.133 76.292 220.008 76.5264C220.883 76.7607 221.82 77.0576 222.82 77.417C223.836 77.7607 224.781 78.1514 225.656 78.5889C226.547 79.0264 227.281 79.6982 227.859 80.6045C228.437 81.5107 228.727 82.6045 228.727 83.8857C228.727 85.8701 227.922 87.5654 226.312 88.9717C224.719 90.3779 222.641 91.0811 220.078 91.0811C218.953 91.0811 217.875 90.9404 216.844 90.6592C215.828 90.3779 214.992 90.042 214.336 89.6514C213.68 89.2607 213.102 88.8701 212.602 88.4795C212.117 88.0732 211.766 87.7295 211.547 87.4482L211.195 87.0029L214.312 83.8857C214.469 84.1045 214.695 84.3779 214.992 84.7061C215.305 85.0342 215.961 85.4639 216.961 85.9951C217.977 86.5107 219.016 86.7686 220.078 86.7686C221.359 86.7686 222.32 86.5107 222.961 85.9951C223.602 85.4639 223.922 84.7607 223.922 83.8857C223.922 83.2139 223.633 82.6592 223.055 82.2217C222.477 81.7686 221.75 81.4248 220.875 81.1904C220 80.9404 219.055 80.6436 218.039 80.2998C217.039 79.9404 216.094 79.5498 215.203 79.1279C214.328 78.6904 213.602 78.0186 213.023 77.1123C212.445 76.1904 212.156 75.0889 212.156 73.8076C212.156 72.042 212.93 70.4795 214.477 69.1201C216.039 67.7607 217.984 67.0811 220.312 67.0811C221.234 67.0811 222.125 67.1904 222.984 67.4092C223.859 67.6123 224.57 67.8701 225.117 68.1826C225.664 68.4795 226.141 68.792 226.547 69.1201C226.969 69.4326 227.273 69.6826 227.461 69.8701L227.766 70.2217ZM255.328 80.7686H237.328C237.578 82.3936 238.375 83.7998 239.719 84.9873C241.078 86.1748 242.687 86.7686 244.547 86.7686C245.891 86.7686 247.141 86.4639 248.297 85.8545C249.469 85.2451 250.297 84.6514 250.781 84.0732L251.508 83.1826L254.625 86.2998C254.531 86.4248 254.383 86.6045 254.18 86.8389C253.992 87.0576 253.578 87.4404 252.937 87.9873C252.297 88.5186 251.617 88.9951 250.898 89.417C250.18 89.8232 249.242 90.2061 248.086 90.5654C246.945 90.9092 245.766 91.0811 244.547 91.0811C241.281 91.0811 238.461 89.8857 236.086 87.4951C233.727 85.0889 232.547 82.2061 232.547 78.8467C232.547 75.6123 233.695 72.8467 235.992 70.5498C238.305 68.2373 241.07 67.0811 244.289 67.0811C247.523 67.0811 250.211 68.1592 252.352 70.3154C254.508 72.4561 255.586 75.1436 255.586 78.3779L255.328 80.7686ZM244.289 71.1826C242.555 71.1826 241.094 71.6982 239.906 72.7295C238.734 73.7451 237.945 75.0654 237.539 76.6904H250.875C250.594 75.0654 249.867 73.7451 248.695 72.7295C247.523 71.6982 246.055 71.1826 244.289 71.1826ZM275.484 70.2217L272.367 73.3389C272.242 73.2139 272.055 73.042 271.805 72.8232C271.57 72.5889 271.07 72.2998 270.305 71.9561C269.555 71.5967 268.797 71.417 268.031 71.417C267 71.417 266.18 71.6592 265.57 72.1436C264.977 72.6123 264.68 73.167 264.68 73.8076C264.68 74.4795 264.969 75.042 265.547 75.4951C266.125 75.9482 266.852 76.292 267.727 76.5264C268.602 76.7607 269.539 77.0576 270.539 77.417C271.555 77.7607 272.5 78.1514 273.375 78.5889C274.266 79.0264 275 79.6982 275.578 80.6045C276.156 81.5107 276.445 82.6045 276.445 83.8857C276.445 85.8701 275.641 87.5654 274.031 88.9717C272.437 90.3779 270.359 91.0811 267.797 91.0811C266.672 91.0811 265.594 90.9404 264.562 90.6592C263.547 90.3779 262.711 90.042 262.055 89.6514C261.398 89.2607 260.82 88.8701 260.32 88.4795C259.836 88.0732 259.484 87.7295 259.266 87.4482L258.914 87.0029L262.031 83.8857C262.187 84.1045 262.414 84.3779 262.711 84.7061C263.023 85.0342 263.68 85.4639 264.68 85.9951C265.695 86.5107 266.734 86.7686 267.797 86.7686C269.078 86.7686 270.039 86.5107 270.68 85.9951C271.32 85.4639 271.641 84.7607 271.641 83.8857C271.641 83.2139 271.352 82.6592 270.773 82.2217C270.195 81.7686 269.469 81.4248 268.594 81.1904C267.719 80.9404 266.773 80.6436 265.758 80.2998C264.758 79.9404 263.812 79.5498 262.922 79.1279C262.047 78.6904 261.32 78.0186 260.742 77.1123C260.164 76.1904 259.875 75.0889 259.875 73.8076C259.875 72.042 260.648 70.4795 262.195 69.1201C263.758 67.7607 265.703 67.0811 268.031 67.0811C268.953 67.0811 269.844 67.1904 270.703 67.4092C271.578 67.6123 272.289 67.8701 272.836 68.1826C273.383 68.4795 273.859 68.792 274.266 69.1201C274.687 69.4326 274.992 69.6826 275.18 69.8701L275.484 70.2217ZM296.344 70.2217L293.227 73.3389C293.102 73.2139 292.914 73.042 292.664 72.8232C292.43 72.5889 291.93 72.2998 291.164 71.9561C290.414 71.5967 289.656 71.417 288.891 71.417C287.859 71.417 287.039 71.6592 286.43 72.1436C285.836 72.6123 285.539 73.167 285.539 73.8076C285.539 74.4795 285.828 75.042 286.406 75.4951C286.984 75.9482 287.711 76.292 288.586 76.5264C289.461 76.7607 290.398 77.0576 291.398 77.417C292.414 77.7607 293.359 78.1514 294.234 78.5889C295.125 79.0264 295.859 79.6982 296.437 80.6045C297.016 81.5107 297.305 82.6045 297.305 83.8857C297.305 85.8701 296.5 87.5654 294.891 88.9717C293.297 90.3779 291.219 91.0811 288.656 91.0811C287.531 91.0811 286.453 90.9404 285.422 90.6592C284.406 90.3779 283.57 90.042 282.914 89.6514C282.258 89.2607 281.68 88.8701 281.18 88.4795C280.695 88.0732 280.344 87.7295 280.125 87.4482L279.773 87.0029L282.891 83.8857C283.047 84.1045 283.273 84.3779 283.57 84.7061C283.883 85.0342 284.539 85.4639 285.539 85.9951C286.555 86.5107 287.594 86.7686 288.656 86.7686C289.937 86.7686 290.898 86.5107 291.539 85.9951C292.18 85.4639 292.5 84.7607 292.5 83.8857C292.5 83.2139 292.211 82.6592 291.633 82.2217C291.055 81.7686 290.328 81.4248 289.453 81.1904C288.578 80.9404 287.633 80.6436 286.617 80.2998C285.617 79.9404 284.672 79.5498 283.781 79.1279C282.906 78.6904 282.18 78.0186 281.602 77.1123C281.023 76.1904 280.734 75.0889 280.734 73.8076C280.734 72.042 281.508 70.4795 283.055 69.1201C284.617 67.7607 286.562 67.0811 288.891 67.0811C289.812 67.0811 290.703 67.1904 291.562 67.4092C292.437 67.6123 293.148 67.8701 293.695 68.1826C294.242 68.4795 294.719 68.792 295.125 69.1201C295.547 69.4326 295.852 69.6826 296.039 69.8701L296.344 70.2217ZM307.594 67.5732V90.6123H302.789V67.5732H307.594ZM307.266 58.3154C307.812 58.8623 308.086 59.5498 308.086 60.3779C308.086 61.2061 307.812 61.8936 307.266 62.4404C306.719 62.9873 306.031 63.2607 305.203 63.2607C304.375 63.2607 303.687 62.9873 303.141 62.4404C302.594 61.8936 302.32 61.2061 302.32 60.3779C302.32 59.5498 302.594 58.8623 303.141 58.3154C303.687 57.7686 304.375 57.4951 305.203 57.4951C306.031 57.4951 306.719 57.7686 307.266 58.3154ZM330.187 84.542C331.609 83.0576 332.32 81.2451 332.32 79.1045C332.32 76.9482 331.609 75.1279 330.187 73.6436C328.766 72.1592 327.078 71.417 325.125 71.417C323.172 71.417 321.477 72.1592 320.039 73.6436C318.617 75.1279 317.906 76.9482 317.906 79.1045C317.906 81.2451 318.617 83.0576 320.039 84.542C321.477 86.0264 323.172 86.7686 325.125 86.7686C327.078 86.7686 328.766 86.0264 330.187 84.542ZM316.687 87.5186C314.312 85.1279 313.125 82.3232 313.125 79.1045C313.125 75.8701 314.312 73.0576 316.687 70.667C319.078 68.2764 321.891 67.0811 325.125 67.0811C328.359 67.0811 331.164 68.2764 333.539 70.667C335.93 73.0576 337.125 75.8701 337.125 79.1045C337.125 82.3232 335.93 85.1279 333.539 87.5186C331.164 89.8936 328.359 91.0811 325.125 91.0811C321.891 91.0811 319.078 89.8936 316.687 87.5186ZM347.203 67.5732V69.9639L347.508 69.6592C347.648 69.5186 347.945 69.292 348.398 68.9795C348.852 68.6514 349.328 68.3623 349.828 68.1123C350.344 67.8467 350.992 67.6123 351.773 67.4092C352.57 67.1904 353.367 67.0811 354.164 67.0811C356.945 67.0811 359.195 67.9951 360.914 69.8232C362.648 71.6514 363.516 74.1045 363.516 77.1826V90.6123H358.711V77.1826C358.711 75.5264 358.18 74.1514 357.117 73.0576C356.07 71.9639 354.766 71.417 353.203 71.417C351.375 71.417 349.914 72.0107 348.82 73.1982C347.742 74.3701 347.203 76.0186 347.203 78.1436V90.6123H342.398V67.5732H347.203Z" fill="black"/>
<path fill-rule="evenodd" clip-rule="evenodd" d="M189.249 55.2367C189.249 80.9866 168.374 101.861 142.624 101.861C116.874 101.861 96 80.9866 96 55.2367C96 29.4868 116.874 8.6123 142.624 8.6123C168.374 8.6123 189.249 29.4868 189.249 55.2367ZM164.948 55.4021L141.473 31.9265L144.103 29.2961L168.894 54.0869L170.209 55.4021L168.894 56.7173L144.103 81.5081L141.473 78.8776L164.948 55.4021ZM116.685 31.9265L140.161 55.4021L116.685 78.8776L119.315 81.5081L144.106 56.7173L145.421 55.4021L144.106 54.0869L119.315 29.2961L116.685 31.9265Z" fill="black"/>
</svg>
