<svg width="131" height="43" viewBox="0 0 131 43" fill="none" xmlns="http://www.w3.org/2000/svg">
<path d="M49.829 9.774L49.829 19.502C49.8759 19.4551 49.9521 19.3789 50.0576 19.2733C50.1749 19.1678 50.3977 18.9977 50.7261 18.7632C51.0662 18.5169 51.4298 18.2999 51.8168 18.1123C52.2038 17.9129 52.6905 17.737 53.2769 17.5846C53.8632 17.4204 54.4555 17.3383 55.0536 17.3383C57.1411 17.3383 58.8357 18.0243 60.1375 19.3965C61.4392 20.7686 62.0901 22.6098 62.0901 24.9202L62.0901 35L58.4839 35L58.4839 24.9202C58.4839 23.677 58.0852 22.645 57.2877 21.8241C56.5019 21.0031 55.5168 20.5927 54.3323 20.5927C52.9602 20.5927 51.8637 21.0383 51.0428 21.9296C50.2336 22.8092 49.829 24.0465 49.829 25.6414L49.829 35L46.2403 35L46.2403 9.774L49.829 9.774ZM79.3648 35L79.3648 33.2057L79.1361 33.4344C79.0306 33.5399 78.8078 33.7158 78.4677 33.9621C78.1393 34.1967 77.7816 34.4136 77.3946 34.613C77.0076 34.8006 76.5209 34.9707 75.9345 35.1231C75.3481 35.2756 74.75 35.3518 74.1402 35.3518C72.0527 35.3518 70.3581 34.6716 69.0563 33.3112C67.7663 31.9391 67.1213 30.0979 67.1213 27.7875L67.1213 17.7077L70.7275 17.7077L70.7275 27.7875C70.7275 29.0307 71.1204 30.0627 71.9061 30.8836C72.7036 31.7046 73.6887 32.115 74.8614 32.115C76.2336 32.115 77.3242 31.6752 78.1334 30.7957C78.9544 29.9044 79.3648 28.6612 79.3648 27.0663L79.3648 17.7077L82.9711 17.7077L82.9711 35L79.3648 35ZM97.7478 17.3383C100.035 17.3383 102.017 18.2179 103.694 19.977C105.371 21.7244 106.209 23.8471 106.209 26.3451C106.209 28.843 105.365 30.9716 103.676 32.7307C101.999 34.4781 100.023 35.3518 97.7478 35.3518C97.1028 35.3518 96.4695 35.2756 95.8479 35.1231C95.2381 34.9707 94.7162 34.783 94.2823 34.5602C93.8484 34.3257 93.4614 34.0911 93.1213 33.8566C92.7929 33.6103 92.5583 33.4168 92.4176 33.276L92.1537 33.0122L92.1537 35L88.5651 35L88.5651 9.774L92.1537 9.774L92.1537 19.6955C92.3179 19.5313 92.5525 19.3144 92.8574 19.0446C93.1623 18.7749 93.8015 18.4231 94.7749 17.9892C95.7482 17.5552 96.7392 17.3383 97.7478 17.3383ZM93.737 30.4262C94.8042 31.5521 96.018 32.115 97.3784 32.115C98.7505 32.115 99.9643 31.5521 101.02 30.4262C102.075 29.3004 102.603 27.9459 102.603 26.3626C102.603 24.7677 102.075 23.4073 101.02 22.2815C99.9643 21.1556 98.7505 20.5927 97.3784 20.5927C96.018 20.5927 94.8042 21.1556 93.737 22.2815C92.6815 23.4073 92.1537 24.7677 92.1537 26.3626C92.1537 27.9459 92.6815 29.3004 93.737 30.4262Z" fill="black"/>
<path d="M3.94046 33.0036C2.15787 31.2093 1.26658 29.1042 1.26658 26.6883C1.26658 24.2607 2.15787 22.1498 3.94046 20.3554C5.73478 18.5611 7.84574 17.664 10.2733 17.664C11.622 17.664 12.8769 17.9572 14.0379 18.5435C15.1989 19.1182 16.0316 19.6928 16.5359 20.2675L17.2923 21.0943L14.9526 23.4339C14.8354 23.2463 14.6536 23.0176 14.4073 22.7479C14.1728 22.4664 13.6509 22.0911 12.8417 21.622C12.0442 21.1529 11.1881 20.9184 10.2733 20.9184C8.8074 20.9184 7.53496 21.4754 6.45603 22.5895C5.38882 23.7037 4.85521 25.0699 4.85521 26.6883C4.85521 28.295 5.38882 29.6554 6.45603 30.7695C7.53496 31.8836 8.8074 32.4407 10.2733 32.4407C11.1881 32.4407 12.0442 32.212 12.8417 31.7546C13.6509 31.2973 14.2314 30.8516 14.5832 30.4177L15.1286 29.7492L17.4682 32.0889C17.3978 32.1827 17.2923 32.3176 17.1516 32.4935C17.0108 32.6577 16.7059 32.945 16.2368 33.3555C15.7677 33.7542 15.2752 34.1119 14.7591 34.4285C14.2431 34.7334 13.5747 35.0208 12.7537 35.2905C11.9328 35.5485 11.106 35.6775 10.2733 35.6775C7.84574 35.6775 5.73478 34.7862 3.94046 33.0036Z" fill="black"/>
<path fill-rule="evenodd" clip-rule="evenodd" d="M31.227 36.754C37.1412 36.754 41.9355 31.9596 41.9355 26.0454C41.9355 20.1313 37.1412 15.3369 31.227 15.3369C25.3129 15.3369 20.5185 20.1313 20.5185 26.0454C20.5185 31.9596 25.3129 36.754 31.227 36.754ZM35.2124 25.323L24.0579 25.323L24.0579 26.8242L35.2124 26.8242L30.0104 32.0262L31.0719 33.0876L37.5552 26.6043L38.0859 26.0736L37.5552 25.5429L31.0719 19.0596L30.0104 20.121L35.2124 25.323Z" fill="black"/>
<path fill-rule="evenodd" clip-rule="evenodd" d="M120.291 36.754C126.206 36.754 131 31.9596 131 26.0454C131 20.1313 126.206 15.3369 120.291 15.3369C114.377 15.3369 109.583 20.1313 109.583 26.0454C109.583 31.9596 114.377 36.754 120.291 36.754ZM121.273 21.0145L119.878 21.0145C119.648 21.4741 119.351 21.8323 118.988 22.0888C118.63 22.34 118.106 22.5031 117.417 22.5779L117.417 23.8126L119.469 23.8126L119.469 32.5115L121.273 32.5115L121.273 21.0145Z" fill="black"/>
</svg>
