<svg width="94" height="95" viewBox="0 0 94 95" fill="none" xmlns="http://www.w3.org/2000/svg">
<path fill-rule="evenodd" clip-rule="evenodd" d="M46.7143 94.1986C72.4805 94.1986 93.3681 73.311 93.3681 47.5449C93.3681 21.7787 72.4805 0.891113 46.7143 0.891113C20.9481 0.891113 0.0605469 21.7787 0.0605469 47.5449C0.0605469 73.311 20.9481 94.1986 46.7143 94.1986ZM28.7179 27.172C37.4918 20.7559 55.871 17.5061 68.1149 31.2694C74.1948 38.1037 74.8501 45.3644 73.8884 51.1618C72.9305 56.9357 70.3685 61.2035 69.9173 61.9551L69.8993 61.9852C69.1139 63.2951 62.2114 73.6413 49.0068 71.8156C35.5245 69.9514 30.1203 60.2959 29.9537 53.7897C29.7718 46.6919 32.514 38.2169 40.3604 35.4891C44.4287 34.0747 48.6921 34.291 52.2234 35.6363C55.7741 36.989 58.4287 39.4137 59.523 42.269C61.9681 48.6488 60.436 54.4057 56.7321 57.1858C54.9365 58.5335 52.2272 59.0959 49.6303 58.6747C47.0397 58.2545 44.9318 56.9277 43.9901 54.938C42.9627 52.7674 43.2126 50.8389 43.948 49.5109C44.7229 48.1113 45.9312 47.4911 46.8535 47.5397C47.9826 47.5992 48.417 48.1942 48.5023 48.4506C48.5048 48.4581 48.507 48.4652 48.509 48.4718C48.4785 48.482 48.4384 48.493 48.3866 48.5034C47.3787 48.7051 46.7252 49.6857 46.9269 50.6936C47.1287 51.7015 48.1093 52.355 49.1172 52.1533C50.2689 51.9228 51.2532 51.2943 51.8077 50.2848C52.3464 49.3038 52.3446 48.207 52.0339 47.2743C51.4086 45.3967 49.5212 43.9527 47.0493 43.8225C44.3704 43.6814 41.9777 45.3848 40.6915 47.7078C39.3657 50.1022 39.0943 53.2952 40.6256 56.5305C42.2426 59.9467 45.6311 61.797 49.0344 62.349C52.4313 62.9 56.2134 62.2294 58.9666 60.1628C64.3602 56.1144 65.8606 48.4039 62.9988 40.9369C61.4397 36.8687 57.8398 33.7927 53.5486 32.1579C49.2382 30.5157 44.0724 30.2577 39.1381 31.9732C28.9791 35.5049 26.0353 46.1877 26.2325 53.8851C26.4449 62.1741 33.1707 73.3837 48.497 75.5028C64.1011 77.6604 72.1714 65.4345 73.0918 63.8992L73.1131 63.8637C73.6328 62.998 76.4866 58.2442 77.5605 51.771C78.6599 45.1442 77.8938 36.6614 70.896 28.7953C56.9848 13.1578 36.315 17.0051 26.5207 24.1673C21.7028 27.6904 18.4001 32.7962 16.3176 37.6512C14.2429 42.488 13.2911 47.2837 13.3441 50.3604C13.3618 51.3881 14.2093 52.2069 15.2371 52.1892C16.2648 52.1715 17.0836 51.324 17.0659 50.2963C17.0242 47.8722 17.8147 43.6035 19.7385 39.1186C21.6544 34.6519 24.6061 30.1788 28.7179 27.172ZM48.5226 48.5548C48.5224 48.5548 48.5224 48.5528 48.5231 48.5489C48.5231 48.5529 48.5227 48.5549 48.5226 48.5548ZM48.584 48.4393C48.5899 48.4336 48.5937 48.4313 48.5941 48.4315C48.5945 48.4318 48.5915 48.4347 48.584 48.4393Z" fill="black"/>
</svg>
