<svg width="871" height="216" viewBox="0 0 871 216" fill="none" xmlns="http://www.w3.org/2000/svg">
<circle cx="98.4277" cy="98.7851" r="94.5011" stroke="white" stroke-width="7.85321"/>
<path d="M92.1317 158.649L151.723 99.0581M151.723 99.0581L92.1317 39.4668M151.723 99.0581L32.5404 99.0581" stroke="white" stroke-width="7.83259"/>
<path d="M473.037 43.1377C479.47 43.1377 485.044 45.6116 489.761 50.5594C494.478 55.4743 496.837 61.4447 496.837 68.4706C496.837 75.4965 494.462 81.4834 489.712 86.4313C484.995 91.3461 479.437 93.8035 473.037 93.8035C471.223 93.8035 469.442 93.5891 467.694 93.1603C465.979 92.7315 464.511 92.2037 463.29 91.577C462.07 90.9173 460.981 90.2576 460.025 89.5979C459.101 88.9052 458.441 88.3609 458.046 87.9651L457.303 87.2229V92.814H447.21V21.862H457.303V49.7678C457.765 49.306 458.425 48.6957 459.282 47.9371C460.14 47.1784 461.938 46.1888 464.676 44.9684C467.413 43.7479 470.201 43.1377 473.037 43.1377ZM461.756 79.9496C464.758 83.1162 468.172 84.6995 471.998 84.6995C475.858 84.6995 479.272 83.1162 482.24 79.9496C485.209 76.783 486.694 72.9731 486.694 68.5201C486.694 64.034 485.209 60.2077 482.24 57.0411C479.272 53.8745 475.858 52.2912 471.998 52.2912C468.172 52.2912 464.758 53.8745 461.756 57.0411C458.788 60.2077 457.303 64.034 457.303 68.5201C457.303 72.9731 458.788 76.783 461.756 79.9496ZM535.38 52.786C534.028 52.4561 532.51 52.2912 530.828 52.2912C526.969 52.2912 523.885 53.5446 521.576 56.0515C519.3 58.5254 518.162 62.0054 518.162 66.4915V92.814H508.019V44.1767H518.162V49.2235L518.805 48.5803C519.102 48.2834 519.729 47.8051 520.685 47.1454C521.642 46.4527 522.648 45.8425 523.703 45.3147C524.792 44.754 526.161 44.2592 527.81 43.8304C529.492 43.3686 531.175 43.1377 532.857 43.1377H535.38V52.786ZM582.484 92.814H572.341V87.7672C572.209 87.8991 571.978 88.1135 571.648 88.4104C571.351 88.7073 570.724 89.202 569.768 89.8947C568.844 90.5545 567.838 91.1647 566.75 91.7254C565.661 92.2532 564.292 92.7315 562.643 93.1603C560.994 93.5891 559.328 93.8035 557.646 93.8035C552.698 93.8035 548.591 92.3687 545.325 89.4989C542.06 86.6292 540.427 83.3471 540.427 79.6527C540.427 75.6615 541.68 72.3134 544.187 69.6086C546.727 66.9038 550.191 65.1885 554.578 64.4629L572.341 61.3952C572.341 58.8223 571.384 56.6618 569.471 54.9135C567.591 53.1653 565.166 52.2912 562.198 52.2912C559.625 52.2912 557.283 52.8354 555.172 53.924C553.093 54.9795 551.659 56.0515 550.867 57.1401L549.531 58.8718L542.95 52.2912C543.148 52.0273 543.412 51.6974 543.742 51.3016C544.105 50.8728 544.88 50.1471 546.068 49.1246C547.288 48.069 548.574 47.1289 549.927 46.3043C551.279 45.4796 553.061 44.754 555.271 44.1272C557.514 43.4675 559.823 43.1377 562.198 43.1377C568.135 43.1377 573 44.9024 576.794 48.4319C580.587 51.9283 582.484 56.2494 582.484 61.3952V92.814ZM559.179 84.6995C563.303 84.6995 566.519 83.479 568.828 81.0381C571.17 78.5642 572.341 75.0512 572.341 70.4992V69.5096L556.606 72.033C554.792 72.3629 553.324 73.1051 552.203 74.2596C551.081 75.4141 550.521 76.8654 550.521 78.6137C550.521 80.23 551.296 81.6483 552.846 82.8688C554.429 84.0893 556.54 84.6995 559.179 84.6995ZM606.827 44.1767V49.2235L607.47 48.5803C607.767 48.2834 608.394 47.8051 609.35 47.1454C610.307 46.4527 611.313 45.8425 612.369 45.3147C613.457 44.754 614.826 44.2592 616.475 43.8304C618.158 43.3686 619.84 43.1377 621.522 43.1377C627.394 43.1377 632.143 45.0673 635.772 48.9266C639.433 52.786 641.264 57.9647 641.264 64.4629V92.814H631.121V64.4629C631.121 60.9664 629.999 58.0636 627.756 55.7547C625.546 53.4457 622.792 52.2912 619.493 52.2912C615.634 52.2912 612.55 53.5446 610.241 56.0515C607.965 58.5254 606.827 62.0054 606.827 66.4915V92.814H596.684V44.1767H606.827ZM676.245 43.1377C678.059 43.1377 679.824 43.3686 681.539 43.8304C683.288 44.2592 684.755 44.8034 685.943 45.4632C687.163 46.0899 688.252 46.7496 689.209 47.4423C690.165 48.102 690.841 48.6298 691.237 49.0256L691.93 49.7678V21.862H702.073V92.814H691.93V87.2229C691.468 87.6847 690.808 88.2949 689.951 89.0536C689.126 89.8123 687.345 90.8018 684.607 92.0223C681.869 93.2098 679.082 93.8035 676.245 93.8035C669.813 93.8035 664.238 91.3461 659.521 86.4313C654.805 81.4834 652.446 75.4965 652.446 68.4706C652.446 61.4447 654.805 55.4743 659.521 50.5594C664.238 45.6116 669.813 43.1377 676.245 43.1377ZM666.993 79.9496C669.994 83.1162 673.408 84.6995 677.235 84.6995C681.094 84.6995 684.508 83.1162 687.477 79.9496C690.445 76.783 691.93 72.9731 691.93 68.5201C691.93 64.034 690.445 60.2077 687.477 57.0411C684.508 53.8745 681.094 52.2912 677.235 52.2912C673.408 52.2912 669.994 53.8745 666.993 57.0411C664.024 60.2077 662.54 64.034 662.54 68.5201C662.54 72.9731 664.024 76.783 666.993 79.9496ZM727.95 44.1767V92.814H717.807V44.1767H727.95ZM727.257 24.6328C728.412 25.7873 728.989 27.2386 728.989 28.9869C728.989 30.7351 728.412 32.1865 727.257 33.3409C726.103 34.4954 724.652 35.0727 722.903 35.0727C721.155 35.0727 719.704 34.4954 718.549 33.3409C717.395 32.1865 716.817 30.7351 716.817 28.9869C716.817 27.2386 717.395 25.7873 718.549 24.6328C719.704 23.4783 721.155 22.901 722.903 22.901C724.652 22.901 726.103 23.4783 727.257 24.6328ZM752.788 44.1767V49.2235L753.431 48.5803C753.728 48.2834 754.355 47.8051 755.312 47.1454C756.268 46.4527 757.274 45.8425 758.33 45.3147C759.418 44.754 760.787 44.2592 762.437 43.8304C764.119 43.3686 765.801 43.1377 767.483 43.1377C773.355 43.1377 778.105 45.0673 781.733 48.9266C785.394 52.786 787.225 57.9647 787.225 64.4629V92.814H777.082V64.4629C777.082 60.9664 775.961 58.0636 773.718 55.7547C771.508 53.4457 768.753 52.2912 765.455 52.2912C761.595 52.2912 758.511 53.5446 756.202 56.0515C753.926 58.5254 752.788 62.0054 752.788 66.4915V92.814H742.645V44.1767H752.788ZM835.862 89.8947V85.7386L835.219 86.3818C834.922 86.6786 834.296 87.1734 833.339 87.8661C832.415 88.5258 831.409 89.1361 830.321 89.6968C829.232 90.2246 827.863 90.7194 826.214 91.1812C824.565 91.61 822.883 91.8244 821.167 91.8244C815.032 91.8244 809.705 89.4659 805.186 84.749C800.667 79.9991 798.407 74.2431 798.407 67.481C798.407 60.719 800.667 54.9795 805.186 50.2626C809.705 45.5126 815.032 43.1377 821.167 43.1377C823.872 43.1377 826.445 43.6489 828.886 44.6715C831.327 45.6941 833.092 46.7166 834.18 47.7392L835.862 49.2235V44.1767H846.006V89.7958C846.006 96.6238 843.664 102.38 838.98 107.064C834.296 111.748 828.54 114.09 821.712 114.09C818.941 114.09 816.302 113.727 813.795 113.001C811.288 112.308 809.227 111.467 807.61 110.478C805.994 109.521 804.576 108.548 803.355 107.559C802.135 106.569 801.261 105.711 800.733 104.986L799.892 103.947L806.522 97.366C806.654 97.5639 806.868 97.8278 807.165 98.1576C807.462 98.5205 808.089 99.1307 809.045 99.9883C810.035 100.879 811.074 101.654 812.162 102.314C813.251 103.007 814.653 103.617 816.368 104.145C818.083 104.705 819.864 104.986 821.712 104.986C825.835 104.986 829.216 103.584 831.855 100.78C834.527 97.9762 835.862 94.3478 835.862 89.8947ZM812.608 56.6947C809.87 59.6305 808.501 63.2259 808.501 67.481C808.501 71.7362 809.87 75.3316 812.608 78.2673C815.345 81.203 818.545 82.6709 822.206 82.6709C825.868 82.6709 829.051 81.203 831.756 78.2673C834.494 75.3316 835.862 71.7362 835.862 67.481C835.862 63.2259 834.494 59.6305 831.756 56.6947C829.051 53.759 825.868 52.2912 822.206 52.2912C818.545 52.2912 815.345 53.759 812.608 56.6947Z" fill="white"/>
<path opacity="0.29" d="M492.285 180.653C492.482 181.049 492.796 181.527 493.225 182.088C493.686 182.615 494.511 183.358 495.699 184.314C496.919 185.238 498.14 185.7 499.36 185.7C499.69 185.7 500.003 185.65 500.3 185.551C500.63 185.452 500.894 185.37 501.092 185.304C501.29 185.238 501.389 185.172 501.389 185.106V194.309C500.036 194.639 498.684 194.804 497.331 194.804C495.253 194.804 493.225 194.226 491.246 193.072C489.299 191.884 487.881 190.713 486.99 189.559L485.704 187.728C485.242 188.256 484.533 188.916 483.576 189.707C482.62 190.499 480.608 191.554 477.54 192.874C474.472 194.16 471.273 194.804 467.941 194.804C461.575 194.804 456.429 193.121 452.504 189.757C448.612 186.392 446.665 182.335 446.665 177.585C446.665 175.144 447.127 172.753 448.051 170.411C448.974 168.036 450.063 166.04 451.316 164.424C452.603 162.808 453.889 161.356 455.176 160.07C456.462 158.783 457.551 157.843 458.441 157.249L459.876 156.309C459.118 155.551 458.177 154.545 457.056 153.291C455.934 152.005 454.434 149.762 452.553 146.562C450.673 143.33 449.733 140.509 449.733 138.101C449.733 133.516 451.349 129.673 454.582 126.573C457.815 123.439 461.938 121.872 466.952 121.872C471.899 121.872 476.006 123.373 479.272 126.375C482.537 129.377 484.17 132.939 484.17 137.062C484.17 140.031 483.148 143.132 481.102 146.364C479.09 149.564 477.078 152.005 475.066 153.687L471.998 156.309L485.704 173.033C488.079 169.306 489.266 164.754 489.266 159.377H498.37C498.37 162.972 497.859 166.535 496.837 170.064C495.814 173.594 494.808 176.249 493.818 178.03L492.285 180.653ZM467.941 185.7C470.019 185.7 472.081 185.337 474.126 184.611C476.171 183.852 477.705 183.077 478.727 182.286L480.113 181.147L465.418 162.89C464.758 163.352 463.95 164.028 462.993 164.919C462.037 165.809 460.767 167.458 459.184 169.866C457.6 172.241 456.809 174.484 456.809 176.595C456.809 179.432 457.732 181.659 459.579 183.275C461.427 184.891 464.214 185.7 467.941 185.7ZM474.571 138.101C474.571 136.089 473.862 134.407 472.444 133.055C471.025 131.669 469.195 130.976 466.952 130.976C464.709 130.976 462.878 131.653 461.46 133.005C460.041 134.357 459.332 136.056 459.332 138.101C459.332 139.586 459.959 141.301 461.212 143.247C462.466 145.193 463.736 146.777 465.022 147.997L466.952 149.729C467.479 149.267 468.172 148.624 469.03 147.799C469.887 146.941 471.025 145.49 472.444 143.445C473.862 141.367 474.571 139.586 474.571 138.101ZM541.417 145.177V150.224L542.06 149.58C542.357 149.283 542.983 148.805 543.94 148.145C544.897 147.453 545.903 146.842 546.958 146.315C548.047 145.754 549.416 145.259 551.065 144.83C552.747 144.369 554.429 144.138 556.112 144.138C561.983 144.138 566.733 146.067 570.361 149.927C574.023 153.786 575.854 158.965 575.854 165.463V193.814H565.71V165.463C565.71 161.966 564.589 159.064 562.346 156.755C560.136 154.446 557.382 153.291 554.083 153.291C550.224 153.291 547.14 154.545 544.831 157.052C542.555 159.525 541.417 163.005 541.417 167.491V193.814H531.274V145.177H541.417ZM629.092 193.814H618.949V188.767C618.817 188.899 618.586 189.114 618.257 189.41C617.96 189.707 617.333 190.202 616.376 190.895C615.453 191.554 614.447 192.165 613.358 192.725C612.27 193.253 610.901 193.732 609.251 194.16C607.602 194.589 605.936 194.804 604.254 194.804C599.306 194.804 595.2 193.369 591.934 190.499C588.668 187.629 587.036 184.347 587.036 180.653C587.036 176.661 588.289 173.313 590.796 170.609C593.336 167.904 596.799 166.189 601.186 165.463L618.949 162.395C618.949 159.822 617.993 157.662 616.079 155.914C614.199 154.165 611.775 153.291 608.806 153.291C606.233 153.291 603.891 153.835 601.78 154.924C599.702 155.979 598.267 157.052 597.476 158.14L596.14 159.872L589.559 153.291C589.757 153.027 590.021 152.697 590.351 152.302C590.714 151.873 591.489 151.147 592.676 150.125C593.897 149.069 595.183 148.129 596.536 147.304C597.888 146.48 599.669 145.754 601.879 145.127C604.122 144.468 606.431 144.138 608.806 144.138C614.744 144.138 619.609 145.902 623.402 149.432C627.196 152.928 629.092 157.249 629.092 162.395V193.814ZM605.788 185.7C609.911 185.7 613.127 184.479 615.436 182.038C617.778 179.564 618.949 176.051 618.949 171.499V170.51L603.215 173.033C601.401 173.363 599.933 174.105 598.812 175.26C597.69 176.414 597.129 177.865 597.129 179.614C597.129 181.23 597.904 182.648 599.455 183.869C601.038 185.089 603.149 185.7 605.788 185.7ZM706.13 193.814V165.463C706.13 161.472 705.207 158.453 703.359 156.408C701.545 154.33 699.088 153.291 695.987 153.291C692.82 153.291 690.165 154.561 688.021 157.101C685.91 159.608 684.854 163.071 684.854 167.491V193.814H674.711V165.463C674.711 161.472 673.788 158.453 671.941 156.408C670.126 154.33 667.669 153.291 664.568 153.291C661.402 153.291 658.746 154.561 656.602 157.101C654.491 159.608 653.436 163.071 653.436 167.491V193.814H643.293V145.177H653.436V150.224C653.831 149.762 654.376 149.201 655.068 148.541C655.794 147.849 657.278 146.941 659.521 145.82C661.797 144.698 664.156 144.138 666.597 144.138C668.543 144.138 670.39 144.418 672.138 144.979C673.92 145.507 675.338 146.183 676.394 147.007C677.449 147.799 678.356 148.607 679.115 149.432C679.907 150.256 680.467 150.933 680.797 151.46L681.292 152.252C681.424 152.054 681.638 151.774 681.935 151.411C682.265 151.048 682.941 150.388 683.964 149.432C685.019 148.475 686.141 147.651 687.328 146.958C688.516 146.232 690.066 145.589 691.979 145.028C693.925 144.435 695.938 144.138 698.016 144.138C703.689 144.138 708.142 145.952 711.375 149.58C714.64 153.209 716.273 158.503 716.273 165.463V193.814H706.13ZM741.111 145.177V193.814H730.968V145.177H741.111ZM740.419 125.633C741.573 126.787 742.15 128.239 742.15 129.987C742.15 131.735 741.573 133.186 740.419 134.341C739.264 135.495 737.813 136.073 736.065 136.073C734.316 136.073 732.865 135.495 731.71 134.341C730.556 133.186 729.979 131.735 729.979 129.987C729.979 128.239 730.556 126.787 731.71 125.633C732.865 124.478 734.316 123.901 736.065 123.901C737.813 123.901 739.264 124.478 740.419 125.633ZM765.949 145.177V150.224L766.593 149.58C766.89 149.283 767.516 148.805 768.473 148.145C769.429 147.453 770.436 146.842 771.491 146.315C772.58 145.754 773.948 145.259 775.598 144.83C777.28 144.369 778.962 144.138 780.645 144.138C786.516 144.138 791.266 146.067 794.894 149.927C798.556 153.786 800.386 158.965 800.386 165.463V193.814H790.243V165.463C790.243 161.966 789.122 159.064 786.879 156.755C784.669 154.446 781.915 153.291 778.616 153.291C774.757 153.291 771.672 154.545 769.364 157.052C767.087 159.525 765.949 163.005 765.949 167.491V193.814H755.806V145.177H765.949ZM849.024 190.895V186.739L848.38 187.382C848.084 187.679 847.457 188.173 846.5 188.866C845.577 189.526 844.571 190.136 843.482 190.697C842.394 191.225 841.025 191.719 839.375 192.181C837.726 192.61 836.044 192.824 834.329 192.824C828.193 192.824 822.866 190.466 818.347 185.749C813.828 180.999 811.569 175.243 811.569 168.481C811.569 161.719 813.828 155.979 818.347 151.263C822.866 146.513 828.193 144.138 834.329 144.138C837.033 144.138 839.606 144.649 842.047 145.671C844.488 146.694 846.253 147.717 847.341 148.739L849.024 150.224V145.177H859.167V190.796C859.167 197.624 856.825 203.38 852.141 208.064C847.457 212.748 841.701 215.09 834.873 215.09C832.102 215.09 829.463 214.727 826.956 214.001C824.449 213.308 822.388 212.467 820.772 211.478C819.155 210.521 817.737 209.548 816.516 208.559C815.296 207.569 814.422 206.711 813.894 205.986L813.053 204.947L819.683 198.366C819.815 198.564 820.029 198.828 820.326 199.158C820.623 199.52 821.25 200.131 822.206 200.988C823.196 201.879 824.235 202.654 825.324 203.314C826.412 204.007 827.814 204.617 829.529 205.145C831.244 205.705 833.026 205.986 834.873 205.986C838.996 205.986 842.377 204.584 845.016 201.78C847.688 198.976 849.024 195.348 849.024 190.895ZM825.769 157.695C823.031 160.63 821.662 164.226 821.662 168.481C821.662 172.736 823.031 176.332 825.769 179.267C828.507 182.203 831.706 183.671 835.368 183.671C839.029 183.671 842.212 182.203 844.917 179.267C847.655 176.332 849.024 172.736 849.024 168.481C849.024 164.226 847.655 160.63 844.917 157.695C842.212 154.759 839.029 153.291 835.368 153.291C831.706 153.291 828.507 154.759 825.769 157.695Z" fill="white"/>
<path fill-rule="evenodd" clip-rule="evenodd" d="M301.09 197.213C355.45 197.213 399.517 153.145 399.517 98.7851C399.517 44.425 355.45 0.357422 301.09 0.357422C246.73 0.357422 202.662 44.425 202.662 98.7851C202.662 153.145 246.73 197.213 301.09 197.213ZM263.122 55.8035C281.632 42.2672 320.408 35.411 346.239 64.448C359.066 78.8667 360.449 94.185 358.42 106.416C356.399 118.597 350.994 127.601 350.042 129.187L350.004 129.251C348.347 132.014 333.784 153.842 305.926 149.99C277.482 146.057 266.08 125.687 265.729 111.96C265.345 96.9857 271.13 79.1054 287.684 73.3505C296.268 70.3666 305.262 70.8228 312.712 73.6611C320.203 76.515 325.804 81.6306 328.113 87.6544C333.271 101.114 330.039 113.26 322.225 119.125C318.436 121.968 312.72 123.155 307.242 122.266C301.776 121.38 297.329 118.581 295.342 114.383C293.175 109.803 293.702 105.735 295.253 102.933C296.888 99.9802 299.437 98.6718 301.383 98.7742C303.765 98.8997 304.682 100.155 304.862 100.696C304.865 100.706 304.868 100.716 304.871 100.725C304.873 100.73 304.874 100.736 304.876 100.741C304.812 100.762 304.727 100.785 304.618 100.807C302.491 101.233 301.113 103.302 301.538 105.428C301.964 107.555 304.033 108.933 306.159 108.508C308.589 108.021 310.665 106.696 311.835 104.566C312.972 102.496 312.968 100.182 312.313 98.2144C310.993 94.2532 307.011 91.2066 301.796 90.9319C296.145 90.6342 291.096 94.228 288.383 99.1289C285.586 104.181 285.013 110.917 288.244 117.743C291.655 124.95 298.804 128.854 305.984 130.018C313.151 131.181 321.13 129.766 326.939 125.406C338.318 116.865 341.483 100.597 335.446 84.8439C332.156 76.2612 324.562 69.7715 315.508 66.3224C306.414 62.8579 295.516 62.3137 285.106 65.9328C263.673 73.3839 257.462 95.9219 257.878 112.161C258.326 129.649 272.516 153.299 304.851 157.769C337.771 162.321 354.798 136.528 356.74 133.289L356.784 133.214C357.881 131.387 363.902 121.358 366.167 107.701C368.487 93.7204 366.87 75.8237 352.107 59.2283C322.758 26.2372 279.15 34.3539 258.486 49.4644C248.322 56.8973 241.354 67.6693 236.96 77.912C232.583 88.1164 230.575 98.2342 230.687 104.725C230.724 106.894 232.512 108.621 234.681 108.584C236.849 108.546 238.576 106.758 238.539 104.59C238.451 99.4757 240.119 90.4699 244.177 81.0078C248.219 71.5842 254.447 62.147 263.122 55.8035ZM304.906 100.903C304.904 100.912 304.904 100.916 304.905 100.916C304.905 100.916 304.905 100.914 304.905 100.912C304.905 100.91 304.906 100.907 304.906 100.903ZM305.042 100.665C305.04 100.667 305.037 100.669 305.034 100.672C305.05 100.662 305.056 100.656 305.055 100.656C305.055 100.655 305.05 100.658 305.042 100.665Z" fill="white"/>
</svg>
