<svg width="413" height="104" viewBox="0 0 413 104" fill="none" xmlns="http://www.w3.org/2000/svg">
<circle cx="46.6538" cy="47.5454" r="44.7926" stroke="black" stroke-width="3.72234"/>
<path d="M43.6715 75.9205L71.9172 47.6748M71.9172 47.6748L43.6715 19.4291M71.9172 47.6748L15.4258 47.6748" stroke="black" stroke-width="3.71257"/>
<path d="M224.217 21.4578C227.266 21.4578 229.908 22.6304 232.144 24.9757C234.38 27.3053 235.498 30.1352 235.498 33.4654C235.498 36.7956 234.372 39.6333 232.12 41.9786C229.885 44.3082 227.25 45.473 224.217 45.473C223.357 45.473 222.513 45.3713 221.684 45.1681C220.871 44.9648 220.175 44.7147 219.597 44.4176C219.018 44.1049 218.502 43.7922 218.049 43.4795C217.611 43.1512 217.299 42.8932 217.111 42.7056L216.759 42.3538V45.0039H211.975V11.3734H216.759V24.6004C216.978 24.3816 217.291 24.0923 217.697 23.7327C218.104 23.3731 218.956 22.9041 220.254 22.3256C221.551 21.7471 222.872 21.4578 224.217 21.4578ZM218.87 38.9063C220.293 40.4073 221.911 41.1577 223.725 41.1577C225.554 41.1577 227.172 40.4073 228.579 38.9063C229.986 37.4054 230.69 35.5995 230.69 33.4888C230.69 31.3625 229.986 29.5489 228.579 28.0479C227.172 26.547 225.554 25.7965 223.725 25.7965C221.911 25.7965 220.293 26.547 218.87 28.0479C217.463 29.5489 216.759 31.3625 216.759 33.4888C216.759 35.5995 217.463 37.4054 218.87 38.9063ZM253.767 26.031C253.126 25.8747 252.407 25.7965 251.609 25.7965C249.78 25.7965 248.318 26.3906 247.224 27.5789C246.145 28.7515 245.605 30.401 245.605 32.5273V45.0039H240.798V21.9503H245.605V24.3425L245.91 24.0376C246.051 23.8969 246.348 23.6702 246.802 23.3575C247.255 23.0291 247.732 22.7399 248.232 22.4897C248.748 22.2239 249.397 21.9894 250.179 21.7862C250.976 21.5673 251.773 21.4578 252.571 21.4578H253.767V26.031ZM276.093 45.0039H271.286V42.6118C271.223 42.6743 271.114 42.7759 270.957 42.9167C270.817 43.0574 270.52 43.2919 270.066 43.6202C269.628 43.9329 269.152 44.2222 268.636 44.488C268.12 44.7381 267.471 44.9648 266.689 45.1681C265.907 45.3713 265.118 45.473 264.32 45.473C261.975 45.473 260.029 44.7928 258.481 43.4326C256.933 42.0724 256.159 40.5167 256.159 38.7656C256.159 36.8738 256.753 35.2869 257.941 34.0048C259.145 32.7227 260.787 31.9097 262.866 31.5658L271.286 30.1117C271.286 28.8922 270.832 27.8681 269.925 27.0395C269.034 26.2108 267.885 25.7965 266.478 25.7965C265.258 25.7965 264.148 26.0545 263.148 26.5704C262.163 27.0707 261.483 27.5789 261.107 28.0948L260.474 28.9157L257.355 25.7965C257.449 25.6714 257.574 25.5151 257.73 25.3275C257.902 25.1242 258.27 24.7802 258.833 24.2956C259.411 23.7952 260.021 23.3497 260.662 22.9588C261.303 22.5679 262.147 22.2239 263.195 21.9269C264.258 21.6142 265.352 21.4578 266.478 21.4578C269.292 21.4578 271.598 22.2943 273.396 23.9672C275.194 25.6245 276.093 27.6727 276.093 30.1117V45.0039ZM265.047 41.1577C267.002 41.1577 268.526 40.5792 269.621 39.4223C270.731 38.2497 271.286 36.5845 271.286 34.4269V33.9579L263.828 35.154C262.968 35.3103 262.272 35.6621 261.741 36.2093C261.209 36.7565 260.943 37.4445 260.943 38.2731C260.943 39.0392 261.311 39.7115 262.046 40.29C262.796 40.8685 263.797 41.1577 265.047 41.1577ZM287.632 21.9503V24.3425L287.937 24.0376C288.078 23.8969 288.375 23.6702 288.828 23.3575C289.281 23.0291 289.758 22.7399 290.259 22.4897C290.775 22.2239 291.423 21.9894 292.205 21.7862C293.002 21.5673 293.8 21.4578 294.597 21.4578C297.38 21.4578 299.632 22.3725 301.352 24.2018C303.087 26.031 303.955 28.4857 303.955 31.5658V45.0039H299.147V31.5658C299.147 29.9085 298.615 28.5326 297.552 27.4382C296.505 26.3437 295.199 25.7965 293.636 25.7965C291.806 25.7965 290.345 26.3906 289.25 27.5789C288.171 28.7515 287.632 30.401 287.632 32.5273V45.0039H282.824V21.9503H287.632ZM320.535 21.4578C321.395 21.4578 322.232 21.5673 323.045 21.7862C323.873 21.9894 324.569 22.2474 325.132 22.5601C325.711 22.8572 326.227 23.1699 326.68 23.4982C327.133 23.8109 327.454 24.061 327.641 24.2487L327.97 24.6004V11.3734H332.778V45.0039H327.97V42.3538C327.751 42.5727 327.438 42.8619 327.032 43.2215C326.641 43.5811 325.797 44.0502 324.499 44.6287C323.201 45.1915 321.88 45.473 320.535 45.473C317.487 45.473 314.844 44.3082 312.609 41.9786C310.373 39.6333 309.255 36.7956 309.255 33.4654C309.255 30.1352 310.373 27.3053 312.609 24.9757C314.844 22.6304 317.487 21.4578 320.535 21.4578ZM316.15 38.9063C317.573 40.4073 319.191 41.1577 321.004 41.1577C322.834 41.1577 324.452 40.4073 325.859 38.9063C327.266 37.4054 327.97 35.5995 327.97 33.4888C327.97 31.3625 327.266 29.5489 325.859 28.0479C324.452 26.547 322.834 25.7965 321.004 25.7965C319.191 25.7965 317.573 26.547 316.15 28.0479C314.743 29.5489 314.039 31.3625 314.039 33.4888C314.039 35.5995 314.743 37.4054 316.15 38.9063ZM345.043 21.9503V45.0039H340.235V21.9503H345.043ZM344.715 12.6867C345.262 13.2339 345.536 13.9218 345.536 14.7505C345.536 15.5791 345.262 16.2671 344.715 16.8143C344.168 17.3615 343.48 17.6351 342.651 17.6351C341.822 17.6351 341.134 17.3615 340.587 16.8143C340.04 16.2671 339.766 15.5791 339.766 14.7505C339.766 13.9218 340.04 13.2339 340.587 12.6867C341.134 12.1395 341.822 11.8659 342.651 11.8659C343.48 11.8659 344.168 12.1395 344.715 12.6867ZM356.816 21.9503V24.3425L357.121 24.0376C357.262 23.8969 357.559 23.6702 358.012 23.3575C358.466 23.0291 358.942 22.7399 359.443 22.4897C359.959 22.2239 360.608 21.9894 361.389 21.7862C362.187 21.5673 362.984 21.4578 363.781 21.4578C366.564 21.4578 368.816 22.3725 370.536 24.2018C372.271 26.031 373.139 28.4857 373.139 31.5658V45.0039H368.331V31.5658C368.331 29.9085 367.8 28.5326 366.736 27.4382C365.689 26.3437 364.383 25.7965 362.82 25.7965C360.991 25.7965 359.529 26.3906 358.434 27.5789C357.356 28.7515 356.816 30.401 356.816 32.5273V45.0039H352.008V21.9503H356.816ZM396.192 43.6202V41.6502L395.888 41.9551C395.747 42.0958 395.45 42.3303 394.996 42.6587C394.559 42.9714 394.082 43.2606 393.566 43.5264C393.05 43.7766 392.401 44.0111 391.619 44.23C390.838 44.4332 390.04 44.5349 389.227 44.5349C386.319 44.5349 383.794 43.417 381.652 41.1812C379.51 38.9298 378.439 36.2015 378.439 32.9963C378.439 29.7912 379.51 27.0707 381.652 24.835C383.794 22.5835 386.319 21.4578 389.227 21.4578C390.509 21.4578 391.729 21.7002 392.886 22.1849C394.043 22.6695 394.879 23.1542 395.395 23.6389L396.192 24.3425V21.9503H401V43.5733C401 46.8097 399.89 49.538 397.67 51.7582C395.45 53.9783 392.722 55.0884 389.485 55.0884C388.172 55.0884 386.921 54.9164 385.733 54.5724C384.544 54.2441 383.567 53.8454 382.801 53.3764C382.035 52.923 381.363 52.4617 380.784 51.9927C380.206 51.5236 379.791 51.1171 379.541 50.7732L379.143 50.2807L382.285 47.1615C382.348 47.2553 382.449 47.3804 382.59 47.5368C382.731 47.7087 383.028 47.998 383.481 48.4045C383.95 48.8266 384.443 49.194 384.959 49.5067C385.475 49.8351 386.139 50.1243 386.952 50.3745C387.765 50.6403 388.61 50.7732 389.485 50.7732C391.439 50.7732 393.042 50.1087 394.293 48.7797C395.559 47.4508 396.192 45.7309 396.192 43.6202ZM385.17 27.8838C383.872 29.2753 383.223 30.9795 383.223 32.9963C383.223 35.0132 383.872 36.7174 385.17 38.1089C386.468 39.5004 387.984 40.1962 389.72 40.1962C391.455 40.1962 392.964 39.5004 394.246 38.1089C395.544 36.7174 396.192 35.0132 396.192 32.9963C396.192 30.9795 395.544 29.2753 394.246 27.8838C392.964 26.4923 391.455 25.7965 389.72 25.7965C387.984 25.7965 386.468 26.4923 385.17 27.8838Z" fill="black"/>
<path opacity="0.29" d="M233.34 86.7656C233.434 86.9532 233.582 87.1799 233.786 87.4457C234.004 87.6959 234.395 88.0477 234.958 88.5011C235.537 88.9388 236.115 89.1577 236.694 89.1577C236.85 89.1577 236.998 89.1343 237.139 89.0874C237.296 89.0405 237.421 89.0014 237.514 88.9701C237.608 88.9388 237.655 88.9076 237.655 88.8763V93.2384C237.014 93.3948 236.373 93.473 235.732 93.473C234.747 93.473 233.786 93.1993 232.847 92.6521C231.925 92.0893 231.253 91.5342 230.831 90.987L230.221 90.1193C230.002 90.3694 229.666 90.6821 229.212 91.0574C228.759 91.4326 227.805 91.9329 226.351 92.5583C224.897 93.1681 223.381 93.473 221.801 93.473C218.784 93.473 216.345 92.6756 214.484 91.0808C212.639 89.4861 211.717 87.563 211.717 85.3116C211.717 84.1546 211.936 83.0211 212.374 81.911C212.811 80.7853 213.327 79.8394 213.921 79.0733C214.531 78.3072 215.141 77.6192 215.751 77.0095C216.361 76.3997 216.876 75.9541 217.299 75.6727L217.979 75.2271C217.619 74.8675 217.174 74.3906 216.642 73.7965C216.11 73.1867 215.399 72.1236 214.508 70.607C213.617 69.0748 213.171 67.738 213.171 66.5967C213.171 64.4234 213.937 62.602 215.469 61.1323C217.002 59.647 218.956 58.9043 221.332 58.9043C223.678 58.9043 225.624 59.6157 227.172 61.0385C228.72 62.4612 229.494 64.1498 229.494 66.1042C229.494 67.5113 229.009 68.981 228.04 70.5132C227.086 72.0298 226.132 73.1867 225.179 73.9841L223.725 75.2271L230.221 83.154C231.346 81.3872 231.909 79.2296 231.909 76.6811H236.225C236.225 78.3853 235.982 80.0739 235.498 81.7468C235.013 83.4197 234.536 84.6784 234.067 85.5226L233.34 86.7656ZM221.801 89.1577C222.786 89.1577 223.764 88.9858 224.733 88.6418C225.702 88.2822 226.429 87.9148 226.914 87.5395L227.571 87.0001L220.605 78.3462C220.293 78.5651 219.91 78.8856 219.456 79.3078C219.003 79.7299 218.401 80.5117 217.65 81.653C216.9 82.7787 216.525 83.8419 216.525 84.8425C216.525 86.1871 216.962 87.2425 217.838 88.0086C218.714 88.7747 220.035 89.1577 221.801 89.1577ZM224.944 66.5967C224.944 65.6429 224.608 64.8456 223.936 64.2045C223.263 63.5479 222.396 63.2195 221.332 63.2195C220.269 63.2195 219.401 63.54 218.729 64.1811C218.057 64.8221 217.721 65.6273 217.721 66.5967C217.721 67.3002 218.018 68.1132 218.612 69.0357C219.206 69.9582 219.808 70.7086 220.418 71.2871L221.332 72.1079C221.583 71.8891 221.911 71.5842 222.317 71.1933C222.724 70.7868 223.263 70.0989 223.936 69.1295C224.608 68.1445 224.944 67.3002 224.944 66.5967ZM256.628 69.9503V72.3425L256.933 72.0376C257.074 71.8969 257.371 71.6702 257.824 71.3575C258.278 71.0291 258.754 70.7399 259.255 70.4897C259.771 70.2239 260.419 69.9894 261.201 69.7862C261.999 69.5673 262.796 69.4578 263.593 69.4578C266.376 69.4578 268.628 70.3725 270.348 72.2018C272.083 74.031 272.951 76.4857 272.951 79.5658V93.0039H268.143V79.5658C268.143 77.9085 267.612 76.5326 266.548 75.4382C265.501 74.3437 264.195 73.7965 262.632 73.7965C260.803 73.7965 259.341 74.3906 258.246 75.5789C257.167 76.7515 256.628 78.401 256.628 80.5273V93.0039H251.82V69.9503H256.628ZM298.185 93.0039H293.378V90.6118C293.315 90.6743 293.206 90.7759 293.049 90.9167C292.909 91.0574 292.612 91.2919 292.158 91.6202C291.72 91.9329 291.244 92.2222 290.728 92.488C290.212 92.7381 289.563 92.9648 288.781 93.1681C287.999 93.3713 287.21 93.473 286.412 93.473C284.067 93.473 282.121 92.7928 280.573 91.4326C279.025 90.0724 278.251 88.5167 278.251 86.7656C278.251 84.8738 278.845 83.2869 280.033 82.0048C281.237 80.7227 282.879 79.9097 284.958 79.5658L293.378 78.1117C293.378 76.8922 292.924 75.8681 292.017 75.0395C291.126 74.2108 289.977 73.7965 288.57 73.7965C287.35 73.7965 286.24 74.0545 285.24 74.5704C284.255 75.0707 283.575 75.5789 283.199 76.0948L282.566 76.9157L279.447 73.7965C279.541 73.6714 279.666 73.5151 279.822 73.3275C279.994 73.1242 280.362 72.7802 280.925 72.2956C281.503 71.7952 282.113 71.3497 282.754 70.9588C283.395 70.5679 284.239 70.2239 285.287 69.9269C286.35 69.6142 287.444 69.4578 288.57 69.4578C291.384 69.4578 293.69 70.2943 295.488 71.9672C297.286 73.6245 298.185 75.6727 298.185 78.1117V93.0039ZM287.139 89.1577C289.094 89.1577 290.618 88.5792 291.713 87.4223C292.823 86.2497 293.378 84.5845 293.378 82.4269V81.9579L285.92 83.154C285.06 83.3103 284.364 83.6621 283.833 84.2093C283.301 84.7565 283.035 85.4445 283.035 86.2731C283.035 87.0392 283.403 87.7115 284.138 88.29C284.888 88.8685 285.889 89.1577 287.139 89.1577ZM334.701 93.0039V79.5658C334.701 77.6739 334.263 76.2434 333.387 75.274C332.527 74.289 331.363 73.7965 329.893 73.7965C328.392 73.7965 327.133 74.3984 326.117 75.6023C325.116 76.7906 324.616 78.4322 324.616 80.5273V93.0039H319.808V79.5658C319.808 77.6739 319.371 76.2434 318.495 75.274C317.635 74.289 316.47 73.7965 315.001 73.7965C313.5 73.7965 312.241 74.3984 311.225 75.6023C310.224 76.7906 309.724 78.4322 309.724 80.5273V93.0039H304.916V69.9503H309.724V72.3425C309.912 72.1236 310.17 71.8578 310.498 71.5451C310.842 71.2168 311.545 70.7868 312.609 70.2552C313.687 69.7236 314.805 69.4578 315.962 69.4578C316.885 69.4578 317.76 69.5907 318.589 69.8565C319.433 70.1067 320.105 70.4272 320.606 70.8181C321.106 71.1933 321.536 71.5764 321.896 71.9672C322.271 72.3581 322.537 72.6786 322.693 72.9288L322.928 73.304C322.99 73.2102 323.092 73.0773 323.232 72.9053C323.389 72.7333 323.709 72.4206 324.194 71.9672C324.694 71.5138 325.226 71.1229 325.789 70.7946C326.352 70.4506 327.086 70.1458 327.993 69.88C328.916 69.5985 329.869 69.4578 330.854 69.4578C333.544 69.4578 335.654 70.3178 337.187 72.0376C338.734 73.7574 339.508 76.2668 339.508 79.5658V93.0039H334.701ZM351.281 69.9503V93.0039H346.474V69.9503H351.281ZM350.953 60.6867C351.5 61.2339 351.774 61.9218 351.774 62.7505C351.774 63.5791 351.5 64.2671 350.953 64.8143C350.406 65.3615 349.718 65.6351 348.889 65.6351C348.061 65.6351 347.373 65.3615 346.825 64.8143C346.278 64.2671 346.005 63.5791 346.005 62.7505C346.005 61.9218 346.278 61.2339 346.825 60.6867C347.373 60.1395 348.061 59.8659 348.889 59.8659C349.718 59.8659 350.406 60.1395 350.953 60.6867ZM363.054 69.9503V72.3425L363.359 72.0376C363.5 71.8969 363.797 71.6702 364.25 71.3575C364.704 71.0291 365.181 70.7399 365.681 70.4897C366.197 70.2239 366.846 69.9894 367.628 69.7862C368.425 69.5673 369.222 69.4578 370.02 69.4578C372.803 69.4578 375.054 70.3725 376.774 72.2018C378.509 74.031 379.377 76.4857 379.377 79.5658V93.0039H374.569V79.5658C374.569 77.9085 374.038 76.5326 372.975 75.4382C371.927 74.3437 370.622 73.7965 369.058 73.7965C367.229 73.7965 365.767 74.3906 364.673 75.5789C363.594 76.7515 363.054 78.401 363.054 80.5273V93.0039H358.247V69.9503H363.054ZM402.431 91.6202V89.6502L402.126 89.9551C401.985 90.0958 401.688 90.3303 401.235 90.6587C400.797 90.9714 400.32 91.2606 399.804 91.5264C399.288 91.7766 398.639 92.0111 397.858 92.23C397.076 92.4332 396.278 92.5349 395.465 92.5349C392.557 92.5349 390.032 91.417 387.89 89.1812C385.748 86.9298 384.677 84.2015 384.677 80.9963C384.677 77.7912 385.748 75.0707 387.89 72.835C390.032 70.5835 392.557 69.4578 395.465 69.4578C396.747 69.4578 397.967 69.7002 399.124 70.1849C400.281 70.6695 401.117 71.1542 401.633 71.6389L402.431 72.3425V69.9503H407.238V91.5733C407.238 94.8097 406.128 97.538 403.908 99.7582C401.688 101.978 398.96 103.088 395.723 103.088C394.41 103.088 393.159 102.916 391.971 102.572C390.783 102.244 389.806 101.845 389.039 101.376C388.273 100.923 387.601 100.462 387.023 99.9927C386.444 99.5236 386.03 99.1171 385.78 98.7732L385.381 98.2807L388.524 95.1615C388.586 95.2553 388.688 95.3804 388.828 95.5368C388.969 95.7087 389.266 95.998 389.72 96.4045C390.189 96.8266 390.681 97.194 391.197 97.5067C391.713 97.8351 392.378 98.1243 393.191 98.3745C394.004 98.6403 394.848 98.7732 395.723 98.7732C397.678 98.7732 399.28 98.1087 400.531 96.7797C401.798 95.4508 402.431 93.7309 402.431 91.6202ZM391.408 75.8838C390.11 77.2753 389.462 78.9795 389.462 80.9963C389.462 83.0132 390.11 84.7174 391.408 86.1089C392.706 87.5004 394.222 88.1962 395.958 88.1962C397.693 88.1962 399.202 87.5004 400.484 86.1089C401.782 84.7174 402.431 83.0132 402.431 80.9963C402.431 78.9795 401.782 77.2753 400.484 75.8838C399.202 74.4923 397.693 73.7965 395.958 73.7965C394.222 73.7965 392.706 74.4923 391.408 75.8838Z" fill="black"/>
<path fill-rule="evenodd" clip-rule="evenodd" d="M142.712 94.1991C168.479 94.1991 189.366 73.3115 189.366 47.5454C189.366 21.7792 168.479 0.891602 142.712 0.891602C116.946 0.891602 96.0586 21.7792 96.0586 47.5454C96.0586 73.3115 116.946 94.1991 142.712 94.1991ZM124.716 27.1725C133.49 20.7564 151.869 17.5066 164.113 31.2699C170.193 38.1042 170.848 45.3649 169.886 51.1623C168.929 56.9362 166.367 61.204 165.915 61.9556L165.897 61.9856C165.112 63.2956 158.209 73.6418 145.005 71.8161C131.523 69.9519 126.118 60.2964 125.952 53.7902C125.77 46.6924 128.512 38.2173 136.358 35.4896C140.427 34.0752 144.69 34.2915 148.221 35.6368C151.772 36.9895 154.427 39.4142 155.521 42.2695C157.966 48.6493 156.434 54.4062 152.73 57.1863C150.935 58.534 148.225 59.0964 145.628 58.6752C143.038 58.255 140.93 56.9282 139.988 54.9385C138.961 52.7679 139.211 50.8394 139.946 49.5114C140.721 48.1118 141.929 47.4916 142.852 47.5402C143.981 47.5996 144.415 48.1947 144.5 48.4511C144.503 48.4586 144.505 48.4656 144.507 48.4723C144.477 48.4825 144.436 48.4935 144.385 48.5038C143.377 48.7056 142.723 49.6862 142.925 50.6941C143.127 51.702 144.107 52.3555 145.115 52.1538C146.267 51.9233 147.251 51.2948 147.806 50.2853C148.344 49.3043 148.343 48.2075 148.032 47.2748C147.407 45.3972 145.519 43.9532 143.047 43.823C140.368 43.6819 137.976 45.3853 136.69 47.7083C135.364 50.1027 135.092 53.2957 136.624 56.531C138.241 59.9472 141.629 61.7975 145.032 62.3495C148.429 62.9004 152.211 62.2299 154.965 60.1633C160.358 56.1149 161.859 48.4044 158.997 40.9374C157.438 36.8692 153.838 33.7932 149.547 32.1583C145.236 30.5162 140.07 30.2582 135.136 31.9736C124.977 35.5054 122.033 46.1882 122.231 53.8856C122.443 62.1746 129.169 73.3842 144.495 75.5033C160.099 77.6609 168.169 65.4349 169.09 63.8996L169.111 63.8642C169.631 62.9985 172.485 58.2447 173.559 51.7715C174.658 45.1447 173.892 36.6619 166.894 28.7958C152.983 13.1583 132.313 17.0056 122.519 24.1678C117.701 27.6909 114.398 32.7967 112.316 37.6517C110.241 42.4884 109.289 47.2842 109.342 50.3609C109.36 51.3886 110.207 52.2074 111.235 52.1897C112.263 52.172 113.082 51.3245 113.064 50.2968C113.022 47.8727 113.813 43.604 115.737 39.1191C117.652 34.6524 120.604 30.1792 124.716 27.1725ZM144.521 48.5553C144.52 48.5553 144.52 48.5533 144.521 48.5494C144.521 48.5534 144.521 48.5554 144.521 48.5553ZM144.582 48.4398C144.588 48.4341 144.592 48.4318 144.592 48.432C144.593 48.4323 144.59 48.4352 144.582 48.4398Z" fill="black"/>
</svg>
