<svg width="671" height="106" viewBox="0 0 671 106" fill="none" xmlns="http://www.w3.org/2000/svg">
<path d="M45.1545 88.6035C69.0978 88.6035 88.5077 69.1936 88.5077 45.2503C88.5077 21.307 69.0978 1.89709 45.1545 1.89709C21.2112 1.89709 1.80127 21.307 1.80127 45.2503C1.80127 69.1936 21.2112 88.6035 45.1545 88.6035Z" stroke="black" stroke-width="3.60273"/>
<path d="M42.2678 72.7139L69.6058 45.3759M69.6058 45.3759L42.2677 18.0378M69.6058 45.3759H14.9297" stroke="black" stroke-width="3.59327"/>
<path d="M216.786 17.7104C219.737 17.7104 222.294 18.8454 224.458 21.1152C226.622 23.37 227.704 26.109 227.704 29.3322C227.704 32.5554 226.614 35.3019 224.435 37.5718C222.271 39.8265 219.721 40.9539 216.786 40.9539C215.953 40.9539 215.136 40.8555 214.334 40.6588C213.547 40.4621 212.874 40.2199 212.314 39.9324C211.754 39.6298 211.255 39.3271 210.816 39.0245C210.392 38.7067 210.09 38.457 209.908 38.2754L209.568 37.935V40.4999H204.937V7.95007H209.568V20.7521C209.779 20.5402 210.082 20.2603 210.475 19.9122C210.869 19.5642 211.694 19.1102 212.95 18.5503C214.206 17.9904 215.484 17.7104 216.786 17.7104ZM211.61 34.5982C212.987 36.051 214.554 36.7773 216.309 36.7773C218.08 36.7773 219.646 36.051 221.008 34.5982C222.37 33.1455 223.051 31.3977 223.051 29.3549C223.051 27.2968 222.37 25.5415 221.008 24.0888C219.646 22.6361 218.08 21.9097 216.309 21.9097C214.554 21.9097 212.987 22.6361 211.61 24.0888C210.248 25.5415 209.568 27.2968 209.568 29.3549C209.568 31.3977 210.248 33.1455 211.61 34.5982ZM248.632 40.4999V38.1846L248.337 38.4797C248.201 38.6159 247.913 38.8429 247.474 39.1607C247.051 39.4633 246.589 39.7433 246.09 40.0005C245.59 40.2426 244.962 40.4621 244.206 40.6588C243.449 40.8555 242.677 40.9539 241.89 40.9539C239.197 40.9539 237.01 40.0762 235.331 38.3208C233.666 36.5503 232.834 34.1745 232.834 31.1935V18.1871H237.487V31.1935C237.487 32.7975 237.994 34.1291 239.008 35.1884C240.037 36.2477 241.308 36.7773 242.821 36.7773C244.592 36.7773 245.999 36.2099 247.043 35.0749C248.102 33.9249 248.632 32.3208 248.632 30.2628V18.1871H253.285V40.4999H248.632ZM274.213 20.7521L271.194 23.771C271.073 23.6499 270.892 23.4835 270.65 23.2716C270.423 23.0446 269.938 22.7647 269.197 22.4318C268.471 22.0837 267.737 21.9097 266.995 21.9097C265.996 21.9097 265.202 22.1443 264.612 22.6134C264.037 23.0673 263.749 23.6045 263.749 24.225C263.749 24.8757 264.029 25.4204 264.589 25.8593C265.149 26.2981 265.853 26.631 266.7 26.858C267.547 27.085 268.455 27.3725 269.424 27.7206C270.407 28.0535 271.323 28.4318 272.17 28.8555C273.033 29.2792 273.744 29.9299 274.304 30.8076C274.864 31.6853 275.144 32.7445 275.144 33.9854C275.144 35.9072 274.365 37.5491 272.806 38.911C271.262 40.2729 269.25 40.9539 266.768 40.9539C265.679 40.9539 264.634 40.8177 263.636 40.5453C262.652 40.2729 261.843 39.9476 261.207 39.5693C260.571 39.1909 260.012 38.8126 259.527 38.4343C259.058 38.0409 258.718 37.708 258.506 37.4356L258.165 37.0043L261.184 33.9854C261.336 34.1972 261.555 34.4621 261.843 34.7798C262.145 35.0976 262.781 35.5138 263.749 36.0283C264.733 36.5276 265.739 36.7773 266.768 36.7773C268.009 36.7773 268.94 36.5276 269.56 36.0283C270.181 35.5138 270.491 34.8328 270.491 33.9854C270.491 33.3347 270.211 32.7975 269.651 32.3738C269.091 31.9349 268.387 31.602 267.54 31.375C266.692 31.1329 265.777 30.8454 264.793 30.5125C263.825 30.1644 262.909 29.7861 262.047 29.3776C261.199 28.9538 260.496 28.3032 259.936 27.4255C259.376 26.5327 259.096 25.4658 259.096 24.225C259.096 22.515 259.845 21.0018 261.343 19.6852C262.856 18.3687 264.74 17.7104 266.995 17.7104C267.888 17.7104 268.75 17.8164 269.583 18.0282C270.43 18.225 271.119 18.4746 271.648 18.7773C272.178 19.0648 272.64 19.3674 273.033 19.6852C273.442 19.9879 273.737 20.23 273.918 20.4116L274.213 20.7521ZM285.109 18.1871V40.4999H280.455V18.1871H285.109ZM284.791 9.22119C285.321 9.75083 285.585 10.4166 285.585 11.2186C285.585 12.0207 285.321 12.6865 284.791 13.2161C284.261 13.7457 283.595 14.0106 282.793 14.0106C281.991 14.0106 281.326 13.7457 280.796 13.2161C280.266 12.6865 280.001 12.0207 280.001 11.2186C280.001 10.4166 280.266 9.75083 280.796 9.22119C281.326 8.69155 281.991 8.42674 282.793 8.42674C283.595 8.42674 284.261 8.69155 284.791 9.22119ZM296.503 18.1871V20.5024L296.798 20.2073C296.935 20.0711 297.222 19.8517 297.661 19.549C298.1 19.2313 298.561 18.9513 299.046 18.7092C299.545 18.4519 300.173 18.225 300.93 18.0282C301.701 17.8164 302.473 17.7104 303.245 17.7104C305.938 17.7104 308.118 18.5957 309.782 20.3662C311.462 22.1367 312.302 24.5125 312.302 27.4936V40.4999H307.648V27.4936C307.648 25.8895 307.134 24.5579 306.105 23.4986C305.091 22.4393 303.827 21.9097 302.314 21.9097C300.544 21.9097 299.129 22.4847 298.07 23.6348C297.025 24.7697 296.503 26.3662 296.503 28.4242V40.4999H291.85V18.1871H296.503ZM339.495 30.9665H322.062C322.304 32.5402 323.076 33.9022 324.377 35.0522C325.694 36.2023 327.252 36.7773 329.053 36.7773C330.355 36.7773 331.565 36.4822 332.685 35.8921C333.82 35.3019 334.622 34.7269 335.091 34.167L335.795 33.3044L338.814 36.3233C338.723 36.4444 338.579 36.6184 338.382 36.8454C338.201 37.0573 337.8 37.428 337.179 37.9577C336.559 38.4722 335.901 38.9337 335.205 39.3423C334.509 39.7357 333.601 40.1065 332.481 40.4545C331.376 40.7874 330.234 40.9539 329.053 40.9539C325.891 40.9539 323.159 39.7962 320.859 37.481C318.574 35.1506 317.432 32.3586 317.432 29.1052C317.432 25.9728 318.544 23.2943 320.768 21.0698C323.008 18.8302 325.686 17.7104 328.804 17.7104C331.936 17.7104 334.539 18.7546 336.612 20.8429C338.7 22.916 339.744 25.5188 339.744 28.6512L339.495 30.9665ZM328.804 21.6827C327.124 21.6827 325.709 22.1821 324.559 23.1808C323.424 24.1644 322.66 25.4431 322.266 27.0169H335.182C334.91 25.4431 334.206 24.1644 333.071 23.1808C331.936 22.1821 330.514 21.6827 328.804 21.6827ZM359.015 20.7521L355.997 23.771C355.876 23.6499 355.694 23.4835 355.452 23.2716C355.225 23.0446 354.741 22.7647 353.999 22.4318C353.273 22.0837 352.539 21.9097 351.797 21.9097C350.799 21.9097 350.004 22.1443 349.414 22.6134C348.839 23.0673 348.551 23.6045 348.551 24.225C348.551 24.8757 348.831 25.4204 349.391 25.8593C349.951 26.2981 350.655 26.631 351.502 26.858C352.35 27.085 353.258 27.3725 354.226 27.7206C355.21 28.0535 356.125 28.4318 356.973 28.8555C357.835 29.2792 358.546 29.9299 359.106 30.8076C359.666 31.6853 359.946 32.7445 359.946 33.9854C359.946 35.9072 359.167 37.5491 357.608 38.911C356.065 40.2729 354.052 40.9539 351.57 40.9539C350.481 40.9539 349.437 40.8177 348.438 40.5453C347.454 40.2729 346.645 39.9476 346.009 39.5693C345.374 39.1909 344.814 38.8126 344.329 38.4343C343.86 38.0409 343.52 37.708 343.308 37.4356L342.968 37.0043L345.986 33.9854C346.138 34.1972 346.357 34.4621 346.645 34.7798C346.947 35.0976 347.583 35.5138 348.551 36.0283C349.535 36.5276 350.541 36.7773 351.57 36.7773C352.811 36.7773 353.742 36.5276 354.362 36.0283C354.983 35.5138 355.293 34.8328 355.293 33.9854C355.293 33.3347 355.013 32.7975 354.453 32.3738C353.893 31.9349 353.189 31.602 352.342 31.375C351.495 31.1329 350.579 30.8454 349.596 30.5125C348.627 30.1644 347.712 29.7861 346.849 29.3776C346.002 28.9538 345.298 28.3032 344.738 27.4255C344.178 26.5327 343.898 25.4658 343.898 24.225C343.898 22.515 344.647 21.0018 346.145 19.6852C347.659 18.3687 349.543 17.7104 351.797 17.7104C352.69 17.7104 353.553 17.8164 354.385 18.0282C355.232 18.225 355.921 18.4746 356.451 18.7773C356.98 19.0648 357.442 19.3674 357.835 19.6852C358.244 19.9879 358.539 20.23 358.72 20.4116L359.015 20.7521ZM379.217 20.7521L376.198 23.771C376.077 23.6499 375.896 23.4835 375.654 23.2716C375.427 23.0446 374.942 22.7647 374.201 22.4318C373.475 22.0837 372.741 21.9097 371.999 21.9097C371 21.9097 370.206 22.1443 369.616 22.6134C369.041 23.0673 368.753 23.6045 368.753 24.225C368.753 24.8757 369.033 25.4204 369.593 25.8593C370.153 26.2981 370.857 26.631 371.704 26.858C372.551 27.085 373.459 27.3725 374.428 27.7206C375.411 28.0535 376.327 28.4318 377.174 28.8555C378.037 29.2792 378.748 29.9299 379.308 30.8076C379.868 31.6853 380.148 32.7445 380.148 33.9854C380.148 35.9072 379.369 37.5491 377.81 38.911C376.266 40.2729 374.254 40.9539 371.772 40.9539C370.683 40.9539 369.638 40.8177 368.64 40.5453C367.656 40.2729 366.847 39.9476 366.211 39.5693C365.575 39.1909 365.015 38.8126 364.531 38.4343C364.062 38.0409 363.722 37.708 363.51 37.4356L363.169 37.0043L366.188 33.9854C366.34 34.1972 366.559 34.4621 366.847 34.7798C367.149 35.0976 367.785 35.5138 368.753 36.0283C369.737 36.5276 370.743 36.7773 371.772 36.7773C373.013 36.7773 373.944 36.5276 374.564 36.0283C375.184 35.5138 375.495 34.8328 375.495 33.9854C375.495 33.3347 375.215 32.7975 374.655 32.3738C374.095 31.9349 373.391 31.602 372.544 31.375C371.696 31.1329 370.781 30.8454 369.797 30.5125C368.829 30.1644 367.913 29.7861 367.051 29.3776C366.203 28.9538 365.5 28.3032 364.94 27.4255C364.38 26.5327 364.1 25.4658 364.1 24.225C364.1 22.515 364.849 21.0018 366.347 19.6852C367.86 18.3687 369.744 17.7104 371.999 17.7104C372.892 17.7104 373.754 17.8164 374.587 18.0282C375.434 18.225 376.123 18.4746 376.652 18.7773C377.182 19.0648 377.644 19.3674 378.037 19.6852C378.446 19.9879 378.741 20.23 378.922 20.4116L379.217 20.7521ZM404.072 17.7104C404.905 17.7104 405.714 17.8164 406.501 18.0282C407.303 18.225 407.976 18.4746 408.521 18.7773C409.081 19.0648 409.581 19.3674 410.019 19.6852C410.458 19.9879 410.768 20.23 410.95 20.4116L411.268 20.7521V7.95007H415.921V40.4999H411.268V37.935C411.056 38.1468 410.753 38.4268 410.36 38.7748C409.982 39.1228 409.164 39.5768 407.908 40.1367C406.652 40.6815 405.374 40.9539 404.072 40.9539C401.121 40.9539 398.564 39.8265 396.4 37.5718C394.236 35.3019 393.154 32.5554 393.154 29.3322C393.154 26.109 394.236 23.37 396.4 21.1152C398.564 18.8454 401.121 17.7104 404.072 17.7104ZM399.828 34.5982C401.205 36.051 402.771 36.7773 404.526 36.7773C406.297 36.7773 407.863 36.051 409.225 34.5982C410.587 33.1455 411.268 31.3977 411.268 29.3549C411.268 27.2968 410.587 25.5415 409.225 24.0888C407.863 22.6361 406.297 21.9097 404.526 21.9097C402.771 21.9097 401.205 22.6361 399.828 24.0888C398.466 25.5415 397.785 27.2968 397.785 29.3549C397.785 31.3977 398.466 33.1455 399.828 34.5982ZM443.591 30.9665H426.158C426.4 32.5402 427.172 33.9022 428.473 35.0522C429.79 36.2023 431.349 36.7773 433.149 36.7773C434.451 36.7773 435.661 36.4822 436.781 35.8921C437.916 35.3019 438.718 34.7269 439.187 34.167L439.891 33.3044L442.91 36.3233C442.819 36.4444 442.675 36.6184 442.478 36.8454C442.297 37.0573 441.896 37.428 441.275 37.9577C440.655 38.4722 439.997 38.9337 439.301 39.3423C438.605 39.7357 437.697 40.1065 436.577 40.4545C435.472 40.7874 434.33 40.9539 433.149 40.9539C429.987 40.9539 427.255 39.7962 424.955 37.481C422.67 35.1506 421.528 32.3586 421.528 29.1052C421.528 25.9728 422.64 23.2943 424.864 21.0698C427.104 18.8302 429.782 17.7104 432.9 17.7104C436.032 17.7104 438.635 18.7546 440.708 20.8429C442.796 22.916 443.84 25.5188 443.84 28.6512L443.591 30.9665ZM432.9 21.6827C431.22 21.6827 429.805 22.1821 428.655 23.1808C427.52 24.1644 426.756 25.4431 426.362 27.0169H439.278C439.006 25.4431 438.302 24.1644 437.167 23.1808C436.032 22.1821 434.61 21.6827 432.9 21.6827ZM459.843 40.4999H455.212L446.133 18.1871H451.013L457.528 34.4621L464.042 18.1871H468.922L459.843 40.4999ZM493.301 30.9665H475.868C476.11 32.5402 476.882 33.9022 478.183 35.0522C479.5 36.2023 481.059 36.7773 482.859 36.7773C484.161 36.7773 485.371 36.4822 486.491 35.8921C487.626 35.3019 488.428 34.7269 488.897 34.167L489.601 33.3044L492.62 36.3233C492.529 36.4444 492.385 36.6184 492.188 36.8454C492.007 37.0573 491.606 37.428 490.985 37.9577C490.365 38.4722 489.707 38.9337 489.011 39.3423C488.315 39.7357 487.407 40.1065 486.287 40.4545C485.182 40.7874 484.04 40.9539 482.859 40.9539C479.697 40.9539 476.965 39.7962 474.665 37.481C472.38 35.1506 471.238 32.3586 471.238 29.1052C471.238 25.9728 472.35 23.2943 474.574 21.0698C476.814 18.8302 479.492 17.7104 482.61 17.7104C485.742 17.7104 488.345 18.7546 490.418 20.8429C492.506 22.916 493.55 25.5188 493.55 28.6512L493.301 30.9665ZM482.61 21.6827C480.93 21.6827 479.515 22.1821 478.365 23.1808C477.23 24.1644 476.466 25.4431 476.072 27.0169H488.988C488.716 25.4431 488.012 24.1644 486.877 23.1808C485.742 22.1821 484.32 21.6827 482.61 21.6827ZM503.742 7.95007V40.4999H499.112V7.95007H503.742ZM525.851 34.6209C527.228 33.1834 527.916 31.428 527.916 29.3549C527.916 27.2666 527.228 25.5037 525.851 24.0661C524.474 22.6285 522.839 21.9097 520.948 21.9097C519.056 21.9097 517.414 22.6285 516.022 24.0661C514.645 25.5037 513.957 27.2666 513.957 29.3549C513.957 31.428 514.645 33.1834 516.022 34.6209C517.414 36.0585 519.056 36.7773 520.948 36.7773C522.839 36.7773 524.474 36.0585 525.851 34.6209ZM512.776 37.5037C510.476 35.1884 509.326 32.4721 509.326 29.3549C509.326 26.2224 510.476 23.4986 512.776 21.1833C515.091 18.8681 517.815 17.7104 520.948 17.7104C524.08 17.7104 526.796 18.8681 529.097 21.1833C531.412 23.4986 532.569 26.2224 532.569 29.3549C532.569 32.4721 531.412 35.1884 529.097 37.5037C526.796 39.8038 524.08 40.9539 520.948 40.9539C517.815 40.9539 515.091 39.8038 512.776 37.5037ZM549.525 40.9539C548.693 40.9539 547.883 40.8555 547.097 40.6588C546.31 40.4621 545.636 40.2199 545.076 39.9324C544.516 39.6298 544.017 39.3271 543.578 39.0245C543.155 38.7067 542.844 38.457 542.648 38.2754L542.33 37.935V50.2603H537.677V18.1871H542.33V20.7521C542.542 20.5402 542.837 20.2603 543.215 19.9122C543.609 19.5642 544.433 19.1102 545.689 18.5503C546.945 17.9904 548.224 17.7104 549.525 17.7104C552.476 17.7104 555.034 18.8454 557.197 21.1152C559.377 23.37 560.466 26.109 560.466 29.3322C560.466 32.5554 559.377 35.3019 557.197 37.5718C555.034 39.8265 552.476 40.9539 549.525 40.9539ZM553.77 24.0888C552.408 22.6361 550.842 21.9097 549.071 21.9097C547.301 21.9097 545.735 22.6361 544.373 24.0888C543.011 25.5415 542.33 27.2968 542.33 29.3549C542.33 31.3977 543.011 33.1455 544.373 34.5982C545.735 36.051 547.301 36.7773 549.071 36.7773C550.842 36.7773 552.408 36.051 553.77 34.5982C555.132 33.1455 555.813 31.3977 555.813 29.3549C555.813 27.2968 555.132 25.5415 553.77 24.0888ZM594.378 40.4999V27.4936C594.378 25.6625 593.954 24.2779 593.107 23.3397C592.274 22.3864 591.147 21.9097 589.725 21.9097C588.272 21.9097 587.054 22.4923 586.07 23.6575C585.102 24.8076 584.617 26.3965 584.617 28.4242V40.4999H579.964V27.4936C579.964 25.6625 579.541 24.2779 578.693 23.3397C577.861 22.3864 576.733 21.9097 575.311 21.9097C573.858 21.9097 572.64 22.4923 571.657 23.6575C570.688 24.8076 570.204 26.3965 570.204 28.4242V40.4999H565.551V18.1871H570.204V20.5024C570.385 20.2905 570.635 20.0333 570.953 19.7306C571.286 19.4128 571.967 18.9967 572.996 18.4822C574.04 17.9677 575.122 17.7104 576.242 17.7104C577.134 17.7104 577.982 17.8391 578.784 18.0963C579.601 18.3384 580.252 18.6487 580.736 19.027C581.22 19.3901 581.636 19.7609 581.984 20.1392C582.348 20.5175 582.605 20.8277 582.756 21.0698L582.983 21.433C583.044 21.3422 583.142 21.2136 583.278 21.0472C583.43 20.8807 583.74 20.578 584.209 20.1392C584.693 19.7004 585.208 19.3221 585.752 19.0043C586.297 18.6714 587.008 18.3763 587.886 18.119C588.779 17.8466 589.702 17.7104 590.655 17.7104C593.258 17.7104 595.301 18.5427 596.784 20.2073C598.282 21.8719 599.031 24.3006 599.031 27.4936V40.4999H594.378ZM626.224 30.9665H608.792C609.034 32.5402 609.805 33.9022 611.107 35.0522C612.423 36.2023 613.982 36.7773 615.783 36.7773C617.084 36.7773 618.295 36.4822 619.414 35.8921C620.549 35.3019 621.351 34.7269 621.821 34.167L622.524 33.3044L625.543 36.3233C625.452 36.4444 625.309 36.6184 625.112 36.8454C624.93 37.0573 624.529 37.428 623.909 37.9577C623.288 38.4722 622.63 38.9337 621.934 39.3423C621.238 39.7357 620.33 40.1065 619.21 40.4545C618.106 40.7874 616.963 40.9539 615.783 40.9539C612.62 40.9539 609.889 39.7962 607.588 37.481C605.303 35.1506 604.161 32.3586 604.161 29.1052C604.161 25.9728 605.273 23.2943 607.498 21.0698C609.737 18.8302 612.416 17.7104 615.533 17.7104C618.665 17.7104 621.268 18.7546 623.341 20.8429C625.43 22.916 626.474 25.5188 626.474 28.6512L626.224 30.9665ZM615.533 21.6827C613.853 21.6827 612.438 22.1821 611.288 23.1808C610.153 24.1644 609.389 25.4431 608.996 27.0169H621.911C621.639 25.4431 620.935 24.1644 619.8 23.1808C618.665 22.1821 617.243 21.6827 615.533 21.6827ZM636.211 18.1871V20.5024L636.507 20.2073C636.643 20.0711 636.93 19.8517 637.369 19.549C637.808 19.2313 638.269 18.9513 638.754 18.7092C639.253 18.4519 639.881 18.225 640.638 18.0282C641.409 17.8164 642.181 17.7104 642.953 17.7104C645.647 17.7104 647.826 18.5957 649.49 20.3662C651.17 22.1367 652.01 24.5125 652.01 27.4936V40.4999H647.357V27.4936C647.357 25.8895 646.842 24.5579 645.813 23.4986C644.799 22.4393 643.536 21.9097 642.022 21.9097C640.252 21.9097 638.837 22.4847 637.778 23.6348C636.734 24.7697 636.211 26.3662 636.211 28.4242V40.4999H631.558V18.1871H636.211ZM661.316 15.3952V10.742H665.493V18.1871H670.146V22.3637H665.493V33.94C665.493 34.7723 665.758 35.4532 666.287 35.9829C666.817 36.5125 667.483 36.7773 668.285 36.7773C668.633 36.7773 668.996 36.7395 669.374 36.6638C669.768 36.5882 670.07 36.5049 670.282 36.4141L670.623 36.3233V40.4999C669.7 40.8025 668.61 40.9539 667.354 40.9539C663.011 40.9539 660.847 38.631 660.862 33.9854V22.3637H656.663V18.1871H659.001C660.544 18.1871 661.316 17.2565 661.316 15.3952ZM225.615 80.4621C225.706 80.6436 225.85 80.8631 226.047 81.1203C226.259 81.3624 226.637 81.7029 227.182 82.1418C227.742 82.5655 228.301 82.7773 228.861 82.7773C229.013 82.7773 229.156 82.7546 229.293 82.7092C229.444 82.6638 229.565 82.626 229.656 82.5957C229.747 82.5655 229.792 82.5352 229.792 82.5049V86.7269C229.172 86.8782 228.551 86.9539 227.931 86.9539C226.977 86.9539 226.047 86.6891 225.139 86.1594C224.246 85.6147 223.595 85.0775 223.187 84.5478L222.597 83.708C222.385 83.9501 222.059 84.2527 221.621 84.6159C221.182 84.9791 220.259 85.4633 218.851 86.0686C217.444 86.6588 215.976 86.9539 214.448 86.9539C211.527 86.9539 209.167 86.1821 207.366 84.6386C205.58 83.0951 204.687 81.2338 204.687 79.0547C204.687 77.9349 204.899 76.8378 205.323 75.7634C205.747 74.6739 206.246 73.7584 206.821 73.0169C207.411 72.2754 208.001 71.6096 208.591 71.0194C209.182 70.4293 209.681 69.998 210.09 69.7256L210.748 69.2943C210.4 68.9463 209.969 68.4847 209.454 67.9097C208.94 67.3195 208.251 66.2905 207.388 64.8227C206.526 63.3397 206.095 62.0459 206.095 60.9412C206.095 58.8378 206.836 57.0749 208.319 55.6524C209.802 54.2148 211.694 53.4961 213.994 53.4961C216.264 53.4961 218.148 54.1846 219.646 55.5616C221.144 56.9387 221.893 58.573 221.893 60.4645C221.893 61.8265 221.424 63.2489 220.486 64.7319C219.563 66.1997 218.639 67.3195 217.716 68.0913L216.309 69.2943L222.597 76.9665C223.686 75.2565 224.231 73.1682 224.231 70.7016H228.407C228.407 72.3511 228.173 73.9854 227.704 75.6045C227.235 77.2237 226.773 78.4419 226.319 79.259L225.615 80.4621ZM214.448 82.7773C215.401 82.7773 216.347 82.6109 217.285 82.2779C218.223 81.9299 218.927 81.5743 219.396 81.2111L220.032 80.689L213.29 72.3132C212.987 72.5251 212.617 72.8353 212.178 73.2439C211.739 73.6525 211.156 74.4091 210.43 75.5137C209.704 76.6033 209.341 77.6323 209.341 78.6008C209.341 79.9022 209.764 80.9236 210.612 81.6651C211.459 82.4066 212.738 82.7773 214.448 82.7773ZM217.489 60.9412C217.489 60.0181 217.164 59.2464 216.513 58.6259C215.863 57.9904 215.023 57.6726 213.994 57.6726C212.965 57.6726 212.125 57.9828 211.474 58.6032C210.824 59.2237 210.498 60.003 210.498 60.9412C210.498 61.6222 210.786 62.4091 211.361 63.3019C211.936 64.1947 212.518 64.921 213.109 65.4809L213.994 66.2754C214.236 66.0635 214.554 65.7685 214.947 65.3901C215.341 64.9967 215.863 64.3309 216.513 63.3927C217.164 62.4393 217.489 61.6222 217.489 60.9412ZM257.689 66.7521L254.67 69.771C254.549 69.6499 254.367 69.4835 254.125 69.2716C253.898 69.0446 253.414 68.7647 252.672 68.4318C251.946 68.0837 251.212 67.9097 250.471 67.9097C249.472 67.9097 248.677 68.1443 248.087 68.6134C247.512 69.0673 247.225 69.6045 247.225 70.225C247.225 70.8757 247.505 71.4204 248.064 71.8593C248.624 72.2981 249.328 72.631 250.175 72.858C251.023 73.085 251.931 73.3725 252.899 73.7206C253.883 74.0535 254.798 74.4318 255.646 74.8555C256.508 75.2792 257.22 75.9299 257.779 76.8076C258.339 77.6853 258.619 78.7445 258.619 79.9854C258.619 81.9072 257.84 83.5491 256.281 84.911C254.738 86.2729 252.725 86.9539 250.244 86.9539C249.154 86.9539 248.11 86.8177 247.111 86.5453C246.127 86.2729 245.318 85.9476 244.682 85.5693C244.047 85.1909 243.487 84.8126 243.003 84.4343C242.534 84.0409 242.193 83.708 241.981 83.4356L241.641 83.0043L244.66 79.9854C244.811 80.1972 245.03 80.4621 245.318 80.7798C245.621 81.0976 246.256 81.5138 247.225 82.0283C248.208 82.5276 249.215 82.7773 250.244 82.7773C251.484 82.7773 252.415 82.5276 253.035 82.0283C253.656 81.5138 253.966 80.8328 253.966 79.9854C253.966 79.3347 253.686 78.7975 253.126 78.3738C252.566 77.9349 251.863 77.602 251.015 77.375C250.168 77.1329 249.252 76.8455 248.269 76.5126C247.3 76.1645 246.385 75.7861 245.522 75.3776C244.675 74.9538 243.971 74.3032 243.411 73.4255C242.851 72.5327 242.571 71.4658 242.571 70.225C242.571 68.515 243.32 67.0018 244.819 65.6852C246.332 64.3687 248.216 63.7104 250.471 63.7104C251.363 63.7104 252.226 63.8164 253.058 64.0282C253.906 64.225 254.594 64.4746 255.124 64.7773C255.653 65.0648 256.115 65.3674 256.508 65.6852C256.917 65.9879 257.212 66.23 257.394 66.4116L257.689 66.7521ZM281.613 86.4999H276.96V84.1846C276.899 84.2452 276.793 84.3435 276.642 84.4797C276.506 84.6159 276.218 84.8429 275.78 85.1607C275.356 85.4633 274.894 85.7433 274.395 86.0005C273.896 86.2426 273.268 86.4621 272.511 86.6588C271.754 86.8555 270.99 86.9539 270.218 86.9539C267.948 86.9539 266.064 86.2956 264.566 84.9791C263.068 83.6626 262.319 82.1569 262.319 80.4621C262.319 78.631 262.894 77.0951 264.044 75.8542C265.21 74.6134 266.798 73.8265 268.811 73.4936L276.96 72.0863C276.96 70.9059 276.521 69.9147 275.643 69.1127C274.781 68.3107 273.669 67.9097 272.307 67.9097C271.126 67.9097 270.052 68.1594 269.083 68.6588C268.13 69.143 267.472 69.6348 267.109 70.1342L266.496 70.9286L263.477 67.9097C263.568 67.7886 263.689 67.6373 263.84 67.4557C264.006 67.259 264.362 66.9261 264.907 66.457C265.467 65.9727 266.057 65.5415 266.677 65.1632C267.298 64.7849 268.115 64.4519 269.129 64.1644C270.158 63.8618 271.217 63.7104 272.307 63.7104C275.03 63.7104 277.262 64.52 279.003 66.1392C280.743 67.7432 281.613 69.7256 281.613 72.0863V86.4999ZM270.922 82.7773C272.814 82.7773 274.289 82.2174 275.348 81.0976C276.423 79.9627 276.96 78.3511 276.96 76.2628V75.8088L269.742 76.9665C268.909 77.1178 268.236 77.4583 267.721 77.9879C267.207 78.5175 266.95 79.1834 266.95 79.9854C266.95 80.7269 267.305 81.3776 268.017 81.9375C268.743 82.4974 269.711 82.7773 270.922 82.7773ZM293.235 53.95V86.4999H288.604V53.95H293.235ZM320.882 76.9665H303.449C303.691 78.5402 304.463 79.9022 305.764 81.0522C307.081 82.2023 308.64 82.7773 310.44 82.7773C311.742 82.7773 312.952 82.4822 314.072 81.8921C315.207 81.3019 316.009 80.7269 316.478 80.167L317.182 79.3044L320.201 82.3233C320.11 82.4444 319.966 82.6184 319.77 82.8454C319.588 83.0573 319.187 83.428 318.566 83.9577C317.946 84.4722 317.288 84.9337 316.592 85.3423C315.896 85.7357 314.988 86.1065 313.868 86.4545C312.763 86.7874 311.621 86.9539 310.44 86.9539C307.278 86.9539 304.546 85.7962 302.246 83.481C299.961 81.1506 298.819 78.3586 298.819 75.1052C298.819 71.9728 299.931 69.2943 302.155 67.0698C304.395 64.8302 307.073 63.7104 310.191 63.7104C313.323 63.7104 315.926 64.7546 317.999 66.8429C320.087 68.916 321.131 71.5188 321.131 74.6512L320.882 76.9665ZM310.191 67.6827C308.511 67.6827 307.096 68.1821 305.946 69.1808C304.811 70.1644 304.047 71.4431 303.653 73.0169H316.569C316.297 71.4431 315.593 70.1644 314.458 69.1808C313.323 68.1821 311.901 67.6827 310.191 67.6827ZM340.403 66.7521L337.384 69.771C337.263 69.6499 337.081 69.4835 336.839 69.2716C336.612 69.0446 336.128 68.7647 335.386 68.4318C334.66 68.0837 333.926 67.9097 333.184 67.9097C332.186 67.9097 331.391 68.1443 330.801 68.6134C330.226 69.0673 329.939 69.6045 329.939 70.225C329.939 70.8757 330.218 71.4204 330.778 71.8593C331.338 72.2981 332.042 72.631 332.889 72.858C333.737 73.085 334.645 73.3725 335.613 73.7206C336.597 74.0535 337.512 74.4318 338.36 74.8555C339.222 75.2792 339.933 75.9299 340.493 76.8076C341.053 77.6853 341.333 78.7445 341.333 79.9854C341.333 81.9072 340.554 83.5491 338.995 84.911C337.452 86.2729 335.439 86.9539 332.957 86.9539C331.868 86.9539 330.824 86.8177 329.825 86.5453C328.841 86.2729 328.032 85.9476 327.396 85.5693C326.761 85.1909 326.201 84.8126 325.717 84.4343C325.247 84.0409 324.907 83.708 324.695 83.4356L324.355 83.0043L327.374 79.9854C327.525 80.1972 327.744 80.4621 328.032 80.7798C328.334 81.0976 328.97 81.5138 329.939 82.0283C330.922 82.5276 331.928 82.7773 332.957 82.7773C334.198 82.7773 335.129 82.5276 335.749 82.0283C336.37 81.5138 336.68 80.8328 336.68 79.9854C336.68 79.3347 336.4 78.7975 335.84 78.3738C335.28 77.9349 334.577 77.602 333.729 77.375C332.882 77.1329 331.966 76.8455 330.983 76.5126C330.014 76.1645 329.099 75.7861 328.236 75.3776C327.389 74.9538 326.685 74.3032 326.125 73.4255C325.565 72.5327 325.285 71.4658 325.285 70.225C325.285 68.515 326.034 67.0018 327.532 65.6852C329.046 64.3687 330.93 63.7104 333.184 63.7104C334.077 63.7104 334.94 63.8164 335.772 64.0282C336.619 64.225 337.308 64.4746 337.838 64.7773C338.367 65.0648 338.829 65.3674 339.222 65.6852C339.631 65.9879 339.926 66.23 340.108 66.4116L340.403 66.7521Z" fill="black"/>
<path fill-rule="evenodd" clip-rule="evenodd" d="M140.065 90.4049C165.003 90.4049 185.219 70.1885 185.219 45.2503C185.219 20.3121 165.003 0.0957031 140.065 0.0957031C115.127 0.0957031 94.9102 20.3121 94.9102 45.2503C94.9102 70.1885 115.127 90.4049 140.065 90.4049ZM138.222 17.8797L140.429 14.0586L142.635 17.8797L167.578 61.0825L169.784 64.9036H165.372H115.485H111.073L113.279 61.0825L138.222 17.8797ZM117.691 61.0825L140.429 21.7007L163.166 61.0825H117.691Z" fill="black"/>
</svg>
