<svg width="1766" height="230" viewBox="0 0 1766 230" fill="none" xmlns="http://www.w3.org/2000/svg">
<circle cx="98.9099" cy="98.9099" r="94.9641" stroke="white" stroke-width="7.89168"/>
<path d="M92.5825 159.068L152.466 99.1851M152.466 99.1851L92.5825 39.3018M152.466 99.1851H32.6992" stroke="white" stroke-width="7.87096"/>
<path d="M474.866 39.9666C481.33 39.9666 486.932 42.4526 491.672 47.4247C496.412 52.3636 498.782 58.3633 498.782 65.4236C498.782 72.484 496.395 78.5002 491.622 83.4722C486.882 88.4112 481.297 90.8806 474.866 90.8806C473.043 90.8806 471.253 90.6652 469.496 90.2343C467.773 89.8034 466.298 89.273 465.071 88.6432C463.845 87.9803 462.751 87.3173 461.79 86.6544C460.861 85.9583 460.198 85.4114 459.801 85.0136L459.055 84.2678V89.8862H448.912V18.5866H459.055V46.6292C459.519 46.1651 460.182 45.5519 461.044 44.7895C461.906 44.0271 463.712 43.0327 466.463 41.8062C469.215 40.5798 472.015 39.9666 474.866 39.9666ZM463.53 76.9588C466.546 80.141 469.977 81.732 473.822 81.732C477.7 81.732 481.131 80.141 484.114 76.9588C487.097 73.7767 488.589 69.9482 488.589 65.4733C488.589 60.9653 487.097 57.1202 484.114 53.9381C481.131 50.756 477.7 49.1649 473.822 49.1649C469.977 49.1649 466.546 50.756 463.53 53.9381C460.547 57.1202 459.055 60.9653 459.055 65.4733C459.055 69.9482 460.547 73.7767 463.53 76.9588ZM544.624 89.8862V84.8147L543.978 85.4611C543.68 85.7594 543.05 86.2566 542.089 86.9527C541.161 87.6156 540.15 88.2289 539.056 88.7924C537.962 89.3227 536.586 89.8034 534.929 90.2343C533.271 90.6652 531.581 90.8806 529.857 90.8806C523.957 90.8806 519.167 88.9581 515.488 85.113C511.842 81.2348 510.019 76.0307 510.019 69.5007V41.0107H520.211V69.5007C520.211 73.0143 521.322 75.9313 523.543 78.2516C525.797 80.5719 528.581 81.732 531.896 81.732C535.774 81.732 538.857 80.489 541.144 78.003C543.464 75.4838 544.624 71.9702 544.624 67.4622V41.0107H554.817V89.8862H544.624ZM600.66 46.6292L594.047 53.242C593.782 52.9768 593.384 52.6122 592.854 52.1482C592.356 51.651 591.296 51.0377 589.671 50.3085C588.08 49.5461 586.473 49.1649 584.848 49.1649C582.661 49.1649 580.921 49.6787 579.628 50.7063C578.368 51.7007 577.738 52.8774 577.738 54.2364C577.738 55.6618 578.352 56.8551 579.578 57.8163C580.805 58.7776 582.346 59.5068 584.202 60.004C586.058 60.5013 588.047 61.131 590.169 61.8934C592.323 62.6227 594.329 63.4513 596.185 64.3795C598.074 65.3076 599.632 66.7329 600.859 68.6555C602.085 70.578 602.698 72.8983 602.698 75.6164C602.698 79.8261 600.991 83.4225 597.577 86.4058C594.196 89.389 589.787 90.8806 584.351 90.8806C581.965 90.8806 579.678 90.5823 577.49 89.9857C575.335 89.389 573.562 88.6764 572.17 87.8477C570.778 87.019 569.551 86.1903 568.49 85.3616C567.463 84.4998 566.717 83.7706 566.253 83.1739L565.507 82.2292L572.12 75.6164C572.451 76.0804 572.932 76.6605 573.562 77.3566C574.225 78.0527 575.617 78.9642 577.738 80.0912C579.893 81.1851 582.097 81.732 584.351 81.732C587.069 81.732 589.108 81.1851 590.467 80.0912C591.826 78.9642 592.505 77.4726 592.505 75.6164C592.505 74.191 591.892 73.0143 590.666 72.0862C589.439 71.1249 587.898 70.3957 586.042 69.8985C584.186 69.3681 582.18 68.7383 580.026 68.0091C577.904 67.2467 575.899 66.418 574.009 65.523C572.153 64.5949 570.612 63.1696 569.385 61.2471C568.159 59.2914 567.546 56.9545 567.546 54.2364C567.546 50.4908 569.186 47.1761 572.468 44.2923C575.783 41.4085 579.91 39.9666 584.848 39.9666C586.804 39.9666 588.694 40.1986 590.517 40.6627C592.373 41.0936 593.881 41.6405 595.041 42.3034C596.201 42.9332 597.212 43.5962 598.074 44.2923C598.969 44.9552 599.616 45.4856 600.013 45.8833L600.66 46.6292ZM624.526 41.0107V89.8862H614.333V41.0107H624.526ZM623.83 21.371C624.99 22.5311 625.57 23.9896 625.57 25.7464C625.57 27.5032 624.99 28.9617 623.83 30.1219C622.669 31.282 621.211 31.8621 619.454 31.8621C617.697 31.8621 616.239 31.282 615.079 30.1219C613.919 28.9617 613.338 27.5032 613.338 25.7464C613.338 23.9896 613.919 22.5311 615.079 21.371C616.239 20.2108 617.697 19.6308 619.454 19.6308C621.211 19.6308 622.669 20.2108 623.83 21.371ZM649.486 41.0107V46.0822L650.132 45.4359C650.43 45.1375 651.06 44.6569 652.021 43.994C652.983 43.2979 653.994 42.6846 655.054 42.1543C656.148 41.5908 657.524 41.0936 659.181 40.6627C660.872 40.1986 662.562 39.9666 664.253 39.9666C670.153 39.9666 674.926 41.9057 678.572 45.7839C682.252 49.6621 684.091 54.8662 684.091 61.3962V89.8862H673.898V61.3962C673.898 57.8826 672.771 54.9657 670.517 52.6454C668.297 50.3251 665.529 49.1649 662.214 49.1649C658.336 49.1649 655.237 50.4245 652.916 52.9437C650.629 55.4297 649.486 58.9268 649.486 63.4348V89.8862H639.293V41.0107H649.486ZM743.657 69.0035H705.471C706.001 72.4508 707.692 75.4341 710.543 77.9532C713.426 80.4724 716.841 81.732 720.785 81.732C723.636 81.732 726.288 81.0857 728.74 79.7929C731.226 78.5002 732.983 77.2406 734.011 76.0141L735.552 74.1247L742.165 80.7376C741.966 81.0028 741.651 81.384 741.22 81.8812C740.823 82.3452 739.944 83.1574 738.585 84.3175C737.226 85.4445 735.784 86.4555 734.259 87.3505C732.735 88.2123 730.746 89.0244 728.293 89.7868C725.873 90.516 723.371 90.8806 720.785 90.8806C713.857 90.8806 707.874 88.3449 702.836 83.2734C697.831 78.1687 695.328 72.053 695.328 64.9264C695.328 58.0649 697.764 52.1979 702.637 47.3252C707.543 42.4195 713.41 39.9666 720.238 39.9666C727.1 39.9666 732.801 42.2537 737.342 46.828C741.916 51.3692 744.204 57.0705 744.204 63.932L743.657 69.0035ZM720.238 48.6677C716.559 48.6677 713.46 49.7616 710.94 51.9493C708.454 54.1038 706.78 56.9048 705.919 60.3521H734.21C733.613 56.9048 732.072 54.1038 729.586 51.9493C727.1 49.7616 723.984 48.6677 720.238 48.6677ZM786.417 46.6292L779.804 53.242C779.538 52.9768 779.141 52.6122 778.61 52.1482C778.113 51.651 777.052 51.0377 775.428 50.3085C773.837 49.5461 772.23 49.1649 770.605 49.1649C768.418 49.1649 766.677 49.6787 765.385 50.7063C764.125 51.7007 763.495 52.8774 763.495 54.2364C763.495 55.6618 764.108 56.8551 765.335 57.8163C766.561 58.7776 768.103 59.5068 769.959 60.004C771.815 60.5013 773.804 61.131 775.925 61.8934C778.08 62.6227 780.085 63.4513 781.942 64.3795C783.831 65.3076 785.389 66.7329 786.615 68.6555C787.842 70.578 788.455 72.8983 788.455 75.6164C788.455 79.8261 786.748 83.4225 783.334 86.4058C779.953 89.389 775.544 90.8806 770.108 90.8806C767.722 90.8806 765.434 90.5823 763.247 89.9857C761.092 89.389 759.319 88.6764 757.927 87.8477C756.534 87.019 755.308 86.1903 754.247 85.3616C753.22 84.4998 752.474 83.7706 752.01 83.1739L751.264 82.2292L757.877 75.6164C758.208 76.0804 758.689 76.6605 759.319 77.3566C759.982 78.0527 761.374 78.9642 763.495 80.0912C765.65 81.1851 767.854 81.732 770.108 81.732C772.826 81.732 774.865 81.1851 776.224 80.0912C777.583 78.9642 778.262 77.4726 778.262 75.6164C778.262 74.191 777.649 73.0143 776.423 72.0862C775.196 71.1249 773.655 70.3957 771.799 69.8985C769.942 69.3681 767.937 68.7383 765.782 68.0091C763.661 67.2467 761.656 66.418 759.766 65.523C757.91 64.5949 756.369 63.1696 755.142 61.2471C753.916 59.2914 753.302 56.9545 753.302 54.2364C753.302 50.4908 754.943 47.1761 758.225 44.2923C761.54 41.4085 765.666 39.9666 770.605 39.9666C772.561 39.9666 774.45 40.1986 776.273 40.6627C778.13 41.0936 779.638 41.6405 780.798 42.3034C781.958 42.9332 782.969 43.5962 783.831 44.2923C784.726 44.9552 785.372 45.4856 785.77 45.8833L786.417 46.6292ZM830.668 46.6292L824.055 53.242C823.79 52.9768 823.392 52.6122 822.862 52.1482C822.365 51.651 821.304 51.0377 819.68 50.3085C818.089 49.5461 816.481 49.1649 814.857 49.1649C812.669 49.1649 810.929 49.6787 809.636 50.7063C808.377 51.7007 807.747 52.8774 807.747 54.2364C807.747 55.6618 808.36 56.8551 809.586 57.8163C810.813 58.7776 812.354 59.5068 814.21 60.004C816.067 60.5013 818.056 61.131 820.177 61.8934C822.332 62.6227 824.337 63.4513 826.193 64.3795C828.083 65.3076 829.64 66.7329 830.867 68.6555C832.093 70.578 832.707 72.8983 832.707 75.6164C832.707 79.8261 830.999 83.4225 827.585 86.4058C824.204 89.389 819.796 90.8806 814.36 90.8806C811.973 90.8806 809.686 90.5823 807.498 89.9857C805.344 89.389 803.57 88.6764 802.178 87.8477C800.786 87.019 799.559 86.1903 798.499 85.3616C797.471 84.4998 796.725 83.7706 796.261 83.1739L795.515 82.2292L802.128 75.6164C802.46 76.0804 802.94 76.6605 803.57 77.3566C804.233 78.0527 805.625 78.9642 807.747 80.0912C809.901 81.1851 812.106 81.732 814.36 81.732C817.078 81.732 819.116 81.1851 820.475 80.0912C821.834 78.9642 822.514 77.4726 822.514 75.6164C822.514 74.191 821.901 73.0143 820.674 72.0862C819.448 71.1249 817.906 70.3957 816.05 69.8985C814.194 69.3681 812.188 68.7383 810.034 68.0091C807.912 67.2467 805.907 66.418 804.018 65.523C802.161 64.5949 800.62 63.1696 799.394 61.2471C798.167 59.2914 797.554 56.9545 797.554 54.2364C797.554 50.4908 799.195 47.1761 802.476 44.2923C805.791 41.4085 809.918 39.9666 814.857 39.9666C816.813 39.9666 818.702 40.1986 820.525 40.6627C822.381 41.0936 823.889 41.6405 825.05 42.3034C826.21 42.9332 827.221 43.5962 828.083 44.2923C828.978 44.9552 829.624 45.4856 830.022 45.8833L830.668 46.6292ZM885.112 39.9666C886.935 39.9666 888.709 40.1986 890.432 40.6627C892.189 41.0936 893.664 41.6405 894.858 42.3034C896.084 42.9332 897.178 43.5962 898.139 44.2923C899.1 44.9552 899.78 45.4856 900.178 45.8833L900.874 46.6292V18.5866H911.067V89.8862H900.874V84.2678C900.41 84.7318 899.747 85.3451 898.885 86.1075C898.056 86.8698 896.266 87.8643 893.515 89.0907C890.764 90.284 887.963 90.8806 885.112 90.8806C878.649 90.8806 873.047 88.4112 868.307 83.4722C863.567 78.5002 861.197 72.484 861.197 65.4236C861.197 58.3633 863.567 52.3636 868.307 47.4247C873.047 42.4526 878.649 39.9666 885.112 39.9666ZM875.814 76.9588C878.831 80.141 882.262 81.732 886.107 81.732C889.985 81.732 893.416 80.141 896.399 76.9588C899.382 73.7767 900.874 69.9482 900.874 65.4733C900.874 60.9653 899.382 57.1202 896.399 53.9381C893.416 50.756 889.985 49.1649 886.107 49.1649C882.262 49.1649 878.831 50.756 875.814 53.9381C872.831 57.1202 871.34 60.9653 871.34 65.4733C871.34 69.9482 872.831 73.7767 875.814 76.9588ZM971.676 69.0035H933.491C934.021 72.4508 935.711 75.4341 938.562 77.9532C941.446 80.4724 944.86 81.732 948.805 81.732C951.655 81.732 954.307 81.0857 956.76 79.7929C959.246 78.5002 961.003 77.2406 962.03 76.0141L963.572 74.1247L970.185 80.7376C969.986 81.0028 969.671 81.384 969.24 81.8812C968.842 82.3452 967.964 83.1574 966.605 84.3175C965.246 85.4445 963.804 86.4555 962.279 87.3505C960.754 88.2123 958.765 89.0244 956.312 89.7868C953.893 90.516 951.39 90.8806 948.805 90.8806C941.877 90.8806 935.894 88.3449 930.855 83.2734C925.85 78.1687 923.348 72.053 923.348 64.9264C923.348 58.0649 925.784 52.1979 930.657 47.3252C935.562 42.4195 941.429 39.9666 948.258 39.9666C955.119 39.9666 960.82 42.2537 965.362 46.828C969.936 51.3692 972.223 57.0705 972.223 63.932L971.676 69.0035ZM948.258 48.6677C944.578 48.6677 941.479 49.7616 938.96 51.9493C936.474 54.1038 934.8 56.9048 933.938 60.3521H962.229C961.633 56.9048 960.091 54.1038 957.605 51.9493C955.119 49.7616 952.003 48.6677 948.258 48.6677ZM1007.28 89.8862H997.133L977.245 41.0107H987.935L1002.2 76.6605L1016.47 41.0107H1027.16L1007.28 89.8862ZM1080.56 69.0035H1042.38C1042.91 72.4508 1044.6 75.4341 1047.45 77.9532C1050.33 80.4724 1053.75 81.732 1057.69 81.732C1060.54 81.732 1063.2 81.0857 1065.65 79.7929C1068.13 78.5002 1069.89 77.2406 1070.92 76.0141L1072.46 74.1247L1079.07 80.7376C1078.87 81.0028 1078.56 81.384 1078.13 81.8812C1077.73 82.3452 1076.85 83.1574 1075.49 84.3175C1074.13 85.4445 1072.69 86.4555 1071.17 87.3505C1069.64 88.2123 1067.65 89.0244 1065.2 89.7868C1062.78 90.516 1060.28 90.8806 1057.69 90.8806C1050.77 90.8806 1044.78 88.3449 1039.74 83.2734C1034.74 78.1687 1032.24 72.053 1032.24 64.9264C1032.24 58.0649 1034.67 52.1979 1039.55 47.3252C1044.45 42.4195 1050.32 39.9666 1057.15 39.9666C1064.01 39.9666 1069.71 42.2537 1074.25 46.828C1078.82 51.3692 1081.11 57.0705 1081.11 63.932L1080.56 69.0035ZM1057.15 48.6677C1053.47 48.6677 1050.37 49.7616 1047.85 51.9493C1045.36 54.1038 1043.69 56.9048 1042.83 60.3521H1071.12C1070.52 56.9048 1068.98 54.1038 1066.49 51.9493C1064.01 49.7616 1060.89 48.6677 1057.15 48.6677ZM1103.44 18.5866V89.8862H1093.29V18.5866H1103.44ZM1151.86 77.0085C1154.88 73.8596 1156.39 70.0145 1156.39 65.4733C1156.39 60.899 1154.88 57.0374 1151.86 53.8884C1148.85 50.7394 1145.27 49.1649 1141.12 49.1649C1136.98 49.1649 1133.38 50.7394 1130.34 53.8884C1127.32 57.0374 1125.81 60.899 1125.81 65.4733C1125.81 70.0145 1127.32 73.8596 1130.34 77.0085C1133.38 80.1575 1136.98 81.732 1141.12 81.732C1145.27 81.732 1148.85 80.1575 1151.86 77.0085ZM1123.23 83.3231C1118.19 78.2516 1115.67 72.3016 1115.67 65.4733C1115.67 58.6119 1118.19 52.6454 1123.23 47.5738C1128.3 42.5023 1134.26 39.9666 1141.12 39.9666C1147.99 39.9666 1153.94 42.5023 1158.97 47.5738C1164.05 52.6454 1166.58 58.6119 1166.58 65.4733C1166.58 72.3016 1164.05 78.2516 1158.97 83.3231C1153.94 88.3615 1147.99 90.8806 1141.12 90.8806C1134.26 90.8806 1128.3 88.3615 1123.23 83.3231ZM1203.72 90.8806C1201.9 90.8806 1200.13 90.6652 1198.4 90.2343C1196.68 89.8034 1195.2 89.273 1193.98 88.6432C1192.75 87.9803 1191.66 87.3173 1190.7 86.6544C1189.77 85.9583 1189.09 85.4114 1188.66 85.0136L1187.96 84.2678V111.266H1177.77V41.0107H1187.96V46.6292C1188.43 46.1651 1189.07 45.5519 1189.9 44.7895C1190.76 44.0271 1192.57 43.0327 1195.32 41.8062C1198.07 40.5798 1200.87 39.9666 1203.72 39.9666C1210.19 39.9666 1215.79 42.4526 1220.53 47.4247C1225.3 52.3636 1227.69 58.3633 1227.69 65.4236C1227.69 72.484 1225.3 78.5002 1220.53 83.4722C1215.79 88.4112 1210.19 90.8806 1203.72 90.8806ZM1213.02 53.9381C1210.04 50.756 1206.61 49.1649 1202.73 49.1649C1198.85 49.1649 1195.42 50.756 1192.44 53.9381C1189.45 57.1202 1187.96 60.9653 1187.96 65.4733C1187.96 69.9482 1189.45 73.7767 1192.44 76.9588C1195.42 80.141 1198.85 81.732 1202.73 81.732C1206.61 81.732 1210.04 80.141 1213.02 76.9588C1216 73.7767 1217.5 69.9482 1217.5 65.4733C1217.5 60.9653 1216 57.1202 1213.02 53.9381ZM1301.97 89.8862V61.3962C1301.97 57.3854 1301.04 54.3524 1299.19 52.2973C1297.36 50.209 1294.89 49.1649 1291.78 49.1649C1288.6 49.1649 1285.93 50.4411 1283.77 52.9934C1281.65 55.5126 1280.59 58.9931 1280.59 63.4348V89.8862H1270.4V61.3962C1270.4 57.3854 1269.47 54.3524 1267.61 52.2973C1265.79 50.209 1263.32 49.1649 1260.21 49.1649C1257.02 49.1649 1254.36 50.4411 1252.2 52.9934C1250.08 55.5126 1249.02 58.9931 1249.02 63.4348V89.8862H1238.83V41.0107H1249.02V46.0822C1249.42 45.6182 1249.96 45.0547 1250.66 44.3917C1251.39 43.6956 1252.88 42.7841 1255.13 41.6571C1257.42 40.5301 1259.79 39.9666 1262.24 39.9666C1264.2 39.9666 1266.06 40.2483 1267.81 40.8118C1269.6 41.3422 1271.03 42.0217 1272.09 42.8504C1273.15 43.6459 1274.06 44.458 1274.82 45.2867C1275.62 46.1154 1276.18 46.7949 1276.51 47.3252L1277.01 48.1208C1277.14 47.9219 1277.36 47.6401 1277.66 47.2755C1277.99 46.9109 1278.67 46.248 1279.7 45.2867C1280.76 44.3254 1281.88 43.4967 1283.08 42.8007C1284.27 42.0714 1285.83 41.425 1287.75 40.8615C1289.71 40.2649 1291.73 39.9666 1293.82 39.9666C1299.52 39.9666 1303.99 41.7897 1307.24 45.4359C1310.52 49.082 1312.16 54.4022 1312.16 61.3962V89.8862H1301.97ZM1371.73 69.0035H1333.54C1334.07 72.4508 1335.76 75.4341 1338.62 77.9532C1341.5 80.4724 1344.91 81.732 1348.86 81.732C1351.71 81.732 1354.36 81.0857 1356.81 79.7929C1359.3 78.5002 1361.06 77.2406 1362.08 76.0141L1363.63 74.1247L1370.24 80.7376C1370.04 81.0028 1369.72 81.384 1369.29 81.8812C1368.9 82.3452 1368.02 83.1574 1366.66 84.3175C1365.3 85.4445 1363.86 86.4555 1362.33 87.3505C1360.81 88.2123 1358.82 89.0244 1356.37 89.7868C1353.95 90.516 1351.44 90.8806 1348.86 90.8806C1341.93 90.8806 1335.95 88.3449 1330.91 83.2734C1325.9 78.1687 1323.4 72.053 1323.4 64.9264C1323.4 58.0649 1325.84 52.1979 1330.71 47.3252C1335.62 42.4195 1341.48 39.9666 1348.31 39.9666C1355.17 39.9666 1360.87 42.2537 1365.41 46.828C1369.99 51.3692 1372.28 57.0705 1372.28 63.932L1371.73 69.0035ZM1348.31 48.6677C1344.63 48.6677 1341.53 49.7616 1339.01 51.9493C1336.53 54.1038 1334.85 56.9048 1333.99 60.3521H1362.28C1361.69 56.9048 1360.14 54.1038 1357.66 51.9493C1355.17 49.7616 1352.06 48.6677 1348.31 48.6677ZM1393.61 41.0107V46.0822L1394.25 45.4359C1394.55 45.1375 1395.18 44.6569 1396.14 43.994C1397.1 43.2979 1398.11 42.6846 1399.18 42.1543C1400.27 41.5908 1401.64 41.0936 1403.3 40.6627C1404.99 40.1986 1406.68 39.9666 1408.37 39.9666C1414.27 39.9666 1419.05 41.9057 1422.69 45.7839C1426.37 49.6621 1428.21 54.8662 1428.21 61.3962V89.8862H1418.02V61.3962C1418.02 57.8826 1416.89 54.9657 1414.64 52.6454C1412.42 50.3251 1409.65 49.1649 1406.34 49.1649C1402.46 49.1649 1399.36 50.4245 1397.04 52.9437C1394.75 55.4297 1393.61 58.9268 1393.61 63.4348V89.8862H1383.41V41.0107H1393.61ZM1448.6 34.895V24.7023H1457.75V41.0107H1467.94V50.1593H1457.75V75.5169C1457.75 77.34 1458.33 78.8316 1459.49 79.9918C1460.65 81.1519 1462.11 81.732 1463.86 81.732C1464.62 81.732 1465.42 81.6492 1466.25 81.4834C1467.11 81.3177 1467.77 81.1354 1468.24 80.9365L1468.98 80.7376V89.8862C1466.96 90.5492 1464.57 90.8806 1461.82 90.8806C1452.31 90.8806 1447.57 85.7926 1447.6 75.6164V50.1593H1438.41V41.0107H1443.53C1446.91 41.0107 1448.6 38.9722 1448.6 34.895ZM494.208 178.661C494.406 179.058 494.721 179.539 495.152 180.102C495.616 180.633 496.445 181.379 497.638 182.34C498.865 183.268 500.091 183.732 501.318 183.732C501.649 183.732 501.964 183.682 502.262 183.583C502.594 183.483 502.859 183.401 503.058 183.334C503.257 183.268 503.356 183.202 503.356 183.135V192.383C501.997 192.715 500.638 192.881 499.279 192.881C497.191 192.881 495.152 192.301 493.163 191.14C491.208 189.947 489.782 188.77 488.887 187.61L487.595 185.771C487.131 186.301 486.418 186.964 485.457 187.759C484.495 188.555 482.473 189.616 479.391 190.942C476.308 192.234 473.093 192.881 469.745 192.881C463.347 192.881 458.177 191.19 454.232 187.809C450.321 184.428 448.365 180.351 448.365 175.578C448.365 173.125 448.829 170.722 449.757 168.368C450.685 165.982 451.779 163.976 453.039 162.352C454.331 160.728 455.624 159.269 456.917 157.977C458.21 156.684 459.304 155.739 460.198 155.143L461.64 154.198C460.878 153.435 459.933 152.425 458.806 151.165C457.679 149.872 456.171 147.618 454.282 144.403C452.392 141.154 451.448 138.32 451.448 135.901C451.448 131.293 453.072 127.432 456.32 124.316C459.569 121.167 463.712 119.592 468.75 119.592C473.723 119.592 477.849 121.1 481.131 124.117C484.413 127.133 486.053 130.713 486.053 134.856C486.053 137.84 485.026 140.956 482.971 144.204C480.949 147.419 478.927 149.872 476.905 151.563L473.822 154.198L487.595 171.004C489.981 167.258 491.175 162.684 491.175 157.281H500.323C500.323 160.894 499.809 164.474 498.782 168.02C497.754 171.567 496.743 174.235 495.749 176.025L494.208 178.661ZM469.745 183.732C471.833 183.732 473.905 183.367 475.96 182.638C478.015 181.876 479.556 181.097 480.584 180.301L481.976 179.158L467.209 160.811C466.546 161.275 465.734 161.954 464.773 162.849C463.812 163.744 462.535 165.402 460.944 167.821C459.353 170.208 458.558 172.462 458.558 174.583C458.558 177.434 459.486 179.671 461.342 181.296C463.198 182.92 465.999 183.732 469.745 183.732ZM476.407 135.901C476.407 133.879 475.695 132.188 474.269 130.829C472.844 129.437 471.004 128.741 468.75 128.741C466.496 128.741 464.657 129.42 463.231 130.779C461.806 132.138 461.093 133.846 461.093 135.901C461.093 137.392 461.723 139.116 462.983 141.072C464.242 143.027 465.519 144.618 466.811 145.845L468.75 147.585C469.281 147.121 469.977 146.475 470.839 145.646C471.701 144.784 472.844 143.326 474.269 141.27C475.695 139.182 476.407 137.392 476.407 135.901ZM564.463 148.629L557.85 155.242C557.585 154.977 557.187 154.612 556.657 154.148C556.16 153.651 555.099 153.038 553.475 152.308C551.884 151.546 550.276 151.165 548.652 151.165C546.464 151.165 544.724 151.679 543.431 152.706C542.171 153.701 541.542 154.877 541.542 156.236C541.542 157.662 542.155 158.855 543.381 159.816C544.608 160.778 546.149 161.507 548.005 162.004C549.862 162.501 551.85 163.131 553.972 163.893C556.126 164.623 558.132 165.451 559.988 166.379C561.877 167.308 563.435 168.733 564.662 170.655C565.888 172.578 566.502 174.898 566.502 177.616C566.502 181.826 564.794 185.423 561.38 188.406C557.999 191.389 553.591 192.881 548.155 192.881C545.768 192.881 543.481 192.582 541.293 191.986C539.139 191.389 537.365 190.676 535.973 189.848C534.581 189.019 533.354 188.19 532.294 187.362C531.266 186.5 530.52 185.771 530.056 185.174L529.31 184.229L535.923 177.616C536.255 178.08 536.735 178.661 537.365 179.357C538.028 180.053 539.42 180.964 541.542 182.091C543.696 183.185 545.901 183.732 548.155 183.732C550.873 183.732 552.911 183.185 554.27 182.091C555.629 180.964 556.309 179.473 556.309 177.616C556.309 176.191 555.696 175.014 554.469 174.086C553.243 173.125 551.701 172.396 549.845 171.898C547.989 171.368 545.983 170.738 543.829 170.009C541.707 169.247 539.702 168.418 537.813 167.523C535.956 166.595 534.415 165.17 533.189 163.247C531.962 161.291 531.349 158.955 531.349 156.236C531.349 152.491 532.99 149.176 536.271 146.292C539.586 143.408 543.713 141.967 548.652 141.967C550.607 141.967 552.497 142.199 554.32 142.663C556.176 143.094 557.684 143.641 558.845 144.303C560.005 144.933 561.016 145.596 561.877 146.292C562.772 146.955 563.419 147.486 563.817 147.883L564.463 148.629ZM616.869 191.886H606.676V186.815C606.543 186.947 606.311 187.163 605.98 187.461C605.682 187.759 605.052 188.257 604.09 188.953C603.162 189.616 602.151 190.229 601.057 190.792C599.964 191.323 598.588 191.803 596.931 192.234C595.273 192.665 593.599 192.881 591.909 192.881C586.937 192.881 582.81 191.439 579.528 188.555C576.247 185.671 574.606 182.373 574.606 178.661C574.606 174.65 575.866 171.285 578.385 168.567C580.937 165.849 584.418 164.125 588.826 163.396L606.676 160.314C606.676 157.728 605.715 155.557 603.792 153.8C601.903 152.043 599.466 151.165 596.483 151.165C593.898 151.165 591.544 151.712 589.423 152.806C587.335 153.866 585.893 154.944 585.097 156.038L583.755 157.778L577.142 151.165C577.341 150.9 577.606 150.568 577.937 150.17C578.302 149.74 579.081 149.01 580.274 147.983C581.501 146.922 582.793 145.977 584.152 145.149C585.511 144.32 587.301 143.591 589.522 142.961C591.776 142.298 594.097 141.967 596.483 141.967C602.45 141.967 607.339 143.74 611.151 147.287C614.963 150.8 616.869 155.143 616.869 160.314V191.886ZM593.45 183.732C597.594 183.732 600.825 182.506 603.146 180.053C605.499 177.567 606.676 174.036 606.676 169.462V168.468L590.865 171.004C589.042 171.335 587.567 172.081 586.44 173.241C585.313 174.401 584.749 175.86 584.749 177.616C584.749 179.241 585.528 180.666 587.086 181.892C588.677 183.119 590.798 183.732 593.45 183.732ZM642.326 120.587V191.886H632.183V120.587H642.326ZM702.886 171.004H664.7C665.23 174.451 666.921 177.434 669.772 179.953C672.655 182.472 676.07 183.732 680.014 183.732C682.865 183.732 685.516 183.086 687.969 181.793C690.455 180.5 692.212 179.241 693.24 178.014L694.781 176.125L701.394 182.738C701.195 183.003 700.88 183.384 700.449 183.881C700.052 184.345 699.173 185.157 697.814 186.318C696.455 187.445 695.013 188.455 693.488 189.35C691.964 190.212 689.975 191.024 687.522 191.787C685.102 192.516 682.6 192.881 680.014 192.881C673.086 192.881 667.103 190.345 662.065 185.273C657.06 180.169 654.557 174.053 654.557 166.926C654.557 160.065 656.993 154.198 661.866 149.325C666.772 144.419 672.639 141.967 679.467 141.967C686.329 141.967 692.03 144.254 696.571 148.828C701.145 153.369 703.433 159.071 703.433 165.932L702.886 171.004ZM679.467 150.668C675.788 150.668 672.689 151.762 670.169 153.949C667.683 156.104 666.009 158.905 665.148 162.352H693.439C692.842 158.905 691.301 156.104 688.815 153.949C686.329 151.762 683.213 150.668 679.467 150.668ZM745.646 148.629L739.033 155.242C738.767 154.977 738.37 154.612 737.839 154.148C737.342 153.651 736.281 153.038 734.657 152.308C733.066 151.546 731.459 151.165 729.834 151.165C727.647 151.165 725.906 151.679 724.614 152.706C723.354 153.701 722.724 154.877 722.724 156.236C722.724 157.662 723.337 158.855 724.564 159.816C725.79 160.778 727.332 161.507 729.188 162.004C731.044 162.501 733.033 163.131 735.154 163.893C737.309 164.623 739.314 165.451 741.171 166.379C743.06 167.308 744.618 168.733 745.844 170.655C747.071 172.578 747.684 174.898 747.684 177.616C747.684 181.826 745.977 185.423 742.563 188.406C739.182 191.389 734.773 192.881 729.337 192.881C726.95 192.881 724.663 192.582 722.476 191.986C720.321 191.389 718.548 190.676 717.155 189.848C715.763 189.019 714.537 188.19 713.476 187.362C712.449 186.5 711.703 185.771 711.239 185.174L710.493 184.229L717.106 177.616C717.437 178.08 717.918 178.661 718.548 179.357C719.211 180.053 720.603 180.964 722.724 182.091C724.879 183.185 727.083 183.732 729.337 183.732C732.055 183.732 734.094 183.185 735.453 182.091C736.812 180.964 737.491 179.473 737.491 177.616C737.491 176.191 736.878 175.014 735.652 174.086C734.425 173.125 732.884 172.396 731.028 171.898C729.171 171.368 727.166 170.738 725.011 170.009C722.89 169.247 720.885 168.418 718.995 167.523C717.139 166.595 715.598 165.17 714.371 163.247C713.145 161.291 712.531 158.955 712.531 156.236C712.531 152.491 714.172 149.176 717.454 146.292C720.769 143.408 724.895 141.967 729.834 141.967C731.79 141.967 733.679 142.199 735.502 142.663C737.359 143.094 738.867 143.641 740.027 144.303C741.187 144.933 742.198 145.596 743.06 146.292C743.955 146.955 744.601 147.486 744.999 147.883L745.646 148.629Z" fill="white"/>
<path fill-rule="evenodd" clip-rule="evenodd" d="M306.808 197.82C361.435 197.82 405.718 153.536 405.718 98.9099C405.718 44.2835 361.435 0 306.808 0C252.182 0 207.898 44.2835 207.898 98.9099C207.898 153.536 252.182 197.82 306.808 197.82ZM302.773 38.9564L307.605 30.5864L312.438 38.9564L367.075 133.591L371.907 141.961H362.242H252.968H243.303L248.135 133.591L302.773 38.9564ZM257.8 133.591L307.605 47.3264L357.41 133.591H257.8Z" fill="white"/>
</svg>
