<svg width="806" height="106" viewBox="0 0 806 106" fill="none" xmlns="http://www.w3.org/2000/svg">
<circle cx="45.1546" cy="45.2503" r="43.3532" stroke="black" stroke-width="3.60273"/>
<path d="M42.2678 72.714L69.6058 45.376M69.6058 45.376L42.2677 18.0379M69.6058 45.376L14.9297 45.376" stroke="black" stroke-width="3.59327"/>
<path d="M216.786 17.7105C219.737 17.7105 222.294 18.8455 224.458 21.1153C226.622 23.3701 227.704 26.1091 227.704 29.3323C227.704 32.5555 226.614 35.302 224.435 37.5719C222.271 39.8266 219.721 40.954 216.786 40.954C215.953 40.954 215.136 40.8556 214.334 40.6589C213.547 40.4622 212.874 40.22 212.314 39.9325C211.754 39.6299 211.255 39.3272 210.816 39.0246C210.392 38.7068 210.09 38.4571 209.908 38.2755L209.568 37.9351V40.5H204.937V7.95013H209.568V20.7522C209.779 20.5403 210.082 20.2604 210.475 19.9123C210.869 19.5643 211.694 19.1103 212.95 18.5504C214.206 17.9905 215.484 17.7105 216.786 17.7105ZM211.61 34.5983C212.987 36.0511 214.554 36.7774 216.309 36.7774C218.08 36.7774 219.646 36.0511 221.008 34.5983C222.37 33.1456 223.051 31.3978 223.051 29.355C223.051 27.2969 222.37 25.5416 221.008 24.0889C219.646 22.6362 218.08 21.9098 216.309 21.9098C214.554 21.9098 212.987 22.6362 211.61 24.0889C210.248 25.5416 209.568 27.2969 209.568 29.355C209.568 31.3978 210.248 33.1456 211.61 34.5983ZM248.632 40.5V38.1847L248.337 38.4798C248.201 38.616 247.913 38.843 247.474 39.1608C247.051 39.4634 246.589 39.7434 246.09 40.0006C245.59 40.2427 244.962 40.4622 244.206 40.6589C243.449 40.8556 242.677 40.954 241.89 40.954C239.197 40.954 237.01 40.0763 235.331 38.3209C233.666 36.5504 232.834 34.1746 232.834 31.1936V18.1872H237.487V31.1936C237.487 32.7976 237.994 34.1292 239.008 35.1885C240.037 36.2478 241.308 36.7774 242.821 36.7774C244.592 36.7774 245.999 36.21 247.043 35.075C248.102 33.925 248.632 32.3209 248.632 30.2629V18.1872H253.285V40.5H248.632ZM274.213 20.7522L271.194 23.7711C271.073 23.65 270.892 23.4836 270.65 23.2717C270.423 23.0447 269.938 22.7648 269.197 22.4319C268.471 22.0838 267.737 21.9098 266.995 21.9098C265.996 21.9098 265.202 22.1444 264.612 22.6135C264.037 23.0674 263.749 23.6046 263.749 24.2251C263.749 24.8758 264.029 25.4205 264.589 25.8594C265.149 26.2982 265.853 26.6311 266.7 26.8581C267.547 27.0851 268.455 27.3726 269.424 27.7207C270.407 28.0536 271.323 28.4319 272.17 28.8556C273.033 29.2793 273.744 29.93 274.304 30.8077C274.864 31.6854 275.144 32.7446 275.144 33.9855C275.144 35.9073 274.365 37.5492 272.806 38.9111C271.262 40.273 269.25 40.954 266.768 40.954C265.679 40.954 264.634 40.8178 263.636 40.5454C262.652 40.273 261.843 39.9477 261.207 39.5694C260.571 39.191 260.012 38.8127 259.527 38.4344C259.058 38.041 258.718 37.7081 258.506 37.4357L258.165 37.0044L261.184 33.9855C261.336 34.1973 261.555 34.4622 261.843 34.7799C262.145 35.0977 262.781 35.5139 263.749 36.0284C264.733 36.5277 265.739 36.7774 266.768 36.7774C268.009 36.7774 268.94 36.5277 269.56 36.0284C270.181 35.5139 270.491 34.8329 270.491 33.9855C270.491 33.3348 270.211 32.7976 269.651 32.3739C269.091 31.935 268.387 31.6021 267.54 31.3751C266.692 31.133 265.777 30.8455 264.793 30.5126C263.825 30.1645 262.909 29.7862 262.047 29.3777C261.199 28.9539 260.496 28.3033 259.936 27.4256C259.376 26.5328 259.096 25.4659 259.096 24.2251C259.096 22.5151 259.845 21.0019 261.343 19.6853C262.856 18.3688 264.74 17.7105 266.995 17.7105C267.888 17.7105 268.75 17.8165 269.583 18.0283C270.43 18.2251 271.119 18.4747 271.648 18.7774C272.178 19.0649 272.64 19.3675 273.033 19.6853C273.442 19.988 273.737 20.2301 273.918 20.4117L274.213 20.7522ZM285.109 18.1872V40.5H280.455V18.1872H285.109ZM284.791 9.22125C285.321 9.75089 285.585 10.4167 285.585 11.2187C285.585 12.0208 285.321 12.6866 284.791 13.2162C284.261 13.7458 283.595 14.0107 282.793 14.0107C281.991 14.0107 281.326 13.7458 280.796 13.2162C280.266 12.6866 280.001 12.0208 280.001 11.2187C280.001 10.4167 280.266 9.75089 280.796 9.22125C281.326 8.69161 281.991 8.4268 282.793 8.4268C283.595 8.4268 284.261 8.69161 284.791 9.22125ZM296.503 18.1872V20.5025L296.798 20.2074C296.935 20.0712 297.222 19.8518 297.661 19.5491C298.1 19.2314 298.561 18.9514 299.046 18.7093C299.545 18.452 300.173 18.2251 300.93 18.0283C301.701 17.8165 302.473 17.7105 303.245 17.7105C305.938 17.7105 308.118 18.5958 309.782 20.3663C311.462 22.1368 312.302 24.5126 312.302 27.4937V40.5H307.648V27.4937C307.648 25.8896 307.134 24.558 306.105 23.4987C305.091 22.4394 303.827 21.9098 302.314 21.9098C300.544 21.9098 299.129 22.4848 298.07 23.6349C297.025 24.7698 296.503 26.3663 296.503 28.4243V40.5H291.85V18.1872H296.503ZM339.495 30.9666H322.062C322.304 32.5403 323.076 33.9023 324.377 35.0523C325.694 36.2024 327.252 36.7774 329.053 36.7774C330.355 36.7774 331.565 36.4823 332.685 35.8922C333.82 35.302 334.622 34.727 335.091 34.1671L335.795 33.3045L338.814 36.3234C338.723 36.4445 338.579 36.6185 338.382 36.8455C338.201 37.0574 337.8 37.4281 337.179 37.9578C336.559 38.4723 335.901 38.9338 335.205 39.3424C334.509 39.7358 333.601 40.1066 332.481 40.4546C331.376 40.7875 330.234 40.954 329.053 40.954C325.891 40.954 323.159 39.7963 320.859 37.4811C318.574 35.1507 317.432 32.3587 317.432 29.1053C317.432 25.9729 318.544 23.2944 320.768 21.0699C323.008 18.8303 325.686 17.7105 328.804 17.7105C331.936 17.7105 334.539 18.7547 336.612 20.843C338.7 22.9161 339.744 25.5189 339.744 28.6513L339.495 30.9666ZM328.804 21.6828C327.124 21.6828 325.709 22.1822 324.559 23.1809C323.424 24.1645 322.66 25.4432 322.266 27.017H335.182C334.91 25.4432 334.206 24.1645 333.071 23.1809C331.936 22.1822 330.514 21.6828 328.804 21.6828ZM359.015 20.7522L355.997 23.7711C355.876 23.65 355.694 23.4836 355.452 23.2717C355.225 23.0447 354.741 22.7648 353.999 22.4319C353.273 22.0838 352.539 21.9098 351.797 21.9098C350.799 21.9098 350.004 22.1444 349.414 22.6135C348.839 23.0674 348.551 23.6046 348.551 24.2251C348.551 24.8758 348.831 25.4205 349.391 25.8594C349.951 26.2982 350.655 26.6311 351.502 26.8581C352.35 27.0851 353.258 27.3726 354.226 27.7207C355.21 28.0536 356.125 28.4319 356.973 28.8556C357.835 29.2793 358.546 29.93 359.106 30.8077C359.666 31.6854 359.946 32.7446 359.946 33.9855C359.946 35.9073 359.167 37.5492 357.608 38.9111C356.065 40.273 354.052 40.954 351.57 40.954C350.481 40.954 349.437 40.8178 348.438 40.5454C347.454 40.273 346.645 39.9477 346.009 39.5694C345.374 39.191 344.814 38.8127 344.329 38.4344C343.86 38.041 343.52 37.7081 343.308 37.4357L342.968 37.0044L345.986 33.9855C346.138 34.1973 346.357 34.4622 346.645 34.7799C346.947 35.0977 347.583 35.5139 348.551 36.0284C349.535 36.5277 350.541 36.7774 351.57 36.7774C352.811 36.7774 353.742 36.5277 354.362 36.0284C354.983 35.5139 355.293 34.8329 355.293 33.9855C355.293 33.3348 355.013 32.7976 354.453 32.3739C353.893 31.935 353.189 31.6021 352.342 31.3751C351.495 31.133 350.579 30.8455 349.596 30.5126C348.627 30.1645 347.712 29.7862 346.849 29.3777C346.002 28.9539 345.298 28.3033 344.738 27.4256C344.178 26.5328 343.898 25.4659 343.898 24.2251C343.898 22.5151 344.647 21.0019 346.145 19.6853C347.659 18.3688 349.543 17.7105 351.797 17.7105C352.69 17.7105 353.553 17.8165 354.385 18.0283C355.232 18.2251 355.921 18.4747 356.451 18.7774C356.98 19.0649 357.442 19.3675 357.835 19.6853C358.244 19.988 358.539 20.2301 358.72 20.4117L359.015 20.7522ZM379.217 20.7522L376.198 23.7711C376.077 23.65 375.896 23.4836 375.654 23.2717C375.427 23.0447 374.942 22.7648 374.201 22.4319C373.475 22.0838 372.741 21.9098 371.999 21.9098C371 21.9098 370.206 22.1444 369.616 22.6135C369.041 23.0674 368.753 23.6046 368.753 24.2251C368.753 24.8758 369.033 25.4205 369.593 25.8594C370.153 26.2982 370.857 26.6311 371.704 26.8581C372.551 27.0851 373.459 27.3726 374.428 27.7207C375.411 28.0536 376.327 28.4319 377.174 28.8556C378.037 29.2793 378.748 29.93 379.308 30.8077C379.868 31.6854 380.148 32.7446 380.148 33.9855C380.148 35.9073 379.369 37.5492 377.81 38.9111C376.266 40.273 374.254 40.954 371.772 40.954C370.683 40.954 369.638 40.8178 368.64 40.5454C367.656 40.273 366.847 39.9477 366.211 39.5694C365.575 39.191 365.015 38.8127 364.531 38.4344C364.062 38.041 363.722 37.7081 363.51 37.4357L363.169 37.0044L366.188 33.9855C366.34 34.1973 366.559 34.4622 366.847 34.7799C367.149 35.0977 367.785 35.5139 368.753 36.0284C369.737 36.5277 370.743 36.7774 371.772 36.7774C373.013 36.7774 373.944 36.5277 374.564 36.0284C375.184 35.5139 375.495 34.8329 375.495 33.9855C375.495 33.3348 375.215 32.7976 374.655 32.3739C374.095 31.935 373.391 31.6021 372.544 31.3751C371.696 31.133 370.781 30.8455 369.797 30.5126C368.829 30.1645 367.913 29.7862 367.051 29.3777C366.203 28.9539 365.5 28.3033 364.94 27.4256C364.38 26.5328 364.1 25.4659 364.1 24.2251C364.1 22.5151 364.849 21.0019 366.347 19.6853C367.86 18.3688 369.744 17.7105 371.999 17.7105C372.892 17.7105 373.754 17.8165 374.587 18.0283C375.434 18.2251 376.123 18.4747 376.652 18.7774C377.182 19.0649 377.644 19.3675 378.037 19.6853C378.446 19.988 378.741 20.2301 378.922 20.4117L379.217 20.7522ZM404.072 17.7105C404.905 17.7105 405.714 17.8165 406.501 18.0283C407.303 18.2251 407.976 18.4747 408.521 18.7774C409.081 19.0649 409.581 19.3675 410.019 19.6853C410.458 19.988 410.768 20.2301 410.95 20.4117L411.268 20.7522V7.95013H415.921V40.5H411.268V37.9351C411.056 38.1469 410.753 38.4269 410.36 38.7749C409.982 39.1229 409.164 39.5769 407.908 40.1368C406.652 40.6816 405.374 40.954 404.072 40.954C401.121 40.954 398.564 39.8266 396.4 37.5719C394.236 35.302 393.154 32.5555 393.154 29.3323C393.154 26.1091 394.236 23.3701 396.4 21.1153C398.564 18.8455 401.121 17.7105 404.072 17.7105ZM399.828 34.5983C401.205 36.0511 402.771 36.7774 404.526 36.7774C406.297 36.7774 407.863 36.0511 409.225 34.5983C410.587 33.1456 411.268 31.3978 411.268 29.355C411.268 27.2969 410.587 25.5416 409.225 24.0889C407.863 22.6362 406.297 21.9098 404.526 21.9098C402.771 21.9098 401.205 22.6362 399.828 24.0889C398.466 25.5416 397.785 27.2969 397.785 29.355C397.785 31.3978 398.466 33.1456 399.828 34.5983ZM443.591 30.9666H426.158C426.4 32.5403 427.172 33.9023 428.473 35.0523C429.79 36.2024 431.349 36.7774 433.149 36.7774C434.451 36.7774 435.661 36.4823 436.781 35.8922C437.916 35.302 438.718 34.727 439.187 34.1671L439.891 33.3045L442.91 36.3234C442.819 36.4445 442.675 36.6185 442.478 36.8455C442.297 37.0574 441.896 37.4281 441.275 37.9578C440.655 38.4723 439.997 38.9338 439.301 39.3424C438.605 39.7358 437.697 40.1066 436.577 40.4546C435.472 40.7875 434.33 40.954 433.149 40.954C429.987 40.954 427.255 39.7963 424.955 37.4811C422.67 35.1507 421.528 32.3587 421.528 29.1053C421.528 25.9729 422.64 23.2944 424.864 21.0699C427.104 18.8303 429.782 17.7105 432.9 17.7105C436.032 17.7105 438.635 18.7547 440.708 20.843C442.796 22.9161 443.84 25.5189 443.84 28.6513L443.591 30.9666ZM432.9 21.6828C431.22 21.6828 429.805 22.1822 428.655 23.1809C427.52 24.1645 426.756 25.4432 426.362 27.017H439.278C439.006 25.4432 438.302 24.1645 437.167 23.1809C436.032 22.1822 434.61 21.6828 432.9 21.6828ZM459.843 40.5H455.212L446.133 18.1872H451.013L457.528 34.4622L464.042 18.1872H468.922L459.843 40.5ZM493.301 30.9666H475.868C476.11 32.5403 476.882 33.9023 478.183 35.0523C479.5 36.2024 481.059 36.7774 482.859 36.7774C484.161 36.7774 485.371 36.4823 486.491 35.8922C487.626 35.302 488.428 34.727 488.897 34.1671L489.601 33.3045L492.62 36.3234C492.529 36.4445 492.385 36.6185 492.188 36.8455C492.007 37.0574 491.606 37.4281 490.985 37.9578C490.365 38.4723 489.707 38.9338 489.011 39.3424C488.315 39.7358 487.407 40.1066 486.287 40.4546C485.182 40.7875 484.04 40.954 482.859 40.954C479.697 40.954 476.965 39.7963 474.665 37.4811C472.38 35.1507 471.238 32.3587 471.238 29.1053C471.238 25.9729 472.35 23.2944 474.574 21.0699C476.814 18.8303 479.492 17.7105 482.61 17.7105C485.742 17.7105 488.345 18.7547 490.418 20.843C492.506 22.9161 493.55 25.5189 493.55 28.6513L493.301 30.9666ZM482.61 21.6828C480.93 21.6828 479.515 22.1822 478.365 23.1809C477.23 24.1645 476.466 25.4432 476.072 27.017H488.988C488.716 25.4432 488.012 24.1645 486.877 23.1809C485.742 22.1822 484.32 21.6828 482.61 21.6828ZM503.742 7.95013V40.5H499.112V7.95013H503.742ZM525.851 34.621C527.228 33.1835 527.916 31.4281 527.916 29.355C527.916 27.2667 527.228 25.5038 525.851 24.0662C524.474 22.6286 522.839 21.9098 520.948 21.9098C519.056 21.9098 517.414 22.6286 516.022 24.0662C514.645 25.5038 513.957 27.2667 513.957 29.355C513.957 31.4281 514.645 33.1835 516.022 34.621C517.414 36.0586 519.056 36.7774 520.948 36.7774C522.839 36.7774 524.474 36.0586 525.851 34.621ZM512.776 37.5038C510.476 35.1885 509.326 32.4722 509.326 29.355C509.326 26.2225 510.476 23.4987 512.776 21.1834C515.091 18.8682 517.815 17.7105 520.948 17.7105C524.08 17.7105 526.796 18.8682 529.097 21.1834C531.412 23.4987 532.569 26.2225 532.569 29.355C532.569 32.4722 531.412 35.1885 529.097 37.5038C526.796 39.8039 524.08 40.954 520.948 40.954C517.815 40.954 515.091 39.8039 512.776 37.5038ZM549.525 40.954C548.693 40.954 547.883 40.8556 547.097 40.6589C546.31 40.4622 545.636 40.22 545.076 39.9325C544.516 39.6299 544.017 39.3272 543.578 39.0246C543.155 38.7068 542.844 38.4571 542.648 38.2755L542.33 37.9351V50.2604H537.677V18.1872H542.33V20.7522C542.542 20.5403 542.837 20.2604 543.215 19.9123C543.609 19.5643 544.433 19.1103 545.689 18.5504C546.945 17.9905 548.224 17.7105 549.525 17.7105C552.476 17.7105 555.034 18.8455 557.197 21.1153C559.377 23.3701 560.466 26.1091 560.466 29.3323C560.466 32.5555 559.377 35.302 557.197 37.5719C555.034 39.8266 552.476 40.954 549.525 40.954ZM553.77 24.0889C552.408 22.6362 550.842 21.9098 549.071 21.9098C547.301 21.9098 545.735 22.6362 544.373 24.0889C543.011 25.5416 542.33 27.2969 542.33 29.355C542.33 31.3978 543.011 33.1456 544.373 34.5983C545.735 36.0511 547.301 36.7774 549.071 36.7774C550.842 36.7774 552.408 36.0511 553.77 34.5983C555.132 33.1456 555.813 31.3978 555.813 29.355C555.813 27.2969 555.132 25.5416 553.77 24.0889ZM594.378 40.5V27.4937C594.378 25.6626 593.954 24.278 593.107 23.3398C592.274 22.3865 591.147 21.9098 589.725 21.9098C588.272 21.9098 587.054 22.4924 586.07 23.6576C585.102 24.8077 584.617 26.3966 584.617 28.4243V40.5H579.964V27.4937C579.964 25.6626 579.541 24.278 578.693 23.3398C577.861 22.3865 576.733 21.9098 575.311 21.9098C573.858 21.9098 572.64 22.4924 571.657 23.6576C570.688 24.8077 570.204 26.3966 570.204 28.4243V40.5H565.551V18.1872H570.204V20.5025C570.385 20.2906 570.635 20.0334 570.953 19.7307C571.286 19.4129 571.967 18.9968 572.996 18.4823C574.04 17.9678 575.122 17.7105 576.242 17.7105C577.134 17.7105 577.982 17.8392 578.784 18.0964C579.601 18.3385 580.252 18.6488 580.736 19.0271C581.22 19.3902 581.636 19.761 581.984 20.1393C582.348 20.5176 582.605 20.8278 582.756 21.0699L582.983 21.4331C583.044 21.3423 583.142 21.2137 583.278 21.0473C583.43 20.8808 583.74 20.5781 584.209 20.1393C584.693 19.7005 585.208 19.3222 585.752 19.0044C586.297 18.6715 587.008 18.3764 587.886 18.1191C588.779 17.8467 589.702 17.7105 590.655 17.7105C593.258 17.7105 595.301 18.5428 596.784 20.2074C598.282 21.872 599.031 24.3007 599.031 27.4937V40.5H594.378ZM626.224 30.9666H608.792C609.034 32.5403 609.805 33.9023 611.107 35.0523C612.423 36.2024 613.982 36.7774 615.783 36.7774C617.084 36.7774 618.295 36.4823 619.414 35.8922C620.549 35.302 621.351 34.727 621.821 34.1671L622.524 33.3045L625.543 36.3234C625.452 36.4445 625.309 36.6185 625.112 36.8455C624.93 37.0574 624.529 37.4281 623.909 37.9578C623.288 38.4723 622.63 38.9338 621.934 39.3424C621.238 39.7358 620.33 40.1066 619.21 40.4546C618.106 40.7875 616.963 40.954 615.783 40.954C612.62 40.954 609.889 39.7963 607.588 37.4811C605.303 35.1507 604.161 32.3587 604.161 29.1053C604.161 25.9729 605.273 23.2944 607.498 21.0699C609.737 18.8303 612.416 17.7105 615.533 17.7105C618.665 17.7105 621.268 18.7547 623.341 20.843C625.43 22.9161 626.474 25.5189 626.474 28.6513L626.224 30.9666ZM615.533 21.6828C613.853 21.6828 612.438 22.1822 611.288 23.1809C610.153 24.1645 609.389 25.4432 608.996 27.017H621.911C621.639 25.4432 620.935 24.1645 619.8 23.1809C618.665 22.1822 617.243 21.6828 615.533 21.6828ZM636.211 18.1872V20.5025L636.507 20.2074C636.643 20.0712 636.93 19.8518 637.369 19.5491C637.808 19.2314 638.269 18.9514 638.754 18.7093C639.253 18.452 639.881 18.2251 640.638 18.0283C641.409 17.8165 642.181 17.7105 642.953 17.7105C645.647 17.7105 647.826 18.5958 649.49 20.3663C651.17 22.1368 652.01 24.5126 652.01 27.4937V40.5H647.357V27.4937C647.357 25.8896 646.842 24.558 645.813 23.4987C644.799 22.4394 643.536 21.9098 642.022 21.9098C640.252 21.9098 638.837 22.4848 637.778 23.6349C636.734 24.7698 636.211 26.3663 636.211 28.4243V40.5H631.558V18.1872H636.211ZM661.316 15.3953V10.7421H665.493V18.1872H670.146V22.3638H665.493V33.9401C665.493 34.7724 665.758 35.4533 666.287 35.983C666.817 36.5126 667.483 36.7774 668.285 36.7774C668.633 36.7774 668.996 36.7396 669.374 36.6639C669.768 36.5883 670.07 36.505 670.282 36.4142L670.623 36.3234V40.5C669.7 40.8026 668.61 40.954 667.354 40.954C663.011 40.954 660.847 38.6311 660.862 33.9855V22.3638H656.663V18.1872H659.001C660.544 18.1872 661.316 17.2566 661.316 15.3953ZM225.615 80.4622C225.706 80.6437 225.85 80.8632 226.047 81.1204C226.259 81.3625 226.637 81.703 227.182 82.1419C227.742 82.5656 228.301 82.7774 228.861 82.7774C229.013 82.7774 229.156 82.7547 229.293 82.7093C229.444 82.6639 229.565 82.6261 229.656 82.5958C229.747 82.5656 229.792 82.5353 229.792 82.505V86.727C229.172 86.8783 228.551 86.954 227.931 86.954C226.977 86.954 226.047 86.6892 225.139 86.1595C224.246 85.6148 223.595 85.0776 223.187 84.5479L222.597 83.7081C222.385 83.9502 222.059 84.2528 221.621 84.616C221.182 84.9792 220.259 85.4634 218.851 86.0687C217.444 86.6589 215.976 86.954 214.448 86.954C211.527 86.954 209.167 86.1822 207.366 84.6387C205.58 83.0952 204.687 81.2339 204.687 79.0548C204.687 77.935 204.899 76.8379 205.323 75.7635C205.747 74.674 206.246 73.7585 206.821 73.017C207.411 72.2755 208.001 71.6097 208.591 71.0195C209.182 70.4294 209.681 69.9981 210.09 69.7257L210.748 69.2944C210.4 68.9464 209.969 68.4848 209.454 67.9098C208.94 67.3196 208.251 66.2906 207.388 64.8228C206.526 63.3398 206.095 62.046 206.095 60.9413C206.095 58.8379 206.836 57.075 208.319 55.6525C209.802 54.2149 211.694 53.4962 213.994 53.4962C216.264 53.4962 218.148 54.1847 219.646 55.5617C221.144 56.9388 221.893 58.5731 221.893 60.4646C221.893 61.8266 221.424 63.249 220.486 64.732C219.563 66.1998 218.639 67.3196 217.716 68.0914L216.309 69.2944L222.597 76.9666C223.686 75.2566 224.231 73.1683 224.231 70.7017H228.407C228.407 72.3512 228.173 73.9855 227.704 75.6046C227.235 77.2238 226.773 78.442 226.319 79.2591L225.615 80.4622ZM214.448 82.7774C215.401 82.7774 216.347 82.611 217.285 82.278C218.223 81.93 218.927 81.5744 219.396 81.2112L220.032 80.6891L213.29 72.3133C212.987 72.5252 212.617 72.8354 212.178 73.244C211.739 73.6526 211.156 74.4092 210.43 75.5138C209.704 76.6034 209.341 77.6324 209.341 78.6009C209.341 79.9023 209.764 80.9237 210.612 81.6652C211.459 82.4067 212.738 82.7774 214.448 82.7774ZM217.489 60.9413C217.489 60.0182 217.164 59.2465 216.513 58.626C215.863 57.9905 215.023 57.6727 213.994 57.6727C212.965 57.6727 212.125 57.9829 211.474 58.6033C210.824 59.2238 210.498 60.0031 210.498 60.9413C210.498 61.6223 210.786 62.4092 211.361 63.302C211.936 64.1948 212.518 64.9211 213.109 65.481L213.994 66.2755C214.236 66.0636 214.554 65.7686 214.947 65.3902C215.341 64.9968 215.863 64.331 216.513 63.3928C217.164 62.4394 217.489 61.6223 217.489 60.9413ZM257.689 66.7522L254.67 69.7711C254.549 69.65 254.367 69.4836 254.125 69.2717C253.898 69.0447 253.414 68.7648 252.672 68.4319C251.946 68.0838 251.212 67.9098 250.471 67.9098C249.472 67.9098 248.677 68.1444 248.087 68.6135C247.512 69.0674 247.225 69.6046 247.225 70.2251C247.225 70.8758 247.505 71.4205 248.064 71.8594C248.624 72.2982 249.328 72.6311 250.175 72.8581C251.023 73.0851 251.931 73.3726 252.899 73.7207C253.883 74.0536 254.798 74.4319 255.646 74.8556C256.508 75.2793 257.22 75.93 257.779 76.8077C258.339 77.6854 258.619 78.7446 258.619 79.9855C258.619 81.9073 257.84 83.5492 256.281 84.9111C254.738 86.273 252.725 86.954 250.244 86.954C249.154 86.954 248.11 86.8178 247.111 86.5454C246.127 86.273 245.318 85.9477 244.682 85.5694C244.047 85.191 243.487 84.8127 243.003 84.4344C242.534 84.041 242.193 83.7081 241.981 83.4357L241.641 83.0044L244.66 79.9855C244.811 80.1973 245.03 80.4622 245.318 80.7799C245.621 81.0977 246.256 81.5139 247.225 82.0284C248.208 82.5277 249.215 82.7774 250.244 82.7774C251.484 82.7774 252.415 82.5277 253.035 82.0284C253.656 81.5139 253.966 80.8329 253.966 79.9855C253.966 79.3348 253.686 78.7976 253.126 78.3739C252.566 77.935 251.863 77.6021 251.015 77.3751C250.168 77.133 249.252 76.8455 248.269 76.5126C247.3 76.1645 246.385 75.7862 245.522 75.3777C244.675 74.9539 243.971 74.3033 243.411 73.4256C242.851 72.5328 242.571 71.4659 242.571 70.2251C242.571 68.5151 243.32 67.0019 244.819 65.6853C246.332 64.3688 248.216 63.7105 250.471 63.7105C251.363 63.7105 252.226 63.8165 253.058 64.0283C253.906 64.2251 254.594 64.4747 255.124 64.7774C255.653 65.0649 256.115 65.3675 256.508 65.6853C256.917 65.988 257.212 66.2301 257.394 66.4117L257.689 66.7522ZM281.613 86.5H276.96V84.1847C276.899 84.2453 276.793 84.3436 276.642 84.4798C276.506 84.616 276.218 84.843 275.78 85.1608C275.356 85.4634 274.894 85.7434 274.395 86.0006C273.896 86.2427 273.268 86.4622 272.511 86.6589C271.754 86.8556 270.99 86.954 270.218 86.954C267.948 86.954 266.064 86.2957 264.566 84.9792C263.068 83.6627 262.319 82.157 262.319 80.4622C262.319 78.6311 262.894 77.0952 264.044 75.8543C265.21 74.6135 266.798 73.8266 268.811 73.4937L276.96 72.0864C276.96 70.906 276.521 69.9148 275.643 69.1128C274.781 68.3108 273.669 67.9098 272.307 67.9098C271.126 67.9098 270.052 68.1595 269.083 68.6589C268.13 69.1431 267.472 69.6349 267.109 70.1343L266.496 70.9287L263.477 67.9098C263.568 67.7887 263.689 67.6374 263.84 67.4558C264.006 67.2591 264.362 66.9262 264.907 66.4571C265.467 65.9728 266.057 65.5416 266.677 65.1633C267.298 64.785 268.115 64.452 269.129 64.1645C270.158 63.8619 271.217 63.7105 272.307 63.7105C275.03 63.7105 277.262 64.5201 279.003 66.1393C280.743 67.7433 281.613 69.7257 281.613 72.0864V86.5ZM270.922 82.7774C272.814 82.7774 274.289 82.2175 275.348 81.0977C276.423 79.9628 276.96 78.3512 276.96 76.2629V75.8089L269.742 76.9666C268.909 77.1179 268.236 77.4584 267.721 77.988C267.207 78.5176 266.95 79.1835 266.95 79.9855C266.95 80.727 267.305 81.3777 268.017 81.9376C268.743 82.4975 269.711 82.7774 270.922 82.7774ZM293.235 53.9501V86.5H288.604V53.9501H293.235ZM320.882 76.9666H303.449C303.691 78.5403 304.463 79.9023 305.764 81.0523C307.081 82.2024 308.64 82.7774 310.44 82.7774C311.742 82.7774 312.952 82.4823 314.072 81.8922C315.207 81.302 316.009 80.727 316.478 80.1671L317.182 79.3045L320.201 82.3234C320.11 82.4445 319.966 82.6185 319.77 82.8455C319.588 83.0574 319.187 83.4281 318.566 83.9578C317.946 84.4723 317.288 84.9338 316.592 85.3424C315.896 85.7358 314.988 86.1066 313.868 86.4546C312.763 86.7875 311.621 86.954 310.44 86.954C307.278 86.954 304.546 85.7963 302.246 83.4811C299.961 81.1507 298.819 78.3587 298.819 75.1053C298.819 71.9729 299.931 69.2944 302.155 67.0699C304.395 64.8303 307.073 63.7105 310.191 63.7105C313.323 63.7105 315.926 64.7547 317.999 66.843C320.087 68.9161 321.131 71.5189 321.131 74.6513L320.882 76.9666ZM310.191 67.6828C308.511 67.6828 307.096 68.1822 305.946 69.1809C304.811 70.1645 304.047 71.4432 303.653 73.017H316.569C316.297 71.4432 315.593 70.1645 314.458 69.1809C313.323 68.1822 311.901 67.6828 310.191 67.6828ZM340.403 66.7522L337.384 69.7711C337.263 69.65 337.081 69.4836 336.839 69.2717C336.612 69.0447 336.128 68.7648 335.386 68.4319C334.66 68.0838 333.926 67.9098 333.184 67.9098C332.186 67.9098 331.391 68.1444 330.801 68.6135C330.226 69.0674 329.939 69.6046 329.939 70.2251C329.939 70.8758 330.218 71.4205 330.778 71.8594C331.338 72.2982 332.042 72.6311 332.889 72.8581C333.737 73.0851 334.645 73.3726 335.613 73.7207C336.597 74.0536 337.512 74.4319 338.36 74.8556C339.222 75.2793 339.933 75.93 340.493 76.8077C341.053 77.6854 341.333 78.7446 341.333 79.9855C341.333 81.9073 340.554 83.5492 338.995 84.9111C337.452 86.273 335.439 86.954 332.957 86.954C331.868 86.954 330.824 86.8178 329.825 86.5454C328.841 86.273 328.032 85.9477 327.396 85.5694C326.761 85.191 326.201 84.8127 325.717 84.4344C325.247 84.041 324.907 83.7081 324.695 83.4357L324.355 83.0044L327.374 79.9855C327.525 80.1973 327.744 80.4622 328.032 80.7799C328.334 81.0977 328.97 81.5139 329.939 82.0284C330.922 82.5277 331.928 82.7774 332.957 82.7774C334.198 82.7774 335.129 82.5277 335.749 82.0284C336.37 81.5139 336.68 80.8329 336.68 79.9855C336.68 79.3348 336.4 78.7976 335.84 78.3739C335.28 77.935 334.577 77.6021 333.729 77.3751C332.882 77.133 331.966 76.8455 330.983 76.5126C330.014 76.1645 329.099 75.7862 328.236 75.3777C327.389 74.9539 326.685 74.3033 326.125 73.4256C325.565 72.5328 325.285 71.4659 325.285 70.2251C325.285 68.5151 326.034 67.0019 327.532 65.6853C329.046 64.3688 330.93 63.7105 333.184 63.7105C334.077 63.7105 334.94 63.8165 335.772 64.0283C336.619 64.2251 337.308 64.4747 337.838 64.7774C338.367 65.0649 338.829 65.3675 339.222 65.6853C339.631 65.988 339.926 66.2301 340.108 66.4117L340.403 66.7522Z" fill="black"/>
<path fill-rule="evenodd" clip-rule="evenodd" d="M140.065 90.4049C165.003 90.4049 185.219 70.1885 185.219 45.2503C185.219 20.3121 165.003 0.0957031 140.065 0.0957031C115.127 0.0957031 94.9102 20.3121 94.9102 45.2503C94.9102 70.1885 115.127 90.4049 140.065 90.4049ZM138.222 17.8797L140.429 14.0586L142.635 17.8797L167.578 61.0825L169.784 64.9036H165.372H115.485H111.073L113.279 61.0825L138.222 17.8797ZM117.691 61.0825L140.429 21.7007L163.166 61.0825H117.691Z" fill="black"/>
</svg>
