<svg width="27" height="27" viewBox="0 0 27 27" fill="none" xmlns="http://www.w3.org/2000/svg">
<path d="M13.6059 26.5591C13.6025 25.651 13.6502 24.7463 13.691 23.8415C13.7318 22.8756 13.793 21.9062 13.9154 20.9437C14.0651 19.7634 14.293 18.6036 14.8576 17.5424C15.7623 15.8418 17.1909 14.8112 19.0343 14.318C20.0547 14.0459 21.1023 13.9235 22.1533 13.8452C23.5546 13.7364 24.9593 13.699 26.3641 13.6514C26.4763 13.648 26.4967 13.6854 26.4967 13.784C26.4967 15.4948 26.4933 17.2057 26.3845 18.9165C26.3063 20.1206 26.1736 21.3212 25.8165 22.481C25.6838 22.9164 25.5104 23.3314 25.2927 23.7327C24.7621 24.7089 23.9322 25.3177 22.9152 25.7122C22.0547 26.0456 21.1533 26.2156 20.2418 26.3245C18.7214 26.5047 17.1909 26.5285 15.6603 26.5421C15.5889 26.5421 15.514 26.5217 15.446 26.566C14.8304 26.5591 14.2182 26.5591 13.6059 26.5591Z" fill="white"/>
<path d="M11.463 26.5592C11.2215 26.5048 10.98 26.5354 10.7385 26.532C9.57525 26.5218 8.41542 26.4878 7.25899 26.3823C6.17399 26.2837 5.10259 26.117 4.06861 25.7463C2.60606 25.2259 1.65031 24.2259 1.15712 22.7566C0.851011 21.8383 0.684349 20.8927 0.585713 19.9335C0.436057 18.4982 0.408847 17.0527 0.398643 15.6071C0.395242 15.0119 0.395242 14.4167 0.385038 13.8215C0.381637 13.6752 0.425853 13.648 0.568706 13.6514C1.80336 13.6922 3.03802 13.7262 4.26928 13.8113C5.56516 13.8997 6.85764 14.0119 8.10591 14.3963C10.4732 15.1208 11.9629 16.6989 12.6092 19.0798C12.8949 20.124 13.0071 21.192 13.0922 22.2668C13.1976 23.6511 13.235 25.0388 13.2792 26.4266C13.2792 26.4708 13.269 26.515 13.2656 26.5592C12.667 26.5592 12.065 26.5592 11.463 26.5592Z" fill="white"/>
<path d="M13.2998 0.437136C13.259 0.559582 13.2692 0.682027 13.2658 0.807874C13.2284 2.28062 13.1808 3.75337 13.0515 5.22271C12.9427 6.42676 12.7862 7.624 12.3339 8.75663C11.5278 10.7838 10.038 12.049 7.95305 12.6409C7.0109 12.9096 6.04494 13.0354 5.07558 13.117C3.58583 13.2463 2.08927 13.2905 0.592714 13.3347C0.432855 13.3381 0.381836 13.3075 0.381836 13.1375C0.388638 11.5048 0.388638 9.87224 0.483874 8.24303C0.562103 6.95396 0.691351 5.66828 1.0927 4.42682C1.40902 3.45065 1.87499 2.56973 2.73211 1.9473C3.46678 1.4133 4.30009 1.12079 5.17422 0.920115C6.11636 0.705836 7.07212 0.607199 8.03468 0.549378C8.86458 0.498359 9.69789 0.471149 10.5312 0.467747C10.5822 0.467747 10.6332 0.471149 10.6775 0.437136C11.555 0.437136 12.4291 0.437136 13.2998 0.437136Z" fill="white"/>
<path d="M16.1907 0.437483C16.3676 0.495305 16.5513 0.464693 16.7281 0.468095C18.1567 0.495305 19.5818 0.549725 20.9933 0.781011C21.694 0.896654 22.3776 1.07012 23.0375 1.33202C24.3844 1.86601 25.2449 2.84898 25.7109 4.20608C26.0204 5.11082 26.187 6.04617 26.2857 6.99512C26.4965 9.04948 26.4795 11.114 26.4931 13.1752C26.4931 13.3249 26.4353 13.3351 26.3163 13.3317C24.6803 13.2841 23.0443 13.2398 21.4117 13.0766C20.3403 12.9711 19.2757 12.8079 18.2621 12.4201C16.1873 11.6242 14.8914 10.1209 14.2894 7.99849C14.0615 7.19579 13.9357 6.37269 13.8575 5.54278C13.6942 3.84555 13.6398 2.14152 13.6058 0.434082C14.4697 0.437483 15.3302 0.437483 16.1907 0.437483Z" fill="white"/>
</svg>
