<svg width="191" height="93" viewBox="0 0 191 93" fill="none" xmlns="http://www.w3.org/2000/svg">
<path fill-rule="evenodd" clip-rule="evenodd" d="M46.8087 90.3494C70.991 90.3494 90.5947 70.756 90.5947 46.5862C90.5947 22.4165 70.991 2.82307 46.8087 2.82307C22.6264 2.82307 3.0227 22.4165 3.0227 46.5862C3.0227 70.756 22.6264 90.3494 46.8087 90.3494ZM46.8087 92.9987C72.4549 92.9987 93.2453 72.2191 93.2453 46.5862C93.2453 20.9534 72.4549 0.173828 46.8087 0.173828C21.1625 0.173828 0.37207 20.9534 0.37207 46.5862C0.37207 72.2191 21.1625 92.9987 46.8087 92.9987Z" fill="white"/>
<path fill-rule="evenodd" clip-rule="evenodd" d="M15.7286 45.3878L68.7575 45.3878L42.9057 19.5495L44.78 17.6762L73.8314 46.7124L44.78 75.7486L42.9058 73.8753L68.7575 48.037L15.7286 48.037V45.3878Z" fill="white"/>
<path fill-rule="evenodd" clip-rule="evenodd" d="M143.729 93.0001C169.375 93.0001 190.165 72.2206 190.165 46.5877C190.165 20.9548 169.375 0.175293 143.729 0.175293C118.082 0.175293 97.292 20.9548 97.292 46.5877C97.292 72.2206 118.082 93.0001 143.729 93.0001ZM148.677 18.041H144.162L143.842 18.8796C143.629 19.3589 143.229 19.9713 142.643 20.7168C142.084 21.4623 141.365 22.2078 140.486 22.9533C139.607 23.6721 138.421 24.3244 136.929 24.9102C135.438 25.4693 133.759 25.7755 131.895 25.8287V29.503H142.523V75.3112H148.677V18.041Z" fill="white"/>
</svg>
