<svg width="1500" height="546" viewBox="0 0 1500 546" fill="none" xmlns="http://www.w3.org/2000/svg">
<path d="M21.8452 112.232C21.8452 122.976 25.5993 131.812 33.1076 138.737C40.6158 145.598 50.4543 149.029 62.6228 149.029V75.532C50.4543 75.532 40.6158 78.9948 33.1076 85.9206C25.5993 92.8463 21.8452 101.617 21.8452 112.232ZM117.284 112.232C117.284 101.617 113.53 92.8463 106.022 85.9206C98.5784 78.9948 88.74 75.532 76.5067 75.532V149.029C88.6752 149.029 98.5137 145.598 106.022 138.737C113.53 131.812 117.284 122.976 117.284 112.232ZM76.5067 161.942V201.749H62.6228V161.942C46.4412 161.942 33.2694 157.217 23.1073 147.767C13.01 138.317 7.96135 126.504 7.96135 112.329C7.96135 98.0891 13.01 86.2442 23.1073 76.7941C33.2694 67.2794 46.4412 62.522 62.6228 62.522V20.7734H76.5067V62.522C92.6883 62.522 105.86 67.2794 116.022 76.7941C126.184 86.2442 131.265 98.0891 131.265 112.329C131.265 126.504 126.184 138.317 116.022 147.767C105.86 157.217 92.6883 161.942 76.5067 161.942ZM293.988 86.6002C287.062 93.9143 283.599 102.491 283.599 112.329C283.599 122.103 287.062 130.679 293.988 138.058C300.978 145.372 308.778 149.029 317.386 149.029C325.606 149.029 332.953 145.469 339.426 138.349C345.963 131.164 349.232 122.491 349.232 112.329C349.232 102.102 345.963 93.4288 339.426 86.3089C332.953 79.1243 325.606 75.532 317.386 75.532C308.778 75.532 300.978 79.2214 293.988 86.6002ZM283.599 145.048V201.749H269.715V64.5608H283.599V79.5127C283.858 79.1243 284.311 78.5418 284.958 77.765C285.67 76.9236 287.062 75.532 289.133 73.5902C291.269 71.6484 293.567 69.9331 296.026 68.4444C298.486 66.891 301.625 65.5317 305.444 64.3667C309.328 63.1369 313.308 62.522 317.386 62.522C329.555 62.522 340.202 67.4088 349.329 77.1825C358.52 86.9562 363.115 98.6717 363.115 112.329C363.115 125.922 358.552 137.605 349.426 147.378C340.299 157.087 329.619 161.942 317.386 161.942C313.308 161.942 309.36 161.359 305.541 160.194C301.787 159.029 298.615 157.637 296.026 156.019C293.437 154.401 291.172 152.783 289.23 151.165C287.353 149.482 285.929 148.058 284.958 146.893L283.599 145.048ZM471.467 89.4158L436.612 133.203L401.854 89.4158V160H387.97V64.5608H398.844L436.612 112.232L474.38 64.5608H485.351V160H471.467V89.4158ZM588.849 64.5608H600.791V160H586.81V88.4449L529.139 160H517.294V64.5608H531.178V136.116L588.849 64.5608ZM656.909 86.6002C649.983 93.9143 646.52 102.491 646.52 112.329C646.52 122.103 649.983 130.679 656.909 138.058C663.899 145.372 671.699 149.029 680.307 149.029C688.528 149.029 695.874 145.469 702.347 138.349C708.884 131.164 712.153 122.491 712.153 112.329C712.153 102.102 708.884 93.4288 702.347 86.3089C695.874 79.1243 688.528 75.532 680.307 75.532C671.699 75.532 663.899 79.2214 656.909 86.6002ZM646.52 145.048V201.749H632.636V64.5608H646.52V79.5127C646.779 79.1243 647.232 78.5418 647.879 77.765C648.591 76.9236 649.983 75.532 652.054 73.5902C654.19 71.6484 656.488 69.9331 658.948 68.4444C661.407 66.891 664.547 65.5317 668.365 64.3667C672.249 63.1369 676.23 62.522 680.307 62.522C692.476 62.522 703.123 67.4088 712.25 77.1825C721.441 86.9562 726.037 98.6717 726.037 112.329C726.037 125.922 721.473 137.605 712.347 147.378C703.221 157.087 692.541 161.942 680.307 161.942C676.23 161.942 672.281 161.359 668.462 160.194C664.708 159.029 661.537 157.637 658.948 156.019C656.359 154.401 654.093 152.783 652.151 151.165C650.274 149.482 648.85 148.058 647.879 146.893L646.52 145.048ZM771.766 173.884L776.717 160L737.882 64.5608H752.833L783.708 142.135L814.485 64.5608H829.437L785.65 173.884C781.701 183.981 777.462 191.133 772.931 195.341C768.4 199.613 762.704 201.749 755.843 201.749C753.707 201.749 751.636 201.587 749.629 201.263C747.688 200.939 746.231 200.583 745.26 200.195L743.901 199.807V186.797C747.202 188.091 750.503 188.771 753.804 188.836C762.219 188.836 768.206 183.852 771.766 173.884ZM932.838 117.475L855.263 117.281C855.781 125.889 859.308 133.333 865.846 139.611C872.448 145.89 880.183 149.029 889.05 149.029C895.005 149.029 900.539 147.702 905.653 145.048C910.766 142.394 914.391 139.741 916.527 137.087L919.925 133.203L928.857 142.135C928.469 142.653 927.886 143.398 927.109 144.369C926.397 145.275 924.779 146.861 922.255 149.126C919.795 151.327 917.109 153.301 914.196 155.048C911.348 156.731 907.627 158.317 903.031 159.806C898.5 161.23 893.84 161.942 889.05 161.942C876.04 161.942 864.842 157.12 855.457 147.475C846.072 137.766 841.379 126.019 841.379 112.232C841.379 98.4451 846.007 86.7297 855.263 77.0854C864.584 67.3764 875.522 62.522 888.079 62.522C901.089 62.522 911.963 67.0528 920.701 76.1145C929.439 85.1115 933.809 96.5034 933.809 110.29L932.838 117.475ZM909.439 83.9788C903.549 78.3476 896.429 75.532 888.079 75.532C879.73 75.532 872.448 78.477 866.234 84.3671C860.02 90.2572 856.363 97.2477 855.263 105.339H919.925C918.889 96.7299 915.394 89.61 909.439 83.9788ZM1042.16 89.4158L1007.31 133.203L972.547 89.4158V160H958.663V64.5608H969.538L1007.31 112.232L1045.07 64.5608H1056.04V160H1042.16V89.4158ZM28.8356 305.203V332H14.9518V236.561H28.8356V287.242L76.5067 236.561H93.4974L56.7004 275.3L97.478 332H81.5553L47.7681 285.3L28.8356 305.203ZM136.217 345.884L141.168 332L102.333 236.561H117.284L148.159 314.135L178.936 236.561H193.888L150.101 345.884C146.152 355.981 141.913 363.133 137.382 367.341C132.851 371.613 127.155 373.749 120.294 373.749C118.158 373.749 116.087 373.587 114.08 373.263C112.139 372.939 110.682 372.583 109.711 372.195L108.352 371.807V358.797C111.653 360.091 114.954 360.771 118.255 360.836C126.67 360.836 132.657 355.852 136.217 345.884ZM222.724 236.561H292.337V332H278.356V249.474H236.608V264.426C236.608 278.471 235.896 290.187 234.472 299.572C233.112 308.893 231.041 316.013 228.258 320.932C225.475 325.786 222.4 329.184 219.034 331.126C215.669 333.003 211.591 333.942 206.801 333.942C205.183 333.942 203.532 333.78 201.849 333.456C200.231 333.133 199.034 332.777 198.257 332.388L196.898 332V318.116C199.552 319.411 202.205 320.058 204.859 320.058C208.937 320.058 212.141 318.893 214.471 316.563C216.801 314.233 218.743 308.86 220.296 300.446C221.915 292.031 222.724 280.025 222.724 264.426V236.561ZM337.969 319.087H363.018C369.232 319.087 374.216 317.339 377.97 313.844C381.789 310.284 383.698 305.721 383.698 300.155C383.698 294.588 381.789 290.057 377.97 286.562C374.216 283.067 369.167 281.319 362.824 281.319H337.969V319.087ZM388.262 277.144C394.475 282.97 397.582 290.672 397.582 300.252C397.582 309.766 394.508 317.437 388.359 323.262C382.21 329.087 373.763 332 363.018 332H324.085V236.561H337.969V268.406H362.824C373.569 268.406 382.048 271.319 388.262 277.144ZM402.631 249.474V236.561H484.089V249.474H450.302V332H436.418V249.474H402.631ZM524.964 345.884L529.915 332L491.08 236.561H506.031L536.906 314.135L567.683 236.561H582.635L538.848 345.884C534.899 355.981 530.66 363.133 526.129 367.341C521.598 371.613 515.902 373.749 509.041 373.749C506.905 373.749 504.834 373.587 502.827 373.263C500.886 372.939 499.429 372.583 498.458 372.195L497.099 371.807V358.797C500.4 360.091 503.701 360.771 507.002 360.836C515.417 360.836 521.404 355.852 524.964 345.884ZM625.84 258.6C618.914 265.914 615.451 274.491 615.451 284.329C615.451 294.103 618.914 302.679 625.84 310.058C632.831 317.372 640.63 321.029 649.239 321.029C657.459 321.029 664.805 317.469 671.278 310.349C677.815 303.164 681.084 294.491 681.084 284.329C681.084 274.102 677.815 265.429 671.278 258.309C664.805 251.124 657.459 247.532 649.239 247.532C640.63 247.532 632.831 251.221 625.84 258.6ZM615.451 317.048V373.749H601.568V236.561H615.451V251.513C615.71 251.124 616.163 250.542 616.811 249.765C617.523 248.924 618.914 247.532 620.986 245.59C623.122 243.648 625.419 241.933 627.879 240.444C630.339 238.891 633.478 237.532 637.297 236.367C641.18 235.137 645.161 234.522 649.239 234.522C661.407 234.522 672.055 239.409 681.181 249.183C690.372 258.956 694.968 270.672 694.968 284.329C694.968 297.922 690.405 309.605 681.278 319.378C672.152 329.087 661.472 333.942 649.239 333.942C645.161 333.942 641.213 333.359 637.394 332.194C633.64 331.029 630.468 329.637 627.879 328.019C625.29 326.401 623.024 324.783 621.083 323.165C619.206 321.482 617.782 320.058 616.811 318.893L615.451 317.048ZM740.697 345.884L745.649 332L706.813 236.561H721.765L752.639 314.135L783.417 236.561H798.368L754.581 345.884C750.633 355.981 746.393 363.133 741.862 367.341C737.331 371.613 731.635 373.749 724.774 373.749C722.638 373.749 720.567 373.587 718.561 373.263C716.619 372.939 715.163 372.583 714.192 372.195L712.832 371.807V358.797C716.133 360.091 719.434 360.771 722.736 360.836C731.15 360.836 737.137 355.852 740.697 345.884ZM14.9518 408.561H58.6422C67.3802 408.561 74.3707 410.923 79.6135 415.648C84.8564 420.309 87.4778 426.231 87.4778 433.416C87.4778 437.494 86.4745 441.215 84.468 444.581C82.5262 447.882 80.5521 450.18 78.5455 451.474L75.5358 453.319C75.9241 453.449 76.4743 453.643 77.1863 453.902C77.963 454.161 79.2575 454.873 81.0699 456.038C82.9469 457.138 84.5651 458.465 85.9244 460.018C87.3483 461.507 88.6105 463.675 89.7109 466.523C90.8759 469.371 91.4585 472.575 91.4585 476.135C91.4585 484.744 88.7723 491.54 83.4 496.524C78.0277 501.508 70.4547 504 60.681 504H14.9518V408.561ZM60.681 459.242H28.8356V491.087H60.681C66.1181 491.087 70.2929 489.695 73.2056 486.912C76.1183 484.129 77.5747 480.213 77.5747 475.164C77.5747 470.116 76.1183 466.2 73.2056 463.417C70.2929 460.633 66.1181 459.242 60.681 459.242ZM58.6422 447.3C68.61 447.3 73.594 442.995 73.594 434.387C73.594 425.778 68.61 421.474 58.6422 421.474H28.8356V447.3H58.6422ZM139.13 449.339L175.927 443.319C175.927 436.264 173.693 430.535 169.227 426.134C164.761 421.733 159.033 419.532 152.042 419.532C146.994 419.532 142.236 420.697 137.77 423.027C133.369 425.293 130.165 427.623 128.158 430.018L125.149 433.416L116.216 424.484C116.605 423.966 117.123 423.318 117.77 422.542C118.482 421.7 119.97 420.276 122.236 418.27C124.566 416.199 126.993 414.354 129.518 412.736C132.042 411.118 135.343 409.694 139.421 408.464C143.563 407.169 147.77 406.522 152.042 406.522C162.916 406.522 171.913 410.05 179.033 417.105C186.218 424.16 189.81 432.898 189.81 443.319V504H175.927V491.087C175.668 491.475 175.247 492.026 174.664 492.738C174.147 493.385 172.917 494.582 170.975 496.33C169.098 498.013 167.059 499.534 164.858 500.893C162.658 502.188 159.745 503.353 156.12 504.388C152.56 505.424 148.871 505.942 145.052 505.942C135.537 505.942 127.511 503.126 120.974 497.495C114.501 491.864 111.265 485.424 111.265 478.174C111.265 470.213 113.66 463.805 118.449 458.95C123.239 454.031 130.133 450.827 139.13 449.339ZM145.052 493.029C154.049 493.029 161.428 490.084 167.188 484.194C173.014 478.304 175.927 470.666 175.927 461.281V455.261L143.11 461.281C131.201 463.546 125.213 469.177 125.149 478.174C125.149 482.446 126.896 486.006 130.391 488.854C133.951 491.637 138.838 493.029 145.052 493.029ZM221.559 504V408.561H235.442V491.087H276.22V408.561H290.298V491.087H330.882V408.561H344.765V504H221.559ZM461.176 461.475L383.601 461.281C384.119 469.889 387.647 477.333 394.184 483.611C400.786 489.89 408.521 493.029 417.389 493.029C423.343 493.029 428.877 491.702 433.991 489.048C439.104 486.394 442.729 483.741 444.865 481.087L448.263 477.203L457.195 486.135C456.807 486.653 456.224 487.398 455.448 488.369C454.736 489.275 453.118 490.861 450.593 493.126C448.134 495.327 445.447 497.301 442.535 499.048C439.687 500.731 435.965 502.317 431.369 503.806C426.839 505.23 422.178 505.942 417.389 505.942C404.379 505.942 393.181 501.12 383.796 491.475C374.41 481.766 369.718 470.019 369.718 456.232C369.718 442.445 374.345 430.73 383.601 421.085C392.922 411.376 403.861 406.522 416.418 406.522C429.428 406.522 440.302 411.053 449.04 420.115C457.778 429.111 462.147 440.503 462.147 454.29L461.176 461.475ZM437.777 427.979C431.887 422.348 424.767 419.532 416.418 419.532C408.068 419.532 400.786 422.477 394.572 428.367C388.359 434.257 384.702 441.248 383.601 449.339H448.263C447.227 440.73 443.732 433.61 437.777 427.979ZM550.596 408.561V421.474H500.886V504H487.002V408.561H550.596ZM810.408 458.271C810.408 471.669 805.877 482.964 796.815 492.155C787.753 501.346 776.717 505.942 763.707 505.942C749.662 505.942 738.205 500.602 729.338 489.922C720.47 479.177 716.036 463.999 716.036 444.387C716.036 400.502 732.25 375.647 764.678 369.822C771.733 368.657 778.012 367.136 783.514 365.259C789.015 363.382 792.705 361.828 794.582 360.599L797.495 358.851L804.485 369.822C799.178 374.482 786.588 378.787 766.717 382.735C756.232 384.871 747.752 389.855 741.28 397.687C734.872 405.454 731.409 416.037 730.891 429.435C731.15 428.917 731.571 428.238 732.153 427.396C732.801 426.49 734.127 425.001 736.134 422.93C738.205 420.794 740.471 418.885 742.93 417.202C745.39 415.519 748.561 413.998 752.445 412.639C756.393 411.215 760.471 410.503 764.678 410.503C777.3 410.503 788.077 415.163 797.009 424.484C805.941 433.739 810.408 445.002 810.408 458.271ZM740.503 433.513C734.095 440.18 730.891 448.432 730.891 458.271C730.891 468.109 734.095 476.362 740.503 483.029C746.976 489.695 754.71 493.029 763.707 493.029C772.704 493.029 780.407 489.695 786.815 483.029C793.287 476.362 796.524 468.109 796.524 458.271C796.524 448.432 793.287 440.18 786.815 433.513C780.407 426.846 772.704 423.513 763.707 423.513C754.71 423.513 746.976 426.846 740.503 433.513ZM860.603 430.6C853.677 437.914 850.214 446.491 850.214 456.329C850.214 466.103 853.677 474.679 860.603 482.058C867.593 489.372 875.393 493.029 884.002 493.029C892.222 493.029 899.568 489.469 906.041 482.349C912.578 475.164 915.847 466.491 915.847 456.329C915.847 446.102 912.578 437.429 906.041 430.309C899.568 423.124 892.222 419.532 884.002 419.532C875.393 419.532 867.593 423.221 860.603 430.6ZM850.214 489.048V545.749H836.33V408.561H850.214V423.513C850.473 423.124 850.926 422.542 851.574 421.765C852.286 420.924 853.677 419.532 855.748 417.59C857.884 415.648 860.182 413.933 862.642 412.444C865.101 410.891 868.241 409.532 872.059 408.367C875.943 407.137 879.924 406.522 884.002 406.522C896.17 406.522 906.818 411.409 915.944 421.183C925.135 430.956 929.731 442.672 929.731 456.329C929.731 469.922 925.168 481.605 916.041 491.378C906.915 501.087 896.235 505.942 884.002 505.942C879.924 505.942 875.975 505.359 872.157 504.194C868.402 503.029 865.231 501.637 862.642 500.019C860.053 498.401 857.787 496.783 855.845 495.165C853.968 493.482 852.544 492.058 851.574 490.893L850.214 489.048ZM1039.05 461.475L961.479 461.281C961.997 469.889 965.524 477.333 972.062 483.611C978.664 489.89 986.399 493.029 995.266 493.029C1001.22 493.029 1006.76 491.702 1011.87 489.048C1016.98 486.394 1020.61 483.741 1022.74 481.087L1026.14 477.203L1035.07 486.135C1034.68 486.653 1034.1 487.398 1033.33 488.369C1032.61 489.275 1031 490.861 1028.47 493.126C1026.01 495.327 1023.33 497.301 1020.41 499.048C1017.56 500.731 1013.84 502.317 1009.25 503.806C1004.72 505.23 1000.06 505.942 995.266 505.942C982.256 505.942 971.059 501.12 961.673 491.475C952.288 481.766 947.595 470.019 947.595 456.232C947.595 442.445 952.223 430.73 961.479 421.085C970.8 411.376 981.738 406.522 994.295 406.522C1007.31 406.522 1018.18 411.053 1026.92 420.115C1035.66 429.111 1040.02 440.503 1040.02 454.29L1039.05 461.475ZM1015.66 427.979C1009.77 422.348 1002.65 419.532 994.295 419.532C985.946 419.532 978.664 422.477 972.45 428.367C966.236 434.257 962.579 441.248 961.479 449.339H1026.14C1025.11 440.73 1021.61 433.61 1015.66 427.979ZM1133.42 504V462.251H1078.76V504H1064.88V408.561H1078.76V449.339H1133.42V408.561H1147.41V504H1133.42ZM1267.7 491.087V527.884H1253.82V504H1177.21V527.884H1163.33V491.087H1170.22C1170.61 490.699 1171.19 490.051 1171.97 489.145C1172.81 488.174 1174.2 486.038 1176.14 482.737C1178.09 479.436 1179.8 475.876 1181.29 472.057C1182.84 468.174 1184.2 463.028 1185.37 456.62C1186.6 450.148 1187.21 443.416 1187.21 436.426V408.561H1252.75V491.087H1267.7ZM1201.1 421.474V436.426C1201.1 447.3 1199.77 457.268 1197.12 466.329C1194.46 475.391 1191.81 481.799 1189.15 485.553L1185.17 491.087H1238.86V421.474H1201.1ZM1310.42 449.339L1347.22 443.319C1347.22 436.264 1344.98 430.535 1340.52 426.134C1336.05 421.733 1330.32 419.532 1323.33 419.532C1318.28 419.532 1313.53 420.697 1309.06 423.027C1304.66 425.293 1301.45 427.623 1299.45 430.018L1296.44 433.416L1287.51 424.484C1287.89 423.966 1288.41 423.318 1289.06 422.542C1289.77 421.7 1291.26 420.276 1293.53 418.27C1295.86 416.199 1298.28 414.354 1300.81 412.736C1303.33 411.118 1306.63 409.694 1310.71 408.464C1314.85 407.169 1319.06 406.522 1323.33 406.522C1334.21 406.522 1343.2 410.05 1350.32 417.105C1357.51 424.16 1361.1 432.898 1361.1 443.319V504H1347.22V491.087C1346.96 491.475 1346.54 492.026 1345.95 492.738C1345.44 493.385 1344.21 494.582 1342.26 496.33C1340.39 498.013 1338.35 499.534 1336.15 500.893C1333.95 502.188 1331.03 503.353 1327.41 504.388C1323.85 505.424 1320.16 505.942 1316.34 505.942C1306.83 505.942 1298.8 503.126 1292.26 497.495C1285.79 491.864 1282.55 485.424 1282.55 478.174C1282.55 470.213 1284.95 463.805 1289.74 458.95C1294.53 454.031 1301.42 450.827 1310.42 449.339ZM1316.34 493.029C1325.34 493.029 1332.72 490.084 1338.48 484.194C1344.3 478.304 1347.22 470.666 1347.22 461.281V455.261L1314.4 461.281C1302.49 463.546 1296.5 469.177 1296.44 478.174C1296.44 482.446 1298.19 486.006 1301.68 488.854C1305.24 491.637 1310.13 493.029 1316.34 493.029Z" fill="black"/>
<circle cx="199.119" cy="108.119" r="51.4824" stroke="black" stroke-width="7.27344"/>
<path d="M165.045 110.189C164.631 109.723 164.258 109.292 163.93 108.904C164.258 108.516 164.631 108.085 165.045 107.619C166.93 105.495 169.656 102.668 173.013 99.8488C179.833 94.1219 188.746 88.8604 198.222 88.8604C207.698 88.8604 216.61 94.1219 223.431 99.8488C226.787 102.668 229.513 105.495 231.399 107.619C231.813 108.085 232.185 108.516 232.514 108.904C232.185 109.292 231.813 109.723 231.399 110.189C229.513 112.313 226.787 115.14 223.431 117.959C216.61 123.686 207.698 128.948 198.222 128.948C188.746 128.948 179.833 123.686 173.013 117.959C169.656 115.14 166.93 112.313 165.045 110.189Z" stroke="black" stroke-width="7.27344"/>
<circle cx="197.459" cy="108.137" r="15.2777" fill="black"/>
<circle cx="890.628" cy="277.239" r="55.2498" fill="#9BCECA"/>
<path d="M855.644 286.476C859.338 301.932 873.243 313.424 889.832 313.424C906.421 313.424 920.325 301.932 924.02 286.476" stroke="white" stroke-width="7.23086"/>
<circle cx="1444.39" cy="449.333" r="55.0107" fill="black"/>
<path d="M1407.23 452.615C1407.12 446.128 1411.34 431.238 1421.87 423.539C1432.82 415.534 1455.84 411.349 1471.26 428.683C1486.68 446.017 1474.61 465.81 1473.61 467.488C1472.6 469.165 1463.78 482.473 1446.79 480.125C1429.81 477.776 1422.65 465.475 1422.43 456.752C1422.21 448.03 1425.56 436.735 1436.18 433.044C1446.79 429.354 1458.41 434.163 1461.54 442.326C1464.67 450.49 1462.88 458.43 1457.52 462.456C1452.15 466.481 1442.21 465.363 1439.19 458.989C1436.18 452.615 1440.42 446.911 1444.67 447.135C1448.91 447.359 1450.14 451.944 1446.79 452.615" stroke="white" stroke-width="4.38912" stroke-linecap="round"/>
<circle cx="607.828" cy="450.828" r="51.1912" stroke="#CD93AF" stroke-width="7.27305"/>
<path d="M604.32 484.174L637.515 450.979M637.515 450.979L604.32 417.785M637.515 450.979L571.126 450.979" stroke="#CD93AF" stroke-width="7.27305"/>
</svg>
