<svg width="1091" height="384" viewBox="0 0 1091 384" fill="none" xmlns="http://www.w3.org/2000/svg">
<path d="M23.2182 151.136C13.5787 141.164 8.75897 129.098 8.75897 114.938C8.75897 100.778 13.5787 88.7455 23.2182 78.8401C32.9242 68.8683 44.4251 63.8823 57.7209 63.8823C65.366 63.8823 72.4793 65.5443 79.0607 68.8683C85.7086 72.1257 90.4619 75.3832 93.3205 78.6407L97.6084 83.3275L87.3374 93.4988C87.0715 93.0999 86.6726 92.5349 86.1408 91.8036C85.6089 91.0723 84.4123 89.7427 82.5509 87.8148C80.7559 85.8869 78.7948 84.225 76.6675 82.8289C74.5401 81.3664 71.7813 80.07 68.3908 78.9399C65.0004 77.8097 61.4437 77.2446 57.7209 77.2446C48.3473 77.2446 40.2036 80.901 33.2898 88.2137C26.4424 95.4599 23.0188 104.401 23.0188 115.038C23.0188 125.608 26.4424 134.55 33.2898 141.862C40.2036 149.109 48.3473 152.732 57.7209 152.732C63.4381 152.732 68.8562 151.369 73.9751 148.643C79.094 145.918 82.8168 143.192 85.1436 140.466L88.4343 136.478L98.6056 145.652C98.2067 146.184 97.5752 146.948 96.711 147.945C95.9132 148.876 94.1847 150.505 91.5256 152.831C88.8664 155.092 86.0743 157.119 83.1492 158.914C80.2241 160.643 76.4348 162.272 71.7813 163.801C67.1942 165.263 62.5074 165.994 57.7209 165.994C44.3586 165.994 32.8577 161.042 23.2182 151.136ZM206.801 91.5044L171.001 136.478L135.302 91.5044V164H121.042V65.9764H132.211L171.001 114.938L209.792 65.9764H221.06V164H206.801V91.5044ZM358.273 79.239V65.9764H441.937V79.239H407.235V164H392.975V79.239H358.273ZM487.409 88.6126C480.296 96.1247 476.739 104.933 476.739 115.038C476.739 125.076 480.296 133.885 487.409 141.464C494.589 148.976 502.6 152.732 511.441 152.732C519.884 152.732 527.43 149.075 534.078 141.763C540.792 134.384 544.149 125.475 544.149 115.038C544.149 104.534 540.792 95.6261 534.078 88.3134C527.43 80.9342 519.884 77.2446 511.441 77.2446C502.6 77.2446 494.589 81.034 487.409 88.6126ZM476.739 148.643V206.879H462.479V65.9764H476.739V81.3331C477.005 80.9342 477.471 80.3359 478.135 79.5382C478.867 78.6739 480.296 77.2446 482.423 75.2503C484.617 73.2559 486.977 71.4942 489.503 69.9652C492.03 68.3697 495.254 66.9736 499.176 65.777C503.165 64.5139 507.253 63.8823 511.441 63.8823C523.94 63.8823 534.875 68.9015 544.249 78.9399C553.689 88.9782 558.409 101.011 558.409 115.038C558.409 128.999 553.722 140.998 544.349 151.037C534.975 161.008 524.006 165.994 511.441 165.994C507.253 165.994 503.198 165.396 499.276 164.199C495.42 163.003 492.162 161.574 489.503 159.912C486.844 158.25 484.517 156.588 482.523 154.926C480.595 153.197 479.133 151.735 478.135 150.538L476.739 148.643ZM657.43 65.9764H669.695V164H655.336V90.5072L596.103 164H583.937V65.9764H598.197V139.469L657.43 65.9764ZM86.3402 341V256.438H30.1985V341H15.9387V242.976H100.7V341H86.3402ZM312.303 273.59V286.853H243.896V273.59H312.303ZM427.678 327.737V365.531H413.418V341H334.74V365.531H320.48V327.737H327.56C327.959 327.339 328.557 326.674 329.355 325.743C330.219 324.746 331.648 322.552 333.643 319.162C335.637 315.771 337.399 312.115 338.928 308.193C340.523 304.204 341.919 298.919 343.116 292.337C344.379 285.689 345.011 278.775 345.011 271.596V242.976H412.321V327.737H427.678ZM359.271 256.239V271.596C359.271 282.764 357.908 293.002 355.182 302.309C352.456 311.616 349.731 318.198 347.005 322.053L342.917 327.737H398.061V256.239H359.271ZM475.044 265.613C467.931 273.125 464.374 281.933 464.374 292.038C464.374 302.076 467.931 310.885 475.044 318.464C482.224 325.976 490.235 329.732 499.076 329.732C507.519 329.732 515.065 326.075 521.712 318.763C528.427 311.384 531.784 302.475 531.784 292.038C531.784 281.534 528.427 272.626 521.712 265.313C515.065 257.934 507.519 254.245 499.076 254.245C490.235 254.245 482.224 258.034 475.044 265.613ZM464.374 325.643V383.879H450.114V242.976H464.374V258.333C464.64 257.934 465.105 257.336 465.77 256.538C466.502 255.674 467.931 254.245 470.058 252.25C472.252 250.256 474.612 248.494 477.138 246.965C479.664 245.37 482.889 243.974 486.811 242.777C490.8 241.514 494.888 240.882 499.076 240.882C511.574 240.882 522.51 245.902 531.884 255.94C541.324 265.978 546.044 278.011 546.044 292.038C546.044 305.999 541.357 317.998 531.984 328.037C522.61 338.008 511.641 342.994 499.076 342.994C494.888 342.994 490.833 342.396 486.911 341.199C483.055 340.003 479.797 338.574 477.138 336.912C474.479 335.25 472.152 333.588 470.158 331.926C468.23 330.197 466.767 328.735 465.77 327.538L464.374 325.643ZM593.011 355.26L598.097 341L558.21 242.976H573.566L605.277 322.652L636.888 242.976H652.244L607.271 355.26C603.216 365.631 598.862 372.976 594.208 377.298C589.555 381.685 583.704 383.879 576.658 383.879C574.464 383.879 572.336 383.713 570.276 383.38C568.281 383.048 566.785 382.682 565.788 382.284L564.392 381.885V368.522C567.783 369.852 571.173 370.55 574.563 370.616C583.206 370.616 589.355 365.498 593.011 355.26ZM737.005 242.976V256.239H685.949V341H671.69V242.976H737.005ZM957.883 268.504L922.083 313.478L886.384 268.504V341H872.124V242.976H883.293L922.083 291.938L960.874 242.976H972.142V341H957.883V268.504ZM1026.39 355.26L1031.47 341L991.587 242.976H1006.94L1038.65 322.652L1070.27 242.976H1085.62L1040.65 355.26C1036.59 365.631 1032.24 372.976 1027.59 377.298C1022.93 381.685 1017.08 383.879 1010.04 383.879C1007.84 383.879 1005.71 383.713 1003.65 383.38C1001.66 383.048 1000.16 382.682 999.166 382.284L997.77 381.885V368.522C1001.16 369.852 1004.55 370.55 1007.94 370.616C1016.58 370.616 1022.73 365.498 1026.39 355.26Z" fill="black"/>
<circle cx="293.164" cy="115.406" r="52.8765" stroke="black" stroke-width="7.4704"/>
<path d="M258.166 117.532C257.741 117.054 257.358 116.611 257.021 116.212C257.358 115.814 257.741 115.371 258.166 114.892C260.102 112.711 262.902 109.807 266.35 106.912C273.355 101.03 282.509 95.6258 292.241 95.6258C301.974 95.6258 311.128 101.03 318.133 106.912C321.581 109.807 324.381 112.711 326.317 114.892C326.742 115.371 327.125 115.814 327.462 116.212C327.125 116.611 326.742 117.054 326.317 117.532C324.381 119.713 321.581 122.617 318.133 125.513C311.128 131.395 301.974 136.799 292.241 136.799C282.509 136.799 273.355 131.395 266.35 125.513C262.902 122.617 260.102 119.713 258.166 117.532Z" stroke="black" stroke-width="7.4704"/>
<circle cx="291.459" cy="115.425" r="15.6914" fill="black"/>
<circle cx="169.965" cy="289.447" r="56.7451" fill="#6970B1"/>
<path d="M166.355 323.711L200.711 289.356M200.711 289.356L166.355 255.001M200.711 289.356L132 289.356" stroke="white" stroke-width="7.42667"/>
<circle cx="801.232" cy="289.448" r="56.7459" fill="#E3966F"/>
<path d="M765.301 298.934C769.095 314.809 783.377 326.612 800.415 326.612C817.453 326.612 831.734 314.809 835.529 298.934" stroke="white" stroke-width="7.42667"/>
</svg>
