<svg width="275" height="69" viewBox="0 0 275 69" fill="none" xmlns="http://www.w3.org/2000/svg">
<circle cx="31.1031" cy="31.1031" r="29.8623" stroke="white" stroke-width="2.48161"/>
<path d="M29.1141 50.0203L47.9449 31.1895M47.9449 31.1895L29.114 12.3586M47.9449 31.1895L10.2832 31.1895" stroke="white" stroke-width="2.4751"/>
<path d="M149.481 13.7105C151.514 13.7105 153.276 14.4923 154.766 16.0558C156.257 17.6089 157.002 19.4955 157.002 21.7157C157.002 23.9359 156.252 25.8278 154.751 27.3913C153.26 28.9444 151.504 29.7209 149.481 29.7209C148.908 29.7209 148.345 29.6532 147.793 29.5176C147.251 29.3821 146.787 29.2154 146.401 29.0173C146.016 28.8089 145.672 28.6004 145.369 28.3919C145.078 28.173 144.869 28.001 144.744 27.876L144.509 27.6414V29.4082H141.32V6.98739H144.509V15.8056C144.655 15.6597 144.864 15.4669 145.135 15.2271C145.406 14.9874 145.974 14.6747 146.839 14.289C147.704 13.9033 148.585 13.7105 149.481 13.7105ZM145.917 25.3431C146.865 26.3437 147.944 26.844 149.153 26.844C150.373 26.844 151.452 26.3437 152.39 25.3431C153.328 24.3424 153.797 23.1385 153.797 21.7313C153.797 20.3138 153.328 19.1046 152.39 18.104C151.452 17.1033 150.373 16.603 149.153 16.603C147.944 16.603 146.865 17.1033 145.917 18.104C144.979 19.1046 144.509 20.3138 144.509 21.7313C144.509 23.1385 144.979 24.3424 145.917 25.3431ZM169.182 16.7594C168.754 16.6551 168.275 16.603 167.743 16.603C166.524 16.603 165.549 16.9991 164.82 17.7913C164.1 18.573 163.741 19.6727 163.741 21.0903V29.4082H160.536V14.0388H163.741V15.6336L163.944 15.4304C164.038 15.3366 164.236 15.1854 164.538 14.977C164.84 14.7581 165.158 14.5652 165.492 14.3985C165.836 14.2213 166.268 14.0649 166.79 13.9294C167.321 13.7835 167.853 13.7105 168.384 13.7105H169.182V16.7594ZM184.066 29.4082H180.861V27.8134C180.82 27.8551 180.747 27.9229 180.642 28.0167C180.549 28.1105 180.35 28.2668 180.048 28.4857C179.756 28.6942 179.438 28.887 179.094 29.0642C178.75 29.231 178.318 29.3821 177.797 29.5176C177.276 29.6532 176.749 29.7209 176.218 29.7209C174.654 29.7209 173.356 29.2675 172.324 28.3606C171.293 27.4538 170.777 26.4167 170.777 25.2493C170.777 23.988 171.173 22.93 171.965 22.0753C172.767 21.2206 173.862 20.6786 175.248 20.4493L180.861 19.4799C180.861 18.6668 180.559 17.9841 179.954 17.4317C179.36 16.8792 178.594 16.603 177.656 16.603C176.843 16.603 176.103 16.775 175.436 17.119C174.779 17.4525 174.326 17.7913 174.076 18.1353L173.653 18.6825L171.574 16.603C171.636 16.5196 171.72 16.4154 171.824 16.2903C171.939 16.1548 172.184 15.9255 172.559 15.6024C172.945 15.2688 173.351 14.9717 173.779 14.7112C174.206 14.4506 174.769 14.2213 175.467 14.0232C176.176 13.8147 176.906 13.7105 177.656 13.7105C179.532 13.7105 181.07 14.2682 182.268 15.3835C183.467 16.4884 184.066 17.8538 184.066 19.4799V29.4082ZM176.702 26.844C178.005 26.844 179.022 26.4584 179.751 25.687C180.491 24.9053 180.861 23.7952 180.861 22.3567V22.044L175.889 22.8414C175.316 22.9457 174.852 23.1802 174.498 23.545C174.143 23.9098 173.966 24.3685 173.966 24.9209C173.966 25.4317 174.211 25.8799 174.701 26.2655C175.201 26.6512 175.868 26.844 176.702 26.844ZM191.759 14.0388V15.6336L191.962 15.4304C192.056 15.3366 192.254 15.1854 192.556 14.977C192.859 14.7581 193.177 14.5652 193.51 14.3985C193.854 14.2213 194.287 14.0649 194.808 13.9294C195.339 13.7835 195.871 13.7105 196.403 13.7105C198.258 13.7105 199.759 14.3203 200.906 15.5398C202.063 16.7594 202.641 18.3958 202.641 20.4493V29.4082H199.436V20.4493C199.436 19.3444 199.081 18.4271 198.373 17.6975C197.674 16.9678 196.804 16.603 195.762 16.603C194.542 16.603 193.567 16.9991 192.838 17.7913C192.119 18.573 191.759 19.6727 191.759 21.0903V29.4082H188.554V14.0388H191.759ZM213.695 13.7105C214.268 13.7105 214.826 13.7835 215.368 13.9294C215.92 14.0649 216.384 14.2369 216.76 14.4454C217.145 14.6434 217.489 14.8519 217.791 15.0708C218.094 15.2792 218.307 15.446 218.433 15.5711L218.651 15.8056V6.98739H221.857V29.4082H218.651V27.6414C218.505 27.7874 218.297 27.9802 218.026 28.2199C217.765 28.4597 217.203 28.7724 216.337 29.158C215.472 29.5333 214.591 29.7209 213.695 29.7209C211.663 29.7209 209.901 28.9444 208.41 27.3913C206.92 25.8278 206.175 23.9359 206.175 21.7157C206.175 19.4955 206.92 17.6089 208.41 16.0558C209.901 14.4923 211.663 13.7105 213.695 13.7105ZM210.771 25.3431C211.72 26.3437 212.799 26.844 214.008 26.844C215.227 26.844 216.306 26.3437 217.244 25.3431C218.182 24.3424 218.651 23.1385 218.651 21.7313C218.651 20.3138 218.182 19.1046 217.244 18.104C216.306 17.1033 215.227 16.603 214.008 16.603C212.799 16.603 211.72 17.1033 210.771 18.104C209.833 19.1046 209.364 20.3138 209.364 21.7313C209.364 23.1385 209.833 24.3424 210.771 25.3431ZM230.034 14.0388V29.4082H226.829V14.0388H230.034ZM229.815 7.86295C230.18 8.22777 230.362 8.68641 230.362 9.23885C230.362 9.79129 230.18 10.2499 229.815 10.6147C229.45 10.9796 228.991 11.162 228.439 11.162C227.887 11.162 227.428 10.9796 227.063 10.6147C226.698 10.2499 226.516 9.79129 226.516 9.23885C226.516 8.68641 226.698 8.22777 227.063 7.86295C227.428 7.49813 227.887 7.31572 228.439 7.31572C228.991 7.31572 229.45 7.49813 229.815 7.86295ZM237.883 14.0388V15.6336L238.086 15.4304C238.18 15.3366 238.378 15.1854 238.68 14.977C238.982 14.7581 239.3 14.5652 239.634 14.3985C239.978 14.2213 240.41 14.0649 240.932 13.9294C241.463 13.7835 241.995 13.7105 242.526 13.7105C244.382 13.7105 245.883 14.3203 247.029 15.5398C248.186 16.7594 248.765 18.3958 248.765 20.4493V29.4082H245.56V20.4493C245.56 19.3444 245.205 18.4271 244.496 17.6975C243.798 16.9678 242.928 16.603 241.885 16.603C240.666 16.603 239.691 16.9991 238.961 17.7913C238.242 18.573 237.883 19.6727 237.883 21.0903V29.4082H234.677V14.0388H237.883ZM264.134 28.4857V27.1724L263.931 27.3756C263.837 27.4694 263.639 27.6258 263.337 27.8447C263.045 28.0532 262.727 28.246 262.383 28.4232C262.039 28.59 261.606 28.7463 261.085 28.8922C260.564 29.0277 260.032 29.0955 259.49 29.0955C257.552 29.0955 255.868 28.3502 254.44 26.8597C253.012 25.3587 252.298 23.5398 252.298 21.403C252.298 19.2662 253.012 17.4525 254.44 15.962C255.868 14.461 257.552 13.7105 259.49 13.7105C260.345 13.7105 261.158 13.8721 261.93 14.1952C262.701 14.5183 263.259 14.8414 263.602 15.1646L264.134 15.6336V14.0388H267.339V28.4545C267.339 30.6121 266.599 32.431 265.119 33.9111C263.639 35.3913 261.82 36.1313 259.662 36.1313C258.787 36.1313 257.953 36.0167 257.161 35.7873C256.369 35.5685 255.717 35.3027 255.206 34.99C254.696 34.6877 254.247 34.3802 253.862 34.0675C253.476 33.7548 253.2 33.4838 253.033 33.2545L252.767 32.9261L254.862 30.8466C254.904 30.9092 254.972 30.9926 255.066 31.0968C255.16 31.2115 255.358 31.4043 255.66 31.6753C255.973 31.9567 256.301 32.2017 256.645 32.4102C256.989 32.629 257.432 32.8219 257.974 32.9887C258.516 33.1659 259.079 33.2545 259.662 33.2545C260.965 33.2545 262.034 32.8115 262.868 31.9255C263.712 31.0395 264.134 29.8929 264.134 28.4857ZM256.786 17.9945C255.92 18.9222 255.488 20.0584 255.488 21.403C255.488 22.7476 255.92 23.8838 256.786 24.8115C257.651 25.7392 258.662 26.203 259.819 26.203C260.976 26.203 261.982 25.7392 262.836 24.8115C263.702 23.8838 264.134 22.7476 264.134 21.403C264.134 20.0584 263.702 18.9222 262.836 17.9945C261.982 17.0669 260.976 16.603 259.819 16.603C258.662 16.603 257.651 17.0669 256.786 17.9945Z" fill="white"/>
<path d="M155.564 57.2493C155.626 57.3743 155.725 57.5255 155.861 57.7027C156.007 57.8694 156.267 58.104 156.642 58.4063C157.028 58.6981 157.414 58.844 157.799 58.844C157.904 58.844 158.003 58.8284 158.096 58.7971C158.201 58.7659 158.284 58.7398 158.347 58.719C158.409 58.6981 158.44 58.6773 158.44 58.6564V61.5646C158.013 61.6688 157.586 61.7209 157.158 61.7209C156.502 61.7209 155.861 61.5385 155.235 61.1737C154.62 60.7984 154.172 60.4284 153.891 60.0636L153.484 59.4851C153.338 59.6519 153.114 59.8603 152.812 60.1105C152.509 60.3606 151.874 60.6942 150.904 61.1111C149.935 61.5176 148.924 61.7209 147.871 61.7209C145.859 61.7209 144.233 61.1893 142.993 60.1261C141.763 59.0629 141.148 57.7808 141.148 56.2799C141.148 55.5085 141.294 54.7528 141.586 54.0128C141.878 53.2623 142.222 52.6317 142.618 52.1209C143.024 51.6102 143.431 51.1515 143.837 50.745C144.244 50.3385 144.588 50.0414 144.869 49.8538L145.323 49.5568C145.083 49.317 144.786 48.9991 144.431 48.603C144.077 48.1965 143.603 47.4877 143.009 46.4766C142.414 45.4551 142.117 44.5639 142.117 43.803C142.117 42.3542 142.628 41.1398 143.65 40.16C144.671 39.1698 145.974 38.6747 147.558 38.6747C149.122 38.6747 150.42 39.1489 151.452 40.0975C152.483 41.046 152.999 42.1717 152.999 43.4747C152.999 44.4128 152.676 45.3926 152.03 46.4141C151.394 47.4252 150.758 48.1965 150.123 48.7281L149.153 49.5568L153.484 54.8414C154.235 53.6636 154.61 52.2252 154.61 50.5261H157.487C157.487 51.6623 157.325 52.788 157.002 53.9033C156.679 55.0186 156.361 55.8577 156.048 56.4206L155.564 57.2493ZM147.871 58.844C148.528 58.844 149.179 58.7294 149.825 58.5001C150.472 58.2603 150.956 58.0154 151.28 57.7652L151.717 57.4056L147.074 51.6362C146.865 51.7822 146.61 51.9958 146.308 52.2773C146.005 52.5587 145.604 53.0799 145.104 53.8408C144.603 54.5913 144.353 55.3001 144.353 55.9672C144.353 56.8636 144.645 57.5672 145.229 58.0779C145.812 58.5887 146.693 58.844 147.871 58.844ZM149.966 43.803C149.966 43.1672 149.742 42.6356 149.294 42.2082C148.846 41.7704 148.267 41.5516 147.558 41.5516C146.85 41.5516 146.271 41.7652 145.823 42.1926C145.375 42.62 145.151 43.1568 145.151 43.803C145.151 44.2721 145.349 44.8141 145.745 45.4291C146.141 46.0441 146.542 46.5444 146.949 46.93L147.558 47.4773C147.725 47.3313 147.944 47.1281 148.215 46.8675C148.486 46.5965 148.846 46.1379 149.294 45.4916C149.742 44.8349 149.966 44.2721 149.966 43.803ZM171.089 46.0388V47.6336L171.293 47.4304C171.386 47.3366 171.584 47.1854 171.887 46.977C172.189 46.7581 172.507 46.5652 172.84 46.3985C173.184 46.2213 173.617 46.0649 174.138 45.9294C174.67 45.7835 175.201 45.7105 175.733 45.7105C177.588 45.7105 179.089 46.3203 180.236 47.5398C181.393 48.7594 181.971 50.3958 181.971 52.4493V61.4082H178.766V52.4493C178.766 51.3444 178.412 50.4271 177.703 49.6975C177.005 48.9678 176.134 48.603 175.092 48.603C173.872 48.603 172.898 48.9991 172.168 49.7913C171.449 50.573 171.089 51.6727 171.089 53.0903V61.4082H167.884V46.0388H171.089ZM198.795 61.4082H195.59V59.8134C195.548 59.8551 195.475 59.9229 195.371 60.0167C195.277 60.1105 195.079 60.2668 194.777 60.4857C194.485 60.6942 194.167 60.887 193.823 61.0642C193.479 61.231 193.046 61.3821 192.525 61.5176C192.004 61.6532 191.478 61.7209 190.946 61.7209C189.382 61.7209 188.085 61.2675 187.053 60.3606C186.021 59.4538 185.505 58.4167 185.505 57.2493C185.505 55.988 185.901 54.93 186.693 54.0753C187.496 53.2206 188.59 52.6786 189.977 52.4493L195.59 51.4799C195.59 50.6668 195.287 49.9841 194.683 49.4317C194.089 48.8792 193.322 48.603 192.384 48.603C191.571 48.603 190.831 48.775 190.164 49.119C189.507 49.4525 189.054 49.7913 188.804 50.1353L188.382 50.6825L186.302 48.603C186.365 48.5196 186.448 48.4154 186.552 48.2903C186.667 48.1548 186.912 47.9255 187.287 47.6024C187.673 47.2688 188.079 46.9717 188.507 46.7112C188.934 46.4506 189.497 46.2213 190.195 46.0232C190.904 45.8147 191.634 45.7105 192.384 45.7105C194.261 45.7105 195.798 46.2682 196.997 47.3835C198.195 48.4884 198.795 49.8538 198.795 51.4799V61.4082ZM191.431 58.844C192.734 58.844 193.75 58.4584 194.479 57.687C195.22 56.9053 195.59 55.7952 195.59 54.3567V54.044L190.618 54.8414C190.044 54.9457 189.58 55.1802 189.226 55.545C188.872 55.9098 188.694 56.3685 188.694 56.9209C188.694 57.4317 188.939 57.8799 189.429 58.2655C189.93 58.6512 190.597 58.844 191.431 58.844ZM223.139 61.4082V52.4493C223.139 51.188 222.847 50.2343 222.263 49.588C221.69 48.9313 220.913 48.603 219.933 48.603C218.933 48.603 218.094 49.0043 217.416 49.8069C216.749 50.5991 216.416 51.6936 216.416 53.0903V61.4082H213.21V52.4493C213.21 51.188 212.919 50.2343 212.335 49.588C211.762 48.9313 210.985 48.603 210.005 48.603C209.005 48.603 208.165 49.0043 207.488 49.8069C206.821 50.5991 206.487 51.6936 206.487 53.0903V61.4082H203.282V46.0388H206.487V47.6336C206.612 47.4877 206.784 47.3105 207.003 47.102C207.233 46.8831 207.702 46.5965 208.41 46.2421C209.13 45.8877 209.875 45.7105 210.646 45.7105C211.261 45.7105 211.845 45.7991 212.397 45.9763C212.96 46.1431 213.408 46.3568 213.742 46.6173C214.076 46.8675 214.362 47.1229 214.602 47.3835C214.852 47.6441 215.029 47.8577 215.134 48.0245L215.29 48.2747C215.332 48.2121 215.399 48.1235 215.493 48.0089C215.597 47.8942 215.811 47.6857 216.134 47.3835C216.468 47.0812 216.822 46.8206 217.197 46.6017C217.573 46.3724 218.062 46.1691 218.667 45.9919C219.282 45.8043 219.918 45.7105 220.575 45.7105C222.367 45.7105 223.775 46.2838 224.796 47.4304C225.828 48.5769 226.344 50.2499 226.344 52.4493V61.4082H223.139ZM234.193 46.0388V61.4082H230.988V46.0388H234.193ZM233.974 39.863C234.339 40.2278 234.521 40.6864 234.521 41.2388C234.521 41.7913 234.339 42.2499 233.974 42.6147C233.609 42.9796 233.15 43.162 232.598 43.162C232.046 43.162 231.587 42.9796 231.222 42.6147C230.857 42.2499 230.675 41.7913 230.675 41.2388C230.675 40.6864 230.857 40.2278 231.222 39.863C231.587 39.4981 232.046 39.3157 232.598 39.3157C233.15 39.3157 233.609 39.4981 233.974 39.863ZM242.042 46.0388V47.6336L242.245 47.4304C242.339 47.3366 242.537 47.1854 242.839 46.977C243.141 46.7581 243.459 46.5652 243.793 46.3985C244.137 46.2213 244.569 46.0649 245.09 45.9294C245.622 45.7835 246.154 45.7105 246.685 45.7105C248.541 45.7105 250.042 46.3203 251.188 47.5398C252.345 48.7594 252.924 50.3958 252.924 52.4493V61.4082H249.718V52.4493C249.718 51.3444 249.364 50.4271 248.655 49.6975C247.957 48.9678 247.087 48.603 246.044 48.603C244.825 48.603 243.85 48.9991 243.12 49.7913C242.401 50.573 242.042 51.6727 242.042 53.0903V61.4082H238.836V46.0388H242.042ZM268.293 60.4857V59.1724L268.09 59.3756C267.996 59.4694 267.798 59.6258 267.496 59.8447C267.204 60.0532 266.886 60.246 266.542 60.4232C266.198 60.59 265.765 60.7463 265.244 60.8922C264.723 61.0277 264.191 61.0955 263.649 61.0955C261.711 61.0955 260.027 60.3502 258.599 58.8597C257.171 57.3587 256.457 55.5398 256.457 53.403C256.457 51.2662 257.171 49.4525 258.599 47.962C260.027 46.461 261.711 45.7105 263.649 45.7105C264.504 45.7105 265.317 45.8721 266.088 46.1952C266.86 46.5183 267.417 46.8414 267.761 47.1646L268.293 47.6336V46.0388H271.498V60.4545C271.498 62.6121 270.758 64.431 269.278 65.9111C267.798 67.3913 265.979 68.1313 263.821 68.1313C262.946 68.1313 262.112 68.0167 261.32 67.7873C260.528 67.5685 259.876 67.3027 259.365 66.99C258.855 66.6877 258.406 66.3802 258.021 66.0675C257.635 65.7548 257.359 65.4838 257.192 65.2545L256.926 64.9261L259.021 62.8466C259.063 62.9092 259.131 62.9926 259.225 63.0968C259.318 63.2115 259.517 63.4043 259.819 63.6753C260.131 63.9567 260.46 64.2017 260.804 64.4102C261.148 64.629 261.591 64.8219 262.133 64.9887C262.675 65.1659 263.238 65.2545 263.821 65.2545C265.124 65.2545 266.193 64.8115 267.027 63.9255C267.871 63.0395 268.293 61.8929 268.293 60.4857ZM260.945 49.9945C260.079 50.9222 259.647 52.0584 259.647 53.403C259.647 54.7476 260.079 55.8838 260.945 56.8115C261.81 57.7392 262.821 58.203 263.978 58.203C265.135 58.203 266.141 57.7392 266.995 56.8115C267.86 55.8838 268.293 54.7476 268.293 53.403C268.293 52.0584 267.86 50.9222 266.995 49.9945C266.141 49.0669 265.135 48.603 263.978 48.603C262.821 48.603 261.81 49.0669 260.945 49.9945Z" fill="white"/>
<path fill-rule="evenodd" clip-rule="evenodd" d="M95.1471 62.2063C112.325 62.2063 126.25 48.2809 126.25 31.1031C126.25 13.9253 112.325 0 95.1471 0C77.9693 0 64.0439 13.9253 64.0439 31.1031C64.0439 48.2809 77.9693 62.2063 95.1471 62.2063ZM83.1502 17.5209C88.9996 13.2434 101.253 11.0768 109.415 20.2525C113.469 24.8088 113.906 29.6494 113.264 33.5144C112.626 37.3637 110.918 40.209 110.617 40.7101L110.605 40.7301C110.081 41.6034 105.48 48.501 96.6764 47.2838C87.688 46.041 84.0852 39.6039 83.974 35.2664C83.8528 30.5344 85.681 24.8842 90.912 23.0657C93.6243 22.1228 96.4666 22.2669 98.8209 23.1639C101.188 24.0657 102.958 25.6822 103.687 27.5857C105.317 31.839 104.296 35.677 101.827 37.5305C100.63 38.429 98.8234 38.8039 97.0921 38.5231C95.365 38.243 93.9597 37.3584 93.3319 36.0319C92.6469 34.5848 92.8135 33.2991 93.3038 32.4137C93.8204 31.4807 94.626 31.0672 95.2408 31.0996C95.9936 31.1392 96.2832 31.536 96.3401 31.7069L96.3445 31.721C96.3242 31.7278 96.2975 31.7351 96.2629 31.7421C95.591 31.8765 95.1553 32.5303 95.2898 33.2022C95.4243 33.8742 96.078 34.3099 96.75 34.1754C97.5178 34.0217 98.174 33.6027 98.5437 32.9297C98.9029 32.2757 98.9016 31.5445 98.6945 30.9227C98.2776 29.6709 97.0193 28.7082 95.3713 28.6214C93.5854 28.5273 91.9902 29.663 91.1327 31.2116C90.2488 32.808 90.068 34.9367 91.0888 37.0936C92.1668 39.3711 94.4259 40.6047 96.6948 40.9727C98.9595 41.34 101.481 40.8929 103.316 39.5152C106.912 36.8162 107.912 31.6757 106.005 26.6976C104.965 23.9855 102.565 21.9347 99.7043 20.8448C96.8306 19.75 93.3867 19.5781 90.0971 20.7217C83.3243 23.0762 81.3618 30.1983 81.4932 35.3299C81.6348 40.8561 86.1188 48.3293 96.3365 49.7421C106.739 51.1805 112.12 43.0297 112.733 42.0061L112.748 41.9825C113.094 41.4052 114.997 38.236 115.713 33.9205C116.446 29.5026 115.935 23.8472 111.27 18.6031C101.995 8.1779 88.215 10.7428 81.6853 15.5177C78.4734 17.8665 76.2715 21.2704 74.8831 24.5071C73.5 27.7317 72.8655 30.9289 72.9008 32.9801C72.9126 33.6653 73.4776 34.2112 74.1628 34.1993C74.848 34.1875 75.3938 33.6225 75.382 32.9374C75.3542 31.3212 75.8813 28.4754 77.1638 25.4854C78.4411 22.5075 80.409 19.5254 83.1502 17.5209ZM96.3536 31.7764C96.3535 31.7764 96.3535 31.775 96.3539 31.7724C96.3539 31.7751 96.3537 31.7764 96.3536 31.7764ZM96.3945 31.6994C96.3985 31.6956 96.401 31.694 96.4013 31.6942C96.4015 31.6944 96.3995 31.6963 96.3945 31.6994Z" fill="white"/>
</svg>
