<svg width="24" height="24" viewBox="0 0 24 24" fill="none" xmlns="http://www.w3.org/2000/svg">
<path d="M3 5.00006C2.64063 4.99615 2.30469 5.18365 2.12109 5.49615C1.94141 5.80865 1.94141 6.19147 2.12109 6.50397C2.30469 6.81647 2.64063 7.00397 3 7.00006H21C21.3594 7.00397 21.6953 6.81647 21.8789 6.50397C22.0586 6.19147 22.0586 5.80865 21.8789 5.49615C21.6953 5.18365 21.3594 4.99615 21 5.00006H3ZM3 11.0001C2.64063 10.9962 2.30469 11.1837 2.12109 11.4962C1.94141 11.8087 1.94141 12.1915 2.12109 12.504C2.30469 12.8165 2.64063 13.004 3 13.0001H21C21.3594 13.004 21.6953 12.8165 21.8789 12.504C22.0586 12.1915 22.0586 11.8087 21.8789 11.4962C21.6953 11.1837 21.3594 10.9962 21 11.0001H3ZM3 17.0001C2.64063 16.9962 2.30469 17.1837 2.12109 17.4962C1.94141 17.8087 1.94141 18.1915 2.12109 18.504C2.30469 18.8165 2.64063 19.004 3 19.0001H21C21.3594 19.004 21.6953 18.8165 21.8789 18.504C22.0586 18.1915 22.0586 17.8087 21.8789 17.4962C21.6953 17.1837 21.3594 16.9962 21 17.0001H3Z" fill="white"/>
</svg>
