<svg width="132" height="44" viewBox="0 0 132 44" fill="none" xmlns="http://www.w3.org/2000/svg">
<path d="M49.8377 10.5953L49.8377 20.3233C49.8847 20.2764 49.9609 20.2002 50.0664 20.0946C50.1837 19.9891 50.4065 19.819 50.7349 19.5845C51.075 19.3382 51.4386 19.1212 51.8256 18.9336C52.2126 18.7342 52.6993 18.5583 53.2856 18.4059C53.872 18.2417 54.4643 18.1596 55.0624 18.1596C57.1499 18.1596 58.8445 18.8456 60.1463 20.2178C61.448 21.5899 62.0989 23.4311 62.0989 25.7414L62.0989 35.8213L58.4927 35.8213L58.4927 25.7414C58.4927 24.4983 58.094 23.4663 57.2965 22.6454C56.5107 21.8244 55.5256 21.414 54.3411 21.414C52.969 21.414 51.8725 21.8596 51.0515 22.7509C50.2423 23.6305 49.8377 24.8677 49.8377 26.4627L49.8377 35.8213L46.2491 35.8213L46.2491 10.5953L49.8377 10.5953ZM79.3736 35.8213L79.3736 34.027L79.1449 34.2557C79.0394 34.3612 78.8166 34.5371 78.4765 34.7834C78.1481 35.018 77.7904 35.2349 77.4034 35.4343C77.0164 35.6219 76.5297 35.792 75.9433 35.9444C75.3569 36.0969 74.7588 36.1731 74.149 36.1731C72.0615 36.1731 70.3669 35.4929 69.0651 34.1325C67.7751 32.7604 67.13 30.9192 67.13 28.6088L67.13 18.529L70.7363 18.529L70.7363 28.6088C70.7363 29.852 71.1291 30.884 71.9149 31.7049C72.7124 32.5258 73.6975 32.9363 74.8702 32.9363C76.2424 32.9363 77.333 32.4965 78.1422 31.617C78.9632 30.7257 79.3736 29.4825 79.3736 27.8876L79.3736 18.529L82.9798 18.529L82.9798 35.8213L79.3736 35.8213ZM97.7566 18.1596C100.043 18.1596 102.025 19.0391 103.702 20.7983C105.38 22.5457 106.218 24.6684 106.218 27.1663C106.218 29.6643 105.374 31.7929 103.685 33.552C102.008 35.2994 100.032 36.1731 97.7566 36.1731C97.1116 36.1731 96.4783 36.0969 95.8567 35.9444C95.2469 35.792 94.725 35.6043 94.2911 35.3815C93.8572 35.147 93.4702 34.9124 93.1301 34.6779C92.8017 34.4316 92.5671 34.2381 92.4264 34.0973L92.1625 33.8335L92.1625 35.8213L88.5739 35.8213L88.5739 10.5953L92.1625 10.5953L92.1625 20.5168C92.3267 20.3526 92.5613 20.1357 92.8662 19.8659C93.1711 19.5962 93.8103 19.2444 94.7836 18.8105C95.757 18.3765 96.748 18.1596 97.7566 18.1596ZM93.7458 31.2475C94.813 32.3734 96.0268 32.9363 97.3872 32.9363C98.7593 32.9363 99.9731 32.3734 101.029 31.2475C102.084 30.1217 102.612 28.7672 102.612 27.1839C102.612 25.589 102.084 24.2286 101.029 23.1027C99.9731 21.9769 98.7593 21.414 97.3872 21.414C96.0268 21.414 94.813 21.9769 93.7458 23.1027C92.6903 24.2286 92.1625 25.589 92.1625 27.1839C92.1625 28.7672 92.6903 30.1217 93.7458 31.2475Z" fill="#F2F2F2"/>
<path d="M3.95023 33.8249C2.16764 32.0306 1.27634 29.9255 1.27634 27.5096C1.27634 25.082 2.16764 22.9711 3.95023 21.1767C5.74455 19.3824 7.85551 18.4853 10.2831 18.4853C11.6318 18.4853 12.8866 18.7784 14.0477 19.3648C15.2087 19.9395 16.0414 20.5141 16.5456 21.0888L17.3021 21.9156L14.9624 24.2552C14.8451 24.0676 14.6634 23.8389 14.4171 23.5692C14.1825 23.2877 13.6607 22.9124 12.8515 22.4433C12.054 21.9742 11.1979 21.7397 10.2831 21.7397C8.81717 21.7397 7.54473 22.2967 6.46579 23.4108C5.39858 24.525 4.86498 25.8912 4.86498 27.5096C4.86498 29.1163 5.39858 30.4767 6.46579 31.5908C7.54473 32.7049 8.81717 33.262 10.2831 33.262C11.1979 33.262 12.054 33.0333 12.8515 32.5759C13.6607 32.1186 14.2412 31.6729 14.593 31.239L15.1383 30.5705L17.478 32.9102C17.4076 33.004 17.3021 33.1389 17.1613 33.3148C17.0206 33.479 16.7157 33.7663 16.2466 34.1767C15.7775 34.5755 15.2849 34.9332 14.7689 35.2498C14.2529 35.5547 13.5844 35.8421 12.7635 36.1118C11.9426 36.3698 11.1158 36.4988 10.2831 36.4988C7.85551 36.4988 5.74455 35.6075 3.95023 33.8249Z" fill="#F2F2F2"/>
<path fill-rule="evenodd" clip-rule="evenodd" d="M31.2378 37.5753C37.1519 37.5753 41.9463 32.7809 41.9463 26.8667C41.9463 20.9526 37.1519 16.1582 31.2378 16.1582C25.3236 16.1582 20.5292 20.9526 20.5292 26.8667C20.5292 32.7809 25.3236 37.5753 31.2378 37.5753ZM35.2232 26.1443L24.0686 26.1443L24.0686 27.6455L35.2232 27.6455L30.0212 32.8474L31.0826 33.9089L37.5659 27.4256L38.0967 26.8949L37.5659 26.3642L31.0826 19.8809L30.0212 20.9423L35.2232 26.1443Z" fill="#F2F2F2"/>
<path fill-rule="evenodd" clip-rule="evenodd" d="M120.301 37.5753C126.215 37.5753 131.01 32.7809 131.01 26.8667C131.01 20.9526 126.215 16.1582 120.301 16.1582C114.387 16.1582 109.593 20.9526 109.593 26.8667C109.593 32.7809 114.387 37.5753 120.301 37.5753ZM121.283 21.8358L119.888 21.8358C119.658 22.2954 119.361 22.6535 118.998 22.9101C118.64 23.1613 118.116 23.3243 117.426 23.3992L117.426 24.6339L119.479 24.6339L119.479 33.3328L121.283 33.3328L121.283 21.8358Z" fill="#F2F2F2"/>
</svg>
