<svg width="1788" height="578" viewBox="0 0 1788 578" fill="none" xmlns="http://www.w3.org/2000/svg">
<path d="M679.967 127.773L679.967 260.519C680.607 259.879 681.647 258.838 683.088 257.398C684.688 255.958 687.729 253.637 692.209 250.437C696.85 247.076 701.811 244.115 707.092 241.555C712.373 238.834 719.015 236.434 727.016 234.354C735.018 232.113 743.099 230.993 751.261 230.993C779.747 230.993 802.871 240.355 820.635 259.078C838.398 277.802 847.28 302.927 847.28 334.453L847.28 472L798.07 472L798.07 334.453C798.07 317.49 792.629 303.407 781.747 292.205C771.025 281.003 757.582 275.402 741.419 275.402C722.695 275.402 707.733 281.483 696.53 293.645C685.488 305.647 679.967 322.531 679.967 344.295L679.967 472L630.998 472L630.998 127.773L679.967 127.773ZM1083.01 472L1083.01 447.515L1079.89 450.636C1078.45 452.076 1075.4 454.477 1070.76 457.837C1066.28 461.038 1061.4 463.998 1056.12 466.719C1050.84 469.279 1044.2 471.6 1036.2 473.68C1028.2 475.761 1020.03 476.801 1011.71 476.801C983.226 476.801 960.102 467.519 942.338 448.955C924.735 430.232 915.933 405.107 915.933 373.581L915.933 236.034L965.143 236.034L965.143 373.581C965.143 390.544 970.504 404.627 981.226 415.829C992.108 427.031 1005.55 432.632 1021.55 432.632C1040.28 432.632 1055.16 426.631 1066.2 414.629C1077.4 402.466 1083.01 385.503 1083.01 363.739L1083.01 236.034L1132.22 236.034L1132.22 472L1083.01 472ZM1333.85 230.993C1365.06 230.993 1392.11 242.995 1414.99 267C1437.88 290.845 1449.32 319.81 1449.32 353.897C1449.32 387.984 1437.8 417.029 1414.75 441.034C1391.87 464.879 1364.9 476.801 1333.85 476.801C1325.05 476.801 1316.41 475.761 1307.93 473.68C1299.61 471.6 1292.49 469.039 1286.57 465.999C1280.64 462.798 1275.36 459.598 1270.72 456.397C1266.24 453.036 1263.04 450.396 1261.12 448.475L1257.52 444.875L1257.52 472L1208.55 472L1208.55 127.773L1257.52 127.773L1257.52 263.159C1259.76 260.919 1262.96 257.958 1267.12 254.277C1271.28 250.597 1280 245.796 1293.29 239.875C1306.57 233.953 1320.09 230.993 1333.85 230.993ZM1279.12 409.588C1293.69 424.951 1310.25 432.632 1328.81 432.632C1347.54 432.632 1364.1 424.951 1378.5 409.588C1392.91 394.225 1400.11 375.741 1400.11 354.137C1400.11 332.373 1392.91 313.809 1378.5 298.446C1364.1 283.083 1347.54 275.402 1328.81 275.402C1310.25 275.402 1293.69 283.083 1279.12 298.446C1264.72 313.809 1257.52 332.373 1257.52 354.137C1257.52 375.741 1264.72 394.225 1279.12 409.588Z" fill="black"/>
<path d="M53.7715 444.762C29.4467 420.277 17.2844 391.551 17.2844 358.585C17.2844 325.458 29.4467 296.653 53.7715 272.168C78.2563 247.683 107.062 235.441 140.188 235.441C158.592 235.441 175.715 239.441 191.558 247.443C207.402 255.284 218.764 263.126 225.645 270.968L235.967 282.25L204.041 314.176C202.441 311.616 199.96 308.495 196.599 304.814C193.399 300.973 186.277 295.852 175.235 289.451C164.353 283.05 152.671 279.849 140.188 279.849C120.184 279.849 102.821 287.451 88.0982 302.654C73.5354 317.857 66.2539 336.5 66.2539 358.585C66.2539 380.509 73.5354 399.073 88.0982 414.276C102.821 429.479 120.184 437.08 140.188 437.08C152.671 437.08 164.353 433.959 175.235 427.718C186.277 421.477 194.199 415.396 199 409.475L206.441 400.353L238.368 432.279C237.407 433.559 235.967 435.4 234.047 437.8C232.126 440.041 227.966 443.961 221.564 449.562C215.163 455.004 208.442 459.885 201.4 464.205C194.359 468.366 185.237 472.287 174.035 475.968C162.833 479.488 151.551 481.249 140.188 481.249C107.062 481.249 78.2563 469.086 53.7715 444.762Z" fill="black"/>
<path fill-rule="evenodd" clip-rule="evenodd" d="M426.094 501.53C506.797 501.53 572.22 436.107 572.22 355.404C572.22 274.701 506.797 209.278 426.094 209.278C345.391 209.278 279.968 274.701 279.968 355.404C279.968 436.107 345.391 501.53 426.094 501.53ZM486.572 348.072L328.288 348.072L328.288 363.526L486.572 363.526L411.294 438.804L422.222 449.732L510.691 361.263L516.155 355.799L510.691 350.335L422.222 261.866L411.294 272.794L486.572 348.072Z" fill="black"/>
<path fill-rule="evenodd" clip-rule="evenodd" d="M1641.46 501.529C1722.16 501.529 1787.58 436.106 1787.58 355.403C1787.58 274.7 1722.16 209.277 1641.46 209.277C1560.75 209.277 1495.33 274.7 1495.33 355.403C1495.33 436.106 1560.75 501.529 1641.46 501.529ZM1653.69 264.778L1638.99 264.778L1637.95 267.511C1637.25 269.073 1635.95 271.068 1634.04 273.498C1632.22 275.927 1629.88 278.357 1627.01 280.786C1624.15 283.129 1620.29 285.255 1615.43 287.164C1610.57 288.986 1605.1 289.983 1599.03 290.157L1599.03 302.131L1633.65 302.131L1633.65 451.414L1653.69 451.414L1653.69 264.778Z" fill="black"/>
</svg>
