<svg width="94" height="94" viewBox="0 0 94 94" fill="none" xmlns="http://www.w3.org/2000/svg">
<path fill-rule="evenodd" clip-rule="evenodd" d="M47.2755 93.6126C72.9622 93.6126 93.7854 72.7894 93.7854 47.1027C93.7854 21.416 72.9622 0.592773 47.2755 0.592773C21.5888 0.592773 0.765625 21.416 0.765625 47.1027C0.765625 72.7894 21.5888 93.6126 47.2755 93.6126ZM76.8582 47.5667C76.8582 53.7812 71.8204 58.819 65.6059 58.819C59.3915 58.819 54.3536 53.7812 54.3536 47.5667C54.3536 41.3522 59.3915 36.3144 65.6059 36.3144C71.8204 36.3144 76.8582 41.3522 76.8582 47.5667ZM80.5691 47.5667C80.5691 55.8306 73.8699 62.5299 65.6059 62.5299C57.342 62.5299 50.6428 55.8306 50.6428 47.5667C50.6428 39.3028 57.342 32.6035 65.6059 32.6035C73.8699 32.6035 80.5691 39.3028 80.5691 47.5667ZM35.6797 42.4967C41.8942 42.4967 46.932 37.4589 46.932 31.2444C46.932 25.0299 41.8942 19.9921 35.6797 19.9921C29.4652 19.9921 24.4274 25.0299 24.4274 31.2444C24.4274 37.4589 29.4652 42.4967 35.6797 42.4967ZM35.6797 46.2076C43.9437 46.2076 50.6429 39.5084 50.6429 31.2444C50.6429 22.9805 43.9437 16.2812 35.6797 16.2812C27.4158 16.2812 20.7166 22.9805 20.7166 31.2444C20.7166 39.5084 27.4158 46.2076 35.6797 46.2076ZM46.9321 63.893C46.9321 70.1075 41.8942 75.1453 35.6797 75.1453C29.4653 75.1453 24.4274 70.1075 24.4274 63.893C24.4274 57.6785 29.4653 52.6407 35.6797 52.6407C41.8942 52.6407 46.9321 57.6785 46.9321 63.893ZM50.6429 63.893C50.6429 72.1569 43.9437 78.8561 35.6797 78.8561C27.4158 78.8561 20.7166 72.1569 20.7166 63.893C20.7166 55.629 27.4158 48.9298 35.6797 48.9298C43.9437 48.9298 50.6429 55.629 50.6429 63.893Z" fill="black"/>
</svg>
