<svg width="1153" height="214" viewBox="0 0 1153 214" fill="none" xmlns="http://www.w3.org/2000/svg">
<circle cx="97.313" cy="107.803" r="93.4309" stroke="white" stroke-width="7.76427"/>
<path d="M91.0874 166.99L150.004 108.074M150.004 108.074L91.0873 49.1573M150.004 108.074L32.1709 108.074" stroke="white" stroke-width="7.74389"/>
<path d="M502.764 87.3574V59.3274C502.764 55.3813 501.85 52.3973 500.024 50.3754C498.231 48.3208 495.801 47.2935 492.735 47.2935C489.605 47.2935 486.979 48.5491 484.86 51.0602C482.772 53.5387 481.729 56.963 481.729 61.333V87.3574H471.701V59.3274C471.701 55.3813 470.788 52.3973 468.961 50.3754C467.168 48.3208 464.738 47.2935 461.672 47.2935C458.542 47.2935 455.916 48.5491 453.797 51.0602C451.709 53.5387 450.666 56.963 450.666 61.333V87.3574H440.638V39.271H450.666V44.2606C451.057 43.8041 451.595 43.2497 452.28 42.5974C452.998 41.9126 454.465 41.0157 456.683 39.9069C458.933 38.7981 461.265 38.2437 463.678 38.2437C465.602 38.2437 467.428 38.5209 469.157 39.0753C470.918 39.5971 472.32 40.2657 473.364 41.081C474.407 41.8636 475.304 42.6626 476.054 43.4779C476.837 44.2932 477.391 44.9618 477.718 45.4836L478.207 46.2663C478.337 46.0706 478.549 45.7934 478.843 45.4347C479.169 45.0759 479.837 44.4237 480.848 43.4779C481.892 42.5322 483.001 41.7169 484.175 41.032C485.349 40.3146 486.882 39.6786 488.773 39.1242C490.697 38.5372 492.686 38.2437 494.741 38.2437C500.35 38.2437 504.753 40.0374 507.949 43.6247C511.178 47.212 512.792 52.4462 512.792 59.3274V87.3574H502.764ZM565.428 87.3574H555.399V82.3678C555.269 82.4982 555.041 82.7102 554.715 83.0037C554.421 83.2972 553.801 83.7864 552.856 84.4713C551.943 85.1235 550.948 85.7268 549.872 86.2812C548.795 86.803 547.442 87.2759 545.811 87.6998C544.181 88.1238 542.534 88.3358 540.871 88.3358C535.979 88.3358 531.919 86.9172 528.69 84.0799C525.462 81.2427 523.847 77.9978 523.847 74.3452C523.847 70.3992 525.087 67.089 527.565 64.4149C530.076 61.7407 533.5 60.0448 537.838 59.3274L555.399 56.2945C555.399 53.7507 554.454 51.6146 552.562 49.8862C550.703 48.1578 548.306 47.2935 545.371 47.2935C542.827 47.2935 540.512 47.8316 538.425 48.9078C536.37 49.9514 534.952 51.0113 534.169 52.0875L532.848 53.7996L526.342 47.2935C526.538 47.0326 526.799 46.7065 527.125 46.3152C527.484 45.8912 528.25 45.1738 529.424 44.1628C530.631 43.1192 531.902 42.1898 533.24 41.3745C534.577 40.5592 536.338 39.8417 538.523 39.2221C540.74 38.5698 543.023 38.2437 545.371 38.2437C551.241 38.2437 556.052 39.9885 559.802 43.4779C563.552 46.9348 565.428 51.207 565.428 56.2945V87.3574ZM542.387 79.3349C546.464 79.3349 549.643 78.1282 551.926 75.7149C554.242 73.269 555.399 69.7958 555.399 65.2954V64.317L539.843 66.8118C538.05 67.138 536.599 67.8717 535.49 69.0132C534.381 70.1546 533.827 71.5895 533.827 73.3179C533.827 74.9159 534.593 76.3183 536.126 77.5249C537.691 78.7315 539.778 79.3349 542.387 79.3349ZM606.519 47.7827C605.182 47.4566 603.682 47.2935 602.018 47.2935C598.203 47.2935 595.153 48.5328 592.871 51.0113C590.62 53.4572 589.495 56.8978 589.495 61.333V87.3574H579.467V39.271H589.495V44.2606L590.131 43.6247C590.425 43.3312 591.044 42.8583 591.99 42.2061C592.936 41.5212 593.931 40.9179 594.974 40.3961C596.05 39.8417 597.404 39.3525 599.034 38.9286C600.698 38.472 602.361 38.2437 604.024 38.2437H606.519V47.7827ZM658.078 39.271L639.538 59.3274L659.595 87.3574H648.539L633.032 65.8335L625.499 73.856V87.3574H615.52V17.2089H625.499V60.7949L646.045 39.271H658.078ZM712.182 66.8118H674.613C675.134 70.2035 676.798 73.1386 679.602 75.6171C682.44 78.0956 685.799 79.3349 689.679 79.3349C692.484 79.3349 695.093 78.6989 697.506 77.4271C699.952 76.1552 701.681 74.9159 702.692 73.7093L704.208 71.8504L710.714 78.3565C710.519 78.6174 710.209 78.9924 709.785 79.4816C709.393 79.9382 708.529 80.7372 707.192 81.8786C705.855 82.9874 704.436 83.9821 702.936 84.8626C701.436 85.7105 699.479 86.5095 697.066 87.2596C694.685 87.9771 692.223 88.3358 689.679 88.3358C682.864 88.3358 676.977 85.841 672.02 80.8513C667.096 75.8291 664.633 69.8122 664.633 62.8006C664.633 56.0499 667.03 50.2775 671.824 45.4836C676.651 40.657 682.423 38.2437 689.141 38.2437C695.892 38.2437 701.501 40.4939 705.969 44.9944C710.47 49.4622 712.72 55.0715 712.72 61.8222L712.182 66.8118ZM689.141 46.8044C685.521 46.8044 682.472 47.8806 679.994 50.033C677.548 52.1527 675.901 54.9085 675.053 58.3001H702.887C702.3 54.9085 700.784 52.1527 698.338 50.033C695.892 47.8806 692.826 46.8044 689.141 46.8044ZM729.694 33.2541V23.2259H738.695V39.271H748.724V48.2719H738.695V73.2201C738.695 75.0138 739.266 76.4813 740.407 77.6227C741.549 78.7642 742.984 79.3349 744.712 79.3349C745.462 79.3349 746.245 79.2533 747.06 79.0903C747.908 78.9272 748.56 78.7478 749.017 78.5522L749.751 78.3565V87.3574C747.761 88.0097 745.413 88.3358 742.707 88.3358C733.347 88.3358 728.683 83.3298 728.716 73.3179V48.2719H719.666V39.271H724.705C728.031 39.271 729.694 37.2653 729.694 33.2541ZM772.253 39.271V87.3574H762.225V39.271H772.253ZM771.568 19.9484C772.71 21.0898 773.28 22.5247 773.28 24.2531C773.28 25.9816 772.71 27.4165 771.568 28.5579C770.427 29.6994 768.992 30.2701 767.263 30.2701C765.535 30.2701 764.1 29.6994 762.959 28.5579C761.817 27.4165 761.247 25.9816 761.247 24.2531C761.247 22.5247 761.817 21.0898 762.959 19.9484C764.1 18.8069 765.535 18.2362 767.263 18.2362C768.992 18.2362 770.427 18.8069 771.568 19.9484ZM796.81 39.271V44.2606L797.446 43.6247C797.739 43.3312 798.359 42.8583 799.305 42.2061C800.251 41.5212 801.245 40.9179 802.289 40.3961C803.365 39.8417 804.718 39.3525 806.349 38.9286C808.012 38.472 809.675 38.2437 811.339 38.2437C817.144 38.2437 821.84 40.1515 825.427 43.9671C829.047 47.7827 830.857 52.9028 830.857 59.3274V87.3574H820.829V59.3274C820.829 55.8705 819.72 53.0007 817.502 50.7178C815.317 48.435 812.594 47.2935 809.333 47.2935C805.517 47.2935 802.468 48.5328 800.185 51.0113C797.935 53.4572 796.81 56.8978 796.81 61.333V87.3574H786.782V39.271H796.81ZM878.943 84.4713V80.3621L878.307 80.9981C878.014 81.2916 877.394 81.7808 876.449 82.4656C875.535 83.1179 874.541 83.7212 873.465 84.2756C872.388 84.7974 871.035 85.2866 869.404 85.7431C867.774 86.1671 866.111 86.3791 864.415 86.3791C858.349 86.3791 853.082 84.0473 848.614 79.3838C844.146 74.6876 841.912 68.9968 841.912 62.3114C841.912 55.6259 844.146 49.9514 848.614 45.2879C853.082 40.5918 858.349 38.2437 864.415 38.2437C867.089 38.2437 869.633 38.7492 872.046 39.7602C874.459 40.7711 876.204 41.7821 877.28 42.7931L878.943 44.2606V39.271H888.972V84.3734C888.972 91.1241 886.656 96.8149 882.025 101.446C877.394 106.077 871.703 108.392 864.953 108.392C862.213 108.392 859.604 108.033 857.126 107.316C854.647 106.631 852.609 105.8 851.011 104.821C849.413 103.875 848.011 102.913 846.804 101.935C845.598 100.957 844.733 100.109 844.212 99.3913L843.38 98.364L849.935 91.8579C850.065 92.0536 850.277 92.3145 850.571 92.6406C850.864 92.9993 851.484 93.6026 852.43 94.4505C853.408 95.3311 854.435 96.0974 855.512 96.7497C856.588 97.4345 857.974 98.0379 859.67 98.5597C861.365 99.1141 863.127 99.3913 864.953 99.3913C869.029 99.3913 872.372 98.0052 874.981 95.2332C877.623 92.4612 878.943 88.8739 878.943 84.4713ZM855.952 51.6473C853.245 54.5497 851.892 58.1044 851.892 62.3114C851.892 66.5183 853.245 70.073 855.952 72.9755C858.659 75.878 861.822 77.3292 865.442 77.3292C869.062 77.3292 872.209 75.878 874.883 72.9755C877.59 70.073 878.943 66.5183 878.943 62.3114C878.943 58.1044 877.59 54.5497 874.883 51.6473C872.209 48.7448 869.062 47.2935 865.442 47.2935C861.822 47.2935 858.659 48.7448 855.952 51.6473ZM471.211 144.799L464.705 151.305C464.444 151.044 464.053 150.685 463.531 150.229C463.042 149.739 461.999 149.136 460.401 148.419C458.835 147.669 457.254 147.294 455.656 147.294C453.503 147.294 451.791 147.799 450.519 148.81C449.28 149.788 448.66 150.946 448.66 152.283C448.66 153.686 449.264 154.86 450.47 155.805C451.677 156.751 453.193 157.468 455.02 157.958C456.846 158.447 458.803 159.066 460.89 159.817C463.01 160.534 464.983 161.349 466.809 162.262C468.668 163.176 470.2 164.578 471.407 166.469C472.614 168.361 473.217 170.644 473.217 173.318C473.217 177.46 471.538 180.998 468.179 183.933C464.852 186.868 460.515 188.336 455.166 188.336C452.818 188.336 450.568 188.042 448.416 187.455C446.296 186.868 444.551 186.167 443.181 185.352C441.812 184.536 440.605 183.721 439.561 182.906C438.551 182.058 437.817 181.341 437.36 180.753L436.626 179.824L443.133 173.318C443.459 173.775 443.932 174.345 444.551 175.03C445.203 175.715 446.573 176.612 448.66 177.721C450.78 178.797 452.949 179.335 455.166 179.335C457.841 179.335 459.846 178.797 461.183 177.721C462.52 176.612 463.189 175.144 463.189 173.318C463.189 171.916 462.586 170.758 461.379 169.845C460.172 168.899 458.656 168.182 456.83 167.692C455.003 167.171 453.03 166.551 450.91 165.833C448.823 165.083 446.85 164.268 444.991 163.388C443.165 162.474 441.649 161.072 440.442 159.181C439.235 157.257 438.632 154.957 438.632 152.283C438.632 148.598 440.246 145.337 443.475 142.5C446.736 139.662 450.796 138.244 455.656 138.244C457.58 138.244 459.439 138.472 461.232 138.929C463.058 139.353 464.542 139.891 465.684 140.543C466.825 141.162 467.82 141.815 468.668 142.5C469.548 143.152 470.184 143.674 470.576 144.065L471.211 144.799ZM490.192 133.254V123.226H499.193V139.271H509.221V148.272H499.193V173.22C499.193 175.014 499.763 176.481 500.905 177.623C502.046 178.764 503.481 179.335 505.21 179.335C505.96 179.335 506.742 179.253 507.558 179.09C508.405 178.927 509.058 178.748 509.514 178.552L510.248 178.357V187.357C508.259 188.01 505.911 188.336 503.204 188.336C493.844 188.336 489.181 183.33 489.213 173.318V148.272H480.163V139.271H485.202C488.528 139.271 490.192 137.265 490.192 133.254ZM549.285 147.783C547.948 147.457 546.447 147.294 544.784 147.294C540.969 147.294 537.919 148.533 535.637 151.011C533.386 153.457 532.261 156.898 532.261 161.333V187.357H522.233V139.271H532.261V144.261L532.897 143.625C533.191 143.331 533.81 142.858 534.756 142.206C535.702 141.521 536.696 140.918 537.74 140.396C538.816 139.842 540.17 139.353 541.8 138.929C543.463 138.472 545.127 138.244 546.79 138.244H549.285V147.783ZM595.855 187.357H585.826V182.368C585.696 182.498 585.468 182.71 585.142 183.004C584.848 183.297 584.228 183.786 583.283 184.471C582.37 185.123 581.375 185.727 580.299 186.281C579.222 186.803 577.869 187.276 576.238 187.7C574.608 188.124 572.961 188.336 571.298 188.336C566.406 188.336 562.346 186.917 559.117 184.08C555.889 181.243 554.274 177.998 554.274 174.345C554.274 170.399 555.514 167.089 557.992 164.415C560.503 161.741 563.927 160.045 568.265 159.327L585.826 156.294C585.826 153.751 584.881 151.615 582.989 149.886C581.13 148.158 578.733 147.294 575.798 147.294C573.254 147.294 570.939 147.832 568.852 148.908C566.797 149.951 565.379 151.011 564.596 152.088L563.275 153.8L556.769 147.294C556.965 147.033 557.226 146.707 557.552 146.315C557.911 145.891 558.677 145.174 559.851 144.163C561.058 143.119 562.329 142.19 563.667 141.374C565.004 140.559 566.765 139.842 568.95 139.222C571.167 138.57 573.45 138.244 575.798 138.244C581.668 138.244 586.479 139.988 590.229 143.478C593.979 146.935 595.855 151.207 595.855 156.294V187.357ZM572.814 179.335C576.891 179.335 580.07 178.128 582.353 175.715C584.669 173.269 585.826 169.796 585.826 165.295V164.317L570.27 166.812C568.477 167.138 567.026 167.872 565.917 169.013C564.808 170.155 564.254 171.59 564.254 173.318C564.254 174.916 565.02 176.318 566.553 177.525C568.118 178.732 570.205 179.335 572.814 179.335ZM615.911 133.254V123.226H624.912V139.271H634.94V148.272H624.912V173.22C624.912 175.014 625.483 176.481 626.624 177.623C627.766 178.764 629.2 179.335 630.929 179.335C631.679 179.335 632.462 179.253 633.277 179.09C634.125 178.927 634.777 178.748 635.234 178.552L635.967 178.357V187.357C633.978 188.01 631.63 188.336 628.923 188.336C619.564 188.336 614.9 183.33 614.933 173.318V148.272H605.883V139.271H610.921C614.248 139.271 615.911 137.265 615.911 133.254ZM690.462 166.812H652.893C653.415 170.203 655.078 173.139 657.883 175.617C660.72 178.096 664.079 179.335 667.96 179.335C670.764 179.335 673.373 178.699 675.787 177.427C678.233 176.155 679.961 174.916 680.972 173.709L682.488 171.85L688.995 178.357C688.799 178.617 688.489 178.992 688.065 179.482C687.674 179.938 686.81 180.737 685.472 181.879C684.135 182.987 682.717 183.982 681.217 184.863C679.716 185.711 677.76 186.51 675.346 187.26C672.966 187.977 670.504 188.336 667.96 188.336C661.144 188.336 655.257 185.841 650.3 180.851C645.376 175.829 642.914 169.812 642.914 162.801C642.914 156.05 645.311 150.278 650.105 145.484C654.931 140.657 660.704 138.244 667.422 138.244C674.172 138.244 679.782 140.494 684.25 144.994C688.75 149.462 691 155.072 691 161.822L690.462 166.812ZM667.422 146.804C663.802 146.804 660.753 147.881 658.274 150.033C655.828 152.153 654.181 154.908 653.333 158.3H681.168C680.581 154.908 679.064 152.153 676.618 150.033C674.172 147.881 671.107 146.804 667.422 146.804ZM736.005 184.471V180.362L735.369 180.998C735.075 181.292 734.456 181.781 733.51 182.466C732.597 183.118 731.602 183.721 730.526 184.276C729.45 184.797 728.096 185.287 726.466 185.743C724.835 186.167 723.172 186.379 721.476 186.379C715.41 186.379 710.144 184.047 705.676 179.384C701.208 174.688 698.974 168.997 698.974 162.311C698.974 155.626 701.208 149.951 705.676 145.288C710.144 140.592 715.41 138.244 721.476 138.244C724.15 138.244 726.694 138.749 729.107 139.76C731.521 140.771 733.265 141.782 734.342 142.793L736.005 144.261V139.271H746.033V184.373C746.033 191.124 743.718 196.815 739.087 201.446C734.456 206.077 728.765 208.392 722.014 208.392C719.275 208.392 716.666 208.033 714.187 207.316C711.709 206.631 709.671 205.8 708.073 204.821C706.475 203.875 705.072 202.913 703.866 201.935C702.659 200.957 701.795 200.109 701.273 199.391L700.441 198.364L706.996 191.858C707.127 192.054 707.339 192.314 707.632 192.641C707.926 192.999 708.546 193.603 709.491 194.451C710.47 195.331 711.497 196.097 712.573 196.75C713.649 197.435 715.035 198.038 716.731 198.56C718.427 199.114 720.188 199.391 722.014 199.391C726.091 199.391 729.434 198.005 732.042 195.233C734.684 192.461 736.005 188.874 736.005 184.471ZM713.013 151.647C710.307 154.55 708.953 158.104 708.953 162.311C708.953 166.518 710.307 170.073 713.013 172.976C715.72 175.878 718.884 177.329 722.503 177.329C726.123 177.329 729.27 175.878 731.945 172.976C734.651 170.073 736.005 166.518 736.005 162.311C736.005 158.104 734.651 154.55 731.945 151.647C729.27 148.745 726.123 147.294 722.503 147.294C718.884 147.294 715.72 148.745 713.013 151.647ZM771.617 192.347L773.623 187.357L754.056 139.271H764.573L778.612 174.345L792.652 139.271H803.169L781.596 192.347C779.118 198.282 776.656 202.44 774.21 204.821C771.797 207.202 768.764 208.392 765.111 208.392C763.774 208.392 762.518 208.311 761.344 208.148C760.17 207.985 759.306 207.805 758.752 207.609L758.067 207.414V198.364C759.73 199.016 761.41 199.359 763.105 199.391C766.921 199.359 769.758 197.011 771.617 192.347Z" fill="white"/>
<path fill-rule="evenodd" clip-rule="evenodd" d="M303.639 204.361C357.384 204.361 400.952 160.793 400.952 107.048C400.952 53.3039 357.384 9.73535 303.639 9.73535C249.895 9.73535 206.326 53.3039 206.326 107.048C206.326 160.793 249.895 204.361 303.639 204.361ZM324.512 46.9512L318.231 42.0979L263.996 112.286L324.391 103.658L281.188 167.191L287.752 171.654L341.061 93.2581L282.236 101.662L324.512 46.9512Z" fill="white"/>
</svg>
