<svg width="546" height="101" viewBox="0 0 546 101" fill="none" xmlns="http://www.w3.org/2000/svg">
<circle cx="46.1176" cy="50.9194" r="44.2778" stroke="black" stroke-width="3.67957"/>
<path d="M43.1672 78.9689L71.0883 51.0479M71.0883 51.0479L43.1672 23.1268M71.0883 51.0479H15.2461" stroke="black" stroke-width="3.66991"/>
<path d="M238.264 41V27.7163C238.264 25.8462 237.831 24.4321 236.965 23.4738C236.115 22.5002 234.964 22.0133 233.511 22.0133C232.028 22.0133 230.783 22.6084 229.779 23.7984C228.79 24.973 228.295 26.5958 228.295 28.6668V41H223.543V27.7163C223.543 25.8462 223.11 24.4321 222.244 23.4738C221.394 22.5002 220.243 22.0133 218.79 22.0133C217.306 22.0133 216.062 22.6084 215.058 23.7984C214.069 24.973 213.574 26.5958 213.574 28.6668V41H208.822V18.2114H213.574V20.576C213.76 20.3596 214.015 20.0969 214.339 19.7878C214.679 19.4632 215.375 19.0382 216.426 18.5127C217.492 17.9873 218.597 17.7245 219.741 17.7245C220.653 17.7245 221.518 17.8559 222.337 18.1186C223.172 18.3659 223.836 18.6827 224.331 19.0691C224.825 19.44 225.25 19.8187 225.606 20.2051C225.977 20.5915 226.24 20.9083 226.394 21.1556L226.626 21.5265C226.688 21.4338 226.788 21.3024 226.927 21.1324C227.082 20.9624 227.399 20.6533 227.878 20.2051C228.372 19.7569 228.898 19.3705 229.454 19.0459C230.011 18.7059 230.737 18.4045 231.633 18.1418C232.545 17.8636 233.488 17.7245 234.462 17.7245C237.12 17.7245 239.206 18.5746 240.721 20.2746C242.251 21.9747 243.016 24.4552 243.016 27.7163V41H238.264ZM267.961 41H263.208V38.6354C263.146 38.6972 263.038 38.7976 262.884 38.9367C262.745 39.0758 262.451 39.3077 262.003 39.6322C261.57 39.9413 261.099 40.2272 260.589 40.49C260.079 40.7373 259.437 40.9614 258.664 41.1623C257.892 41.3632 257.111 41.4637 256.323 41.4637C254.005 41.4637 252.081 40.7914 250.551 39.4468C249.02 38.1022 248.255 36.5644 248.255 34.8334C248.255 32.9633 248.843 31.3946 250.017 30.1273C251.207 28.86 252.83 28.0563 254.886 27.7163L263.208 26.279C263.208 25.0735 262.76 24.0611 261.864 23.242C260.983 22.4229 259.847 22.0133 258.456 22.0133C257.25 22.0133 256.153 22.2683 255.164 22.7784C254.19 23.2729 253.518 23.7752 253.147 24.2852L252.521 25.0966L249.438 22.0133C249.53 21.8897 249.654 21.7351 249.809 21.5497C249.979 21.3488 250.342 21.0087 250.898 20.5296C251.47 20.0351 252.073 19.5946 252.707 19.2082C253.34 18.8218 254.175 18.4818 255.21 18.1882C256.261 17.8791 257.343 17.7245 258.456 17.7245C261.238 17.7245 263.517 18.5514 265.295 20.2051C267.072 21.8433 267.961 23.8679 267.961 26.279V41ZM257.042 37.198C258.974 37.198 260.48 36.6262 261.562 35.4825C262.66 34.3234 263.208 32.6774 263.208 30.5446V30.0809L255.836 31.2632C254.986 31.4178 254.298 31.7655 253.773 32.3065C253.247 32.8474 252.985 33.5274 252.985 34.3466C252.985 35.1039 253.348 35.7684 254.074 36.3403C254.816 36.9121 255.805 37.198 257.042 37.198ZM287.434 22.2452C286.801 22.0906 286.09 22.0133 285.301 22.0133C283.493 22.0133 282.048 22.6006 280.966 23.7752C279.9 24.9344 279.367 26.5649 279.367 28.6668V41H274.614V18.2114H279.367V20.576L279.668 20.2746C279.807 20.1355 280.101 19.9114 280.549 19.6023C280.997 19.2778 281.469 18.9918 281.963 18.7446C282.473 18.4818 283.115 18.25 283.887 18.0491C284.676 17.8327 285.464 17.7245 286.252 17.7245H287.434V22.2452ZM311.869 18.2114L303.083 27.7163L312.588 41H307.348L299.999 30.7996L296.429 34.6016V41H291.7V7.75594H296.429V28.4118L306.166 18.2114H311.869ZM337.509 31.2632H319.705C319.952 32.8706 320.74 34.2615 322.069 35.4361C323.414 36.6107 325.006 37.198 326.845 37.198C328.174 37.198 329.411 36.8967 330.554 36.2939C331.713 35.6912 332.532 35.1039 333.012 34.532L333.73 33.6511L336.814 36.7344C336.721 36.858 336.574 37.0357 336.373 37.2676C336.188 37.4839 335.778 37.8626 335.144 38.4035C334.511 38.929 333.838 39.4004 333.127 39.8177C332.417 40.2195 331.489 40.5982 330.346 40.9536C329.217 41.2936 328.05 41.4637 326.845 41.4637C323.615 41.4637 320.825 40.2813 318.476 37.9167C316.142 35.5366 314.975 32.6851 314.975 29.3623C314.975 26.163 316.111 23.4275 318.383 21.1556C320.671 18.8682 323.406 17.7245 326.59 17.7245C329.789 17.7245 332.447 18.7909 334.565 20.9237C336.698 23.0411 337.764 25.6994 337.764 28.8986L337.509 31.2632ZM326.59 21.7815C324.874 21.7815 323.429 22.2915 322.255 23.3116C321.096 24.3161 320.315 25.6221 319.913 27.2294H333.104C332.826 25.6221 332.107 24.3161 330.948 23.3116C329.789 22.2915 328.336 21.7815 326.59 21.7815ZM345.808 15.3599V10.6074H350.074V18.2114H354.827V22.477H350.074V34.3002C350.074 35.1502 350.345 35.8457 350.885 36.3866C351.426 36.9276 352.106 37.198 352.926 37.198C353.281 37.198 353.652 37.1594 354.038 37.0821C354.44 37.0048 354.749 36.9198 354.966 36.8271L355.313 36.7344V41C354.371 41.3091 353.258 41.4637 351.975 41.4637C347.539 41.4637 345.329 39.0913 345.345 34.3466V22.477H341.056V18.2114H343.444C345.02 18.2114 345.808 17.2609 345.808 15.3599ZM365.977 18.2114V41H361.225V18.2114H365.977ZM365.653 9.05417C366.194 9.5951 366.464 10.2751 366.464 11.0943C366.464 11.9134 366.194 12.5934 365.653 13.1343C365.112 13.6753 364.432 13.9457 363.613 13.9457C362.794 13.9457 362.114 13.6753 361.573 13.1343C361.032 12.5934 360.761 11.9134 360.761 11.0943C360.761 10.2751 361.032 9.5951 361.573 9.05417C362.114 8.51324 362.794 8.24277 363.613 8.24277C364.432 8.24277 365.112 8.51324 365.653 9.05417ZM377.615 18.2114V20.576L377.917 20.2746C378.056 20.1355 378.349 19.9114 378.798 19.6023C379.246 19.2778 379.717 18.9918 380.212 18.7446C380.722 18.4818 381.363 18.25 382.136 18.0491C382.924 17.8327 383.712 17.7245 384.5 17.7245C387.251 17.7245 389.477 18.6286 391.177 20.4369C392.893 22.2452 393.75 24.6716 393.75 27.7163V41H388.998V27.7163C388.998 26.078 388.472 24.718 387.421 23.6361C386.386 22.5543 385.095 22.0133 383.55 22.0133C381.742 22.0133 380.297 22.6006 379.215 23.7752C378.148 24.9344 377.615 26.5649 377.615 28.6668V41H372.863V18.2114H377.615ZM416.539 39.6322V37.6849L416.238 37.9862C416.099 38.1253 415.805 38.3572 415.357 38.6817C414.924 38.9908 414.453 39.2767 413.943 39.5395C413.433 39.7868 412.791 40.0186 412.018 40.235C411.246 40.4359 410.457 40.5363 409.654 40.5363C406.779 40.5363 404.283 39.4313 402.166 37.2212C400.048 34.9957 398.99 32.2987 398.99 29.1304C398.99 25.9621 400.048 23.2729 402.166 21.0628C404.283 18.8373 406.779 17.7245 409.654 17.7245C410.921 17.7245 412.127 17.9641 413.27 18.4432C414.414 18.9223 415.241 19.4014 415.751 19.8805L416.539 20.576V18.2114H421.291V39.5859C421.291 42.7851 420.194 45.482 418 47.6766C415.805 49.8713 413.108 50.9686 409.909 50.9686C408.611 50.9686 407.374 50.7986 406.2 50.4586C405.025 50.134 404.059 49.7399 403.302 49.2762C402.544 48.828 401.88 48.3721 401.308 47.9085C400.736 47.4448 400.327 47.043 400.079 46.703L399.685 46.2161L402.792 43.1328C402.853 43.2255 402.954 43.3492 403.093 43.5037C403.232 43.6737 403.526 43.9597 403.974 44.3615C404.438 44.7788 404.924 45.142 405.434 45.4511C405.945 45.7756 406.601 46.0616 407.405 46.3088C408.209 46.5716 409.043 46.703 409.909 46.703C411.841 46.703 413.425 46.0461 414.661 44.7324C415.913 43.4187 416.539 41.7187 416.539 39.6322ZM405.643 24.0766C404.36 25.4521 403.719 27.1367 403.719 29.1304C403.719 31.1241 404.36 32.8088 405.643 34.1843C406.926 35.5598 408.425 36.2475 410.141 36.2475C411.856 36.2475 413.348 35.5598 414.615 34.1843C415.898 32.8088 416.539 31.1241 416.539 29.1304C416.539 27.1367 415.898 25.4521 414.615 24.0766C413.348 22.7011 411.856 22.0133 410.141 22.0133C408.425 22.0133 406.926 22.7011 405.643 24.0766ZM223.311 67.831L220.227 70.9143C220.104 70.7907 219.918 70.6207 219.671 70.4043C219.439 70.1725 218.945 69.8865 218.187 69.5465C217.446 69.1911 216.696 69.0133 215.939 69.0133C214.919 69.0133 214.107 69.2529 213.505 69.732C212.917 70.1956 212.624 70.7443 212.624 71.378C212.624 72.0425 212.909 72.5989 213.481 73.0471C214.053 73.4953 214.772 73.8353 215.637 74.0672C216.503 74.299 217.43 74.5926 218.419 74.9481C219.424 75.2881 220.359 75.6745 221.224 76.1072C222.105 76.54 222.832 77.2046 223.404 78.101C223.975 78.9974 224.261 80.0792 224.261 81.3466C224.261 83.3094 223.465 84.9862 221.873 86.3772C220.297 87.7682 218.242 88.4637 215.707 88.4637C214.594 88.4637 213.528 88.3246 212.508 88.0464C211.503 87.7682 210.676 87.4359 210.027 87.0495C209.378 86.6631 208.806 86.2767 208.312 85.8904C207.832 85.4885 207.485 85.1485 207.268 84.8703L206.921 84.4299L210.004 81.3466C210.158 81.5629 210.383 81.8334 210.676 82.1579C210.985 82.4825 211.634 82.9075 212.624 83.433C213.628 83.943 214.656 84.198 215.707 84.198C216.974 84.198 217.925 83.943 218.558 83.433C219.192 82.9075 219.509 82.212 219.509 81.3466C219.509 80.682 219.223 80.1333 218.651 79.7006C218.079 79.2524 217.361 78.9124 216.495 78.6805C215.63 78.4333 214.695 78.1396 213.69 77.7996C212.701 77.4441 211.766 77.0577 210.885 76.6405C210.019 76.2077 209.301 75.5431 208.729 74.6467C208.157 73.7349 207.871 72.6453 207.871 71.378C207.871 69.6315 208.636 68.086 210.166 66.7414C211.712 65.3968 213.636 64.7245 215.939 64.7245C216.851 64.7245 217.731 64.8327 218.582 65.0491C219.447 65.25 220.15 65.505 220.691 65.8141C221.232 66.1078 221.703 66.4169 222.105 66.7414C222.523 67.0505 222.824 67.2978 223.009 67.4833L223.311 67.831ZM232.306 62.3599V57.6074H236.571V65.2114H241.324V69.477H236.571V81.3002C236.571 82.1502 236.842 82.8457 237.383 83.3866C237.924 83.9276 238.604 84.198 239.423 84.198C239.778 84.198 240.149 84.1594 240.536 84.0821C240.937 84.0048 241.247 83.9198 241.463 83.8271L241.811 83.7344V88C240.868 88.3091 239.755 88.4637 238.472 88.4637C234.037 88.4637 231.827 86.0913 231.842 81.3466V69.477H227.553V65.2114H229.941C231.517 65.2114 232.306 64.2609 232.306 62.3599ZM260.31 69.2452C259.677 69.0906 258.966 69.0133 258.178 69.0133C256.369 69.0133 254.924 69.6006 253.842 70.7752C252.776 71.9344 252.243 73.5649 252.243 75.6668V88H247.49V65.2114H252.243V67.576L252.544 67.2746C252.683 67.1355 252.977 66.9114 253.425 66.6023C253.873 66.2778 254.345 65.9918 254.839 65.7446C255.349 65.4818 255.991 65.25 256.764 65.0491C257.552 64.8327 258.34 64.7245 259.128 64.7245H260.31V69.2452ZM282.38 88H277.628V85.6354C277.566 85.6972 277.458 85.7976 277.303 85.9367C277.164 86.0758 276.871 86.3077 276.422 86.6322C275.99 86.9413 275.518 87.2272 275.008 87.49C274.498 87.7373 273.857 87.9614 273.084 88.1623C272.311 88.3632 271.531 88.4637 270.743 88.4637C268.424 88.4637 266.5 87.7914 264.97 86.4468C263.44 85.1022 262.675 83.5644 262.675 81.8334C262.675 79.9633 263.262 78.3946 264.437 77.1273C265.627 75.86 267.25 75.0563 269.305 74.7163L277.628 73.279C277.628 72.0735 277.18 71.0611 276.283 70.242C275.402 69.4229 274.266 69.0133 272.876 69.0133C271.67 69.0133 270.573 69.2683 269.584 69.7784C268.61 70.2729 267.938 70.7752 267.567 71.2852L266.941 72.0966L263.857 69.0133C263.95 68.8897 264.074 68.7351 264.228 68.5497C264.398 68.3488 264.762 68.0087 265.318 67.5296C265.89 67.0351 266.493 66.5946 267.126 66.2082C267.76 65.8218 268.594 65.4818 269.63 65.1882C270.681 64.8791 271.763 64.7245 272.876 64.7245C275.657 64.7245 277.937 65.5514 279.714 67.2051C281.492 68.8433 282.38 70.8679 282.38 73.279V88ZM271.461 84.198C273.393 84.198 274.9 83.6262 275.982 82.4825C277.079 81.3234 277.628 79.6774 277.628 77.5446V77.0809L270.256 78.2632C269.406 78.4178 268.718 78.7655 268.193 79.3065C267.667 79.8474 267.404 80.5274 267.404 81.3466C267.404 82.1039 267.768 82.7684 268.494 83.3403C269.236 83.9121 270.225 84.198 271.461 84.198ZM291.885 62.3599V57.6074H296.151V65.2114H300.903V69.477H296.151V81.3002C296.151 82.1502 296.421 82.8457 296.962 83.3866C297.503 83.9276 298.183 84.198 299.002 84.198C299.358 84.198 299.729 84.1594 300.115 84.0821C300.517 84.0048 300.826 83.9198 301.043 83.8271L301.39 83.7344V88C300.448 88.3091 299.335 88.4637 298.052 88.4637C293.616 88.4637 291.406 86.0913 291.422 81.3466V69.477H287.133V65.2114H289.521C291.097 65.2114 291.885 64.2609 291.885 62.3599ZM327.216 78.2632H309.412C309.659 79.8706 310.447 81.2615 311.776 82.4361C313.121 83.6107 314.713 84.198 316.552 84.198C317.881 84.198 319.117 83.8967 320.261 83.2939C321.42 82.6912 322.239 82.1039 322.718 81.532L323.437 80.6511L326.52 83.7344C326.428 83.858 326.281 84.0357 326.08 84.2676C325.894 84.4839 325.485 84.8626 324.851 85.4035C324.218 85.929 323.545 86.4004 322.834 86.8177C322.123 87.2195 321.196 87.5982 320.052 87.9536C318.924 88.2936 317.757 88.4637 316.552 88.4637C313.322 88.4637 310.532 87.2813 308.183 84.9167C305.849 82.5366 304.682 79.6851 304.682 76.3623C304.682 73.163 305.818 70.4275 308.09 68.1556C310.377 65.8682 313.113 64.7245 316.297 64.7245C319.496 64.7245 322.154 65.7909 324.272 67.9237C326.404 70.0411 327.471 72.6994 327.471 75.8986L327.216 78.2632ZM316.297 68.7815C314.581 68.7815 313.136 69.2915 311.962 70.3116C310.803 71.3161 310.022 72.6221 309.62 74.2294H322.811C322.533 72.6221 321.814 71.3161 320.655 70.3116C319.496 69.2915 318.043 68.7815 316.297 68.7815ZM348.799 86.6322V84.6849L348.498 84.9862C348.359 85.1253 348.065 85.3572 347.617 85.6817C347.184 85.9908 346.713 86.2767 346.203 86.5395C345.693 86.7868 345.051 87.0186 344.278 87.235C343.506 87.4359 342.717 87.5363 341.914 87.5363C339.039 87.5363 336.543 86.4313 334.426 84.2212C332.308 81.9957 331.25 79.2987 331.25 76.1304C331.25 72.9621 332.308 70.2729 334.426 68.0628C336.543 65.8373 339.039 64.7245 341.914 64.7245C343.181 64.7245 344.387 64.9641 345.53 65.4432C346.674 65.9223 347.501 66.4014 348.011 66.8805L348.799 67.576V65.2114H353.551V86.5859C353.551 89.7851 352.454 92.482 350.26 94.6766C348.065 96.8713 345.368 97.9686 342.169 97.9686C340.871 97.9686 339.634 97.7986 338.46 97.4586C337.285 97.134 336.319 96.7399 335.562 96.2762C334.804 95.828 334.14 95.3721 333.568 94.9085C332.996 94.4448 332.587 94.043 332.339 93.703L331.945 93.2161L335.052 90.1328C335.113 90.2255 335.214 90.3492 335.353 90.5037C335.492 90.6737 335.786 90.9597 336.234 91.3615C336.698 91.7788 337.184 92.142 337.694 92.4511C338.205 92.7756 338.861 93.0616 339.665 93.3088C340.469 93.5716 341.303 93.703 342.169 93.703C344.101 93.703 345.685 93.0461 346.921 91.7324C348.173 90.4187 348.799 88.7187 348.799 86.6322ZM337.903 71.0766C336.62 72.4521 335.979 74.1367 335.979 76.1304C335.979 78.1241 336.62 79.8088 337.903 81.1843C339.186 82.5598 340.685 83.2475 342.401 83.2475C344.116 83.2475 345.608 82.5598 346.875 81.1843C348.158 79.8088 348.799 78.1241 348.799 76.1304C348.799 74.1367 348.158 72.4521 346.875 71.0766C345.608 69.7011 344.116 69.0133 342.401 69.0133C340.685 69.0133 339.186 69.7011 337.903 71.0766ZM365.676 90.3646L366.627 88L357.353 65.2114H362.338L368.991 81.8334L375.645 65.2114H380.629L370.405 90.3646C369.231 93.1775 368.064 95.148 366.905 96.2762C365.761 97.4045 364.324 97.9686 362.593 97.9686C361.959 97.9686 361.364 97.9299 360.808 97.8527C360.251 97.7754 359.842 97.6904 359.579 97.5977L359.254 97.5049V93.2161C360.043 93.5252 360.839 93.6875 361.642 93.703C363.451 93.6875 364.795 92.5747 365.676 90.3646Z" fill="black"/>
<path fill-rule="evenodd" clip-rule="evenodd" d="M143.899 96.6795C169.369 96.6795 190.016 76.032 190.016 50.5619C190.016 25.0919 169.369 4.44434 143.899 4.44434C118.429 4.44434 97.7812 25.0919 97.7812 50.5619C97.7812 76.032 118.429 96.6795 143.899 96.6795ZM153.791 22.0813L150.814 19.7813L125.111 53.0439L153.733 48.9551L133.259 79.0642L136.37 81.1794L161.634 44.0266L133.756 48.0092L153.791 22.0813Z" fill="black"/>
</svg>
