<svg width="871" height="216" viewBox="0 0 871 216" fill="none" xmlns="http://www.w3.org/2000/svg">
<path d="M192.898 98.7855C192.898 150.96 150.602 193.256 98.4277 193.256C46.253 193.256 3.95706 150.96 3.95706 98.7855C3.95706 46.6106 46.253 4.31448 98.4277 4.31448C150.602 4.31448 192.898 46.6106 192.898 98.7855Z" stroke="white" stroke-width="7.91412"/>
<path d="M92.1319 158.651L151.723 99.0591M151.723 99.0591L92.1318 39.4676M151.723 99.0591H32.5405" stroke="white" stroke-width="7.89334"/>
<path opacity="0.28" d="M473.297 43.7514C479.779 43.7514 485.397 46.2445 490.151 51.2307C494.904 56.1837 497.281 62.2004 497.281 69.2808C497.281 76.3612 494.888 82.3946 490.101 87.3808C485.347 92.3337 479.746 94.8102 473.297 94.8102C471.469 94.8102 469.674 94.5942 467.912 94.162C466.184 93.7299 464.704 93.198 463.475 92.5664C462.245 91.9016 461.148 91.2368 460.184 90.5719C459.253 89.8739 458.588 89.3254 458.189 88.9265L457.441 88.1786V93.813H447.269V22.3107H457.441V50.4329C457.907 49.9676 458.571 49.3526 459.436 48.588C460.3 47.8235 462.112 46.8262 464.871 45.5963C467.63 44.3664 470.439 43.7514 473.297 43.7514ZM461.929 80.8488C464.954 84.04 468.394 85.6356 472.25 85.6356C476.14 85.6356 479.58 84.04 482.572 80.8488C485.563 77.6577 487.059 73.8183 487.059 69.3307C487.059 64.8098 485.563 60.9538 482.572 57.7627C479.58 54.5715 476.14 52.9759 472.25 52.9759C468.394 52.9759 464.954 54.5715 461.929 57.7627C458.937 60.9538 457.441 64.8098 457.441 69.3307C457.441 73.8183 458.937 77.6577 461.929 80.8488ZM536.124 53.4745C534.761 53.1421 533.232 52.9759 531.536 52.9759C527.647 52.9759 524.539 54.2391 522.212 56.7654C519.918 59.2585 518.772 62.7655 518.772 67.2863V93.813H508.55V44.7985H518.772V49.8845L519.42 49.2362C519.719 48.9371 520.351 48.4551 521.315 47.7902C522.279 47.0922 523.292 46.4772 524.356 45.9453C525.453 45.3802 526.833 44.8816 528.495 44.4495C530.19 43.9841 531.885 43.7514 533.581 43.7514H536.124V53.4745ZM583.592 93.813H573.371V88.7271C573.238 88.86 573.005 89.0761 572.673 89.3753C572.373 89.6744 571.742 90.1731 570.778 90.8711C569.847 91.536 568.833 92.1509 567.736 92.716C566.639 93.2479 565.26 93.7299 563.598 94.162C561.936 94.5942 560.257 94.8102 558.562 94.8102C553.575 94.8102 549.437 93.3642 546.146 90.4722C542.855 87.5802 541.21 84.2727 541.21 80.5497C541.21 76.5274 542.473 73.1534 544.999 70.4276C547.559 67.7019 551.049 65.9733 555.47 65.242L573.371 62.1505C573.371 59.5577 572.407 57.3804 570.479 55.6186C568.584 53.8568 566.141 52.9759 563.149 52.9759C560.556 52.9759 558.196 53.5244 556.069 54.6214C553.974 55.6851 552.528 56.7654 551.731 57.8624L550.384 59.6076L543.753 52.9759C543.952 52.71 544.218 52.3776 544.55 51.9787C544.916 51.5465 545.697 50.8152 546.894 49.7847C548.124 48.721 549.42 47.7736 550.783 46.9426C552.146 46.1115 553.941 45.3802 556.168 44.7487C558.429 44.0838 560.756 43.7514 563.149 43.7514C569.132 43.7514 574.035 45.5298 577.858 49.0867C581.681 52.6102 583.592 56.9649 583.592 62.1505V93.813ZM560.107 85.6356C564.263 85.6356 567.504 84.4057 569.83 81.9458C572.191 79.4527 573.371 75.9125 573.371 71.3252V70.3279L557.515 72.8709C555.686 73.2033 554.207 73.9512 553.077 75.1147C551.947 76.2781 551.381 77.7408 551.381 79.5026C551.381 81.1314 552.163 82.5608 553.725 83.7907C555.321 85.0206 557.448 85.6356 560.107 85.6356ZM608.125 44.7985V49.8845L608.773 49.2362C609.072 48.9371 609.704 48.4551 610.668 47.7902C611.632 47.0922 612.645 46.4772 613.709 45.9453C614.806 45.3802 616.186 44.8816 617.848 44.4495C619.543 43.9841 621.238 43.7514 622.934 43.7514C628.851 43.7514 633.637 45.696 637.294 49.5853C640.984 53.4745 642.829 58.6934 642.829 65.242V93.813H632.607V65.242C632.607 61.7184 631.477 58.7932 629.216 56.4663C626.989 54.1394 624.213 52.9759 620.889 52.9759C617 52.9759 613.892 54.2391 611.565 56.7654C609.271 59.2585 608.125 62.7655 608.125 67.2863V93.813H597.903V44.7985H608.125ZM678.081 43.7514C679.909 43.7514 681.688 43.9841 683.416 44.4495C685.178 44.8816 686.657 45.4301 687.854 46.0949C689.084 46.7265 690.181 47.3913 691.145 48.0894C692.109 48.7542 692.79 49.2861 693.189 49.685L693.887 50.4329V22.3107H704.109V93.813H693.887V88.1786C693.422 88.6439 692.757 89.2589 691.893 90.0235C691.062 90.788 689.267 91.7853 686.508 93.0152C683.749 94.2119 680.94 94.8102 678.081 94.8102C671.599 94.8102 665.981 92.3337 661.228 87.3808C656.474 82.3946 654.097 76.3612 654.097 69.2808C654.097 62.2004 656.474 56.1837 661.228 51.2307C665.981 46.2445 671.599 43.7514 678.081 43.7514ZM668.757 80.8488C671.782 84.04 675.222 85.6356 679.078 85.6356C682.968 85.6356 686.408 84.04 689.4 80.8488C692.392 77.6577 693.887 73.8183 693.887 69.3307C693.887 64.8098 692.392 60.9538 689.4 57.7627C686.408 54.5715 682.968 52.9759 679.078 52.9759C675.222 52.9759 671.782 54.5715 668.757 57.7627C665.765 60.9538 664.269 64.8098 664.269 69.3307C664.269 73.8183 665.765 77.6577 668.757 80.8488ZM730.187 44.7985V93.813H719.965V44.7985H730.187ZM729.489 25.103C730.652 26.2664 731.234 27.729 731.234 29.4908C731.234 31.2526 730.652 32.7153 729.489 33.8787C728.326 35.0422 726.863 35.6239 725.101 35.6239C723.339 35.6239 721.877 35.0422 720.713 33.8787C719.55 32.7153 718.968 31.2526 718.968 29.4908C718.968 27.729 719.55 26.2664 720.713 25.103C721.877 23.9395 723.339 23.3578 725.101 23.3578C726.863 23.3578 728.326 23.9395 729.489 25.103ZM755.218 44.7985V49.8845L755.866 49.2362C756.165 48.9371 756.797 48.4551 757.761 47.7902C758.725 47.0922 759.739 46.4772 760.802 45.9453C761.899 45.3802 763.279 44.8816 764.941 44.4495C766.636 43.9841 768.332 43.7514 770.027 43.7514C775.944 43.7514 780.731 45.696 784.387 49.5853C788.077 53.4745 789.922 58.6934 789.922 65.242V93.813H779.7V65.242C779.7 61.7184 778.57 58.7932 776.31 56.4663C774.082 54.1394 771.307 52.9759 767.983 52.9759C764.093 52.9759 760.985 54.2391 758.658 56.7654C756.365 59.2585 755.218 62.7655 755.218 67.2863V93.813H744.996V44.7985H755.218ZM838.936 90.8711V86.6827L838.288 87.3309C837.989 87.6301 837.357 88.1287 836.393 88.8268C835.463 89.4916 834.449 90.1066 833.352 90.6717C832.255 91.2035 830.875 91.7022 829.213 92.1675C827.551 92.5997 825.856 92.8157 824.127 92.8157C817.944 92.8157 812.576 90.439 808.022 85.6855C803.468 80.8987 801.191 75.0981 801.191 68.2836C801.191 61.4691 803.468 55.6851 808.022 50.9316C812.576 46.1448 817.944 43.7514 824.127 43.7514C826.853 43.7514 829.446 44.2667 831.906 45.2971C834.366 46.3276 836.144 47.3581 837.241 48.3886L838.936 49.8845V44.7985H849.158V90.7714C849.158 97.6524 846.798 103.453 842.078 108.173C837.357 112.894 831.557 115.254 824.676 115.254C821.884 115.254 819.224 114.888 816.698 114.157C814.172 113.459 812.094 112.611 810.465 111.614C808.836 110.65 807.407 109.669 806.177 108.672C804.947 107.675 804.066 106.81 803.534 106.079L802.687 105.032L809.368 98.4003C809.501 98.5998 809.717 98.8657 810.016 99.1981C810.316 99.5638 810.947 100.179 811.911 101.043C812.908 101.941 813.955 102.722 815.052 103.387C816.149 104.085 817.562 104.7 819.291 105.231C821.019 105.797 822.814 106.079 824.676 106.079C828.831 106.079 832.238 104.666 834.898 101.841C837.59 99.0153 838.936 95.3587 838.936 90.8711ZM815.501 57.4136C812.742 60.3721 811.363 63.9954 811.363 68.2836C811.363 72.5717 812.742 76.195 815.501 79.1535C818.26 82.112 821.485 83.5913 825.174 83.5913C828.864 83.5913 832.072 82.112 834.798 79.1535C837.557 76.195 838.936 72.5717 838.936 68.2836C838.936 63.9954 837.557 60.3721 834.798 57.4136C832.072 54.4551 828.864 52.9759 825.174 52.9759C821.485 52.9759 818.26 54.4551 815.501 57.4136Z" fill="white"/>
<path d="M492.694 174.819C492.893 175.218 493.209 175.7 493.641 176.265C494.107 176.797 494.938 177.545 496.134 178.509C497.364 179.44 498.594 179.905 499.824 179.905C500.156 179.905 500.472 179.855 500.771 179.756C501.104 179.656 501.37 179.573 501.569 179.506C501.769 179.44 501.868 179.373 501.868 179.307V188.581C500.505 188.914 499.143 189.08 497.78 189.08C495.685 189.08 493.641 188.498 491.647 187.335C489.685 186.138 488.256 184.958 487.358 183.794L486.062 181.949C485.597 182.481 484.882 183.146 483.918 183.944C482.954 184.742 480.926 185.805 477.835 187.135C474.743 188.432 471.519 189.08 468.162 189.08C461.746 189.08 456.56 187.384 452.605 183.994C448.682 180.603 446.721 176.515 446.721 171.728C446.721 169.268 447.186 166.858 448.117 164.498C449.048 162.104 450.145 160.093 451.408 158.464C452.704 156.836 454.001 155.373 455.297 154.077C456.594 152.78 457.691 151.833 458.588 151.234L460.034 150.287C459.269 149.522 458.322 148.509 457.192 147.245C456.062 145.949 454.549 143.689 452.654 140.464C450.76 137.207 449.812 134.364 449.812 131.938C449.812 127.317 451.441 123.445 454.699 120.32C457.956 117.162 462.112 115.583 467.164 115.583C472.151 115.583 476.289 117.095 479.58 120.12C482.871 123.145 484.516 126.735 484.516 130.891C484.516 133.882 483.486 137.007 481.425 140.265C479.397 143.489 477.369 145.949 475.342 147.644L472.25 150.287L486.062 167.14C488.455 163.384 489.652 158.797 489.652 153.378H498.827C498.827 157.002 498.312 160.592 497.281 164.149C496.251 167.706 495.237 170.381 494.239 172.176L492.694 174.819ZM468.162 179.905C470.256 179.905 472.333 179.539 474.394 178.808C476.455 178.044 478.001 177.262 479.032 176.465L480.428 175.318L465.619 156.919C464.954 157.384 464.139 158.066 463.175 158.963C462.211 159.861 460.932 161.523 459.336 163.949C457.74 166.343 456.943 168.603 456.943 170.73C456.943 173.589 457.873 175.833 459.735 177.462C461.596 179.091 464.405 179.905 468.162 179.905ZM474.843 131.938C474.843 129.91 474.128 128.215 472.699 126.852C471.27 125.456 469.425 124.758 467.164 124.758C464.904 124.758 463.059 125.439 461.63 126.802C460.2 128.165 459.486 129.877 459.486 131.938C459.486 133.434 460.117 135.162 461.38 137.123C462.644 139.085 463.923 140.68 465.22 141.91L467.164 143.655C467.696 143.19 468.394 142.542 469.259 141.711C470.123 140.846 471.27 139.384 472.699 137.323C474.128 135.229 474.843 133.434 474.843 131.938ZM542.207 139.068V144.154L542.855 143.506C543.154 143.207 543.786 142.725 544.75 142.06C545.714 141.362 546.728 140.747 547.791 140.215C548.888 139.65 550.268 139.151 551.93 138.719C553.625 138.254 555.321 138.021 557.016 138.021C562.933 138.021 567.72 139.966 571.376 143.855C575.066 147.744 576.911 152.963 576.911 159.512V188.083H566.689V159.512C566.689 155.988 565.559 153.063 563.299 150.736C561.071 148.409 558.296 147.245 554.972 147.245C551.082 147.245 547.974 148.509 545.647 151.035C543.354 153.528 542.207 157.035 542.207 161.556V188.083H531.985V139.068H542.207ZM630.563 188.083H620.341V182.997C620.208 183.13 619.975 183.346 619.643 183.645C619.344 183.944 618.712 184.443 617.748 185.141C616.817 185.805 615.803 186.42 614.706 186.986C613.609 187.517 612.23 187.999 610.568 188.432C608.906 188.864 607.227 189.08 605.532 189.08C600.546 189.08 596.407 187.634 593.116 184.742C589.825 181.85 588.18 178.542 588.18 174.819C588.18 170.797 589.443 167.423 591.969 164.697C594.529 161.971 598.019 160.243 602.44 159.512L620.341 156.42C620.341 153.827 619.377 151.65 617.449 149.888C615.554 148.126 613.111 147.245 610.119 147.245C607.526 147.245 605.166 147.794 603.039 148.891C600.944 149.955 599.498 151.035 598.701 152.132L597.354 153.877L590.723 147.245C590.922 146.98 591.188 146.647 591.52 146.248C591.886 145.816 592.667 145.085 593.864 144.054C595.094 142.991 596.39 142.043 597.753 141.212C599.116 140.381 600.911 139.65 603.138 139.018C605.399 138.353 607.726 138.021 610.119 138.021C616.103 138.021 621.006 139.799 624.828 143.356C628.651 146.88 630.563 151.234 630.563 156.42V188.083ZM607.077 179.905C611.233 179.905 614.474 178.675 616.801 176.215C619.161 173.722 620.341 170.182 620.341 165.595V164.597L604.485 167.14C602.656 167.473 601.177 168.221 600.047 169.384C598.917 170.548 598.352 172.01 598.352 173.772C598.352 175.401 599.133 176.83 600.695 178.06C602.291 179.29 604.418 179.905 607.077 179.905ZM708.198 188.083V159.512C708.198 155.489 707.267 152.448 705.406 150.387C703.577 148.293 701.101 147.245 697.976 147.245C694.785 147.245 692.109 148.525 689.948 151.085C687.821 153.611 686.757 157.102 686.757 161.556V188.083H676.535V159.512C676.535 155.489 675.605 152.448 673.743 150.387C671.915 148.293 669.438 147.245 666.314 147.245C663.123 147.245 660.447 148.525 658.286 151.085C656.158 153.611 655.095 157.102 655.095 161.556V188.083H644.873V139.068H655.095V144.154C655.494 143.689 656.042 143.123 656.74 142.459C657.471 141.761 658.967 140.846 661.228 139.716C663.521 138.586 665.898 138.021 668.358 138.021C670.319 138.021 672.181 138.303 673.943 138.869C675.738 139.4 677.167 140.082 678.231 140.913C679.294 141.711 680.209 142.525 680.973 143.356C681.771 144.187 682.336 144.869 682.668 145.401L683.167 146.198C683.3 145.999 683.516 145.716 683.815 145.351C684.148 144.985 684.829 144.32 685.86 143.356C686.923 142.392 688.054 141.561 689.25 140.863C690.447 140.132 692.009 139.484 693.937 138.918C695.899 138.32 697.926 138.021 700.02 138.021C705.738 138.021 710.226 139.849 713.483 143.506C716.774 147.162 718.42 152.498 718.42 159.512V188.083H708.198ZM743.45 139.068V188.083H733.229V139.068H743.45ZM742.752 119.373C743.916 120.536 744.498 121.999 744.498 123.76C744.498 125.522 743.916 126.985 742.752 128.148C741.589 129.312 740.126 129.893 738.364 129.893C736.603 129.893 735.14 129.312 733.977 128.148C732.813 126.985 732.231 125.522 732.231 123.76C732.231 121.999 732.813 120.536 733.977 119.373C735.14 118.209 736.603 117.627 738.364 117.627C740.126 117.627 741.589 118.209 742.752 119.373ZM768.481 139.068V144.154L769.129 143.506C769.429 143.207 770.06 142.725 771.024 142.06C771.988 141.362 773.002 140.747 774.066 140.215C775.163 139.65 776.542 139.151 778.204 138.719C779.9 138.254 781.595 138.021 783.29 138.021C789.207 138.021 793.994 139.966 797.651 143.855C801.34 147.744 803.185 152.963 803.185 159.512V188.083H792.964V159.512C792.964 155.988 791.833 153.063 789.573 150.736C787.346 148.409 784.57 147.245 781.246 147.245C777.357 147.245 774.249 148.509 771.922 151.035C769.628 153.528 768.481 157.035 768.481 161.556V188.083H758.259V139.068H768.481ZM852.2 185.141V180.952L851.552 181.6C851.252 181.9 850.621 182.398 849.657 183.096C848.726 183.761 847.712 184.376 846.615 184.941C845.518 185.473 844.139 185.972 842.477 186.437C840.815 186.869 839.119 187.085 837.391 187.085C831.208 187.085 825.839 184.709 821.285 179.955C816.731 175.168 814.454 169.368 814.454 162.553C814.454 155.739 816.731 149.955 821.285 145.201C825.839 140.414 831.208 138.021 837.391 138.021C840.116 138.021 842.709 138.536 845.169 139.567C847.629 140.597 849.407 141.628 850.504 142.658L852.2 144.154V139.068H862.421V185.041C862.421 191.922 860.061 197.723 855.341 202.443C850.621 207.163 844.82 209.523 837.939 209.523C835.147 209.523 832.488 209.158 829.961 208.426C827.435 207.728 825.357 206.881 823.728 205.883C822.1 204.919 820.67 203.939 819.44 202.941C818.21 201.944 817.329 201.08 816.798 200.349L815.95 199.301L822.631 192.67C822.764 192.869 822.981 193.135 823.28 193.468C823.579 193.833 824.21 194.448 825.174 195.313C826.172 196.21 827.219 196.991 828.316 197.656C829.413 198.354 830.825 198.969 832.554 199.501C834.283 200.066 836.078 200.349 837.939 200.349C842.094 200.349 845.502 198.936 848.161 196.11C850.853 193.285 852.2 189.628 852.2 185.141ZM828.765 151.683C826.005 154.642 824.626 158.265 824.626 162.553C824.626 166.841 826.005 170.465 828.765 173.423C831.524 176.382 834.748 177.861 838.438 177.861C842.128 177.861 845.335 176.382 848.061 173.423C850.82 170.465 852.2 166.841 852.2 162.553C852.2 158.265 850.82 154.642 848.061 151.683C845.335 148.725 842.128 147.245 838.438 147.245C834.748 147.245 831.524 148.725 828.765 151.683Z" fill="white"/>
<path fill-rule="evenodd" clip-rule="evenodd" d="M301.09 197.214C355.45 197.214 399.518 153.146 399.518 98.7855C399.518 44.4252 355.45 0.357422 301.09 0.357422C246.73 0.357422 202.663 44.4252 202.663 98.7855C202.663 153.146 246.73 197.214 301.09 197.214ZM263.14 55.8283C281.643 42.298 320.399 35.4467 346.217 64.4685C359.037 78.8787 360.419 94.1871 358.391 106.411C356.371 118.587 350.968 127.587 350.016 129.172L349.978 129.235C348.323 131.997 333.77 153.81 305.931 149.961C277.502 146.03 266.111 125.672 265.76 111.96C265.376 96.9901 271.16 79.1279 287.695 73.3795C296.271 70.398 305.258 70.8539 312.702 73.6898C320.187 76.5414 325.78 81.6516 328.085 87.6656C333.24 101.117 330.007 113.246 322.207 119.101C318.427 121.939 312.719 123.124 307.247 122.237C301.788 121.351 297.352 118.556 295.37 114.37C293.207 109.799 293.734 105.741 295.28 102.948C296.911 100.003 299.451 98.7032 301.382 98.805C303.753 98.9299 304.658 100.178 304.834 100.706L304.839 100.721C304.78 100.74 304.705 100.759 304.612 100.778C302.469 101.207 301.08 103.292 301.509 105.435C301.938 107.577 304.023 108.967 306.166 108.538C308.603 108.05 310.688 106.72 311.863 104.581C313.004 102.502 313 100.179 312.342 98.2051C311.018 94.2306 307.024 91.1771 301.798 90.9018C296.132 90.6034 291.075 94.2061 288.357 99.1144C285.555 104.175 284.982 110.922 288.217 117.756C291.634 124.975 298.793 128.883 305.98 130.049C313.153 131.212 321.141 129.796 326.958 125.431C338.351 116.879 341.516 100.596 335.475 84.8333C332.182 76.2406 324.579 69.7456 315.52 66.2942C306.419 62.8273 295.513 62.2827 285.096 65.9042C263.644 73.3619 257.432 95.9181 257.848 112.163C258.297 129.665 272.497 153.327 304.847 157.8C337.787 162.355 354.823 136.546 356.766 133.305L356.811 133.23C357.908 131.402 363.931 121.369 366.198 107.707C368.518 93.7189 366.901 75.8122 352.13 59.2083C322.767 26.2017 279.141 34.3233 258.469 49.44C248.298 56.8771 241.328 67.6543 236.933 77.9003C232.554 88.1075 230.545 98.2297 230.657 104.726C230.695 106.911 232.497 108.652 234.682 108.614C236.867 108.577 238.608 106.775 238.57 104.59C238.482 99.4808 240.148 90.4793 244.206 81.0201C248.247 71.5996 254.471 62.1676 263.14 55.8283ZM304.875 100.911C304.875 100.913 304.875 100.914 304.875 100.914C304.875 100.914 304.876 100.91 304.876 100.901C304.875 100.906 304.875 100.909 304.875 100.911ZM305.016 100.648C305.029 100.637 305.036 100.632 305.037 100.633C305.038 100.633 305.032 100.639 305.016 100.648Z" fill="white"/>
</svg>
