<svg width="497" height="102" viewBox="0 0 497 102" fill="none" xmlns="http://www.w3.org/2000/svg">
<circle cx="46.5099" cy="55.1027" r="44.6545" stroke="black" stroke-width="3.71087"/>
<path d="M43.5336 83.39L71.6922 55.2314M71.6922 55.2314L43.5336 27.0729M71.6922 55.2314L15.375 55.2314" stroke="black" stroke-width="3.70112"/>
<path d="M240.29 42.6123V29.2156C240.29 27.3296 239.854 25.9034 238.981 24.9371C238.124 23.9551 236.963 23.4641 235.497 23.4641C234.001 23.4641 232.746 24.0642 231.733 25.2644C230.736 26.449 230.237 28.0856 230.237 30.1742V42.6123H225.444V29.2156C225.444 27.3296 225.008 25.9034 224.135 24.9371C223.278 23.9551 222.116 23.4641 220.651 23.4641C219.155 23.4641 217.9 24.0642 216.887 25.2644C215.889 26.449 215.391 28.0856 215.391 30.1742V42.6123H210.598V19.6298H215.391V22.0146C215.578 21.7964 215.835 21.5314 216.162 21.2197C216.505 20.8923 217.207 20.4637 218.266 19.9338C219.342 19.4038 220.456 19.1388 221.61 19.1388C222.529 19.1388 223.402 19.2713 224.228 19.5363C225.07 19.7857 225.74 20.1052 226.239 20.4949C226.738 20.869 227.166 21.2508 227.525 21.6405C227.899 22.0302 228.164 22.3497 228.32 22.5991L228.554 22.9731C228.616 22.8796 228.717 22.7471 228.858 22.5757C229.013 22.4042 229.333 22.0925 229.816 21.6405C230.315 21.1885 230.845 20.7988 231.406 20.4715C231.967 20.1286 232.7 19.8246 233.604 19.5597C234.523 19.2791 235.474 19.1388 236.456 19.1388C239.137 19.1388 241.241 19.9961 242.769 21.7106C244.312 23.4252 245.083 25.9268 245.083 29.2156V42.6123H240.29ZM270.24 42.6123H265.447V40.2275C265.385 40.2899 265.276 40.3912 265.12 40.5315C264.98 40.6718 264.683 40.9056 264.231 41.2329C263.795 41.5446 263.32 41.833 262.805 42.0979C262.291 42.3473 261.644 42.5733 260.865 42.776C260.085 42.9786 259.298 43.0799 258.503 43.0799C256.165 43.0799 254.225 42.4019 252.682 41.0458C251.139 39.6898 250.367 38.1389 250.367 36.3932C250.367 34.5073 250.959 32.9252 252.144 31.6471C253.344 30.369 254.981 29.5585 257.054 29.2156L265.447 27.766C265.447 26.5503 264.995 25.5294 264.091 24.7033C263.203 23.8772 262.057 23.4641 260.654 23.4641C259.439 23.4641 258.332 23.7213 257.334 24.2357C256.352 24.7344 255.674 25.241 255.3 25.7554L254.669 26.5737L251.559 23.4641C251.653 23.3394 251.778 23.1836 251.934 22.9965C252.105 22.7939 252.471 22.451 253.032 21.9678C253.609 21.469 254.217 21.0248 254.856 20.6352C255.495 20.2455 256.337 19.9026 257.381 19.6064C258.441 19.2947 259.532 19.1388 260.654 19.1388C263.46 19.1388 265.759 19.9727 267.551 21.6405C269.344 23.2927 270.24 25.3345 270.24 27.766V42.6123ZM259.228 38.778C261.176 38.778 262.696 38.2013 263.787 37.0479C264.894 35.8789 265.447 34.2189 265.447 32.0679V31.6003L258.012 32.7927C257.155 32.9486 256.461 33.2993 255.932 33.8448C255.402 34.3904 255.137 35.0762 255.137 35.9023C255.137 36.666 255.503 37.3362 256.235 37.9129C256.984 38.4896 257.981 38.778 259.228 38.778ZM289.879 23.6979C289.24 23.5421 288.523 23.4641 287.728 23.4641C285.905 23.4641 284.447 24.0564 283.356 25.241C282.281 26.41 281.743 28.0544 281.743 30.1742V42.6123H276.95V19.6298H281.743V22.0146L282.047 21.7106C282.187 21.5704 282.483 21.3443 282.935 21.0326C283.387 20.7053 283.863 20.4169 284.362 20.1676C284.876 19.9026 285.523 19.6688 286.302 19.4662C287.097 19.2479 287.892 19.1388 288.687 19.1388H289.879V23.6979ZM314.522 19.6298L305.661 29.2156L315.246 42.6123H309.963L302.551 32.3251L298.951 36.1594V42.6123H294.181V9.08546H298.951V29.917L308.77 19.6298H314.522ZM340.38 32.7927H322.424C322.673 34.4137 323.468 35.8165 324.809 37.0011C326.165 38.1857 327.77 38.778 329.625 38.778C330.966 38.778 332.213 38.4741 333.366 37.8662C334.535 37.2583 335.361 36.666 335.844 36.0893L336.569 35.2009L339.679 38.3104C339.585 38.4351 339.437 38.6143 339.234 38.8481C339.047 39.0663 338.634 39.4482 337.995 39.9938C337.356 40.5237 336.678 40.9991 335.961 41.4199C335.244 41.8252 334.309 42.2071 333.155 42.5655C332.018 42.9085 330.841 43.0799 329.625 43.0799C326.368 43.0799 323.554 41.8875 321.185 39.5028C318.831 37.1024 317.655 34.2267 317.655 30.8756C317.655 27.6491 318.8 24.8903 321.091 22.5991C323.398 20.2922 326.157 19.1388 329.368 19.1388C332.594 19.1388 335.275 20.2143 337.411 22.3653C339.562 24.5006 340.637 27.1815 340.637 30.408L340.38 32.7927ZM329.368 23.2303C327.638 23.2303 326.18 23.7447 324.996 24.7734C323.827 25.7865 323.04 27.1036 322.635 28.7246H335.938C335.657 27.1036 334.932 25.7865 333.763 24.7734C332.594 23.7447 331.129 23.2303 329.368 23.2303ZM348.75 16.7541V11.9612H353.052V19.6298H357.845V23.9317H353.052V35.8555C353.052 36.7128 353.325 37.4142 353.87 37.9597C354.416 38.5052 355.101 38.778 355.928 38.778C356.286 38.778 356.66 38.739 357.05 38.6611C357.455 38.5832 357.767 38.4974 357.985 38.4039L358.336 38.3104V42.6123C357.385 42.924 356.263 43.0799 354.969 43.0799C350.496 43.0799 348.267 40.6874 348.282 35.9023V23.9317H343.957V19.6298H346.365C347.955 19.6298 348.75 18.6712 348.75 16.7541ZM369.09 19.6298V42.6123H364.298V19.6298H369.09ZM368.763 10.3947C369.309 10.9403 369.581 11.6261 369.581 12.4522C369.581 13.2783 369.309 13.9641 368.763 14.5096C368.218 15.0551 367.532 15.3279 366.706 15.3279C365.88 15.3279 365.194 15.0551 364.648 14.5096C364.103 13.9641 363.83 13.2783 363.83 12.4522C363.83 11.6261 364.103 10.9403 364.648 10.3947C365.194 9.8492 365.88 9.57644 366.706 9.57644C367.532 9.57644 368.218 9.8492 368.763 10.3947ZM380.827 19.6298V22.0146L381.131 21.7106C381.271 21.5704 381.568 21.3443 382.02 21.0326C382.472 20.7053 382.947 20.4169 383.446 20.1676C383.96 19.9026 384.607 19.6688 385.386 19.4662C386.181 19.2479 386.976 19.1388 387.771 19.1388C390.545 19.1388 392.79 20.0507 394.504 21.8743C396.235 23.6979 397.1 26.145 397.1 29.2156V42.6123H392.307V29.2156C392.307 27.5634 391.777 26.1918 390.717 25.1007C389.673 24.0097 388.371 23.4641 386.812 23.4641C384.989 23.4641 383.531 24.0564 382.44 25.241C381.365 26.41 380.827 28.0544 380.827 30.1742V42.6123H376.034V19.6298H380.827ZM420.082 41.2329V39.269L419.778 39.5729C419.638 39.7132 419.342 39.947 418.89 40.2743C418.453 40.586 417.978 40.8744 417.464 41.1394C416.949 41.3888 416.302 41.6226 415.523 41.8408C414.744 42.0434 413.949 42.1447 413.138 42.1447C410.239 42.1447 407.722 41.0303 405.587 38.8014C403.451 36.5569 402.384 33.837 402.384 30.6418C402.384 27.4465 403.451 24.7344 405.587 22.5055C407.722 20.2611 410.239 19.1388 413.138 19.1388C414.416 19.1388 415.632 19.3804 416.786 19.8636C417.939 20.3468 418.773 20.83 419.287 21.3132L420.082 22.0146V19.6298H424.875V41.1861C424.875 44.4126 423.768 47.1324 421.555 49.3457C419.342 51.559 416.622 52.6657 413.395 52.6657C412.086 52.6657 410.839 52.4942 409.655 52.1513C408.47 51.824 407.496 51.4265 406.732 50.9589C405.968 50.5069 405.298 50.0471 404.722 49.5795C404.145 49.1119 403.732 48.7067 403.482 48.3638L403.085 47.8728L406.218 44.7633C406.28 44.8568 406.381 44.9815 406.522 45.1373C406.662 45.3088 406.958 45.5971 407.41 46.0024C407.878 46.4232 408.369 46.7895 408.883 47.1013C409.398 47.4286 410.06 47.7169 410.87 47.9663C411.681 48.2313 412.523 48.3638 413.395 48.3638C415.344 48.3638 416.941 47.7013 418.188 46.3765C419.451 45.0516 420.082 43.3371 420.082 41.2329ZM409.094 25.5449C407.8 26.9322 407.153 28.6311 407.153 30.6418C407.153 32.6524 407.8 34.3514 409.094 35.7386C410.387 37.1258 411.899 37.8194 413.629 37.8194C415.359 37.8194 416.864 37.1258 418.142 35.7386C419.435 34.3514 420.082 32.6524 420.082 30.6418C420.082 28.6311 419.435 26.9322 418.142 25.5449C416.864 24.1577 415.359 23.4641 413.629 23.4641C411.899 23.4641 410.387 24.1577 409.094 25.5449ZM222.802 91.0799C221.945 91.0799 221.111 90.9786 220.3 90.776C219.49 90.5733 218.796 90.324 218.22 90.0278C217.643 89.7161 217.129 89.4043 216.677 89.0926C216.24 88.7653 215.921 88.5081 215.718 88.3211L215.391 87.9704V100.666H210.598V67.6298H215.391V70.2717C215.609 70.0535 215.913 69.7652 216.303 69.4067C216.708 69.0482 217.557 68.5806 218.851 68.0039C220.145 67.4272 221.462 67.1388 222.802 67.1388C225.842 67.1388 228.476 68.3078 230.705 70.6458C232.949 72.9682 234.071 75.7894 234.071 79.1094C234.071 82.4293 232.949 85.2583 230.705 87.5963C228.476 89.9187 225.842 91.0799 222.802 91.0799ZM227.174 73.7086C225.771 72.2123 224.158 71.4641 222.335 71.4641C220.511 71.4641 218.898 72.2123 217.495 73.7086C216.092 75.2049 215.391 77.013 215.391 79.1328C215.391 81.2369 216.092 83.0372 217.495 84.5335C218.898 86.0298 220.511 86.778 222.335 86.778C224.158 86.778 225.771 86.0298 227.174 84.5335C228.577 83.0372 229.278 81.2369 229.278 79.1328C229.278 77.013 228.577 75.2049 227.174 73.7086ZM257.755 90.6123H252.962V88.2275C252.9 88.2899 252.791 88.3912 252.635 88.5315C252.495 88.6718 252.199 88.9056 251.747 89.2329C251.31 89.5446 250.835 89.833 250.32 90.0979C249.806 90.3473 249.159 90.5733 248.38 90.776C247.6 90.9786 246.813 91.0799 246.018 91.0799C243.68 91.0799 241.74 90.4019 240.197 89.0458C238.654 87.6898 237.882 86.1389 237.882 84.3932C237.882 82.5073 238.475 80.9252 239.659 79.6471C240.859 78.369 242.496 77.5585 244.569 77.2156L252.962 75.766C252.962 74.5503 252.51 73.5294 251.606 72.7033C250.718 71.8772 249.572 71.4641 248.169 71.4641C246.954 71.4641 245.847 71.7213 244.849 72.2357C243.867 72.7344 243.189 73.241 242.815 73.7554L242.184 74.5737L239.075 71.4641C239.168 71.3394 239.293 71.1836 239.449 70.9965C239.62 70.7939 239.986 70.451 240.548 69.9678C241.124 69.469 241.732 69.0248 242.371 68.6352C243.01 68.2455 243.852 67.9026 244.896 67.6064C245.956 67.2947 247.047 67.1388 248.169 67.1388C250.975 67.1388 253.274 67.9727 255.066 69.6405C256.859 71.2927 257.755 73.3345 257.755 75.766V90.6123ZM246.743 86.778C248.692 86.778 250.211 86.2013 251.302 85.0479C252.409 83.8789 252.962 82.2189 252.962 80.0679V79.6003L245.527 80.7927C244.67 80.9486 243.977 81.2993 243.447 81.8448C242.917 82.3904 242.652 83.0762 242.652 83.9023C242.652 84.666 243.018 85.3362 243.751 85.9129C244.499 86.4896 245.496 86.778 246.743 86.778ZM266.593 87.5262C264.224 85.1414 263.039 82.3436 263.039 79.1328C263.039 75.9063 264.224 73.1007 266.593 70.716C268.978 68.3312 271.783 67.1388 275.01 67.1388C276.802 67.1388 278.47 67.5285 280.013 68.3078C281.556 69.0716 282.663 69.8353 283.333 70.5991L284.338 71.6979L281.229 74.8075C281.073 74.5581 280.831 74.2541 280.504 73.8956C280.192 73.5216 279.499 73.0228 278.423 72.3993C277.363 71.7759 276.225 71.4641 275.01 71.4641C273.061 71.4641 271.37 72.2045 269.936 73.6852C268.518 75.166 267.809 76.9818 267.809 79.1328C267.809 81.2681 268.518 83.0762 269.936 84.5569C271.37 86.0376 273.061 86.778 275.01 86.778C276.225 86.778 277.363 86.4741 278.423 85.8662C279.499 85.2583 280.27 84.666 280.738 84.0893L281.462 83.2009L284.572 86.3104C284.478 86.4351 284.338 86.6143 284.151 86.8481C283.964 87.0663 283.559 87.4482 282.935 87.9938C282.312 88.5237 281.657 88.9991 280.971 89.4199C280.286 89.8252 279.397 90.2071 278.306 90.5655C277.215 90.9085 276.116 91.0799 275.01 91.0799C271.783 91.0799 268.978 89.8953 266.593 87.5262ZM310.173 67.6298L301.312 77.2156L310.898 90.6123H305.614L298.202 80.3251L294.602 84.1594V90.6123H289.832V57.0855H294.602V77.917L304.422 67.6298H310.173Z" fill="black"/>
<path fill-rule="evenodd" clip-rule="evenodd" d="M142.276 101.613C167.962 101.613 188.785 80.7894 188.785 55.1027C188.785 29.416 167.962 8.59277 142.276 8.59277C116.589 8.59277 95.7656 29.416 95.7656 55.1027C95.7656 80.7894 116.589 101.613 142.276 101.613ZM171.858 55.5667C171.858 61.7812 166.82 66.819 160.606 66.819C154.391 66.819 149.354 61.7812 149.354 55.5667C149.354 49.3522 154.391 44.3144 160.606 44.3144C166.82 44.3144 171.858 49.3522 171.858 55.5667ZM175.569 55.5667C175.569 63.8306 168.87 70.5299 160.606 70.5299C152.342 70.5299 145.643 63.8306 145.643 55.5667C145.643 47.3028 152.342 40.6035 160.606 40.6035C168.87 40.6035 175.569 47.3028 175.569 55.5667ZM130.68 50.4967C136.894 50.4967 141.932 45.4589 141.932 39.2444C141.932 33.0299 136.894 27.9921 130.68 27.9921C124.465 27.9921 119.427 33.0299 119.427 39.2444C119.427 45.4589 124.465 50.4967 130.68 50.4967ZM130.68 54.2076C138.944 54.2076 145.643 47.5084 145.643 39.2444C145.643 30.9805 138.944 24.2812 130.68 24.2812C122.416 24.2812 115.717 30.9805 115.717 39.2444C115.717 47.5084 122.416 54.2076 130.68 54.2076ZM141.932 71.893C141.932 78.1075 136.894 83.1453 130.68 83.1453C124.465 83.1453 119.427 78.1075 119.427 71.893C119.427 65.6785 124.465 60.6407 130.68 60.6407C136.894 60.6407 141.932 65.6785 141.932 71.893ZM145.643 71.893C145.643 80.1569 138.944 86.8561 130.68 86.8561C122.416 86.8561 115.717 80.1569 115.717 71.893C115.717 63.629 122.416 56.9298 130.68 56.9298C138.944 56.9298 145.643 63.629 145.643 71.893Z" fill="black"/>
</svg>
