<svg width="1181" height="207" viewBox="0 0 1181 207" fill="none" xmlns="http://www.w3.org/2000/svg">
<circle cx="96.5639" cy="96.5639" r="93.3942" stroke="black" stroke-width="6.33943"/>
<path d="M90.3867 155.295L148.85 96.8325M148.85 96.8325L90.3867 38.3696M148.85 96.8325L31.9238 96.8325" stroke="black" stroke-width="6.33943"/>
<path d="M441.118 16.3915H468.932C475.566 16.3915 481.116 18.5759 485.581 22.9446C490.08 27.281 492.329 32.572 492.329 38.8177C492.329 45.031 490.08 50.3058 485.581 54.6422C481.116 58.9786 475.566 61.1468 468.932 61.1468H452.039V86H441.118V16.3915ZM468.932 26.3425H452.039V51.1958H468.932C472.362 51.1958 475.291 50.0146 477.718 47.6522C480.145 45.2575 481.358 42.3127 481.358 38.8177C481.358 35.2904 480.145 32.3293 477.718 29.9346C475.291 27.5399 472.362 26.3425 468.932 26.3425ZM508.202 86V16.3915H537.521C543.961 16.3915 549.3 18.4465 553.54 22.5563C557.779 26.6662 559.898 31.7468 559.898 37.7983C559.898 40.6461 559.413 43.3159 558.442 45.8077C557.471 48.2671 556.306 50.2088 554.947 51.6326C553.588 53.0565 552.229 54.3024 550.87 55.3703C549.511 56.4382 548.346 57.1664 547.375 57.5547L545.967 58.1857L561.889 86H549.947L535.045 59.1566H519.124V86H508.202ZM545.627 45.9533C547.828 43.7527 548.928 41.0344 548.928 37.7983C548.928 34.5299 547.828 31.8115 545.627 29.6434C543.459 27.4428 540.757 26.3425 537.521 26.3425H519.124V49.2056H537.521C540.757 49.2056 543.459 48.1215 545.627 45.9533ZM639.458 73.088C639.652 73.4763 639.96 73.9455 640.38 74.4957C640.833 75.0134 641.642 75.7416 642.807 76.68C644.005 77.5861 645.202 78.0392 646.399 78.0392C646.723 78.0392 647.03 77.9907 647.322 77.8936C647.645 77.7965 647.904 77.7156 648.098 77.6509C648.292 77.5861 648.39 77.5214 648.39 77.4567V86.4854C647.063 86.809 645.736 86.9708 644.409 86.9708C642.37 86.9708 640.38 86.4045 638.439 85.2719C636.529 84.1069 635.138 82.9581 634.264 81.8254L633.002 80.0294C632.549 80.5472 631.853 81.1944 630.915 81.9711C629.976 82.7477 628.002 83.7833 624.993 85.0777C621.983 86.3398 618.844 86.9708 615.576 86.9708C609.33 86.9708 604.282 85.3204 600.431 82.0196C596.612 78.7188 594.703 74.7384 594.703 70.0784C594.703 67.6837 595.156 65.3375 596.062 63.0399C596.968 60.7099 598.036 58.7521 599.266 57.1664C600.528 55.5807 601.79 54.1568 603.052 52.8947C604.314 51.6326 605.382 50.7104 606.256 50.1279L607.663 49.2056C606.919 48.4613 605.997 47.4743 604.896 46.2445C603.796 44.9825 602.324 42.7819 600.479 39.6429C598.635 36.4715 597.712 33.7047 597.712 31.3423C597.712 26.8441 599.298 23.0741 602.469 20.0322C605.641 16.9579 609.686 15.4207 614.605 15.4207C619.459 15.4207 623.488 16.8931 626.692 19.838C629.895 22.7828 631.497 26.2778 631.497 30.3229C631.497 33.2354 630.494 36.2774 628.488 39.4487C626.514 42.5878 624.54 44.9825 622.565 46.6329L619.556 49.2056L633.002 65.6126C635.332 61.9558 636.497 57.49 636.497 52.2151H645.429C645.429 55.7425 644.927 59.2375 643.924 62.7001C642.921 66.1627 641.934 68.7678 640.963 70.5153L639.458 73.088ZM615.576 78.0392C617.614 78.0392 619.637 77.6832 621.643 76.9713C623.65 76.227 625.154 75.4665 626.158 74.6898L627.517 73.5734L613.1 55.6616C612.453 56.1146 611.66 56.778 610.721 57.6518C609.783 58.5255 608.537 60.1436 606.984 62.5059C605.43 64.8359 604.654 67.0365 604.654 69.1076C604.654 71.8906 605.56 74.075 607.372 75.6607C609.184 77.2464 611.919 78.0392 615.576 78.0392ZM622.08 31.3423C622.08 29.3683 621.384 27.7179 619.993 26.3911C618.601 25.0319 616.805 24.3523 614.605 24.3523C612.404 24.3523 610.608 25.0157 609.217 26.3425C607.825 27.6693 607.129 29.3359 607.129 31.3423C607.129 32.7986 607.744 34.4813 608.974 36.3906C610.204 38.2999 611.449 39.8532 612.712 41.0506L614.605 42.7496C615.122 42.2965 615.802 41.6655 616.643 40.8564C617.485 40.0151 618.601 38.5912 619.993 36.5848C621.384 34.546 622.08 32.7986 622.08 31.3423ZM442.04 178.593C437.121 173.641 434.661 167.833 434.661 161.166C434.661 154.467 437.121 148.642 442.04 143.691C446.991 138.74 452.816 136.264 459.515 136.264C463.236 136.264 466.699 137.073 469.903 138.691C473.106 140.277 475.404 141.863 476.795 143.449L478.883 145.73L472.427 152.186C472.103 151.668 471.602 151.037 470.922 150.293C470.275 149.516 468.835 148.481 466.602 147.186C464.401 145.892 462.039 145.245 459.515 145.245C455.47 145.245 451.958 146.782 448.981 149.856C446.036 152.93 444.564 156.7 444.564 161.166C444.564 165.6 446.036 169.353 448.981 172.428C451.958 175.502 455.47 177.039 459.515 177.039C462.039 177.039 464.401 176.408 466.602 175.146C468.835 173.884 470.437 172.654 471.407 171.457L472.912 169.612L479.368 176.068C479.174 176.327 478.883 176.699 478.494 177.185C478.106 177.638 477.265 178.431 475.97 179.563C474.676 180.664 473.317 181.651 471.893 182.524C470.469 183.366 468.624 184.159 466.359 184.903C464.094 185.615 461.812 185.971 459.515 185.971C452.816 185.971 446.991 183.511 442.04 178.593ZM521.648 172.428C524.593 169.353 526.065 165.6 526.065 161.166C526.065 156.7 524.593 152.93 521.648 149.856C518.703 146.782 515.208 145.245 511.163 145.245C507.118 145.245 503.607 146.782 500.629 149.856C497.684 152.93 496.212 156.7 496.212 161.166C496.212 165.6 497.684 169.353 500.629 172.428C503.607 175.502 507.118 177.039 511.163 177.039C515.208 177.039 518.703 175.502 521.648 172.428ZM493.688 178.593C488.769 173.641 486.31 167.833 486.31 161.166C486.31 154.467 488.769 148.642 493.688 143.691C498.639 138.74 504.464 136.264 511.163 136.264C517.862 136.264 523.67 138.74 528.589 143.691C533.54 148.642 536.016 154.467 536.016 161.166C536.016 167.833 533.54 173.641 528.589 178.593C523.67 183.511 517.862 185.971 511.163 185.971C504.464 185.971 498.639 183.511 493.688 178.593ZM608.586 185V157.186C608.586 153.27 607.679 150.309 605.867 148.303C604.087 146.264 601.676 145.245 598.635 145.245C595.528 145.245 592.923 146.49 590.819 148.982C588.748 151.442 587.713 154.84 587.713 159.176V185H577.762V157.186C577.762 153.27 576.856 150.309 575.043 148.303C573.264 146.264 570.853 145.245 567.811 145.245C564.704 145.245 562.099 146.49 559.996 148.982C557.924 151.442 556.889 154.84 556.889 159.176V185H546.938V137.284H556.889V142.235C557.277 141.782 557.811 141.232 558.491 140.585C559.203 139.905 560.659 139.015 562.859 137.915C565.092 136.815 567.406 136.264 569.801 136.264C571.71 136.264 573.522 136.539 575.238 137.09C576.985 137.607 578.377 138.271 579.412 139.08C580.448 139.856 581.338 140.649 582.082 141.458C582.859 142.267 583.409 142.931 583.732 143.449L584.218 144.225C584.347 144.031 584.558 143.756 584.849 143.4C585.172 143.044 585.836 142.397 586.839 141.458C587.875 140.52 588.975 139.711 590.14 139.031C591.305 138.319 592.826 137.688 594.703 137.138C596.612 136.556 598.586 136.264 600.625 136.264C606.191 136.264 610.56 138.044 613.731 141.604C616.935 145.164 618.537 150.358 618.537 157.186V185H608.586ZM694.116 185V157.186C694.116 153.27 693.209 150.309 691.397 148.303C689.617 146.264 687.207 145.245 684.165 145.245C681.058 145.245 678.453 146.49 676.349 148.982C674.278 151.442 673.243 154.84 673.243 159.176V185H663.292V157.186C663.292 153.27 662.386 150.309 660.573 148.303C658.794 146.264 656.383 145.245 653.341 145.245C650.234 145.245 647.629 146.49 645.526 148.982C643.454 151.442 642.419 154.84 642.419 159.176V185H632.468V137.284H642.419V142.235C642.807 141.782 643.341 141.232 644.021 140.585C644.733 139.905 646.189 139.015 648.39 137.915C650.622 136.815 652.936 136.264 655.331 136.264C657.24 136.264 659.052 136.539 660.768 137.09C662.515 137.607 663.907 138.271 664.942 139.08C665.978 139.856 666.868 140.649 667.612 141.458C668.389 142.267 668.939 142.931 669.262 143.449L669.748 144.225C669.877 144.031 670.088 143.756 670.379 143.4C670.702 143.044 671.366 142.397 672.369 141.458C673.405 140.52 674.505 139.711 675.67 139.031C676.835 138.319 678.356 137.688 680.233 137.138C682.142 136.556 684.116 136.264 686.155 136.264C691.721 136.264 696.09 138.044 699.261 141.604C702.465 145.164 704.067 150.358 704.067 157.186V185H694.116ZM751.783 185V180.049L751.152 180.68C750.861 180.971 750.246 181.456 749.307 182.136C748.401 182.783 747.414 183.382 746.346 183.932C745.278 184.45 743.935 184.919 742.317 185.34C740.699 185.76 739.049 185.971 737.366 185.971C731.606 185.971 726.93 184.094 723.338 180.34C719.778 176.554 717.998 171.473 717.998 165.098V137.284H727.949V165.098C727.949 168.528 729.033 171.376 731.201 173.641C733.402 175.907 736.12 177.039 739.356 177.039C743.142 177.039 746.152 175.826 748.385 173.399C750.65 170.939 751.783 167.509 751.783 163.108V137.284H761.734V185H751.783ZM786.102 137.284V142.235L786.733 141.604C787.024 141.313 787.639 140.843 788.577 140.196C789.516 139.517 790.503 138.918 791.538 138.4C792.606 137.85 793.949 137.365 795.567 136.944C797.218 136.491 798.868 136.264 800.519 136.264C806.279 136.264 810.939 138.157 814.498 141.944C818.091 145.73 819.887 150.811 819.887 157.186V185H809.936V157.186C809.936 153.755 808.835 150.908 806.635 148.642C804.467 146.377 801.764 145.245 798.528 145.245C794.742 145.245 791.716 146.474 789.451 148.934C787.218 151.361 786.102 154.775 786.102 159.176V185H776.151V137.284H786.102ZM844.254 137.284V185H834.303V137.284H844.254ZM843.575 118.11C844.707 119.242 845.274 120.666 845.274 122.382C845.274 124.097 844.707 125.521 843.575 126.653C842.442 127.786 841.018 128.352 839.303 128.352C837.588 128.352 836.164 127.786 835.031 126.653C833.899 125.521 833.333 124.097 833.333 122.382C833.333 120.666 833.899 119.242 835.031 118.11C836.164 116.977 837.588 116.411 839.303 116.411C841.018 116.411 842.442 116.977 843.575 118.11ZM863.088 178.593C858.17 173.641 855.71 167.833 855.71 161.166C855.71 154.467 858.17 148.642 863.088 143.691C868.04 138.74 873.865 136.264 880.563 136.264C884.285 136.264 887.748 137.073 890.951 138.691C894.155 140.277 896.453 141.863 897.844 143.449L899.931 145.73L893.475 152.186C893.152 151.668 892.65 151.037 891.971 150.293C891.323 149.516 889.883 148.481 887.65 147.186C885.45 145.892 883.088 145.245 880.563 145.245C876.518 145.245 873.007 146.782 870.03 149.856C867.085 152.93 865.613 156.7 865.613 161.166C865.613 165.6 867.085 169.353 870.03 172.428C873.007 175.502 876.518 177.039 880.563 177.039C883.088 177.039 885.45 176.408 887.65 175.146C889.883 173.884 891.485 172.654 892.456 171.457L893.961 169.612L900.417 176.068C900.223 176.327 899.931 176.699 899.543 177.185C899.155 177.638 898.313 178.431 897.019 179.563C895.724 180.664 894.365 181.651 892.941 182.524C891.518 183.366 889.673 184.159 887.408 184.903C885.142 185.615 882.861 185.971 880.563 185.971C873.865 185.971 868.04 183.511 863.088 178.593ZM948.619 185H938.668V180.049C938.538 180.178 938.312 180.389 937.988 180.68C937.697 180.971 937.082 181.456 936.143 182.136C935.237 182.783 934.25 183.382 933.182 183.932C932.114 184.45 930.771 184.919 929.153 185.34C927.535 185.76 925.901 185.971 924.251 185.971C919.397 185.971 915.368 184.563 912.164 181.748C908.96 178.932 907.358 175.712 907.358 172.088C907.358 168.172 908.588 164.888 911.047 162.234C913.539 159.58 916.937 157.898 921.241 157.186L938.668 154.176C938.668 151.652 937.729 149.532 935.852 147.817C934.008 146.102 931.629 145.245 928.717 145.245C926.192 145.245 923.895 145.778 921.824 146.846C919.785 147.882 918.377 148.934 917.601 150.002L916.29 151.701L909.834 145.245C910.028 144.986 910.287 144.662 910.611 144.274C910.967 143.853 911.727 143.141 912.892 142.138C914.089 141.102 915.351 140.18 916.678 139.371C918.005 138.562 919.753 137.85 921.921 137.235C924.121 136.588 926.387 136.264 928.717 136.264C934.541 136.264 939.315 137.996 943.036 141.458C946.758 144.889 948.619 149.128 948.619 154.176V185ZM925.755 177.039C929.801 177.039 932.956 175.842 935.221 173.447C937.519 171.02 938.668 167.574 938.668 163.108V162.137L923.231 164.613C921.451 164.936 920.011 165.664 918.911 166.797C917.811 167.93 917.261 169.353 917.261 171.069C917.261 172.654 918.021 174.046 919.542 175.243C921.096 176.441 923.167 177.039 925.755 177.039ZM968.52 131.313V121.362H977.452V137.284H987.403V146.215H977.452V170.972C977.452 172.751 978.018 174.208 979.151 175.34C980.284 176.473 981.708 177.039 983.423 177.039C984.167 177.039 984.944 176.958 985.753 176.796C986.594 176.635 987.241 176.457 987.694 176.263L988.422 176.068V185C986.448 185.647 984.118 185.971 981.433 185.971C972.145 185.971 967.517 181.003 967.55 171.069V146.215H958.569V137.284H963.569C966.87 137.284 968.52 135.294 968.52 131.313ZM1010.75 137.284V185H1000.8V137.284H1010.75ZM1010.07 118.11C1011.2 119.242 1011.77 120.666 1011.77 122.382C1011.77 124.097 1011.2 125.521 1010.07 126.653C1008.94 127.786 1007.52 128.352 1005.8 128.352C1004.09 128.352 1002.66 127.786 1001.53 126.653C1000.4 125.521 999.83 124.097 999.83 122.382C999.83 120.666 1000.4 119.242 1001.53 118.11C1002.66 116.977 1004.09 116.411 1005.8 116.411C1007.52 116.411 1008.94 116.977 1010.07 118.11ZM1057.55 172.428C1060.49 169.353 1061.96 165.6 1061.96 161.166C1061.96 156.7 1060.49 152.93 1057.55 149.856C1054.6 146.782 1051.11 145.245 1047.06 145.245C1043.02 145.245 1039.5 146.782 1036.53 149.856C1033.58 152.93 1032.11 156.7 1032.11 161.166C1032.11 165.6 1033.58 169.353 1036.53 172.428C1039.5 175.502 1043.02 177.039 1047.06 177.039C1051.11 177.039 1054.6 175.502 1057.55 172.428ZM1029.59 178.593C1024.67 173.641 1022.21 167.833 1022.21 161.166C1022.21 154.467 1024.67 148.642 1029.59 143.691C1034.54 138.74 1040.36 136.264 1047.06 136.264C1053.76 136.264 1059.57 138.74 1064.49 143.691C1069.44 148.642 1071.91 154.467 1071.91 161.166C1071.91 167.833 1069.44 173.641 1064.49 178.593C1059.57 183.511 1053.76 185.971 1047.06 185.971C1040.36 185.971 1034.54 183.511 1029.59 178.593ZM1092.79 137.284V142.235L1093.42 141.604C1093.71 141.313 1094.32 140.843 1095.26 140.196C1096.2 139.517 1097.19 138.918 1098.22 138.4C1099.29 137.85 1100.63 137.365 1102.25 136.944C1103.9 136.491 1105.55 136.264 1107.2 136.264C1112.96 136.264 1117.62 138.157 1121.18 141.944C1124.78 145.73 1126.57 150.811 1126.57 157.186V185H1116.62V157.186C1116.62 153.755 1115.52 150.908 1113.32 148.642C1111.15 146.377 1108.45 145.245 1105.21 145.245C1101.43 145.245 1098.4 146.474 1096.14 148.934C1093.9 151.361 1092.79 154.775 1092.79 159.176V185H1082.84V137.284H1092.79ZM1170.84 142.769L1164.39 149.225C1164.13 148.966 1163.74 148.61 1163.22 148.157C1162.73 147.672 1161.7 147.073 1160.11 146.361C1158.56 145.617 1156.99 145.245 1155.41 145.245C1153.27 145.245 1151.57 145.746 1150.31 146.749C1149.08 147.72 1148.46 148.869 1148.46 150.196C1148.46 151.587 1149.06 152.752 1150.26 153.691C1151.46 154.629 1152.96 155.341 1154.77 155.827C1156.59 156.312 1158.53 156.927 1160.6 157.671C1162.7 158.383 1164.66 159.192 1166.47 160.098C1168.32 161.004 1169.84 162.396 1171.04 164.273C1172.23 166.15 1172.83 168.415 1172.83 171.069C1172.83 175.178 1171.16 178.69 1167.83 181.602C1164.53 184.515 1160.23 185.971 1154.92 185.971C1152.59 185.971 1150.36 185.68 1148.22 185.097C1146.12 184.515 1144.39 183.819 1143.03 183.01C1141.67 182.201 1140.47 181.392 1139.43 180.583C1138.43 179.741 1137.7 179.029 1137.25 178.447L1136.52 177.525L1142.98 171.069C1143.3 171.522 1143.77 172.088 1144.39 172.768C1145.03 173.447 1146.39 174.337 1148.46 175.437C1150.57 176.505 1152.72 177.039 1154.92 177.039C1157.57 177.039 1159.56 176.505 1160.89 175.437C1162.22 174.337 1162.88 172.881 1162.88 171.069C1162.88 169.677 1162.28 168.528 1161.08 167.622C1159.89 166.684 1158.38 165.972 1156.57 165.486C1154.76 164.969 1152.8 164.354 1150.7 163.642C1148.63 162.897 1146.67 162.088 1144.82 161.215C1143.01 160.309 1141.51 158.917 1140.31 157.04C1139.11 155.131 1138.51 152.849 1138.51 150.196C1138.51 146.539 1140.11 143.303 1143.32 140.487C1146.55 137.672 1150.58 136.264 1155.41 136.264C1157.31 136.264 1159.16 136.491 1160.94 136.944C1162.75 137.365 1164.22 137.899 1165.36 138.546C1166.49 139.161 1167.48 139.808 1168.32 140.487C1169.19 141.135 1169.82 141.652 1170.21 142.041L1170.84 142.769Z" fill="black"/>
<path fill-rule="evenodd" clip-rule="evenodd" d="M299.531 193.128C352.862 193.128 396.095 149.895 396.095 96.5639C396.095 43.2331 352.862 0 299.531 0C246.2 0 202.967 43.2331 202.967 96.5639C202.967 149.895 246.2 193.128 299.531 193.128ZM298.14 156.164C270.869 156.164 248.002 137.273 241.927 111.859L234.846 113.551C241.686 142.167 267.423 163.445 298.14 163.445C328.856 163.445 354.593 142.167 361.433 113.551L354.352 111.859C348.278 137.273 325.41 156.164 298.14 156.164Z" fill="black"/>
</svg>
