<svg width="574" height="102" viewBox="0 0 574 102" fill="none" xmlns="http://www.w3.org/2000/svg">
<circle cx="46.935" cy="47.8754" r="45.3943" stroke="black" stroke-width="3.08129"/>
<path d="M43.9316 76.4218L72.3475 48.0059M72.3475 48.0059L43.9316 19.5899M72.3475 48.0059L15.5156 48.0059" stroke="black" stroke-width="3.08129"/>
<path d="M214.407 9.10717H227.926C231.151 9.10717 233.848 10.1689 236.019 12.2923C238.205 14.4 239.298 16.9717 239.298 20.0074C239.298 23.0274 238.205 25.5913 236.019 27.6989C233.848 29.8066 231.151 30.8605 227.926 30.8605H219.716V42.9404H214.407V9.10717ZM227.926 13.9439H219.716V26.0238H227.926C229.593 26.0238 231.017 25.4497 232.197 24.3015C233.376 23.1375 233.966 21.7062 233.966 20.0074C233.966 18.293 233.376 16.8537 232.197 15.6898C231.017 14.5258 229.593 13.9439 227.926 13.9439ZM247.013 42.9404V9.10717H261.264C264.394 9.10717 266.989 10.106 269.05 12.1036C271.11 14.1012 272.141 16.5706 272.141 19.512C272.141 20.8961 271.905 22.1938 271.433 23.4049C270.961 24.6003 270.395 25.5441 269.734 26.2361C269.073 26.9282 268.413 27.5338 267.752 28.0529C267.092 28.5719 266.525 28.9258 266.053 29.1146L265.369 29.4213L273.108 42.9404H267.304L260.061 29.8932H252.322V42.9404H247.013ZM265.204 23.4757C266.274 22.4061 266.808 21.0849 266.808 19.512C266.808 17.9233 266.274 16.6021 265.204 15.5482C264.15 14.4787 262.837 13.9439 261.264 13.9439H252.322V25.0565H261.264C262.837 25.0565 264.15 24.5295 265.204 23.4757ZM310.811 36.6645C310.905 36.8533 311.054 37.0813 311.259 37.3487C311.479 37.6004 311.872 37.9543 312.439 38.4105C313.02 38.8509 313.602 39.0711 314.184 39.0711C314.342 39.0711 314.491 39.0475 314.633 39.0003C314.79 38.9531 314.916 38.9138 315.01 38.8823C315.105 38.8509 315.152 38.8194 315.152 38.788V43.1764C314.507 43.3337 313.862 43.4123 313.217 43.4123C312.226 43.4123 311.259 43.137 310.315 42.5865C309.387 42.0203 308.711 41.4619 308.286 40.9114L307.673 40.0384C307.452 40.2901 307.114 40.6047 306.658 40.9822C306.202 41.3597 305.242 41.863 303.78 42.4922C302.317 43.1056 300.791 43.4123 299.202 43.4123C296.167 43.4123 293.713 42.6101 291.841 41.0058C289.985 39.4014 289.057 37.4667 289.057 35.2017C289.057 34.0378 289.277 32.8974 289.718 31.7806C290.158 30.6482 290.677 29.6965 291.275 28.9258C291.888 28.1551 292.502 27.463 293.115 26.8496C293.729 26.2361 294.248 25.7879 294.673 25.5047L295.357 25.0565C294.995 24.6947 294.547 24.215 294.012 23.6173C293.477 23.0038 292.761 21.9342 291.865 20.4085C290.968 18.8671 290.52 17.5222 290.52 16.374C290.52 14.1877 291.291 12.3552 292.832 10.8767C294.374 9.38243 296.34 8.6353 298.731 8.6353C301.09 8.6353 303.048 9.35097 304.605 10.7823C306.163 12.2137 306.941 13.9124 306.941 15.8785C306.941 17.2942 306.454 18.7727 305.478 20.3141C304.519 21.8399 303.559 23.0038 302.6 23.806L301.137 25.0565L307.673 33.0311C308.805 31.2537 309.371 29.0831 309.371 26.5193H313.713C313.713 28.2337 313.469 29.9325 312.981 31.6155C312.494 33.2985 312.014 34.5647 311.542 35.4141L310.811 36.6645ZM299.202 39.0711C300.193 39.0711 301.176 38.8981 302.152 38.552C303.127 38.1902 303.858 37.8206 304.346 37.4431L305.007 36.9005L297.999 28.1944C297.685 28.4146 297.299 28.7371 296.843 29.1618C296.387 29.5864 295.781 30.3729 295.026 31.5211C294.271 32.6536 293.894 33.7232 293.894 34.7298C293.894 36.0825 294.334 37.1443 295.215 37.915C296.096 38.6857 297.425 39.0711 299.202 39.0711ZM302.364 16.374C302.364 15.4145 302.026 14.6124 301.35 13.9675C300.673 13.3068 299.8 12.9765 298.731 12.9765C297.661 12.9765 296.788 13.299 296.112 13.9439C295.435 14.5888 295.097 15.3988 295.097 16.374C295.097 17.0818 295.396 17.8997 295.994 18.8277C296.591 19.7558 297.197 20.5108 297.81 21.0927L298.731 21.9185C298.982 21.6983 299.313 21.3916 299.722 20.9984C300.131 20.5894 300.673 19.8973 301.35 18.9221C302.026 17.9312 302.364 17.0818 302.364 16.374ZM214.855 87.8261C212.464 85.4195 211.269 82.5962 211.269 79.356C211.269 76.1 212.464 73.2688 214.855 70.8623C217.262 68.4557 220.093 67.2524 223.349 67.2524C225.158 67.2524 226.841 67.6457 228.398 68.4321C229.955 69.2028 231.072 69.9736 231.748 70.7443L232.763 71.8532L229.625 74.9911C229.468 74.7395 229.224 74.4328 228.893 74.071C228.579 73.6935 227.879 73.1902 226.794 72.561C225.724 71.9318 224.576 71.6173 223.349 71.6173C221.383 71.6173 219.676 72.3644 218.229 73.8586C216.798 75.3529 216.082 77.1853 216.082 79.356C216.082 81.5108 216.798 83.3354 218.229 84.8297C219.676 86.3239 221.383 87.0711 223.349 87.0711C224.576 87.0711 225.724 86.7644 226.794 86.1509C227.879 85.5375 228.658 84.9398 229.129 84.3578L229.861 83.4613L232.999 86.5992C232.904 86.725 232.763 86.9059 232.574 87.1419C232.385 87.3621 231.976 87.7474 231.347 88.2979C230.718 88.8327 230.057 89.3125 229.365 89.7372C228.673 90.1461 227.777 90.5315 226.676 90.8932C225.575 91.2393 224.466 91.4123 223.349 91.4123C220.093 91.4123 217.262 90.2169 214.855 87.8261ZM253.549 84.8297C254.98 83.3354 255.696 81.5108 255.696 79.356C255.696 77.1853 254.98 75.3529 253.549 73.8586C252.117 72.3644 250.419 71.6173 248.453 71.6173C246.486 71.6173 244.78 72.3644 243.333 73.8586C241.901 75.3529 241.186 77.1853 241.186 79.356C241.186 81.5108 241.901 83.3354 243.333 84.8297C244.78 86.3239 246.486 87.0711 248.453 87.0711C250.419 87.0711 252.117 86.3239 253.549 84.8297ZM239.959 87.8261C237.568 85.4195 236.373 82.5962 236.373 79.356C236.373 76.1 237.568 73.2688 239.959 70.8623C242.365 68.4557 245.197 67.2524 248.453 67.2524C251.709 67.2524 254.532 68.4557 256.923 70.8623C259.329 73.2688 260.533 76.1 260.533 79.356C260.533 82.5962 259.329 85.4195 256.923 87.8261C254.532 90.2169 251.709 91.4123 248.453 91.4123C245.197 91.4123 242.365 90.2169 239.959 87.8261ZM295.805 90.9404V77.4213C295.805 75.5181 295.365 74.0789 294.484 73.1037C293.619 72.1127 292.447 71.6173 290.968 71.6173C289.458 71.6173 288.192 72.2228 287.17 73.434C286.163 74.6294 285.66 76.2809 285.66 78.3886V90.9404H280.823V77.4213C280.823 75.5181 280.383 74.0789 279.502 73.1037C278.637 72.1127 277.465 71.6173 275.986 71.6173C274.476 71.6173 273.21 72.2228 272.188 73.434C271.181 74.6294 270.678 76.2809 270.678 78.3886V90.9404H265.841V67.7479H270.678V70.1544C270.867 69.9342 271.126 69.6668 271.456 69.3523C271.802 69.022 272.51 68.5894 273.58 68.0546C274.665 67.5198 275.79 67.2524 276.954 67.2524C277.882 67.2524 278.763 67.3861 279.596 67.6535C280.446 67.9052 281.122 68.2276 281.625 68.6209C282.129 68.9984 282.561 69.3837 282.923 69.7769C283.3 70.1702 283.568 70.4926 283.725 70.7443L283.961 71.1218C284.024 71.0274 284.126 70.8937 284.268 70.7207C284.425 70.5477 284.747 70.2331 285.235 69.7769C285.738 69.3208 286.273 68.9276 286.839 68.5973C287.406 68.2512 288.145 67.9445 289.057 67.6771C289.985 67.394 290.945 67.2524 291.936 67.2524C294.641 67.2524 296.764 68.1175 298.306 69.8477C299.863 71.5779 300.642 74.1024 300.642 77.4213V90.9404H295.805ZM337.377 90.9404V77.4213C337.377 75.5181 336.937 74.0789 336.056 73.1037C335.191 72.1127 334.019 71.6173 332.54 71.6173C331.03 71.6173 329.764 72.2228 328.742 73.434C327.735 74.6294 327.232 76.2809 327.232 78.3886V90.9404H322.395V77.4213C322.395 75.5181 321.955 74.0789 321.074 73.1037C320.209 72.1127 319.037 71.6173 317.558 71.6173C316.048 71.6173 314.782 72.2228 313.76 73.434C312.753 74.6294 312.25 76.2809 312.25 78.3886V90.9404H307.413V67.7479H312.25V70.1544C312.439 69.9342 312.698 69.6668 313.028 69.3523C313.374 69.022 314.082 68.5894 315.152 68.0546C316.237 67.5198 317.362 67.2524 318.526 67.2524C319.454 67.2524 320.335 67.3861 321.168 67.6535C322.018 67.9052 322.694 68.2276 323.197 68.6209C323.701 68.9984 324.133 69.3837 324.495 69.7769C324.872 70.1702 325.14 70.4926 325.297 70.7443L325.533 71.1218C325.596 71.0274 325.698 70.8937 325.84 70.7207C325.997 70.5477 326.319 70.2331 326.807 69.7769C327.31 69.3208 327.845 68.9276 328.411 68.5973C328.978 68.2512 329.717 67.9445 330.629 67.6771C331.557 67.394 332.517 67.2524 333.508 67.2524C336.213 67.2524 338.336 68.1175 339.878 69.8477C341.435 71.5779 342.214 74.1024 342.214 77.4213V90.9404H337.377ZM365.406 90.9404V88.5339L365.099 88.8406C364.958 88.9822 364.659 89.2181 364.203 89.5484C363.763 89.863 363.283 90.154 362.764 90.4214C362.245 90.673 361.592 90.9011 360.805 91.1056C360.019 91.3101 359.217 91.4123 358.399 91.4123C355.599 91.4123 353.326 90.5 351.58 88.6754C349.85 86.8351 348.985 84.3657 348.985 81.267V67.7479H353.822V81.267C353.822 82.9343 354.349 84.3185 355.402 85.4195C356.472 86.5206 357.793 87.0711 359.366 87.0711C361.207 87.0711 362.669 86.4812 363.755 85.3016C364.856 84.1061 365.406 82.4389 365.406 80.2997V67.7479H370.243V90.9404H365.406ZM382.087 67.7479V70.1544L382.394 69.8477C382.535 69.7062 382.834 69.4781 383.29 69.1635C383.746 68.8332 384.226 68.5422 384.729 68.2906C385.248 68.0232 385.901 67.7872 386.688 67.5827C387.49 67.3625 388.292 67.2524 389.094 67.2524C391.894 67.2524 394.159 68.1726 395.889 70.0129C397.635 71.8532 398.508 74.3227 398.508 77.4213V90.9404H393.671V77.4213C393.671 75.754 393.137 74.3698 392.067 73.2688C391.013 72.1678 389.7 71.6173 388.127 71.6173C386.287 71.6173 384.816 72.215 383.715 73.4104C382.63 74.59 382.087 76.2495 382.087 78.3886V90.9404H377.25V67.7479H382.087ZM410.352 67.7479V90.9404H405.515V67.7479H410.352ZM410.022 58.4284C410.572 58.9789 410.848 59.671 410.848 60.5047C410.848 61.3383 410.572 62.0304 410.022 62.5809C409.471 63.1314 408.779 63.4067 407.945 63.4067C407.112 63.4067 406.42 63.1314 405.869 62.5809C405.319 62.0304 405.043 61.3383 405.043 60.5047C405.043 59.671 405.319 58.9789 405.869 58.4284C406.42 57.8779 407.112 57.6026 407.945 57.6026C408.779 57.6026 409.471 57.8779 410.022 58.4284ZM419.506 87.8261C417.116 85.4195 415.92 82.5962 415.92 79.356C415.92 76.1 417.116 73.2688 419.506 70.8623C421.913 68.4557 424.744 67.2524 428 67.2524C429.809 67.2524 431.492 67.6457 433.049 68.4321C434.606 69.2028 435.723 69.9736 436.399 70.7443L437.414 71.8532L434.276 74.9911C434.119 74.7395 433.875 74.4328 433.545 74.071C433.23 73.6935 432.53 73.1902 431.445 72.561C430.375 71.9318 429.227 71.6173 428 71.6173C426.034 71.6173 424.327 72.3644 422.88 73.8586C421.449 75.3529 420.733 77.1853 420.733 79.356C420.733 81.5108 421.449 83.3354 422.88 84.8297C424.327 86.3239 426.034 87.0711 428 87.0711C429.227 87.0711 430.375 86.7644 431.445 86.1509C432.53 85.5375 433.309 84.9398 433.781 84.3578L434.512 83.4613L437.65 86.5992C437.555 86.725 437.414 86.9059 437.225 87.1419C437.036 87.3621 436.627 87.7474 435.998 88.2979C435.369 88.8327 434.709 89.3125 434.016 89.7372C433.324 90.1461 432.428 90.5315 431.327 90.8932C430.226 91.2393 429.117 91.4123 428 91.4123C424.744 91.4123 421.913 90.2169 419.506 87.8261ZM461.078 90.9404H456.242V88.5339C456.179 88.5968 456.069 88.699 455.911 88.8406C455.77 88.9822 455.471 89.2181 455.015 89.5484C454.574 89.863 454.095 90.154 453.576 90.4214C453.057 90.673 452.404 90.9011 451.617 91.1056C450.831 91.3101 450.037 91.4123 449.234 91.4123C446.875 91.4123 444.917 90.7281 443.36 89.3597C441.802 87.9912 441.024 86.4262 441.024 84.6645C441.024 82.7613 441.621 81.1648 442.817 79.875C444.028 78.5852 445.68 77.7673 447.772 77.4213L456.242 75.9585C456.242 74.7316 455.785 73.7014 454.873 72.8677C453.977 72.0341 452.821 71.6173 451.405 71.6173C450.178 71.6173 449.061 71.8768 448.055 72.3958C447.064 72.8992 446.38 73.4104 446.002 73.9294L445.365 74.7552L442.227 71.6173C442.321 71.4914 442.447 71.3341 442.605 71.1454C442.778 70.9409 443.147 70.5949 443.713 70.1073C444.295 69.6039 444.909 69.1557 445.554 68.7624C446.199 68.3692 447.048 68.0232 448.102 67.7243C449.171 67.4097 450.272 67.2524 451.405 67.2524C454.236 67.2524 456.556 68.0939 458.365 69.7769C460.174 71.4442 461.078 73.5047 461.078 75.9585V90.9404ZM449.966 87.0711C451.932 87.0711 453.465 86.4891 454.566 85.3251C455.683 84.1455 456.242 82.4703 456.242 80.2997V79.8278L448.739 81.0311C447.874 81.1884 447.174 81.5423 446.639 82.0928C446.104 82.6433 445.837 83.3354 445.837 84.1691C445.837 84.9398 446.206 85.6161 446.946 86.1981C447.701 86.7801 448.707 87.0711 449.966 87.0711ZM470.752 64.8459V60.0092H475.093V67.7479H479.93V72.0891H475.093V84.1219C475.093 84.987 475.368 85.6948 475.919 86.2453C476.469 86.7958 477.161 87.0711 477.995 87.0711C478.357 87.0711 478.734 87.0318 479.127 86.9531C479.536 86.8745 479.851 86.788 480.071 86.6936L480.425 86.5992V90.9404C479.466 91.255 478.333 91.4123 477.028 91.4123C472.513 91.4123 470.264 88.9979 470.28 84.1691V72.0891H465.915V67.7479H468.345C469.95 67.7479 470.752 66.7806 470.752 64.8459ZM491.278 67.7479V90.9404H486.441V67.7479H491.278ZM490.948 58.4284C491.498 58.9789 491.774 59.671 491.774 60.5047C491.774 61.3383 491.498 62.0304 490.948 62.5809C490.397 63.1314 489.705 63.4067 488.872 63.4067C488.038 63.4067 487.346 63.1314 486.795 62.5809C486.245 62.0304 485.97 61.3383 485.97 60.5047C485.97 59.671 486.245 58.9789 486.795 58.4284C487.346 57.8779 488.038 57.6026 488.872 57.6026C489.705 57.6026 490.397 57.8779 490.948 58.4284ZM514.022 84.8297C515.454 83.3354 516.169 81.5108 516.169 79.356C516.169 77.1853 515.454 75.3529 514.022 73.8586C512.591 72.3644 510.892 71.6173 508.926 71.6173C506.96 71.6173 505.253 72.3644 503.806 73.8586C502.375 75.3529 501.659 77.1853 501.659 79.356C501.659 81.5108 502.375 83.3354 503.806 84.8297C505.253 86.3239 506.96 87.0711 508.926 87.0711C510.892 87.0711 512.591 86.3239 514.022 84.8297ZM500.432 87.8261C498.042 85.4195 496.846 82.5962 496.846 79.356C496.846 76.1 498.042 73.2688 500.432 70.8623C502.839 68.4557 505.67 67.2524 508.926 67.2524C512.182 67.2524 515.005 68.4557 517.396 70.8623C519.803 73.2688 521.006 76.1 521.006 79.356C521.006 82.5962 519.803 85.4195 517.396 87.8261C515.005 90.2169 512.182 91.4123 508.926 91.4123C505.67 91.4123 502.839 90.2169 500.432 87.8261ZM531.151 67.7479V70.1544L531.458 69.8477C531.6 69.7062 531.899 69.4781 532.355 69.1635C532.811 68.8332 533.291 68.5422 533.794 68.2906C534.313 68.0232 534.966 67.7872 535.752 67.5827C536.554 67.3625 537.357 67.2524 538.159 67.2524C540.958 67.2524 543.223 68.1726 544.954 70.0129C546.7 71.8532 547.573 74.3227 547.573 77.4213V90.9404H542.736V77.4213C542.736 75.754 542.201 74.3698 541.132 73.2688C540.078 72.1678 538.764 71.6173 537.191 71.6173C535.351 71.6173 533.88 72.215 532.779 73.4104C531.694 74.59 531.151 76.2495 531.151 78.3886V90.9404H526.315V67.7479H531.151ZM569.09 70.414L565.952 73.5519C565.826 73.4261 565.637 73.2531 565.386 73.0329C565.15 72.7969 564.646 72.5059 563.876 72.1599C563.121 71.7981 562.358 71.6173 561.587 71.6173C560.549 71.6173 559.723 71.8611 559.11 72.3487C558.512 72.8205 558.213 73.3789 558.213 74.0238C558.213 74.7002 558.504 75.2664 559.086 75.7225C559.668 76.1787 560.4 76.5247 561.28 76.7607C562.161 76.9966 563.105 77.2955 564.112 77.6572C565.134 78.0033 566.086 78.3965 566.967 78.8369C567.863 79.2773 568.602 79.9537 569.184 80.866C569.766 81.7782 570.057 82.8793 570.057 84.1691C570.057 86.1667 569.247 87.8733 567.627 89.2889C566.023 90.7045 563.931 91.4123 561.351 91.4123C560.219 91.4123 559.133 91.2707 558.095 90.9876C557.073 90.7045 556.231 90.3663 555.571 89.9731C554.91 89.5799 554.328 89.1866 553.825 88.7934C553.337 88.3845 552.983 88.0384 552.763 87.7553L552.409 87.307L555.547 84.1691C555.704 84.3893 555.933 84.6645 556.231 84.9948C556.546 85.3251 557.207 85.7577 558.213 86.2925C559.236 86.8115 560.282 87.0711 561.351 87.0711C562.641 87.0711 563.608 86.8115 564.253 86.2925C564.898 85.7577 565.221 85.0499 565.221 84.1691C565.221 83.4927 564.93 82.9343 564.348 82.4939C563.766 82.0378 563.034 81.6917 562.153 81.4558C561.273 81.2041 560.321 80.9053 559.299 80.5592C558.292 80.1975 557.34 79.8042 556.444 79.3796C555.563 78.9391 554.832 78.2628 554.25 77.3505C553.668 76.4225 553.377 75.3136 553.377 74.0238C553.377 72.2464 554.155 70.6735 555.712 69.3051C557.285 67.9366 559.244 67.2524 561.587 67.2524C562.515 67.2524 563.412 67.3625 564.277 67.5827C565.158 67.7872 565.873 68.0468 566.424 68.3613C566.974 68.6602 567.454 68.9748 567.863 69.3051C568.288 69.6197 568.594 69.8713 568.783 70.0601L569.09 70.414Z" fill="black"/>
<path fill-rule="evenodd" clip-rule="evenodd" d="M145.587 94.8103C171.509 94.8103 192.522 73.7969 192.522 47.8754C192.522 21.9539 171.509 0.94043 145.587 0.94043C119.666 0.94043 98.6523 21.9539 98.6523 47.8754C98.6523 73.7969 119.666 94.8103 145.587 94.8103ZM144.911 76.8442C131.656 76.8442 120.541 67.662 117.589 55.3094L114.147 56.132C117.472 70.0407 129.981 80.3828 144.911 80.3828C159.841 80.3828 172.35 70.0407 175.675 56.132L172.233 55.3094C169.281 67.662 158.166 76.8442 144.911 76.8442Z" fill="black"/>
</svg>
