<svg width="92" height="93" viewBox="0 0 92 93" fill="none" xmlns="http://www.w3.org/2000/svg">
<path fill-rule="evenodd" clip-rule="evenodd" d="M91.4765 46.4116C91.4765 71.6484 71.018 92.1069 45.7812 92.1069C20.5444 92.1069 0.0859375 71.6484 0.0859375 46.4116C0.0859375 21.1748 20.5444 0.716309 45.7812 0.716309C71.018 0.716309 91.4765 21.1748 91.4765 46.4116ZM58.1383 45.8485C58.1383 52.8435 52.4677 58.5141 45.4727 58.5141C38.4777 58.5141 32.8071 52.8435 32.8071 45.8485C32.8071 38.8535 38.4777 33.1829 45.4727 33.1829C52.4677 33.1829 58.1383 38.8535 58.1383 45.8485ZM46.104 66.1164C28.2667 66.1164 13.8068 46.4847 13.8068 46.4847C13.8068 46.4847 28.2667 26.853 46.104 26.853C63.9413 26.853 78.4013 46.4847 78.4013 46.4847C78.4013 46.4847 63.9413 66.1164 46.104 66.1164ZM19.076 47.1269C18.8767 46.9024 18.6892 46.6879 18.5138 46.4847C18.6892 46.2815 18.8767 46.067 19.076 45.8425C20.6241 44.0992 22.8618 41.7783 25.6153 39.4661C31.229 34.7521 38.4731 30.5056 46.104 30.5056C53.735 30.5056 60.9791 34.7521 66.5928 39.4661C69.3463 41.7783 71.5839 44.0992 73.132 45.8425C73.3314 46.067 73.5189 46.2815 73.6942 46.4847C73.5189 46.6879 73.3314 46.9024 73.132 47.1269C71.5839 48.8702 69.3463 51.1911 66.5928 53.5033C60.9791 58.2173 53.735 62.4638 46.104 62.4638C38.4731 62.4638 31.229 58.2173 25.6153 53.5033C22.8618 51.1911 20.6241 48.8702 19.076 47.1269Z" fill="black"/>
</svg>
