<svg width="541" height="121" viewBox="0 0 541 121" fill="none" xmlns="http://www.w3.org/2000/svg">
<circle cx="45.6953" cy="46.4111" r="43.8723" stroke="black" stroke-width="3.64587"/>
<path d="M42.7709 74.2044L70.4363 46.5391M70.4363 46.5391L42.7709 18.8737M70.4363 46.5391L15.1055 46.5391" stroke="black" stroke-width="3.6363"/>
<path d="M219.758 43.4159C219.13 43.2628 218.425 43.1862 217.644 43.1862C215.853 43.1862 214.421 43.7681 213.349 44.932C212.292 46.0805 211.764 47.6961 211.764 49.7787V61.999H207.055V39.4191H211.764V41.7621L212.063 41.4634C212.2 41.3256 212.491 41.1036 212.936 40.7973C213.38 40.4757 213.847 40.1924 214.337 39.9474C214.842 39.6871 215.478 39.4574 216.243 39.2583C217.024 39.0439 217.805 38.9367 218.586 38.9367H219.758V43.4159ZM244.428 52.3514H226.787C227.032 53.9441 227.813 55.3223 229.13 56.4861C230.462 57.65 232.039 58.2319 233.862 58.2319C235.179 58.2319 236.404 57.9333 237.537 57.336C238.685 56.7388 239.497 56.1569 239.972 55.5903L240.684 54.7174L243.739 57.7725C243.647 57.895 243.502 58.0711 243.302 58.3008C243.119 58.5152 242.713 58.8904 242.085 59.4263C241.457 59.947 240.791 60.4141 240.087 60.8275C239.382 61.2257 238.463 61.6009 237.33 61.9531C236.212 62.29 235.056 62.4584 233.862 62.4584C230.661 62.4584 227.897 61.2869 225.569 58.944C223.257 56.5857 222.101 53.7603 222.101 50.4679C222.101 47.2979 223.226 44.5874 225.477 42.3363C227.744 40.0699 230.454 38.9367 233.609 38.9367C236.779 38.9367 239.413 39.9933 241.511 42.1066C243.624 44.2046 244.681 46.8385 244.681 50.0084L244.428 52.3514ZM233.609 42.9565C231.909 42.9565 230.477 43.4619 229.313 44.4726C228.165 45.468 227.392 46.762 226.993 48.3546H240.064C239.788 46.762 239.076 45.468 237.927 44.4726C236.779 43.4619 235.339 42.9565 233.609 42.9565ZM264.183 42.0147L261.128 45.0698C261.005 44.9473 260.821 44.7788 260.576 44.5644C260.347 44.3347 259.856 44.0514 259.106 43.7145C258.371 43.3623 257.628 43.1862 256.878 43.1862C255.867 43.1862 255.063 43.4236 254.466 43.8983C253.884 44.3577 253.593 44.9013 253.593 45.5292C253.593 46.1877 253.877 46.739 254.443 47.1831C255.01 47.6272 255.722 47.9641 256.579 48.1938C257.437 48.4235 258.356 48.7144 259.336 49.0667C260.331 49.4036 261.258 49.7864 262.115 50.2152C262.988 50.644 263.708 51.3024 264.274 52.1906C264.841 53.0788 265.124 54.1508 265.124 55.4065C265.124 57.3513 264.336 59.0129 262.758 60.3911C261.196 61.7693 259.16 62.4584 256.648 62.4584C255.546 62.4584 254.489 62.3206 253.478 62.045C252.483 61.7693 251.664 61.4401 251.021 61.0572C250.377 60.6744 249.811 60.2916 249.321 59.9087C248.846 59.5106 248.501 59.1737 248.287 58.898L247.942 58.4616L250.998 55.4065C251.151 55.6209 251.373 55.8889 251.664 56.2105C251.97 56.5321 252.613 56.9532 253.593 57.4738C254.589 57.9792 255.607 58.2319 256.648 58.2319C257.904 58.2319 258.846 57.9792 259.474 57.4738C260.102 56.9532 260.415 56.2641 260.415 55.4065C260.415 54.748 260.132 54.2044 259.566 53.7756C258.999 53.3315 258.287 52.9946 257.429 52.7649C256.572 52.5199 255.645 52.2289 254.65 51.892C253.67 51.5398 252.743 51.157 251.87 50.7435C251.013 50.3147 250.301 49.6562 249.734 48.768C249.168 47.8645 248.884 46.7849 248.884 45.5292C248.884 43.7988 249.642 42.2674 251.158 40.9351C252.69 39.6028 254.596 38.9367 256.878 38.9367C257.781 38.9367 258.654 39.0439 259.497 39.2583C260.354 39.4574 261.051 39.71 261.587 40.0163C262.123 40.3073 262.59 40.6135 262.988 40.9351C263.402 41.2414 263.7 41.4864 263.884 41.6702L264.183 42.0147ZM291.196 52.3514H273.555C273.8 53.9441 274.581 55.3223 275.898 56.4861C277.23 57.65 278.807 58.2319 280.629 58.2319C281.946 58.2319 283.171 57.9333 284.305 57.336C285.453 56.7388 286.265 56.1569 286.74 55.5903L287.452 54.7174L290.507 57.7725C290.415 57.895 290.269 58.0711 290.07 58.3008C289.887 58.5152 289.481 58.8904 288.853 59.4263C288.225 59.947 287.559 60.4141 286.854 60.8275C286.15 61.2257 285.231 61.6009 284.098 61.9531C282.98 62.29 281.824 62.4584 280.629 62.4584C277.429 62.4584 274.665 61.2869 272.337 58.944C270.025 56.5857 268.869 53.7603 268.869 50.4679C268.869 47.2979 269.994 44.5874 272.245 42.3363C274.512 40.0699 277.222 38.9367 280.377 38.9367C283.547 38.9367 286.181 39.9933 288.279 42.1066C290.392 44.2046 291.449 46.8385 291.449 50.0084L291.196 52.3514ZM280.377 42.9565C278.677 42.9565 277.245 43.4619 276.081 44.4726C274.933 45.468 274.159 46.762 273.761 48.3546H286.831C286.556 46.762 285.844 45.468 284.695 44.4726C283.547 43.4619 282.107 42.9565 280.377 42.9565ZM314.718 61.999H310.009V59.656C309.947 59.7173 309.84 59.8168 309.687 59.9547C309.549 60.0925 309.258 60.3222 308.814 60.6438C308.385 60.95 307.918 61.2333 307.413 61.4937C306.908 61.7387 306.272 61.9607 305.506 62.1598C304.741 62.3589 303.967 62.4584 303.186 62.4584C300.889 62.4584 298.983 61.7923 297.467 60.46C295.951 59.1277 295.193 57.604 295.193 55.8889C295.193 54.0359 295.775 52.4816 296.938 51.2259C298.118 49.9702 299.726 49.1739 301.762 48.837L310.009 47.4128C310.009 46.2183 309.565 45.2153 308.676 44.4037C307.803 43.592 306.678 43.1862 305.3 43.1862C304.105 43.1862 303.018 43.4389 302.038 43.9442C301.073 44.4343 300.407 44.932 300.039 45.4373L299.419 46.2413L296.364 43.1862C296.456 43.0637 296.579 42.9106 296.732 42.7268C296.9 42.5277 297.26 42.1908 297.811 41.7161C298.378 41.2261 298.975 40.7896 299.603 40.4068C300.231 40.024 301.058 39.6871 302.084 39.3961C303.125 39.0898 304.197 38.9367 305.3 38.9367C308.056 38.9367 310.315 39.756 312.076 41.3945C313.837 43.0178 314.718 45.0239 314.718 47.4128V61.999ZM303.899 58.2319C305.813 58.2319 307.306 57.6653 308.378 56.5321C309.465 55.3835 310.009 53.7526 310.009 51.6393V51.1799L302.704 52.3514C301.862 52.5046 301.18 52.8491 300.66 53.3851C300.139 53.9211 299.879 54.5949 299.879 55.4065C299.879 56.1569 300.239 56.8154 300.958 57.382C301.693 57.9486 302.673 58.2319 303.899 58.2319ZM334.013 43.4159C333.385 43.2628 332.68 43.1862 331.899 43.1862C330.108 43.1862 328.676 43.7681 327.604 44.932C326.547 46.0805 326.019 47.6961 326.019 49.7787V61.999H321.31V39.4191H326.019V41.7621L326.318 41.4634C326.455 41.3256 326.746 41.1036 327.191 40.7973C327.635 40.4757 328.102 40.1924 328.592 39.9474C329.097 39.6871 329.733 39.4574 330.498 39.2583C331.279 39.0439 332.06 38.9367 332.841 38.9367H334.013V43.4159ZM339.847 58.9669C337.52 56.6239 336.356 53.8751 336.356 50.7205C336.356 47.5506 337.52 44.7942 339.847 42.4512C342.19 40.1082 344.947 38.9367 348.117 38.9367C349.878 38.9367 351.516 39.3195 353.032 40.0852C354.548 40.8356 355.636 41.5859 356.294 42.3363L357.282 43.4159L354.227 46.471C354.074 46.226 353.836 45.9274 353.515 45.5751C353.208 45.2076 352.527 44.7176 351.47 44.105C350.429 43.4925 349.311 43.1862 348.117 43.1862C346.202 43.1862 344.541 43.9136 343.132 45.3684C341.738 46.8232 341.042 48.6072 341.042 50.7205C341.042 52.8185 341.738 54.5949 343.132 56.0497C344.541 57.5045 346.202 58.2319 348.117 58.2319C349.311 58.2319 350.429 57.9333 351.47 57.336C352.527 56.7388 353.285 56.1569 353.744 55.5903L354.456 54.7174L357.512 57.7725C357.42 57.895 357.282 58.0711 357.098 58.3008C356.914 58.5152 356.516 58.8904 355.904 59.4263C355.291 59.947 354.648 60.4141 353.974 60.8275C353.3 61.2257 352.427 61.6009 351.355 61.9531C350.283 62.29 349.204 62.4584 348.117 62.4584C344.947 62.4584 342.19 61.2946 339.847 58.9669ZM367.366 29.0594V41.7621C367.427 41.7008 367.527 41.6013 367.664 41.4634C367.818 41.3256 368.109 41.1036 368.537 40.7973C368.981 40.4757 369.456 40.1924 369.962 39.9474C370.467 39.6871 371.102 39.4574 371.868 39.2583C372.634 39.0439 373.407 38.9367 374.188 38.9367C376.914 38.9367 379.127 39.8325 380.827 41.6242C382.526 43.4159 383.376 45.8202 383.376 48.837V61.999H378.667V48.837C378.667 47.2137 378.147 45.8661 377.105 44.7942C376.079 43.7222 374.793 43.1862 373.246 43.1862C371.455 43.1862 370.023 43.7681 368.951 44.932C367.894 46.0805 367.366 47.6961 367.366 49.7787V61.999H362.68V29.0594H367.366Z" fill="black"/>
<path fill-rule="evenodd" clip-rule="evenodd" d="M185.476 46.4111C185.476 71.6479 165.018 92.1064 139.781 92.1064C114.544 92.1064 94.0859 71.6479 94.0859 46.4111C94.0859 21.1743 114.544 0.71582 139.781 0.71582C165.018 0.71582 185.476 21.1743 185.476 46.4111ZM152.138 45.848C152.138 52.843 146.468 58.5136 139.473 58.5136C132.478 58.5136 126.807 52.843 126.807 45.848C126.807 38.853 132.478 33.1824 139.473 33.1824C146.468 33.1824 152.138 38.853 152.138 45.848ZM140.104 66.1159C122.267 66.1159 107.807 46.4842 107.807 46.4842C107.807 46.4842 122.267 26.8525 140.104 26.8525C157.941 26.8525 172.401 46.4842 172.401 46.4842C172.401 46.4842 157.941 66.1159 140.104 66.1159ZM113.076 47.1264C112.877 46.9019 112.689 46.6874 112.514 46.4842C112.689 46.281 112.877 46.0665 113.076 45.8421C114.624 44.0987 116.862 41.7778 119.615 39.4656C125.229 34.7516 132.473 30.5051 140.104 30.5051C147.735 30.5051 154.979 34.7516 160.593 39.4656C163.346 41.7778 165.584 44.0987 167.132 45.8421C167.331 46.0665 167.519 46.281 167.694 46.4842C167.519 46.6874 167.331 46.9019 167.132 47.1264C165.584 48.8697 163.346 51.1907 160.593 53.5029C154.979 58.2168 147.735 62.4633 140.104 62.4633C132.473 62.4633 125.229 58.2168 119.615 53.5029C116.862 51.1907 114.624 48.8697 113.076 47.1264Z" fill="black"/>
</svg>
