<svg width="868" height="196" viewBox="0 0 868 196" fill="none" xmlns="http://www.w3.org/2000/svg">
<circle cx="97.9788" cy="97.9788" r="94.0701" stroke="white" stroke-width="7.8174"/>
<path d="M91.7102 157.57L151.03 98.251M151.03 98.251L91.7102 38.9314M151.03 98.251H32.3906" stroke="white" stroke-width="7.79687"/>
<path d="M470.787 91.1545C469.441 90.8262 467.931 90.662 466.256 90.662C462.414 90.662 459.344 91.9097 457.046 94.4052C454.78 96.8679 453.647 100.332 453.647 104.798V131H443.551V82.5846H453.647V87.6083L454.288 86.968C454.583 86.6725 455.207 86.1964 456.159 85.5397C457.112 84.8502 458.113 84.2427 459.164 83.7174C460.247 83.1592 461.61 82.6666 463.252 82.2398C464.926 81.7801 466.601 81.5502 468.275 81.5502H470.787V91.1545ZM523.685 110.314H485.859C486.384 113.729 488.059 116.684 490.882 119.179C493.739 121.675 497.121 122.923 501.029 122.923C503.852 122.923 506.479 122.282 508.909 121.002C511.372 119.721 513.112 118.473 514.13 117.258L515.657 115.387L522.207 121.937C522.01 122.2 521.698 122.578 521.271 123.07C520.877 123.53 520.007 124.334 518.661 125.484C517.315 126.6 515.886 127.602 514.376 128.488C512.866 129.342 510.896 130.146 508.466 130.901C506.069 131.624 503.59 131.985 501.029 131.985C494.166 131.985 488.239 129.473 483.248 124.449C478.29 119.393 475.811 113.335 475.811 106.275C475.811 99.4782 478.225 93.6664 483.051 88.8397C487.911 83.98 493.723 81.5502 500.487 81.5502C507.284 81.5502 512.931 83.8159 517.43 88.3471C521.961 92.8455 524.227 98.4932 524.227 105.29L523.685 110.314ZM500.487 90.1695C496.842 90.1695 493.772 91.253 491.277 93.4202C488.814 95.5544 487.156 98.329 486.302 101.744H514.327C513.736 98.329 512.209 95.5544 509.746 93.4202C507.284 91.253 504.197 90.1695 500.487 90.1695ZM566.042 88.1501L559.492 94.7007C559.229 94.438 558.835 94.0769 558.31 93.6172C557.817 93.1246 556.766 92.5172 555.157 91.7948C553.581 91.0396 551.989 90.662 550.38 90.662C548.213 90.662 546.489 91.171 545.208 92.1888C543.961 93.1739 543.337 94.3395 543.337 95.6858C543.337 97.0977 543.944 98.2798 545.159 99.232C546.374 100.184 547.901 100.907 549.74 101.399C551.578 101.892 553.548 102.515 555.65 103.271C557.784 103.993 559.771 104.814 561.609 105.733C563.481 106.653 565.024 108.065 566.239 109.969C567.454 111.874 568.062 114.172 568.062 116.864C568.062 121.035 566.371 124.597 562.989 127.552C559.639 130.507 555.272 131.985 549.887 131.985C547.523 131.985 545.258 131.69 543.09 131.099C540.956 130.507 539.199 129.802 537.82 128.981C536.441 128.16 535.226 127.339 534.176 126.518C533.158 125.664 532.419 124.942 531.959 124.351L531.22 123.415L537.771 116.864C538.099 117.324 538.576 117.899 539.199 118.588C539.856 119.278 541.235 120.181 543.337 121.297C545.471 122.381 547.654 122.923 549.887 122.923C552.58 122.923 554.599 122.381 555.945 121.297C557.292 120.181 557.965 118.703 557.965 116.864C557.965 115.453 557.357 114.287 556.142 113.368C554.927 112.415 553.401 111.693 551.562 111.2C549.723 110.675 547.737 110.051 545.602 109.329C543.501 108.574 541.514 107.753 539.643 106.866C537.804 105.947 536.277 104.535 535.062 102.63C533.847 100.693 533.24 98.3783 533.24 95.6858C533.24 91.9754 534.865 88.6919 538.116 85.8352C541.399 82.9786 545.487 81.5502 550.38 81.5502C552.317 81.5502 554.189 81.7801 555.995 82.2398C557.833 82.6666 559.327 83.2084 560.477 83.8651C561.626 84.489 562.627 85.1457 563.481 85.8352C564.368 86.4919 565.008 87.0173 565.402 87.4113L566.042 88.1501ZM623.963 110.314H586.137C586.663 113.729 588.337 116.684 591.161 119.179C594.018 121.675 597.4 122.923 601.307 122.923C604.131 122.923 606.758 122.282 609.188 121.002C611.65 119.721 613.39 118.473 614.408 117.258L615.935 115.387L622.486 121.937C622.289 122.2 621.977 122.578 621.55 123.07C621.156 123.53 620.286 124.334 618.94 125.484C617.593 126.6 616.165 127.602 614.655 128.488C613.144 129.342 611.174 130.146 608.744 130.901C606.347 131.624 603.868 131.985 601.307 131.985C594.445 131.985 588.518 129.473 583.527 124.449C578.569 119.393 576.09 113.335 576.09 106.275C576.09 99.4782 578.503 93.6664 583.33 88.8397C588.19 83.98 594.001 81.5502 600.765 81.5502C607.562 81.5502 613.21 83.8159 617.708 88.3471C622.24 92.8455 624.505 98.4932 624.505 105.29L623.963 110.314ZM600.765 90.1695C597.121 90.1695 594.051 91.253 591.555 93.4202C589.092 95.5544 587.434 98.329 586.581 101.744H614.605C614.014 98.329 612.488 95.5544 610.025 93.4202C607.562 91.253 604.476 90.1695 600.765 90.1695ZM674.398 131H664.301V125.976C664.17 126.108 663.94 126.321 663.612 126.617C663.316 126.912 662.692 127.405 661.74 128.094C660.821 128.751 659.819 129.358 658.736 129.916C657.652 130.442 656.29 130.918 654.648 131.345C653.006 131.772 651.348 131.985 649.673 131.985C644.748 131.985 640.66 130.557 637.409 127.7C634.159 124.843 632.533 121.576 632.533 117.899C632.533 113.926 633.781 110.593 636.277 107.9C638.805 105.208 642.253 103.501 646.62 102.778L664.301 99.7245C664.301 97.1634 663.349 95.0127 661.445 93.2724C659.573 91.5321 657.16 90.662 654.205 90.662C651.643 90.662 649.312 91.2038 647.211 92.2873C645.142 93.3381 643.714 94.4052 642.926 95.4888L641.596 97.2126L635.045 90.662C635.242 90.3993 635.505 90.071 635.833 89.677C636.195 89.2501 636.966 88.5277 638.148 87.5098C639.363 86.4591 640.644 85.5233 641.99 84.7024C643.336 83.8815 645.109 83.1592 647.309 82.5353C649.542 81.8786 651.84 81.5502 654.205 81.5502C660.115 81.5502 664.958 83.3069 668.734 86.8203C672.51 90.3008 674.398 94.6022 674.398 99.7245V131ZM651.2 122.923C655.305 122.923 658.506 121.708 660.804 119.278C663.136 116.815 664.301 113.318 664.301 108.787V107.802L648.639 110.314C646.833 110.642 645.372 111.381 644.256 112.53C643.139 113.679 642.581 115.124 642.581 116.864C642.581 118.473 643.353 119.885 644.896 121.1C646.472 122.315 648.573 122.923 651.2 122.923ZM715.771 91.1545C714.424 90.8262 712.914 90.662 711.239 90.662C707.398 90.662 704.327 91.9097 702.029 94.4052C699.763 96.8679 698.631 100.332 698.631 104.798V131H688.534V82.5846H698.631V87.6083L699.271 86.968C699.566 86.6725 700.19 86.1964 701.142 85.5397C702.095 84.8502 703.096 84.2427 704.147 83.7174C705.23 83.1592 706.593 82.6666 708.235 82.2398C709.909 81.7801 711.584 81.5502 713.259 81.5502H715.771V91.1545ZM728.281 124.499C723.29 119.475 720.794 113.581 720.794 106.817C720.794 100.02 723.29 94.1097 728.281 89.0859C733.305 84.0621 739.215 81.5502 746.012 81.5502C749.788 81.5502 753.301 82.3711 756.552 84.0129C759.802 85.6218 762.134 87.2307 763.546 88.8397L765.664 91.1545L759.113 97.7051C758.785 97.1798 758.276 96.5395 757.586 95.7843C756.929 94.9962 755.468 93.9455 753.203 92.6321C750.97 91.3187 748.573 90.662 746.012 90.662C741.907 90.662 738.345 92.2217 735.324 95.341C732.336 98.4604 730.842 102.286 730.842 106.817C730.842 111.315 732.336 115.124 735.324 118.244C738.345 121.363 741.907 122.923 746.012 122.923C748.573 122.923 750.97 122.282 753.203 121.002C755.468 119.721 757.094 118.473 758.079 117.258L759.605 115.387L766.156 121.937C765.959 122.2 765.664 122.578 765.27 123.07C764.876 123.53 764.022 124.334 762.708 125.484C761.395 126.6 760.016 127.602 758.571 128.488C757.126 129.342 755.255 130.146 752.956 130.901C750.658 131.624 748.343 131.985 746.012 131.985C739.215 131.985 733.305 129.49 728.281 124.499ZM787.285 60.3716V87.6083C787.417 87.477 787.63 87.2636 787.926 86.968C788.254 86.6725 788.878 86.1964 789.797 85.5397C790.75 84.8502 791.767 84.2427 792.851 83.7174C793.935 83.1592 795.297 82.6666 796.939 82.2398C798.581 81.7801 800.239 81.5502 801.914 81.5502C807.758 81.5502 812.503 83.4711 816.148 87.3128C819.792 91.1545 821.615 96.3097 821.615 102.778V131H811.518V102.778C811.518 99.2977 810.401 96.4082 808.169 94.1097C805.969 91.8112 803.211 90.662 799.894 90.662C796.052 90.662 792.982 91.9097 790.684 94.4052C788.418 96.8679 787.285 100.332 787.285 104.798V131H777.238V60.3716H787.285Z" fill="white"/>
<path fill-rule="evenodd" clip-rule="evenodd" d="M397.696 97.9788C397.696 152.091 353.829 195.958 299.717 195.958C245.605 195.958 201.738 152.091 201.738 97.9788C201.738 43.8666 245.605 0 299.717 0C353.829 0 397.696 43.8666 397.696 97.9788ZM326.213 96.7715C326.213 111.77 314.054 123.929 299.056 123.929C284.057 123.929 271.898 111.77 271.898 96.7715C271.898 81.773 284.057 69.6143 299.056 69.6143C314.054 69.6143 326.213 81.773 326.213 96.7715ZM300.409 140.229C262.163 140.229 231.158 98.1353 231.158 98.1353C231.158 98.1353 262.163 56.0415 300.409 56.0415C338.656 56.0415 369.66 98.1353 369.66 98.1353C369.66 98.1353 338.656 140.229 300.409 140.229ZM242.456 99.5122C242.029 99.0309 241.627 98.571 241.251 98.1353C241.627 97.6996 242.029 97.2397 242.456 96.7584C245.776 93.0204 250.574 88.0439 256.478 83.0861C268.514 72.9785 284.047 63.8733 300.409 63.8733C316.771 63.8733 332.304 72.9785 344.341 83.0861C350.245 88.0439 355.043 93.0204 358.362 96.7584C358.79 97.2397 359.192 97.6996 359.568 98.1353C359.192 98.571 358.79 99.0309 358.362 99.5122C355.043 103.25 350.245 108.227 344.341 113.185C332.304 123.292 316.771 132.397 300.409 132.397C284.047 132.397 268.514 123.292 256.478 113.185C250.574 108.227 245.776 103.25 242.456 99.5122Z" fill="white"/>
</svg>
