<svg width="1917" height="180" viewBox="0 0 1917 180" fill="none" xmlns="http://www.w3.org/2000/svg">
<circle r="89.5" transform="matrix(1 -8.74228e-08 -8.74228e-08 -1 87 90)" stroke="black"/>
<path d="M81.2428 35.2616L135.732 89.7505M135.732 89.7505L81.2428 144.239M135.732 89.7505L26.7539 89.7505" stroke="black" stroke-width="2"/>
<path d="M288.815 64.7207L282.153 71.9277L289.342 82H285.387L279.815 74.2656L277.108 77.1484V82H273.504V64.7207H277.108V72.4551L284.491 64.7207H288.815ZM301.383 82.3516C300.739 82.3516 300.112 82.2754 299.502 82.123C298.893 81.9707 298.372 81.7832 297.938 81.5605C297.504 81.3262 297.118 81.0918 296.778 80.8574C296.45 80.6113 296.209 80.418 296.057 80.2773L295.811 80.0137V89.5586H292.208V64.7207H295.811V66.707C295.975 66.543 296.204 66.3262 296.497 66.0566C296.801 65.7871 297.44 65.4355 298.413 65.002C299.385 64.5684 300.375 64.3516 301.383 64.3516C303.668 64.3516 305.649 65.2305 307.325 66.9883C309.012 68.7344 309.856 70.8555 309.856 73.3516C309.856 75.8477 309.012 77.9746 307.325 79.7324C305.649 81.4785 303.668 82.3516 301.383 82.3516ZM304.67 69.291C303.616 68.166 302.403 67.6035 301.032 67.6035C299.661 67.6035 298.448 68.166 297.393 69.291C296.338 70.416 295.811 71.7754 295.811 73.3691C295.811 74.9512 296.338 76.3047 297.393 77.4297C298.448 78.5547 299.661 79.1172 301.032 79.1172C302.403 79.1172 303.616 78.5547 304.67 77.4297C305.725 76.3047 306.252 74.9512 306.252 73.3691C306.252 71.7754 305.725 70.416 304.67 69.291ZM329.807 74.6172H316.307C316.495 75.8359 317.092 76.8906 318.1 77.7812C319.12 78.6719 320.327 79.1172 321.721 79.1172C322.729 79.1172 323.667 78.8887 324.534 78.4316C325.413 77.9746 326.034 77.5293 326.397 77.0957L326.942 76.4277L329.28 78.7656C329.209 78.8594 329.098 78.9941 328.946 79.1699C328.805 79.334 328.495 79.6211 328.014 80.0312C327.534 80.4297 327.024 80.7871 326.485 81.1035C325.946 81.4082 325.243 81.6953 324.375 81.9648C323.52 82.2227 322.635 82.3516 321.721 82.3516C319.272 82.3516 317.157 81.4551 315.375 79.6621C313.606 77.8574 312.721 75.6953 312.721 73.1758C312.721 70.75 313.583 68.6758 315.305 66.9531C317.04 65.2188 319.114 64.3516 321.528 64.3516C323.954 64.3516 325.969 65.1602 327.575 66.7773C329.192 68.3828 330 70.3984 330 72.8242L329.807 74.6172ZM321.528 67.4277C320.227 67.4277 319.131 67.8145 318.241 68.5879C317.362 69.3496 316.77 70.3398 316.465 71.5586H326.467C326.256 70.3398 325.711 69.3496 324.833 68.5879C323.954 67.8145 322.852 67.4277 321.528 67.4277ZM347.807 82H344.204V80.207C344.157 80.2539 344.075 80.3301 343.958 80.4355C343.852 80.541 343.629 80.7168 343.29 80.9629C342.961 81.1973 342.604 81.4141 342.217 81.6133C341.831 81.8008 341.344 81.9707 340.758 82.123C340.172 82.2754 339.581 82.3516 338.983 82.3516C337.225 82.3516 335.766 81.8418 334.606 80.8223C333.446 79.8027 332.866 78.6367 332.866 77.3242C332.866 75.9062 333.311 74.7168 334.202 73.7559C335.104 72.7949 336.334 72.1855 337.893 71.9277L344.204 70.8379C344.204 69.9238 343.864 69.1562 343.184 68.5352C342.516 67.9141 341.655 67.6035 340.6 67.6035C339.686 67.6035 338.854 67.7969 338.104 68.1836C337.366 68.5586 336.856 68.9395 336.575 69.3262L336.1 69.9414L333.762 67.6035C333.833 67.5098 333.926 67.3926 334.043 67.252C334.172 67.0996 334.448 66.8418 334.87 66.4785C335.303 66.1035 335.76 65.7695 336.241 65.4766C336.721 65.1836 337.354 64.9258 338.139 64.7031C338.936 64.4688 339.756 64.3516 340.6 64.3516C342.709 64.3516 344.438 64.9785 345.786 66.2324C347.133 67.4746 347.807 69.0098 347.807 70.8379V82ZM339.528 79.1172C340.993 79.1172 342.135 78.6836 342.956 77.8164C343.788 76.9375 344.204 75.6895 344.204 74.0723V73.7207L338.614 74.6172C337.969 74.7344 337.448 74.998 337.049 75.4082C336.651 75.8184 336.452 76.334 336.452 76.9551C336.452 77.5293 336.727 78.0332 337.278 78.4668C337.84 78.9004 338.59 79.1172 339.528 79.1172ZM351.059 67.9551V64.7207H366.528V67.9551H360.586V82H357V67.9551H351.059ZM382.366 64.7207H385.6V82H381.997V70.6621L372.997 82H369.762V64.7207H373.366V76.0586L382.366 64.7207ZM390.645 64.7207H398.924C400.577 64.7207 401.889 65.1484 402.862 66.0039C403.834 66.8477 404.321 67.9199 404.321 69.2207C404.321 69.959 404.157 70.6328 403.829 71.2422C403.512 71.8398 403.184 72.2559 402.844 72.4902L402.352 72.8242C402.422 72.8477 402.522 72.8887 402.651 72.9473C402.78 73.0059 403.014 73.1582 403.354 73.4043C403.694 73.6387 403.987 73.9023 404.233 74.1953C404.491 74.4766 404.719 74.8633 404.918 75.3555C405.129 75.8477 405.235 76.3809 405.235 76.9551C405.235 78.4434 404.702 79.6562 403.635 80.5938C402.581 81.5312 401.133 82 399.293 82H390.645V64.7207ZM399.293 74.2656H394.249V78.9414H399.293C400.008 78.9414 400.577 78.7305 400.999 78.3086C401.42 77.8867 401.631 77.3184 401.631 76.6035C401.631 75.959 401.415 75.4082 400.981 74.9512C400.547 74.4941 399.985 74.2656 399.293 74.2656ZM400.243 70.9082C400.571 70.5801 400.735 70.1406 400.735 69.5898C400.735 69.0273 400.571 68.5879 400.243 68.2715C399.915 67.9434 399.475 67.7793 398.924 67.7793H394.249V71.3828H398.924C399.475 71.3828 399.915 71.2246 400.243 70.9082ZM412.776 74.793V82H409.172V64.7207H412.776V71.5586H421.231V64.7207H424.834V82H421.231V74.793H412.776ZM443.749 82H440.145V80.207C440.098 80.2539 440.016 80.3301 439.899 80.4355C439.793 80.541 439.571 80.7168 439.231 80.9629C438.903 81.1973 438.545 81.4141 438.159 81.6133C437.772 81.8008 437.286 81.9707 436.7 82.123C436.114 82.2754 435.522 82.3516 434.924 82.3516C433.167 82.3516 431.708 81.8418 430.547 80.8223C429.387 79.8027 428.807 78.6367 428.807 77.3242C428.807 75.9062 429.252 74.7168 430.143 73.7559C431.045 72.7949 432.276 72.1855 433.834 71.9277L440.145 70.8379C440.145 69.9238 439.805 69.1562 439.125 68.5352C438.458 67.9141 437.596 67.6035 436.542 67.6035C435.627 67.6035 434.795 67.7969 434.045 68.1836C433.307 68.5586 432.797 68.9395 432.516 69.3262L432.042 69.9414L429.704 67.6035C429.774 67.5098 429.868 67.3926 429.985 67.252C430.114 67.0996 430.389 66.8418 430.811 66.4785C431.245 66.1035 431.702 65.7695 432.182 65.4766C432.663 65.1836 433.295 64.9258 434.081 64.7031C434.877 64.4688 435.698 64.3516 436.542 64.3516C438.651 64.3516 440.379 64.9785 441.727 66.2324C443.075 67.4746 443.749 69.0098 443.749 70.8379V82ZM435.469 79.1172C436.934 79.1172 438.077 78.6836 438.897 77.8164C439.729 76.9375 440.145 75.6895 440.145 74.0723V73.7207L434.555 74.6172C433.911 74.7344 433.389 74.998 432.991 75.4082C432.592 75.8184 432.393 76.334 432.393 76.9551C432.393 77.5293 432.668 78.0332 433.219 78.4668C433.782 78.9004 434.532 79.1172 435.469 79.1172ZM454.559 64.7207H462.469V82H458.883V76.6035H455.104L451.676 82H447.721L451.5 76.0586C451.407 76.0352 451.278 75.9824 451.114 75.9004C450.961 75.8184 450.692 75.6367 450.305 75.3555C449.918 75.0625 449.573 74.7285 449.268 74.3535C448.975 73.9785 448.7 73.4629 448.442 72.8066C448.196 72.1387 448.073 71.4238 448.073 70.6621C448.073 68.9395 448.665 67.5215 449.848 66.4082C451.043 65.2832 452.614 64.7207 454.559 64.7207ZM458.883 67.7793H454.559C453.739 67.7793 453.053 68.0547 452.502 68.6055C451.952 69.1562 451.676 69.8418 451.676 70.6621C451.676 71.4824 451.952 72.168 452.502 72.7188C453.053 73.2695 453.739 73.5449 454.559 73.5449H458.883V67.7793ZM288.815 106.721L282.153 113.928L289.342 124H285.387L279.815 116.266L277.108 119.148V124H273.504V106.721H277.108V114.455L284.491 106.721H288.815ZM303.194 119.447C304.26 118.334 304.793 116.975 304.793 115.369C304.793 113.752 304.26 112.387 303.194 111.273C302.127 110.16 300.862 109.604 299.397 109.604C297.932 109.604 296.661 110.16 295.583 111.273C294.516 112.387 293.983 113.752 293.983 115.369C293.983 116.975 294.516 118.334 295.583 119.447C296.661 120.561 297.932 121.117 299.397 121.117C300.862 121.117 302.127 120.561 303.194 119.447ZM293.069 121.68C291.288 119.887 290.397 117.783 290.397 115.369C290.397 112.943 291.288 110.834 293.069 109.041C294.862 107.248 296.971 106.352 299.397 106.352C301.823 106.352 303.926 107.248 305.708 109.041C307.5 110.834 308.397 112.943 308.397 115.369C308.397 117.783 307.5 119.887 305.708 121.68C303.926 123.461 301.823 124.352 299.397 124.352C296.971 124.352 294.862 123.461 293.069 121.68ZM315.956 116.793V124H312.352V106.721H315.956V113.559H324.411V106.721H328.014V124H324.411V116.793H315.956ZM333.059 124V106.721H336.663V120.766H344.766V106.721H348.37V120.766H350.883V128.324H347.28V124H333.059ZM370.483 116.617H356.983C357.17 117.836 357.768 118.891 358.776 119.781C359.795 120.672 361.002 121.117 362.397 121.117C363.405 121.117 364.342 120.889 365.209 120.432C366.088 119.975 366.709 119.529 367.073 119.096L367.618 118.428L369.956 120.766C369.885 120.859 369.774 120.994 369.622 121.17C369.481 121.334 369.17 121.621 368.69 122.031C368.209 122.43 367.7 122.787 367.161 123.104C366.622 123.408 365.918 123.695 365.051 123.965C364.196 124.223 363.311 124.352 362.397 124.352C359.948 124.352 357.833 123.455 356.051 121.662C354.282 119.857 353.397 117.695 353.397 115.176C353.397 112.75 354.258 110.676 355.981 108.953C357.715 107.219 359.79 106.352 362.204 106.352C364.629 106.352 366.645 107.16 368.25 108.777C369.868 110.383 370.676 112.398 370.676 114.824L370.483 116.617ZM362.204 109.428C360.903 109.428 359.807 109.814 358.917 110.588C358.038 111.35 357.446 112.34 357.141 113.559H367.143C366.932 112.34 366.387 111.35 365.508 110.588C364.629 109.814 363.528 109.428 362.204 109.428ZM378.217 109.955V124H374.614V106.721H390.276V124H386.672V109.955H378.217ZM395.321 124V106.721H398.924V120.766H407.028V106.721H410.631V120.766H413.145V128.324H409.542V124H395.321ZM429.334 106.721H432.569V124H428.965V112.662L419.965 124H416.731V106.721H420.334V118.059L429.334 106.721ZM443.379 106.721H451.29V124H447.704V118.604H443.924L440.497 124H436.542L440.321 118.059C440.227 118.035 440.098 117.982 439.934 117.9C439.782 117.818 439.512 117.637 439.125 117.355C438.739 117.062 438.393 116.729 438.088 116.354C437.795 115.979 437.52 115.463 437.262 114.807C437.016 114.139 436.893 113.424 436.893 112.662C436.893 110.939 437.485 109.521 438.668 108.408C439.864 107.283 441.434 106.721 443.379 106.721ZM447.704 109.779H443.379C442.559 109.779 441.874 110.055 441.323 110.605C440.772 111.156 440.497 111.842 440.497 112.662C440.497 113.482 440.772 114.168 441.323 114.719C441.874 115.27 442.559 115.545 443.379 115.545H447.704V109.779Z" fill="black"/>
<circle cx="629.333" cy="90" r="70" fill="#E3966F"/>
<circle cx="629.833" cy="87.5" r="49.7218" stroke="black" stroke-width="3.55644"/>
<circle cx="629.833" cy="87.5" r="34.7218" stroke="black" stroke-width="3.55644"/>
<circle cx="629.833" cy="87.5" r="18.7218" stroke="black" stroke-width="3.55644"/>
<circle cx="629.833" cy="87.5" r="8.5" fill="black"/>
<rect x="177.5" y="0.5" width="541.333" height="179" rx="89.5" stroke="black"/>
<path d="M830.438 100.68C828.656 98.8867 827.766 96.7832 827.766 94.3691C827.766 91.9434 828.656 89.834 830.438 88.041C832.23 86.248 834.34 85.3516 836.766 85.3516C838.113 85.3516 839.367 85.6445 840.527 86.2305C841.688 86.8047 842.52 87.3789 843.023 87.9531L843.779 88.7793L841.441 91.1172C841.324 90.9297 841.143 90.7012 840.896 90.4316C840.662 90.1504 840.141 89.7754 839.332 89.3066C838.535 88.8379 837.68 88.6035 836.766 88.6035C835.301 88.6035 834.029 89.1602 832.951 90.2734C831.885 91.3867 831.352 92.752 831.352 94.3691C831.352 95.9746 831.885 97.334 832.951 98.4473C834.029 99.5605 835.301 100.117 836.766 100.117C837.68 100.117 838.535 99.8887 839.332 99.4316C840.141 98.9746 840.721 98.5293 841.072 98.0957L841.617 97.4277L843.955 99.7656C843.885 99.8594 843.779 99.9941 843.639 100.17C843.498 100.334 843.193 100.621 842.725 101.031C842.256 101.43 841.764 101.787 841.248 102.104C840.732 102.408 840.064 102.695 839.244 102.965C838.424 103.223 837.598 103.352 836.766 103.352C834.34 103.352 832.23 102.461 830.438 100.68ZM845.748 88.9551V85.7207H861.217V88.9551H855.275V103H851.689V88.9551H845.748ZM873.627 103.352C872.982 103.352 872.355 103.275 871.746 103.123C871.137 102.971 870.615 102.783 870.182 102.561C869.748 102.326 869.361 102.092 869.021 101.857C868.693 101.611 868.453 101.418 868.301 101.277L868.055 101.014V110.559H864.451V85.7207H868.055V87.707C868.219 87.543 868.447 87.3262 868.74 87.0566C869.045 86.7871 869.684 86.4355 870.656 86.002C871.629 85.5684 872.619 85.3516 873.627 85.3516C875.912 85.3516 877.893 86.2305 879.568 87.9883C881.256 89.7344 882.1 91.8555 882.1 94.3516C882.1 96.8477 881.256 98.9746 879.568 100.732C877.893 102.479 875.912 103.352 873.627 103.352ZM876.914 90.291C875.859 89.166 874.646 88.6035 873.275 88.6035C871.904 88.6035 870.691 89.166 869.637 90.291C868.582 91.416 868.055 92.7754 868.055 94.3691C868.055 95.9512 868.582 97.3047 869.637 98.4297C870.691 99.5547 871.904 100.117 873.275 100.117C874.646 100.117 875.859 99.5547 876.914 98.4297C877.969 97.3047 878.496 95.9512 878.496 94.3691C878.496 92.7754 877.969 91.416 876.914 90.291ZM899.906 103H896.303V101.207C896.256 101.254 896.174 101.33 896.057 101.436C895.951 101.541 895.729 101.717 895.389 101.963C895.061 102.197 894.703 102.414 894.316 102.613C893.93 102.801 893.443 102.971 892.857 103.123C892.271 103.275 891.68 103.352 891.082 103.352C889.324 103.352 887.865 102.842 886.705 101.822C885.545 100.803 884.965 99.6367 884.965 98.3242C884.965 96.9062 885.41 95.7168 886.301 94.7559C887.203 93.7949 888.434 93.1855 889.992 92.9277L896.303 91.8379C896.303 90.9238 895.963 90.1562 895.283 89.5352C894.615 88.9141 893.754 88.6035 892.699 88.6035C891.785 88.6035 890.953 88.7969 890.203 89.1836C889.465 89.5586 888.955 89.9395 888.674 90.3262L888.199 90.9414L885.861 88.6035C885.932 88.5098 886.025 88.3926 886.143 88.252C886.271 88.0996 886.547 87.8418 886.969 87.4785C887.402 87.1035 887.859 86.7695 888.34 86.4766C888.82 86.1836 889.453 85.9258 890.238 85.7031C891.035 85.4688 891.855 85.3516 892.699 85.3516C894.809 85.3516 896.537 85.9785 897.885 87.2324C899.232 88.4746 899.906 90.0098 899.906 91.8379V103ZM891.627 100.117C893.092 100.117 894.234 99.6836 895.055 98.8164C895.887 97.9375 896.303 96.6895 896.303 95.0723V94.7207L890.713 95.6172C890.068 95.7344 889.547 95.998 889.148 96.4082C888.75 96.8184 888.551 97.334 888.551 97.9551C888.551 98.5293 888.826 99.0332 889.377 99.4668C889.939 99.9004 890.689 100.117 891.627 100.117ZM903.158 88.9551V85.7207H918.627V88.9551H912.686V103H909.1V88.9551H903.158ZM937.875 95.6172H924.375C924.562 96.8359 925.16 97.8906 926.168 98.7812C927.188 99.6719 928.395 100.117 929.789 100.117C930.797 100.117 931.734 99.8887 932.602 99.4316C933.48 98.9746 934.102 98.5293 934.465 98.0957L935.01 97.4277L937.348 99.7656C937.277 99.8594 937.166 99.9941 937.014 100.17C936.873 100.334 936.562 100.621 936.082 101.031C935.602 101.43 935.092 101.787 934.553 102.104C934.014 102.408 933.311 102.695 932.443 102.965C931.588 103.223 930.703 103.352 929.789 103.352C927.34 103.352 925.225 102.455 923.443 100.662C921.674 98.8574 920.789 96.6953 920.789 94.1758C920.789 91.75 921.65 89.6758 923.373 87.9531C925.107 86.2188 927.182 85.3516 929.596 85.3516C932.021 85.3516 934.037 86.1602 935.643 87.7773C937.26 89.3828 938.068 91.3984 938.068 93.8242L937.875 95.6172ZM929.596 88.4277C928.295 88.4277 927.199 88.8145 926.309 89.5879C925.43 90.3496 924.838 91.3398 924.533 92.5586H934.535C934.324 91.3398 933.779 90.3496 932.9 89.5879C932.021 88.8145 930.92 88.4277 929.596 88.4277ZM954.064 85.7207V88.9551H945.609V103H942.006V85.7207H954.064ZM969.551 85.7207H972.785V103H969.182V91.6621L960.182 103H956.947V85.7207H960.551V97.0586L969.551 85.7207ZM983.596 85.7207H991.506V103H987.92V97.6035H984.141L980.713 103H976.758L980.537 97.0586C980.443 97.0352 980.314 96.9824 980.15 96.9004C979.998 96.8184 979.729 96.6367 979.342 96.3555C978.955 96.0625 978.609 95.7285 978.305 95.3535C978.012 94.9785 977.736 94.4629 977.479 93.8066C977.232 93.1387 977.109 92.4238 977.109 91.6621C977.109 89.9395 977.701 88.5215 978.885 87.4082C980.08 86.2832 981.65 85.7207 983.596 85.7207ZM987.92 88.7793H983.596C982.775 88.7793 982.09 89.0547 981.539 89.6055C980.988 90.1562 980.713 90.8418 980.713 91.6621C980.713 92.4824 980.988 93.168 981.539 93.7188C982.09 94.2695 982.775 94.5449 983.596 94.5449H987.92V88.7793Z" fill="black"/>
<circle cx="1171.67" cy="90" r="68.2218" stroke="black" stroke-width="3.55644"/>
<path d="M1183.37 49.0239L1151.77 89.918L1190.8 84.3415L1159.2 130.812" stroke="black" stroke-width="4.74193"/>
<rect x="719.833" y="0.5" width="541.333" height="179" rx="89.5" stroke="black"/>
<path d="M1318.17 146.5L1374.67 90M1374.67 90L1318.17 33.5M1374.67 90L1261.67 90" stroke="black" stroke-width="2"/>
<path d="M1408.77 88.9551V103H1405.17V85.7207H1420.83V103H1417.23V88.9551H1408.77ZM1437.6 98.4473C1438.67 97.334 1439.2 95.9746 1439.2 94.3691C1439.2 92.752 1438.67 91.3867 1437.6 90.2734C1436.54 89.1602 1435.27 88.6035 1433.81 88.6035C1432.34 88.6035 1431.07 89.1602 1429.99 90.2734C1428.93 91.3867 1428.39 92.752 1428.39 94.3691C1428.39 95.9746 1428.93 97.334 1429.99 98.4473C1431.07 99.5605 1432.34 100.117 1433.81 100.117C1435.27 100.117 1436.54 99.5605 1437.6 98.4473ZM1427.48 100.68C1425.7 98.8867 1424.81 96.7832 1424.81 94.3691C1424.81 91.9434 1425.7 89.834 1427.48 88.041C1429.27 86.248 1431.38 85.3516 1433.81 85.3516C1436.23 85.3516 1438.34 86.248 1440.12 88.041C1441.91 89.834 1442.81 91.9434 1442.81 94.3691C1442.81 96.7832 1441.91 98.8867 1440.12 100.68C1438.34 102.461 1436.23 103.352 1433.81 103.352C1431.38 103.352 1429.27 102.461 1427.48 100.68ZM1458.27 90.2207C1458.27 91.0176 1458.05 91.7148 1457.61 92.3125C1457.17 92.9102 1456.73 93.3027 1456.27 93.4902L1455.59 93.8242C1455.68 93.8477 1455.8 93.8887 1455.95 93.9473C1456.12 94.0059 1456.39 94.1465 1456.76 94.3691C1457.15 94.5801 1457.49 94.8379 1457.78 95.1426C1458.09 95.4355 1458.36 95.8457 1458.61 96.373C1458.87 96.9004 1459 97.4922 1459 98.1484C1459 99.5898 1458.35 100.82 1457.06 101.84C1455.78 102.848 1454.03 103.352 1451.81 103.352C1450.96 103.352 1450.15 103.246 1449.36 103.035C1448.59 102.824 1447.94 102.572 1447.43 102.279C1446.91 101.986 1446.46 101.693 1446.08 101.4C1445.69 101.096 1445.4 100.838 1445.21 100.627L1444.97 100.293L1447.31 97.9551C1447.45 98.1191 1447.63 98.3242 1447.87 98.5703C1448.11 98.8164 1448.63 99.1387 1449.42 99.5371C1450.21 99.9238 1451.01 100.117 1451.81 100.117C1453 100.117 1453.9 99.8945 1454.5 99.4492C1455.1 99.0039 1455.41 98.4473 1455.41 97.7793C1455.41 97.1113 1455.1 96.5547 1454.5 96.1094C1453.9 95.6641 1453 95.4414 1451.81 95.4414H1449.82V92.5586H1451.81C1452.74 92.5586 1453.46 92.377 1453.95 92.0137C1454.44 91.6387 1454.69 91.1641 1454.69 90.5898C1454.69 90.0039 1454.44 89.5293 1453.95 89.166C1453.46 88.791 1452.74 88.6035 1451.81 88.6035C1451.11 88.6035 1450.43 88.7383 1449.77 89.0078C1449.11 89.2656 1448.62 89.5352 1448.31 89.8164L1447.85 90.2207L1445.5 87.8828C1445.66 87.6953 1445.9 87.4609 1446.22 87.1797C1446.53 86.8984 1447.24 86.5234 1448.33 86.0547C1449.42 85.5859 1450.58 85.3516 1451.81 85.3516C1453.8 85.3516 1455.37 85.832 1456.53 86.793C1457.69 87.7539 1458.27 88.8965 1458.27 90.2207ZM1475.57 85.7207H1478.81V103H1475.2V91.6621L1466.2 103H1462.97V85.7207H1466.57V97.0586L1475.57 85.7207ZM1483.85 103V85.7207H1487.45V99.7656H1495.56V85.7207H1499.16V99.7656H1501.68V107.324H1498.07V103H1483.85ZM1517.86 85.7207H1521.1V103H1517.5V91.6621L1508.5 103H1505.26V85.7207H1508.86V97.0586L1517.86 85.7207ZM1537.87 98.4473C1538.93 97.334 1539.47 95.9746 1539.47 94.3691C1539.47 92.752 1538.93 91.3867 1537.87 90.2734C1536.8 89.1602 1535.54 88.6035 1534.07 88.6035C1532.61 88.6035 1531.34 89.1602 1530.26 90.2734C1529.19 91.3867 1528.66 92.752 1528.66 94.3691C1528.66 95.9746 1529.19 97.334 1530.26 98.4473C1531.34 99.5605 1532.61 100.117 1534.07 100.117C1535.54 100.117 1536.8 99.5605 1537.87 98.4473ZM1527.74 100.68C1525.96 98.8867 1525.07 96.7832 1525.07 94.3691C1525.07 91.9434 1525.96 89.834 1527.74 88.041C1529.54 86.248 1531.65 85.3516 1534.07 85.3516C1536.5 85.3516 1538.6 86.248 1540.38 88.041C1542.18 89.834 1543.07 91.9434 1543.07 94.3691C1543.07 96.7832 1542.18 98.8867 1540.38 100.68C1538.6 102.461 1536.5 103.352 1534.07 103.352C1531.65 103.352 1529.54 102.461 1527.74 100.68ZM1550.63 95.793V103H1547.03V85.7207H1550.63V92.5586H1559.09V85.7207H1562.69V103H1559.09V95.793H1550.63ZM1580.34 85.7207H1583.57V103H1579.97V91.6621L1570.97 103H1567.73V85.7207H1571.34V97.0586L1580.34 85.7207ZM1597.79 103.352C1597.15 103.352 1596.52 103.275 1595.91 103.123C1595.3 102.971 1594.78 102.783 1594.35 102.561C1593.91 102.326 1593.53 102.092 1593.19 101.857C1592.86 101.611 1592.62 101.418 1592.47 101.277L1592.22 101.014V110.559H1588.62V85.7207H1592.22V87.707C1592.38 87.543 1592.61 87.3262 1592.91 87.0566C1593.21 86.7871 1593.85 86.4355 1594.82 86.002C1595.79 85.5684 1596.78 85.3516 1597.79 85.3516C1600.08 85.3516 1602.06 86.2305 1603.73 87.9883C1605.42 89.7344 1606.26 91.8555 1606.26 94.3516C1606.26 96.8477 1605.42 98.9746 1603.73 100.732C1602.06 102.479 1600.08 103.352 1597.79 103.352ZM1601.08 90.291C1600.02 89.166 1598.81 88.6035 1597.44 88.6035C1596.07 88.6035 1594.86 89.166 1593.8 90.291C1592.75 91.416 1592.22 92.7754 1592.22 94.3691C1592.22 95.9512 1592.75 97.3047 1593.8 98.4297C1594.86 99.5547 1596.07 100.117 1597.44 100.117C1598.81 100.117 1600.02 99.5547 1601.08 98.4297C1602.13 97.3047 1602.66 95.9512 1602.66 94.3691C1602.66 92.7754 1602.13 91.416 1601.08 90.291ZM1621.93 98.4473C1622.99 97.334 1623.53 95.9746 1623.53 94.3691C1623.53 92.752 1622.99 91.3867 1621.93 90.2734C1620.86 89.1602 1619.59 88.6035 1618.13 88.6035C1616.67 88.6035 1615.39 89.1602 1614.32 90.2734C1613.25 91.3867 1612.72 92.752 1612.72 94.3691C1612.72 95.9746 1613.25 97.334 1614.32 98.4473C1615.39 99.5605 1616.67 100.117 1618.13 100.117C1619.59 100.117 1620.86 99.5605 1621.93 98.4473ZM1611.8 100.68C1610.02 98.8867 1609.13 96.7832 1609.13 94.3691C1609.13 91.9434 1610.02 89.834 1611.8 88.041C1613.59 86.248 1615.7 85.3516 1618.13 85.3516C1620.56 85.3516 1622.66 86.248 1624.44 88.041C1626.23 89.834 1627.13 91.9434 1627.13 94.3691C1627.13 96.7832 1626.23 98.8867 1624.44 100.68C1622.66 102.461 1620.56 103.352 1618.13 103.352C1615.7 103.352 1613.59 102.461 1611.8 100.68ZM1631.09 85.7207H1639.36C1641.02 85.7207 1642.33 86.1484 1643.3 87.0039C1644.27 87.8477 1644.76 88.9199 1644.76 90.2207C1644.76 90.959 1644.6 91.6328 1644.27 92.2422C1643.95 92.8398 1643.62 93.2559 1643.28 93.4902L1642.79 93.8242C1642.86 93.8477 1642.96 93.8887 1643.09 93.9473C1643.22 94.0059 1643.45 94.1582 1643.79 94.4043C1644.13 94.6387 1644.43 94.9023 1644.67 95.1953C1644.93 95.4766 1645.16 95.8633 1645.36 96.3555C1645.57 96.8477 1645.68 97.3809 1645.68 97.9551C1645.68 99.4434 1645.14 100.656 1644.08 101.594C1643.02 102.531 1641.57 103 1639.73 103H1631.09V85.7207ZM1639.73 95.2656H1634.69V99.9414H1639.73C1640.45 99.9414 1641.02 99.7305 1641.44 99.3086C1641.86 98.8867 1642.07 98.3184 1642.07 97.6035C1642.07 96.959 1641.85 96.4082 1641.42 95.9512C1640.99 95.4941 1640.43 95.2656 1639.73 95.2656ZM1640.68 91.9082C1641.01 91.5801 1641.18 91.1406 1641.18 90.5898C1641.18 90.0273 1641.01 89.5879 1640.68 89.2715C1640.35 88.9434 1639.92 88.7793 1639.36 88.7793H1634.69V92.3828H1639.36C1639.92 92.3828 1640.35 92.2246 1640.68 91.9082ZM1663.48 103H1659.88V101.207C1659.83 101.254 1659.75 101.33 1659.63 101.436C1659.53 101.541 1659.3 101.717 1658.96 101.963C1658.64 102.197 1658.28 102.414 1657.89 102.613C1657.51 102.801 1657.02 102.971 1656.43 103.123C1655.85 103.275 1655.26 103.352 1654.66 103.352C1652.9 103.352 1651.44 102.842 1650.28 101.822C1649.12 100.803 1648.54 99.6367 1648.54 98.3242C1648.54 96.9062 1648.99 95.7168 1649.88 94.7559C1650.78 93.7949 1652.01 93.1855 1653.57 92.9277L1659.88 91.8379C1659.88 90.9238 1659.54 90.1562 1658.86 89.5352C1658.19 88.9141 1657.33 88.6035 1656.27 88.6035C1655.36 88.6035 1654.53 88.7969 1653.78 89.1836C1653.04 89.5586 1652.53 89.9395 1652.25 90.3262L1651.77 90.9414L1649.44 88.6035C1649.51 88.5098 1649.6 88.3926 1649.72 88.252C1649.85 88.0996 1650.12 87.8418 1650.54 87.4785C1650.98 87.1035 1651.43 86.7695 1651.92 86.4766C1652.4 86.1836 1653.03 85.9258 1653.81 85.7031C1654.61 85.4688 1655.43 85.3516 1656.27 85.3516C1658.38 85.3516 1660.11 85.9785 1661.46 87.2324C1662.81 88.4746 1663.48 90.0098 1663.48 91.8379V103ZM1655.2 100.117C1656.67 100.117 1657.81 99.6836 1658.63 98.8164C1659.46 97.9375 1659.88 96.6895 1659.88 95.0723V94.7207L1654.29 95.6172C1653.64 95.7344 1653.12 95.998 1652.72 96.4082C1652.33 96.8184 1652.13 97.334 1652.13 97.9551C1652.13 98.5293 1652.4 99.0332 1652.95 99.4668C1653.51 99.9004 1654.26 100.117 1655.2 100.117ZM1672.13 95.793V103H1668.53V85.7207H1672.13V92.5586H1680.59V85.7207H1684.19V103H1680.59V95.793H1672.13ZM1701.84 85.7207H1705.07V103H1701.47V91.6621L1692.47 103H1689.23V85.7207H1692.84V97.0586L1701.84 85.7207ZM1726.13 95.6172H1712.63C1712.82 96.8359 1713.42 97.8906 1714.42 98.7812C1715.44 99.6719 1716.65 100.117 1718.04 100.117C1719.05 100.117 1719.99 99.8887 1720.86 99.4316C1721.74 98.9746 1722.36 98.5293 1722.72 98.0957L1723.26 97.4277L1725.6 99.7656C1725.53 99.8594 1725.42 99.9941 1725.27 100.17C1725.13 100.334 1724.82 100.621 1724.34 101.031C1723.86 101.43 1723.35 101.787 1722.81 102.104C1722.27 102.408 1721.57 102.695 1720.7 102.965C1719.84 103.223 1718.96 103.352 1718.04 103.352C1715.59 103.352 1713.48 102.455 1711.7 100.662C1709.93 98.8574 1709.04 96.6953 1709.04 94.1758C1709.04 91.75 1709.91 89.6758 1711.63 87.9531C1713.36 86.2188 1715.44 85.3516 1717.85 85.3516C1720.28 85.3516 1722.29 86.1602 1723.9 87.7773C1725.51 89.3828 1726.32 91.3984 1726.32 93.8242L1726.13 95.6172ZM1717.85 88.4277C1716.55 88.4277 1715.45 88.8145 1714.56 89.5879C1713.68 90.3496 1713.09 91.3398 1712.79 92.5586H1722.79C1722.58 91.3398 1722.03 90.3496 1721.16 89.5879C1720.28 88.8145 1719.18 88.4277 1717.85 88.4277Z" fill="black"/>
<circle cx="1827" cy="90" r="70" fill="#9BCECA"/>
<path d="M1845.77 48.0786C1845.77 48.0786 1828.4 60.2961 1816.57 65.1988C1805.34 69.8488 1787.07 73.2554 1787.07 73.2554C1787.07 73.2554 1784.34 79.8014 1784.34 89.8721C1784.34 99.9428 1787.07 106.489 1787.07 106.489C1820.6 111.524 1843.76 130.658 1843.76 130.658" stroke="black" stroke-width="4"/>
<path d="M1863.91 89.8719C1863.91 101.625 1861.86 112.17 1858.62 119.702C1857 123.472 1855.12 126.395 1853.13 128.347C1851.16 130.29 1849.18 131.176 1847.28 131.176C1845.39 131.176 1843.41 130.29 1841.43 128.347C1839.45 126.395 1837.57 123.472 1835.95 119.702C1832.71 112.17 1830.65 101.625 1830.65 89.8719C1830.65 78.1191 1832.71 67.574 1835.95 60.0418C1837.57 56.2722 1839.45 53.3491 1841.43 51.3971C1843.41 49.4539 1845.39 48.5679 1847.28 48.5679C1849.18 48.5679 1851.16 49.4539 1853.13 51.3971C1855.12 53.3491 1857 56.2722 1858.62 60.0418C1861.86 67.574 1863.91 78.1191 1863.91 89.8719Z" stroke="black" stroke-width="4"/>
<path d="M1843.76 88.3616C1843.76 94.7578 1839.17 99.9429 1833.51 99.9429C1827.86 99.9429 1830.1 94.7578 1830.1 88.3616C1830.1 81.9654 1827.86 76.7803 1833.51 76.7803C1839.17 76.7803 1843.76 81.9654 1843.76 88.3616Z" fill="black"/>
<rect x="1375.17" y="0.5" width="541.333" height="179" rx="89.5" stroke="black"/>
</svg>
