<svg width="1920" height="204" viewBox="0 0 1920 204" fill="none" xmlns="http://www.w3.org/2000/svg">
<rect x="0.5" y="0.5" width="902.5" height="203" rx="101.5" fill="#9BCECA"/>
<path d="M298.602 102.221C298.602 103.018 298.379 103.715 297.934 104.312C297.5 104.91 297.055 105.303 296.598 105.49L295.912 105.824C296.006 105.848 296.129 105.889 296.281 105.947C296.445 106.006 296.715 106.146 297.09 106.369C297.477 106.58 297.816 106.838 298.109 107.143C298.414 107.436 298.689 107.846 298.936 108.373C299.193 108.9 299.322 109.492 299.322 110.148C299.322 111.59 298.678 112.82 297.389 113.84C296.111 114.848 294.359 115.352 292.133 115.352C291.289 115.352 290.475 115.246 289.689 115.035C288.916 114.824 288.271 114.572 287.756 114.279C287.24 113.986 286.789 113.693 286.402 113.4C286.016 113.096 285.729 112.838 285.541 112.627L285.295 112.293L287.633 109.955C287.773 110.119 287.961 110.324 288.195 110.57C288.441 110.816 288.957 111.139 289.742 111.537C290.539 111.924 291.336 112.117 292.133 112.117C293.328 112.117 294.225 111.895 294.822 111.449C295.432 111.004 295.736 110.447 295.736 109.779C295.736 109.111 295.432 108.555 294.822 108.109C294.225 107.664 293.328 107.441 292.133 107.441H290.146V104.559H292.133C293.07 104.559 293.785 104.377 294.277 104.014C294.77 103.639 295.016 103.164 295.016 102.59C295.016 102.004 294.77 101.529 294.277 101.166C293.785 100.791 293.07 100.604 292.133 100.604C291.441 100.604 290.762 100.738 290.094 101.008C289.438 101.266 288.951 101.535 288.635 101.816L288.178 102.221L285.822 99.8828C285.986 99.6953 286.227 99.4609 286.543 99.1797C286.859 98.8984 287.562 98.5234 288.652 98.0547C289.742 97.5859 290.902 97.3516 292.133 97.3516C294.125 97.3516 295.701 97.832 296.861 98.793C298.021 99.7539 298.602 100.896 298.602 102.221ZM317.164 115H313.561V113.207C313.514 113.254 313.432 113.33 313.314 113.436C313.209 113.541 312.986 113.717 312.646 113.963C312.318 114.197 311.961 114.414 311.574 114.613C311.188 114.801 310.701 114.971 310.115 115.123C309.529 115.275 308.938 115.352 308.34 115.352C306.582 115.352 305.123 114.842 303.963 113.822C302.803 112.803 302.223 111.637 302.223 110.324C302.223 108.906 302.668 107.717 303.559 106.756C304.461 105.795 305.691 105.186 307.25 104.928L313.561 103.838C313.561 102.924 313.221 102.156 312.541 101.535C311.873 100.914 311.012 100.604 309.957 100.604C309.043 100.604 308.211 100.797 307.461 101.184C306.723 101.559 306.213 101.939 305.932 102.326L305.457 102.941L303.119 100.604C303.189 100.51 303.283 100.393 303.4 100.252C303.529 100.1 303.805 99.8418 304.227 99.4785C304.66 99.1035 305.117 98.7695 305.598 98.4766C306.078 98.1836 306.711 97.9258 307.496 97.7031C308.293 97.4688 309.113 97.3516 309.957 97.3516C312.066 97.3516 313.795 97.9785 315.143 99.2324C316.49 100.475 317.164 102.01 317.164 103.838V115ZM308.885 112.117C310.35 112.117 311.492 111.684 312.312 110.816C313.145 109.938 313.561 108.689 313.561 107.072V106.721L307.971 107.617C307.326 107.734 306.805 107.998 306.406 108.408C306.008 108.818 305.809 109.334 305.809 109.955C305.809 110.529 306.084 111.033 306.635 111.467C307.197 111.9 307.947 112.117 308.885 112.117ZM325.812 100.955V115H322.209V97.7207H337.871V115H334.268V100.955H325.812ZM347.064 116.793L347.785 115L340.754 97.7207H344.533L349.578 110.324L354.623 97.7207H358.402L350.65 116.793C349.76 118.926 348.875 120.42 347.996 121.275C347.129 122.131 346.039 122.559 344.727 122.559C344.246 122.559 343.795 122.529 343.373 122.471C342.951 122.412 342.641 122.348 342.441 122.277L342.195 122.207V118.955C342.793 119.189 343.396 119.312 344.006 119.324C345.377 119.312 346.396 118.469 347.064 116.793ZM362.867 112.68C361.086 110.887 360.195 108.783 360.195 106.369C360.195 103.943 361.086 101.834 362.867 100.041C364.66 98.248 366.77 97.3516 369.195 97.3516C370.543 97.3516 371.797 97.6445 372.957 98.2305C374.117 98.8047 374.949 99.3789 375.453 99.9531L376.209 100.779L373.871 103.117C373.754 102.93 373.572 102.701 373.326 102.432C373.092 102.15 372.57 101.775 371.762 101.307C370.965 100.838 370.109 100.604 369.195 100.604C367.73 100.604 366.459 101.16 365.381 102.273C364.314 103.387 363.781 104.752 363.781 106.369C363.781 107.975 364.314 109.334 365.381 110.447C366.459 111.561 367.73 112.117 369.195 112.117C370.109 112.117 370.965 111.889 371.762 111.432C372.57 110.975 373.15 110.529 373.502 110.096L374.047 109.428L376.385 111.766C376.314 111.859 376.209 111.994 376.068 112.17C375.928 112.334 375.623 112.621 375.154 113.031C374.686 113.43 374.193 113.787 373.678 114.104C373.162 114.408 372.494 114.695 371.674 114.965C370.854 115.223 370.027 115.352 369.195 115.352C366.77 115.352 364.66 114.461 362.867 112.68ZM395.281 97.7207L388.619 104.928L395.809 115H391.854L386.281 107.266L383.574 110.148V115H379.971V97.7207H383.574V105.455L390.957 97.7207H395.281ZM418.484 97.7207H421.719V115H418.115V103.662L409.115 115H405.881V97.7207H409.484V109.059L418.484 97.7207ZM443.146 105.279L449.457 97.7207H452.34V115H448.736V103.662L443.146 110.324L437.574 103.662V115H433.971V97.7207H436.854L443.146 105.279ZM469.109 110.447C470.176 109.334 470.709 107.975 470.709 106.369C470.709 104.752 470.176 103.387 469.109 102.273C468.043 101.16 466.777 100.604 465.312 100.604C463.848 100.604 462.576 101.16 461.498 102.273C460.432 103.387 459.898 104.752 459.898 106.369C459.898 107.975 460.432 109.334 461.498 110.447C462.576 111.561 463.848 112.117 465.312 112.117C466.777 112.117 468.043 111.561 469.109 110.447ZM458.984 112.68C457.203 110.887 456.312 108.783 456.312 106.369C456.312 103.943 457.203 101.834 458.984 100.041C460.777 98.248 462.887 97.3516 465.312 97.3516C467.738 97.3516 469.842 98.248 471.623 100.041C473.416 101.834 474.312 103.943 474.312 106.369C474.312 108.783 473.416 110.887 471.623 112.68C469.842 114.461 467.738 115.352 465.312 115.352C462.887 115.352 460.777 114.461 458.984 112.68ZM475.754 111.766H477.002C477.072 111.695 477.172 111.584 477.301 111.432C477.441 111.268 477.676 110.91 478.004 110.359C478.344 109.809 478.637 109.217 478.883 108.584C479.141 107.939 479.369 107.096 479.568 106.053C479.779 105.01 479.885 103.914 479.885 102.766V97.7207H492.488V111.766H495.002V119.324H491.416V115H479.357V119.324H475.754V111.766ZM483.488 100.955V102.766C483.488 103.914 483.389 105.004 483.189 106.035C483.002 107.066 482.762 107.922 482.469 108.602C482.188 109.27 481.9 109.85 481.607 110.342C481.326 110.834 481.092 111.186 480.904 111.396L480.605 111.766H488.885V100.955H483.488ZM514.637 107.617H501.137C501.324 108.836 501.922 109.891 502.93 110.781C503.949 111.672 505.156 112.117 506.551 112.117C507.559 112.117 508.496 111.889 509.363 111.432C510.242 110.975 510.863 110.529 511.227 110.096L511.771 109.428L514.109 111.766C514.039 111.859 513.928 111.994 513.775 112.17C513.635 112.334 513.324 112.621 512.844 113.031C512.363 113.43 511.854 113.787 511.314 114.104C510.775 114.408 510.072 114.695 509.205 114.965C508.35 115.223 507.465 115.352 506.551 115.352C504.102 115.352 501.986 114.455 500.205 112.662C498.436 110.857 497.551 108.695 497.551 106.176C497.551 103.75 498.412 101.676 500.135 99.9531C501.869 98.2188 503.943 97.3516 506.357 97.3516C508.783 97.3516 510.799 98.1602 512.404 99.7773C514.021 101.383 514.83 103.398 514.83 105.824L514.637 107.617ZM506.357 100.428C505.057 100.428 503.961 100.814 503.07 101.588C502.191 102.35 501.6 103.34 501.295 104.559H511.297C511.086 103.34 510.541 102.35 509.662 101.588C508.783 100.814 507.682 100.428 506.357 100.428ZM527.943 115.352C527.299 115.352 526.672 115.275 526.062 115.123C525.453 114.971 524.932 114.783 524.498 114.561C524.064 114.326 523.678 114.092 523.338 113.857C523.01 113.611 522.77 113.418 522.617 113.277L522.371 113.014V122.559H518.768V97.7207H522.371V99.707C522.535 99.543 522.764 99.3262 523.057 99.0566C523.361 98.7871 524 98.4355 524.973 98.002C525.945 97.5684 526.936 97.3516 527.943 97.3516C530.229 97.3516 532.209 98.2305 533.885 99.9883C535.572 101.734 536.416 103.855 536.416 106.352C536.416 108.848 535.572 110.975 533.885 112.732C532.209 114.479 530.229 115.352 527.943 115.352ZM531.23 102.291C530.176 101.166 528.963 100.604 527.592 100.604C526.221 100.604 525.008 101.166 523.953 102.291C522.898 103.416 522.371 104.775 522.371 106.369C522.371 107.951 522.898 109.305 523.953 110.43C525.008 111.555 526.221 112.117 527.592 112.117C528.963 112.117 530.176 111.555 531.23 110.43C532.285 109.305 532.812 107.951 532.812 106.369C532.812 104.775 532.285 103.416 531.23 102.291ZM554.223 115H550.619V113.207C550.572 113.254 550.49 113.33 550.373 113.436C550.268 113.541 550.045 113.717 549.705 113.963C549.377 114.197 549.02 114.414 548.633 114.613C548.246 114.801 547.76 114.971 547.174 115.123C546.588 115.275 545.996 115.352 545.398 115.352C543.641 115.352 542.182 114.842 541.021 113.822C539.861 112.803 539.281 111.637 539.281 110.324C539.281 108.906 539.727 107.717 540.617 106.756C541.52 105.795 542.75 105.186 544.309 104.928L550.619 103.838C550.619 102.924 550.279 102.156 549.6 101.535C548.932 100.914 548.07 100.604 547.016 100.604C546.102 100.604 545.27 100.797 544.52 101.184C543.781 101.559 543.271 101.939 542.99 102.326L542.516 102.941L540.178 100.604C540.248 100.51 540.342 100.393 540.459 100.252C540.588 100.1 540.863 99.8418 541.285 99.4785C541.719 99.1035 542.176 98.7695 542.656 98.4766C543.137 98.1836 543.77 97.9258 544.555 97.7031C545.352 97.4688 546.172 97.3516 547.016 97.3516C549.125 97.3516 550.854 97.9785 552.201 99.2324C553.549 100.475 554.223 102.01 554.223 103.838V115ZM545.943 112.117C547.408 112.117 548.551 111.684 549.371 110.816C550.203 109.938 550.619 108.689 550.619 107.072V106.721L545.029 107.617C544.385 107.734 543.863 107.998 543.465 108.408C543.066 108.818 542.867 109.334 542.867 109.955C542.867 110.529 543.143 111.033 543.693 111.467C544.256 111.9 545.006 112.117 545.943 112.117ZM559.268 115V97.7207H562.871V111.766H570.975V97.7207H574.578V111.766H577.092V119.324H573.488V115H559.268ZM593.281 97.7207H596.516V115H592.912V103.662L583.912 115H580.678V97.7207H584.281V109.059L593.281 97.7207ZM607.326 97.7207H615.236V115H611.65V109.604H607.871L604.443 115H600.488L604.268 109.059C604.174 109.035 604.045 108.982 603.881 108.9C603.729 108.818 603.459 108.637 603.072 108.355C602.686 108.062 602.34 107.729 602.035 107.354C601.742 106.979 601.467 106.463 601.209 105.807C600.963 105.139 600.84 104.424 600.84 103.662C600.84 101.939 601.432 100.521 602.615 99.4082C603.811 98.2832 605.381 97.7207 607.326 97.7207ZM611.65 100.779H607.326C606.506 100.779 605.82 101.055 605.27 101.605C604.719 102.156 604.443 102.842 604.443 103.662C604.443 104.482 604.719 105.168 605.27 105.719C605.82 106.27 606.506 106.545 607.326 106.545H611.65V100.779Z" fill="black"/>
<rect x="0.5" y="0.5" width="902.5" height="203" rx="101.5" stroke="black"/>
<g clip-path="url(#clip0_1387_2581)">
<path d="M960 45.5001L1016.5 102M1016.5 102L960 158.5M1016.5 102L903.5 102" stroke="black" stroke-width="2"/>
</g>
<circle cx="1106.5" cy="102" r="70" fill="#70A16D"/>
<path d="M1068.14 82.7515C1068.14 93.6599 1076.98 102.503 1087.89 102.503C1098.8 102.503 1107.64 93.6599 1107.64 82.7515C1107.64 71.8431 1098.8 63 1087.89 63C1076.98 63 1068.14 71.8431 1068.14 82.7515Z" stroke="black" stroke-width="4.00001"/>
<path d="M1072.66 97L1060.5 109.155" stroke="black" stroke-width="4.00001"/>
<path d="M1141 118.752C1141 129.66 1132.16 138.503 1121.25 138.503C1110.34 138.503 1101.5 129.66 1101.5 118.752C1101.5 107.843 1110.34 99 1121.25 99C1132.16 99 1141 107.843 1141 118.752Z" stroke="black" stroke-width="4.00001"/>
<path d="M1136.49 133L1148.64 145.155" stroke="black" stroke-width="4.00001"/>
<path d="M1476.46 115H1472.85V113.207C1472.81 113.254 1472.72 113.33 1472.61 113.436C1472.5 113.541 1472.28 113.717 1471.94 113.963C1471.61 114.197 1471.25 114.414 1470.87 114.613C1470.48 114.801 1469.99 114.971 1469.41 115.123C1468.82 115.275 1468.23 115.352 1467.63 115.352C1465.88 115.352 1464.42 114.842 1463.26 113.822C1462.1 112.803 1461.52 111.637 1461.52 110.324C1461.52 108.906 1461.96 107.717 1462.85 106.756C1463.75 105.795 1464.98 105.186 1466.54 104.928L1472.85 103.838C1472.85 102.924 1472.51 102.156 1471.83 101.535C1471.17 100.914 1470.3 100.604 1469.25 100.604C1468.34 100.604 1467.5 100.797 1466.75 101.184C1466.02 101.559 1465.51 101.939 1465.22 102.326L1464.75 102.941L1462.41 100.604C1462.48 100.51 1462.58 100.393 1462.69 100.252C1462.82 100.1 1463.1 99.8418 1463.52 99.4785C1463.95 99.1035 1464.41 98.7695 1464.89 98.4766C1465.37 98.1836 1466 97.9258 1466.79 97.7031C1467.59 97.4688 1468.41 97.3516 1469.25 97.3516C1471.36 97.3516 1473.09 97.9785 1474.44 99.2324C1475.78 100.475 1476.46 102.01 1476.46 103.838V115ZM1468.18 112.117C1469.64 112.117 1470.79 111.684 1471.61 110.816C1472.44 109.938 1472.85 108.689 1472.85 107.072V106.721L1467.26 107.617C1466.62 107.734 1466.1 107.998 1465.7 108.408C1465.3 108.818 1465.1 109.334 1465.1 109.955C1465.1 110.529 1465.38 111.033 1465.93 111.467C1466.49 111.9 1467.24 112.117 1468.18 112.117ZM1485.11 107.793V115H1481.5V97.7207H1485.11V104.559H1493.56V97.7207H1497.16V115H1493.56V107.793H1485.11ZM1516.08 115H1512.47V113.207C1512.43 113.254 1512.35 113.33 1512.23 113.436C1512.12 113.541 1511.9 113.717 1511.56 113.963C1511.23 114.197 1510.88 114.414 1510.49 114.613C1510.1 114.801 1509.62 114.971 1509.03 115.123C1508.44 115.275 1507.85 115.352 1507.25 115.352C1505.5 115.352 1504.04 114.842 1502.88 113.822C1501.72 112.803 1501.14 111.637 1501.14 110.324C1501.14 108.906 1501.58 107.717 1502.47 106.756C1503.38 105.795 1504.61 105.186 1506.16 104.928L1512.47 103.838C1512.47 102.924 1512.13 102.156 1511.46 101.535C1510.79 100.914 1509.93 100.604 1508.87 100.604C1507.96 100.604 1507.12 100.797 1506.38 101.184C1505.64 101.559 1505.13 101.939 1504.85 102.326L1504.37 102.941L1502.03 100.604C1502.1 100.51 1502.2 100.393 1502.31 100.252C1502.44 100.1 1502.72 99.8418 1503.14 99.4785C1503.57 99.1035 1504.03 98.7695 1504.51 98.4766C1504.99 98.1836 1505.62 97.9258 1506.41 97.7031C1507.21 97.4688 1508.03 97.3516 1508.87 97.3516C1510.98 97.3516 1512.71 97.9785 1514.06 99.2324C1515.4 100.475 1516.08 102.01 1516.08 103.838V115ZM1507.8 112.117C1509.26 112.117 1510.41 111.684 1511.23 110.816C1512.06 109.938 1512.47 108.689 1512.47 107.072V106.721L1506.88 107.617C1506.24 107.734 1505.72 107.998 1505.32 108.408C1504.92 108.818 1504.72 109.334 1504.72 109.955C1504.72 110.529 1505 111.033 1505.55 111.467C1506.11 111.9 1506.86 112.117 1507.8 112.117ZM1523.11 97.7207H1536.43V115H1532.83V100.955H1526.71V102.766C1526.71 106.059 1526.45 108.66 1525.92 110.57C1525.41 112.469 1524.74 113.74 1523.92 114.385C1523.11 115.029 1522.06 115.352 1520.77 115.352C1520.46 115.352 1520.12 115.322 1519.75 115.264C1519.4 115.205 1519.12 115.141 1518.93 115.07L1518.61 115V111.572C1519.09 111.689 1519.51 111.754 1519.86 111.766C1520.6 111.766 1521.18 111.566 1521.6 111.168C1522.03 110.77 1522.39 109.891 1522.67 108.531C1522.96 107.16 1523.11 105.238 1523.11 102.766V97.7207ZM1554.08 97.7207H1557.32V115H1553.71V103.662L1544.71 115H1541.48V97.7207H1545.08V109.059L1554.08 97.7207ZM1560.57 100.955V97.7207H1576.04V100.955H1570.1V115H1566.51V100.955H1560.57ZM1591.88 97.7207H1595.11V115H1591.51V103.662L1582.51 115H1579.27V97.7207H1582.88V109.059L1591.88 97.7207ZM1615.46 97.7207L1608.8 104.928L1615.99 115H1612.04L1606.46 107.266L1603.76 110.148V115H1600.15V97.7207H1603.76V105.455L1611.14 97.7207H1615.46ZM1632.73 115H1629.12V113.207C1629.08 113.254 1628.99 113.33 1628.88 113.436C1628.77 113.541 1628.55 113.717 1628.21 113.963C1627.88 114.197 1627.52 114.414 1627.14 114.613C1626.75 114.801 1626.26 114.971 1625.68 115.123C1625.09 115.275 1624.5 115.352 1623.9 115.352C1622.14 115.352 1620.69 114.842 1619.53 113.822C1618.37 112.803 1617.79 111.637 1617.79 110.324C1617.79 108.906 1618.23 107.717 1619.12 106.756C1620.02 105.795 1621.25 105.186 1622.81 104.928L1629.12 103.838C1629.12 102.924 1628.78 102.156 1628.1 101.535C1627.44 100.914 1626.57 100.604 1625.52 100.604C1624.61 100.604 1623.77 100.797 1623.02 101.184C1622.29 101.559 1621.78 101.939 1621.49 102.326L1621.02 102.941L1618.68 100.604C1618.75 100.51 1618.85 100.393 1618.96 100.252C1619.09 100.1 1619.37 99.8418 1619.79 99.4785C1620.22 99.1035 1620.68 98.7695 1621.16 98.4766C1621.64 98.1836 1622.27 97.9258 1623.06 97.7031C1623.86 97.4688 1624.68 97.3516 1625.52 97.3516C1627.63 97.3516 1629.36 97.9785 1630.71 99.2324C1632.05 100.475 1632.73 102.01 1632.73 103.838V115ZM1624.45 112.117C1625.91 112.117 1627.05 111.684 1627.88 110.816C1628.71 109.938 1629.12 108.689 1629.12 107.072V106.721L1623.53 107.617C1622.89 107.734 1622.37 107.998 1621.97 108.408C1621.57 108.818 1621.37 109.334 1621.37 109.955C1621.37 110.529 1621.65 111.033 1622.2 111.467C1622.76 111.9 1623.51 112.117 1624.45 112.117Z" fill="black"/>
<rect x="1017" y="0.5" width="902.5" height="203" rx="101.5" stroke="black"/>
<defs>
<clipPath id="clip0_1387_2581">
<rect width="113" height="113" fill="white" transform="matrix(-1 8.74228e-08 8.74228e-08 1 1016.5 45.5)"/>
</clipPath>
</defs>
</svg>
