<svg width="1920" height="180" viewBox="0 0 1920 180" fill="none" xmlns="http://www.w3.org/2000/svg">
<circle r="89.5" transform="matrix(1 -8.74228e-08 -8.74228e-08 -1 90 90)" stroke="black"/>
<path d="M84.2428 35.2616L138.732 89.7505M138.732 89.7505L84.2428 144.239M138.732 89.7505L29.7539 89.7505" stroke="black" stroke-width="2"/>
<path d="M291.104 100.68C289.323 98.8867 288.432 96.7832 288.432 94.3691C288.432 91.9434 289.323 89.834 291.104 88.041C292.897 86.248 295.006 85.3516 297.432 85.3516C298.78 85.3516 300.034 85.6445 301.194 86.2305C302.354 86.8047 303.186 87.3789 303.69 87.9531L304.446 88.7793L302.108 91.1172C301.991 90.9297 301.809 90.7012 301.563 90.4316C301.329 90.1504 300.807 89.7754 299.999 89.3066C299.202 88.8379 298.346 88.6035 297.432 88.6035C295.967 88.6035 294.696 89.1602 293.618 90.2734C292.551 91.3867 292.018 92.752 292.018 94.3691C292.018 95.9746 292.551 97.334 293.618 98.4473C294.696 99.5605 295.967 100.117 297.432 100.117C298.346 100.117 299.202 99.8887 299.999 99.4316C300.807 98.9746 301.387 98.5293 301.739 98.0957L302.284 97.4277L304.622 99.7656C304.551 99.8594 304.446 99.9941 304.305 100.17C304.165 100.334 303.86 100.621 303.391 101.031C302.922 101.43 302.43 101.787 301.915 102.104C301.399 102.408 300.731 102.695 299.911 102.965C299.09 103.223 298.264 103.352 297.432 103.352C295.006 103.352 292.897 102.461 291.104 100.68ZM306.415 88.9551V85.7207H321.883V88.9551H315.942V103H312.356V88.9551H306.415ZM334.293 103.352C333.649 103.352 333.022 103.275 332.413 103.123C331.803 102.971 331.282 102.783 330.848 102.561C330.415 102.326 330.028 102.092 329.688 101.857C329.36 101.611 329.12 101.418 328.967 101.277L328.721 101.014V110.559H325.118V85.7207H328.721V87.707C328.885 87.543 329.114 87.3262 329.407 87.0566C329.711 86.7871 330.35 86.4355 331.323 86.002C332.295 85.5684 333.286 85.3516 334.293 85.3516C336.579 85.3516 338.559 86.2305 340.235 87.9883C341.922 89.7344 342.766 91.8555 342.766 94.3516C342.766 96.8477 341.922 98.9746 340.235 100.732C338.559 102.479 336.579 103.352 334.293 103.352ZM337.581 90.291C336.526 89.166 335.313 88.6035 333.942 88.6035C332.571 88.6035 331.358 89.166 330.303 90.291C329.249 91.416 328.721 92.7754 328.721 94.3691C328.721 95.9512 329.249 97.3047 330.303 98.4297C331.358 99.5547 332.571 100.117 333.942 100.117C335.313 100.117 336.526 99.5547 337.581 98.4297C338.635 97.3047 339.163 95.9512 339.163 94.3691C339.163 92.7754 338.635 91.416 337.581 90.291ZM360.573 103H356.969V101.207C356.922 101.254 356.84 101.33 356.723 101.436C356.618 101.541 356.395 101.717 356.055 101.963C355.727 102.197 355.37 102.414 354.983 102.613C354.596 102.801 354.11 102.971 353.524 103.123C352.938 103.275 352.346 103.352 351.749 103.352C349.991 103.352 348.532 102.842 347.372 101.822C346.211 100.803 345.631 99.6367 345.631 98.3242C345.631 96.9062 346.077 95.7168 346.967 94.7559C347.87 93.7949 349.1 93.1855 350.659 92.9277L356.969 91.8379C356.969 90.9238 356.629 90.1562 355.95 89.5352C355.282 88.9141 354.42 88.6035 353.366 88.6035C352.452 88.6035 351.62 88.7969 350.87 89.1836C350.131 89.5586 349.622 89.9395 349.34 90.3262L348.866 90.9414L346.528 88.6035C346.598 88.5098 346.692 88.3926 346.809 88.252C346.938 88.0996 347.213 87.8418 347.635 87.4785C348.069 87.1035 348.526 86.7695 349.006 86.4766C349.487 86.1836 350.12 85.9258 350.905 85.7031C351.702 85.4688 352.522 85.3516 353.366 85.3516C355.475 85.3516 357.204 85.9785 358.551 87.2324C359.899 88.4746 360.573 90.0098 360.573 91.8379V103ZM352.293 100.117C353.758 100.117 354.901 99.6836 355.721 98.8164C356.553 97.9375 356.969 96.6895 356.969 95.0723V94.7207L351.379 95.6172C350.735 95.7344 350.213 95.998 349.815 96.4082C349.417 96.8184 349.217 97.334 349.217 97.9551C349.217 98.5293 349.493 99.0332 350.043 99.4668C350.606 99.9004 351.356 100.117 352.293 100.117ZM363.825 88.9551V85.7207H379.293V88.9551H373.352V103H369.766V88.9551H363.825ZM398.542 95.6172H385.042C385.229 96.8359 385.827 97.8906 386.834 98.7812C387.854 99.6719 389.061 100.117 390.456 100.117C391.463 100.117 392.401 99.8887 393.268 99.4316C394.147 98.9746 394.768 98.5293 395.131 98.0957L395.676 97.4277L398.014 99.7656C397.944 99.8594 397.833 99.9941 397.68 100.17C397.54 100.334 397.229 100.621 396.749 101.031C396.268 101.43 395.758 101.787 395.219 102.104C394.68 102.408 393.977 102.695 393.11 102.965C392.254 103.223 391.37 103.352 390.456 103.352C388.006 103.352 385.891 102.455 384.11 100.662C382.34 98.8574 381.456 96.6953 381.456 94.1758C381.456 91.75 382.317 89.6758 384.04 87.9531C385.774 86.2188 387.848 85.3516 390.262 85.3516C392.688 85.3516 394.704 86.1602 396.309 87.7773C397.926 89.3828 398.735 91.3984 398.735 93.8242L398.542 95.6172ZM390.262 88.4277C388.961 88.4277 387.866 88.8145 386.975 89.5879C386.096 90.3496 385.504 91.3398 385.2 92.5586H395.202C394.991 91.3398 394.446 90.3496 393.567 89.5879C392.688 88.8145 391.586 88.4277 390.262 88.4277ZM414.731 85.7207V88.9551H406.276V103H402.672V85.7207H414.731ZM430.217 85.7207H433.452V103H429.848V91.6621L420.848 103H417.614V85.7207H421.217V97.0586L430.217 85.7207ZM444.262 85.7207H452.172V103H448.586V97.6035H444.807L441.379 103H437.424L441.204 97.0586C441.11 97.0352 440.981 96.9824 440.817 96.9004C440.665 96.8184 440.395 96.6367 440.008 96.3555C439.622 96.0625 439.276 95.7285 438.971 95.3535C438.678 94.9785 438.403 94.4629 438.145 93.8066C437.899 93.1387 437.776 92.4238 437.776 91.6621C437.776 89.9395 438.368 88.5215 439.551 87.4082C440.747 86.2832 442.317 85.7207 444.262 85.7207ZM448.586 88.7793H444.262C443.442 88.7793 442.756 89.0547 442.206 89.6055C441.655 90.1562 441.379 90.8418 441.379 91.6621C441.379 92.4824 441.655 93.168 442.206 93.7188C442.756 94.2695 443.442 94.5449 444.262 94.5449H448.586V88.7793Z" fill="black"/>
<circle cx="632.333" cy="90" r="68.2218" stroke="black" stroke-width="3.55644"/>
<path d="M644.036 49.0239L612.437 89.918L651.472 84.3415L619.872 130.812" stroke="black" stroke-width="4.74193"/>
<rect x="180.5" y="0.5" width="541.333" height="179" rx="89.5" stroke="black"/>
<path d="M832.514 72.2793L838.824 64.7207H841.707V82H838.104V70.6621L832.514 77.3242L826.941 70.6621V82H823.338V64.7207H826.221L832.514 72.2793ZM862.766 74.6172H849.266C849.453 75.8359 850.051 76.8906 851.059 77.7812C852.078 78.6719 853.285 79.1172 854.68 79.1172C855.688 79.1172 856.625 78.8887 857.492 78.4316C858.371 77.9746 858.992 77.5293 859.355 77.0957L859.9 76.4277L862.238 78.7656C862.168 78.8594 862.057 78.9941 861.904 79.1699C861.764 79.334 861.453 79.6211 860.973 80.0312C860.492 80.4297 859.982 80.7871 859.443 81.1035C858.904 81.4082 858.201 81.6953 857.334 81.9648C856.479 82.2227 855.594 82.3516 854.68 82.3516C852.23 82.3516 850.115 81.4551 848.334 79.6621C846.564 77.8574 845.68 75.6953 845.68 73.1758C845.68 70.75 846.541 68.6758 848.264 66.9531C849.998 65.2188 852.072 64.3516 854.486 64.3516C856.912 64.3516 858.928 65.1602 860.533 66.7773C862.15 68.3828 862.959 70.3984 862.959 72.8242L862.766 74.6172ZM854.486 67.4277C853.186 67.4277 852.09 67.8145 851.199 68.5879C850.32 69.3496 849.729 70.3398 849.424 71.5586H859.426C859.215 70.3398 858.67 69.3496 857.791 68.5879C856.912 67.8145 855.811 67.4277 854.486 67.4277ZM864.383 78.7656H865.631C865.701 78.6953 865.801 78.584 865.93 78.4316C866.07 78.2676 866.305 77.9102 866.633 77.3594C866.973 76.8086 867.266 76.2168 867.512 75.584C867.77 74.9395 867.998 74.0957 868.197 73.0527C868.408 72.0098 868.514 70.9141 868.514 69.7656V64.7207H881.117V78.7656H883.631V86.3242H880.045V82H867.986V86.3242H864.383V78.7656ZM872.117 67.9551V69.7656C872.117 70.9141 872.018 72.0039 871.818 73.0352C871.631 74.0664 871.391 74.9219 871.098 75.6016C870.816 76.2695 870.529 76.8496 870.236 77.3418C869.955 77.834 869.721 78.1855 869.533 78.3965L869.234 78.7656H877.514V67.9551H872.117ZM899.855 64.7207H903.09V82H899.486V70.6621L890.486 82H887.252V64.7207H890.855V76.0586L899.855 64.7207ZM922.004 82H918.4V80.207C918.354 80.2539 918.271 80.3301 918.154 80.4355C918.049 80.541 917.826 80.7168 917.486 80.9629C917.158 81.1973 916.801 81.4141 916.414 81.6133C916.027 81.8008 915.541 81.9707 914.955 82.123C914.369 82.2754 913.777 82.3516 913.18 82.3516C911.422 82.3516 909.963 81.8418 908.803 80.8223C907.643 79.8027 907.062 78.6367 907.062 77.3242C907.062 75.9062 907.508 74.7168 908.398 73.7559C909.301 72.7949 910.531 72.1855 912.09 71.9277L918.4 70.8379C918.4 69.9238 918.061 69.1562 917.381 68.5352C916.713 67.9141 915.852 67.6035 914.797 67.6035C913.883 67.6035 913.051 67.7969 912.301 68.1836C911.562 68.5586 911.053 68.9395 910.771 69.3262L910.297 69.9414L907.959 67.6035C908.029 67.5098 908.123 67.3926 908.24 67.252C908.369 67.0996 908.645 66.8418 909.066 66.4785C909.5 66.1035 909.957 65.7695 910.438 65.4766C910.918 65.1836 911.551 64.9258 912.336 64.7031C913.133 64.4688 913.953 64.3516 914.797 64.3516C916.906 64.3516 918.635 64.9785 919.982 66.2324C921.33 67.4746 922.004 69.0098 922.004 70.8379V82ZM913.725 79.1172C915.189 79.1172 916.332 78.6836 917.152 77.8164C917.984 76.9375 918.4 75.6895 918.4 74.0723V73.7207L912.811 74.6172C912.166 74.7344 911.645 74.998 911.246 75.4082C910.848 75.8184 910.648 76.334 910.648 76.9551C910.648 77.5293 910.924 78.0332 911.475 78.4668C912.037 78.9004 912.787 79.1172 913.725 79.1172ZM930.652 67.9551V82H927.049V64.7207H942.711V82H939.107V67.9551H930.652ZM949.742 64.7207H963.066V82H959.463V67.9551H953.346V69.7656C953.346 73.0586 953.082 75.6602 952.555 77.5703C952.039 79.4688 951.371 80.7402 950.551 81.3848C949.742 82.0293 948.693 82.3516 947.404 82.3516C947.088 82.3516 946.748 82.3223 946.385 82.2637C946.033 82.2051 945.758 82.1406 945.559 82.0703L945.242 82V78.5723C945.723 78.6895 946.139 78.7539 946.49 78.7656C947.229 78.7656 947.809 78.5664 948.23 78.168C948.664 77.7695 949.021 76.8906 949.303 75.5312C949.596 74.1602 949.742 72.2383 949.742 69.7656V64.7207ZM981.98 82H978.377V80.207C978.33 80.2539 978.248 80.3301 978.131 80.4355C978.025 80.541 977.803 80.7168 977.463 80.9629C977.135 81.1973 976.777 81.4141 976.391 81.6133C976.004 81.8008 975.518 81.9707 974.932 82.123C974.346 82.2754 973.754 82.3516 973.156 82.3516C971.398 82.3516 969.939 81.8418 968.779 80.8223C967.619 79.8027 967.039 78.6367 967.039 77.3242C967.039 75.9062 967.484 74.7168 968.375 73.7559C969.277 72.7949 970.508 72.1855 972.066 71.9277L978.377 70.8379C978.377 69.9238 978.037 69.1562 977.357 68.5352C976.689 67.9141 975.828 67.6035 974.773 67.6035C973.859 67.6035 973.027 67.7969 972.277 68.1836C971.539 68.5586 971.029 68.9395 970.748 69.3262L970.273 69.9414L967.936 67.6035C968.006 67.5098 968.1 67.3926 968.217 67.252C968.346 67.0996 968.621 66.8418 969.043 66.4785C969.477 66.1035 969.934 65.7695 970.414 65.4766C970.895 65.1836 971.527 64.9258 972.312 64.7031C973.109 64.4688 973.93 64.3516 974.773 64.3516C976.883 64.3516 978.611 64.9785 979.959 66.2324C981.307 67.4746 981.98 69.0098 981.98 70.8379V82ZM973.701 79.1172C975.166 79.1172 976.309 78.6836 977.129 77.8164C977.961 76.9375 978.377 75.6895 978.377 74.0723V73.7207L972.787 74.6172C972.143 74.7344 971.621 74.998 971.223 75.4082C970.824 75.8184 970.625 76.334 970.625 76.9551C970.625 77.5293 970.9 78.0332 971.451 78.4668C972.014 78.9004 972.764 79.1172 973.701 79.1172ZM990.629 74.793V82H987.025V64.7207H990.629V71.5586H999.084V64.7207H1002.69V82H999.084V74.793H990.629ZM835.941 106.721H839.176V124H835.572V112.662L826.572 124H823.338V106.721H826.941V118.059L835.941 106.721ZM868.707 115.545C868.707 117.971 867.852 120.045 866.141 121.768C864.441 123.49 862.42 124.352 860.076 124.352C857.369 124.352 855.189 123.385 853.537 121.451C851.896 119.506 851.076 116.693 851.076 113.014C851.076 108.818 851.855 105.672 853.414 103.574C854.973 101.477 857.193 100.188 860.076 99.707C861.354 99.4961 862.496 99.2266 863.504 98.8984C864.523 98.5703 865.227 98.2949 865.613 98.0723L866.193 97.7207L867.811 100.428C867.74 100.521 867.594 100.656 867.371 100.832C867.16 101.008 866.428 101.324 865.174 101.781C863.932 102.238 862.35 102.625 860.428 102.941C858.775 103.211 857.445 103.896 856.438 104.998C855.43 106.1 854.838 107.576 854.662 109.428C854.709 109.357 854.791 109.264 854.908 109.146C855.037 109.018 855.289 108.801 855.664 108.496C856.039 108.18 856.432 107.904 856.842 107.67C857.264 107.424 857.797 107.207 858.441 107.02C859.098 106.82 859.76 106.721 860.428 106.721C862.607 106.721 864.529 107.594 866.193 109.34C867.869 111.074 868.707 113.143 868.707 115.545ZM856.525 111.572C855.529 112.639 855.031 113.963 855.031 115.545C855.031 117.127 855.529 118.451 856.525 119.518C857.521 120.584 858.699 121.117 860.059 121.117C861.43 121.117 862.613 120.584 863.609 119.518C864.605 118.451 865.104 117.127 865.104 115.545C865.104 113.963 864.605 112.639 863.609 111.572C862.613 110.494 861.43 109.955 860.059 109.955C858.699 109.955 857.521 110.494 856.525 111.572ZM895.162 109.041C896.955 110.834 897.852 112.943 897.852 115.369C897.852 117.783 896.955 119.887 895.162 121.68C893.381 123.461 891.277 124.352 888.852 124.352C886.566 124.352 884.598 123.602 882.945 122.102C881.293 120.602 880.32 118.832 880.027 116.793H876.617V124H873.014V106.721H876.617V113.559H880.027C880.414 111.66 881.439 109.984 883.104 108.531C884.779 107.078 886.695 106.352 888.852 106.352C891.277 106.352 893.381 107.248 895.162 109.041ZM892.648 119.447C893.715 118.334 894.248 116.975 894.248 115.369C894.248 113.752 893.715 112.387 892.648 111.273C891.582 110.16 890.316 109.604 888.852 109.604C887.387 109.604 886.121 110.16 885.055 111.273C883.988 112.387 883.455 113.752 883.455 115.369C883.455 116.975 883.988 118.334 885.055 119.447C886.121 120.561 887.387 121.117 888.852 121.117C890.316 121.117 891.582 120.561 892.648 119.447ZM899.293 120.766H900.541C900.611 120.695 900.711 120.584 900.84 120.432C900.98 120.268 901.215 119.91 901.543 119.359C901.883 118.809 902.176 118.217 902.422 117.584C902.68 116.939 902.908 116.096 903.107 115.053C903.318 114.01 903.424 112.914 903.424 111.766V106.721H916.027V120.766H918.541V128.324H914.955V124H902.896V128.324H899.293V120.766ZM907.027 109.955V111.766C907.027 112.914 906.928 114.004 906.729 115.035C906.541 116.066 906.301 116.922 906.008 117.602C905.727 118.27 905.439 118.85 905.146 119.342C904.865 119.834 904.631 120.186 904.443 120.396L904.145 120.766H912.424V109.955H907.027ZM935.117 113.734L941.779 106.721H946.104L939.441 113.928L946.648 124H942.676L937.104 116.266L935.117 118.428V124H931.531V118.428L929.545 116.266L923.973 124H920L927.207 113.928L920.545 106.721H924.869L931.531 113.734V106.721H935.117V113.734ZM965.527 116.617H952.027C952.215 117.836 952.812 118.891 953.82 119.781C954.84 120.672 956.047 121.117 957.441 121.117C958.449 121.117 959.387 120.889 960.254 120.432C961.133 119.975 961.754 119.529 962.117 119.096L962.662 118.428L965 120.766C964.93 120.859 964.818 120.994 964.666 121.17C964.525 121.334 964.215 121.621 963.734 122.031C963.254 122.43 962.744 122.787 962.205 123.104C961.666 123.408 960.963 123.695 960.096 123.965C959.24 124.223 958.355 124.352 957.441 124.352C954.992 124.352 952.877 123.455 951.096 121.662C949.326 119.857 948.441 117.695 948.441 115.176C948.441 112.75 949.303 110.676 951.025 108.953C952.76 107.219 954.834 106.352 957.248 106.352C959.674 106.352 961.689 107.16 963.295 108.777C964.912 110.383 965.721 112.398 965.721 114.824L965.527 116.617ZM957.248 109.428C955.947 109.428 954.852 109.814 953.961 110.588C953.082 111.35 952.49 112.34 952.186 113.559H962.188C961.977 112.34 961.432 111.35 960.553 110.588C959.674 109.814 958.572 109.428 957.248 109.428ZM967.865 109.955V106.721H983.334V109.955H977.393V124H973.807V109.955H967.865Z" fill="black"/>
<circle cx="1174.67" cy="90" r="70" fill="#70A16D"/>
<path d="M1128.1 70.5068L1166.87 109.277" stroke="black" stroke-width="4.41143"/>
<path d="M1128.1 109.277L1166.87 70.5065" stroke="black" stroke-width="4.41143"/>
<path d="M1220.34 87.7376C1220.34 99.1235 1211.11 108.354 1199.72 108.354C1188.34 108.354 1179.1 99.1235 1179.1 87.7376C1179.1 76.3517 1188.34 67.1216 1199.72 67.1216C1211.11 67.1216 1220.34 76.3517 1220.34 87.7376Z" stroke="black" stroke-width="4"/>
<rect x="722.833" y="0.5" width="541.333" height="179" rx="89.5" stroke="black"/>
<path d="M1321.17 146.5L1377.67 90M1377.67 90L1321.17 33.5M1377.67 90L1264.67 90" stroke="black" stroke-width="2"/>
<rect x="1378.17" y="0.5" width="541.333" height="179" rx="89.5" fill="#CD93AF"/>
<path d="M1606.68 90.2207C1606.68 91.0176 1606.46 91.7148 1606.02 92.3125C1605.58 92.9102 1605.14 93.3027 1604.68 93.4902L1604 93.8242C1604.09 93.8477 1604.21 93.8887 1604.36 93.9473C1604.53 94.0059 1604.8 94.1465 1605.17 94.3691C1605.56 94.5801 1605.9 94.8379 1606.19 95.1426C1606.5 95.4355 1606.77 95.8457 1607.02 96.373C1607.28 96.9004 1607.41 97.4922 1607.41 98.1484C1607.41 99.5898 1606.76 100.82 1605.47 101.84C1604.19 102.848 1602.44 103.352 1600.22 103.352C1599.37 103.352 1598.56 103.246 1597.77 103.035C1597 102.824 1596.35 102.572 1595.84 102.279C1595.32 101.986 1594.87 101.693 1594.49 101.4C1594.1 101.096 1593.81 100.838 1593.62 100.627L1593.38 100.293L1595.72 97.9551C1595.86 98.1191 1596.04 98.3242 1596.28 98.5703C1596.52 98.8164 1597.04 99.1387 1597.83 99.5371C1598.62 99.9238 1599.42 100.117 1600.22 100.117C1601.41 100.117 1602.31 99.8945 1602.91 99.4492C1603.51 99.0039 1603.82 98.4473 1603.82 97.7793C1603.82 97.1113 1603.51 96.5547 1602.91 96.1094C1602.31 95.6641 1601.41 95.4414 1600.22 95.4414H1598.23V92.5586H1600.22C1601.15 92.5586 1601.87 92.377 1602.36 92.0137C1602.85 91.6387 1603.1 91.1641 1603.1 90.5898C1603.1 90.0039 1602.85 89.5293 1602.36 89.166C1601.87 88.791 1601.15 88.6035 1600.22 88.6035C1599.52 88.6035 1598.84 88.7383 1598.18 89.0078C1597.52 89.2656 1597.03 89.5352 1596.72 89.8164L1596.26 90.2207L1593.91 87.8828C1594.07 87.6953 1594.31 87.4609 1594.63 87.1797C1594.94 86.8984 1595.65 86.5234 1596.74 86.0547C1597.83 85.5859 1598.99 85.3516 1600.22 85.3516C1602.21 85.3516 1603.78 85.832 1604.94 86.793C1606.1 87.7539 1606.68 88.8965 1606.68 90.2207ZM1625.25 103H1621.64V101.207C1621.6 101.254 1621.51 101.33 1621.4 101.436C1621.29 101.541 1621.07 101.717 1620.73 101.963C1620.4 102.197 1620.04 102.414 1619.66 102.613C1619.27 102.801 1618.78 102.971 1618.2 103.123C1617.61 103.275 1617.02 103.352 1616.42 103.352C1614.67 103.352 1613.21 102.842 1612.05 101.822C1610.89 100.803 1610.31 99.6367 1610.31 98.3242C1610.31 96.9062 1610.75 95.7168 1611.64 94.7559C1612.54 93.7949 1613.77 93.1855 1615.33 92.9277L1621.64 91.8379C1621.64 90.9238 1621.3 90.1562 1620.62 89.5352C1619.96 88.9141 1619.09 88.6035 1618.04 88.6035C1617.13 88.6035 1616.29 88.7969 1615.54 89.1836C1614.81 89.5586 1614.3 89.9395 1614.01 90.3262L1613.54 90.9414L1611.2 88.6035C1611.27 88.5098 1611.37 88.3926 1611.48 88.252C1611.61 88.0996 1611.89 87.8418 1612.31 87.4785C1612.74 87.1035 1613.2 86.7695 1613.68 86.4766C1614.16 86.1836 1614.79 85.9258 1615.58 85.7031C1616.38 85.4688 1617.2 85.3516 1618.04 85.3516C1620.15 85.3516 1621.88 85.9785 1623.23 87.2324C1624.57 88.4746 1625.25 90.0098 1625.25 91.8379V103ZM1616.97 100.117C1618.43 100.117 1619.58 99.6836 1620.4 98.8164C1621.23 97.9375 1621.64 96.6895 1621.64 95.0723V94.7207L1616.05 95.6172C1615.41 95.7344 1614.89 95.998 1614.49 96.4082C1614.09 96.8184 1613.89 97.334 1613.89 97.9551C1613.89 98.5293 1614.17 99.0332 1614.72 99.4668C1615.28 99.9004 1616.03 100.117 1616.97 100.117ZM1633.9 88.9551V103H1630.29V85.7207H1645.95V103H1642.35V88.9551H1633.9ZM1655.15 104.793L1655.87 103L1648.84 85.7207H1652.62L1657.66 98.3242L1662.71 85.7207H1666.49L1658.73 104.793C1657.84 106.926 1656.96 108.42 1656.08 109.275C1655.21 110.131 1654.12 110.559 1652.81 110.559C1652.33 110.559 1651.88 110.529 1651.46 110.471C1651.03 110.412 1650.72 110.348 1650.52 110.277L1650.28 110.207V106.955C1650.88 107.189 1651.48 107.312 1652.09 107.324C1653.46 107.312 1654.48 106.469 1655.15 104.793ZM1670.95 100.68C1669.17 98.8867 1668.28 96.7832 1668.28 94.3691C1668.28 91.9434 1669.17 89.834 1670.95 88.041C1672.74 86.248 1674.85 85.3516 1677.28 85.3516C1678.63 85.3516 1679.88 85.6445 1681.04 86.2305C1682.2 86.8047 1683.03 87.3789 1683.54 87.9531L1684.29 88.7793L1681.95 91.1172C1681.84 90.9297 1681.66 90.7012 1681.41 90.4316C1681.17 90.1504 1680.65 89.7754 1679.84 89.3066C1679.05 88.8379 1678.19 88.6035 1677.28 88.6035C1675.81 88.6035 1674.54 89.1602 1673.46 90.2734C1672.4 91.3867 1671.86 92.752 1671.86 94.3691C1671.86 95.9746 1672.4 97.334 1673.46 98.4473C1674.54 99.5605 1675.81 100.117 1677.28 100.117C1678.19 100.117 1679.05 99.8887 1679.84 99.4316C1680.65 98.9746 1681.23 98.5293 1681.58 98.0957L1682.13 97.4277L1684.47 99.7656C1684.4 99.8594 1684.29 99.9941 1684.15 100.17C1684.01 100.334 1683.71 100.621 1683.24 101.031C1682.77 101.43 1682.28 101.787 1681.76 102.104C1681.25 102.408 1680.58 102.695 1679.76 102.965C1678.94 103.223 1678.11 103.352 1677.28 103.352C1674.85 103.352 1672.74 102.461 1670.95 100.68ZM1703.36 85.7207L1696.7 92.9277L1703.89 103H1699.94L1694.36 95.2656L1691.66 98.1484V103H1688.05V85.7207H1691.66V93.4551L1699.04 85.7207H1703.36Z" fill="black"/>
<rect x="1378.17" y="0.5" width="541.333" height="179" rx="89.5" stroke="black"/>
</svg>
