<svg width="1920" height="180" viewBox="0 0 1920 180" fill="none" xmlns="http://www.w3.org/2000/svg">
<circle r="89.5" transform="matrix(1 -8.74228e-08 -8.74228e-08 -1 90 90)" stroke="black"/>
<path d="M84.2426 35.2616L138.731 89.7505M138.731 89.7505L84.2426 144.239M138.731 89.7505L29.7537 89.7505" stroke="black" stroke-width="2"/>
<path d="M291.104 100.68C289.323 98.8867 288.432 96.7832 288.432 94.3691C288.432 91.9434 289.323 89.834 291.104 88.041C292.897 86.248 295.006 85.3516 297.432 85.3516C298.78 85.3516 300.034 85.6445 301.194 86.2305C302.354 86.8047 303.186 87.3789 303.69 87.9531L304.446 88.7793L302.108 91.1172C301.991 90.9297 301.809 90.7012 301.563 90.4316C301.329 90.1504 300.807 89.7754 299.999 89.3066C299.202 88.8379 298.346 88.6035 297.432 88.6035C295.967 88.6035 294.696 89.1602 293.618 90.2734C292.551 91.3867 292.018 92.752 292.018 94.3691C292.018 95.9746 292.551 97.334 293.618 98.4473C294.696 99.5605 295.967 100.117 297.432 100.117C298.346 100.117 299.202 99.8887 299.999 99.4316C300.807 98.9746 301.387 98.5293 301.739 98.0957L302.284 97.4277L304.622 99.7656C304.551 99.8594 304.446 99.9941 304.305 100.17C304.165 100.334 303.86 100.621 303.391 101.031C302.922 101.43 302.43 101.787 301.915 102.104C301.399 102.408 300.731 102.695 299.911 102.965C299.09 103.223 298.264 103.352 297.432 103.352C295.006 103.352 292.897 102.461 291.104 100.68ZM306.415 88.9551V85.7207H321.883V88.9551H315.942V103H312.356V88.9551H306.415ZM334.294 103.352C333.649 103.352 333.022 103.275 332.413 103.123C331.803 102.971 331.282 102.783 330.848 102.561C330.415 102.326 330.028 102.092 329.688 101.857C329.36 101.611 329.12 101.418 328.967 101.277L328.721 101.014V110.559H325.118V85.7207H328.721V87.707C328.885 87.543 329.114 87.3262 329.407 87.0566C329.712 86.7871 330.35 86.4355 331.323 86.002C332.296 85.5684 333.286 85.3516 334.294 85.3516C336.579 85.3516 338.559 86.2305 340.235 87.9883C341.922 89.7344 342.766 91.8555 342.766 94.3516C342.766 96.8477 341.922 98.9746 340.235 100.732C338.559 102.479 336.579 103.352 334.294 103.352ZM337.581 90.291C336.526 89.166 335.313 88.6035 333.942 88.6035C332.571 88.6035 331.358 89.166 330.303 90.291C329.249 91.416 328.721 92.7754 328.721 94.3691C328.721 95.9512 329.249 97.3047 330.303 98.4297C331.358 99.5547 332.571 100.117 333.942 100.117C335.313 100.117 336.526 99.5547 337.581 98.4297C338.635 97.3047 339.163 95.9512 339.163 94.3691C339.163 92.7754 338.635 91.416 337.581 90.291ZM360.573 103H356.969V101.207C356.922 101.254 356.84 101.33 356.723 101.436C356.618 101.541 356.395 101.717 356.055 101.963C355.727 102.197 355.37 102.414 354.983 102.613C354.596 102.801 354.11 102.971 353.524 103.123C352.938 103.275 352.346 103.352 351.749 103.352C349.991 103.352 348.532 102.842 347.372 101.822C346.212 100.803 345.631 99.6367 345.631 98.3242C345.631 96.9062 346.077 95.7168 346.967 94.7559C347.87 93.7949 349.1 93.1855 350.659 92.9277L356.969 91.8379C356.969 90.9238 356.63 90.1562 355.95 89.5352C355.282 88.9141 354.421 88.6035 353.366 88.6035C352.452 88.6035 351.62 88.7969 350.87 89.1836C350.131 89.5586 349.622 89.9395 349.34 90.3262L348.866 90.9414L346.528 88.6035C346.598 88.5098 346.692 88.3926 346.809 88.252C346.938 88.0996 347.214 87.8418 347.635 87.4785C348.069 87.1035 348.526 86.7695 349.006 86.4766C349.487 86.1836 350.12 85.9258 350.905 85.7031C351.702 85.4688 352.522 85.3516 353.366 85.3516C355.475 85.3516 357.204 85.9785 358.551 87.2324C359.899 88.4746 360.573 90.0098 360.573 91.8379V103ZM352.294 100.117C353.758 100.117 354.901 99.6836 355.721 98.8164C356.553 97.9375 356.969 96.6895 356.969 95.0723V94.7207L351.38 95.6172C350.735 95.7344 350.214 95.998 349.815 96.4082C349.417 96.8184 349.217 97.334 349.217 97.9551C349.217 98.5293 349.493 99.0332 350.044 99.4668C350.606 99.9004 351.356 100.117 352.294 100.117ZM363.825 88.9551V85.7207H379.294V88.9551H373.352V103H369.766V88.9551H363.825ZM398.542 95.6172H385.042C385.229 96.8359 385.827 97.8906 386.835 98.7812C387.854 99.6719 389.061 100.117 390.456 100.117C391.464 100.117 392.401 99.8887 393.268 99.4316C394.147 98.9746 394.768 98.5293 395.131 98.0957L395.676 97.4277L398.014 99.7656C397.944 99.8594 397.833 99.9941 397.68 100.17C397.54 100.334 397.229 100.621 396.749 101.031C396.268 101.43 395.758 101.787 395.219 102.104C394.68 102.408 393.977 102.695 393.11 102.965C392.255 103.223 391.37 103.352 390.456 103.352C388.006 103.352 385.891 102.455 384.11 100.662C382.34 98.8574 381.456 96.6953 381.456 94.1758C381.456 91.75 382.317 89.6758 384.04 87.9531C385.774 86.2188 387.848 85.3516 390.262 85.3516C392.688 85.3516 394.704 86.1602 396.309 87.7773C397.926 89.3828 398.735 91.3984 398.735 93.8242L398.542 95.6172ZM390.262 88.4277C388.962 88.4277 387.866 88.8145 386.975 89.5879C386.096 90.3496 385.505 91.3398 385.2 92.5586H395.202C394.991 91.3398 394.446 90.3496 393.567 89.5879C392.688 88.8145 391.587 88.4277 390.262 88.4277ZM414.731 85.7207V88.9551H406.276V103H402.672V85.7207H414.731ZM430.217 85.7207H433.452V103H429.848V91.6621L420.848 103H417.614V85.7207H421.217V97.0586L430.217 85.7207ZM444.262 85.7207H452.172V103H448.587V97.6035H444.807L441.38 103H437.424L441.204 97.0586C441.11 97.0352 440.981 96.9824 440.817 96.9004C440.665 96.8184 440.395 96.6367 440.008 96.3555C439.622 96.0625 439.276 95.7285 438.971 95.3535C438.678 94.9785 438.403 94.4629 438.145 93.8066C437.899 93.1387 437.776 92.4238 437.776 91.6621C437.776 89.9395 438.368 88.5215 439.551 87.4082C440.747 86.2832 442.317 85.7207 444.262 85.7207ZM448.587 88.7793H444.262C443.442 88.7793 442.756 89.0547 442.206 89.6055C441.655 90.1562 441.38 90.8418 441.38 91.6621C441.38 92.4824 441.655 93.168 442.206 93.7188C442.756 94.2695 443.442 94.5449 444.262 94.5449H448.587V88.7793Z" fill="black"/>
<circle cx="632.333" cy="90" r="68.2218" stroke="black" stroke-width="3.55644"/>
<path d="M644.036 49.0239L612.436 89.918L651.472 84.3415L619.872 130.812" stroke="black" stroke-width="4.74193"/>
<rect x="180.5" y="0.5" width="541.333" height="179" rx="89.5" stroke="black"/>
<path d="M756.441 88.9551V103H752.838V85.7207H768.5V103H764.896V88.9551H756.441ZM785.269 98.4473C786.336 97.334 786.869 95.9746 786.869 94.3691C786.869 92.752 786.336 91.3867 785.269 90.2734C784.203 89.1602 782.937 88.6035 781.473 88.6035C780.008 88.6035 778.736 89.1602 777.658 90.2734C776.592 91.3867 776.058 92.752 776.058 94.3691C776.058 95.9746 776.592 97.334 777.658 98.4473C778.736 99.5605 780.008 100.117 781.473 100.117C782.937 100.117 784.203 99.5605 785.269 98.4473ZM775.144 100.68C773.363 98.8867 772.473 96.7832 772.473 94.3691C772.473 91.9434 773.363 89.834 775.144 88.041C776.937 86.248 779.047 85.3516 781.473 85.3516C783.898 85.3516 786.002 86.248 787.783 88.041C789.576 89.834 790.473 91.9434 790.473 94.3691C790.473 96.7832 789.576 98.8867 787.783 100.68C786.002 102.461 783.898 103.352 781.473 103.352C779.047 103.352 776.937 102.461 775.144 100.68ZM805.941 90.2207C805.941 91.0176 805.719 91.7148 805.273 92.3125C804.84 92.9102 804.394 93.3027 803.937 93.4902L803.252 93.8242C803.346 93.8477 803.469 93.8887 803.621 93.9473C803.785 94.0059 804.055 94.1465 804.43 94.3691C804.816 94.5801 805.156 94.8379 805.449 95.1426C805.754 95.4355 806.029 95.8457 806.275 96.373C806.533 96.9004 806.662 97.4922 806.662 98.1484C806.662 99.5898 806.017 100.82 804.728 101.84C803.451 102.848 801.699 103.352 799.473 103.352C798.629 103.352 797.814 103.246 797.029 103.035C796.256 102.824 795.611 102.572 795.096 102.279C794.58 101.986 794.129 101.693 793.742 101.4C793.355 101.096 793.068 100.838 792.881 100.627L792.635 100.293L794.973 97.9551C795.113 98.1191 795.301 98.3242 795.535 98.5703C795.781 98.8164 796.297 99.1387 797.082 99.5371C797.879 99.9238 798.676 100.117 799.473 100.117C800.668 100.117 801.564 99.8945 802.162 99.4492C802.771 99.0039 803.076 98.4473 803.076 97.7793C803.076 97.1113 802.771 96.5547 802.162 96.1094C801.564 95.6641 800.668 95.4414 799.473 95.4414H797.486V92.5586H799.473C800.41 92.5586 801.125 92.377 801.617 92.0137C802.109 91.6387 802.355 91.1641 802.355 90.5898C802.355 90.0039 802.109 89.5293 801.617 89.166C801.125 88.791 800.41 88.6035 799.473 88.6035C798.781 88.6035 798.101 88.7383 797.433 89.0078C796.777 89.2656 796.291 89.5352 795.974 89.8164L795.517 90.2207L793.162 87.8828C793.326 87.6953 793.566 87.4609 793.883 87.1797C794.199 86.8984 794.902 86.5234 795.992 86.0547C797.082 85.5859 798.242 85.3516 799.473 85.3516C801.465 85.3516 803.041 85.832 804.201 86.793C805.361 87.7539 805.941 88.8965 805.941 90.2207ZM823.238 85.7207H826.473V103H822.869V91.6621L813.869 103H810.635V85.7207H814.238V97.0586L823.238 85.7207ZM831.517 103V85.7207H835.121V99.7656H843.224V85.7207H846.828V99.7656H849.342V107.324H845.738V103H831.517ZM865.531 85.7207H868.766V103H865.162V91.6621L856.162 103H852.928V85.7207H856.531V97.0586L865.531 85.7207ZM885.535 98.4473C886.601 97.334 887.135 95.9746 887.135 94.3691C887.135 92.752 886.601 91.3867 885.535 90.2734C884.469 89.1602 883.203 88.6035 881.738 88.6035C880.273 88.6035 879.002 89.1602 877.924 90.2734C876.857 91.3867 876.324 92.752 876.324 94.3691C876.324 95.9746 876.857 97.334 877.924 98.4473C879.002 99.5605 880.273 100.117 881.738 100.117C883.203 100.117 884.469 99.5605 885.535 98.4473ZM875.41 100.68C873.629 98.8867 872.738 96.7832 872.738 94.3691C872.738 91.9434 873.629 89.834 875.41 88.041C877.203 86.248 879.312 85.3516 881.738 85.3516C884.164 85.3516 886.267 86.248 888.049 88.041C889.842 89.834 890.738 91.9434 890.738 94.3691C890.738 96.7832 889.842 98.8867 888.049 100.68C886.267 102.461 884.164 103.352 881.738 103.352C879.312 103.352 877.203 102.461 875.41 100.68ZM898.297 95.793V103H894.693V85.7207H898.297V92.5586H906.752V85.7207H910.355V103H906.752V95.793H898.297ZM928.004 85.7207H931.238V103H927.635V91.6621L918.635 103H915.4V85.7207H919.004V97.0586L928.004 85.7207ZM945.459 103.352C944.814 103.352 944.187 103.275 943.578 103.123C942.969 102.971 942.447 102.783 942.014 102.561C941.58 102.326 941.193 102.092 940.853 101.857C940.525 101.611 940.285 101.418 940.133 101.277L939.887 101.014V110.559H936.283V85.7207H939.887V87.707C940.051 87.543 940.279 87.3262 940.572 87.0566C940.877 86.7871 941.516 86.4355 942.488 86.002C943.461 85.5684 944.451 85.3516 945.459 85.3516C947.744 85.3516 949.724 86.2305 951.4 87.9883C953.088 89.7344 953.932 91.8555 953.932 94.3516C953.932 96.8477 953.088 98.9746 951.4 100.732C949.724 102.479 947.744 103.352 945.459 103.352ZM948.746 90.291C947.691 89.166 946.478 88.6035 945.107 88.6035C943.736 88.6035 942.523 89.166 941.469 90.291C940.414 91.416 939.887 92.7754 939.887 94.3691C939.887 95.9512 940.414 97.3047 941.469 98.4297C942.523 99.5547 943.736 100.117 945.107 100.117C946.478 100.117 947.691 99.5547 948.746 98.4297C949.801 97.3047 950.328 95.9512 950.328 94.3691C950.328 92.7754 949.801 91.416 948.746 90.291ZM969.594 98.4473C970.66 97.334 971.193 95.9746 971.193 94.3691C971.193 92.752 970.66 91.3867 969.594 90.2734C968.527 89.1602 967.262 88.6035 965.797 88.6035C964.332 88.6035 963.06 89.1602 961.982 90.2734C960.916 91.3867 960.383 92.752 960.383 94.3691C960.383 95.9746 960.916 97.334 961.982 98.4473C963.06 99.5605 964.332 100.117 965.797 100.117C967.262 100.117 968.527 99.5605 969.594 98.4473ZM959.469 100.68C957.687 98.8867 956.797 96.7832 956.797 94.3691C956.797 91.9434 957.687 89.834 959.469 88.041C961.262 86.248 963.371 85.3516 965.797 85.3516C968.223 85.3516 970.326 86.248 972.107 88.041C973.9 89.834 974.797 91.9434 974.797 94.3691C974.797 96.7832 973.9 98.8867 972.107 100.68C970.326 102.461 968.223 103.352 965.797 103.352C963.371 103.352 961.262 102.461 959.469 100.68ZM978.752 85.7207H987.031C988.683 85.7207 989.996 86.1484 990.969 87.0039C991.941 87.8477 992.428 88.9199 992.428 90.2207C992.428 90.959 992.264 91.6328 991.935 92.2422C991.619 92.8398 991.291 93.2559 990.951 93.4902L990.459 93.8242C990.529 93.8477 990.629 93.8887 990.758 93.9473C990.887 94.0059 991.121 94.1582 991.461 94.4043C991.801 94.6387 992.094 94.9023 992.34 95.1953C992.598 95.4766 992.826 95.8633 993.025 96.3555C993.236 96.8477 993.342 97.3809 993.342 97.9551C993.342 99.4434 992.808 100.656 991.742 101.594C990.687 102.531 989.24 103 987.4 103H978.752V85.7207ZM987.4 95.2656H982.355V99.9414H987.4C988.115 99.9414 988.683 99.7305 989.105 99.3086C989.527 98.8867 989.738 98.3184 989.738 97.6035C989.738 96.959 989.521 96.4082 989.088 95.9512C988.654 95.4941 988.092 95.2656 987.4 95.2656ZM988.349 91.9082C988.678 91.5801 988.842 91.1406 988.842 90.5898C988.842 90.0273 988.678 89.5879 988.349 89.2715C988.021 88.9434 987.582 88.7793 987.031 88.7793H982.355V92.3828H987.031C987.582 92.3828 988.021 92.2246 988.349 91.9082ZM1011.15 103H1007.54V101.207C1007.5 101.254 1007.42 101.33 1007.3 101.436C1007.19 101.541 1006.97 101.717 1006.63 101.963C1006.3 102.197 1005.95 102.414 1005.56 102.613C1005.17 102.801 1004.69 102.971 1004.1 103.123C1003.51 103.275 1002.92 103.352 1002.32 103.352C1000.57 103.352 999.107 102.842 997.947 101.822C996.787 100.803 996.207 99.6367 996.207 98.3242C996.207 96.9062 996.652 95.7168 997.543 94.7559C998.445 93.7949 999.676 93.1855 1001.23 92.9277L1007.54 91.8379C1007.54 90.9238 1007.2 90.1562 1006.53 89.5352C1005.86 88.9141 1005 88.6035 1003.94 88.6035C1003.03 88.6035 1002.2 88.7969 1001.45 89.1836C1000.71 89.5586 1000.2 89.9395 999.916 90.3262L999.441 90.9414L997.103 88.6035C997.174 88.5098 997.267 88.3926 997.385 88.252C997.514 88.0996 997.789 87.8418 998.211 87.4785C998.644 87.1035 999.101 86.7695 999.582 86.4766C1000.06 86.1836 1000.7 85.9258 1001.48 85.7031C1002.28 85.4688 1003.1 85.3516 1003.94 85.3516C1006.05 85.3516 1007.78 85.9785 1009.13 87.2324C1010.47 88.4746 1011.15 90.0098 1011.15 91.8379V103ZM1002.87 100.117C1004.33 100.117 1005.48 99.6836 1006.3 98.8164C1007.13 97.9375 1007.54 96.6895 1007.54 95.0723V94.7207L1001.95 95.6172C1001.31 95.7344 1000.79 95.998 1000.39 96.4082C999.992 96.8184 999.793 97.334 999.793 97.9551C999.793 98.5293 1000.07 99.0332 1000.62 99.4668C1001.18 99.9004 1001.93 100.117 1002.87 100.117ZM1019.8 95.793V103H1016.19V85.7207H1019.8V92.5586H1028.25V85.7207H1031.86V103H1028.25V95.793H1019.8ZM1049.5 85.7207H1052.74V103H1049.13V91.6621L1040.13 103H1036.9V85.7207H1040.5V97.0586L1049.5 85.7207ZM1073.8 95.6172H1060.3C1060.48 96.8359 1061.08 97.8906 1062.09 98.7812C1063.11 99.6719 1064.32 100.117 1065.71 100.117C1066.72 100.117 1067.66 99.8887 1068.52 99.4316C1069.4 98.9746 1070.02 98.5293 1070.39 98.0957L1070.93 97.4277L1073.27 99.7656C1073.2 99.8594 1073.09 99.9941 1072.94 100.17C1072.79 100.334 1072.48 100.621 1072 101.031C1071.52 101.43 1071.01 101.787 1070.47 102.104C1069.94 102.408 1069.23 102.695 1068.37 102.965C1067.51 103.223 1066.62 103.352 1065.71 103.352C1063.26 103.352 1061.15 102.455 1059.37 100.662C1057.6 98.8574 1056.71 96.6953 1056.71 94.1758C1056.71 91.75 1057.57 89.6758 1059.29 87.9531C1061.03 86.2188 1063.1 85.3516 1065.52 85.3516C1067.94 85.3516 1069.96 86.1602 1071.56 87.7773C1073.18 89.3828 1073.99 91.3984 1073.99 93.8242L1073.8 95.6172ZM1065.52 88.4277C1064.22 88.4277 1063.12 88.8145 1062.23 89.5879C1061.35 90.3496 1060.76 91.3398 1060.45 92.5586H1070.46C1070.25 91.3398 1069.7 90.3496 1068.82 89.5879C1067.94 88.8145 1066.84 88.4277 1065.52 88.4277Z" fill="black"/>
<circle cx="1174.67" cy="90" r="70" fill="#CD93AF"/>
<path d="M1195.39 48.853C1195.39 48.853 1178.02 61.0705 1166.19 65.9732C1154.96 70.6232 1136.69 74.0298 1136.69 74.0298C1136.69 74.0298 1133.96 80.5758 1133.96 90.6465C1133.96 100.717 1136.69 107.263 1136.69 107.263C1170.22 112.299 1193.38 131.433 1193.38 131.433" stroke="black" stroke-width="4"/>
<path d="M1213.53 90.6464C1213.53 102.399 1211.48 112.944 1208.24 120.477C1206.62 124.246 1204.74 127.169 1202.75 129.121C1200.78 131.064 1198.8 131.95 1196.9 131.95C1195.01 131.95 1193.03 131.064 1191.05 129.121C1189.07 127.169 1187.19 124.246 1185.57 120.477C1182.33 112.944 1180.27 102.399 1180.27 90.6464C1180.27 78.8935 1182.33 68.3484 1185.57 60.8162C1187.19 57.0466 1189.07 54.1235 1191.05 52.1715C1193.03 50.2283 1195.01 49.3423 1196.9 49.3423C1198.8 49.3423 1200.78 50.2283 1202.75 52.1715C1204.74 54.1235 1206.62 57.0466 1208.24 60.8162C1211.48 68.3484 1213.53 78.8935 1213.53 90.6464Z" stroke="black" stroke-width="4"/>
<path d="M1193.38 89.136C1193.38 95.5322 1188.79 100.717 1183.13 100.717C1177.48 100.717 1179.72 95.5322 1179.72 89.136C1179.72 82.7398 1177.48 77.5547 1183.13 77.5547C1188.79 77.5547 1193.38 82.7398 1193.38 89.136Z" fill="black"/>
<rect x="722.833" y="0.5" width="541.333" height="179" rx="89.5" stroke="black"/>
<path d="M1321.17 146.5L1377.67 90M1377.67 90L1321.17 33.5M1377.67 90L1264.67 90" stroke="black" stroke-width="2"/>
<path d="M1496.54 103H1492.94V101.207C1492.89 101.254 1492.81 101.33 1492.69 101.436C1492.59 101.541 1492.36 101.717 1492.02 101.963C1491.69 102.197 1491.34 102.414 1490.95 102.613C1490.56 102.801 1490.08 102.971 1489.49 103.123C1488.91 103.275 1488.31 103.352 1487.72 103.352C1485.96 103.352 1484.5 102.842 1483.34 101.822C1482.18 100.803 1481.6 99.6367 1481.6 98.3242C1481.6 96.9062 1482.04 95.7168 1482.93 94.7559C1483.84 93.7949 1485.07 93.1855 1486.63 92.9277L1492.94 91.8379C1492.94 90.9238 1492.6 90.1562 1491.92 89.5352C1491.25 88.9141 1490.39 88.6035 1489.33 88.6035C1488.42 88.6035 1487.59 88.7969 1486.84 89.1836C1486.1 89.5586 1485.59 89.9395 1485.31 90.3262L1484.83 90.9414L1482.5 88.6035C1482.57 88.5098 1482.66 88.3926 1482.78 88.252C1482.91 88.0996 1483.18 87.8418 1483.6 87.4785C1484.04 87.1035 1484.49 86.7695 1484.97 86.4766C1485.45 86.1836 1486.09 85.9258 1486.87 85.7031C1487.67 85.4688 1488.49 85.3516 1489.33 85.3516C1491.44 85.3516 1493.17 85.9785 1494.52 87.2324C1495.87 88.4746 1496.54 90.0098 1496.54 91.8379V103ZM1488.26 100.117C1489.73 100.117 1490.87 99.6836 1491.69 98.8164C1492.52 97.9375 1492.94 96.6895 1492.94 95.0723V94.7207L1487.35 95.6172C1486.7 95.7344 1486.18 95.998 1485.78 96.4082C1485.38 96.8184 1485.18 97.334 1485.18 97.9551C1485.18 98.5293 1485.46 99.0332 1486.01 99.4668C1486.57 99.9004 1487.32 100.117 1488.26 100.117ZM1514.19 85.7207H1517.42V103H1513.82V91.6621L1504.82 103H1501.59V85.7207H1505.19V97.0586L1514.19 85.7207ZM1507.7 79.6035C1508.18 80.084 1508.78 80.3242 1509.5 80.3242C1510.22 80.3242 1510.83 80.084 1511.31 79.6035C1511.79 79.123 1512.03 78.5195 1512.03 77.793H1514.73C1514.73 79.2344 1514.24 80.4355 1513.26 81.3965C1512.27 82.3574 1511.02 82.8379 1509.51 82.8379C1508 82.8379 1506.75 82.3574 1505.77 81.3965C1504.78 80.4355 1504.29 79.2344 1504.29 77.793H1506.98C1506.98 78.5078 1507.22 79.1113 1507.7 79.6035ZM1519.95 99.7656H1521.2C1521.27 99.6953 1521.37 99.584 1521.5 99.4316C1521.64 99.2676 1521.88 98.9102 1522.2 98.3594C1522.54 97.8086 1522.84 97.2168 1523.08 96.584C1523.34 95.9395 1523.57 95.0957 1523.77 94.0527C1523.98 93.0098 1524.09 91.9141 1524.09 90.7656V85.7207H1536.69V99.7656H1539.2V107.324H1535.62V103H1523.56V107.324H1519.95V99.7656ZM1527.69 88.9551V90.7656C1527.69 91.9141 1527.59 93.0039 1527.39 94.0352C1527.2 95.0664 1526.96 95.9219 1526.67 96.6016C1526.39 97.2695 1526.1 97.8496 1525.81 98.3418C1525.53 98.834 1525.29 99.1855 1525.1 99.3965L1524.81 99.7656H1533.09V88.9551H1527.69ZM1558.84 95.6172H1545.34C1545.52 96.8359 1546.12 97.8906 1547.13 98.7812C1548.15 99.6719 1549.36 100.117 1550.75 100.117C1551.76 100.117 1552.7 99.8887 1553.56 99.4316C1554.44 98.9746 1555.06 98.5293 1555.43 98.0957L1555.97 97.4277L1558.31 99.7656C1558.24 99.8594 1558.13 99.9941 1557.98 100.17C1557.84 100.334 1557.52 100.621 1557.04 101.031C1556.56 101.43 1556.05 101.787 1555.51 102.104C1554.98 102.408 1554.27 102.695 1553.41 102.965C1552.55 103.223 1551.67 103.352 1550.75 103.352C1548.3 103.352 1546.19 102.455 1544.41 100.662C1542.64 98.8574 1541.75 96.6953 1541.75 94.1758C1541.75 91.75 1542.61 89.6758 1544.34 87.9531C1546.07 86.2188 1548.14 85.3516 1550.56 85.3516C1552.98 85.3516 1555 86.1602 1556.6 87.7773C1558.22 89.3828 1559.03 91.3984 1559.03 93.8242L1558.84 95.6172ZM1550.56 88.4277C1549.26 88.4277 1548.16 88.8145 1547.27 89.5879C1546.39 90.3496 1545.8 91.3398 1545.5 92.5586H1555.5C1555.29 91.3398 1554.74 90.3496 1553.86 89.5879C1552.98 88.8145 1551.88 88.4277 1550.56 88.4277ZM1566.57 95.793V103H1562.97V85.7207H1566.57V92.5586H1575.03V85.7207H1578.63V103H1575.03V95.793H1566.57ZM1581.88 88.9551V85.7207H1597.35V88.9551H1591.41V103H1587.82V88.9551H1581.88ZM1613.19 85.7207H1616.42V103H1612.82V91.6621L1603.82 103H1600.59V85.7207H1604.19V97.0586L1613.19 85.7207ZM1636.78 85.7207L1630.12 92.9277L1637.31 103H1633.35L1627.78 95.2656L1625.07 98.1484V103H1621.47V85.7207H1625.07V93.4551L1632.45 85.7207H1636.78ZM1654.04 103H1650.44V101.207C1650.39 101.254 1650.31 101.33 1650.19 101.436C1650.09 101.541 1649.86 101.717 1649.52 101.963C1649.19 102.197 1648.84 102.414 1648.45 102.613C1648.06 102.801 1647.58 102.971 1646.99 103.123C1646.41 103.275 1645.81 103.352 1645.22 103.352C1643.46 103.352 1642 102.842 1640.84 101.822C1639.68 100.803 1639.1 99.6367 1639.1 98.3242C1639.1 96.9062 1639.54 95.7168 1640.43 94.7559C1641.34 93.7949 1642.57 93.1855 1644.13 92.9277L1650.44 91.8379C1650.44 90.9238 1650.1 90.1562 1649.42 89.5352C1648.75 88.9141 1647.89 88.6035 1646.83 88.6035C1645.92 88.6035 1645.09 88.7969 1644.34 89.1836C1643.6 89.5586 1643.09 89.9395 1642.81 90.3262L1642.33 90.9414L1640 88.6035C1640.07 88.5098 1640.16 88.3926 1640.28 88.252C1640.41 88.0996 1640.68 87.8418 1641.1 87.4785C1641.54 87.1035 1641.99 86.7695 1642.47 86.4766C1642.95 86.1836 1643.59 85.9258 1644.37 85.7031C1645.17 85.4688 1645.99 85.3516 1646.83 85.3516C1648.94 85.3516 1650.67 85.9785 1652.02 87.2324C1653.37 88.4746 1654.04 90.0098 1654.04 91.8379V103ZM1645.76 100.117C1647.23 100.117 1648.37 99.6836 1649.19 98.8164C1650.02 97.9375 1650.44 96.6895 1650.44 95.0723V94.7207L1644.85 95.6172C1644.2 95.7344 1643.68 95.998 1643.28 96.4082C1642.88 96.8184 1642.68 97.334 1642.68 97.9551C1642.68 98.5293 1642.96 99.0332 1643.51 99.4668C1644.07 99.9004 1644.82 100.117 1645.76 100.117Z" fill="black"/>
<circle cx="1830" cy="90" r="70" fill="#9BCECA"/>
<path d="M1859.1 109.839C1860.6 109.839 1862.15 109.69 1863.64 109.366C1870.2 107.994 1874.47 104.529 1876.66 98.7954C1878.11 95.056 1878.51 90.9675 1877.86 86.3555C1877.31 82.4166 1876.01 79.2755 1873.84 76.7576C1870.2 72.5196 1865.36 70.5501 1858.55 70.5501C1858.33 70.5501 1858.08 70.5501 1857.86 70.5501C1854.32 70.6249 1850.8 71.7468 1846.46 74.1649C1841.8 76.7825 1837.23 80.3226 1832.49 85.0093C1832.17 85.3334 1831.77 85.6575 1831.25 85.6575C1830.72 85.6575 1830.32 85.3334 1830 85.0093C1825.36 80.3973 1820.8 76.8573 1816.03 74.14C1811.77 71.6969 1807.63 70.5003 1803.47 70.5003V69.8022V70.5003C1801.97 70.5003 1800.42 70.6499 1798.93 70.9739C1795.16 71.7717 1792.09 73.2924 1789.8 75.5111C1787.48 77.7548 1785.88 80.7464 1785.01 84.4609C1784.84 85.2088 1784.71 86.0065 1784.59 86.7793C1784.54 87.1283 1784.46 87.4774 1784.41 87.8264V92.3885C1784.59 92.6877 1784.59 93.0117 1784.59 93.2361C1784.59 93.3109 1784.59 93.3608 1784.59 93.4106C1785.11 97.6736 1786.43 101.014 1788.68 103.632C1792.29 107.87 1797.16 109.839 1803.94 109.839C1804.19 109.839 1804.41 109.839 1804.66 109.839C1808.2 109.764 1811.72 108.643 1816.06 106.2C1820.72 103.582 1825.29 100.017 1830.03 95.3551C1830.35 95.031 1830.75 94.707 1831.27 94.707C1831.8 94.707 1832.19 95.031 1832.52 95.3551C1837.18 99.9671 1841.75 103.532 1846.48 106.224C1850.82 108.643 1854.94 109.839 1859.1 109.839ZM1826.63 91.1669C1821.6 96.103 1817.03 99.5682 1812.29 102.111C1809.33 103.682 1806.43 104.454 1803.44 104.454C1802.29 104.454 1801.15 104.33 1800 104.105C1794.36 102.984 1790.95 99.4187 1790.07 93.7596C1789.87 92.5131 1789.85 91.2916 1789.82 90.1448C1789.8 87.7516 1790.12 85.7074 1790.75 83.8875C1792.32 79.4749 1795.64 76.9072 1800.92 76.0845C1801.77 75.9599 1802.62 75.8851 1803.44 75.8851C1806.78 75.8851 1810.05 76.9072 1813.77 79.0761C1818 81.569 1822.19 84.8597 1826.56 89.1227C1826.81 89.3471 1827.13 89.6712 1827.13 90.1698C1827.13 90.6185 1826.86 90.9426 1826.63 91.1669ZM1835.94 91.142C1835.74 90.9675 1835.41 90.6684 1835.41 90.1947C1835.41 89.8706 1835.56 89.5714 1835.86 89.2723C1840.1 85.1589 1845.29 80.5469 1851.82 77.5304C1854.24 76.4086 1856.71 75.8352 1859.13 75.8352C1861.57 75.8352 1864.02 76.4086 1866.41 77.5554C1869.78 79.1758 1871.77 82.1424 1872.52 86.6547C1872.72 87.8014 1872.74 88.9482 1872.77 90.07V90.1698C1872.74 92.8123 1872.47 96.2027 1870.43 99.2441C1867.98 102.859 1864.19 103.831 1861.57 104.255C1860.75 104.38 1859.9 104.454 1859.08 104.454C1855.79 104.454 1852.52 103.432 1848.8 101.263C1844.54 98.7705 1840.35 95.4798 1836.01 91.1919C1835.99 91.1919 1835.96 91.1669 1835.94 91.142Z" fill="black"/>
<rect x="1378.17" y="0.5" width="541.333" height="179" rx="89.5" stroke="black"/>
</svg>
