<svg width="1920" height="180" viewBox="0 0 1920 180" fill="none" xmlns="http://www.w3.org/2000/svg">
<path d="M155.617 94.5449C155.617 96.9707 154.762 99.0449 153.051 100.768C151.352 102.49 149.33 103.352 146.986 103.352C144.279 103.352 142.1 102.385 140.447 100.451C138.807 98.5059 137.986 95.6934 137.986 92.0137C137.986 87.8184 138.766 84.6719 140.324 82.5742C141.883 80.4766 144.104 79.1875 146.986 78.707C148.264 78.4961 149.406 78.2266 150.414 77.8984C151.434 77.5703 152.137 77.2949 152.523 77.0723L153.104 76.7207L154.721 79.4277C154.65 79.5215 154.504 79.6562 154.281 79.832C154.07 80.0078 153.338 80.3242 152.084 80.7812C150.842 81.2383 149.26 81.625 147.338 81.9414C145.686 82.2109 144.355 82.8965 143.348 83.998C142.34 85.0996 141.748 86.5762 141.572 88.4277C141.619 88.3574 141.701 88.2637 141.818 88.1465C141.947 88.0176 142.199 87.8008 142.574 87.4961C142.949 87.1797 143.342 86.9043 143.752 86.6699C144.174 86.4238 144.707 86.207 145.352 86.0195C146.008 85.8203 146.67 85.7207 147.338 85.7207C149.518 85.7207 151.439 86.5938 153.104 88.3398C154.779 90.0742 155.617 92.1426 155.617 94.5449ZM143.436 90.5723C142.439 91.6387 141.941 92.9629 141.941 94.5449C141.941 96.127 142.439 97.4512 143.436 98.5176C144.432 99.584 145.609 100.117 146.969 100.117C148.34 100.117 149.523 99.584 150.52 98.5176C151.516 97.4512 152.014 96.127 152.014 94.5449C152.014 92.9629 151.516 91.6387 150.52 90.5723C149.523 89.4941 148.34 88.9551 146.969 88.9551C145.609 88.9551 144.432 89.4941 143.436 90.5723ZM169.1 103.352C168.455 103.352 167.828 103.275 167.219 103.123C166.609 102.971 166.088 102.783 165.654 102.561C165.221 102.326 164.834 102.092 164.494 101.857C164.166 101.611 163.926 101.418 163.773 101.277L163.527 101.014V110.559H159.924V85.7207H163.527V87.707C163.691 87.543 163.92 87.3262 164.213 87.0566C164.518 86.7871 165.156 86.4355 166.129 86.002C167.102 85.5684 168.092 85.3516 169.1 85.3516C171.385 85.3516 173.365 86.2305 175.041 87.9883C176.729 89.7344 177.572 91.8555 177.572 94.3516C177.572 96.8477 176.729 98.9746 175.041 100.732C173.365 102.479 171.385 103.352 169.1 103.352ZM172.387 90.291C171.332 89.166 170.119 88.6035 168.748 88.6035C167.377 88.6035 166.164 89.166 165.109 90.291C164.055 91.416 163.527 92.7754 163.527 94.3691C163.527 95.9512 164.055 97.3047 165.109 98.4297C166.164 99.5547 167.377 100.117 168.748 100.117C170.119 100.117 171.332 99.5547 172.387 98.4297C173.441 97.3047 173.969 95.9512 173.969 94.3691C173.969 92.7754 173.441 91.416 172.387 90.291ZM194.113 85.7207H197.348V103H193.744V91.6621L184.744 103H181.51V85.7207H185.113V97.0586L194.113 85.7207ZM211.393 110.559V103.352C208.393 103.352 205.961 102.496 204.098 100.785C202.246 99.0742 201.32 96.9355 201.32 94.3691C201.32 91.791 202.246 89.6465 204.098 87.9355C205.961 86.2129 208.393 85.3516 211.393 85.3516V77.793H214.996V85.3516C217.996 85.3516 220.422 86.2129 222.273 87.9355C224.137 89.6465 225.068 91.791 225.068 94.3691C225.068 96.9355 224.137 99.0742 222.273 100.785C220.422 102.496 217.996 103.352 214.996 103.352V110.559H211.393ZM211.393 100.117V88.6035C209.354 88.6035 207.76 89.125 206.611 90.168C205.475 91.2109 204.906 92.6113 204.906 94.3691C204.906 96.1152 205.475 97.5098 206.611 98.5527C207.76 99.5957 209.354 100.117 211.393 100.117ZM214.996 88.6035V100.117C217.035 100.117 218.623 99.5957 219.76 98.5527C220.908 97.5098 221.482 96.1152 221.482 94.3691C221.482 92.6113 220.908 91.2109 219.76 90.168C218.623 89.125 217.035 88.6035 214.996 88.6035ZM241.645 85.7207H244.879V103H241.275V91.6621L232.275 103H229.041V85.7207H232.645V97.0586L241.645 85.7207ZM253.527 95.793V103H249.924V85.7207H253.527V92.5586H261.982V85.7207H265.586V103H261.982V95.793H253.527ZM282.689 85.7207V88.9551H274.234V103H270.631V85.7207H282.689Z" fill="black"/>
<circle cx="490" cy="90" r="70" fill="#F1C376"/>
<path d="M538.223 103C538.223 97.9065 534.093 93.7774 529 93.7774H474C468.907 93.7774 464.777 97.9065 464.777 103V108.054C464.777 113.147 468.907 117.276 474 117.276H523.001C524.912 117.276 526.798 117.705 528.521 118.53L538.223 123.178V119.054V103Z" stroke="black" stroke-width="3.55484"/>
<path d="M441.777 65C441.777 59.9065 445.907 55.7774 451 55.7774H506C511.093 55.7774 515.223 59.9065 515.223 65V70.0538C515.223 75.1473 511.093 79.2763 506 79.2763H456.999C455.088 79.2763 453.202 79.7049 451.479 80.5304L441.777 85.1777V81.0538V65Z" stroke="black" stroke-width="3.55484"/>
<rect x="0.5" y="0.5" width="579" height="179" rx="89.5" stroke="black"/>
<circle cx="670" cy="90" r="89.5" stroke="black"/>
<path d="M664.243 144.738L718.732 90.2495M718.732 90.2495L664.243 35.7606M718.732 90.2495H609.754" stroke="black" stroke-width="2"/>
<circle cx="850" cy="90" r="68.2218" stroke="black" stroke-width="3.55644"/>
<path d="M810.656 92.6429C809.711 91.5786 808.95 90.6693 808.392 89.9817C808.95 89.294 809.711 88.3847 810.656 87.3205C812.857 84.8422 816.04 81.5402 819.965 78.2438C827.886 71.5929 838.496 65.2455 849.975 65.2455C861.453 65.2455 872.063 71.5929 879.984 78.2438C883.909 81.5402 887.092 84.8422 889.293 87.3205C890.238 88.3847 890.999 89.294 891.558 89.9817C890.999 90.6693 890.238 91.5786 889.293 92.6429C887.092 95.1211 883.909 98.4232 879.984 101.72C872.063 108.37 861.453 114.718 849.975 114.718C838.496 114.718 827.886 108.37 819.965 101.72C816.04 98.4232 812.857 95.1211 810.656 92.6429Z" stroke="black" stroke-width="4.74193"/>
<circle cx="849.103" cy="89.1037" r="17.4885" fill="black"/>
<path d="M1025.44 85.7207H1028.68V103H1025.07V91.6621L1016.07 103H1012.84V85.7207H1016.44V97.0586L1025.44 85.7207ZM1035.32 100.68C1033.54 98.8867 1032.65 96.7832 1032.65 94.3691C1032.65 91.9434 1033.54 89.834 1035.32 88.041C1037.11 86.248 1039.22 85.3516 1041.65 85.3516C1043 85.3516 1044.25 85.6445 1045.41 86.2305C1046.57 86.8047 1047.4 87.3789 1047.91 87.9531L1048.66 88.7793L1046.32 91.1172C1046.21 90.9297 1046.03 90.7012 1045.78 90.4316C1045.54 90.1504 1045.02 89.7754 1044.21 89.3066C1043.42 88.8379 1042.56 88.6035 1041.65 88.6035C1040.18 88.6035 1038.91 89.1602 1037.83 90.2734C1036.77 91.3867 1036.23 92.752 1036.23 94.3691C1036.23 95.9746 1036.77 97.334 1037.83 98.4473C1038.91 99.5605 1040.18 100.117 1041.65 100.117C1042.56 100.117 1043.42 99.8887 1044.21 99.4316C1045.02 98.9746 1045.6 98.5293 1045.96 98.0957L1046.5 97.4277L1048.84 99.7656C1048.77 99.8594 1048.66 99.9941 1048.52 100.17C1048.38 100.334 1048.08 100.621 1047.61 101.031C1047.14 101.43 1046.65 101.787 1046.13 102.104C1045.62 102.408 1044.95 102.695 1044.13 102.965C1043.31 103.223 1042.48 103.352 1041.65 103.352C1039.22 103.352 1037.11 102.461 1035.32 100.68ZM1053.29 100.68C1051.5 98.8867 1050.61 96.7832 1050.61 94.3691C1050.61 91.9434 1051.5 89.834 1053.29 88.041C1055.08 86.248 1057.19 85.3516 1059.61 85.3516C1060.96 85.3516 1062.21 85.6445 1063.38 86.2305C1064.54 86.8047 1065.37 87.3789 1065.87 87.9531L1066.63 88.7793L1064.29 91.1172C1064.17 90.9297 1063.99 90.7012 1063.74 90.4316C1063.51 90.1504 1062.99 89.7754 1062.18 89.3066C1061.38 88.8379 1060.53 88.6035 1059.61 88.6035C1058.15 88.6035 1056.88 89.1602 1055.8 90.2734C1054.73 91.3867 1054.2 92.752 1054.2 94.3691C1054.2 95.9746 1054.73 97.334 1055.8 98.4473C1056.88 99.5605 1058.15 100.117 1059.61 100.117C1060.53 100.117 1061.38 99.8887 1062.18 99.4316C1062.99 98.9746 1063.57 98.5293 1063.92 98.0957L1064.46 97.4277L1066.8 99.7656C1066.73 99.8594 1066.63 99.9941 1066.49 100.17C1066.35 100.334 1066.04 100.621 1065.57 101.031C1065.1 101.43 1064.61 101.787 1064.1 102.104C1063.58 102.408 1062.91 102.695 1062.09 102.965C1061.27 103.223 1060.45 103.352 1059.61 103.352C1057.19 103.352 1055.08 102.461 1053.29 100.68ZM1072.38 85.7207H1085.7V103H1082.1V88.9551H1075.98V90.7656C1075.98 94.0586 1075.71 96.6602 1075.19 98.5703C1074.67 100.469 1074 101.74 1073.18 102.385C1072.38 103.029 1071.33 103.352 1070.04 103.352C1069.72 103.352 1069.38 103.322 1069.02 103.264C1068.67 103.205 1068.39 103.141 1068.19 103.07L1067.88 103V99.5723C1068.36 99.6895 1068.77 99.7539 1069.12 99.7656C1069.86 99.7656 1070.44 99.5664 1070.86 99.168C1071.3 98.7695 1071.65 97.8906 1071.94 96.5312C1072.23 95.1602 1072.38 93.2383 1072.38 90.7656V85.7207ZM1106.76 95.6172H1093.26C1093.45 96.8359 1094.04 97.8906 1095.05 98.7812C1096.07 99.6719 1097.28 100.117 1098.67 100.117C1099.68 100.117 1100.62 99.8887 1101.48 99.4316C1102.36 98.9746 1102.98 98.5293 1103.35 98.0957L1103.89 97.4277L1106.23 99.7656C1106.16 99.8594 1106.05 99.9941 1105.9 100.17C1105.76 100.334 1105.45 100.621 1104.96 101.031C1104.48 101.43 1103.97 101.787 1103.44 102.104C1102.9 102.408 1102.19 102.695 1101.33 102.965C1100.47 103.223 1099.59 103.352 1098.67 103.352C1096.22 103.352 1094.11 102.455 1092.33 100.662C1090.56 98.8574 1089.67 96.6953 1089.67 94.1758C1089.67 91.75 1090.53 89.6758 1092.26 87.9531C1093.99 86.2188 1096.06 85.3516 1098.48 85.3516C1100.9 85.3516 1102.92 86.1602 1104.53 87.7773C1106.14 89.3828 1106.95 91.3984 1106.95 93.8242L1106.76 95.6172ZM1098.48 88.4277C1097.18 88.4277 1096.08 88.8145 1095.19 89.5879C1094.31 90.3496 1093.72 91.3398 1093.42 92.5586H1103.42C1103.21 91.3398 1102.66 90.3496 1101.78 89.5879C1100.9 88.8145 1099.8 88.4277 1098.48 88.4277ZM1108.38 99.7656H1109.62C1109.69 99.6953 1109.79 99.584 1109.92 99.4316C1110.06 99.2676 1110.3 98.9102 1110.62 98.3594C1110.96 97.8086 1111.26 97.2168 1111.5 96.584C1111.76 95.9395 1111.99 95.0957 1112.19 94.0527C1112.4 93.0098 1112.51 91.9141 1112.51 90.7656V85.7207H1125.11V99.7656H1127.62V107.324H1124.04V103H1111.98V107.324H1108.38V99.7656ZM1116.11 88.9551V90.7656C1116.11 91.9141 1116.01 93.0039 1115.81 94.0352C1115.62 95.0664 1115.38 95.9219 1115.09 96.6016C1114.81 97.2695 1114.52 97.8496 1114.23 98.3418C1113.95 98.834 1113.71 99.1855 1113.53 99.3965L1113.23 99.7656H1121.51V88.9551H1116.11ZM1142.97 98.4473C1144.04 97.334 1144.57 95.9746 1144.57 94.3691C1144.57 92.752 1144.04 91.3867 1142.97 90.2734C1141.9 89.1602 1140.64 88.6035 1139.17 88.6035C1137.71 88.6035 1136.44 89.1602 1135.36 90.2734C1134.29 91.3867 1133.76 92.752 1133.76 94.3691C1133.76 95.9746 1134.29 97.334 1135.36 98.4473C1136.44 99.5605 1137.71 100.117 1139.17 100.117C1140.64 100.117 1141.9 99.5605 1142.97 98.4473ZM1132.84 100.68C1131.06 98.8867 1130.17 96.7832 1130.17 94.3691C1130.17 91.9434 1131.06 89.834 1132.84 88.041C1134.64 86.248 1136.75 85.3516 1139.17 85.3516C1141.6 85.3516 1143.7 86.248 1145.48 88.041C1147.28 89.834 1148.17 91.9434 1148.17 94.3691C1148.17 96.7832 1147.28 98.8867 1145.48 100.68C1143.7 102.461 1141.6 103.352 1139.17 103.352C1136.75 103.352 1134.64 102.461 1132.84 100.68ZM1152.13 85.7207H1160.41C1162.06 85.7207 1163.37 86.1484 1164.34 87.0039C1165.32 87.8477 1165.8 88.9199 1165.8 90.2207C1165.8 90.959 1165.64 91.6328 1165.31 92.2422C1164.99 92.8398 1164.67 93.2559 1164.33 93.4902L1163.83 93.8242C1163.9 93.8477 1164 93.8887 1164.13 93.9473C1164.26 94.0059 1164.5 94.1582 1164.84 94.4043C1165.18 94.6387 1165.47 94.9023 1165.71 95.1953C1165.97 95.4766 1166.2 95.8633 1166.4 96.3555C1166.61 96.8477 1166.72 97.3809 1166.72 97.9551C1166.72 99.4434 1166.18 100.656 1165.12 101.594C1164.06 102.531 1162.62 103 1160.78 103H1152.13V85.7207ZM1160.78 95.2656H1155.73V99.9414H1160.78C1161.49 99.9414 1162.06 99.7305 1162.48 99.3086C1162.9 98.8867 1163.11 98.3184 1163.11 97.6035C1163.11 96.959 1162.9 96.4082 1162.46 95.9512C1162.03 95.4941 1161.47 95.2656 1160.78 95.2656ZM1161.72 91.9082C1162.05 91.5801 1162.22 91.1406 1162.22 90.5898C1162.22 90.0273 1162.05 89.5879 1161.72 89.2715C1161.4 88.9434 1160.96 88.7793 1160.41 88.7793H1155.73V92.3828H1160.41C1160.96 92.3828 1161.4 92.2246 1161.72 91.9082ZM1184.52 103H1180.92V101.207C1180.87 101.254 1180.79 101.33 1180.67 101.436C1180.57 101.541 1180.35 101.717 1180.01 101.963C1179.68 102.197 1179.32 102.414 1178.93 102.613C1178.55 102.801 1178.06 102.971 1177.47 103.123C1176.89 103.275 1176.3 103.352 1175.7 103.352C1173.94 103.352 1172.48 102.842 1171.32 101.822C1170.16 100.803 1169.58 99.6367 1169.58 98.3242C1169.58 96.9062 1170.03 95.7168 1170.92 94.7559C1171.82 93.7949 1173.05 93.1855 1174.61 92.9277L1180.92 91.8379C1180.92 90.9238 1180.58 90.1562 1179.9 89.5352C1179.23 88.9141 1178.37 88.6035 1177.32 88.6035C1176.4 88.6035 1175.57 88.7969 1174.82 89.1836C1174.08 89.5586 1173.57 89.9395 1173.29 90.3262L1172.82 90.9414L1170.48 88.6035C1170.55 88.5098 1170.64 88.3926 1170.76 88.252C1170.89 88.0996 1171.16 87.8418 1171.59 87.4785C1172.02 87.1035 1172.48 86.7695 1172.96 86.4766C1173.44 86.1836 1174.07 85.9258 1174.86 85.7031C1175.65 85.4688 1176.47 85.3516 1177.32 85.3516C1179.43 85.3516 1181.15 85.9785 1182.5 87.2324C1183.85 88.4746 1184.52 90.0098 1184.52 91.8379V103ZM1176.24 100.117C1177.71 100.117 1178.85 99.6836 1179.67 98.8164C1180.5 97.9375 1180.92 96.6895 1180.92 95.0723V94.7207L1175.33 95.6172C1174.69 95.7344 1174.16 95.998 1173.77 96.4082C1173.37 96.8184 1173.17 97.334 1173.17 97.9551C1173.17 98.5293 1173.44 99.0332 1173.99 99.4668C1174.56 99.9004 1175.31 100.117 1176.24 100.117ZM1193.17 95.793V103H1189.57V85.7207H1193.17V92.5586H1201.63V85.7207H1205.23V103H1201.63V95.793H1193.17ZM1222.88 85.7207H1226.11V103H1222.51V91.6621L1213.51 103H1210.28V85.7207H1213.88V97.0586L1222.88 85.7207ZM1247.17 95.6172H1233.67C1233.86 96.8359 1234.46 97.8906 1235.46 98.7812C1236.48 99.6719 1237.69 100.117 1239.09 100.117C1240.09 100.117 1241.03 99.8887 1241.9 99.4316C1242.78 98.9746 1243.4 98.5293 1243.76 98.0957L1244.31 97.4277L1246.64 99.7656C1246.57 99.8594 1246.46 99.9941 1246.31 100.17C1246.17 100.334 1245.86 100.621 1245.38 101.031C1244.9 101.43 1244.39 101.787 1243.85 102.104C1243.31 102.408 1242.61 102.695 1241.74 102.965C1240.88 103.223 1240 103.352 1239.09 103.352C1236.64 103.352 1234.52 102.455 1232.74 100.662C1230.97 98.8574 1230.09 96.6953 1230.09 94.1758C1230.09 91.75 1230.95 89.6758 1232.67 87.9531C1234.4 86.2188 1236.48 85.3516 1238.89 85.3516C1241.32 85.3516 1243.33 86.1602 1244.94 87.7773C1246.56 89.3828 1247.37 91.3984 1247.37 93.8242L1247.17 95.6172ZM1238.89 88.4277C1237.59 88.4277 1236.5 88.8145 1235.61 89.5879C1234.73 90.3496 1234.13 91.3398 1233.83 92.5586H1243.83C1243.62 91.3398 1243.08 90.3496 1242.2 89.5879C1241.32 88.8145 1240.22 88.4277 1238.89 88.4277Z" fill="black"/>
<rect x="760.5" y="0.5" width="579" height="179" rx="89.5" stroke="black"/>
<circle cx="1430" cy="90" r="68.2218" stroke="black" stroke-width="3.55644"/>
<path d="M1441.7 49.0239L1410.1 89.918L1449.14 84.3415L1417.54 130.812" stroke="black" stroke-width="4.74193"/>
<path d="M1576.94 79.6797C1575.16 77.8867 1574.27 75.7832 1574.27 73.3691C1574.27 70.9434 1575.16 68.834 1576.94 67.041C1578.73 65.248 1580.84 64.3516 1583.27 64.3516C1584.61 64.3516 1585.87 64.6445 1587.03 65.2305C1588.19 65.8047 1589.02 66.3789 1589.52 66.9531L1590.28 67.7793L1587.94 70.1172C1587.82 69.9297 1587.64 69.7012 1587.4 69.4316C1587.16 69.1504 1586.64 68.7754 1585.83 68.3066C1585.04 67.8379 1584.18 67.6035 1583.27 67.6035C1581.8 67.6035 1580.53 68.1602 1579.45 69.2734C1578.38 70.3867 1577.85 71.752 1577.85 73.3691C1577.85 74.9746 1578.38 76.334 1579.45 77.4473C1580.53 78.5605 1581.8 79.1172 1583.27 79.1172C1584.18 79.1172 1585.04 78.8887 1585.83 78.4316C1586.64 77.9746 1587.22 77.5293 1587.57 77.0957L1588.12 76.4277L1590.46 78.7656C1590.38 78.8594 1590.28 78.9941 1590.14 79.1699C1590 79.334 1589.69 79.6211 1589.22 80.0312C1588.76 80.4297 1588.26 80.7871 1587.75 81.1035C1587.23 81.4082 1586.56 81.6953 1585.74 81.9648C1584.92 82.2227 1584.1 82.3516 1583.27 82.3516C1580.84 82.3516 1578.73 81.4609 1576.94 79.6797ZM1592.25 67.9551V64.7207H1607.72V67.9551H1601.78V82H1598.19V67.9551H1592.25ZM1620.13 82.3516C1619.48 82.3516 1618.86 82.2754 1618.25 82.123C1617.64 81.9707 1617.12 81.7832 1616.68 81.5605C1616.25 81.3262 1615.86 81.0918 1615.52 80.8574C1615.19 80.6113 1614.95 80.418 1614.8 80.2773L1614.55 80.0137V89.5586H1610.95V64.7207H1614.55V66.707C1614.72 66.543 1614.95 66.3262 1615.24 66.0566C1615.54 65.7871 1616.18 65.4355 1617.16 65.002C1618.13 64.5684 1619.12 64.3516 1620.13 64.3516C1622.41 64.3516 1624.39 65.2305 1626.07 66.9883C1627.76 68.7344 1628.6 70.8555 1628.6 73.3516C1628.6 75.8477 1627.76 77.9746 1626.07 79.7324C1624.39 81.4785 1622.41 82.3516 1620.13 82.3516ZM1623.41 69.291C1622.36 68.166 1621.15 67.6035 1619.78 67.6035C1618.4 67.6035 1617.19 68.166 1616.14 69.291C1615.08 70.416 1614.55 71.7754 1614.55 73.3691C1614.55 74.9512 1615.08 76.3047 1616.14 77.4297C1617.19 78.5547 1618.4 79.1172 1619.78 79.1172C1621.15 79.1172 1622.36 78.5547 1623.41 77.4297C1624.47 76.3047 1625 74.9512 1625 73.3691C1625 71.7754 1624.47 70.416 1623.41 69.291ZM1646.41 82H1642.8V80.207C1642.76 80.2539 1642.67 80.3301 1642.56 80.4355C1642.45 80.541 1642.23 80.7168 1641.89 80.9629C1641.56 81.1973 1641.2 81.4141 1640.82 81.6133C1640.43 81.8008 1639.94 81.9707 1639.36 82.123C1638.77 82.2754 1638.18 82.3516 1637.58 82.3516C1635.82 82.3516 1634.37 81.8418 1633.21 80.8223C1632.04 79.8027 1631.46 78.6367 1631.46 77.3242C1631.46 75.9062 1631.91 74.7168 1632.8 73.7559C1633.7 72.7949 1634.93 72.1855 1636.49 71.9277L1642.8 70.8379C1642.8 69.9238 1642.46 69.1562 1641.78 68.5352C1641.12 67.9141 1640.25 67.6035 1639.2 67.6035C1638.29 67.6035 1637.45 67.7969 1636.7 68.1836C1635.96 68.5586 1635.46 68.9395 1635.17 69.3262L1634.7 69.9414L1632.36 67.6035C1632.43 67.5098 1632.53 67.3926 1632.64 67.252C1632.77 67.0996 1633.05 66.8418 1633.47 66.4785C1633.9 66.1035 1634.36 65.7695 1634.84 65.4766C1635.32 65.1836 1635.95 64.9258 1636.74 64.7031C1637.54 64.4688 1638.36 64.3516 1639.2 64.3516C1641.31 64.3516 1643.04 64.9785 1644.38 66.2324C1645.73 67.4746 1646.41 69.0098 1646.41 70.8379V82ZM1638.13 79.1172C1639.59 79.1172 1640.73 78.6836 1641.55 77.8164C1642.39 76.9375 1642.8 75.6895 1642.8 74.0723V73.7207L1637.21 74.6172C1636.57 74.7344 1636.05 74.998 1635.65 75.4082C1635.25 75.8184 1635.05 76.334 1635.05 76.9551C1635.05 77.5293 1635.33 78.0332 1635.88 78.4668C1636.44 78.9004 1637.19 79.1172 1638.13 79.1172ZM1649.66 67.9551V64.7207H1665.13V67.9551H1659.19V82H1655.6V67.9551H1649.66ZM1684.38 74.6172H1670.88C1671.06 75.8359 1671.66 76.8906 1672.67 77.7812C1673.69 78.6719 1674.89 79.1172 1676.29 79.1172C1677.3 79.1172 1678.23 78.8887 1679.1 78.4316C1679.98 77.9746 1680.6 77.5293 1680.96 77.0957L1681.51 76.4277L1683.85 78.7656C1683.78 78.8594 1683.67 78.9941 1683.51 79.1699C1683.37 79.334 1683.06 79.6211 1682.58 80.0312C1682.1 80.4297 1681.59 80.7871 1681.05 81.1035C1680.51 81.4082 1679.81 81.6953 1678.94 81.9648C1678.09 82.2227 1677.2 82.3516 1676.29 82.3516C1673.84 82.3516 1671.72 81.4551 1669.94 79.6621C1668.17 77.8574 1667.29 75.6953 1667.29 73.1758C1667.29 70.75 1668.15 68.6758 1669.87 66.9531C1671.61 65.2188 1673.68 64.3516 1676.1 64.3516C1678.52 64.3516 1680.54 65.1602 1682.14 66.7773C1683.76 68.3828 1684.57 70.3984 1684.57 72.8242L1684.38 74.6172ZM1676.1 67.4277C1674.79 67.4277 1673.7 67.8145 1672.81 68.5879C1671.93 69.3496 1671.34 70.3398 1671.03 71.5586H1681.04C1680.82 70.3398 1680.28 69.3496 1679.4 68.5879C1678.52 67.8145 1677.42 67.4277 1676.1 67.4277ZM1700.56 64.7207V67.9551H1692.11V82H1688.51V64.7207H1700.56ZM1716.05 64.7207H1719.29V82H1715.68V70.6621L1706.68 82H1703.45V64.7207H1707.05V76.0586L1716.05 64.7207ZM1730.1 64.7207H1738.01V82H1734.42V76.6035H1730.64L1727.21 82H1723.26L1727.04 76.0586C1726.94 76.0352 1726.81 75.9824 1726.65 75.9004C1726.5 75.8184 1726.23 75.6367 1725.84 75.3555C1725.46 75.0625 1725.11 74.7285 1724.8 74.3535C1724.51 73.9785 1724.24 73.4629 1723.98 72.8066C1723.73 72.1387 1723.61 71.4238 1723.61 70.6621C1723.61 68.9395 1724.2 67.5215 1725.38 66.4082C1726.58 65.2832 1728.15 64.7207 1730.1 64.7207ZM1734.42 67.7793H1730.1C1729.28 67.7793 1728.59 68.0547 1728.04 68.6055C1727.49 69.1562 1727.21 69.8418 1727.21 70.6621C1727.21 71.4824 1727.49 72.168 1728.04 72.7188C1728.59 73.2695 1729.28 73.5449 1730.1 73.5449H1734.42V67.7793ZM1578.94 109.955V124H1575.34V106.721H1591V124H1587.4V109.955H1578.94ZM1605.22 124.352C1604.58 124.352 1603.95 124.275 1603.34 124.123C1602.73 123.971 1602.21 123.783 1601.78 123.561C1601.34 123.326 1600.96 123.092 1600.62 122.857C1600.29 122.611 1600.05 122.418 1599.89 122.277L1599.65 122.014V131.559H1596.04V106.721H1599.65V108.707C1599.81 108.543 1600.04 108.326 1600.33 108.057C1600.64 107.787 1601.28 107.436 1602.25 107.002C1603.22 106.568 1604.21 106.352 1605.22 106.352C1607.51 106.352 1609.49 107.23 1611.16 108.988C1612.85 110.734 1613.69 112.855 1613.69 115.352C1613.69 117.848 1612.85 119.975 1611.16 121.732C1609.49 123.479 1607.51 124.352 1605.22 124.352ZM1608.51 111.291C1607.45 110.166 1606.24 109.604 1604.87 109.604C1603.5 109.604 1602.29 110.166 1601.23 111.291C1600.18 112.416 1599.65 113.775 1599.65 115.369C1599.65 116.951 1600.18 118.305 1601.23 119.43C1602.29 120.555 1603.5 121.117 1604.87 121.117C1606.24 121.117 1607.45 120.555 1608.51 119.43C1609.56 118.305 1610.09 116.951 1610.09 115.369C1610.09 113.775 1609.56 112.416 1608.51 111.291ZM1629.36 119.447C1630.42 118.334 1630.96 116.975 1630.96 115.369C1630.96 113.752 1630.42 112.387 1629.36 111.273C1628.29 110.16 1627.02 109.604 1625.56 109.604C1624.09 109.604 1622.82 110.16 1621.74 111.273C1620.68 112.387 1620.14 113.752 1620.14 115.369C1620.14 116.975 1620.68 118.334 1621.74 119.447C1622.82 120.561 1624.09 121.117 1625.56 121.117C1627.02 121.117 1628.29 120.561 1629.36 119.447ZM1619.23 121.68C1617.45 119.887 1616.56 117.783 1616.56 115.369C1616.56 112.943 1617.45 110.834 1619.23 109.041C1621.02 107.248 1623.13 106.352 1625.56 106.352C1627.98 106.352 1630.09 107.248 1631.87 109.041C1633.66 110.834 1634.56 112.943 1634.56 115.369C1634.56 117.783 1633.66 119.887 1631.87 121.68C1630.09 123.461 1627.98 124.352 1625.56 124.352C1623.13 124.352 1621.02 123.461 1619.23 121.68ZM1636 120.766H1637.25C1637.32 120.695 1637.42 120.584 1637.55 120.432C1637.69 120.268 1637.92 119.91 1638.25 119.359C1638.59 118.809 1638.88 118.217 1639.13 117.584C1639.39 116.939 1639.62 116.096 1639.81 115.053C1640.03 114.01 1640.13 112.914 1640.13 111.766V106.721H1652.73V120.766H1655.25V128.324H1651.66V124H1639.6V128.324H1636V120.766ZM1643.73 109.955V111.766C1643.73 112.914 1643.63 114.004 1643.44 115.035C1643.25 116.066 1643.01 116.922 1642.71 117.602C1642.43 118.27 1642.15 118.85 1641.85 119.342C1641.57 119.834 1641.34 120.186 1641.15 120.396L1640.85 120.766H1649.13V109.955H1643.73ZM1658.87 106.721H1667.15C1668.8 106.721 1670.11 107.148 1671.09 108.004C1672.06 108.848 1672.54 109.92 1672.54 111.221C1672.54 111.959 1672.38 112.633 1672.05 113.242C1671.74 113.84 1671.41 114.256 1671.07 114.49L1670.58 114.824C1670.65 114.848 1670.75 114.889 1670.88 114.947C1671 115.006 1671.24 115.158 1671.58 115.404C1671.92 115.639 1672.21 115.902 1672.46 116.195C1672.71 116.477 1672.94 116.863 1673.14 117.355C1673.35 117.848 1673.46 118.381 1673.46 118.955C1673.46 120.443 1672.93 121.656 1671.86 122.594C1670.8 123.531 1669.36 124 1667.52 124H1658.87V106.721ZM1667.52 116.266H1662.47V120.941H1667.52C1668.23 120.941 1668.8 120.73 1669.22 120.309C1669.64 119.887 1669.86 119.318 1669.86 118.604C1669.86 117.959 1669.64 117.408 1669.21 116.951C1668.77 116.494 1668.21 116.266 1667.52 116.266ZM1668.47 112.908C1668.79 112.58 1668.96 112.141 1668.96 111.59C1668.96 111.027 1668.79 110.588 1668.47 110.271C1668.14 109.943 1667.7 109.779 1667.15 109.779H1662.47V113.383H1667.15C1667.7 113.383 1668.14 113.225 1668.47 112.908ZM1690 106.721H1693.23V124H1689.63V112.662L1680.63 124H1677.4V106.721H1681V118.059L1690 106.721ZM1711.23 113.734L1717.9 106.721H1722.22L1715.56 113.928L1722.77 124H1718.79L1713.22 116.266L1711.23 118.428V124H1707.65V118.428L1705.66 116.266L1700.09 124H1696.12L1703.32 113.928L1696.66 106.721H1700.99L1707.65 113.734V106.721H1711.23V113.734ZM1741.64 116.617H1728.14C1728.33 117.836 1728.93 118.891 1729.94 119.781C1730.96 120.672 1732.16 121.117 1733.56 121.117C1734.57 121.117 1735.5 120.889 1736.37 120.432C1737.25 119.975 1737.87 119.529 1738.23 119.096L1738.78 118.428L1741.12 120.766C1741.05 120.859 1740.94 120.994 1740.78 121.17C1740.64 121.334 1740.33 121.621 1739.85 122.031C1739.37 122.43 1738.86 122.787 1738.32 123.104C1737.78 123.408 1737.08 123.695 1736.21 123.965C1735.36 124.223 1734.47 124.352 1733.56 124.352C1731.11 124.352 1728.99 123.455 1727.21 121.662C1725.44 119.857 1724.56 117.695 1724.56 115.176C1724.56 112.75 1725.42 110.676 1727.14 108.953C1728.88 107.219 1730.95 106.352 1733.37 106.352C1735.79 106.352 1737.81 107.16 1739.41 108.777C1741.03 110.383 1741.84 112.398 1741.84 114.824L1741.64 116.617ZM1733.37 109.428C1732.06 109.428 1730.97 109.814 1730.08 110.588C1729.2 111.35 1728.61 112.34 1728.3 113.559H1738.3C1738.09 112.34 1737.55 111.35 1736.67 110.588C1735.79 109.814 1734.69 109.428 1733.37 109.428ZM1749.38 116.793V124H1745.78V106.721H1749.38V113.559H1757.83V106.721H1761.44V124H1757.83V116.793H1749.38ZM1779.09 106.721H1782.32V124H1778.72V112.662L1769.72 124H1766.48V106.721H1770.09V118.059L1779.09 106.721ZM1793.13 106.721H1801.04V124H1797.46V118.604H1793.68L1790.25 124H1786.29L1790.07 118.059C1789.98 118.035 1789.85 117.982 1789.69 117.9C1789.53 117.818 1789.26 117.637 1788.88 117.355C1788.49 117.062 1788.14 116.729 1787.84 116.354C1787.55 115.979 1787.27 115.463 1787.01 114.807C1786.77 114.139 1786.64 113.424 1786.64 112.662C1786.64 110.939 1787.24 109.521 1788.42 108.408C1789.62 107.283 1791.19 106.721 1793.13 106.721ZM1797.46 109.779H1793.13C1792.31 109.779 1791.62 110.055 1791.07 110.605C1790.52 111.156 1790.25 111.842 1790.25 112.662C1790.25 113.482 1790.52 114.168 1791.07 114.719C1791.62 115.27 1792.31 115.545 1793.13 115.545H1797.46V109.779Z" fill="black"/>
<rect x="1340.5" y="0.5" width="579" height="179" rx="89.5" stroke="black"/>
</svg>
