<svg width="1920" height="180" viewBox="0 0 1920 180" fill="none" xmlns="http://www.w3.org/2000/svg">
<path d="M573.5 151.361L630 94.6802M630 94.6802L573.5 37.9998M630 94.6802L517 94.6802" stroke="black" stroke-width="2"/>
<circle cx="87" cy="90" r="70" fill="#70A16D"/>
<path d="M42.3892 69.6636L81.1595 108.434" stroke="black" stroke-width="4.41143"/>
<path d="M42.3892 108.434L81.1595 69.6633" stroke="black" stroke-width="4.41143"/>
<circle cx="114.007" cy="86.8943" r="20.616" stroke="black" stroke-width="4"/>
<path d="M225.441 94.9551V109H221.838V91.7207H237.5V109H233.896V94.9551H225.441ZM244.531 91.7207H257.855V109H254.252V94.9551H248.135V96.7656C248.135 100.059 247.871 102.66 247.344 104.57C246.828 106.469 246.16 107.74 245.34 108.385C244.531 109.029 243.482 109.352 242.193 109.352C241.877 109.352 241.537 109.322 241.174 109.264C240.822 109.205 240.547 109.141 240.348 109.07L240.031 109V105.572C240.512 105.689 240.928 105.754 241.279 105.766C242.018 105.766 242.598 105.566 243.02 105.168C243.453 104.77 243.811 103.891 244.092 102.531C244.385 101.16 244.531 99.2383 244.531 96.7656V91.7207ZM276.77 109H273.166V107.207C273.119 107.254 273.037 107.33 272.92 107.436C272.814 107.541 272.592 107.717 272.252 107.963C271.924 108.197 271.566 108.414 271.18 108.613C270.793 108.801 270.307 108.971 269.721 109.123C269.135 109.275 268.543 109.352 267.945 109.352C266.188 109.352 264.729 108.842 263.568 107.822C262.408 106.803 261.828 105.637 261.828 104.324C261.828 102.906 262.273 101.717 263.164 100.756C264.066 99.7949 265.297 99.1855 266.855 98.9277L273.166 97.8379C273.166 96.9238 272.826 96.1562 272.146 95.5352C271.479 94.9141 270.617 94.6035 269.562 94.6035C268.648 94.6035 267.816 94.7969 267.066 95.1836C266.328 95.5586 265.818 95.9395 265.537 96.3262L265.062 96.9414L262.725 94.6035C262.795 94.5098 262.889 94.3926 263.006 94.252C263.135 94.0996 263.41 93.8418 263.832 93.4785C264.266 93.1035 264.723 92.7695 265.203 92.4766C265.684 92.1836 266.316 91.9258 267.102 91.7031C267.898 91.4688 268.719 91.3516 269.562 91.3516C271.672 91.3516 273.4 91.9785 274.748 93.2324C276.096 94.4746 276.77 96.0098 276.77 97.8379V109ZM268.49 106.117C269.955 106.117 271.098 105.684 271.918 104.816C272.75 103.938 273.166 102.689 273.166 101.072V100.721L267.576 101.617C266.932 101.734 266.41 101.998 266.012 102.408C265.613 102.818 265.414 103.334 265.414 103.955C265.414 104.529 265.689 105.033 266.24 105.467C266.803 105.9 267.553 106.117 268.49 106.117ZM285.418 101.793V109H281.814V91.7207H285.418V98.5586H293.873V91.7207H297.477V109H293.873V101.793H285.418ZM311.17 106.486H308.111V100H301.625V96.7656H308.111V90.2793H311.17V96.7656H317.639V100H311.17V106.486ZM338.715 100.545C338.715 102.971 337.859 105.045 336.148 106.768C334.449 108.49 332.428 109.352 330.084 109.352C327.377 109.352 325.197 108.385 323.545 106.451C321.904 104.506 321.084 101.693 321.084 98.0137C321.084 93.8184 321.863 90.6719 323.422 88.5742C324.98 86.4766 327.201 85.1875 330.084 84.707C331.361 84.4961 332.504 84.2266 333.512 83.8984C334.531 83.5703 335.234 83.2949 335.621 83.0723L336.201 82.7207L337.818 85.4277C337.748 85.5215 337.602 85.6562 337.379 85.832C337.168 86.0078 336.436 86.3242 335.182 86.7812C333.939 87.2383 332.357 87.625 330.436 87.9414C328.783 88.2109 327.453 88.8965 326.445 89.998C325.438 91.0996 324.846 92.5762 324.67 94.4277C324.717 94.3574 324.799 94.2637 324.916 94.1465C325.045 94.0176 325.297 93.8008 325.672 93.4961C326.047 93.1797 326.439 92.9043 326.85 92.6699C327.271 92.4238 327.805 92.207 328.449 92.0195C329.105 91.8203 329.768 91.7207 330.436 91.7207C332.615 91.7207 334.537 92.5938 336.201 94.3398C337.877 96.0742 338.715 98.1426 338.715 100.545ZM326.533 96.5723C325.537 97.6387 325.039 98.9629 325.039 100.545C325.039 102.127 325.537 103.451 326.533 104.518C327.529 105.584 328.707 106.117 330.066 106.117C331.438 106.117 332.621 105.584 333.617 104.518C334.613 103.451 335.111 102.127 335.111 100.545C335.111 98.9629 334.613 97.6387 333.617 96.5723C332.621 95.4941 331.438 94.9551 330.066 94.9551C328.707 94.9551 327.529 95.4941 326.533 96.5723ZM365.17 94.041C366.963 95.834 367.859 97.9434 367.859 100.369C367.859 102.783 366.963 104.887 365.17 106.68C363.389 108.461 361.285 109.352 358.859 109.352C356.574 109.352 354.605 108.602 352.953 107.102C351.301 105.602 350.328 103.832 350.035 101.793H346.625V109H343.021V91.7207H346.625V98.5586H350.035C350.422 96.6602 351.447 94.9844 353.111 93.5312C354.787 92.0781 356.703 91.3516 358.859 91.3516C361.285 91.3516 363.389 92.248 365.17 94.041ZM362.656 104.447C363.723 103.334 364.256 101.975 364.256 100.369C364.256 98.752 363.723 97.3867 362.656 96.2734C361.59 95.1602 360.324 94.6035 358.859 94.6035C357.395 94.6035 356.129 95.1602 355.062 96.2734C353.996 97.3867 353.463 98.752 353.463 100.369C353.463 101.975 353.996 103.334 355.062 104.447C356.129 105.561 357.395 106.117 358.859 106.117C360.324 106.117 361.59 105.561 362.656 104.447ZM369.301 105.766H370.549C370.619 105.695 370.719 105.584 370.848 105.432C370.988 105.268 371.223 104.91 371.551 104.359C371.891 103.809 372.184 103.217 372.43 102.584C372.688 101.939 372.916 101.096 373.115 100.053C373.326 99.0098 373.432 97.9141 373.432 96.7656V91.7207H386.035V105.766H388.549V113.324H384.963V109H372.904V113.324H369.301V105.766ZM377.035 94.9551V96.7656C377.035 97.9141 376.936 99.0039 376.736 100.035C376.549 101.066 376.309 101.922 376.016 102.602C375.734 103.27 375.447 103.85 375.154 104.342C374.873 104.834 374.639 105.186 374.451 105.396L374.152 105.766H382.432V94.9551H377.035ZM405.125 98.7344L411.787 91.7207H416.111L409.449 98.9277L416.656 109H412.684L407.111 101.266L405.125 103.428V109H401.539V103.428L399.553 101.266L393.98 109H390.008L397.215 98.9277L390.553 91.7207H394.877L401.539 98.7344V91.7207H405.125V98.7344ZM435.535 101.617H422.035C422.223 102.836 422.82 103.891 423.828 104.781C424.848 105.672 426.055 106.117 427.449 106.117C428.457 106.117 429.395 105.889 430.262 105.432C431.141 104.975 431.762 104.529 432.125 104.096L432.67 103.428L435.008 105.766C434.938 105.859 434.826 105.994 434.674 106.17C434.533 106.334 434.223 106.621 433.742 107.031C433.262 107.43 432.752 107.787 432.213 108.104C431.674 108.408 430.971 108.695 430.104 108.965C429.248 109.223 428.363 109.352 427.449 109.352C425 109.352 422.885 108.455 421.104 106.662C419.334 104.857 418.449 102.695 418.449 100.176C418.449 97.75 419.311 95.6758 421.033 93.9531C422.768 92.2188 424.842 91.3516 427.256 91.3516C429.682 91.3516 431.697 92.1602 433.303 93.7773C434.92 95.3828 435.729 97.3984 435.729 99.8242L435.535 101.617ZM427.256 94.4277C425.955 94.4277 424.859 94.8145 423.969 95.5879C423.09 96.3496 422.498 97.3398 422.193 98.5586H432.195C431.984 97.3398 431.439 96.3496 430.561 95.5879C429.682 94.8145 428.58 94.4277 427.256 94.4277ZM437.873 94.9551V91.7207H453.342V94.9551H447.4V109H443.814V94.9551H437.873Z" fill="black"/>
<rect x="-2.5" y="0.5" width="519" height="179" rx="89.5" stroke="black"/>
<rect x="630.5" y="0.5" width="1289" height="179" rx="89.5" fill="#6970B1"/>
<path d="M1232.85 90.2207C1232.85 91.0176 1232.63 91.7148 1232.18 92.3125C1231.75 92.9102 1231.3 93.3027 1230.85 93.4902L1230.16 93.8242C1230.26 93.8477 1230.38 93.8887 1230.53 93.9473C1230.7 94.0059 1230.96 94.1465 1231.34 94.3691C1231.73 94.5801 1232.07 94.8379 1232.36 95.1426C1232.66 95.4355 1232.94 95.8457 1233.19 96.373C1233.44 96.9004 1233.57 97.4922 1233.57 98.1484C1233.57 99.5898 1232.93 100.82 1231.64 101.84C1230.36 102.848 1228.61 103.352 1226.38 103.352C1225.54 103.352 1224.72 103.246 1223.94 103.035C1223.17 102.824 1222.52 102.572 1222.01 102.279C1221.49 101.986 1221.04 101.693 1220.65 101.4C1220.27 101.096 1219.98 100.838 1219.79 100.627L1219.54 100.293L1221.88 97.9551C1222.02 98.1191 1222.21 98.3242 1222.45 98.5703C1222.69 98.8164 1223.21 99.1387 1223.99 99.5371C1224.79 99.9238 1225.59 100.117 1226.38 100.117C1227.58 100.117 1228.47 99.8945 1229.07 99.4492C1229.68 99.0039 1229.99 98.4473 1229.99 97.7793C1229.99 97.1113 1229.68 96.5547 1229.07 96.1094C1228.47 95.6641 1227.58 95.4414 1226.38 95.4414H1224.4V92.5586H1226.38C1227.32 92.5586 1228.04 92.377 1228.53 92.0137C1229.02 91.6387 1229.27 91.1641 1229.27 90.5898C1229.27 90.0039 1229.02 89.5293 1228.53 89.166C1228.04 88.791 1227.32 88.6035 1226.38 88.6035C1225.69 88.6035 1225.01 88.7383 1224.34 89.0078C1223.69 89.2656 1223.2 89.5352 1222.88 89.8164L1222.43 90.2207L1220.07 87.8828C1220.24 87.6953 1220.48 87.4609 1220.79 87.1797C1221.11 86.8984 1221.81 86.5234 1222.9 86.0547C1223.99 85.5859 1225.15 85.3516 1226.38 85.3516C1228.38 85.3516 1229.95 85.832 1231.11 86.793C1232.27 87.7539 1232.85 88.8965 1232.85 90.2207ZM1251.41 103H1247.81V101.207C1247.76 101.254 1247.68 101.33 1247.56 101.436C1247.46 101.541 1247.24 101.717 1246.9 101.963C1246.57 102.197 1246.21 102.414 1245.82 102.613C1245.44 102.801 1244.95 102.971 1244.37 103.123C1243.78 103.275 1243.19 103.352 1242.59 103.352C1240.83 103.352 1239.37 102.842 1238.21 101.822C1237.05 100.803 1236.47 99.6367 1236.47 98.3242C1236.47 96.9062 1236.92 95.7168 1237.81 94.7559C1238.71 93.7949 1239.94 93.1855 1241.5 92.9277L1247.81 91.8379C1247.81 90.9238 1247.47 90.1562 1246.79 89.5352C1246.12 88.9141 1245.26 88.6035 1244.21 88.6035C1243.29 88.6035 1242.46 88.7969 1241.71 89.1836C1240.97 89.5586 1240.46 89.9395 1240.18 90.3262L1239.71 90.9414L1237.37 88.6035C1237.44 88.5098 1237.53 88.3926 1237.65 88.252C1237.78 88.0996 1238.05 87.8418 1238.48 87.4785C1238.91 87.1035 1239.37 86.7695 1239.85 86.4766C1240.33 86.1836 1240.96 85.9258 1241.75 85.7031C1242.54 85.4688 1243.36 85.3516 1244.21 85.3516C1246.32 85.3516 1248.04 85.9785 1249.39 87.2324C1250.74 88.4746 1251.41 90.0098 1251.41 91.8379V103ZM1243.13 100.117C1244.6 100.117 1245.74 99.6836 1246.56 98.8164C1247.39 97.9375 1247.81 96.6895 1247.81 95.0723V94.7207L1242.22 95.6172C1241.58 95.7344 1241.05 95.998 1240.66 96.4082C1240.26 96.8184 1240.06 97.334 1240.06 97.9551C1240.06 98.5293 1240.33 99.0332 1240.88 99.4668C1241.45 99.9004 1242.2 100.117 1243.13 100.117ZM1260.06 88.9551V103H1256.46V85.7207H1272.12V103H1268.52V88.9551H1260.06ZM1281.31 104.793L1282.04 103L1275 85.7207H1278.78L1283.83 98.3242L1288.87 85.7207H1292.65L1284.9 104.793C1284.01 106.926 1283.12 108.42 1282.25 109.275C1281.38 110.131 1280.29 110.559 1278.98 110.559C1278.5 110.559 1278.04 110.529 1277.62 110.471C1277.2 110.412 1276.89 110.348 1276.69 110.277L1276.45 110.207V106.955C1277.04 107.189 1277.65 107.312 1278.26 107.324C1279.63 107.312 1280.65 106.469 1281.31 104.793ZM1297.12 100.68C1295.34 98.8867 1294.45 96.7832 1294.45 94.3691C1294.45 91.9434 1295.34 89.834 1297.12 88.041C1298.91 86.248 1301.02 85.3516 1303.45 85.3516C1304.79 85.3516 1306.05 85.6445 1307.21 86.2305C1308.37 86.8047 1309.2 87.3789 1309.7 87.9531L1310.46 88.7793L1308.12 91.1172C1308 90.9297 1307.82 90.7012 1307.58 90.4316C1307.34 90.1504 1306.82 89.7754 1306.01 89.3066C1305.21 88.8379 1304.36 88.6035 1303.45 88.6035C1301.98 88.6035 1300.71 89.1602 1299.63 90.2734C1298.56 91.3867 1298.03 92.752 1298.03 94.3691C1298.03 95.9746 1298.56 97.334 1299.63 98.4473C1300.71 99.5605 1301.98 100.117 1303.45 100.117C1304.36 100.117 1305.21 99.8887 1306.01 99.4316C1306.82 98.9746 1307.4 98.5293 1307.75 98.0957L1308.3 97.4277L1310.63 99.7656C1310.56 99.8594 1310.46 99.9941 1310.32 100.17C1310.18 100.334 1309.87 100.621 1309.4 101.031C1308.94 101.43 1308.44 101.787 1307.93 102.104C1307.41 102.408 1306.74 102.695 1305.92 102.965C1305.1 103.223 1304.28 103.352 1303.45 103.352C1301.02 103.352 1298.91 102.461 1297.12 100.68ZM1329.53 85.7207L1322.87 92.9277L1330.06 103H1326.1L1320.53 95.2656L1317.82 98.1484V103H1314.22V85.7207H1317.82V93.4551L1325.21 85.7207H1329.53Z" fill="black"/>
<rect x="630.5" y="0.5" width="1289" height="179" rx="89.5" stroke="black"/>
</svg>
