<svg width="1920" height="188" viewBox="0 0 1920 188" fill="none" xmlns="http://www.w3.org/2000/svg">
<path d="M155.617 98.5449C155.617 100.971 154.762 103.045 153.051 104.768C151.352 106.49 149.33 107.352 146.986 107.352C144.279 107.352 142.1 106.385 140.447 104.451C138.807 102.506 137.986 99.6934 137.986 96.0137C137.986 91.8184 138.766 88.6719 140.324 86.5742C141.883 84.4766 144.104 83.1875 146.986 82.707C148.264 82.4961 149.406 82.2266 150.414 81.8984C151.434 81.5703 152.137 81.2949 152.523 81.0723L153.104 80.7207L154.721 83.4277C154.65 83.5215 154.504 83.6562 154.281 83.832C154.07 84.0078 153.338 84.3242 152.084 84.7812C150.842 85.2383 149.26 85.625 147.338 85.9414C145.686 86.2109 144.355 86.8965 143.348 87.998C142.34 89.0996 141.748 90.5762 141.572 92.4277C141.619 92.3574 141.701 92.2637 141.818 92.1465C141.947 92.0176 142.199 91.8008 142.574 91.4961C142.949 91.1797 143.342 90.9043 143.752 90.6699C144.174 90.4238 144.707 90.207 145.352 90.0195C146.008 89.8203 146.67 89.7207 147.338 89.7207C149.518 89.7207 151.439 90.5938 153.104 92.3398C154.779 94.0742 155.617 96.1426 155.617 98.5449ZM143.436 94.5723C142.439 95.6387 141.941 96.9629 141.941 98.5449C141.941 100.127 142.439 101.451 143.436 102.518C144.432 103.584 145.609 104.117 146.969 104.117C148.34 104.117 149.523 103.584 150.52 102.518C151.516 101.451 152.014 100.127 152.014 98.5449C152.014 96.9629 151.516 95.6387 150.52 94.5723C149.523 93.4941 148.34 92.9551 146.969 92.9551C145.609 92.9551 144.432 93.4941 143.436 94.5723ZM169.1 107.352C168.455 107.352 167.828 107.275 167.219 107.123C166.609 106.971 166.088 106.783 165.654 106.561C165.221 106.326 164.834 106.092 164.494 105.857C164.166 105.611 163.926 105.418 163.773 105.277L163.527 105.014V114.559H159.924V89.7207H163.527V91.707C163.691 91.543 163.92 91.3262 164.213 91.0566C164.518 90.7871 165.156 90.4355 166.129 90.002C167.102 89.5684 168.092 89.3516 169.1 89.3516C171.385 89.3516 173.365 90.2305 175.041 91.9883C176.729 93.7344 177.572 95.8555 177.572 98.3516C177.572 100.848 176.729 102.975 175.041 104.732C173.365 106.479 171.385 107.352 169.1 107.352ZM172.387 94.291C171.332 93.166 170.119 92.6035 168.748 92.6035C167.377 92.6035 166.164 93.166 165.109 94.291C164.055 95.416 163.527 96.7754 163.527 98.3691C163.527 99.9512 164.055 101.305 165.109 102.43C166.164 103.555 167.377 104.117 168.748 104.117C170.119 104.117 171.332 103.555 172.387 102.43C173.441 101.305 173.969 99.9512 173.969 98.3691C173.969 96.7754 173.441 95.416 172.387 94.291ZM194.113 89.7207H197.348V107H193.744V95.6621L184.744 107H181.51V89.7207H185.113V101.059L194.113 89.7207ZM211.393 114.559V107.352C208.393 107.352 205.961 106.496 204.098 104.785C202.246 103.074 201.32 100.936 201.32 98.3691C201.32 95.791 202.246 93.6465 204.098 91.9355C205.961 90.2129 208.393 89.3516 211.393 89.3516V81.793H214.996V89.3516C217.996 89.3516 220.422 90.2129 222.273 91.9355C224.137 93.6465 225.068 95.791 225.068 98.3691C225.068 100.936 224.137 103.074 222.273 104.785C220.422 106.496 217.996 107.352 214.996 107.352V114.559H211.393ZM211.393 104.117V92.6035C209.354 92.6035 207.76 93.125 206.611 94.168C205.475 95.2109 204.906 96.6113 204.906 98.3691C204.906 100.115 205.475 101.51 206.611 102.553C207.76 103.596 209.354 104.117 211.393 104.117ZM214.996 92.6035V104.117C217.035 104.117 218.623 103.596 219.76 102.553C220.908 101.51 221.482 100.115 221.482 98.3691C221.482 96.6113 220.908 95.2109 219.76 94.168C218.623 93.125 217.035 92.6035 214.996 92.6035ZM241.645 89.7207H244.879V107H241.275V95.6621L232.275 107H229.041V89.7207H232.645V101.059L241.645 89.7207ZM253.527 99.793V107H249.924V89.7207H253.527V96.5586H261.982V89.7207H265.586V107H261.982V99.793H253.527ZM282.689 89.7207V92.9551H274.234V107H270.631V89.7207H282.689Z" fill="black"/>
<circle cx="490" cy="94" r="70" fill="#F1C376"/>
<path d="M529 97.7774H474C468.907 97.7774 464.777 101.907 464.777 107V112.054C464.777 117.147 468.907 121.276 474 121.276H523.001C524.912 121.276 526.798 121.705 528.521 122.53L538.223 127.178V123.054V107C538.223 101.907 534.093 97.7774 529 97.7774Z" stroke="black" stroke-width="3.55484"/>
<path d="M451 59.7774H506C511.093 59.7774 515.223 63.9065 515.223 69V74.0538C515.223 79.1473 511.093 83.2763 506 83.2763H456.999C455.088 83.2763 453.202 83.7049 451.479 84.5304L441.777 89.1777V85.0538V69C441.777 63.9065 445.907 59.7774 451 59.7774Z" stroke="black" stroke-width="3.55484"/>
<rect x="0.5" y="0.5" width="579" height="187" rx="93.5" stroke="black"/>
<circle cx="670" cy="94" r="89.5" stroke="black"/>
<path d="M664.243 148.738L718.732 94.2495M718.732 94.2495L664.243 39.7606M718.732 94.2495H609.754" stroke="black" stroke-width="2"/>
<circle cx="851" cy="94" r="68.2218" stroke="black" stroke-width="3.55644"/>
<path d="M811.656 96.6429C810.711 95.5786 809.95 94.6693 809.391 93.9817C809.95 93.294 810.711 92.3847 811.656 91.3205C813.857 88.8422 817.04 85.5402 820.965 82.2438C828.886 75.5929 839.496 69.2455 850.974 69.2455C862.453 69.2455 873.063 75.5929 880.984 82.2438C884.909 85.5402 888.092 88.8422 890.293 91.3205C891.238 92.3847 891.999 93.294 892.557 93.9817C891.999 94.6693 891.238 95.5786 890.293 96.6429C888.092 99.1211 884.909 102.423 880.984 105.72C873.063 112.37 862.453 118.718 850.974 118.718C839.496 118.718 828.886 112.37 820.965 105.72C817.04 102.423 813.857 99.1211 811.656 96.6429Z" stroke="black" stroke-width="4.74193"/>
<circle cx="850.103" cy="93.1037" r="17.4885" fill="black"/>
<path d="M1060.21 107H1056.6V105.207C1056.56 105.254 1056.47 105.33 1056.36 105.436C1056.25 105.541 1056.03 105.717 1055.69 105.963C1055.36 106.197 1055 106.414 1054.62 106.613C1054.23 106.801 1053.74 106.971 1053.16 107.123C1052.57 107.275 1051.98 107.352 1051.38 107.352C1049.62 107.352 1048.17 106.842 1047.01 105.822C1045.85 104.803 1045.27 103.637 1045.27 102.324C1045.27 100.906 1045.71 99.7168 1046.6 98.7559C1047.5 97.7949 1048.73 97.1855 1050.29 96.9277L1056.6 95.8379C1056.6 94.9238 1056.26 94.1562 1055.58 93.5352C1054.92 92.9141 1054.05 92.6035 1053 92.6035C1052.09 92.6035 1051.25 92.7969 1050.5 93.1836C1049.77 93.5586 1049.26 93.9395 1048.97 94.3262L1048.5 94.9414L1046.16 92.6035C1046.23 92.5098 1046.33 92.3926 1046.44 92.252C1046.57 92.0996 1046.85 91.8418 1047.27 91.4785C1047.7 91.1035 1048.16 90.7695 1048.64 90.4766C1049.12 90.1836 1049.75 89.9258 1050.54 89.7031C1051.34 89.4688 1052.16 89.3516 1053 89.3516C1055.11 89.3516 1056.84 89.9785 1058.19 91.2324C1059.53 92.4746 1060.21 94.0098 1060.21 95.8379V107ZM1051.93 104.117C1053.39 104.117 1054.54 103.684 1055.36 102.816C1056.19 101.938 1056.6 100.689 1056.6 99.0723V98.7207L1051.01 99.6172C1050.37 99.7344 1049.85 99.998 1049.45 100.408C1049.05 100.818 1048.85 101.334 1048.85 101.955C1048.85 102.529 1049.13 103.033 1049.68 103.467C1050.24 103.9 1050.99 104.117 1051.93 104.117ZM1068.86 99.793V107H1065.25V89.7207H1068.86V96.5586H1077.31V89.7207H1080.91V107H1077.31V99.793H1068.86ZM1099.83 107H1096.22V105.207C1096.18 105.254 1096.1 105.33 1095.98 105.436C1095.87 105.541 1095.65 105.717 1095.31 105.963C1094.98 106.197 1094.62 106.414 1094.24 106.613C1093.85 106.801 1093.37 106.971 1092.78 107.123C1092.19 107.275 1091.6 107.352 1091 107.352C1089.25 107.352 1087.79 106.842 1086.63 105.822C1085.47 104.803 1084.89 103.637 1084.89 102.324C1084.89 100.906 1085.33 99.7168 1086.22 98.7559C1087.12 97.7949 1088.36 97.1855 1089.91 96.9277L1096.22 95.8379C1096.22 94.9238 1095.88 94.1562 1095.21 93.5352C1094.54 92.9141 1093.68 92.6035 1092.62 92.6035C1091.71 92.6035 1090.88 92.7969 1090.12 93.1836C1089.39 93.5586 1088.88 93.9395 1088.6 94.3262L1088.12 94.9414L1085.78 92.6035C1085.85 92.5098 1085.95 92.3926 1086.06 92.252C1086.19 92.0996 1086.47 91.8418 1086.89 91.4785C1087.32 91.1035 1087.78 90.7695 1088.26 90.4766C1088.74 90.1836 1089.38 89.9258 1090.16 89.7031C1090.96 89.4688 1091.78 89.3516 1092.62 89.3516C1094.73 89.3516 1096.46 89.9785 1097.81 91.2324C1099.15 92.4746 1099.83 94.0098 1099.83 95.8379V107ZM1091.55 104.117C1093.01 104.117 1094.16 103.684 1094.98 102.816C1095.81 101.938 1096.22 100.689 1096.22 99.0723V98.7207L1090.63 99.6172C1089.99 99.7344 1089.47 99.998 1089.07 100.408C1088.67 100.818 1088.47 101.334 1088.47 101.955C1088.47 102.529 1088.75 103.033 1089.3 103.467C1089.86 103.9 1090.61 104.117 1091.55 104.117ZM1106.86 89.7207H1120.18V107H1116.58V92.9551H1110.46V94.7656C1110.46 98.0586 1110.2 100.66 1109.67 102.57C1109.16 104.469 1108.49 105.74 1107.67 106.385C1106.86 107.029 1105.81 107.352 1104.52 107.352C1104.21 107.352 1103.87 107.322 1103.5 107.264C1103.15 107.205 1102.88 107.141 1102.68 107.07L1102.36 107V103.572C1102.84 103.689 1103.26 103.754 1103.61 103.766C1104.35 103.766 1104.93 103.566 1105.35 103.168C1105.78 102.77 1106.14 101.891 1106.42 100.531C1106.71 99.1602 1106.86 97.2383 1106.86 94.7656V89.7207ZM1137.83 89.7207H1141.07V107H1137.46V95.6621L1128.46 107H1125.23V89.7207H1128.83V101.059L1137.83 89.7207ZM1157.62 94.2207C1157.62 95.0176 1157.4 95.7148 1156.96 96.3125C1156.52 96.9102 1156.08 97.3027 1155.62 97.4902L1154.94 97.8242C1155.03 97.8477 1155.15 97.8887 1155.3 97.9473C1155.47 98.0059 1155.74 98.1465 1156.11 98.3691C1156.5 98.5801 1156.84 98.8379 1157.13 99.1426C1157.44 99.4355 1157.71 99.8457 1157.96 100.373C1158.22 100.9 1158.35 101.492 1158.35 102.148C1158.35 103.59 1157.7 104.82 1156.41 105.84C1155.13 106.848 1153.38 107.352 1151.16 107.352C1150.31 107.352 1149.5 107.246 1148.71 107.035C1147.94 106.824 1147.29 106.572 1146.78 106.279C1146.26 105.986 1145.81 105.693 1145.43 105.4C1145.04 105.096 1144.75 104.838 1144.56 104.627L1144.32 104.293L1146.66 101.955C1146.8 102.119 1146.98 102.324 1147.22 102.57C1147.46 102.816 1147.98 103.139 1148.77 103.537C1149.56 103.924 1150.36 104.117 1151.16 104.117C1152.35 104.117 1153.25 103.895 1153.85 103.449C1154.46 103.004 1154.76 102.447 1154.76 101.779C1154.76 101.111 1154.46 100.555 1153.85 100.109C1153.25 99.6641 1152.35 99.4414 1151.16 99.4414H1149.17V96.5586H1151.16C1152.09 96.5586 1152.81 96.377 1153.3 96.0137C1153.79 95.6387 1154.04 95.1641 1154.04 94.5898C1154.04 94.0039 1153.79 93.5293 1153.3 93.166C1152.81 92.791 1152.09 92.6035 1151.16 92.6035C1150.46 92.6035 1149.79 92.7383 1149.12 93.0078C1148.46 93.2656 1147.97 93.5352 1147.66 93.8164L1147.2 94.2207L1144.85 91.8828C1145.01 91.6953 1145.25 91.4609 1145.57 91.1797C1145.88 90.8984 1146.59 90.5234 1147.68 90.0547C1148.77 89.5859 1149.93 89.3516 1151.16 89.3516C1153.15 89.3516 1154.72 89.832 1155.88 90.793C1157.04 91.7539 1157.62 92.8965 1157.62 94.2207Z" fill="black"/>
<rect x="760.5" y="0.5" width="579" height="187" rx="93.5" stroke="black"/>
<circle cx="1430" cy="94" r="70" fill="#9BCECA"/>
<circle cx="1430" cy="79" r="21" stroke="black" stroke-width="4"/>
<path d="M1396 131.5V131.5C1396 115.208 1409.21 102 1425.5 102H1434C1450.29 102 1463.5 115.208 1463.5 131.5V131.5" stroke="black" stroke-width="4"/>
<path d="M1587.94 89.7207H1591.18V107H1587.57V95.6621L1578.57 107H1575.34V89.7207H1578.94V101.059L1587.94 89.7207ZM1607.73 94.2207C1607.73 95.0176 1607.51 95.7148 1607.07 96.3125C1606.63 96.9102 1606.19 97.3027 1605.73 97.4902L1605.04 97.8242C1605.14 97.8477 1605.26 97.8887 1605.41 97.9473C1605.58 98.0059 1605.85 98.1465 1606.22 98.3691C1606.61 98.5801 1606.95 98.8379 1607.24 99.1426C1607.55 99.4355 1607.82 99.8457 1608.07 100.373C1608.33 100.9 1608.46 101.492 1608.46 102.148C1608.46 103.59 1607.81 104.82 1606.52 105.84C1605.24 106.848 1603.49 107.352 1601.27 107.352C1600.42 107.352 1599.61 107.246 1598.82 107.035C1598.05 106.824 1597.4 106.572 1596.89 106.279C1596.37 105.986 1595.92 105.693 1595.54 105.4C1595.15 105.096 1594.86 104.838 1594.67 104.627L1594.43 104.293L1596.77 101.955C1596.91 102.119 1597.09 102.324 1597.33 102.57C1597.57 102.816 1598.09 103.139 1598.88 103.537C1599.67 103.924 1600.47 104.117 1601.27 104.117C1602.46 104.117 1603.36 103.895 1603.96 103.449C1604.56 103.004 1604.87 102.447 1604.87 101.779C1604.87 101.111 1604.56 100.555 1603.96 100.109C1603.36 99.6641 1602.46 99.4414 1601.27 99.4414H1599.28V96.5586H1601.27C1602.2 96.5586 1602.92 96.377 1603.41 96.0137C1603.9 95.6387 1604.15 95.1641 1604.15 94.5898C1604.15 94.0039 1603.9 93.5293 1603.41 93.166C1602.92 92.791 1602.2 92.6035 1601.27 92.6035C1600.57 92.6035 1599.89 92.7383 1599.23 93.0078C1598.57 93.2656 1598.08 93.5352 1597.77 93.8164L1597.31 94.2207L1594.96 91.8828C1595.12 91.6953 1595.36 91.4609 1595.68 91.1797C1595.99 90.8984 1596.7 90.5234 1597.79 90.0547C1598.88 89.5859 1600.04 89.3516 1601.27 89.3516C1603.26 89.3516 1604.83 89.832 1605.99 90.793C1607.15 91.7539 1607.73 92.8965 1607.73 94.2207ZM1616.58 108.793L1617.3 107L1610.27 89.7207H1614.04L1619.09 102.324L1624.13 89.7207H1627.91L1620.16 108.793C1619.27 110.926 1618.39 112.42 1617.51 113.275C1616.64 114.131 1615.55 114.559 1614.24 114.559C1613.76 114.559 1613.31 114.529 1612.88 114.471C1612.46 114.412 1612.15 114.348 1611.95 114.277L1611.71 114.207V110.955C1612.3 111.189 1612.91 111.312 1613.52 111.324C1614.89 111.312 1615.91 110.469 1616.58 108.793ZM1641.59 107V100.514C1640.39 101.357 1638.95 101.779 1637.27 101.779C1635.18 101.779 1633.52 101.152 1632.27 99.8984C1631.04 98.6328 1630.43 96.9219 1630.43 94.7656V89.7207H1634.01V94.7656C1634.01 95.8438 1634.36 96.7461 1635.05 97.4727C1635.75 98.1875 1636.61 98.5449 1637.62 98.5449C1638.36 98.5449 1639.05 98.4277 1639.71 98.1934C1640.38 97.9473 1640.86 97.7012 1641.15 97.4551L1641.59 97.1035V89.7207H1645.18V107H1641.59ZM1666.23 99.6172H1652.73C1652.92 100.836 1653.52 101.891 1654.53 102.781C1655.55 103.672 1656.75 104.117 1658.15 104.117C1659.16 104.117 1660.09 103.889 1660.96 103.432C1661.84 102.975 1662.46 102.529 1662.82 102.096L1663.37 101.428L1665.71 103.766C1665.64 103.859 1665.53 103.994 1665.37 104.17C1665.23 104.334 1664.92 104.621 1664.44 105.031C1663.96 105.43 1663.45 105.787 1662.91 106.104C1662.37 106.408 1661.67 106.695 1660.8 106.965C1659.95 107.223 1659.06 107.352 1658.15 107.352C1655.7 107.352 1653.58 106.455 1651.8 104.662C1650.03 102.857 1649.15 100.695 1649.15 98.1758C1649.15 95.75 1650.01 93.6758 1651.73 91.9531C1653.47 90.2188 1655.54 89.3516 1657.96 89.3516C1660.38 89.3516 1662.4 90.1602 1664 91.7773C1665.62 93.3828 1666.43 95.3984 1666.43 97.8242L1666.23 99.6172ZM1657.96 92.4277C1656.65 92.4277 1655.56 92.8145 1654.67 93.5879C1653.79 94.3496 1653.2 95.3398 1652.89 96.5586H1662.89C1662.68 95.3398 1662.14 94.3496 1661.26 93.5879C1660.38 92.8145 1659.28 92.4277 1657.96 92.4277ZM1673.97 99.793V107H1670.37V89.7207H1673.97V96.5586H1682.42V89.7207H1686.03V107H1682.42V99.793H1673.97ZM1703.68 89.7207H1706.91V107H1703.31V95.6621L1694.31 107H1691.07V89.7207H1694.68V101.059L1703.68 89.7207ZM1727.97 99.6172H1714.47C1714.66 100.836 1715.25 101.891 1716.26 102.781C1717.28 103.672 1718.49 104.117 1719.88 104.117C1720.89 104.117 1721.83 103.889 1722.7 103.432C1723.57 102.975 1724.2 102.529 1724.56 102.096L1725.1 101.428L1727.44 103.766C1727.37 103.859 1727.26 103.994 1727.11 104.17C1726.97 104.334 1726.66 104.621 1726.18 105.031C1725.7 105.43 1725.19 105.787 1724.65 106.104C1724.11 106.408 1723.4 106.695 1722.54 106.965C1721.68 107.223 1720.8 107.352 1719.88 107.352C1717.43 107.352 1715.32 106.455 1713.54 104.662C1711.77 102.857 1710.88 100.695 1710.88 98.1758C1710.88 95.75 1711.74 93.6758 1713.47 91.9531C1715.2 90.2188 1717.28 89.3516 1719.69 89.3516C1722.12 89.3516 1724.13 90.1602 1725.74 91.7773C1727.35 93.3828 1728.16 95.3984 1728.16 97.8242L1727.97 99.6172ZM1719.69 92.4277C1718.39 92.4277 1717.29 92.8145 1716.4 93.5879C1715.52 94.3496 1714.93 95.3398 1714.63 96.5586H1724.63C1724.42 95.3398 1723.87 94.3496 1722.99 93.5879C1722.12 92.8145 1721.01 92.4277 1719.69 92.4277ZM1740.57 107V81.793H1744.53V103.396H1756.59V81.793H1760.54V103.396H1763.62V112.396H1759.64V107H1740.57ZM1765.39 107L1775.83 81.793H1779.79L1790.23 107H1786.1L1783.39 100.338H1772.23L1769.52 107H1765.39ZM1777.82 86.293L1773.67 96.7344H1781.95L1777.82 86.293Z" fill="black"/>
<rect x="1340.5" y="0.5" width="579" height="187" rx="93.5" stroke="black"/>
</svg>
