<svg width="1920" height="182" viewBox="0 0 1920 182" fill="none" xmlns="http://www.w3.org/2000/svg">
<circle r="89.5" transform="matrix(1 -8.74228e-08 -8.74228e-08 -1 90 91)" stroke="black"/>
<path d="M84.2427 36.2616L138.732 90.7505M138.732 90.7505L84.2427 145.239M138.732 90.7505L29.7538 90.7505" stroke="black" stroke-width="2"/>
<path d="M330.264 83.3516C329.619 83.3516 328.992 83.2754 328.383 83.123C327.773 82.9707 327.252 82.7832 326.818 82.5605C326.385 82.3262 325.998 82.0918 325.658 81.8574C325.33 81.6113 325.09 81.418 324.938 81.2773L324.691 81.0137V90.5586H321.088V65.7207H324.691V67.707C324.855 67.543 325.084 67.3262 325.377 67.0566C325.682 66.7871 326.32 66.4355 327.293 66.002C328.266 65.5684 329.256 65.3516 330.264 65.3516C332.549 65.3516 334.529 66.2305 336.205 67.9883C337.893 69.7344 338.736 71.8555 338.736 74.3516C338.736 76.8477 337.893 78.9746 336.205 80.7324C334.529 82.4785 332.549 83.3516 330.264 83.3516ZM333.551 70.291C332.496 69.166 331.283 68.6035 329.912 68.6035C328.541 68.6035 327.328 69.166 326.273 70.291C325.219 71.416 324.691 72.7754 324.691 74.3691C324.691 75.9512 325.219 77.3047 326.273 78.4297C327.328 79.5547 328.541 80.1172 329.912 80.1172C331.283 80.1172 332.496 79.5547 333.551 78.4297C334.605 77.3047 335.133 75.9512 335.133 74.3691C335.133 72.7754 334.605 71.416 333.551 70.291ZM356.543 83H352.939V81.207C352.893 81.2539 352.811 81.3301 352.693 81.4355C352.588 81.541 352.365 81.7168 352.025 81.9629C351.697 82.1973 351.34 82.4141 350.953 82.6133C350.566 82.8008 350.08 82.9707 349.494 83.123C348.908 83.2754 348.316 83.3516 347.719 83.3516C345.961 83.3516 344.502 82.8418 343.342 81.8223C342.182 80.8027 341.602 79.6367 341.602 78.3242C341.602 76.9062 342.047 75.7168 342.938 74.7559C343.84 73.7949 345.07 73.1855 346.629 72.9277L352.939 71.8379C352.939 70.9238 352.6 70.1562 351.92 69.5352C351.252 68.9141 350.391 68.6035 349.336 68.6035C348.422 68.6035 347.59 68.7969 346.84 69.1836C346.102 69.5586 345.592 69.9395 345.311 70.3262L344.836 70.9414L342.498 68.6035C342.568 68.5098 342.662 68.3926 342.779 68.252C342.908 68.0996 343.184 67.8418 343.605 67.4785C344.039 67.1035 344.496 66.7695 344.977 66.4766C345.457 66.1836 346.09 65.9258 346.875 65.7031C347.672 65.4688 348.492 65.3516 349.336 65.3516C351.445 65.3516 353.174 65.9785 354.521 67.2324C355.869 68.4746 356.543 70.0098 356.543 71.8379V83ZM348.264 80.1172C349.729 80.1172 350.871 79.6836 351.691 78.8164C352.523 77.9375 352.939 76.6895 352.939 75.0723V74.7207L347.35 75.6172C346.705 75.7344 346.184 75.998 345.785 76.4082C345.387 76.8184 345.188 77.334 345.188 77.9551C345.188 78.5293 345.463 79.0332 346.014 79.4668C346.576 79.9004 347.326 80.1172 348.264 80.1172ZM373.102 70.2207C373.102 71.0176 372.879 71.7148 372.434 72.3125C372 72.9102 371.555 73.3027 371.098 73.4902L370.412 73.8242C370.506 73.8477 370.629 73.8887 370.781 73.9473C370.945 74.0059 371.215 74.1465 371.59 74.3691C371.977 74.5801 372.316 74.8379 372.609 75.1426C372.914 75.4355 373.189 75.8457 373.436 76.373C373.693 76.9004 373.822 77.4922 373.822 78.1484C373.822 79.5898 373.178 80.8203 371.889 81.8398C370.611 82.8477 368.859 83.3516 366.633 83.3516C365.789 83.3516 364.975 83.2461 364.189 83.0352C363.416 82.8242 362.771 82.5723 362.256 82.2793C361.74 81.9863 361.289 81.6934 360.902 81.4004C360.516 81.0957 360.229 80.8379 360.041 80.627L359.795 80.293L362.133 77.9551C362.273 78.1191 362.461 78.3242 362.695 78.5703C362.941 78.8164 363.457 79.1387 364.242 79.5371C365.039 79.9238 365.836 80.1172 366.633 80.1172C367.828 80.1172 368.725 79.8945 369.322 79.4492C369.932 79.0039 370.236 78.4473 370.236 77.7793C370.236 77.1113 369.932 76.5547 369.322 76.1094C368.725 75.6641 367.828 75.4414 366.633 75.4414H364.646V72.5586H366.633C367.57 72.5586 368.285 72.377 368.777 72.0137C369.27 71.6387 369.516 71.1641 369.516 70.5898C369.516 70.0039 369.27 69.5293 368.777 69.166C368.285 68.791 367.57 68.6035 366.633 68.6035C365.941 68.6035 365.262 68.7383 364.594 69.0078C363.938 69.2656 363.451 69.5352 363.135 69.8164L362.678 70.2207L360.322 67.8828C360.486 67.6953 360.727 67.4609 361.043 67.1797C361.359 66.8984 362.062 66.5234 363.152 66.0547C364.242 65.5859 365.402 65.3516 366.633 65.3516C368.625 65.3516 370.201 65.832 371.361 66.793C372.521 67.7539 373.102 68.8965 373.102 70.2207ZM386.971 83.3516C386.326 83.3516 385.699 83.2754 385.09 83.123C384.48 82.9707 383.959 82.7832 383.525 82.5605C383.092 82.3262 382.705 82.0918 382.365 81.8574C382.037 81.6113 381.797 81.418 381.645 81.2773L381.398 81.0137V90.5586H377.795V65.7207H381.398V67.707C381.562 67.543 381.791 67.3262 382.084 67.0566C382.389 66.7871 383.027 66.4355 384 66.002C384.973 65.5684 385.963 65.3516 386.971 65.3516C389.256 65.3516 391.236 66.2305 392.912 67.9883C394.6 69.7344 395.443 71.8555 395.443 74.3516C395.443 76.8477 394.6 78.9746 392.912 80.7324C391.236 82.4785 389.256 83.3516 386.971 83.3516ZM390.258 70.291C389.203 69.166 387.99 68.6035 386.619 68.6035C385.248 68.6035 384.035 69.166 382.98 70.291C381.926 71.416 381.398 72.7754 381.398 74.3691C381.398 75.9512 381.926 77.3047 382.98 78.4297C384.035 79.5547 385.248 80.1172 386.619 80.1172C387.99 80.1172 389.203 79.5547 390.258 78.4297C391.312 77.3047 391.84 75.9512 391.84 74.3691C391.84 72.7754 391.312 71.416 390.258 70.291ZM413.25 83H409.646V81.207C409.6 81.2539 409.518 81.3301 409.4 81.4355C409.295 81.541 409.072 81.7168 408.732 81.9629C408.404 82.1973 408.047 82.4141 407.66 82.6133C407.273 82.8008 406.787 82.9707 406.201 83.123C405.615 83.2754 405.023 83.3516 404.426 83.3516C402.668 83.3516 401.209 82.8418 400.049 81.8223C398.889 80.8027 398.309 79.6367 398.309 78.3242C398.309 76.9062 398.754 75.7168 399.645 74.7559C400.547 73.7949 401.777 73.1855 403.336 72.9277L409.646 71.8379C409.646 70.9238 409.307 70.1562 408.627 69.5352C407.959 68.9141 407.098 68.6035 406.043 68.6035C405.129 68.6035 404.297 68.7969 403.547 69.1836C402.809 69.5586 402.299 69.9395 402.018 70.3262L401.543 70.9414L399.205 68.6035C399.275 68.5098 399.369 68.3926 399.486 68.252C399.615 68.0996 399.891 67.8418 400.312 67.4785C400.746 67.1035 401.203 66.7695 401.684 66.4766C402.164 66.1836 402.797 65.9258 403.582 65.7031C404.379 65.4688 405.199 65.3516 406.043 65.3516C408.152 65.3516 409.881 65.9785 411.229 67.2324C412.576 68.4746 413.25 70.0098 413.25 71.8379V83ZM404.971 80.1172C406.436 80.1172 407.578 79.6836 408.398 78.8164C409.23 77.9375 409.646 76.6895 409.646 75.0723V74.7207L404.057 75.6172C403.412 75.7344 402.891 75.998 402.492 76.4082C402.094 76.8184 401.895 77.334 401.895 77.9551C401.895 78.5293 402.17 79.0332 402.721 79.4668C403.283 79.9004 404.033 80.1172 404.971 80.1172ZM435.574 74.5449C435.574 76.9707 434.719 79.0449 433.008 80.7676C431.309 82.4902 429.287 83.3516 426.943 83.3516C424.236 83.3516 422.057 82.3848 420.404 80.4512C418.764 78.5059 417.943 75.6934 417.943 72.0137C417.943 67.8184 418.723 64.6719 420.281 62.5742C421.84 60.4766 424.061 59.1875 426.943 58.707C428.221 58.4961 429.363 58.2266 430.371 57.8984C431.391 57.5703 432.094 57.2949 432.48 57.0723L433.061 56.7207L434.678 59.4277C434.607 59.5215 434.461 59.6562 434.238 59.832C434.027 60.0078 433.295 60.3242 432.041 60.7812C430.799 61.2383 429.217 61.625 427.295 61.9414C425.643 62.2109 424.312 62.8965 423.305 63.998C422.297 65.0996 421.705 66.5762 421.529 68.4277C421.576 68.3574 421.658 68.2637 421.775 68.1465C421.904 68.0176 422.156 67.8008 422.531 67.4961C422.906 67.1797 423.299 66.9043 423.709 66.6699C424.131 66.4238 424.664 66.207 425.309 66.0195C425.965 65.8203 426.627 65.7207 427.295 65.7207C429.475 65.7207 431.396 66.5938 433.061 68.3398C434.736 70.0742 435.574 72.1426 435.574 74.5449ZM423.393 70.5723C422.396 71.6387 421.898 72.9629 421.898 74.5449C421.898 76.127 422.396 77.4512 423.393 78.5176C424.389 79.584 425.566 80.1172 426.926 80.1172C428.297 80.1172 429.48 79.584 430.477 78.5176C431.473 77.4512 431.971 76.127 431.971 74.5449C431.971 72.9629 431.473 71.6387 430.477 70.5723C429.48 69.4941 428.297 68.9551 426.926 68.9551C425.566 68.9551 424.389 69.4941 423.393 70.5723ZM451.605 78.4473C452.672 77.334 453.205 75.9746 453.205 74.3691C453.205 72.752 452.672 71.3867 451.605 70.2734C450.539 69.1602 449.273 68.6035 447.809 68.6035C446.344 68.6035 445.072 69.1602 443.994 70.2734C442.928 71.3867 442.395 72.752 442.395 74.3691C442.395 75.9746 442.928 77.334 443.994 78.4473C445.072 79.5605 446.344 80.1172 447.809 80.1172C449.273 80.1172 450.539 79.5605 451.605 78.4473ZM441.48 80.6797C439.699 78.8867 438.809 76.7832 438.809 74.3691C438.809 71.9434 439.699 69.834 441.48 68.041C443.273 66.248 445.383 65.3516 447.809 65.3516C450.234 65.3516 452.338 66.248 454.119 68.041C455.912 69.834 456.809 71.9434 456.809 74.3691C456.809 76.7832 455.912 78.8867 454.119 80.6797C452.338 82.4609 450.234 83.3516 447.809 83.3516C445.383 83.3516 443.273 82.4609 441.48 80.6797ZM458.971 68.9551V65.7207H474.439V68.9551H468.498V83H464.912V68.9551H458.971ZM492.984 65.7207L486.322 72.9277L493.512 83H489.557L483.984 75.2656L481.277 78.1484V83H477.674V65.7207H481.277V73.4551L488.66 65.7207H492.984ZM510.246 83H506.643V81.207C506.596 81.2539 506.514 81.3301 506.396 81.4355C506.291 81.541 506.068 81.7168 505.729 81.9629C505.4 82.1973 505.043 82.4141 504.656 82.6133C504.27 82.8008 503.783 82.9707 503.197 83.123C502.611 83.2754 502.02 83.3516 501.422 83.3516C499.664 83.3516 498.205 82.8418 497.045 81.8223C495.885 80.8027 495.305 79.6367 495.305 78.3242C495.305 76.9062 495.75 75.7168 496.641 74.7559C497.543 73.7949 498.773 73.1855 500.332 72.9277L506.643 71.8379C506.643 70.9238 506.303 70.1562 505.623 69.5352C504.955 68.9141 504.094 68.6035 503.039 68.6035C502.125 68.6035 501.293 68.7969 500.543 69.1836C499.805 69.5586 499.295 69.9395 499.014 70.3262L498.539 70.9414L496.201 68.6035C496.271 68.5098 496.365 68.3926 496.482 68.252C496.611 68.0996 496.887 67.8418 497.309 67.4785C497.742 67.1035 498.199 66.7695 498.68 66.4766C499.16 66.1836 499.793 65.9258 500.578 65.7031C501.375 65.4688 502.195 65.3516 503.039 65.3516C505.148 65.3516 506.877 65.9785 508.225 67.2324C509.572 68.4746 510.246 70.0098 510.246 71.8379V83ZM501.967 80.1172C503.432 80.1172 504.574 79.6836 505.395 78.8164C506.227 77.9375 506.643 76.6895 506.643 75.0723V74.7207L501.053 75.6172C500.408 75.7344 499.887 75.998 499.488 76.4082C499.09 76.8184 498.891 77.334 498.891 77.9551C498.891 78.5293 499.166 79.0332 499.717 79.4668C500.279 79.9004 501.029 80.1172 501.967 80.1172ZM531.146 74L537.615 83H533.484L528.984 76.707L524.484 83H520.336L526.822 74L520.881 65.7207H525.012L528.984 71.293L532.939 65.7207H537.088L531.146 74ZM554.367 83H550.764V81.207C550.717 81.2539 550.635 81.3301 550.518 81.4355C550.412 81.541 550.189 81.7168 549.85 81.9629C549.521 82.1973 549.164 82.4141 548.777 82.6133C548.391 82.8008 547.904 82.9707 547.318 83.123C546.732 83.2754 546.141 83.3516 545.543 83.3516C543.785 83.3516 542.326 82.8418 541.166 81.8223C540.006 80.8027 539.426 79.6367 539.426 78.3242C539.426 76.9062 539.871 75.7168 540.762 74.7559C541.664 73.7949 542.895 73.1855 544.453 72.9277L550.764 71.8379C550.764 70.9238 550.424 70.1562 549.744 69.5352C549.076 68.9141 548.215 68.6035 547.16 68.6035C546.246 68.6035 545.414 68.7969 544.664 69.1836C543.926 69.5586 543.416 69.9395 543.135 70.3262L542.66 70.9414L540.322 68.6035C540.393 68.5098 540.486 68.3926 540.604 68.252C540.732 68.0996 541.008 67.8418 541.43 67.4785C541.863 67.1035 542.32 66.7695 542.801 66.4766C543.281 66.1836 543.914 65.9258 544.699 65.7031C545.496 65.4688 546.316 65.3516 547.16 65.3516C549.27 65.3516 550.998 65.9785 552.346 67.2324C553.693 68.4746 554.367 70.0098 554.367 71.8379V83ZM546.088 80.1172C547.553 80.1172 548.695 79.6836 549.516 78.8164C550.348 77.9375 550.764 76.6895 550.764 75.0723V74.7207L545.174 75.6172C544.529 75.7344 544.008 75.998 543.609 76.4082C543.211 76.8184 543.012 77.334 543.012 77.9551C543.012 78.5293 543.287 79.0332 543.838 79.4668C544.4 79.9004 545.15 80.1172 546.088 80.1172ZM568.588 83.3516C567.943 83.3516 567.316 83.2754 566.707 83.123C566.098 82.9707 565.576 82.7832 565.143 82.5605C564.709 82.3262 564.322 82.0918 563.982 81.8574C563.654 81.6113 563.414 81.418 563.262 81.2773L563.016 81.0137V90.5586H559.412V65.7207H563.016V67.707C563.18 67.543 563.408 67.3262 563.701 67.0566C564.006 66.7871 564.645 66.4355 565.617 66.002C566.59 65.5684 567.58 65.3516 568.588 65.3516C570.873 65.3516 572.854 66.2305 574.529 67.9883C576.217 69.7344 577.061 71.8555 577.061 74.3516C577.061 76.8477 576.217 78.9746 574.529 80.7324C572.854 82.4785 570.873 83.3516 568.588 83.3516ZM571.875 70.291C570.82 69.166 569.607 68.6035 568.236 68.6035C566.865 68.6035 565.652 69.166 564.598 70.291C563.543 71.416 563.016 72.7754 563.016 74.3691C563.016 75.9512 563.543 77.3047 564.598 78.4297C565.652 79.5547 566.865 80.1172 568.236 80.1172C569.607 80.1172 570.82 79.5547 571.875 78.4297C572.93 77.3047 573.457 75.9512 573.457 74.3691C573.457 72.7754 572.93 71.416 571.875 70.291ZM594.867 83H591.264V81.207C591.217 81.2539 591.135 81.3301 591.018 81.4355C590.912 81.541 590.689 81.7168 590.35 81.9629C590.021 82.1973 589.664 82.4141 589.277 82.6133C588.891 82.8008 588.404 82.9707 587.818 83.123C587.232 83.2754 586.641 83.3516 586.043 83.3516C584.285 83.3516 582.826 82.8418 581.666 81.8223C580.506 80.8027 579.926 79.6367 579.926 78.3242C579.926 76.9062 580.371 75.7168 581.262 74.7559C582.164 73.7949 583.395 73.1855 584.953 72.9277L591.264 71.8379C591.264 70.9238 590.924 70.1562 590.244 69.5352C589.576 68.9141 588.715 68.6035 587.66 68.6035C586.746 68.6035 585.914 68.7969 585.164 69.1836C584.426 69.5586 583.916 69.9395 583.635 70.3262L583.16 70.9414L580.822 68.6035C580.893 68.5098 580.986 68.3926 581.104 68.252C581.232 68.0996 581.508 67.8418 581.93 67.4785C582.363 67.1035 582.82 66.7695 583.301 66.4766C583.781 66.1836 584.414 65.9258 585.199 65.7031C585.996 65.4688 586.816 65.3516 587.66 65.3516C589.77 65.3516 591.498 65.9785 592.846 67.2324C594.193 68.4746 594.867 70.0098 594.867 71.8379V83ZM586.588 80.1172C588.053 80.1172 589.195 79.6836 590.016 78.8164C590.848 77.9375 591.264 76.6895 591.264 75.0723V74.7207L585.674 75.6172C585.029 75.7344 584.508 75.998 584.109 76.4082C583.711 76.8184 583.512 77.334 583.512 77.9551C583.512 78.5293 583.787 79.0332 584.338 79.4668C584.9 79.9004 585.65 80.1172 586.588 80.1172ZM615.223 65.7207L608.561 72.9277L615.75 83H611.795L606.223 75.2656L603.516 78.1484V83H599.912V65.7207H603.516V73.4551L610.898 65.7207H615.223ZM616.822 68.9551V65.7207H632.291V68.9551H626.35V83H622.764V68.9551H616.822ZM651.539 75.6172H638.039C638.227 76.8359 638.824 77.8906 639.832 78.7812C640.852 79.6719 642.059 80.1172 643.453 80.1172C644.461 80.1172 645.398 79.8887 646.266 79.4316C647.145 78.9746 647.766 78.5293 648.129 78.0957L648.674 77.4277L651.012 79.7656C650.941 79.8594 650.83 79.9941 650.678 80.1699C650.537 80.334 650.227 80.6211 649.746 81.0312C649.266 81.4297 648.756 81.7871 648.217 82.1035C647.678 82.4082 646.975 82.6953 646.107 82.9648C645.252 83.2227 644.367 83.3516 643.453 83.3516C641.004 83.3516 638.889 82.4551 637.107 80.6621C635.338 78.8574 634.453 76.6953 634.453 74.1758C634.453 71.75 635.314 69.6758 637.037 67.9531C638.771 66.2188 640.846 65.3516 643.26 65.3516C645.686 65.3516 647.701 66.1602 649.307 67.7773C650.924 69.3828 651.732 71.3984 651.732 73.8242L651.539 75.6172ZM643.26 68.4277C641.959 68.4277 640.863 68.8145 639.973 69.5879C639.094 70.3496 638.502 71.3398 638.197 72.5586H648.199C647.988 71.3398 647.443 70.3496 646.564 69.5879C645.686 68.8145 644.584 68.4277 643.26 68.4277ZM664.846 83.3516C664.201 83.3516 663.574 83.2754 662.965 83.123C662.355 82.9707 661.834 82.7832 661.4 82.5605C660.967 82.3262 660.58 82.0918 660.24 81.8574C659.912 81.6113 659.672 81.418 659.52 81.2773L659.273 81.0137V90.5586H655.67V65.7207H659.273V67.707C659.438 67.543 659.666 67.3262 659.959 67.0566C660.264 66.7871 660.902 66.4355 661.875 66.002C662.848 65.5684 663.838 65.3516 664.846 65.3516C667.131 65.3516 669.111 66.2305 670.787 67.9883C672.475 69.7344 673.318 71.8555 673.318 74.3516C673.318 76.8477 672.475 78.9746 670.787 80.7324C669.111 82.4785 667.131 83.3516 664.846 83.3516ZM668.133 70.291C667.078 69.166 665.865 68.6035 664.494 68.6035C663.123 68.6035 661.91 69.166 660.855 70.291C659.801 71.416 659.273 72.7754 659.273 74.3691C659.273 75.9512 659.801 77.3047 660.855 78.4297C661.91 79.5547 663.123 80.1172 664.494 80.1172C665.865 80.1172 667.078 79.5547 668.133 78.4297C669.188 77.3047 669.715 75.9512 669.715 74.3691C669.715 72.7754 669.188 71.416 668.133 70.291ZM691.125 83H687.521V81.207C687.475 81.2539 687.393 81.3301 687.275 81.4355C687.17 81.541 686.947 81.7168 686.607 81.9629C686.279 82.1973 685.922 82.4141 685.535 82.6133C685.148 82.8008 684.662 82.9707 684.076 83.123C683.49 83.2754 682.898 83.3516 682.301 83.3516C680.543 83.3516 679.084 82.8418 677.924 81.8223C676.764 80.8027 676.184 79.6367 676.184 78.3242C676.184 76.9062 676.629 75.7168 677.52 74.7559C678.422 73.7949 679.652 73.1855 681.211 72.9277L687.521 71.8379C687.521 70.9238 687.182 70.1562 686.502 69.5352C685.834 68.9141 684.973 68.6035 683.918 68.6035C683.004 68.6035 682.172 68.7969 681.422 69.1836C680.684 69.5586 680.174 69.9395 679.893 70.3262L679.418 70.9414L677.08 68.6035C677.15 68.5098 677.244 68.3926 677.361 68.252C677.49 68.0996 677.766 67.8418 678.188 67.4785C678.621 67.1035 679.078 66.7695 679.559 66.4766C680.039 66.1836 680.672 65.9258 681.457 65.7031C682.254 65.4688 683.074 65.3516 683.918 65.3516C686.027 65.3516 687.756 65.9785 689.104 67.2324C690.451 68.4746 691.125 70.0098 691.125 71.8379V83ZM682.846 80.1172C684.311 80.1172 685.453 79.6836 686.273 78.8164C687.105 77.9375 687.521 76.6895 687.521 75.0723V74.7207L681.932 75.6172C681.287 75.7344 680.766 75.998 680.367 76.4082C679.969 76.8184 679.77 77.334 679.77 77.9551C679.77 78.5293 680.045 79.0332 680.596 79.4668C681.158 79.9004 681.908 80.1172 682.846 80.1172ZM324.691 110.955V125H321.088V107.721H336.75V125H333.146V110.955H324.691ZM350.971 125.352C350.326 125.352 349.699 125.275 349.09 125.123C348.48 124.971 347.959 124.783 347.525 124.561C347.092 124.326 346.705 124.092 346.365 123.857C346.037 123.611 345.797 123.418 345.645 123.277L345.398 123.014V132.559H341.795V107.721H345.398V109.707C345.562 109.543 345.791 109.326 346.084 109.057C346.389 108.787 347.027 108.436 348 108.002C348.973 107.568 349.963 107.352 350.971 107.352C353.256 107.352 355.236 108.23 356.912 109.988C358.6 111.734 359.443 113.855 359.443 116.352C359.443 118.848 358.6 120.975 356.912 122.732C355.236 124.479 353.256 125.352 350.971 125.352ZM354.258 112.291C353.203 111.166 351.99 110.604 350.619 110.604C349.248 110.604 348.035 111.166 346.98 112.291C345.926 113.416 345.398 114.775 345.398 116.369C345.398 117.951 345.926 119.305 346.98 120.43C348.035 121.555 349.248 122.117 350.619 122.117C351.99 122.117 353.203 121.555 354.258 120.43C355.312 119.305 355.84 117.951 355.84 116.369C355.84 114.775 355.312 113.416 354.258 112.291ZM375.105 120.447C376.172 119.334 376.705 117.975 376.705 116.369C376.705 114.752 376.172 113.387 375.105 112.273C374.039 111.16 372.773 110.604 371.309 110.604C369.844 110.604 368.572 111.16 367.494 112.273C366.428 113.387 365.895 114.752 365.895 116.369C365.895 117.975 366.428 119.334 367.494 120.447C368.572 121.561 369.844 122.117 371.309 122.117C372.773 122.117 374.039 121.561 375.105 120.447ZM364.98 122.68C363.199 120.887 362.309 118.783 362.309 116.369C362.309 113.943 363.199 111.834 364.98 110.041C366.773 108.248 368.883 107.352 371.309 107.352C373.734 107.352 375.838 108.248 377.619 110.041C379.412 111.834 380.309 113.943 380.309 116.369C380.309 118.783 379.412 120.887 377.619 122.68C375.838 124.461 373.734 125.352 371.309 125.352C368.883 125.352 366.773 124.461 364.98 122.68ZM381.75 121.766H382.998C383.068 121.695 383.168 121.584 383.297 121.432C383.438 121.268 383.672 120.91 384 120.359C384.34 119.809 384.633 119.217 384.879 118.584C385.137 117.939 385.365 117.096 385.564 116.053C385.775 115.01 385.881 113.914 385.881 112.766V107.721H398.484V121.766H400.998V129.324H397.412V125H385.354V129.324H381.75V121.766ZM389.484 110.955V112.766C389.484 113.914 389.385 115.004 389.186 116.035C388.998 117.066 388.758 117.922 388.465 118.602C388.184 119.27 387.896 119.85 387.604 120.342C387.322 120.834 387.088 121.186 386.9 121.396L386.602 121.766H394.881V110.955H389.484ZM408.768 126.793L409.488 125L402.457 107.721H406.236L411.281 120.324L416.326 107.721H420.105L412.354 126.793C411.463 128.926 410.578 130.42 409.699 131.275C408.832 132.131 407.742 132.559 406.43 132.559C405.949 132.559 405.498 132.529 405.076 132.471C404.654 132.412 404.344 132.348 404.145 132.277L403.898 132.207V128.955C404.496 129.189 405.1 129.312 405.709 129.324C407.08 129.312 408.1 128.469 408.768 126.793ZM438.281 107.721L431.619 114.928L438.809 125H434.854L429.281 117.266L426.574 120.148V125H422.971V107.721H426.574V115.455L433.957 107.721H438.281ZM439.881 110.955V107.721H455.35V110.955H449.408V125H445.822V110.955H439.881ZM472.453 125H468.85V123.207C468.803 123.254 468.721 123.33 468.604 123.436C468.498 123.541 468.275 123.717 467.936 123.963C467.607 124.197 467.25 124.414 466.863 124.613C466.477 124.801 465.99 124.971 465.404 125.123C464.818 125.275 464.227 125.352 463.629 125.352C461.871 125.352 460.412 124.842 459.252 123.822C458.092 122.803 457.512 121.637 457.512 120.324C457.512 118.906 457.957 117.717 458.848 116.756C459.75 115.795 460.98 115.186 462.539 114.928L468.85 113.838C468.85 112.924 468.51 112.156 467.83 111.535C467.162 110.914 466.301 110.604 465.246 110.604C464.332 110.604 463.5 110.797 462.75 111.184C462.012 111.559 461.502 111.939 461.221 112.326L460.746 112.941L458.408 110.604C458.479 110.51 458.572 110.393 458.689 110.252C458.818 110.1 459.094 109.842 459.516 109.479C459.949 109.104 460.406 108.77 460.887 108.477C461.367 108.184 462 107.926 462.785 107.703C463.582 107.469 464.402 107.352 465.246 107.352C467.355 107.352 469.084 107.979 470.432 109.232C471.779 110.475 472.453 112.01 472.453 113.838V125ZM464.174 122.117C465.639 122.117 466.781 121.684 467.602 120.816C468.434 119.938 468.85 118.689 468.85 117.072V116.721L463.26 117.617C462.615 117.734 462.094 117.998 461.695 118.408C461.297 118.818 461.098 119.334 461.098 119.955C461.098 120.529 461.373 121.033 461.924 121.467C462.486 121.9 463.236 122.117 464.174 122.117ZM497.309 107.721H500.543V125H496.939V113.662L487.939 125H484.705V107.721H488.309V119.059L497.309 107.721ZM507.574 107.721H520.898V125H517.295V110.955H511.178V112.766C511.178 116.059 510.914 118.66 510.387 120.57C509.871 122.469 509.203 123.74 508.383 124.385C507.574 125.029 506.525 125.352 505.236 125.352C504.92 125.352 504.58 125.322 504.217 125.264C503.865 125.205 503.59 125.141 503.391 125.07L503.074 125V121.572C503.555 121.689 503.971 121.754 504.322 121.766C505.061 121.766 505.641 121.566 506.062 121.168C506.496 120.77 506.854 119.891 507.135 118.531C507.428 117.16 507.574 115.238 507.574 112.766V107.721ZM538.547 107.721H541.781V125H538.178V113.662L529.178 125H525.943V107.721H529.547V119.059L538.547 107.721ZM571.312 116.545C571.312 118.971 570.457 121.045 568.746 122.768C567.047 124.49 565.025 125.352 562.682 125.352C559.975 125.352 557.795 124.385 556.143 122.451C554.502 120.506 553.682 117.693 553.682 114.014C553.682 109.818 554.461 106.672 556.02 104.574C557.578 102.477 559.799 101.188 562.682 100.707C563.959 100.496 565.102 100.227 566.109 99.8984C567.129 99.5703 567.832 99.2949 568.219 99.0723L568.799 98.7207L570.416 101.428C570.346 101.521 570.199 101.656 569.977 101.832C569.766 102.008 569.033 102.324 567.779 102.781C566.537 103.238 564.955 103.625 563.033 103.941C561.381 104.211 560.051 104.896 559.043 105.998C558.035 107.1 557.443 108.576 557.268 110.428C557.314 110.357 557.396 110.264 557.514 110.146C557.643 110.018 557.895 109.801 558.27 109.496C558.645 109.18 559.037 108.904 559.447 108.67C559.869 108.424 560.402 108.207 561.047 108.02C561.703 107.82 562.365 107.721 563.033 107.721C565.213 107.721 567.135 108.594 568.799 110.34C570.475 112.074 571.312 114.143 571.312 116.545ZM559.131 112.572C558.135 113.639 557.637 114.963 557.637 116.545C557.637 118.127 558.135 119.451 559.131 120.518C560.127 121.584 561.305 122.117 562.664 122.117C564.035 122.117 565.219 121.584 566.215 120.518C567.211 119.451 567.709 118.127 567.709 116.545C567.709 114.963 567.211 113.639 566.215 112.572C565.219 111.494 564.035 110.955 562.664 110.955C561.305 110.955 560.127 111.494 559.131 112.572ZM584.795 125.352C584.15 125.352 583.523 125.275 582.914 125.123C582.305 124.971 581.783 124.783 581.35 124.561C580.916 124.326 580.529 124.092 580.189 123.857C579.861 123.611 579.621 123.418 579.469 123.277L579.223 123.014V132.559H575.619V107.721H579.223V109.707C579.387 109.543 579.615 109.326 579.908 109.057C580.213 108.787 580.852 108.436 581.824 108.002C582.797 107.568 583.787 107.352 584.795 107.352C587.08 107.352 589.061 108.23 590.736 109.988C592.424 111.734 593.268 113.855 593.268 116.352C593.268 118.848 592.424 120.975 590.736 122.732C589.061 124.479 587.08 125.352 584.795 125.352ZM588.082 112.291C587.027 111.166 585.814 110.604 584.443 110.604C583.072 110.604 581.859 111.166 580.805 112.291C579.75 113.416 579.223 114.775 579.223 116.369C579.223 117.951 579.75 119.305 580.805 120.43C581.859 121.555 583.072 122.117 584.443 122.117C585.814 122.117 587.027 121.555 588.082 120.43C589.137 119.305 589.664 117.951 589.664 116.369C589.664 114.775 589.137 113.416 588.082 112.291ZM613.219 117.617H599.719C599.906 118.836 600.504 119.891 601.512 120.781C602.531 121.672 603.738 122.117 605.133 122.117C606.141 122.117 607.078 121.889 607.945 121.432C608.824 120.975 609.445 120.529 609.809 120.096L610.354 119.428L612.691 121.766C612.621 121.859 612.51 121.994 612.357 122.17C612.217 122.334 611.906 122.621 611.426 123.031C610.945 123.43 610.436 123.787 609.896 124.104C609.357 124.408 608.654 124.695 607.787 124.965C606.932 125.223 606.047 125.352 605.133 125.352C602.684 125.352 600.568 124.455 598.787 122.662C597.018 120.857 596.133 118.695 596.133 116.176C596.133 113.75 596.994 111.676 598.717 109.953C600.451 108.219 602.525 107.352 604.939 107.352C607.365 107.352 609.381 108.16 610.986 109.777C612.604 111.383 613.412 113.398 613.412 115.824L613.219 117.617ZM604.939 110.428C603.639 110.428 602.543 110.814 601.652 111.588C600.773 112.35 600.182 113.34 599.877 114.559H609.879C609.668 113.34 609.123 112.35 608.244 111.588C607.365 110.814 606.264 110.428 604.939 110.428ZM620.953 117.793V125H617.35V107.721H620.953V114.559H629.408V107.721H633.012V125H629.408V117.793H620.953ZM635.543 121.766H636.791C636.861 121.695 636.961 121.584 637.09 121.432C637.23 121.268 637.465 120.91 637.793 120.359C638.133 119.809 638.426 119.217 638.672 118.584C638.93 117.939 639.158 117.096 639.357 116.053C639.568 115.01 639.674 113.914 639.674 112.766V107.721H652.277V121.766H654.791V129.324H651.205V125H639.146V129.324H635.543V121.766ZM643.277 110.955V112.766C643.277 113.914 643.178 115.004 642.979 116.035C642.791 117.066 642.551 117.922 642.258 118.602C641.977 119.27 641.689 119.85 641.396 120.342C641.115 120.834 640.881 121.186 640.693 121.396L640.395 121.766H648.674V110.955H643.277ZM672.281 125H668.678V123.207C668.631 123.254 668.549 123.33 668.432 123.436C668.326 123.541 668.104 123.717 667.764 123.963C667.436 124.197 667.078 124.414 666.691 124.613C666.305 124.801 665.818 124.971 665.232 125.123C664.646 125.275 664.055 125.352 663.457 125.352C661.699 125.352 660.24 124.842 659.08 123.822C657.92 122.803 657.34 121.637 657.34 120.324C657.34 118.906 657.785 117.717 658.676 116.756C659.578 115.795 660.809 115.186 662.367 114.928L668.678 113.838C668.678 112.924 668.338 112.156 667.658 111.535C666.99 110.914 666.129 110.604 665.074 110.604C664.16 110.604 663.328 110.797 662.578 111.184C661.84 111.559 661.33 111.939 661.049 112.326L660.574 112.941L658.236 110.604C658.307 110.51 658.4 110.393 658.518 110.252C658.646 110.1 658.922 109.842 659.344 109.479C659.777 109.104 660.234 108.77 660.715 108.477C661.195 108.184 661.828 107.926 662.613 107.703C663.41 107.469 664.23 107.352 665.074 107.352C667.184 107.352 668.912 107.979 670.26 109.232C671.607 110.475 672.281 112.01 672.281 113.838V125ZM664.002 122.117C665.467 122.117 666.609 121.684 667.43 120.816C668.262 119.938 668.678 118.689 668.678 117.072V116.721L663.088 117.617C662.443 117.734 661.922 117.998 661.523 118.408C661.125 118.818 660.926 119.334 660.926 119.955C660.926 120.529 661.201 121.033 661.752 121.467C662.314 121.9 663.064 122.117 664.002 122.117Z" fill="black"/>
<circle cx="903.5" cy="91" r="70" fill="#70A16D"/>
<circle cx="887.5" cy="80" r="28" stroke="black" stroke-width="4"/>
<circle cx="919.5" cy="80" r="28" stroke="black" stroke-width="4"/>
<circle cx="902.5" cy="110" r="28" stroke="black" stroke-width="4"/>
<rect x="180.5" y="0.5" width="812.5" height="181" rx="90.5" stroke="black"/>
<path d="M1238.59 104V86.7207H1242.19V100.766H1248.48V86.7207H1252.09V100.766H1258.4V86.7207H1261.98V104H1238.59ZM1265.24 89.9551V86.7207H1280.71V89.9551H1274.76V104H1271.18V89.9551H1265.24ZM1295.66 99.4473C1296.73 98.334 1297.26 96.9746 1297.26 95.3691C1297.26 93.752 1296.73 92.3867 1295.66 91.2734C1294.6 90.1602 1293.33 89.6035 1291.87 89.6035C1290.4 89.6035 1289.13 90.1602 1288.05 91.2734C1286.99 92.3867 1286.45 93.752 1286.45 95.3691C1286.45 96.9746 1286.99 98.334 1288.05 99.4473C1289.13 100.561 1290.4 101.117 1291.87 101.117C1293.33 101.117 1294.6 100.561 1295.66 99.4473ZM1285.54 101.68C1283.76 99.8867 1282.87 97.7832 1282.87 95.3691C1282.87 92.9434 1283.76 90.834 1285.54 89.041C1287.33 87.248 1289.44 86.3516 1291.87 86.3516C1294.29 86.3516 1296.4 87.248 1298.18 89.041C1299.97 90.834 1300.87 92.9434 1300.87 95.3691C1300.87 97.7832 1299.97 99.8867 1298.18 101.68C1296.4 103.461 1294.29 104.352 1291.87 104.352C1289.44 104.352 1287.33 103.461 1285.54 101.68ZM1314 104.352C1313.35 104.352 1312.73 104.275 1312.12 104.123C1311.51 103.971 1310.99 103.783 1310.55 103.561C1310.12 103.326 1309.73 103.092 1309.39 102.857C1309.06 102.611 1308.82 102.418 1308.67 102.277L1308.43 102.014V111.559H1304.82V86.7207H1308.43V88.707C1308.59 88.543 1308.82 88.3262 1309.11 88.0566C1309.42 87.7871 1310.05 87.4355 1311.03 87.002C1312 86.5684 1312.99 86.3516 1314 86.3516C1316.28 86.3516 1318.26 87.2305 1319.94 88.9883C1321.63 90.7344 1322.47 92.8555 1322.47 95.3516C1322.47 97.8477 1321.63 99.9746 1319.94 101.732C1318.26 103.479 1316.28 104.352 1314 104.352ZM1317.29 91.291C1316.23 90.166 1315.02 89.6035 1313.65 89.6035C1312.28 89.6035 1311.06 90.166 1310.01 91.291C1308.95 92.416 1308.43 93.7754 1308.43 95.3691C1308.43 96.9512 1308.95 98.3047 1310.01 99.4297C1311.06 100.555 1312.28 101.117 1313.65 101.117C1315.02 101.117 1316.23 100.555 1317.29 99.4297C1318.34 98.3047 1318.87 96.9512 1318.87 95.3691C1318.87 93.7754 1318.34 92.416 1317.29 91.291ZM1335.58 94.2793L1341.89 86.7207H1344.78V104H1341.17V92.6621L1335.58 99.3242L1330.01 92.6621V104H1326.41V86.7207H1329.29L1335.58 94.2793ZM1362.43 86.7207H1365.66V104H1362.06V92.6621L1353.06 104H1349.82V86.7207H1353.43V98.0586L1362.43 86.7207ZM1374.31 96.793V104H1370.71V86.7207H1374.31V93.5586H1382.76V86.7207H1386.37V104H1382.76V96.793H1374.31ZM1403.47 86.7207V89.9551H1395.02V104H1391.41V86.7207H1403.47Z" fill="black"/>
<circle cx="1717" cy="91" r="68.2218" stroke="black" stroke-width="3.55644"/>
<path d="M1677 124.499L1716.33 58L1757.09 120.924" stroke="black" stroke-width="4.29029"/>
<path d="M1700.6 85.1719C1706.08 88.0321 1720.19 92.0363 1732.77 85.1719" stroke="black" stroke-width="4.29029"/>
<rect x="994" y="0.5" width="812.5" height="181" rx="90.5" stroke="black"/>
<path d="M1863.5 147.5L1920 91M1920 91L1863.5 34.5M1920 91L1807 91" stroke="black" stroke-width="2"/>
</svg>
