<svg width="1920" height="182" viewBox="0 0 1920 182" fill="none" xmlns="http://www.w3.org/2000/svg">
<circle r="89.5" transform="matrix(1 -8.74228e-08 -8.74228e-08 -1 90 91)" stroke="black"/>
<path d="M84.2426 36.2616L138.731 90.7505M138.731 90.7505L84.2426 145.239M138.731 90.7505L29.7537 90.7505" stroke="black" stroke-width="2"/>
<path d="M357.188 101.68C355.406 99.8867 354.516 97.7832 354.516 95.3691C354.516 92.9434 355.406 90.834 357.188 89.041C358.98 87.248 361.09 86.3516 363.516 86.3516C364.863 86.3516 366.117 86.6445 367.277 87.2305C368.438 87.8047 369.27 88.3789 369.773 88.9531L370.529 89.7793L368.191 92.1172C368.074 91.9297 367.893 91.7012 367.646 91.4316C367.412 91.1504 366.891 90.7754 366.082 90.3066C365.285 89.8379 364.43 89.6035 363.516 89.6035C362.051 89.6035 360.779 90.1602 359.701 91.2734C358.635 92.3867 358.102 93.752 358.102 95.3691C358.102 96.9746 358.635 98.334 359.701 99.4473C360.779 100.561 362.051 101.117 363.516 101.117C364.43 101.117 365.285 100.889 366.082 100.432C366.891 99.9746 367.471 99.5293 367.822 99.0957L368.367 98.4277L370.705 100.766C370.635 100.859 370.529 100.994 370.389 101.17C370.248 101.334 369.943 101.621 369.475 102.031C369.006 102.43 368.514 102.787 367.998 103.104C367.482 103.408 366.814 103.695 365.994 103.965C365.174 104.223 364.348 104.352 363.516 104.352C361.09 104.352 358.98 103.461 357.188 101.68ZM391.57 95.5449C391.57 97.9707 390.715 100.045 389.004 101.768C387.305 103.49 385.283 104.352 382.939 104.352C380.232 104.352 378.053 103.385 376.4 101.451C374.76 99.5059 373.939 96.6934 373.939 93.0137C373.939 88.8184 374.719 85.6719 376.277 83.5742C377.836 81.4766 380.057 80.1875 382.939 79.707C384.217 79.4961 385.359 79.2266 386.367 78.8984C387.387 78.5703 388.09 78.2949 388.477 78.0723L389.057 77.7207L390.674 80.4277C390.604 80.5215 390.457 80.6562 390.234 80.832C390.023 81.0078 389.291 81.3242 388.037 81.7812C386.795 82.2383 385.213 82.625 383.291 82.9414C381.639 83.2109 380.309 83.8965 379.301 84.998C378.293 86.0996 377.701 87.5762 377.525 89.4277C377.572 89.3574 377.654 89.2637 377.771 89.1465C377.9 89.0176 378.152 88.8008 378.527 88.4961C378.902 88.1797 379.295 87.9043 379.705 87.6699C380.127 87.4238 380.66 87.207 381.305 87.0195C381.961 86.8203 382.623 86.7207 383.291 86.7207C385.471 86.7207 387.393 87.5938 389.057 89.3398C390.732 91.0742 391.57 93.1426 391.57 95.5449ZM379.389 91.5723C378.393 92.6387 377.895 93.9629 377.895 95.5449C377.895 97.127 378.393 98.4512 379.389 99.5176C380.385 100.584 381.562 101.117 382.922 101.117C384.293 101.117 385.477 100.584 386.473 99.5176C387.469 98.4512 387.967 97.127 387.967 95.5449C387.967 93.9629 387.469 92.6387 386.473 91.5723C385.477 90.4941 384.293 89.9551 382.922 89.9551C381.562 89.9551 380.385 90.4941 379.389 91.5723ZM407.602 99.4473C408.668 98.334 409.201 96.9746 409.201 95.3691C409.201 93.752 408.668 92.3867 407.602 91.2734C406.535 90.1602 405.27 89.6035 403.805 89.6035C402.34 89.6035 401.068 90.1602 399.99 91.2734C398.924 92.3867 398.391 93.752 398.391 95.3691C398.391 96.9746 398.924 98.334 399.99 99.4473C401.068 100.561 402.34 101.117 403.805 101.117C405.27 101.117 406.535 100.561 407.602 99.4473ZM397.477 101.68C395.695 99.8867 394.805 97.7832 394.805 95.3691C394.805 92.9434 395.695 90.834 397.477 89.041C399.27 87.248 401.379 86.3516 403.805 86.3516C406.23 86.3516 408.334 87.248 410.115 89.041C411.908 90.834 412.805 92.9434 412.805 95.3691C412.805 97.7832 411.908 99.8867 410.115 101.68C408.334 103.461 406.23 104.352 403.805 104.352C401.379 104.352 399.27 103.461 397.477 101.68ZM425.936 104.352C425.291 104.352 424.664 104.275 424.055 104.123C423.445 103.971 422.924 103.783 422.49 103.561C422.057 103.326 421.67 103.092 421.33 102.857C421.002 102.611 420.762 102.418 420.609 102.277L420.363 102.014V111.559H416.76V86.7207H420.363V88.707C420.527 88.543 420.756 88.3262 421.049 88.0566C421.354 87.7871 421.992 87.4355 422.965 87.002C423.938 86.5684 424.928 86.3516 425.936 86.3516C428.221 86.3516 430.201 87.2305 431.877 88.9883C433.564 90.7344 434.408 92.8555 434.408 95.3516C434.408 97.8477 433.564 99.9746 431.877 101.732C430.201 103.479 428.221 104.352 425.936 104.352ZM429.223 91.291C428.168 90.166 426.955 89.6035 425.584 89.6035C424.213 89.6035 423 90.166 421.945 91.291C420.891 92.416 420.363 93.7754 420.363 95.3691C420.363 96.9512 420.891 98.3047 421.945 99.4297C423 100.555 424.213 101.117 425.584 101.117C426.955 101.117 428.168 100.555 429.223 99.4297C430.277 98.3047 430.805 96.9512 430.805 95.3691C430.805 93.7754 430.277 92.416 429.223 91.291ZM458.156 86.7207H461.391V104H457.787V92.6621L448.787 104H445.553V86.7207H449.156V98.0586L458.156 86.7207ZM470.039 96.793V104H466.436V86.7207H470.039V93.5586H478.494V86.7207H482.098V104H478.494V96.793H470.039ZM496.143 111.559V104.352C493.143 104.352 490.711 103.496 488.848 101.785C486.996 100.074 486.07 97.9355 486.07 95.3691C486.07 92.791 486.996 90.6465 488.848 88.9355C490.711 87.2129 493.143 86.3516 496.143 86.3516V78.793H499.746V86.3516C502.746 86.3516 505.172 87.2129 507.023 88.9355C508.887 90.6465 509.818 92.791 509.818 95.3691C509.818 97.9355 508.887 100.074 507.023 101.785C505.172 103.496 502.746 104.352 499.746 104.352V111.559H496.143ZM496.143 101.117V89.6035C494.104 89.6035 492.51 90.125 491.361 91.168C490.225 92.2109 489.656 93.6113 489.656 95.3691C489.656 97.1152 490.225 98.5098 491.361 99.5527C492.51 100.596 494.104 101.117 496.143 101.117ZM499.746 89.6035V101.117C501.785 101.117 503.373 100.596 504.51 99.5527C505.658 98.5098 506.232 97.1152 506.232 95.3691C506.232 93.6113 505.658 92.2109 504.51 91.168C503.373 90.125 501.785 89.6035 499.746 89.6035ZM525.516 99.4473C526.582 98.334 527.115 96.9746 527.115 95.3691C527.115 93.752 526.582 92.3867 525.516 91.2734C524.449 90.1602 523.184 89.6035 521.719 89.6035C520.254 89.6035 518.982 90.1602 517.904 91.2734C516.838 92.3867 516.305 93.752 516.305 95.3691C516.305 96.9746 516.838 98.334 517.904 99.4473C518.982 100.561 520.254 101.117 521.719 101.117C523.184 101.117 524.449 100.561 525.516 99.4473ZM515.391 101.68C513.609 99.8867 512.719 97.7832 512.719 95.3691C512.719 92.9434 513.609 90.834 515.391 89.041C517.184 87.248 519.293 86.3516 521.719 86.3516C524.145 86.3516 526.248 87.248 528.029 89.041C529.822 90.834 530.719 92.9434 530.719 95.3691C530.719 97.7832 529.822 99.8867 528.029 101.68C526.248 103.461 524.145 104.352 521.719 104.352C519.293 104.352 517.184 103.461 515.391 101.68ZM543.85 104.352C543.205 104.352 542.578 104.275 541.969 104.123C541.359 103.971 540.838 103.783 540.404 103.561C539.971 103.326 539.584 103.092 539.244 102.857C538.916 102.611 538.676 102.418 538.523 102.277L538.277 102.014V111.559H534.674V86.7207H538.277V88.707C538.441 88.543 538.67 88.3262 538.963 88.0566C539.268 87.7871 539.906 87.4355 540.879 87.002C541.852 86.5684 542.842 86.3516 543.85 86.3516C546.135 86.3516 548.115 87.2305 549.791 88.9883C551.479 90.7344 552.322 92.8555 552.322 95.3516C552.322 97.8477 551.479 99.9746 549.791 101.732C548.115 103.479 546.135 104.352 543.85 104.352ZM547.137 91.291C546.082 90.166 544.869 89.6035 543.498 89.6035C542.127 89.6035 540.914 90.166 539.859 91.291C538.805 92.416 538.277 93.7754 538.277 95.3691C538.277 96.9512 538.805 98.3047 539.859 99.4297C540.914 100.555 542.127 101.117 543.498 101.117C544.869 101.117 546.082 100.555 547.137 99.4297C548.191 98.3047 548.719 96.9512 548.719 95.3691C548.719 93.7754 548.191 92.416 547.137 91.291ZM565.436 94.2793L571.746 86.7207H574.629V104H571.025V92.6621L565.436 99.3242L559.863 92.6621V104H556.26V86.7207H559.143L565.436 94.2793ZM593.543 104H589.939V102.207C589.893 102.254 589.811 102.33 589.693 102.436C589.588 102.541 589.365 102.717 589.025 102.963C588.697 103.197 588.34 103.414 587.953 103.613C587.566 103.801 587.08 103.971 586.494 104.123C585.908 104.275 585.316 104.352 584.719 104.352C582.961 104.352 581.502 103.842 580.342 102.822C579.182 101.803 578.602 100.637 578.602 99.3242C578.602 97.9062 579.047 96.7168 579.938 95.7559C580.84 94.7949 582.07 94.1855 583.629 93.9277L589.939 92.8379C589.939 91.9238 589.6 91.1562 588.92 90.5352C588.252 89.9141 587.391 89.6035 586.336 89.6035C585.422 89.6035 584.59 89.7969 583.84 90.1836C583.102 90.5586 582.592 90.9395 582.311 91.3262L581.836 91.9414L579.498 89.6035C579.568 89.5098 579.662 89.3926 579.779 89.252C579.908 89.0996 580.184 88.8418 580.605 88.4785C581.039 88.1035 581.496 87.7695 581.977 87.4766C582.457 87.1836 583.09 86.9258 583.875 86.7031C584.672 86.4688 585.492 86.3516 586.336 86.3516C588.445 86.3516 590.174 86.9785 591.521 88.2324C592.869 89.4746 593.543 91.0098 593.543 92.8379V104ZM585.264 101.117C586.729 101.117 587.871 100.684 588.691 99.8164C589.523 98.9375 589.939 97.6895 589.939 96.0723V95.7207L584.35 96.6172C583.705 96.7344 583.184 96.998 582.785 97.4082C582.387 97.8184 582.188 98.334 582.188 98.9551C582.188 99.5293 582.463 100.033 583.014 100.467C583.576 100.9 584.326 101.117 585.264 101.117ZM598.588 104V86.7207H602.191V100.766H610.295V86.7207H613.898V100.766H616.412V108.324H612.809V104H598.588ZM632.602 86.7207H635.836V104H632.232V92.6621L623.232 104H619.998V86.7207H623.602V98.0586L632.602 86.7207ZM653.484 86.7207H656.719V104H653.115V92.6621L644.115 104H640.881V86.7207H644.484V98.0586L653.484 86.7207Z" fill="black"/>
<circle cx="903.5" cy="91" r="70" fill="#70A16D"/>
<rect x="875.5" y="71.9282" width="57" height="55" stroke="black" stroke-width="4"/>
<path fill-rule="evenodd" clip-rule="evenodd" d="M922.54 71.824C918.539 52.0176 890.249 52.106 886.464 71.8054L882.536 71.0507C887.176 46.9011 921.621 47.0714 926.461 71.0321L922.54 71.824Z" fill="black"/>
<rect x="180.5" y="0.5" width="812.5" height="181" rx="90.5" stroke="black"/>
<path d="M1278.46 104H1274.85V102.207C1274.81 102.254 1274.72 102.33 1274.61 102.436C1274.5 102.541 1274.28 102.717 1273.94 102.963C1273.61 103.197 1273.25 103.414 1272.87 103.613C1272.48 103.801 1271.99 103.971 1271.41 104.123C1270.82 104.275 1270.23 104.352 1269.63 104.352C1267.88 104.352 1266.42 103.842 1265.26 102.822C1264.1 101.803 1263.52 100.637 1263.52 99.3242C1263.52 97.9062 1263.96 96.7168 1264.85 95.7559C1265.75 94.7949 1266.98 94.1855 1268.54 93.9277L1274.85 92.8379C1274.85 91.9238 1274.51 91.1562 1273.83 90.5352C1273.17 89.9141 1272.3 89.6035 1271.25 89.6035C1270.34 89.6035 1269.5 89.7969 1268.75 90.1836C1268.02 90.5586 1267.51 90.9395 1267.22 91.3262L1266.75 91.9414L1264.41 89.6035C1264.48 89.5098 1264.58 89.3926 1264.69 89.252C1264.82 89.0996 1265.1 88.8418 1265.52 88.4785C1265.95 88.1035 1266.41 87.7695 1266.89 87.4766C1267.37 87.1836 1268 86.9258 1268.79 86.7031C1269.59 86.4688 1270.41 86.3516 1271.25 86.3516C1273.36 86.3516 1275.09 86.9785 1276.44 88.2324C1277.78 89.4746 1278.46 91.0098 1278.46 92.8379V104ZM1270.18 101.117C1271.64 101.117 1272.79 100.684 1273.61 99.8164C1274.44 98.9375 1274.85 97.6895 1274.85 96.0723V95.7207L1269.26 96.6172C1268.62 96.7344 1268.1 96.998 1267.7 97.4082C1267.3 97.8184 1267.1 98.334 1267.1 98.9551C1267.1 99.5293 1267.38 100.033 1267.93 100.467C1268.49 100.9 1269.24 101.117 1270.18 101.117ZM1287.11 96.793V104H1283.5V86.7207H1287.11V93.5586H1295.56V86.7207H1299.16V104H1295.56V96.793H1287.11ZM1318.08 104H1314.47V102.207C1314.43 102.254 1314.35 102.33 1314.23 102.436C1314.12 102.541 1313.9 102.717 1313.56 102.963C1313.23 103.197 1312.88 103.414 1312.49 103.613C1312.1 103.801 1311.62 103.971 1311.03 104.123C1310.44 104.275 1309.85 104.352 1309.25 104.352C1307.5 104.352 1306.04 103.842 1304.88 102.822C1303.72 101.803 1303.14 100.637 1303.14 99.3242C1303.14 97.9062 1303.58 96.7168 1304.47 95.7559C1305.38 94.7949 1306.61 94.1855 1308.16 93.9277L1314.47 92.8379C1314.47 91.9238 1314.13 91.1562 1313.46 90.5352C1312.79 89.9141 1311.93 89.6035 1310.87 89.6035C1309.96 89.6035 1309.12 89.7969 1308.38 90.1836C1307.64 90.5586 1307.13 90.9395 1306.85 91.3262L1306.37 91.9414L1304.03 89.6035C1304.1 89.5098 1304.2 89.3926 1304.31 89.252C1304.44 89.0996 1304.72 88.8418 1305.14 88.4785C1305.57 88.1035 1306.03 87.7695 1306.51 87.4766C1306.99 87.1836 1307.62 86.9258 1308.41 86.7031C1309.21 86.4688 1310.03 86.3516 1310.87 86.3516C1312.98 86.3516 1314.71 86.9785 1316.06 88.2324C1317.4 89.4746 1318.08 91.0098 1318.08 92.8379V104ZM1309.8 101.117C1311.26 101.117 1312.41 100.684 1313.23 99.8164C1314.06 98.9375 1314.47 97.6895 1314.47 96.0723V95.7207L1308.88 96.6172C1308.24 96.7344 1307.72 96.998 1307.32 97.4082C1306.92 97.8184 1306.72 98.334 1306.72 98.9551C1306.72 99.5293 1307 100.033 1307.55 100.467C1308.11 100.9 1308.86 101.117 1309.8 101.117ZM1325.11 86.7207H1338.43V104H1334.83V89.9551H1328.71V91.7656C1328.71 95.0586 1328.45 97.6602 1327.92 99.5703C1327.41 101.469 1326.74 102.74 1325.92 103.385C1325.11 104.029 1324.06 104.352 1322.77 104.352C1322.46 104.352 1322.12 104.322 1321.75 104.264C1321.4 104.205 1321.12 104.141 1320.93 104.07L1320.61 104V100.572C1321.09 100.689 1321.51 100.754 1321.86 100.766C1322.6 100.766 1323.18 100.566 1323.6 100.168C1324.03 99.7695 1324.39 98.8906 1324.67 97.5312C1324.96 96.1602 1325.11 94.2383 1325.11 91.7656V86.7207ZM1356.08 86.7207H1359.32V104H1355.71V92.6621L1346.71 104H1343.48V86.7207H1347.08V98.0586L1356.08 86.7207ZM1375.88 91.2207C1375.88 92.0176 1375.65 92.7148 1375.21 93.3125C1374.77 93.9102 1374.33 94.3027 1373.87 94.4902L1373.19 94.8242C1373.28 94.8477 1373.4 94.8887 1373.55 94.9473C1373.72 95.0059 1373.99 95.1465 1374.36 95.3691C1374.75 95.5801 1375.09 95.8379 1375.38 96.1426C1375.69 96.4355 1375.96 96.8457 1376.21 97.373C1376.47 97.9004 1376.6 98.4922 1376.6 99.1484C1376.6 100.59 1375.95 101.82 1374.66 102.84C1373.38 103.848 1371.63 104.352 1369.41 104.352C1368.56 104.352 1367.75 104.246 1366.96 104.035C1366.19 103.824 1365.54 103.572 1365.03 103.279C1364.51 102.986 1364.06 102.693 1363.68 102.4C1363.29 102.096 1363 101.838 1362.81 101.627L1362.57 101.293L1364.91 98.9551C1365.05 99.1191 1365.23 99.3242 1365.47 99.5703C1365.71 99.8164 1366.23 100.139 1367.02 100.537C1367.81 100.924 1368.61 101.117 1369.41 101.117C1370.6 101.117 1371.5 100.895 1372.1 100.449C1372.71 100.004 1373.01 99.4473 1373.01 98.7793C1373.01 98.1113 1372.71 97.5547 1372.1 97.1094C1371.5 96.6641 1370.6 96.4414 1369.41 96.4414H1367.42V93.5586H1369.41C1370.34 93.5586 1371.06 93.377 1371.55 93.0137C1372.04 92.6387 1372.29 92.1641 1372.29 91.5898C1372.29 91.0039 1372.04 90.5293 1371.55 90.166C1371.06 89.791 1370.34 89.6035 1369.41 89.6035C1368.71 89.6035 1368.04 89.7383 1367.37 90.0078C1366.71 90.2656 1366.22 90.5352 1365.91 90.8164L1365.45 91.2207L1363.1 88.8828C1363.26 88.6953 1363.5 88.4609 1363.82 88.1797C1364.13 87.8984 1364.84 87.5234 1365.93 87.0547C1367.02 86.5859 1368.18 86.3516 1369.41 86.3516C1371.4 86.3516 1372.97 86.832 1374.13 87.793C1375.29 88.7539 1375.88 89.8965 1375.88 91.2207Z" fill="black"/>
<circle cx="1717" cy="91" r="68.2218" stroke="black" stroke-width="3.55644"/>
<path d="M1677.66 93.6429C1676.71 92.5786 1675.95 91.6693 1675.39 90.9817C1675.95 90.294 1676.71 89.3847 1677.66 88.3205C1679.86 85.8422 1683.04 82.5402 1686.97 79.2438C1694.89 72.5929 1705.5 66.2455 1716.97 66.2455C1728.45 66.2455 1739.06 72.5929 1746.98 79.2438C1750.91 82.5402 1754.09 85.8422 1756.29 88.3205C1757.24 89.3847 1758 90.294 1758.56 90.9817C1758 91.6693 1757.24 92.5786 1756.29 93.6429C1754.09 96.1211 1750.91 99.4232 1746.98 102.72C1739.06 109.37 1728.45 115.718 1716.97 115.718C1705.5 115.718 1694.89 109.37 1686.97 102.72C1683.04 99.4232 1679.86 96.1211 1677.66 93.6429Z" stroke="black" stroke-width="4.74193"/>
<circle cx="1716.1" cy="90.1037" r="17.4885" fill="black"/>
<rect x="994" y="0.5" width="812.5" height="181" rx="90.5" stroke="black"/>
<path d="M1863.5 147.5L1920 91M1920 91L1863.5 34.5M1920 91L1807 91" stroke="black" stroke-width="2"/>
</svg>
