<svg width="1917" height="180" viewBox="0 0 1917 180" fill="none" xmlns="http://www.w3.org/2000/svg">
<path d="M152.617 94.5449C152.617 96.9707 151.762 99.0449 150.051 100.768C148.352 102.49 146.33 103.352 143.986 103.352C141.279 103.352 139.1 102.385 137.447 100.451C135.807 98.5059 134.986 95.6934 134.986 92.0137C134.986 87.8184 135.766 84.6719 137.324 82.5742C138.883 80.4766 141.104 79.1875 143.986 78.707C145.264 78.4961 146.406 78.2266 147.414 77.8984C148.434 77.5703 149.137 77.2949 149.523 77.0723L150.104 76.7207L151.721 79.4277C151.65 79.5215 151.504 79.6562 151.281 79.832C151.07 80.0078 150.338 80.3242 149.084 80.7812C147.842 81.2383 146.26 81.625 144.338 81.9414C142.686 82.2109 141.355 82.8965 140.348 83.998C139.34 85.0996 138.748 86.5762 138.572 88.4277C138.619 88.3574 138.701 88.2637 138.818 88.1465C138.947 88.0176 139.199 87.8008 139.574 87.4961C139.949 87.1797 140.342 86.9043 140.752 86.6699C141.174 86.4238 141.707 86.207 142.352 86.0195C143.008 85.8203 143.67 85.7207 144.338 85.7207C146.518 85.7207 148.439 86.5938 150.104 88.3398C151.779 90.0742 152.617 92.1426 152.617 94.5449ZM140.436 90.5723C139.439 91.6387 138.941 92.9629 138.941 94.5449C138.941 96.127 139.439 97.4512 140.436 98.5176C141.432 99.584 142.609 100.117 143.969 100.117C145.34 100.117 146.523 99.584 147.52 98.5176C148.516 97.4512 149.014 96.127 149.014 94.5449C149.014 92.9629 148.516 91.6387 147.52 90.5723C146.523 89.4941 145.34 88.9551 143.969 88.9551C142.609 88.9551 141.432 89.4941 140.436 90.5723ZM166.1 103.352C165.455 103.352 164.828 103.275 164.219 103.123C163.609 102.971 163.088 102.783 162.654 102.561C162.221 102.326 161.834 102.092 161.494 101.857C161.166 101.611 160.926 101.418 160.773 101.277L160.527 101.014V110.559H156.924V85.7207H160.527V87.707C160.691 87.543 160.92 87.3262 161.213 87.0566C161.518 86.7871 162.156 86.4355 163.129 86.002C164.102 85.5684 165.092 85.3516 166.1 85.3516C168.385 85.3516 170.365 86.2305 172.041 87.9883C173.729 89.7344 174.572 91.8555 174.572 94.3516C174.572 96.8477 173.729 98.9746 172.041 100.732C170.365 102.479 168.385 103.352 166.1 103.352ZM169.387 90.291C168.332 89.166 167.119 88.6035 165.748 88.6035C164.377 88.6035 163.164 89.166 162.109 90.291C161.055 91.416 160.527 92.7754 160.527 94.3691C160.527 95.9512 161.055 97.3047 162.109 98.4297C163.164 99.5547 164.377 100.117 165.748 100.117C167.119 100.117 168.332 99.5547 169.387 98.4297C170.441 97.3047 170.969 95.9512 170.969 94.3691C170.969 92.7754 170.441 91.416 169.387 90.291ZM191.113 85.7207H194.348V103H190.744V91.6621L181.744 103H178.51V85.7207H182.113V97.0586L191.113 85.7207ZM208.393 110.559V103.352C205.393 103.352 202.961 102.496 201.098 100.785C199.246 99.0742 198.32 96.9355 198.32 94.3691C198.32 91.791 199.246 89.6465 201.098 87.9355C202.961 86.2129 205.393 85.3516 208.393 85.3516V77.793H211.996V85.3516C214.996 85.3516 217.422 86.2129 219.273 87.9355C221.137 89.6465 222.068 91.791 222.068 94.3691C222.068 96.9355 221.137 99.0742 219.273 100.785C217.422 102.496 214.996 103.352 211.996 103.352V110.559H208.393ZM208.393 100.117V88.6035C206.354 88.6035 204.76 89.125 203.611 90.168C202.475 91.2109 201.906 92.6113 201.906 94.3691C201.906 96.1152 202.475 97.5098 203.611 98.5527C204.76 99.5957 206.354 100.117 208.393 100.117ZM211.996 88.6035V100.117C214.035 100.117 215.623 99.5957 216.76 98.5527C217.908 97.5098 218.482 96.1152 218.482 94.3691C218.482 92.6113 217.908 91.2109 216.76 90.168C215.623 89.125 214.035 88.6035 211.996 88.6035ZM238.645 85.7207H241.879V103H238.275V91.6621L229.275 103H226.041V85.7207H229.645V97.0586L238.645 85.7207ZM250.527 95.793V103H246.924V85.7207H250.527V92.5586H258.982V85.7207H262.586V103H258.982V95.793H250.527ZM279.689 85.7207V88.9551H271.234V103H267.631V85.7207H279.689Z" fill="black"/>
<circle cx="487" cy="90" r="70" fill="#F1C376"/>
<path d="M535.223 103C535.223 97.9065 531.093 93.7774 526 93.7774H471C465.907 93.7774 461.777 97.9065 461.777 103V108.054C461.777 113.147 465.907 117.276 471 117.276H520.001C521.912 117.276 523.798 117.705 525.521 118.53L535.223 123.178V119.054V103Z" stroke="black" stroke-width="3.55484"/>
<path d="M438.777 65C438.777 59.9065 442.907 55.7774 448 55.7774H503C508.093 55.7774 512.223 59.9065 512.223 65V70.0538C512.223 75.1473 508.093 79.2763 503 79.2763H453.999C452.088 79.2763 450.202 79.7049 448.479 80.5304L438.777 85.1777V81.0538V65Z" stroke="black" stroke-width="3.55484"/>
<rect x="-2.5" y="0.5" width="579" height="179" rx="89.5" stroke="black"/>
<circle cx="667" cy="90" r="89.5" stroke="black"/>
<path d="M661.243 144.738L715.731 90.2495M715.731 90.2495L661.243 35.7606M715.731 90.2495H606.754" stroke="black" stroke-width="2"/>
<circle cx="847" cy="90" r="68.2218" stroke="black" stroke-width="3.55644"/>
<path d="M807.656 92.6429C806.711 91.5786 805.95 90.6693 805.392 89.9817C805.95 89.294 806.711 88.3847 807.656 87.3205C809.857 84.8422 813.04 81.5402 816.965 78.2438C824.886 71.5929 835.496 65.2455 846.975 65.2455C858.453 65.2455 869.063 71.5929 876.984 78.2438C880.909 81.5402 884.092 84.8422 886.293 87.3205C887.238 88.3847 887.999 89.294 888.558 89.9817C887.999 90.6693 887.238 91.5786 886.293 92.6429C884.092 95.1211 880.909 98.4232 876.984 101.72C869.063 108.37 858.453 114.718 846.975 114.718C835.496 114.718 824.886 108.37 816.965 101.72C813.04 98.4232 809.857 95.1211 807.656 92.6429Z" stroke="black" stroke-width="4.74193"/>
<circle cx="846.103" cy="89.1037" r="17.4885" fill="black"/>
<path d="M1022.44 85.7207H1025.68V103H1022.07V91.6621L1013.07 103H1009.84V85.7207H1013.44V97.0586L1022.44 85.7207ZM1032.32 100.68C1030.54 98.8867 1029.65 96.7832 1029.65 94.3691C1029.65 91.9434 1030.54 89.834 1032.32 88.041C1034.11 86.248 1036.22 85.3516 1038.65 85.3516C1040 85.3516 1041.25 85.6445 1042.41 86.2305C1043.57 86.8047 1044.4 87.3789 1044.91 87.9531L1045.66 88.7793L1043.32 91.1172C1043.21 90.9297 1043.03 90.7012 1042.78 90.4316C1042.54 90.1504 1042.02 89.7754 1041.21 89.3066C1040.42 88.8379 1039.56 88.6035 1038.65 88.6035C1037.18 88.6035 1035.91 89.1602 1034.83 90.2734C1033.77 91.3867 1033.23 92.752 1033.23 94.3691C1033.23 95.9746 1033.77 97.334 1034.83 98.4473C1035.91 99.5605 1037.18 100.117 1038.65 100.117C1039.56 100.117 1040.42 99.8887 1041.21 99.4316C1042.02 98.9746 1042.6 98.5293 1042.96 98.0957L1043.5 97.4277L1045.84 99.7656C1045.77 99.8594 1045.66 99.9941 1045.52 100.17C1045.38 100.334 1045.08 100.621 1044.61 101.031C1044.14 101.43 1043.65 101.787 1043.13 102.104C1042.62 102.408 1041.95 102.695 1041.13 102.965C1040.31 103.223 1039.48 103.352 1038.65 103.352C1036.22 103.352 1034.11 102.461 1032.32 100.68ZM1050.29 100.68C1048.5 98.8867 1047.61 96.7832 1047.61 94.3691C1047.61 91.9434 1048.5 89.834 1050.29 88.041C1052.08 86.248 1054.19 85.3516 1056.61 85.3516C1057.96 85.3516 1059.21 85.6445 1060.38 86.2305C1061.54 86.8047 1062.37 87.3789 1062.87 87.9531L1063.63 88.7793L1061.29 91.1172C1061.17 90.9297 1060.99 90.7012 1060.74 90.4316C1060.51 90.1504 1059.99 89.7754 1059.18 89.3066C1058.38 88.8379 1057.53 88.6035 1056.61 88.6035C1055.15 88.6035 1053.88 89.1602 1052.8 90.2734C1051.73 91.3867 1051.2 92.752 1051.2 94.3691C1051.2 95.9746 1051.73 97.334 1052.8 98.4473C1053.88 99.5605 1055.15 100.117 1056.61 100.117C1057.53 100.117 1058.38 99.8887 1059.18 99.4316C1059.99 98.9746 1060.57 98.5293 1060.92 98.0957L1061.46 97.4277L1063.8 99.7656C1063.73 99.8594 1063.63 99.9941 1063.49 100.17C1063.35 100.334 1063.04 100.621 1062.57 101.031C1062.1 101.43 1061.61 101.787 1061.1 102.104C1060.58 102.408 1059.91 102.695 1059.09 102.965C1058.27 103.223 1057.45 103.352 1056.61 103.352C1054.19 103.352 1052.08 102.461 1050.29 100.68ZM1069.38 85.7207H1082.7V103H1079.1V88.9551H1072.98V90.7656C1072.98 94.0586 1072.71 96.6602 1072.19 98.5703C1071.67 100.469 1071 101.74 1070.18 102.385C1069.38 103.029 1068.33 103.352 1067.04 103.352C1066.72 103.352 1066.38 103.322 1066.02 103.264C1065.67 103.205 1065.39 103.141 1065.19 103.07L1064.88 103V99.5723C1065.36 99.6895 1065.77 99.7539 1066.12 99.7656C1066.86 99.7656 1067.44 99.5664 1067.86 99.168C1068.3 98.7695 1068.65 97.8906 1068.94 96.5312C1069.23 95.1602 1069.38 93.2383 1069.38 90.7656V85.7207ZM1103.76 95.6172H1090.26C1090.45 96.8359 1091.04 97.8906 1092.05 98.7812C1093.07 99.6719 1094.28 100.117 1095.67 100.117C1096.68 100.117 1097.62 99.8887 1098.48 99.4316C1099.36 98.9746 1099.98 98.5293 1100.35 98.0957L1100.89 97.4277L1103.23 99.7656C1103.16 99.8594 1103.05 99.9941 1102.9 100.17C1102.76 100.334 1102.45 100.621 1101.96 101.031C1101.48 101.43 1100.97 101.787 1100.44 102.104C1099.9 102.408 1099.19 102.695 1098.33 102.965C1097.47 103.223 1096.59 103.352 1095.67 103.352C1093.22 103.352 1091.11 102.455 1089.33 100.662C1087.56 98.8574 1086.67 96.6953 1086.67 94.1758C1086.67 91.75 1087.53 89.6758 1089.26 87.9531C1090.99 86.2188 1093.06 85.3516 1095.48 85.3516C1097.9 85.3516 1099.92 86.1602 1101.53 87.7773C1103.14 89.3828 1103.95 91.3984 1103.95 93.8242L1103.76 95.6172ZM1095.48 88.4277C1094.18 88.4277 1093.08 88.8145 1092.19 89.5879C1091.31 90.3496 1090.72 91.3398 1090.42 92.5586H1100.42C1100.21 91.3398 1099.66 90.3496 1098.78 89.5879C1097.9 88.8145 1096.8 88.4277 1095.48 88.4277ZM1105.38 99.7656H1106.62C1106.69 99.6953 1106.79 99.584 1106.92 99.4316C1107.06 99.2676 1107.3 98.9102 1107.62 98.3594C1107.96 97.8086 1108.26 97.2168 1108.5 96.584C1108.76 95.9395 1108.99 95.0957 1109.19 94.0527C1109.4 93.0098 1109.51 91.9141 1109.51 90.7656V85.7207H1122.11V99.7656H1124.62V107.324H1121.04V103H1108.98V107.324H1105.38V99.7656ZM1113.11 88.9551V90.7656C1113.11 91.9141 1113.01 93.0039 1112.81 94.0352C1112.62 95.0664 1112.38 95.9219 1112.09 96.6016C1111.81 97.2695 1111.52 97.8496 1111.23 98.3418C1110.95 98.834 1110.71 99.1855 1110.53 99.3965L1110.23 99.7656H1118.51V88.9551H1113.11ZM1139.97 98.4473C1141.04 97.334 1141.57 95.9746 1141.57 94.3691C1141.57 92.752 1141.04 91.3867 1139.97 90.2734C1138.9 89.1602 1137.64 88.6035 1136.17 88.6035C1134.71 88.6035 1133.44 89.1602 1132.36 90.2734C1131.29 91.3867 1130.76 92.752 1130.76 94.3691C1130.76 95.9746 1131.29 97.334 1132.36 98.4473C1133.44 99.5605 1134.71 100.117 1136.17 100.117C1137.64 100.117 1138.9 99.5605 1139.97 98.4473ZM1129.84 100.68C1128.06 98.8867 1127.17 96.7832 1127.17 94.3691C1127.17 91.9434 1128.06 89.834 1129.84 88.041C1131.64 86.248 1133.75 85.3516 1136.17 85.3516C1138.6 85.3516 1140.7 86.248 1142.48 88.041C1144.28 89.834 1145.17 91.9434 1145.17 94.3691C1145.17 96.7832 1144.28 98.8867 1142.48 100.68C1140.7 102.461 1138.6 103.352 1136.17 103.352C1133.75 103.352 1131.64 102.461 1129.84 100.68ZM1149.13 85.7207H1157.41C1159.06 85.7207 1160.37 86.1484 1161.34 87.0039C1162.32 87.8477 1162.8 88.9199 1162.8 90.2207C1162.8 90.959 1162.64 91.6328 1162.31 92.2422C1161.99 92.8398 1161.67 93.2559 1161.33 93.4902L1160.83 93.8242C1160.9 93.8477 1161 93.8887 1161.13 93.9473C1161.26 94.0059 1161.5 94.1582 1161.84 94.4043C1162.18 94.6387 1162.47 94.9023 1162.71 95.1953C1162.97 95.4766 1163.2 95.8633 1163.4 96.3555C1163.61 96.8477 1163.72 97.3809 1163.72 97.9551C1163.72 99.4434 1163.18 100.656 1162.12 101.594C1161.06 102.531 1159.62 103 1157.78 103H1149.13V85.7207ZM1157.78 95.2656H1152.73V99.9414H1157.78C1158.49 99.9414 1159.06 99.7305 1159.48 99.3086C1159.9 98.8867 1160.11 98.3184 1160.11 97.6035C1160.11 96.959 1159.9 96.4082 1159.46 95.9512C1159.03 95.4941 1158.47 95.2656 1157.78 95.2656ZM1158.72 91.9082C1159.05 91.5801 1159.22 91.1406 1159.22 90.5898C1159.22 90.0273 1159.05 89.5879 1158.72 89.2715C1158.4 88.9434 1157.96 88.7793 1157.41 88.7793H1152.73V92.3828H1157.41C1157.96 92.3828 1158.4 92.2246 1158.72 91.9082ZM1181.52 103H1177.92V101.207C1177.87 101.254 1177.79 101.33 1177.67 101.436C1177.57 101.541 1177.35 101.717 1177.01 101.963C1176.68 102.197 1176.32 102.414 1175.93 102.613C1175.55 102.801 1175.06 102.971 1174.47 103.123C1173.89 103.275 1173.3 103.352 1172.7 103.352C1170.94 103.352 1169.48 102.842 1168.32 101.822C1167.16 100.803 1166.58 99.6367 1166.58 98.3242C1166.58 96.9062 1167.03 95.7168 1167.92 94.7559C1168.82 93.7949 1170.05 93.1855 1171.61 92.9277L1177.92 91.8379C1177.92 90.9238 1177.58 90.1562 1176.9 89.5352C1176.23 88.9141 1175.37 88.6035 1174.32 88.6035C1173.4 88.6035 1172.57 88.7969 1171.82 89.1836C1171.08 89.5586 1170.57 89.9395 1170.29 90.3262L1169.82 90.9414L1167.48 88.6035C1167.55 88.5098 1167.64 88.3926 1167.76 88.252C1167.89 88.0996 1168.16 87.8418 1168.59 87.4785C1169.02 87.1035 1169.48 86.7695 1169.96 86.4766C1170.44 86.1836 1171.07 85.9258 1171.86 85.7031C1172.65 85.4688 1173.47 85.3516 1174.32 85.3516C1176.43 85.3516 1178.15 85.9785 1179.5 87.2324C1180.85 88.4746 1181.52 90.0098 1181.52 91.8379V103ZM1173.24 100.117C1174.71 100.117 1175.85 99.6836 1176.67 98.8164C1177.5 97.9375 1177.92 96.6895 1177.92 95.0723V94.7207L1172.33 95.6172C1171.69 95.7344 1171.16 95.998 1170.77 96.4082C1170.37 96.8184 1170.17 97.334 1170.17 97.9551C1170.17 98.5293 1170.44 99.0332 1170.99 99.4668C1171.56 99.9004 1172.31 100.117 1173.24 100.117ZM1190.17 95.793V103H1186.57V85.7207H1190.17V92.5586H1198.63V85.7207H1202.23V103H1198.63V95.793H1190.17ZM1219.88 85.7207H1223.11V103H1219.51V91.6621L1210.51 103H1207.28V85.7207H1210.88V97.0586L1219.88 85.7207ZM1244.17 95.6172H1230.67C1230.86 96.8359 1231.46 97.8906 1232.46 98.7812C1233.48 99.6719 1234.69 100.117 1236.09 100.117C1237.09 100.117 1238.03 99.8887 1238.9 99.4316C1239.78 98.9746 1240.4 98.5293 1240.76 98.0957L1241.31 97.4277L1243.64 99.7656C1243.57 99.8594 1243.46 99.9941 1243.31 100.17C1243.17 100.334 1242.86 100.621 1242.38 101.031C1241.9 101.43 1241.39 101.787 1240.85 102.104C1240.31 102.408 1239.61 102.695 1238.74 102.965C1237.88 103.223 1237 103.352 1236.09 103.352C1233.64 103.352 1231.52 102.455 1229.74 100.662C1227.97 98.8574 1227.09 96.6953 1227.09 94.1758C1227.09 91.75 1227.95 89.6758 1229.67 87.9531C1231.4 86.2188 1233.48 85.3516 1235.89 85.3516C1238.32 85.3516 1240.33 86.1602 1241.94 87.7773C1243.56 89.3828 1244.37 91.3984 1244.37 93.8242L1244.17 95.6172ZM1235.89 88.4277C1234.59 88.4277 1233.5 88.8145 1232.61 89.5879C1231.73 90.3496 1231.13 91.3398 1230.83 92.5586H1240.83C1240.62 91.3398 1240.08 90.3496 1239.2 89.5879C1238.32 88.8145 1237.22 88.4277 1235.89 88.4277Z" fill="black"/>
<rect x="757.5" y="0.5" width="579" height="179" rx="89.5" stroke="black"/>
<circle cx="1427" cy="90" r="70" fill="#CD93AF"/>
<path d="M1377.23 79.1911C1376.99 78.919 1376.77 78.6663 1376.57 78.4369C1376.77 78.2076 1376.99 77.9549 1377.23 77.6828C1378.4 76.3682 1380.08 74.6175 1382.16 72.8725C1386.39 69.3255 1391.9 66.0752 1397.75 66.0752C1403.6 66.0752 1409.11 69.3255 1413.33 72.8725C1415.41 74.6175 1417.1 76.3682 1418.27 77.6828C1418.51 77.9549 1418.73 78.2076 1418.92 78.4369C1418.73 78.6663 1418.51 78.919 1418.27 79.1911C1417.1 80.5057 1415.41 82.2563 1413.33 84.0014C1409.11 87.5484 1403.6 90.7986 1397.75 90.7986C1391.9 90.7986 1386.39 87.5484 1382.16 84.0014C1380.08 82.2563 1378.4 80.5057 1377.23 79.1911Z" stroke="black" stroke-width="4.63777"/>
<path d="M1436.1 79.1911C1435.86 78.919 1435.64 78.6663 1435.45 78.4369C1435.64 78.2076 1435.86 77.9549 1436.1 77.6828C1437.27 76.3682 1438.96 74.6175 1441.04 72.8725C1445.26 69.3255 1450.77 66.0752 1456.62 66.0752C1462.47 66.0752 1467.99 69.3255 1472.21 72.8725C1474.29 74.6175 1475.98 76.3682 1477.14 77.6828C1477.38 77.9549 1477.6 78.2076 1477.8 78.4369C1477.6 78.6663 1477.38 78.919 1477.14 79.1911C1475.98 80.5057 1474.29 82.2563 1472.21 84.0014C1467.99 87.5484 1462.47 90.7986 1456.62 90.7986C1450.77 90.7986 1445.26 87.5484 1441.04 84.0014C1438.96 82.2563 1437.27 80.5057 1436.1 79.1911Z" stroke="black" stroke-width="4.63777"/>
<path d="M1417.75 77.9092H1436.43" stroke="black" stroke-width="4.63777"/>
<path d="M1594.15 64.7207L1587.49 71.9277L1594.68 82H1590.72L1585.15 74.2656L1582.44 77.1484V82H1578.84V64.7207H1582.44V72.4551L1589.82 64.7207H1594.15ZM1608.53 77.4473C1609.59 76.334 1610.13 74.9746 1610.13 73.3691C1610.13 71.752 1609.59 70.3867 1608.53 69.2734C1607.46 68.1602 1606.2 67.6035 1604.73 67.6035C1603.27 67.6035 1601.99 68.1602 1600.92 69.2734C1599.85 70.3867 1599.32 71.752 1599.32 73.3691C1599.32 74.9746 1599.85 76.334 1600.92 77.4473C1601.99 78.5605 1603.27 79.1172 1604.73 79.1172C1606.2 79.1172 1607.46 78.5605 1608.53 77.4473ZM1598.4 79.6797C1596.62 77.8867 1595.73 75.7832 1595.73 73.3691C1595.73 70.9434 1596.62 68.834 1598.4 67.041C1600.2 65.248 1602.3 64.3516 1604.73 64.3516C1607.16 64.3516 1609.26 65.248 1611.04 67.041C1612.83 68.834 1613.73 70.9434 1613.73 73.3691C1613.73 75.7832 1612.83 77.8867 1611.04 79.6797C1609.26 81.4609 1607.16 82.3516 1604.73 82.3516C1602.3 82.3516 1600.2 81.4609 1598.4 79.6797ZM1626.86 82.3516C1626.22 82.3516 1625.59 82.2754 1624.98 82.123C1624.37 81.9707 1623.85 81.7832 1623.42 81.5605C1622.98 81.3262 1622.6 81.0918 1622.26 80.8574C1621.93 80.6113 1621.69 80.418 1621.54 80.2773L1621.29 80.0137V89.5586H1617.69V64.7207H1621.29V66.707C1621.45 66.543 1621.68 66.3262 1621.97 66.0566C1622.28 65.7871 1622.92 65.4355 1623.89 65.002C1624.86 64.5684 1625.85 64.3516 1626.86 64.3516C1629.15 64.3516 1631.13 65.2305 1632.8 66.9883C1634.49 68.7344 1635.33 70.8555 1635.33 73.3516C1635.33 75.8477 1634.49 77.9746 1632.8 79.7324C1631.13 81.4785 1629.15 82.3516 1626.86 82.3516ZM1630.15 69.291C1629.09 68.166 1627.88 67.6035 1626.51 67.6035C1625.14 67.6035 1623.93 68.166 1622.87 69.291C1621.82 70.416 1621.29 71.7754 1621.29 73.3691C1621.29 74.9512 1621.82 76.3047 1622.87 77.4297C1623.93 78.5547 1625.14 79.1172 1626.51 79.1172C1627.88 79.1172 1629.09 78.5547 1630.15 77.4297C1631.2 76.3047 1631.73 74.9512 1631.73 73.3691C1631.73 71.7754 1631.2 70.416 1630.15 69.291ZM1642.88 67.9551V82H1639.27V64.7207H1654.93V82H1651.33V67.9551H1642.88ZM1671.7 77.4473C1672.77 76.334 1673.3 74.9746 1673.3 73.3691C1673.3 71.752 1672.77 70.3867 1671.7 69.2734C1670.64 68.1602 1669.37 67.6035 1667.91 67.6035C1666.44 67.6035 1665.17 68.1602 1664.09 69.2734C1663.03 70.3867 1662.49 71.752 1662.49 73.3691C1662.49 74.9746 1663.03 76.334 1664.09 77.4473C1665.17 78.5605 1666.44 79.1172 1667.91 79.1172C1669.37 79.1172 1670.64 78.5605 1671.7 77.4473ZM1661.58 79.6797C1659.8 77.8867 1658.91 75.7832 1658.91 73.3691C1658.91 70.9434 1659.8 68.834 1661.58 67.041C1663.37 65.248 1665.48 64.3516 1667.91 64.3516C1670.33 64.3516 1672.44 65.248 1674.22 67.041C1676.01 68.834 1676.91 70.9434 1676.91 73.3691C1676.91 75.7832 1676.01 77.8867 1674.22 79.6797C1672.44 81.4609 1670.33 82.3516 1667.91 82.3516C1665.48 82.3516 1663.37 81.4609 1661.58 79.6797ZM1690.04 82.3516C1689.39 82.3516 1688.77 82.2754 1688.16 82.123C1687.55 81.9707 1687.03 81.7832 1686.59 81.5605C1686.16 81.3262 1685.77 81.0918 1685.43 80.8574C1685.1 80.6113 1684.86 80.418 1684.71 80.2773L1684.46 80.0137V89.5586H1680.86V64.7207H1684.46V66.707C1684.63 66.543 1684.86 66.3262 1685.15 66.0566C1685.46 65.7871 1686.09 65.4355 1687.07 65.002C1688.04 64.5684 1689.03 64.3516 1690.04 64.3516C1692.32 64.3516 1694.3 65.2305 1695.98 66.9883C1697.67 68.7344 1698.51 70.8555 1698.51 73.3516C1698.51 75.8477 1697.67 77.9746 1695.98 79.7324C1694.3 81.4785 1692.32 82.3516 1690.04 82.3516ZM1693.32 69.291C1692.27 68.166 1691.06 67.6035 1689.69 67.6035C1688.31 67.6035 1687.1 68.166 1686.05 69.291C1684.99 70.416 1684.46 71.7754 1684.46 73.3691C1684.46 74.9512 1684.99 76.3047 1686.05 77.4297C1687.1 78.5547 1688.31 79.1172 1689.69 79.1172C1691.06 79.1172 1692.27 78.5547 1693.32 77.4297C1694.38 76.3047 1694.91 74.9512 1694.91 73.3691C1694.91 71.7754 1694.38 70.416 1693.32 69.291ZM1716.32 82H1712.71V80.207C1712.67 80.2539 1712.58 80.3301 1712.47 80.4355C1712.36 80.541 1712.14 80.7168 1711.8 80.9629C1711.47 81.1973 1711.11 81.4141 1710.73 81.6133C1710.34 81.8008 1709.85 81.9707 1709.27 82.123C1708.68 82.2754 1708.09 82.3516 1707.49 82.3516C1705.73 82.3516 1704.28 81.8418 1703.12 80.8223C1701.96 79.8027 1701.38 78.6367 1701.38 77.3242C1701.38 75.9062 1701.82 74.7168 1702.71 73.7559C1703.61 72.7949 1704.84 72.1855 1706.4 71.9277L1712.71 70.8379C1712.71 69.9238 1712.37 69.1562 1711.69 68.5352C1711.03 67.9141 1710.16 67.6035 1709.11 67.6035C1708.2 67.6035 1707.36 67.7969 1706.61 68.1836C1705.88 68.5586 1705.37 68.9395 1705.08 69.3262L1704.61 69.9414L1702.27 67.6035C1702.34 67.5098 1702.44 67.3926 1702.55 67.252C1702.68 67.0996 1702.96 66.8418 1703.38 66.4785C1703.81 66.1035 1704.27 65.7695 1704.75 65.4766C1705.23 65.1836 1705.86 64.9258 1706.65 64.7031C1707.45 64.4688 1708.27 64.3516 1709.11 64.3516C1711.22 64.3516 1712.95 64.9785 1714.29 66.2324C1715.64 67.4746 1716.32 69.0098 1716.32 70.8379V82ZM1708.04 79.1172C1709.5 79.1172 1710.64 78.6836 1711.46 77.8164C1712.3 76.9375 1712.71 75.6895 1712.71 74.0723V73.7207L1707.12 74.6172C1706.48 74.7344 1705.96 74.998 1705.56 75.4082C1705.16 75.8184 1704.96 76.334 1704.96 76.9551C1704.96 77.5293 1705.24 78.0332 1705.79 78.4668C1706.35 78.9004 1707.1 79.1172 1708.04 79.1172ZM1719.57 67.9551V64.7207H1735.04V67.9551H1729.1V82H1725.51V67.9551H1719.57ZM1750.88 64.7207H1754.11V82H1750.51V70.6621L1741.51 82H1738.27V64.7207H1741.88V76.0586L1750.88 64.7207ZM1759.15 64.7207H1767.43C1769.09 64.7207 1770.4 65.1484 1771.37 66.0039C1772.34 66.8477 1772.83 67.9199 1772.83 69.2207C1772.83 69.959 1772.67 70.6328 1772.34 71.2422C1772.02 71.8398 1771.69 72.2559 1771.35 72.4902L1770.86 72.8242C1770.93 72.8477 1771.03 72.8887 1771.16 72.9473C1771.29 73.0059 1771.52 73.1582 1771.86 73.4043C1772.2 73.6387 1772.5 73.9023 1772.74 74.1953C1773 74.4766 1773.23 74.8633 1773.43 75.3555C1773.64 75.8477 1773.74 76.3809 1773.74 76.9551C1773.74 78.4434 1773.21 79.6562 1772.14 80.5938C1771.09 81.5312 1769.64 82 1767.8 82H1759.15V64.7207ZM1767.8 74.2656H1762.76V78.9414H1767.8C1768.52 78.9414 1769.09 78.7305 1769.51 78.3086C1769.93 77.8867 1770.14 77.3184 1770.14 76.6035C1770.14 75.959 1769.92 75.4082 1769.49 74.9512C1769.06 74.4941 1768.49 74.2656 1767.8 74.2656ZM1768.75 70.9082C1769.08 70.5801 1769.24 70.1406 1769.24 69.5898C1769.24 69.0273 1769.08 68.5879 1768.75 68.2715C1768.42 67.9434 1767.98 67.7793 1767.43 67.7793H1762.76V71.3828H1767.43C1767.98 71.3828 1768.42 71.2246 1768.75 70.9082ZM1781.29 74.793V82H1777.68V64.7207H1781.29V71.5586H1789.74V64.7207H1793.34V82H1789.74V74.793H1781.29ZM1810.11 77.4473C1811.18 76.334 1811.71 74.9746 1811.71 73.3691C1811.71 71.752 1811.18 70.3867 1810.11 69.2734C1809.05 68.1602 1807.78 67.6035 1806.32 67.6035C1804.85 67.6035 1803.58 68.1602 1802.5 69.2734C1801.44 70.3867 1800.9 71.752 1800.9 73.3691C1800.9 74.9746 1801.44 76.334 1802.5 77.4473C1803.58 78.5605 1804.85 79.1172 1806.32 79.1172C1807.78 79.1172 1809.05 78.5605 1810.11 77.4473ZM1799.99 79.6797C1798.21 77.8867 1797.32 75.7832 1797.32 73.3691C1797.32 70.9434 1798.21 68.834 1799.99 67.041C1801.78 65.248 1803.89 64.3516 1806.32 64.3516C1808.74 64.3516 1810.85 65.248 1812.63 67.041C1814.42 68.834 1815.32 70.9434 1815.32 73.3691C1815.32 75.7832 1814.42 77.8867 1812.63 79.6797C1810.85 81.4609 1808.74 82.3516 1806.32 82.3516C1803.89 82.3516 1801.78 81.4609 1799.99 79.6797ZM1835.29 74.6172H1821.79C1821.97 75.8359 1822.57 76.8906 1823.58 77.7812C1824.6 78.6719 1825.8 79.1172 1827.2 79.1172C1828.21 79.1172 1829.14 78.8887 1830.01 78.4316C1830.89 77.9746 1831.51 77.5293 1831.88 77.0957L1832.42 76.4277L1834.76 78.7656C1834.69 78.8594 1834.58 78.9941 1834.42 79.1699C1834.28 79.334 1833.97 79.6211 1833.49 80.0312C1833.01 80.4297 1832.5 80.7871 1831.96 81.1035C1831.42 81.4082 1830.72 81.6953 1829.85 81.9648C1829 82.2227 1828.11 82.3516 1827.2 82.3516C1824.75 82.3516 1822.63 81.4551 1820.85 79.6621C1819.08 77.8574 1818.2 75.6953 1818.2 73.1758C1818.2 70.75 1819.06 68.6758 1820.78 66.9531C1822.52 65.2188 1824.59 64.3516 1827.01 64.3516C1829.43 64.3516 1831.45 65.1602 1833.05 66.7773C1834.67 68.3828 1835.48 70.3984 1835.48 72.8242L1835.29 74.6172ZM1827.01 67.4277C1825.71 67.4277 1824.61 67.8145 1823.72 68.5879C1822.84 69.3496 1822.25 70.3398 1821.94 71.5586H1831.95C1831.73 70.3398 1831.19 69.3496 1830.31 68.5879C1829.43 67.8145 1828.33 67.4277 1827.01 67.4277ZM1578.84 106.721H1587.12C1588.77 106.721 1590.08 107.148 1591.05 108.004C1592.03 108.848 1592.51 109.92 1592.51 111.221C1592.51 111.959 1592.35 112.633 1592.02 113.242C1591.71 113.84 1591.38 114.256 1591.04 114.49L1590.54 114.824C1590.62 114.848 1590.71 114.889 1590.84 114.947C1590.97 115.006 1591.21 115.158 1591.55 115.404C1591.89 115.639 1592.18 115.902 1592.43 116.195C1592.68 116.477 1592.91 116.863 1593.11 117.355C1593.32 117.848 1593.43 118.381 1593.43 118.955C1593.43 120.443 1592.89 121.656 1591.83 122.594C1590.77 123.531 1589.33 124 1587.49 124H1578.84V106.721ZM1587.49 116.266H1582.44V120.941H1587.49C1588.2 120.941 1588.77 120.73 1589.19 120.309C1589.61 119.887 1589.82 119.318 1589.82 118.604C1589.82 117.959 1589.61 117.408 1589.17 116.951C1588.74 116.494 1588.18 116.266 1587.49 116.266ZM1588.44 112.908C1588.76 112.58 1588.93 112.141 1588.93 111.59C1588.93 111.027 1588.76 110.588 1588.44 110.271C1588.11 109.943 1587.67 109.779 1587.12 109.779H1582.44V113.383H1587.12C1587.67 113.383 1588.11 113.225 1588.44 112.908ZM1609.97 106.721H1613.2V124H1609.6V112.662L1600.6 124H1597.37V106.721H1600.97V118.059L1609.97 106.721ZM1615.73 120.766H1616.98C1617.05 120.695 1617.15 120.584 1617.28 120.432C1617.42 120.268 1617.66 119.91 1617.98 119.359C1618.32 118.809 1618.62 118.217 1618.86 117.584C1619.12 116.939 1619.35 116.096 1619.55 115.053C1619.76 114.01 1619.87 112.914 1619.87 111.766V106.721H1632.47V120.766H1634.98V128.324H1631.4V124H1619.34V128.324H1615.73V120.766ZM1623.47 109.955V111.766C1623.47 112.914 1623.37 114.004 1623.17 115.035C1622.98 116.066 1622.74 116.922 1622.45 117.602C1622.17 118.27 1621.88 118.85 1621.59 119.342C1621.31 119.834 1621.07 120.186 1620.88 120.396L1620.59 120.766H1628.87V109.955H1623.47ZM1654.62 116.617H1641.12C1641.3 117.836 1641.9 118.891 1642.91 119.781C1643.93 120.672 1645.14 121.117 1646.53 121.117C1647.54 121.117 1648.48 120.889 1649.34 120.432C1650.22 119.975 1650.84 119.529 1651.21 119.096L1651.75 118.428L1654.09 120.766C1654.02 120.859 1653.91 120.994 1653.76 121.17C1653.62 121.334 1653.3 121.621 1652.82 122.031C1652.34 122.43 1651.83 122.787 1651.29 123.104C1650.76 123.408 1650.05 123.695 1649.19 123.965C1648.33 124.223 1647.45 124.352 1646.53 124.352C1644.08 124.352 1641.97 123.455 1640.19 121.662C1638.42 119.857 1637.53 117.695 1637.53 115.176C1637.53 112.75 1638.39 110.676 1640.12 108.953C1641.85 107.219 1643.92 106.352 1646.34 106.352C1648.76 106.352 1650.78 107.16 1652.38 108.777C1654 110.383 1654.81 112.398 1654.81 114.824L1654.62 116.617ZM1646.34 109.428C1645.04 109.428 1643.94 109.814 1643.05 110.588C1642.17 111.35 1641.58 112.34 1641.28 113.559H1651.28C1651.07 112.34 1650.52 111.35 1649.64 110.588C1648.76 109.814 1647.66 109.428 1646.34 109.428ZM1662.35 116.793V124H1658.75V106.721H1662.35V113.559H1670.81V106.721H1674.41V124H1670.81V116.793H1662.35ZM1692.06 106.721H1695.29V124H1691.69V112.662L1682.69 124H1679.46V106.721H1683.06V118.059L1692.06 106.721ZM1716.35 116.617H1702.85C1703.04 117.836 1703.64 118.891 1704.64 119.781C1705.66 120.672 1706.87 121.117 1708.27 121.117C1709.27 121.117 1710.21 120.889 1711.08 120.432C1711.96 119.975 1712.58 119.529 1712.94 119.096L1713.49 118.428L1715.82 120.766C1715.75 120.859 1715.64 120.994 1715.49 121.17C1715.35 121.334 1715.04 121.621 1714.56 122.031C1714.08 122.43 1713.57 122.787 1713.03 123.104C1712.49 123.408 1711.79 123.695 1710.92 123.965C1710.06 124.223 1709.18 124.352 1708.27 124.352C1705.82 124.352 1703.7 123.455 1701.92 121.662C1700.15 119.857 1699.27 117.695 1699.27 115.176C1699.27 112.75 1700.13 110.676 1701.85 108.953C1703.58 107.219 1705.66 106.352 1708.07 106.352C1710.5 106.352 1712.51 107.16 1714.12 108.777C1715.74 110.383 1716.54 112.398 1716.54 114.824L1716.35 116.617ZM1708.07 109.428C1706.77 109.428 1705.68 109.814 1704.79 110.588C1703.91 111.35 1703.31 112.34 1703.01 113.559H1713.01C1712.8 112.34 1712.26 111.35 1711.38 110.588C1710.5 109.814 1709.4 109.428 1708.07 109.428Z" fill="black"/>
<rect x="1337.5" y="0.5" width="579" height="179" rx="89.5" stroke="black"/>
</svg>
