<svg width="1916" height="188" viewBox="0 0 1916 188" fill="none" xmlns="http://www.w3.org/2000/svg">
<path d="M348.338 89.7207H356.617C358.27 89.7207 359.582 90.1484 360.555 91.0039C361.527 91.8477 362.014 92.9199 362.014 94.2207C362.014 94.959 361.85 95.6328 361.521 96.2422C361.205 96.8398 360.877 97.2559 360.537 97.4902L360.045 97.8242C360.115 97.8477 360.215 97.8887 360.344 97.9473C360.473 98.0059 360.707 98.1582 361.047 98.4043C361.387 98.6387 361.68 98.9023 361.926 99.1953C362.184 99.4766 362.412 99.8633 362.611 100.355C362.822 100.848 362.928 101.381 362.928 101.955C362.928 103.443 362.395 104.656 361.328 105.594C360.273 106.531 358.826 107 356.986 107H348.338V89.7207ZM356.986 99.2656H351.941V103.941H356.986C357.701 103.941 358.27 103.73 358.691 103.309C359.113 102.887 359.324 102.318 359.324 101.604C359.324 100.959 359.107 100.408 358.674 99.9512C358.24 99.4941 357.678 99.2656 356.986 99.2656ZM357.936 95.9082C358.264 95.5801 358.428 95.1406 358.428 94.5898C358.428 94.0273 358.264 93.5879 357.936 93.2715C357.607 92.9434 357.168 92.7793 356.617 92.7793H351.941V96.3828H356.617C357.168 96.3828 357.607 96.2246 357.936 95.9082ZM370.469 103.941H374.248C375.068 103.941 375.754 103.666 376.305 103.115C376.855 102.564 377.131 101.879 377.131 101.059C377.131 100.238 376.855 99.5527 376.305 99.002C375.754 98.4512 375.068 98.1758 374.248 98.1758H370.469V103.941ZM378.941 96.8047C380.137 97.918 380.734 99.3418 380.734 101.076C380.734 102.799 380.137 104.217 378.941 105.33C377.758 106.443 376.193 107 374.248 107H366.865V89.7207H370.469V95.1172H374.248C376.193 95.1172 377.758 95.6797 378.941 96.8047ZM386.852 89.7207V107H383.248V89.7207H386.852ZM391.896 89.7207H400.176C401.828 89.7207 403.141 90.1484 404.113 91.0039C405.086 91.8477 405.572 92.9199 405.572 94.2207C405.572 94.959 405.408 95.6328 405.08 96.2422C404.764 96.8398 404.436 97.2559 404.096 97.4902L403.604 97.8242C403.674 97.8477 403.773 97.8887 403.902 97.9473C404.031 98.0059 404.266 98.1582 404.605 98.4043C404.945 98.6387 405.238 98.9023 405.484 99.1953C405.742 99.4766 405.971 99.8633 406.17 100.355C406.381 100.848 406.486 101.381 406.486 101.955C406.486 103.443 405.953 104.656 404.887 105.594C403.832 106.531 402.385 107 400.545 107H391.896V89.7207ZM400.545 99.2656H395.5V103.941H400.545C401.26 103.941 401.828 103.73 402.25 103.309C402.672 102.887 402.883 102.318 402.883 101.604C402.883 100.959 402.666 100.408 402.232 99.9512C401.799 99.4941 401.236 99.2656 400.545 99.2656ZM401.494 95.9082C401.822 95.5801 401.986 95.1406 401.986 94.5898C401.986 94.0273 401.822 93.5879 401.494 93.2715C401.166 92.9434 400.727 92.7793 400.176 92.7793H395.5V96.3828H400.176C400.727 96.3828 401.166 96.2246 401.494 95.9082ZM422.148 102.447C423.215 101.334 423.748 99.9746 423.748 98.3691C423.748 96.752 423.215 95.3867 422.148 94.2734C421.082 93.1602 419.816 92.6035 418.352 92.6035C416.887 92.6035 415.615 93.1602 414.537 94.2734C413.471 95.3867 412.938 96.752 412.938 98.3691C412.938 99.9746 413.471 101.334 414.537 102.447C415.615 103.561 416.887 104.117 418.352 104.117C419.816 104.117 421.082 103.561 422.148 102.447ZM412.023 104.68C410.242 102.887 409.352 100.783 409.352 98.3691C409.352 95.9434 410.242 93.834 412.023 92.041C413.816 90.248 415.926 89.3516 418.352 89.3516C420.777 89.3516 422.881 90.248 424.662 92.041C426.455 93.834 427.352 95.9434 427.352 98.3691C427.352 100.783 426.455 102.887 424.662 104.68C422.881 106.461 420.777 107.352 418.352 107.352C415.926 107.352 413.816 106.461 412.023 104.68ZM428.793 103.766H430.041C430.111 103.695 430.211 103.584 430.34 103.432C430.48 103.268 430.715 102.91 431.043 102.359C431.383 101.809 431.676 101.217 431.922 100.584C432.18 99.9395 432.408 99.0957 432.607 98.0527C432.818 97.0098 432.924 95.9141 432.924 94.7656V89.7207H445.527V103.766H448.041V111.324H444.455V107H432.396V111.324H428.793V103.766ZM436.527 92.9551V94.7656C436.527 95.9141 436.428 97.0039 436.229 98.0352C436.041 99.0664 435.801 99.9219 435.508 100.602C435.227 101.27 434.939 101.85 434.646 102.342C434.365 102.834 434.131 103.186 433.943 103.396L433.645 103.766H441.924V92.9551H436.527Z" fill="black"/>
<ellipse cx="864.496" cy="94" rx="69.5035" ry="70" fill="#CD93AF"/>
<path d="M894.284 61H835.702V128L865.986 114.5L894.284 128V61Z" stroke="black" stroke-width="4"/>
<rect x="2.5" y="0.5" width="951" height="187" rx="93.5" stroke="black"/>
<circle cx="1044" cy="94" r="89.5" stroke="black"/>
<path d="M1038.24 148.738L1092.73 94.2495M1092.73 94.2495L1038.24 39.7606M1092.73 94.2495H983.754" stroke="black" stroke-width="2"/>
<circle cx="1226" cy="94" r="68.2218" stroke="black" stroke-width="3.55644"/>
<rect x="1184" y="61" width="83" height="65" rx="7" stroke="black" stroke-width="4"/>
<rect x="1193" y="70" width="65" height="47" rx="7" stroke="black" stroke-width="4"/>
<path d="M1437.94 71.9551V86H1434.34V68.7207H1450V86H1446.4V71.9551H1437.94ZM1464.22 86.3516C1463.58 86.3516 1462.95 86.2754 1462.34 86.123C1461.73 85.9707 1461.21 85.7832 1460.78 85.5605C1460.34 85.3262 1459.96 85.0918 1459.62 84.8574C1459.29 84.6113 1459.05 84.418 1458.89 84.2773L1458.65 84.0137V93.5586H1455.04V68.7207H1458.65V70.707C1458.81 70.543 1459.04 70.3262 1459.33 70.0566C1459.64 69.7871 1460.28 69.4355 1461.25 69.002C1462.22 68.5684 1463.21 68.3516 1464.22 68.3516C1466.51 68.3516 1468.49 69.2305 1470.16 70.9883C1471.85 72.7344 1472.69 74.8555 1472.69 77.3516C1472.69 79.8477 1471.85 81.9746 1470.16 83.7324C1468.49 85.4785 1466.51 86.3516 1464.22 86.3516ZM1467.51 73.291C1466.45 72.166 1465.24 71.6035 1463.87 71.6035C1462.5 71.6035 1461.29 72.166 1460.23 73.291C1459.18 74.416 1458.65 75.7754 1458.65 77.3691C1458.65 78.9512 1459.18 80.3047 1460.23 81.4297C1461.29 82.5547 1462.5 83.1172 1463.87 83.1172C1465.24 83.1172 1466.45 82.5547 1467.51 81.4297C1468.56 80.3047 1469.09 78.9512 1469.09 77.3691C1469.09 75.7754 1468.56 74.416 1467.51 73.291ZM1492.64 78.6172H1479.14C1479.33 79.8359 1479.93 80.8906 1480.94 81.7812C1481.96 82.6719 1483.16 83.1172 1484.56 83.1172C1485.57 83.1172 1486.5 82.8887 1487.37 82.4316C1488.25 81.9746 1488.87 81.5293 1489.23 81.0957L1489.78 80.4277L1492.12 82.7656C1492.05 82.8594 1491.94 82.9941 1491.78 83.1699C1491.64 83.334 1491.33 83.6211 1490.85 84.0312C1490.37 84.4297 1489.86 84.7871 1489.32 85.1035C1488.78 85.4082 1488.08 85.6953 1487.21 85.9648C1486.36 86.2227 1485.47 86.3516 1484.56 86.3516C1482.11 86.3516 1479.99 85.4551 1478.21 83.6621C1476.44 81.8574 1475.56 79.6953 1475.56 77.1758C1475.56 74.75 1476.42 72.6758 1478.14 70.9531C1479.88 69.2188 1481.95 68.3516 1484.37 68.3516C1486.79 68.3516 1488.81 69.1602 1490.41 70.7773C1492.03 72.3828 1492.84 74.3984 1492.84 76.8242L1492.64 78.6172ZM1484.37 71.4277C1483.06 71.4277 1481.97 71.8145 1481.08 72.5879C1480.2 73.3496 1479.61 74.3398 1479.3 75.5586H1489.3C1489.09 74.3398 1488.55 73.3496 1487.67 72.5879C1486.79 71.8145 1485.69 71.4277 1484.37 71.4277ZM1508.29 73.2207C1508.29 74.0176 1508.07 74.7148 1507.62 75.3125C1507.19 75.9102 1506.74 76.3027 1506.29 76.4902L1505.6 76.8242C1505.69 76.8477 1505.82 76.8887 1505.97 76.9473C1506.13 77.0059 1506.4 77.1465 1506.78 77.3691C1507.16 77.5801 1507.5 77.8379 1507.8 78.1426C1508.1 78.4355 1508.38 78.8457 1508.62 79.373C1508.88 79.9004 1509.01 80.4922 1509.01 81.1484C1509.01 82.5898 1508.37 83.8203 1507.08 84.8398C1505.8 85.8477 1504.05 86.3516 1501.82 86.3516C1500.98 86.3516 1500.16 86.2461 1499.38 86.0352C1498.6 85.8242 1497.96 85.5723 1497.44 85.2793C1496.93 84.9863 1496.48 84.6934 1496.09 84.4004C1495.7 84.0957 1495.42 83.8379 1495.23 83.627L1494.98 83.293L1497.32 80.9551C1497.46 81.1191 1497.65 81.3242 1497.88 81.5703C1498.13 81.8164 1498.64 82.1387 1499.43 82.5371C1500.23 82.9238 1501.02 83.1172 1501.82 83.1172C1503.02 83.1172 1503.91 82.8945 1504.51 82.4492C1505.12 82.0039 1505.42 81.4473 1505.42 80.7793C1505.42 80.1113 1505.12 79.5547 1504.51 79.1094C1503.91 78.6641 1503.02 78.4414 1501.82 78.4414H1499.83V75.5586H1501.82C1502.76 75.5586 1503.47 75.377 1503.96 75.0137C1504.46 74.6387 1504.7 74.1641 1504.7 73.5898C1504.7 73.0039 1504.46 72.5293 1503.96 72.166C1503.47 71.791 1502.76 71.6035 1501.82 71.6035C1501.13 71.6035 1500.45 71.7383 1499.78 72.0078C1499.12 72.2656 1498.64 72.5352 1498.32 72.8164L1497.87 73.2207L1495.51 70.8828C1495.67 70.6953 1495.91 70.4609 1496.23 70.1797C1496.55 69.8984 1497.25 69.5234 1498.34 69.0547C1499.43 68.5859 1500.59 68.3516 1501.82 68.3516C1503.81 68.3516 1505.39 68.832 1506.55 69.793C1507.71 70.7539 1508.29 71.8965 1508.29 73.2207ZM1529 78.6172H1515.5C1515.68 79.8359 1516.28 80.8906 1517.29 81.7812C1518.31 82.6719 1519.52 83.1172 1520.91 83.1172C1521.92 83.1172 1522.86 82.8887 1523.72 82.4316C1524.6 81.9746 1525.22 81.5293 1525.59 81.0957L1526.13 80.4277L1528.47 82.7656C1528.4 82.8594 1528.29 82.9941 1528.13 83.1699C1527.99 83.334 1527.68 83.6211 1527.2 84.0312C1526.72 84.4297 1526.21 84.7871 1525.67 85.1035C1525.13 85.4082 1524.43 85.6953 1523.56 85.9648C1522.71 86.2227 1521.82 86.3516 1520.91 86.3516C1518.46 86.3516 1516.35 85.4551 1514.56 83.6621C1512.79 81.8574 1511.91 79.6953 1511.91 77.1758C1511.91 74.75 1512.77 72.6758 1514.49 70.9531C1516.23 69.2188 1518.3 68.3516 1520.72 68.3516C1523.14 68.3516 1525.16 69.1602 1526.76 70.7773C1528.38 72.3828 1529.19 74.3984 1529.19 76.8242L1529 78.6172ZM1520.72 71.4277C1519.42 71.4277 1518.32 71.8145 1517.43 72.5879C1516.55 73.3496 1515.96 74.3398 1515.65 75.5586H1525.66C1525.45 74.3398 1524.9 73.3496 1524.02 72.5879C1523.14 71.8145 1522.04 71.4277 1520.72 71.4277ZM1536.73 78.793V86H1533.13V68.7207H1536.73V75.5586H1545.19V68.7207H1548.79V86H1545.19V78.793H1536.73ZM1552.04 71.9551V68.7207H1567.51V71.9551H1561.57V86H1557.98V71.9551H1552.04ZM1584.61 86H1581.01V84.207C1580.96 84.2539 1580.88 84.3301 1580.76 84.4355C1580.66 84.541 1580.44 84.7168 1580.1 84.9629C1579.77 85.1973 1579.41 85.4141 1579.02 85.6133C1578.64 85.8008 1578.15 85.9707 1577.56 86.123C1576.98 86.2754 1576.39 86.3516 1575.79 86.3516C1574.03 86.3516 1572.57 85.8418 1571.41 84.8223C1570.25 83.8027 1569.67 82.6367 1569.67 81.3242C1569.67 79.9062 1570.12 78.7168 1571.01 77.7559C1571.91 76.7949 1573.14 76.1855 1574.7 75.9277L1581.01 74.8379C1581.01 73.9238 1580.67 73.1562 1579.99 72.5352C1579.32 71.9141 1578.46 71.6035 1577.41 71.6035C1576.49 71.6035 1575.66 71.7969 1574.91 72.1836C1574.17 72.5586 1573.66 72.9395 1573.38 73.3262L1572.91 73.9414L1570.57 71.6035C1570.64 71.5098 1570.73 71.3926 1570.85 71.252C1570.98 71.0996 1571.25 70.8418 1571.68 70.4785C1572.11 70.1035 1572.57 69.7695 1573.05 69.4766C1573.53 69.1836 1574.16 68.9258 1574.95 68.7031C1575.74 68.4688 1576.56 68.3516 1577.41 68.3516C1579.52 68.3516 1581.24 68.9785 1582.59 70.2324C1583.94 71.4746 1584.61 73.0098 1584.61 74.8379V86ZM1576.33 83.1172C1577.8 83.1172 1578.94 82.6836 1579.76 81.8164C1580.59 80.9375 1581.01 79.6895 1581.01 78.0723V77.7207L1575.42 78.6172C1574.78 78.7344 1574.25 78.998 1573.86 79.4082C1573.46 79.8184 1573.26 80.334 1573.26 80.9551C1573.26 81.5293 1573.53 82.0332 1574.08 82.4668C1574.65 82.9004 1575.4 83.1172 1576.33 83.1172ZM1589.66 86V68.7207H1593.26V82.7656H1601.37V68.7207H1604.97V82.7656H1607.48V90.3242H1603.88V86H1589.66ZM1623.67 68.7207H1626.91V86H1623.3V74.6621L1614.3 86H1611.07V68.7207H1614.67V80.0586L1623.67 68.7207ZM1637.72 68.7207H1645.63V86H1642.04V80.6035H1638.26L1634.83 86H1630.88L1634.66 80.0586C1634.56 80.0352 1634.44 79.9824 1634.27 79.9004C1634.12 79.8184 1633.85 79.6367 1633.46 79.3555C1633.08 79.0625 1632.73 78.7285 1632.43 78.3535C1632.13 77.9785 1631.86 77.4629 1631.6 76.8066C1631.35 76.1387 1631.23 75.4238 1631.23 74.6621C1631.23 72.9395 1631.82 71.5215 1633.01 70.4082C1634.2 69.2832 1635.77 68.7207 1637.72 68.7207ZM1642.04 71.7793H1637.72C1636.9 71.7793 1636.21 72.0547 1635.66 72.6055C1635.11 73.1562 1634.83 73.8418 1634.83 74.6621C1634.83 75.4824 1635.11 76.168 1635.66 76.7188C1636.21 77.2695 1636.9 77.5449 1637.72 77.5449H1642.04V71.7793ZM1446.94 110.721H1450.18V128H1446.57V116.662L1437.57 128H1434.34V110.721H1437.94V122.059L1446.94 110.721ZM1456.82 125.68C1455.04 123.887 1454.15 121.783 1454.15 119.369C1454.15 116.943 1455.04 114.834 1456.82 113.041C1458.61 111.248 1460.72 110.352 1463.15 110.352C1464.5 110.352 1465.75 110.645 1466.91 111.23C1468.07 111.805 1468.9 112.379 1469.41 112.953L1470.16 113.779L1467.82 116.117C1467.71 115.93 1467.53 115.701 1467.28 115.432C1467.04 115.15 1466.52 114.775 1465.71 114.307C1464.92 113.838 1464.06 113.604 1463.15 113.604C1461.68 113.604 1460.41 114.16 1459.33 115.273C1458.27 116.387 1457.73 117.752 1457.73 119.369C1457.73 120.975 1458.27 122.334 1459.33 123.447C1460.41 124.561 1461.68 125.117 1463.15 125.117C1464.06 125.117 1464.92 124.889 1465.71 124.432C1466.52 123.975 1467.1 123.529 1467.46 123.096L1468 122.428L1470.34 124.766C1470.27 124.859 1470.16 124.994 1470.02 125.17C1469.88 125.334 1469.58 125.621 1469.11 126.031C1468.64 126.43 1468.15 126.787 1467.63 127.104C1467.12 127.408 1466.45 127.695 1465.63 127.965C1464.81 128.223 1463.98 128.352 1463.15 128.352C1460.72 128.352 1458.61 127.461 1456.82 125.68ZM1474.79 125.68C1473 123.887 1472.11 121.783 1472.11 119.369C1472.11 116.943 1473 114.834 1474.79 113.041C1476.58 111.248 1478.69 110.352 1481.11 110.352C1482.46 110.352 1483.71 110.645 1484.88 111.23C1486.04 111.805 1486.87 112.379 1487.37 112.953L1488.13 113.779L1485.79 116.117C1485.67 115.93 1485.49 115.701 1485.24 115.432C1485.01 115.15 1484.49 114.775 1483.68 114.307C1482.88 113.838 1482.03 113.604 1481.11 113.604C1479.65 113.604 1478.38 114.16 1477.3 115.273C1476.23 116.387 1475.7 117.752 1475.7 119.369C1475.7 120.975 1476.23 122.334 1477.3 123.447C1478.38 124.561 1479.65 125.117 1481.11 125.117C1482.03 125.117 1482.88 124.889 1483.68 124.432C1484.49 123.975 1485.07 123.529 1485.42 123.096L1485.96 122.428L1488.3 124.766C1488.23 124.859 1488.13 124.994 1487.99 125.17C1487.85 125.334 1487.54 125.621 1487.07 126.031C1486.6 126.43 1486.11 126.787 1485.6 127.104C1485.08 127.408 1484.41 127.695 1483.59 127.965C1482.77 128.223 1481.95 128.352 1481.11 128.352C1478.69 128.352 1476.58 127.461 1474.79 125.68ZM1493.88 110.721H1507.2V128H1503.6V113.955H1497.48V115.766C1497.48 119.059 1497.21 121.66 1496.69 123.57C1496.17 125.469 1495.5 126.74 1494.68 127.385C1493.88 128.029 1492.83 128.352 1491.54 128.352C1491.22 128.352 1490.88 128.322 1490.52 128.264C1490.17 128.205 1489.89 128.141 1489.69 128.07L1489.38 128V124.572C1489.86 124.689 1490.27 124.754 1490.62 124.766C1491.36 124.766 1491.94 124.566 1492.36 124.168C1492.8 123.77 1493.15 122.891 1493.44 121.531C1493.73 120.16 1493.88 118.238 1493.88 115.766V110.721ZM1528.26 120.617H1514.76C1514.95 121.836 1515.54 122.891 1516.55 123.781C1517.57 124.672 1518.78 125.117 1520.17 125.117C1521.18 125.117 1522.12 124.889 1522.98 124.432C1523.86 123.975 1524.48 123.529 1524.85 123.096L1525.39 122.428L1527.73 124.766C1527.66 124.859 1527.55 124.994 1527.4 125.17C1527.26 125.334 1526.95 125.621 1526.46 126.031C1525.98 126.43 1525.47 126.787 1524.94 127.104C1524.4 127.408 1523.69 127.695 1522.83 127.965C1521.97 128.223 1521.09 128.352 1520.17 128.352C1517.72 128.352 1515.61 127.455 1513.83 125.662C1512.06 123.857 1511.17 121.695 1511.17 119.176C1511.17 116.75 1512.03 114.676 1513.76 112.953C1515.49 111.219 1517.56 110.352 1519.98 110.352C1522.4 110.352 1524.42 111.16 1526.03 112.777C1527.64 114.383 1528.45 116.398 1528.45 118.824L1528.26 120.617ZM1519.98 113.428C1518.68 113.428 1517.58 113.814 1516.69 114.588C1515.81 115.35 1515.22 116.34 1514.92 117.559H1524.92C1524.71 116.34 1524.16 115.35 1523.28 114.588C1522.4 113.814 1521.3 113.428 1519.98 113.428ZM1529.88 124.766H1531.12C1531.19 124.695 1531.29 124.584 1531.42 124.432C1531.56 124.268 1531.8 123.91 1532.12 123.359C1532.46 122.809 1532.76 122.217 1533 121.584C1533.26 120.939 1533.49 120.096 1533.69 119.053C1533.9 118.01 1534.01 116.914 1534.01 115.766V110.721H1546.61V124.766H1549.12V132.324H1545.54V128H1533.48V132.324H1529.88V124.766ZM1537.61 113.955V115.766C1537.61 116.914 1537.51 118.004 1537.31 119.035C1537.12 120.066 1536.88 120.922 1536.59 121.602C1536.31 122.27 1536.02 122.85 1535.73 123.342C1535.45 123.834 1535.21 124.186 1535.03 124.396L1534.73 124.766H1543.01V113.955H1537.61ZM1564.47 123.447C1565.54 122.334 1566.07 120.975 1566.07 119.369C1566.07 117.752 1565.54 116.387 1564.47 115.273C1563.4 114.16 1562.14 113.604 1560.67 113.604C1559.21 113.604 1557.94 114.16 1556.86 115.273C1555.79 116.387 1555.26 117.752 1555.26 119.369C1555.26 120.975 1555.79 122.334 1556.86 123.447C1557.94 124.561 1559.21 125.117 1560.67 125.117C1562.14 125.117 1563.4 124.561 1564.47 123.447ZM1554.34 125.68C1552.56 123.887 1551.67 121.783 1551.67 119.369C1551.67 116.943 1552.56 114.834 1554.34 113.041C1556.14 111.248 1558.25 110.352 1560.67 110.352C1563.1 110.352 1565.2 111.248 1566.98 113.041C1568.78 114.834 1569.67 116.943 1569.67 119.369C1569.67 121.783 1568.78 123.887 1566.98 125.68C1565.2 127.461 1563.1 128.352 1560.67 128.352C1558.25 128.352 1556.14 127.461 1554.34 125.68ZM1573.63 110.721H1581.91C1583.56 110.721 1584.87 111.148 1585.84 112.004C1586.82 112.848 1587.3 113.92 1587.3 115.221C1587.3 115.959 1587.14 116.633 1586.81 117.242C1586.49 117.84 1586.17 118.256 1585.83 118.49L1585.33 118.824C1585.4 118.848 1585.5 118.889 1585.63 118.947C1585.76 119.006 1586 119.158 1586.34 119.404C1586.68 119.639 1586.97 119.902 1587.21 120.195C1587.47 120.477 1587.7 120.863 1587.9 121.355C1588.11 121.848 1588.22 122.381 1588.22 122.955C1588.22 124.443 1587.68 125.656 1586.62 126.594C1585.56 127.531 1584.12 128 1582.28 128H1573.63V110.721ZM1582.28 120.266H1577.23V124.941H1582.28C1582.99 124.941 1583.56 124.73 1583.98 124.309C1584.4 123.887 1584.61 123.318 1584.61 122.604C1584.61 121.959 1584.4 121.408 1583.96 120.951C1583.53 120.494 1582.97 120.266 1582.28 120.266ZM1583.22 116.908C1583.55 116.58 1583.72 116.141 1583.72 115.59C1583.72 115.027 1583.55 114.588 1583.22 114.271C1582.9 113.943 1582.46 113.779 1581.91 113.779H1577.23V117.383H1581.91C1582.46 117.383 1582.9 117.225 1583.22 116.908ZM1606.02 128H1602.42V126.207C1602.37 126.254 1602.29 126.33 1602.17 126.436C1602.07 126.541 1601.85 126.717 1601.51 126.963C1601.18 127.197 1600.82 127.414 1600.43 127.613C1600.05 127.801 1599.56 127.971 1598.97 128.123C1598.39 128.275 1597.8 128.352 1597.2 128.352C1595.44 128.352 1593.98 127.842 1592.82 126.822C1591.66 125.803 1591.08 124.637 1591.08 123.324C1591.08 121.906 1591.53 120.717 1592.42 119.756C1593.32 118.795 1594.55 118.186 1596.11 117.928L1602.42 116.838C1602.42 115.924 1602.08 115.156 1601.4 114.535C1600.73 113.914 1599.87 113.604 1598.82 113.604C1597.9 113.604 1597.07 113.797 1596.32 114.184C1595.58 114.559 1595.07 114.939 1594.79 115.326L1594.32 115.941L1591.98 113.604C1592.05 113.51 1592.14 113.393 1592.26 113.252C1592.39 113.1 1592.66 112.842 1593.09 112.479C1593.52 112.104 1593.98 111.77 1594.46 111.477C1594.94 111.184 1595.57 110.926 1596.36 110.703C1597.15 110.469 1597.97 110.352 1598.82 110.352C1600.93 110.352 1602.65 110.979 1604 112.232C1605.35 113.475 1606.02 115.01 1606.02 116.838V128ZM1597.74 125.117C1599.21 125.117 1600.35 124.684 1601.17 123.816C1602 122.938 1602.42 121.689 1602.42 120.072V119.721L1596.83 120.617C1596.19 120.734 1595.66 120.998 1595.27 121.408C1594.87 121.818 1594.67 122.334 1594.67 122.955C1594.67 123.529 1594.94 124.033 1595.49 124.467C1596.06 124.9 1596.81 125.117 1597.74 125.117ZM1614.67 120.793V128H1611.07V110.721H1614.67V117.559H1623.13V110.721H1626.73V128H1623.13V120.793H1614.67ZM1644.38 110.721H1647.61V128H1644.01V116.662L1635.01 128H1631.78V110.721H1635.38V122.059L1644.38 110.721ZM1658.42 110.721H1666.33V128H1662.75V122.604H1658.97L1655.54 128H1651.59L1655.37 122.059C1655.27 122.035 1655.14 121.982 1654.98 121.9C1654.83 121.818 1654.56 121.637 1654.17 121.355C1653.78 121.062 1653.44 120.729 1653.13 120.354C1652.84 119.979 1652.56 119.463 1652.31 118.807C1652.06 118.139 1651.94 117.424 1651.94 116.662C1651.94 114.939 1652.53 113.521 1653.71 112.408C1654.91 111.283 1656.48 110.721 1658.42 110.721ZM1662.75 113.779H1658.42C1657.6 113.779 1656.92 114.055 1656.37 114.605C1655.82 115.156 1655.54 115.842 1655.54 116.662C1655.54 117.482 1655.82 118.168 1656.37 118.719C1656.92 119.27 1657.6 119.545 1658.42 119.545H1662.75V113.779Z" fill="black"/>
<rect x="1134.5" y="0.5" width="781" height="187" rx="93.5" stroke="black"/>
</svg>
