<svg width="1920" height="180" viewBox="0 0 1920 180" fill="none" xmlns="http://www.w3.org/2000/svg">
<path d="M155.617 94.5449C155.617 96.9707 154.762 99.0449 153.051 100.768C151.352 102.49 149.33 103.352 146.986 103.352C144.279 103.352 142.1 102.385 140.447 100.451C138.807 98.5059 137.986 95.6934 137.986 92.0137C137.986 87.8184 138.766 84.6719 140.324 82.5742C141.883 80.4766 144.104 79.1875 146.986 78.707C148.264 78.4961 149.406 78.2266 150.414 77.8984C151.434 77.5703 152.137 77.2949 152.523 77.0723L153.104 76.7207L154.721 79.4277C154.65 79.5215 154.504 79.6562 154.281 79.832C154.07 80.0078 153.338 80.3242 152.084 80.7812C150.842 81.2383 149.26 81.625 147.338 81.9414C145.686 82.2109 144.355 82.8965 143.348 83.998C142.34 85.0996 141.748 86.5762 141.572 88.4277C141.619 88.3574 141.701 88.2637 141.818 88.1465C141.947 88.0176 142.199 87.8008 142.574 87.4961C142.949 87.1797 143.342 86.9043 143.752 86.6699C144.174 86.4238 144.707 86.207 145.352 86.0195C146.008 85.8203 146.67 85.7207 147.338 85.7207C149.518 85.7207 151.439 86.5938 153.104 88.3398C154.779 90.0742 155.617 92.1426 155.617 94.5449ZM143.436 90.5723C142.439 91.6387 141.941 92.9629 141.941 94.5449C141.941 96.127 142.439 97.4512 143.436 98.5176C144.432 99.584 145.609 100.117 146.969 100.117C148.34 100.117 149.523 99.584 150.52 98.5176C151.516 97.4512 152.014 96.127 152.014 94.5449C152.014 92.9629 151.516 91.6387 150.52 90.5723C149.523 89.4941 148.34 88.9551 146.969 88.9551C145.609 88.9551 144.432 89.4941 143.436 90.5723ZM169.1 103.352C168.455 103.352 167.828 103.275 167.219 103.123C166.609 102.971 166.088 102.783 165.654 102.561C165.221 102.326 164.834 102.092 164.494 101.857C164.166 101.611 163.926 101.418 163.773 101.277L163.527 101.014V110.559H159.924V85.7207H163.527V87.707C163.691 87.543 163.92 87.3262 164.213 87.0566C164.518 86.7871 165.156 86.4355 166.129 86.002C167.102 85.5684 168.092 85.3516 169.1 85.3516C171.385 85.3516 173.365 86.2305 175.041 87.9883C176.729 89.7344 177.572 91.8555 177.572 94.3516C177.572 96.8477 176.729 98.9746 175.041 100.732C173.365 102.479 171.385 103.352 169.1 103.352ZM172.387 90.291C171.332 89.166 170.119 88.6035 168.748 88.6035C167.377 88.6035 166.164 89.166 165.109 90.291C164.055 91.416 163.527 92.7754 163.527 94.3691C163.527 95.9512 164.055 97.3047 165.109 98.4297C166.164 99.5547 167.377 100.117 168.748 100.117C170.119 100.117 171.332 99.5547 172.387 98.4297C173.441 97.3047 173.969 95.9512 173.969 94.3691C173.969 92.7754 173.441 91.416 172.387 90.291ZM194.113 85.7207H197.348V103H193.744V91.6621L184.744 103H181.51V85.7207H185.113V97.0586L194.113 85.7207ZM211.393 110.559V103.352C208.393 103.352 205.961 102.496 204.098 100.785C202.246 99.0742 201.32 96.9355 201.32 94.3691C201.32 91.791 202.246 89.6465 204.098 87.9355C205.961 86.2129 208.393 85.3516 211.393 85.3516V77.793H214.996V85.3516C217.996 85.3516 220.422 86.2129 222.273 87.9355C224.137 89.6465 225.068 91.791 225.068 94.3691C225.068 96.9355 224.137 99.0742 222.273 100.785C220.422 102.496 217.996 103.352 214.996 103.352V110.559H211.393ZM211.393 100.117V88.6035C209.354 88.6035 207.76 89.125 206.611 90.168C205.475 91.2109 204.906 92.6113 204.906 94.3691C204.906 96.1152 205.475 97.5098 206.611 98.5527C207.76 99.5957 209.354 100.117 211.393 100.117ZM214.996 88.6035V100.117C217.035 100.117 218.623 99.5957 219.76 98.5527C220.908 97.5098 221.482 96.1152 221.482 94.3691C221.482 92.6113 220.908 91.2109 219.76 90.168C218.623 89.125 217.035 88.6035 214.996 88.6035ZM241.645 85.7207H244.879V103H241.275V91.6621L232.275 103H229.041V85.7207H232.645V97.0586L241.645 85.7207ZM253.527 95.793V103H249.924V85.7207H253.527V92.5586H261.982V85.7207H265.586V103H261.982V95.793H253.527ZM282.689 85.7207V88.9551H274.234V103H270.631V85.7207H282.689Z" fill="black"/>
<circle cx="490" cy="90" r="70" fill="#F1C376"/>
<path d="M538.223 103C538.223 97.9065 534.093 93.7774 529 93.7774H474C468.907 93.7774 464.777 97.9065 464.777 103V108.054C464.777 113.147 468.907 117.276 474 117.276H523.001C524.912 117.276 526.798 117.705 528.521 118.53L538.223 123.178V119.054V103Z" stroke="black" stroke-width="3.55484"/>
<path d="M441.777 65C441.777 59.9065 445.907 55.7774 451 55.7774H506C511.093 55.7774 515.223 59.9065 515.223 65V70.0538C515.223 75.1473 511.093 79.2763 506 79.2763H456.999C455.088 79.2763 453.202 79.7049 451.479 80.5304L441.777 85.1777V81.0538V65Z" stroke="black" stroke-width="3.55484"/>
<rect x="0.5" y="0.5" width="579" height="179" rx="89.5" stroke="black"/>
<circle cx="670" cy="90" r="89.5" stroke="black"/>
<path d="M664.243 144.738L718.732 90.2495M718.732 90.2495L664.243 35.7606M718.732 90.2495H609.754" stroke="black" stroke-width="2"/>
<circle cx="850" cy="90" r="68.2218" stroke="black" stroke-width="3.55644"/>
<path d="M810.656 92.6429C809.711 91.5786 808.95 90.6693 808.391 89.9817C808.95 89.294 809.711 88.3847 810.656 87.3205C812.857 84.8422 816.04 81.5402 819.965 78.2438C827.886 71.5929 838.496 65.2455 849.974 65.2455C861.453 65.2455 872.063 71.5929 879.984 78.2438C883.909 81.5402 887.092 84.8422 889.293 87.3205C890.238 88.3847 890.999 89.294 891.557 89.9817C890.999 90.6693 890.238 91.5786 889.293 92.6429C887.092 95.1211 883.909 98.4232 879.984 101.72C872.063 108.37 861.453 114.718 849.974 114.718C838.496 114.718 827.886 108.37 819.965 101.72C816.04 98.4232 812.857 95.1211 810.656 92.6429Z" stroke="black" stroke-width="4.74193"/>
<circle cx="849.103" cy="89.1037" r="17.4885" fill="black"/>
<path d="M1025.44 85.7207H1028.68V103H1025.07V91.6621L1016.07 103H1012.84V85.7207H1016.44V97.0586L1025.44 85.7207ZM1035.32 100.68C1033.54 98.8867 1032.65 96.7832 1032.65 94.3691C1032.65 91.9434 1033.54 89.834 1035.32 88.041C1037.11 86.248 1039.22 85.3516 1041.65 85.3516C1043 85.3516 1044.25 85.6445 1045.41 86.2305C1046.57 86.8047 1047.4 87.3789 1047.91 87.9531L1048.66 88.7793L1046.32 91.1172C1046.21 90.9297 1046.03 90.7012 1045.78 90.4316C1045.54 90.1504 1045.02 89.7754 1044.21 89.3066C1043.42 88.8379 1042.56 88.6035 1041.65 88.6035C1040.18 88.6035 1038.91 89.1602 1037.83 90.2734C1036.77 91.3867 1036.23 92.752 1036.23 94.3691C1036.23 95.9746 1036.77 97.334 1037.83 98.4473C1038.91 99.5605 1040.18 100.117 1041.65 100.117C1042.56 100.117 1043.42 99.8887 1044.21 99.4316C1045.02 98.9746 1045.6 98.5293 1045.96 98.0957L1046.5 97.4277L1048.84 99.7656C1048.77 99.8594 1048.66 99.9941 1048.52 100.17C1048.38 100.334 1048.08 100.621 1047.61 101.031C1047.14 101.43 1046.65 101.787 1046.13 102.104C1045.62 102.408 1044.95 102.695 1044.13 102.965C1043.31 103.223 1042.48 103.352 1041.65 103.352C1039.22 103.352 1037.11 102.461 1035.32 100.68ZM1053.29 100.68C1051.5 98.8867 1050.61 96.7832 1050.61 94.3691C1050.61 91.9434 1051.5 89.834 1053.29 88.041C1055.08 86.248 1057.19 85.3516 1059.61 85.3516C1060.96 85.3516 1062.21 85.6445 1063.38 86.2305C1064.54 86.8047 1065.37 87.3789 1065.87 87.9531L1066.63 88.7793L1064.29 91.1172C1064.17 90.9297 1063.99 90.7012 1063.74 90.4316C1063.51 90.1504 1062.99 89.7754 1062.18 89.3066C1061.38 88.8379 1060.53 88.6035 1059.61 88.6035C1058.15 88.6035 1056.88 89.1602 1055.8 90.2734C1054.73 91.3867 1054.2 92.752 1054.2 94.3691C1054.2 95.9746 1054.73 97.334 1055.8 98.4473C1056.88 99.5605 1058.15 100.117 1059.61 100.117C1060.53 100.117 1061.38 99.8887 1062.18 99.4316C1062.99 98.9746 1063.57 98.5293 1063.92 98.0957L1064.46 97.4277L1066.8 99.7656C1066.73 99.8594 1066.63 99.9941 1066.49 100.17C1066.35 100.334 1066.04 100.621 1065.57 101.031C1065.1 101.43 1064.61 101.787 1064.1 102.104C1063.58 102.408 1062.91 102.695 1062.09 102.965C1061.27 103.223 1060.45 103.352 1059.61 103.352C1057.19 103.352 1055.08 102.461 1053.29 100.68ZM1072.38 85.7207H1085.7V103H1082.1V88.9551H1075.98V90.7656C1075.98 94.0586 1075.71 96.6602 1075.19 98.5703C1074.67 100.469 1074 101.74 1073.18 102.385C1072.38 103.029 1071.33 103.352 1070.04 103.352C1069.72 103.352 1069.38 103.322 1069.02 103.264C1068.67 103.205 1068.39 103.141 1068.19 103.07L1067.88 103V99.5723C1068.36 99.6895 1068.77 99.7539 1069.12 99.7656C1069.86 99.7656 1070.44 99.5664 1070.86 99.168C1071.3 98.7695 1071.65 97.8906 1071.94 96.5312C1072.23 95.1602 1072.38 93.2383 1072.38 90.7656V85.7207ZM1106.76 95.6172H1093.26C1093.45 96.8359 1094.04 97.8906 1095.05 98.7812C1096.07 99.6719 1097.28 100.117 1098.67 100.117C1099.68 100.117 1100.62 99.8887 1101.48 99.4316C1102.36 98.9746 1102.98 98.5293 1103.35 98.0957L1103.89 97.4277L1106.23 99.7656C1106.16 99.8594 1106.05 99.9941 1105.9 100.17C1105.76 100.334 1105.45 100.621 1104.96 101.031C1104.48 101.43 1103.97 101.787 1103.44 102.104C1102.9 102.408 1102.19 102.695 1101.33 102.965C1100.47 103.223 1099.59 103.352 1098.67 103.352C1096.22 103.352 1094.11 102.455 1092.33 100.662C1090.56 98.8574 1089.67 96.6953 1089.67 94.1758C1089.67 91.75 1090.53 89.6758 1092.26 87.9531C1093.99 86.2188 1096.06 85.3516 1098.48 85.3516C1100.9 85.3516 1102.92 86.1602 1104.53 87.7773C1106.14 89.3828 1106.95 91.3984 1106.95 93.8242L1106.76 95.6172ZM1098.48 88.4277C1097.18 88.4277 1096.08 88.8145 1095.19 89.5879C1094.31 90.3496 1093.72 91.3398 1093.42 92.5586H1103.42C1103.21 91.3398 1102.66 90.3496 1101.78 89.5879C1100.9 88.8145 1099.8 88.4277 1098.48 88.4277ZM1108.38 99.7656H1109.62C1109.69 99.6953 1109.79 99.584 1109.92 99.4316C1110.06 99.2676 1110.3 98.9102 1110.62 98.3594C1110.96 97.8086 1111.26 97.2168 1111.5 96.584C1111.76 95.9395 1111.99 95.0957 1112.19 94.0527C1112.4 93.0098 1112.51 91.9141 1112.51 90.7656V85.7207H1125.11V99.7656H1127.62V107.324H1124.04V103H1111.98V107.324H1108.38V99.7656ZM1116.11 88.9551V90.7656C1116.11 91.9141 1116.01 93.0039 1115.81 94.0352C1115.62 95.0664 1115.38 95.9219 1115.09 96.6016C1114.81 97.2695 1114.52 97.8496 1114.23 98.3418C1113.95 98.834 1113.71 99.1855 1113.53 99.3965L1113.23 99.7656H1121.51V88.9551H1116.11ZM1142.97 98.4473C1144.04 97.334 1144.57 95.9746 1144.57 94.3691C1144.57 92.752 1144.04 91.3867 1142.97 90.2734C1141.9 89.1602 1140.64 88.6035 1139.17 88.6035C1137.71 88.6035 1136.44 89.1602 1135.36 90.2734C1134.29 91.3867 1133.76 92.752 1133.76 94.3691C1133.76 95.9746 1134.29 97.334 1135.36 98.4473C1136.44 99.5605 1137.71 100.117 1139.17 100.117C1140.64 100.117 1141.9 99.5605 1142.97 98.4473ZM1132.84 100.68C1131.06 98.8867 1130.17 96.7832 1130.17 94.3691C1130.17 91.9434 1131.06 89.834 1132.84 88.041C1134.64 86.248 1136.75 85.3516 1139.17 85.3516C1141.6 85.3516 1143.7 86.248 1145.48 88.041C1147.28 89.834 1148.17 91.9434 1148.17 94.3691C1148.17 96.7832 1147.28 98.8867 1145.48 100.68C1143.7 102.461 1141.6 103.352 1139.17 103.352C1136.75 103.352 1134.64 102.461 1132.84 100.68ZM1152.13 85.7207H1160.41C1162.06 85.7207 1163.37 86.1484 1164.34 87.0039C1165.32 87.8477 1165.8 88.9199 1165.8 90.2207C1165.8 90.959 1165.64 91.6328 1165.31 92.2422C1164.99 92.8398 1164.67 93.2559 1164.33 93.4902L1163.83 93.8242C1163.9 93.8477 1164 93.8887 1164.13 93.9473C1164.26 94.0059 1164.5 94.1582 1164.84 94.4043C1165.18 94.6387 1165.47 94.9023 1165.71 95.1953C1165.97 95.4766 1166.2 95.8633 1166.4 96.3555C1166.61 96.8477 1166.72 97.3809 1166.72 97.9551C1166.72 99.4434 1166.18 100.656 1165.12 101.594C1164.06 102.531 1162.62 103 1160.78 103H1152.13V85.7207ZM1160.78 95.2656H1155.73V99.9414H1160.78C1161.49 99.9414 1162.06 99.7305 1162.48 99.3086C1162.9 98.8867 1163.11 98.3184 1163.11 97.6035C1163.11 96.959 1162.9 96.4082 1162.46 95.9512C1162.03 95.4941 1161.47 95.2656 1160.78 95.2656ZM1161.72 91.9082C1162.05 91.5801 1162.22 91.1406 1162.22 90.5898C1162.22 90.0273 1162.05 89.5879 1161.72 89.2715C1161.4 88.9434 1160.96 88.7793 1160.41 88.7793H1155.73V92.3828H1160.41C1160.96 92.3828 1161.4 92.2246 1161.72 91.9082ZM1184.52 103H1180.92V101.207C1180.87 101.254 1180.79 101.33 1180.67 101.436C1180.57 101.541 1180.35 101.717 1180.01 101.963C1179.68 102.197 1179.32 102.414 1178.93 102.613C1178.55 102.801 1178.06 102.971 1177.47 103.123C1176.89 103.275 1176.3 103.352 1175.7 103.352C1173.94 103.352 1172.48 102.842 1171.32 101.822C1170.16 100.803 1169.58 99.6367 1169.58 98.3242C1169.58 96.9062 1170.03 95.7168 1170.92 94.7559C1171.82 93.7949 1173.05 93.1855 1174.61 92.9277L1180.92 91.8379C1180.92 90.9238 1180.58 90.1562 1179.9 89.5352C1179.23 88.9141 1178.37 88.6035 1177.32 88.6035C1176.4 88.6035 1175.57 88.7969 1174.82 89.1836C1174.08 89.5586 1173.57 89.9395 1173.29 90.3262L1172.82 90.9414L1170.48 88.6035C1170.55 88.5098 1170.64 88.3926 1170.76 88.252C1170.89 88.0996 1171.16 87.8418 1171.59 87.4785C1172.02 87.1035 1172.48 86.7695 1172.96 86.4766C1173.44 86.1836 1174.07 85.9258 1174.86 85.7031C1175.65 85.4688 1176.47 85.3516 1177.32 85.3516C1179.43 85.3516 1181.15 85.9785 1182.5 87.2324C1183.85 88.4746 1184.52 90.0098 1184.52 91.8379V103ZM1176.24 100.117C1177.71 100.117 1178.85 99.6836 1179.67 98.8164C1180.5 97.9375 1180.92 96.6895 1180.92 95.0723V94.7207L1175.33 95.6172C1174.69 95.7344 1174.16 95.998 1173.77 96.4082C1173.37 96.8184 1173.17 97.334 1173.17 97.9551C1173.17 98.5293 1173.44 99.0332 1173.99 99.4668C1174.56 99.9004 1175.31 100.117 1176.24 100.117ZM1193.17 95.793V103H1189.57V85.7207H1193.17V92.5586H1201.63V85.7207H1205.23V103H1201.63V95.793H1193.17ZM1222.88 85.7207H1226.11V103H1222.51V91.6621L1213.51 103H1210.28V85.7207H1213.88V97.0586L1222.88 85.7207ZM1247.17 95.6172H1233.67C1233.86 96.8359 1234.46 97.8906 1235.46 98.7812C1236.48 99.6719 1237.69 100.117 1239.09 100.117C1240.09 100.117 1241.03 99.8887 1241.9 99.4316C1242.78 98.9746 1243.4 98.5293 1243.76 98.0957L1244.31 97.4277L1246.64 99.7656C1246.57 99.8594 1246.46 99.9941 1246.31 100.17C1246.17 100.334 1245.86 100.621 1245.38 101.031C1244.9 101.43 1244.39 101.787 1243.85 102.104C1243.31 102.408 1242.61 102.695 1241.74 102.965C1240.88 103.223 1240 103.352 1239.09 103.352C1236.64 103.352 1234.52 102.455 1232.74 100.662C1230.97 98.8574 1230.09 96.6953 1230.09 94.1758C1230.09 91.75 1230.95 89.6758 1232.67 87.9531C1234.4 86.2188 1236.48 85.3516 1238.89 85.3516C1241.32 85.3516 1243.33 86.1602 1244.94 87.7773C1246.56 89.3828 1247.37 91.3984 1247.37 93.8242L1247.17 95.6172ZM1238.89 88.4277C1237.59 88.4277 1236.5 88.8145 1235.61 89.5879C1234.73 90.3496 1234.13 91.3398 1233.83 92.5586H1243.83C1243.62 91.3398 1243.08 90.3496 1242.2 89.5879C1241.32 88.8145 1240.22 88.4277 1238.89 88.4277Z" fill="black"/>
<rect x="760.5" y="0.5" width="579" height="179" rx="89.5" stroke="black"/>
<circle cx="1430" cy="90" r="70" fill="#E3966F"/>
<path d="M1465.64 125.162C1460.81 129.836 1452.59 130.737 1442.61 127.583C1432.73 124.457 1421.64 117.467 1411.77 107.279C1401.91 97.0901 1395.28 85.7747 1392.48 75.7933C1389.65 65.7244 1390.82 57.536 1395.65 52.8624C1400.48 48.1887 1408.7 47.2877 1418.67 50.4414C1428.55 53.5677 1439.65 60.5577 1449.51 70.7461C1459.37 80.9345 1466 92.2499 1468.8 102.231C1471.63 112.3 1470.46 120.489 1465.64 125.162Z" stroke="black" stroke-width="4"/>
<path d="M1395.07 124.589C1390.31 119.838 1389.28 111.632 1392.27 101.61C1395.24 91.6754 1402.04 80.4691 1412.07 70.4422C1422.1 60.4153 1433.3 53.6065 1443.24 50.6411C1453.26 47.6497 1461.47 48.6841 1466.22 53.4356C1470.97 58.187 1472 66.3933 1469.01 76.4149C1466.05 86.3495 1459.24 97.5558 1449.21 107.583C1439.19 117.61 1427.98 124.418 1418.04 127.384C1408.02 130.375 1399.82 129.341 1395.07 124.589Z" stroke="black" stroke-width="4"/>
<path d="M1578.94 67.9551V82H1575.34V64.7207H1591V82H1587.4V67.9551H1578.94ZM1605.22 82.3516C1604.58 82.3516 1603.95 82.2754 1603.34 82.123C1602.73 81.9707 1602.21 81.7832 1601.78 81.5605C1601.34 81.3262 1600.96 81.0918 1600.62 80.8574C1600.29 80.6113 1600.05 80.418 1599.89 80.2773L1599.65 80.0137V89.5586H1596.04V64.7207H1599.65V66.707C1599.81 66.543 1600.04 66.3262 1600.33 66.0566C1600.64 65.7871 1601.28 65.4355 1602.25 65.002C1603.22 64.5684 1604.21 64.3516 1605.22 64.3516C1607.51 64.3516 1609.49 65.2305 1611.16 66.9883C1612.85 68.7344 1613.69 70.8555 1613.69 73.3516C1613.69 75.8477 1612.85 77.9746 1611.16 79.7324C1609.49 81.4785 1607.51 82.3516 1605.22 82.3516ZM1608.51 69.291C1607.45 68.166 1606.24 67.6035 1604.87 67.6035C1603.5 67.6035 1602.29 68.166 1601.23 69.291C1600.18 70.416 1599.65 71.7754 1599.65 73.3691C1599.65 74.9512 1600.18 76.3047 1601.23 77.4297C1602.29 78.5547 1603.5 79.1172 1604.87 79.1172C1606.24 79.1172 1607.45 78.5547 1608.51 77.4297C1609.56 76.3047 1610.09 74.9512 1610.09 73.3691C1610.09 71.7754 1609.56 70.416 1608.51 69.291ZM1629.36 77.4473C1630.42 76.334 1630.96 74.9746 1630.96 73.3691C1630.96 71.752 1630.42 70.3867 1629.36 69.2734C1628.29 68.1602 1627.02 67.6035 1625.56 67.6035C1624.09 67.6035 1622.82 68.1602 1621.74 69.2734C1620.68 70.3867 1620.14 71.752 1620.14 73.3691C1620.14 74.9746 1620.68 76.334 1621.74 77.4473C1622.82 78.5605 1624.09 79.1172 1625.56 79.1172C1627.02 79.1172 1628.29 78.5605 1629.36 77.4473ZM1619.23 79.6797C1617.45 77.8867 1616.56 75.7832 1616.56 73.3691C1616.56 70.9434 1617.45 68.834 1619.23 67.041C1621.02 65.248 1623.13 64.3516 1625.56 64.3516C1627.98 64.3516 1630.09 65.248 1631.87 67.041C1633.66 68.834 1634.56 70.9434 1634.56 73.3691C1634.56 75.7832 1633.66 77.8867 1631.87 79.6797C1630.09 81.4609 1627.98 82.3516 1625.56 82.3516C1623.13 82.3516 1621.02 81.4609 1619.23 79.6797ZM1647.69 82.3516C1647.04 82.3516 1646.42 82.2754 1645.81 82.123C1645.2 81.9707 1644.68 81.7832 1644.24 81.5605C1643.81 81.3262 1643.42 81.0918 1643.08 80.8574C1642.76 80.6113 1642.52 80.418 1642.36 80.2773L1642.12 80.0137V89.5586H1638.51V64.7207H1642.12V66.707C1642.28 66.543 1642.51 66.3262 1642.8 66.0566C1643.11 65.7871 1643.75 65.4355 1644.72 65.002C1645.69 64.5684 1646.68 64.3516 1647.69 64.3516C1649.97 64.3516 1651.96 65.2305 1653.63 66.9883C1655.32 68.7344 1656.16 70.8555 1656.16 73.3516C1656.16 75.8477 1655.32 77.9746 1653.63 79.7324C1651.96 81.4785 1649.97 82.3516 1647.69 82.3516ZM1650.98 69.291C1649.92 68.166 1648.71 67.6035 1647.34 67.6035C1645.97 67.6035 1644.75 68.166 1643.7 69.291C1642.64 70.416 1642.12 71.7754 1642.12 73.3691C1642.12 74.9512 1642.64 76.3047 1643.7 77.4297C1644.75 78.5547 1645.97 79.1172 1647.34 79.1172C1648.71 79.1172 1649.92 78.5547 1650.98 77.4297C1652.03 76.3047 1652.56 74.9512 1652.56 73.3691C1652.56 71.7754 1652.03 70.416 1650.98 69.291ZM1673.97 82H1670.37V80.207C1670.32 80.2539 1670.24 80.3301 1670.12 80.4355C1670.01 80.541 1669.79 80.7168 1669.45 80.9629C1669.12 81.1973 1668.77 81.4141 1668.38 81.6133C1667.99 81.8008 1667.51 81.9707 1666.92 82.123C1666.33 82.2754 1665.74 82.3516 1665.14 82.3516C1663.39 82.3516 1661.93 81.8418 1660.77 80.8223C1659.61 79.8027 1659.03 78.6367 1659.03 77.3242C1659.03 75.9062 1659.47 74.7168 1660.36 73.7559C1661.27 72.7949 1662.5 72.1855 1664.05 71.9277L1670.37 70.8379C1670.37 69.9238 1670.03 69.1562 1669.35 68.5352C1668.68 67.9141 1667.82 67.6035 1666.76 67.6035C1665.85 67.6035 1665.02 67.7969 1664.27 68.1836C1663.53 68.5586 1663.02 68.9395 1662.74 69.3262L1662.26 69.9414L1659.92 67.6035C1659.99 67.5098 1660.09 67.3926 1660.21 67.252C1660.33 67.0996 1660.61 66.8418 1661.03 66.4785C1661.46 66.1035 1661.92 65.7695 1662.4 65.4766C1662.88 65.1836 1663.52 64.9258 1664.3 64.7031C1665.1 64.4688 1665.92 64.3516 1666.76 64.3516C1668.87 64.3516 1670.6 64.9785 1671.95 66.2324C1673.29 67.4746 1673.97 69.0098 1673.97 70.8379V82ZM1665.69 79.1172C1667.15 79.1172 1668.3 78.6836 1669.12 77.8164C1669.95 76.9375 1670.37 75.6895 1670.37 74.0723V73.7207L1664.78 74.6172C1664.13 74.7344 1663.61 74.998 1663.21 75.4082C1662.81 75.8184 1662.61 76.334 1662.61 76.9551C1662.61 77.5293 1662.89 78.0332 1663.44 78.4668C1664 78.9004 1664.75 79.1172 1665.69 79.1172ZM1696.29 73.5449C1696.29 75.9707 1695.44 78.0449 1693.73 79.7676C1692.03 81.4902 1690.01 82.3516 1687.66 82.3516C1684.96 82.3516 1682.78 81.3848 1681.12 79.4512C1679.48 77.5059 1678.66 74.6934 1678.66 71.0137C1678.66 66.8184 1679.44 63.6719 1681 61.5742C1682.56 59.4766 1684.78 58.1875 1687.66 57.707C1688.94 57.4961 1690.08 57.2266 1691.09 56.8984C1692.11 56.5703 1692.81 56.2949 1693.2 56.0723L1693.78 55.7207L1695.4 58.4277C1695.33 58.5215 1695.18 58.6562 1694.96 58.832C1694.75 59.0078 1694.01 59.3242 1692.76 59.7812C1691.52 60.2383 1689.94 60.625 1688.01 60.9414C1686.36 61.2109 1685.03 61.8965 1684.02 62.998C1683.02 64.0996 1682.42 65.5762 1682.25 67.4277C1682.29 67.3574 1682.38 67.2637 1682.49 67.1465C1682.62 67.0176 1682.88 66.8008 1683.25 66.4961C1683.62 66.1797 1684.02 65.9043 1684.43 65.6699C1684.85 65.4238 1685.38 65.207 1686.03 65.0195C1686.68 64.8203 1687.35 64.7207 1688.01 64.7207C1690.19 64.7207 1692.12 65.5938 1693.78 67.3398C1695.46 69.0742 1696.29 71.1426 1696.29 73.5449ZM1684.11 69.5723C1683.12 70.6387 1682.62 71.9629 1682.62 73.5449C1682.62 75.127 1683.12 76.4512 1684.11 77.5176C1685.11 78.584 1686.29 79.1172 1687.64 79.1172C1689.02 79.1172 1690.2 78.584 1691.2 77.5176C1692.19 76.4512 1692.69 75.127 1692.69 73.5449C1692.69 71.9629 1692.19 70.6387 1691.2 69.5723C1690.2 68.4941 1689.02 67.9551 1687.64 67.9551C1686.29 67.9551 1685.11 68.4941 1684.11 69.5723ZM1712.32 77.4473C1713.39 76.334 1713.92 74.9746 1713.92 73.3691C1713.92 71.752 1713.39 70.3867 1712.32 69.2734C1711.26 68.1602 1709.99 67.6035 1708.53 67.6035C1707.06 67.6035 1705.79 68.1602 1704.71 69.2734C1703.65 70.3867 1703.11 71.752 1703.11 73.3691C1703.11 74.9746 1703.65 76.334 1704.71 77.4473C1705.79 78.5605 1707.06 79.1172 1708.53 79.1172C1709.99 79.1172 1711.26 78.5605 1712.32 77.4473ZM1702.2 79.6797C1700.42 77.8867 1699.53 75.7832 1699.53 73.3691C1699.53 70.9434 1700.42 68.834 1702.2 67.041C1703.99 65.248 1706.1 64.3516 1708.53 64.3516C1710.95 64.3516 1713.06 65.248 1714.84 67.041C1716.63 68.834 1717.53 70.9434 1717.53 73.3691C1717.53 75.7832 1716.63 77.8867 1714.84 79.6797C1713.06 81.4609 1710.95 82.3516 1708.53 82.3516C1706.1 82.3516 1703.99 81.4609 1702.2 79.6797ZM1719.69 67.9551V64.7207H1735.16V67.9551H1729.22V82H1725.63V67.9551H1719.69ZM1753.7 64.7207L1747.04 71.9277L1754.23 82H1750.28L1744.7 74.2656L1742 77.1484V82H1738.39V64.7207H1742V72.4551L1749.38 64.7207H1753.7ZM1770.96 82H1767.36V80.207C1767.31 80.2539 1767.23 80.3301 1767.12 80.4355C1767.01 80.541 1766.79 80.7168 1766.45 80.9629C1766.12 81.1973 1765.76 81.4141 1765.38 81.6133C1764.99 81.8008 1764.5 81.9707 1763.92 82.123C1763.33 82.2754 1762.74 82.3516 1762.14 82.3516C1760.38 82.3516 1758.92 81.8418 1757.76 80.8223C1756.6 79.8027 1756.02 78.6367 1756.02 77.3242C1756.02 75.9062 1756.47 74.7168 1757.36 73.7559C1758.26 72.7949 1759.49 72.1855 1761.05 71.9277L1767.36 70.8379C1767.36 69.9238 1767.02 69.1562 1766.34 68.5352C1765.67 67.9141 1764.81 67.6035 1763.76 67.6035C1762.84 67.6035 1762.01 67.7969 1761.26 68.1836C1760.52 68.5586 1760.01 68.9395 1759.73 69.3262L1759.26 69.9414L1756.92 67.6035C1756.99 67.5098 1757.08 67.3926 1757.2 67.252C1757.33 67.0996 1757.61 66.8418 1758.03 66.4785C1758.46 66.1035 1758.92 65.7695 1759.4 65.4766C1759.88 65.1836 1760.51 64.9258 1761.3 64.7031C1762.09 64.4688 1762.91 64.3516 1763.76 64.3516C1765.87 64.3516 1767.6 64.9785 1768.94 66.2324C1770.29 67.4746 1770.96 69.0098 1770.96 70.8379V82ZM1762.69 79.1172C1764.15 79.1172 1765.29 78.6836 1766.11 77.8164C1766.95 76.9375 1767.36 75.6895 1767.36 74.0723V73.7207L1761.77 74.6172C1761.13 74.7344 1760.61 74.998 1760.21 75.4082C1759.81 75.8184 1759.61 76.334 1759.61 76.9551C1759.61 77.5293 1759.88 78.0332 1760.44 78.4668C1761 78.9004 1761.75 79.1172 1762.69 79.1172ZM1589.21 124H1585.6V122.207C1585.56 122.254 1585.47 122.33 1585.36 122.436C1585.25 122.541 1585.03 122.717 1584.69 122.963C1584.36 123.197 1584 123.414 1583.62 123.613C1583.23 123.801 1582.74 123.971 1582.16 124.123C1581.57 124.275 1580.98 124.352 1580.38 124.352C1578.62 124.352 1577.17 123.842 1576.01 122.822C1574.85 121.803 1574.27 120.637 1574.27 119.324C1574.27 117.906 1574.71 116.717 1575.6 115.756C1576.5 114.795 1577.73 114.186 1579.29 113.928L1585.6 112.838C1585.6 111.924 1585.26 111.156 1584.58 110.535C1583.92 109.914 1583.05 109.604 1582 109.604C1581.09 109.604 1580.25 109.797 1579.5 110.184C1578.77 110.559 1578.26 110.939 1577.97 111.326L1577.5 111.941L1575.16 109.604C1575.23 109.51 1575.33 109.393 1575.44 109.252C1575.57 109.1 1575.85 108.842 1576.27 108.479C1576.7 108.104 1577.16 107.77 1577.64 107.477C1578.12 107.184 1578.75 106.926 1579.54 106.703C1580.34 106.469 1581.16 106.352 1582 106.352C1584.11 106.352 1585.84 106.979 1587.19 108.232C1588.53 109.475 1589.21 111.01 1589.21 112.838V124ZM1580.93 121.117C1582.39 121.117 1583.54 120.684 1584.36 119.816C1585.19 118.938 1585.6 117.689 1585.6 116.072V115.721L1580.01 116.617C1579.37 116.734 1578.85 116.998 1578.45 117.408C1578.05 117.818 1577.85 118.334 1577.85 118.955C1577.85 119.529 1578.13 120.033 1578.68 120.467C1579.24 120.9 1579.99 121.117 1580.93 121.117ZM1603.43 124.352C1602.78 124.352 1602.16 124.275 1601.55 124.123C1600.94 123.971 1600.42 123.783 1599.98 123.561C1599.55 123.326 1599.16 123.092 1598.82 122.857C1598.49 122.611 1598.25 122.418 1598.1 122.277L1597.86 122.014V131.559H1594.25V106.721H1597.86V108.707C1598.02 108.543 1598.25 108.326 1598.54 108.057C1598.85 107.787 1599.48 107.436 1600.46 107.002C1601.43 106.568 1602.42 106.352 1603.43 106.352C1605.71 106.352 1607.69 107.23 1609.37 108.988C1611.06 110.734 1611.9 112.855 1611.9 115.352C1611.9 117.848 1611.06 119.975 1609.37 121.732C1607.69 123.479 1605.71 124.352 1603.43 124.352ZM1606.71 111.291C1605.66 110.166 1604.45 109.604 1603.08 109.604C1601.71 109.604 1600.49 110.166 1599.44 111.291C1598.38 112.416 1597.86 113.775 1597.86 115.369C1597.86 116.951 1598.38 118.305 1599.44 119.43C1600.49 120.555 1601.71 121.117 1603.08 121.117C1604.45 121.117 1605.66 120.555 1606.71 119.43C1607.77 118.305 1608.3 116.951 1608.3 115.369C1608.3 113.775 1607.77 112.416 1606.71 111.291ZM1624.49 115L1630.96 124H1626.82L1622.32 117.707L1617.82 124H1613.68L1620.16 115L1614.22 106.721H1618.35L1622.32 112.293L1626.28 106.721H1630.43L1624.49 115ZM1649.85 116.617H1636.35C1636.54 117.836 1637.14 118.891 1638.14 119.781C1639.16 120.672 1640.37 121.117 1641.77 121.117C1642.77 121.117 1643.71 120.889 1644.58 120.432C1645.46 119.975 1646.08 119.529 1646.44 119.096L1646.99 118.428L1649.32 120.766C1649.25 120.859 1649.14 120.994 1648.99 121.17C1648.85 121.334 1648.54 121.621 1648.06 122.031C1647.58 122.43 1647.07 122.787 1646.53 123.104C1645.99 123.408 1645.29 123.695 1644.42 123.965C1643.56 124.223 1642.68 124.352 1641.77 124.352C1639.32 124.352 1637.2 123.455 1635.42 121.662C1633.65 119.857 1632.77 117.695 1632.77 115.176C1632.77 112.75 1633.63 110.676 1635.35 108.953C1637.08 107.219 1639.16 106.352 1641.57 106.352C1644 106.352 1646.01 107.16 1647.62 108.777C1649.24 110.383 1650.04 112.398 1650.04 114.824L1649.85 116.617ZM1641.57 109.428C1640.27 109.428 1639.18 109.814 1638.29 110.588C1637.41 111.35 1636.81 112.34 1636.51 113.559H1646.51C1646.3 112.34 1645.76 111.35 1644.88 110.588C1644 109.814 1642.9 109.428 1641.57 109.428ZM1652.19 109.955V106.721H1667.66V109.955H1661.72V124H1658.13V109.955H1652.19ZM1683.5 106.721H1686.73V124H1683.13V112.662L1674.13 124H1670.89V106.721H1674.5V118.059L1683.5 106.721ZM1695.38 109.955V124H1691.78V106.721H1707.44V124H1703.83V109.955H1695.38ZM1726.35 124H1722.75V122.207C1722.7 122.254 1722.62 122.33 1722.5 122.436C1722.4 122.541 1722.17 122.717 1721.83 122.963C1721.51 123.197 1721.15 123.414 1720.76 123.613C1720.38 123.801 1719.89 123.971 1719.3 124.123C1718.72 124.275 1718.12 124.352 1717.53 124.352C1715.77 124.352 1714.31 123.842 1713.15 122.822C1711.99 121.803 1711.41 120.637 1711.41 119.324C1711.41 117.906 1711.86 116.717 1712.75 115.756C1713.65 114.795 1714.88 114.186 1716.44 113.928L1722.75 112.838C1722.75 111.924 1722.41 111.156 1721.73 110.535C1721.06 109.914 1720.2 109.604 1719.14 109.604C1718.23 109.604 1717.4 109.797 1716.65 110.184C1715.91 110.559 1715.4 110.939 1715.12 111.326L1714.64 111.941L1712.31 109.604C1712.38 109.51 1712.47 109.393 1712.59 109.252C1712.72 109.1 1712.99 108.842 1713.41 108.479C1713.85 108.104 1714.3 107.77 1714.79 107.477C1715.27 107.184 1715.9 106.926 1716.68 106.703C1717.48 106.469 1718.3 106.352 1719.14 106.352C1721.25 106.352 1722.98 106.979 1724.33 108.232C1725.68 109.475 1726.35 111.01 1726.35 112.838V124ZM1718.07 121.117C1719.54 121.117 1720.68 120.684 1721.5 119.816C1722.33 118.938 1722.75 117.689 1722.75 116.072V115.721L1717.16 116.617C1716.51 116.734 1715.99 116.998 1715.59 117.408C1715.2 117.818 1715 118.334 1715 118.955C1715 119.529 1715.27 120.033 1715.82 120.467C1716.38 120.9 1717.13 121.117 1718.07 121.117Z" fill="black"/>
<rect x="1340.5" y="0.5" width="579" height="179" rx="89.5" stroke="black"/>
</svg>
