<svg width="1920" height="180" viewBox="0 0 1920 180" fill="none" xmlns="http://www.w3.org/2000/svg">
<path d="M155.617 94.5449C155.617 96.9707 154.762 99.0449 153.051 100.768C151.352 102.49 149.33 103.352 146.986 103.352C144.279 103.352 142.1 102.385 140.447 100.451C138.807 98.5059 137.986 95.6934 137.986 92.0137C137.986 87.8184 138.766 84.6719 140.324 82.5742C141.883 80.4766 144.104 79.1875 146.986 78.707C148.264 78.4961 149.406 78.2266 150.414 77.8984C151.434 77.5703 152.137 77.2949 152.523 77.0723L153.104 76.7207L154.721 79.4277C154.65 79.5215 154.504 79.6562 154.281 79.832C154.07 80.0078 153.338 80.3242 152.084 80.7812C150.842 81.2383 149.26 81.625 147.338 81.9414C145.686 82.2109 144.355 82.8965 143.348 83.998C142.34 85.0996 141.748 86.5762 141.572 88.4277C141.619 88.3574 141.701 88.2637 141.818 88.1465C141.947 88.0176 142.199 87.8008 142.574 87.4961C142.949 87.1797 143.342 86.9043 143.752 86.6699C144.174 86.4238 144.707 86.207 145.352 86.0195C146.008 85.8203 146.67 85.7207 147.338 85.7207C149.518 85.7207 151.439 86.5938 153.104 88.3398C154.779 90.0742 155.617 92.1426 155.617 94.5449ZM143.436 90.5723C142.439 91.6387 141.941 92.9629 141.941 94.5449C141.941 96.127 142.439 97.4512 143.436 98.5176C144.432 99.584 145.609 100.117 146.969 100.117C148.34 100.117 149.523 99.584 150.52 98.5176C151.516 97.4512 152.014 96.127 152.014 94.5449C152.014 92.9629 151.516 91.6387 150.52 90.5723C149.523 89.4941 148.34 88.9551 146.969 88.9551C145.609 88.9551 144.432 89.4941 143.436 90.5723ZM169.1 103.352C168.455 103.352 167.828 103.275 167.219 103.123C166.609 102.971 166.088 102.783 165.654 102.561C165.221 102.326 164.834 102.092 164.494 101.857C164.166 101.611 163.926 101.418 163.773 101.277L163.527 101.014V110.559H159.924V85.7207H163.527V87.707C163.691 87.543 163.92 87.3262 164.213 87.0566C164.518 86.7871 165.156 86.4355 166.129 86.002C167.102 85.5684 168.092 85.3516 169.1 85.3516C171.385 85.3516 173.365 86.2305 175.041 87.9883C176.729 89.7344 177.572 91.8555 177.572 94.3516C177.572 96.8477 176.729 98.9746 175.041 100.732C173.365 102.479 171.385 103.352 169.1 103.352ZM172.387 90.291C171.332 89.166 170.119 88.6035 168.748 88.6035C167.377 88.6035 166.164 89.166 165.109 90.291C164.055 91.416 163.527 92.7754 163.527 94.3691C163.527 95.9512 164.055 97.3047 165.109 98.4297C166.164 99.5547 167.377 100.117 168.748 100.117C170.119 100.117 171.332 99.5547 172.387 98.4297C173.441 97.3047 173.969 95.9512 173.969 94.3691C173.969 92.7754 173.441 91.416 172.387 90.291ZM194.113 85.7207H197.348V103H193.744V91.6621L184.744 103H181.51V85.7207H185.113V97.0586L194.113 85.7207ZM211.393 110.559V103.352C208.393 103.352 205.961 102.496 204.098 100.785C202.246 99.0742 201.32 96.9355 201.32 94.3691C201.32 91.791 202.246 89.6465 204.098 87.9355C205.961 86.2129 208.393 85.3516 211.393 85.3516V77.793H214.996V85.3516C217.996 85.3516 220.422 86.2129 222.273 87.9355C224.137 89.6465 225.068 91.791 225.068 94.3691C225.068 96.9355 224.137 99.0742 222.273 100.785C220.422 102.496 217.996 103.352 214.996 103.352V110.559H211.393ZM211.393 100.117V88.6035C209.354 88.6035 207.76 89.125 206.611 90.168C205.475 91.2109 204.906 92.6113 204.906 94.3691C204.906 96.1152 205.475 97.5098 206.611 98.5527C207.76 99.5957 209.354 100.117 211.393 100.117ZM214.996 88.6035V100.117C217.035 100.117 218.623 99.5957 219.76 98.5527C220.908 97.5098 221.482 96.1152 221.482 94.3691C221.482 92.6113 220.908 91.2109 219.76 90.168C218.623 89.125 217.035 88.6035 214.996 88.6035ZM241.645 85.7207H244.879V103H241.275V91.6621L232.275 103H229.041V85.7207H232.645V97.0586L241.645 85.7207ZM253.527 95.793V103H249.924V85.7207H253.527V92.5586H261.982V85.7207H265.586V103H261.982V95.793H253.527ZM282.689 85.7207V88.9551H274.234V103H270.631V85.7207H282.689Z" fill="black"/>
<circle cx="490" cy="90" r="70" fill="#F1C376"/>
<path d="M538.223 103C538.223 97.9065 534.093 93.7774 529 93.7774H474C468.907 93.7774 464.777 97.9065 464.777 103V108.054C464.777 113.147 468.907 117.276 474 117.276H523.001C524.912 117.276 526.798 117.705 528.521 118.53L538.223 123.178V119.054V103Z" stroke="black" stroke-width="3.55484"/>
<path d="M441.777 65C441.777 59.9065 445.907 55.7774 451 55.7774H506C511.093 55.7774 515.223 59.9065 515.223 65V70.0538C515.223 75.1473 511.093 79.2763 506 79.2763H456.999C455.088 79.2763 453.202 79.7049 451.479 80.5304L441.777 85.1777V81.0538V65Z" stroke="black" stroke-width="3.55484"/>
<rect x="0.5" y="0.5" width="579" height="179" rx="89.5" stroke="black"/>
<circle cx="670" cy="90" r="89.5" stroke="black"/>
<path d="M664.243 144.739L718.732 90.25M718.732 90.25L664.243 35.7611M718.732 90.25H609.754" stroke="black" stroke-width="2"/>
<circle cx="850" cy="90" r="68.2218" stroke="black" stroke-width="3.55644"/>
<path d="M810.656 92.6424C809.711 91.5781 808.95 90.6688 808.391 89.9812C808.95 89.2936 809.711 88.3843 810.656 87.32C812.857 84.8417 816.04 81.5397 819.965 78.2433C827.886 71.5924 838.496 65.245 849.974 65.245C861.453 65.245 872.063 71.5924 879.984 78.2433C883.909 81.5397 887.092 84.8417 889.293 87.32C890.238 88.3843 890.999 89.2936 891.557 89.9812C890.999 90.6688 890.238 91.5781 889.293 92.6424C887.092 95.1207 883.909 98.4227 879.984 101.719C872.063 108.37 861.453 114.717 849.974 114.717C838.496 114.717 827.886 108.37 819.965 101.719C816.04 98.4227 812.857 95.1207 810.656 92.6424Z" stroke="black" stroke-width="4.74193"/>
<circle cx="849.103" cy="89.1028" r="17.4885" fill="black"/>
<path d="M1025.44 85.7207H1028.68V103H1025.07V91.6621L1016.07 103H1012.84V85.7207H1016.44V97.0586L1025.44 85.7207ZM1035.32 100.68C1033.54 98.8867 1032.65 96.7832 1032.65 94.3691C1032.65 91.9434 1033.54 89.834 1035.32 88.041C1037.11 86.248 1039.22 85.3516 1041.65 85.3516C1043 85.3516 1044.25 85.6445 1045.41 86.2305C1046.57 86.8047 1047.4 87.3789 1047.91 87.9531L1048.66 88.7793L1046.32 91.1172C1046.21 90.9297 1046.03 90.7012 1045.78 90.4316C1045.54 90.1504 1045.02 89.7754 1044.21 89.3066C1043.42 88.8379 1042.56 88.6035 1041.65 88.6035C1040.18 88.6035 1038.91 89.1602 1037.83 90.2734C1036.77 91.3867 1036.23 92.752 1036.23 94.3691C1036.23 95.9746 1036.77 97.334 1037.83 98.4473C1038.91 99.5605 1040.18 100.117 1041.65 100.117C1042.56 100.117 1043.42 99.8887 1044.21 99.4316C1045.02 98.9746 1045.6 98.5293 1045.96 98.0957L1046.5 97.4277L1048.84 99.7656C1048.77 99.8594 1048.66 99.9941 1048.52 100.17C1048.38 100.334 1048.08 100.621 1047.61 101.031C1047.14 101.43 1046.65 101.787 1046.13 102.104C1045.62 102.408 1044.95 102.695 1044.13 102.965C1043.31 103.223 1042.48 103.352 1041.65 103.352C1039.22 103.352 1037.11 102.461 1035.32 100.68ZM1053.29 100.68C1051.5 98.8867 1050.61 96.7832 1050.61 94.3691C1050.61 91.9434 1051.5 89.834 1053.29 88.041C1055.08 86.248 1057.19 85.3516 1059.61 85.3516C1060.96 85.3516 1062.21 85.6445 1063.38 86.2305C1064.54 86.8047 1065.37 87.3789 1065.87 87.9531L1066.63 88.7793L1064.29 91.1172C1064.17 90.9297 1063.99 90.7012 1063.74 90.4316C1063.51 90.1504 1062.99 89.7754 1062.18 89.3066C1061.38 88.8379 1060.53 88.6035 1059.61 88.6035C1058.15 88.6035 1056.88 89.1602 1055.8 90.2734C1054.73 91.3867 1054.2 92.752 1054.2 94.3691C1054.2 95.9746 1054.73 97.334 1055.8 98.4473C1056.88 99.5605 1058.15 100.117 1059.61 100.117C1060.53 100.117 1061.38 99.8887 1062.18 99.4316C1062.99 98.9746 1063.57 98.5293 1063.92 98.0957L1064.46 97.4277L1066.8 99.7656C1066.73 99.8594 1066.63 99.9941 1066.49 100.17C1066.35 100.334 1066.04 100.621 1065.57 101.031C1065.1 101.43 1064.61 101.787 1064.1 102.104C1063.58 102.408 1062.91 102.695 1062.09 102.965C1061.27 103.223 1060.45 103.352 1059.61 103.352C1057.19 103.352 1055.08 102.461 1053.29 100.68ZM1072.38 85.7207H1085.7V103H1082.1V88.9551H1075.98V90.7656C1075.98 94.0586 1075.71 96.6602 1075.19 98.5703C1074.67 100.469 1074 101.74 1073.18 102.385C1072.38 103.029 1071.33 103.352 1070.04 103.352C1069.72 103.352 1069.38 103.322 1069.02 103.264C1068.67 103.205 1068.39 103.141 1068.19 103.07L1067.88 103V99.5723C1068.36 99.6895 1068.77 99.7539 1069.12 99.7656C1069.86 99.7656 1070.44 99.5664 1070.86 99.168C1071.3 98.7695 1071.65 97.8906 1071.94 96.5312C1072.23 95.1602 1072.38 93.2383 1072.38 90.7656V85.7207ZM1106.76 95.6172H1093.26C1093.45 96.8359 1094.04 97.8906 1095.05 98.7812C1096.07 99.6719 1097.28 100.117 1098.67 100.117C1099.68 100.117 1100.62 99.8887 1101.48 99.4316C1102.36 98.9746 1102.98 98.5293 1103.35 98.0957L1103.89 97.4277L1106.23 99.7656C1106.16 99.8594 1106.05 99.9941 1105.9 100.17C1105.76 100.334 1105.45 100.621 1104.96 101.031C1104.48 101.43 1103.97 101.787 1103.44 102.104C1102.9 102.408 1102.19 102.695 1101.33 102.965C1100.47 103.223 1099.59 103.352 1098.67 103.352C1096.22 103.352 1094.11 102.455 1092.33 100.662C1090.56 98.8574 1089.67 96.6953 1089.67 94.1758C1089.67 91.75 1090.53 89.6758 1092.26 87.9531C1093.99 86.2188 1096.06 85.3516 1098.48 85.3516C1100.9 85.3516 1102.92 86.1602 1104.53 87.7773C1106.14 89.3828 1106.95 91.3984 1106.95 93.8242L1106.76 95.6172ZM1098.48 88.4277C1097.18 88.4277 1096.08 88.8145 1095.19 89.5879C1094.31 90.3496 1093.72 91.3398 1093.42 92.5586H1103.42C1103.21 91.3398 1102.66 90.3496 1101.78 89.5879C1100.9 88.8145 1099.8 88.4277 1098.48 88.4277ZM1108.38 99.7656H1109.62C1109.69 99.6953 1109.79 99.584 1109.92 99.4316C1110.06 99.2676 1110.3 98.9102 1110.62 98.3594C1110.96 97.8086 1111.26 97.2168 1111.5 96.584C1111.76 95.9395 1111.99 95.0957 1112.19 94.0527C1112.4 93.0098 1112.51 91.9141 1112.51 90.7656V85.7207H1125.11V99.7656H1127.62V107.324H1124.04V103H1111.98V107.324H1108.38V99.7656ZM1116.11 88.9551V90.7656C1116.11 91.9141 1116.01 93.0039 1115.81 94.0352C1115.62 95.0664 1115.38 95.9219 1115.09 96.6016C1114.81 97.2695 1114.52 97.8496 1114.23 98.3418C1113.95 98.834 1113.71 99.1855 1113.53 99.3965L1113.23 99.7656H1121.51V88.9551H1116.11ZM1142.97 98.4473C1144.04 97.334 1144.57 95.9746 1144.57 94.3691C1144.57 92.752 1144.04 91.3867 1142.97 90.2734C1141.9 89.1602 1140.64 88.6035 1139.17 88.6035C1137.71 88.6035 1136.44 89.1602 1135.36 90.2734C1134.29 91.3867 1133.76 92.752 1133.76 94.3691C1133.76 95.9746 1134.29 97.334 1135.36 98.4473C1136.44 99.5605 1137.71 100.117 1139.17 100.117C1140.64 100.117 1141.9 99.5605 1142.97 98.4473ZM1132.84 100.68C1131.06 98.8867 1130.17 96.7832 1130.17 94.3691C1130.17 91.9434 1131.06 89.834 1132.84 88.041C1134.64 86.248 1136.75 85.3516 1139.17 85.3516C1141.6 85.3516 1143.7 86.248 1145.48 88.041C1147.28 89.834 1148.17 91.9434 1148.17 94.3691C1148.17 96.7832 1147.28 98.8867 1145.48 100.68C1143.7 102.461 1141.6 103.352 1139.17 103.352C1136.75 103.352 1134.64 102.461 1132.84 100.68ZM1152.13 85.7207H1160.41C1162.06 85.7207 1163.37 86.1484 1164.34 87.0039C1165.32 87.8477 1165.8 88.9199 1165.8 90.2207C1165.8 90.959 1165.64 91.6328 1165.31 92.2422C1164.99 92.8398 1164.67 93.2559 1164.33 93.4902L1163.83 93.8242C1163.9 93.8477 1164 93.8887 1164.13 93.9473C1164.26 94.0059 1164.5 94.1582 1164.84 94.4043C1165.18 94.6387 1165.47 94.9023 1165.71 95.1953C1165.97 95.4766 1166.2 95.8633 1166.4 96.3555C1166.61 96.8477 1166.72 97.3809 1166.72 97.9551C1166.72 99.4434 1166.18 100.656 1165.12 101.594C1164.06 102.531 1162.62 103 1160.78 103H1152.13V85.7207ZM1160.78 95.2656H1155.73V99.9414H1160.78C1161.49 99.9414 1162.06 99.7305 1162.48 99.3086C1162.9 98.8867 1163.11 98.3184 1163.11 97.6035C1163.11 96.959 1162.9 96.4082 1162.46 95.9512C1162.03 95.4941 1161.47 95.2656 1160.78 95.2656ZM1161.72 91.9082C1162.05 91.5801 1162.22 91.1406 1162.22 90.5898C1162.22 90.0273 1162.05 89.5879 1161.72 89.2715C1161.4 88.9434 1160.96 88.7793 1160.41 88.7793H1155.73V92.3828H1160.41C1160.96 92.3828 1161.4 92.2246 1161.72 91.9082ZM1184.52 103H1180.92V101.207C1180.87 101.254 1180.79 101.33 1180.67 101.436C1180.57 101.541 1180.35 101.717 1180.01 101.963C1179.68 102.197 1179.32 102.414 1178.93 102.613C1178.55 102.801 1178.06 102.971 1177.47 103.123C1176.89 103.275 1176.3 103.352 1175.7 103.352C1173.94 103.352 1172.48 102.842 1171.32 101.822C1170.16 100.803 1169.58 99.6367 1169.58 98.3242C1169.58 96.9062 1170.03 95.7168 1170.92 94.7559C1171.82 93.7949 1173.05 93.1855 1174.61 92.9277L1180.92 91.8379C1180.92 90.9238 1180.58 90.1562 1179.9 89.5352C1179.23 88.9141 1178.37 88.6035 1177.32 88.6035C1176.4 88.6035 1175.57 88.7969 1174.82 89.1836C1174.08 89.5586 1173.57 89.9395 1173.29 90.3262L1172.82 90.9414L1170.48 88.6035C1170.55 88.5098 1170.64 88.3926 1170.76 88.252C1170.89 88.0996 1171.16 87.8418 1171.59 87.4785C1172.02 87.1035 1172.48 86.7695 1172.96 86.4766C1173.44 86.1836 1174.07 85.9258 1174.86 85.7031C1175.65 85.4688 1176.47 85.3516 1177.32 85.3516C1179.43 85.3516 1181.15 85.9785 1182.5 87.2324C1183.85 88.4746 1184.52 90.0098 1184.52 91.8379V103ZM1176.24 100.117C1177.71 100.117 1178.85 99.6836 1179.67 98.8164C1180.5 97.9375 1180.92 96.6895 1180.92 95.0723V94.7207L1175.33 95.6172C1174.69 95.7344 1174.16 95.998 1173.77 96.4082C1173.37 96.8184 1173.17 97.334 1173.17 97.9551C1173.17 98.5293 1173.44 99.0332 1173.99 99.4668C1174.56 99.9004 1175.31 100.117 1176.24 100.117ZM1193.17 95.793V103H1189.57V85.7207H1193.17V92.5586H1201.63V85.7207H1205.23V103H1201.63V95.793H1193.17ZM1222.88 85.7207H1226.11V103H1222.51V91.6621L1213.51 103H1210.28V85.7207H1213.88V97.0586L1222.88 85.7207ZM1247.17 95.6172H1233.67C1233.86 96.8359 1234.46 97.8906 1235.46 98.7812C1236.48 99.6719 1237.69 100.117 1239.09 100.117C1240.09 100.117 1241.03 99.8887 1241.9 99.4316C1242.78 98.9746 1243.4 98.5293 1243.76 98.0957L1244.31 97.4277L1246.64 99.7656C1246.57 99.8594 1246.46 99.9941 1246.31 100.17C1246.17 100.334 1245.86 100.621 1245.38 101.031C1244.9 101.43 1244.39 101.787 1243.85 102.104C1243.31 102.408 1242.61 102.695 1241.74 102.965C1240.88 103.223 1240 103.352 1239.09 103.352C1236.64 103.352 1234.52 102.455 1232.74 100.662C1230.97 98.8574 1230.09 96.6953 1230.09 94.1758C1230.09 91.75 1230.95 89.6758 1232.67 87.9531C1234.4 86.2188 1236.48 85.3516 1238.89 85.3516C1241.32 85.3516 1243.33 86.1602 1244.94 87.7773C1246.56 89.3828 1247.37 91.3984 1247.37 93.8242L1247.17 95.6172ZM1238.89 88.4277C1237.59 88.4277 1236.5 88.8145 1235.61 89.5879C1234.73 90.3496 1234.13 91.3398 1233.83 92.5586H1243.83C1243.62 91.3398 1243.08 90.3496 1242.2 89.5879C1241.32 88.8145 1240.22 88.4277 1238.89 88.4277Z" fill="black"/>
<rect x="760.5" y="0.5" width="579" height="179" rx="89.5" stroke="black"/>
<circle cx="1430" cy="90" r="70" fill="#E3966F"/>
<circle cx="1430.5" cy="87.5" r="49.7218" stroke="black" stroke-width="3.55644"/>
<circle cx="1430.5" cy="87.5" r="34.7218" stroke="black" stroke-width="3.55644"/>
<circle cx="1430.5" cy="87.5" r="18.7218" stroke="black" stroke-width="3.55644"/>
<circle cx="1430.5" cy="87.5" r="8.5" fill="black"/>
<path d="M1590.65 64.7207L1583.99 71.9277L1591.18 82H1587.22L1581.65 74.2656L1578.94 77.1484V82H1575.34V64.7207H1578.94V72.4551L1586.32 64.7207H1590.65ZM1603.22 82.3516C1602.57 82.3516 1601.95 82.2754 1601.34 82.123C1600.73 81.9707 1600.21 81.7832 1599.77 81.5605C1599.34 81.3262 1598.95 81.0918 1598.61 80.8574C1598.28 80.6113 1598.04 80.418 1597.89 80.2773L1597.64 80.0137V89.5586H1594.04V64.7207H1597.64V66.707C1597.81 66.543 1598.04 66.3262 1598.33 66.0566C1598.63 65.7871 1599.27 65.4355 1600.25 65.002C1601.22 64.5684 1602.21 64.3516 1603.22 64.3516C1605.5 64.3516 1607.48 65.2305 1609.16 66.9883C1610.85 68.7344 1611.69 70.8555 1611.69 73.3516C1611.69 75.8477 1610.85 77.9746 1609.16 79.7324C1607.48 81.4785 1605.5 82.3516 1603.22 82.3516ZM1606.5 69.291C1605.45 68.166 1604.24 67.6035 1602.87 67.6035C1601.49 67.6035 1600.28 68.166 1599.23 69.291C1598.17 70.416 1597.64 71.7754 1597.64 73.3691C1597.64 74.9512 1598.17 76.3047 1599.23 77.4297C1600.28 78.5547 1601.49 79.1172 1602.87 79.1172C1604.24 79.1172 1605.45 78.5547 1606.5 77.4297C1607.56 76.3047 1608.09 74.9512 1608.09 73.3691C1608.09 71.7754 1607.56 70.416 1606.5 69.291ZM1631.64 74.6172H1618.14C1618.33 75.8359 1618.93 76.8906 1619.93 77.7812C1620.95 78.6719 1622.16 79.1172 1623.55 79.1172C1624.56 79.1172 1625.5 78.8887 1626.37 78.4316C1627.25 77.9746 1627.87 77.5293 1628.23 77.0957L1628.78 76.4277L1631.11 78.7656C1631.04 78.8594 1630.93 78.9941 1630.78 79.1699C1630.64 79.334 1630.33 79.6211 1629.85 80.0312C1629.37 80.4297 1628.86 80.7871 1628.32 81.1035C1627.78 81.4082 1627.08 81.6953 1626.21 81.9648C1625.35 82.2227 1624.47 82.3516 1623.55 82.3516C1621.11 82.3516 1618.99 81.4551 1617.21 79.6621C1615.44 77.8574 1614.55 75.6953 1614.55 73.1758C1614.55 70.75 1615.42 68.6758 1617.14 66.9531C1618.87 65.2188 1620.95 64.3516 1623.36 64.3516C1625.79 64.3516 1627.8 65.1602 1629.41 66.7773C1631.03 68.3828 1631.83 70.3984 1631.83 72.8242L1631.64 74.6172ZM1623.36 67.4277C1622.06 67.4277 1620.96 67.8145 1620.07 68.5879C1619.2 69.3496 1618.6 70.3398 1618.3 71.5586H1628.3C1628.09 70.3398 1627.54 69.3496 1626.67 68.5879C1625.79 67.8145 1624.69 67.4277 1623.36 67.4277ZM1649.64 82H1646.04V80.207C1645.99 80.2539 1645.91 80.3301 1645.79 80.4355C1645.69 80.541 1645.46 80.7168 1645.12 80.9629C1644.79 81.1973 1644.44 81.4141 1644.05 81.6133C1643.66 81.8008 1643.18 81.9707 1642.59 82.123C1642.01 82.2754 1641.41 82.3516 1640.82 82.3516C1639.06 82.3516 1637.6 81.8418 1636.44 80.8223C1635.28 79.8027 1634.7 78.6367 1634.7 77.3242C1634.7 75.9062 1635.14 74.7168 1636.04 73.7559C1636.94 72.7949 1638.17 72.1855 1639.73 71.9277L1646.04 70.8379C1646.04 69.9238 1645.7 69.1562 1645.02 68.5352C1644.35 67.9141 1643.49 67.6035 1642.43 67.6035C1641.52 67.6035 1640.69 67.7969 1639.94 68.1836C1639.2 68.5586 1638.69 68.9395 1638.41 69.3262L1637.93 69.9414L1635.6 67.6035C1635.67 67.5098 1635.76 67.3926 1635.88 67.252C1636.01 67.0996 1636.28 66.8418 1636.7 66.4785C1637.14 66.1035 1637.59 65.7695 1638.07 65.4766C1638.55 65.1836 1639.19 64.9258 1639.97 64.7031C1640.77 64.4688 1641.59 64.3516 1642.43 64.3516C1644.54 64.3516 1646.27 64.9785 1647.62 66.2324C1648.97 67.4746 1649.64 69.0098 1649.64 70.8379V82ZM1641.36 79.1172C1642.83 79.1172 1643.97 78.6836 1644.79 77.8164C1645.62 76.9375 1646.04 75.6895 1646.04 74.0723V73.7207L1640.45 74.6172C1639.8 74.7344 1639.28 74.998 1638.88 75.4082C1638.48 75.8184 1638.29 76.334 1638.29 76.9551C1638.29 77.5293 1638.56 78.0332 1639.11 78.4668C1639.67 78.9004 1640.42 79.1172 1641.36 79.1172ZM1652.89 67.9551V64.7207H1668.36V67.9551H1662.42V82H1658.83V67.9551H1652.89ZM1684.2 64.7207H1687.43V82H1683.83V70.6621L1674.83 82H1671.6V64.7207H1675.2V76.0586L1684.2 64.7207ZM1692.48 64.7207H1700.76C1702.41 64.7207 1703.72 65.1484 1704.7 66.0039C1705.67 66.8477 1706.15 67.9199 1706.15 69.2207C1706.15 69.959 1705.99 70.6328 1705.66 71.2422C1705.35 71.8398 1705.02 72.2559 1704.68 72.4902L1704.19 72.8242C1704.26 72.8477 1704.36 72.8887 1704.48 72.9473C1704.61 73.0059 1704.85 73.1582 1705.19 73.4043C1705.53 73.6387 1705.82 73.9023 1706.07 74.1953C1706.32 74.4766 1706.55 74.8633 1706.75 75.3555C1706.96 75.8477 1707.07 76.3809 1707.07 76.9551C1707.07 78.4434 1706.54 79.6562 1705.47 80.5938C1704.41 81.5312 1702.97 82 1701.13 82H1692.48V64.7207ZM1701.13 74.2656H1696.08V78.9414H1701.13C1701.84 78.9414 1702.41 78.7305 1702.83 78.3086C1703.25 77.8867 1703.46 77.3184 1703.46 76.6035C1703.46 75.959 1703.25 75.4082 1702.81 74.9512C1702.38 74.4941 1701.82 74.2656 1701.13 74.2656ZM1702.08 70.9082C1702.4 70.5801 1702.57 70.1406 1702.57 69.5898C1702.57 69.0273 1702.4 68.5879 1702.08 68.2715C1701.75 67.9434 1701.31 67.7793 1700.76 67.7793H1696.08V71.3828H1700.76C1701.31 71.3828 1701.75 71.2246 1702.08 70.9082ZM1714.61 74.793V82H1711.01V64.7207H1714.61V71.5586H1723.06V64.7207H1726.67V82H1723.06V74.793H1714.61ZM1745.58 82H1741.98V80.207C1741.93 80.2539 1741.85 80.3301 1741.73 80.4355C1741.63 80.541 1741.4 80.7168 1741.06 80.9629C1740.74 81.1973 1740.38 81.4141 1739.99 81.6133C1739.61 81.8008 1739.12 81.9707 1738.53 82.123C1737.95 82.2754 1737.36 82.3516 1736.76 82.3516C1735 82.3516 1733.54 81.8418 1732.38 80.8223C1731.22 79.8027 1730.64 78.6367 1730.64 77.3242C1730.64 75.9062 1731.09 74.7168 1731.98 73.7559C1732.88 72.7949 1734.11 72.1855 1735.67 71.9277L1741.98 70.8379C1741.98 69.9238 1741.64 69.1562 1740.96 68.5352C1740.29 67.9141 1739.43 67.6035 1738.38 67.6035C1737.46 67.6035 1736.63 67.7969 1735.88 68.1836C1735.14 68.5586 1734.63 68.9395 1734.35 69.3262L1733.88 69.9414L1731.54 67.6035C1731.61 67.5098 1731.7 67.3926 1731.82 67.252C1731.95 67.0996 1732.22 66.8418 1732.64 66.4785C1733.08 66.1035 1733.54 65.7695 1734.02 65.4766C1734.5 65.1836 1735.13 64.9258 1735.91 64.7031C1736.71 64.4688 1737.53 64.3516 1738.38 64.3516C1740.48 64.3516 1742.21 64.9785 1743.56 66.2324C1744.91 67.4746 1745.58 69.0098 1745.58 70.8379V82ZM1737.3 79.1172C1738.77 79.1172 1739.91 78.6836 1740.73 77.8164C1741.56 76.9375 1741.98 75.6895 1741.98 74.0723V73.7207L1736.39 74.6172C1735.74 74.7344 1735.22 74.998 1734.82 75.4082C1734.43 75.8184 1734.23 76.334 1734.23 76.9551C1734.23 77.5293 1734.5 78.0332 1735.05 78.4668C1735.62 78.9004 1736.37 79.1172 1737.3 79.1172ZM1756.39 64.7207H1764.3V82H1760.72V76.6035H1756.94L1753.51 82H1749.55L1753.33 76.0586C1753.24 76.0352 1753.11 75.9824 1752.95 75.9004C1752.79 75.8184 1752.53 75.6367 1752.14 75.3555C1751.75 75.0625 1751.41 74.7285 1751.1 74.3535C1750.81 73.9785 1750.53 73.4629 1750.28 72.8066C1750.03 72.1387 1749.91 71.4238 1749.91 70.6621C1749.91 68.9395 1750.5 67.5215 1751.68 66.4082C1752.88 65.2832 1754.45 64.7207 1756.39 64.7207ZM1760.72 67.7793H1756.39C1755.57 67.7793 1754.89 68.0547 1754.34 68.6055C1753.79 69.1562 1753.51 69.8418 1753.51 70.6621C1753.51 71.4824 1753.79 72.168 1754.34 72.7188C1754.89 73.2695 1755.57 73.5449 1756.39 73.5449H1760.72V67.7793ZM1590.65 106.721L1583.99 113.928L1591.18 124H1587.22L1581.65 116.266L1578.94 119.148V124H1575.34V106.721H1578.94V114.455L1586.32 106.721H1590.65ZM1605.03 119.447C1606.09 118.334 1606.63 116.975 1606.63 115.369C1606.63 113.752 1606.09 112.387 1605.03 111.273C1603.96 110.16 1602.7 109.604 1601.23 109.604C1599.77 109.604 1598.49 110.16 1597.42 111.273C1596.35 112.387 1595.82 113.752 1595.82 115.369C1595.82 116.975 1596.35 118.334 1597.42 119.447C1598.49 120.561 1599.77 121.117 1601.23 121.117C1602.7 121.117 1603.96 120.561 1605.03 119.447ZM1594.9 121.68C1593.12 119.887 1592.23 117.783 1592.23 115.369C1592.23 112.943 1593.12 110.834 1594.9 109.041C1596.7 107.248 1598.8 106.352 1601.23 106.352C1603.66 106.352 1605.76 107.248 1607.54 109.041C1609.33 110.834 1610.23 112.943 1610.23 115.369C1610.23 117.783 1609.33 119.887 1607.54 121.68C1605.76 123.461 1603.66 124.352 1601.23 124.352C1598.8 124.352 1596.7 123.461 1594.9 121.68ZM1617.79 116.793V124H1614.19V106.721H1617.79V113.559H1626.24V106.721H1629.85V124H1626.24V116.793H1617.79ZM1634.89 124V106.721H1638.5V120.766H1646.6V106.721H1650.2V120.766H1652.72V128.324H1649.11V124H1634.89ZM1672.32 116.617H1658.82C1659 117.836 1659.6 118.891 1660.61 119.781C1661.63 120.672 1662.84 121.117 1664.23 121.117C1665.24 121.117 1666.18 120.889 1667.04 120.432C1667.92 119.975 1668.54 119.529 1668.91 119.096L1669.45 118.428L1671.79 120.766C1671.72 120.859 1671.61 120.994 1671.46 121.17C1671.31 121.334 1671 121.621 1670.52 122.031C1670.04 122.43 1669.53 122.787 1668.99 123.104C1668.46 123.408 1667.75 123.695 1666.88 123.965C1666.03 124.223 1665.14 124.352 1664.23 124.352C1661.78 124.352 1659.67 123.455 1657.88 121.662C1656.12 119.857 1655.23 117.695 1655.23 115.176C1655.23 112.75 1656.09 110.676 1657.81 108.953C1659.55 107.219 1661.62 106.352 1664.04 106.352C1666.46 106.352 1668.48 107.16 1670.08 108.777C1671.7 110.383 1672.51 112.398 1672.51 114.824L1672.32 116.617ZM1664.04 109.428C1662.74 109.428 1661.64 109.814 1660.75 110.588C1659.87 111.35 1659.28 112.34 1658.97 113.559H1668.98C1668.77 112.34 1668.22 111.35 1667.34 110.588C1666.46 109.814 1665.36 109.428 1664.04 109.428ZM1680.05 109.955V124H1676.45V106.721H1692.11V124H1688.51V109.955H1680.05ZM1697.15 124V106.721H1700.76V120.766H1708.86V106.721H1712.46V120.766H1714.98V128.324H1711.38V124H1697.15ZM1731.17 106.721H1734.4V124H1730.8V112.662L1721.8 124H1718.56V106.721H1722.17V118.059L1731.17 106.721ZM1745.21 106.721H1753.12V124H1749.54V118.604H1745.76L1742.33 124H1738.38L1742.15 118.059C1742.06 118.035 1741.93 117.982 1741.77 117.9C1741.62 117.818 1741.35 117.637 1740.96 117.355C1740.57 117.062 1740.23 116.729 1739.92 116.354C1739.63 115.979 1739.35 115.463 1739.1 114.807C1738.85 114.139 1738.73 113.424 1738.73 112.662C1738.73 110.939 1739.32 109.521 1740.5 108.408C1741.7 107.283 1743.27 106.721 1745.21 106.721ZM1749.54 109.779H1745.21C1744.39 109.779 1743.71 110.055 1743.16 110.605C1742.61 111.156 1742.33 111.842 1742.33 112.662C1742.33 113.482 1742.61 114.168 1743.16 114.719C1743.71 115.27 1744.39 115.545 1745.21 115.545H1749.54V109.779Z" fill="black"/>
<rect x="1340.5" y="0.5" width="579" height="179" rx="89.5" stroke="black"/>
</svg>
