<svg width="1920" height="180" viewBox="0 0 1920 180" fill="none" xmlns="http://www.w3.org/2000/svg">
<path d="M1297.62 94.5449C1297.62 96.9707 1296.76 99.0449 1295.05 100.768C1293.35 102.49 1291.33 103.352 1288.99 103.352C1286.28 103.352 1284.1 102.385 1282.45 100.451C1280.81 98.5059 1279.99 95.6934 1279.99 92.0137C1279.99 87.8184 1280.77 84.6719 1282.32 82.5742C1283.88 80.4766 1286.1 79.1875 1288.99 78.707C1290.26 78.4961 1291.41 78.2266 1292.41 77.8984C1293.43 77.5703 1294.14 77.2949 1294.52 77.0723L1295.1 76.7207L1296.72 79.4277C1296.65 79.5215 1296.5 79.6562 1296.28 79.832C1296.07 80.0078 1295.34 80.3242 1294.08 80.7812C1292.84 81.2383 1291.26 81.625 1289.34 81.9414C1287.69 82.2109 1286.36 82.8965 1285.35 83.998C1284.34 85.0996 1283.75 86.5762 1283.57 88.4277C1283.62 88.3574 1283.7 88.2637 1283.82 88.1465C1283.95 88.0176 1284.2 87.8008 1284.57 87.4961C1284.95 87.1797 1285.34 86.9043 1285.75 86.6699C1286.17 86.4238 1286.71 86.207 1287.35 86.0195C1288.01 85.8203 1288.67 85.7207 1289.34 85.7207C1291.52 85.7207 1293.44 86.5938 1295.1 88.3398C1296.78 90.0742 1297.62 92.1426 1297.62 94.5449ZM1285.44 90.5723C1284.44 91.6387 1283.94 92.9629 1283.94 94.5449C1283.94 96.127 1284.44 97.4512 1285.44 98.5176C1286.43 99.584 1287.61 100.117 1288.97 100.117C1290.34 100.117 1291.52 99.584 1292.52 98.5176C1293.52 97.4512 1294.01 96.127 1294.01 94.5449C1294.01 92.9629 1293.52 91.6387 1292.52 90.5723C1291.52 89.4941 1290.34 88.9551 1288.97 88.9551C1287.61 88.9551 1286.43 89.4941 1285.44 90.5723ZM1311.1 103.352C1310.46 103.352 1309.83 103.275 1309.22 103.123C1308.61 102.971 1308.09 102.783 1307.65 102.561C1307.22 102.326 1306.83 102.092 1306.49 101.857C1306.17 101.611 1305.93 101.418 1305.77 101.277L1305.53 101.014V110.559H1301.92V85.7207H1305.53V87.707C1305.69 87.543 1305.92 87.3262 1306.21 87.0566C1306.52 86.7871 1307.16 86.4355 1308.13 86.002C1309.1 85.5684 1310.09 85.3516 1311.1 85.3516C1313.38 85.3516 1315.37 86.2305 1317.04 87.9883C1318.73 89.7344 1319.57 91.8555 1319.57 94.3516C1319.57 96.8477 1318.73 98.9746 1317.04 100.732C1315.37 102.479 1313.38 103.352 1311.1 103.352ZM1314.39 90.291C1313.33 89.166 1312.12 88.6035 1310.75 88.6035C1309.38 88.6035 1308.16 89.166 1307.11 90.291C1306.05 91.416 1305.53 92.7754 1305.53 94.3691C1305.53 95.9512 1306.05 97.3047 1307.11 98.4297C1308.16 99.5547 1309.38 100.117 1310.75 100.117C1312.12 100.117 1313.33 99.5547 1314.39 98.4297C1315.44 97.3047 1315.97 95.9512 1315.97 94.3691C1315.97 92.7754 1315.44 91.416 1314.39 90.291ZM1339.52 95.6172H1326.02C1326.21 96.8359 1326.81 97.8906 1327.82 98.7812C1328.84 99.6719 1330.04 100.117 1331.44 100.117C1332.45 100.117 1333.38 99.8887 1334.25 99.4316C1335.13 98.9746 1335.75 98.5293 1336.11 98.0957L1336.66 97.4277L1339 99.7656C1338.93 99.8594 1338.81 99.9941 1338.66 100.17C1338.52 100.334 1338.21 100.621 1337.73 101.031C1337.25 101.43 1336.74 101.787 1336.2 102.104C1335.66 102.408 1334.96 102.695 1334.09 102.965C1333.24 103.223 1332.35 103.352 1331.44 103.352C1328.99 103.352 1326.87 102.455 1325.09 100.662C1323.32 98.8574 1322.44 96.6953 1322.44 94.1758C1322.44 91.75 1323.3 89.6758 1325.02 87.9531C1326.76 86.2188 1328.83 85.3516 1331.24 85.3516C1333.67 85.3516 1335.69 86.1602 1337.29 87.7773C1338.91 89.3828 1339.72 91.3984 1339.72 93.8242L1339.52 95.6172ZM1331.24 88.4277C1329.94 88.4277 1328.85 88.8145 1327.96 89.5879C1327.08 90.3496 1326.49 91.3398 1326.18 92.5586H1336.18C1335.97 91.3398 1335.43 90.3496 1334.55 89.5879C1333.67 88.8145 1332.57 88.4277 1331.24 88.4277ZM1347.26 95.793V103H1343.65V85.7207H1347.26V92.5586H1355.71V85.7207H1359.32V103H1355.71V95.793H1347.26ZM1361.85 99.7656H1363.1C1363.17 99.6953 1363.27 99.584 1363.39 99.4316C1363.54 99.2676 1363.77 98.9102 1364.1 98.3594C1364.44 97.8086 1364.73 97.2168 1364.98 96.584C1365.23 95.9395 1365.46 95.0957 1365.66 94.0527C1365.87 93.0098 1365.98 91.9141 1365.98 90.7656V85.7207H1378.58V99.7656H1381.1V107.324H1377.51V103H1365.45V107.324H1361.85V99.7656ZM1369.58 88.9551V90.7656C1369.58 91.9141 1369.48 93.0039 1369.28 94.0352C1369.1 95.0664 1368.86 95.9219 1368.56 96.6016C1368.28 97.2695 1367.99 97.8496 1367.7 98.3418C1367.42 98.834 1367.19 99.1855 1367 99.3965L1366.7 99.7656H1374.98V88.9551H1369.58ZM1402 94.5449C1402 96.9707 1401.14 99.0449 1399.43 100.768C1397.73 102.49 1395.71 103.352 1393.37 103.352C1390.66 103.352 1388.48 102.385 1386.83 100.451C1385.19 98.5059 1384.37 95.6934 1384.37 92.0137C1384.37 87.8184 1385.14 84.6719 1386.7 82.5742C1388.26 80.4766 1390.48 79.1875 1393.37 78.707C1394.64 78.4961 1395.79 78.2266 1396.79 77.8984C1397.81 77.5703 1398.52 77.2949 1398.9 77.0723L1399.48 76.7207L1401.1 79.4277C1401.03 79.5215 1400.88 79.6562 1400.66 79.832C1400.45 80.0078 1399.72 80.3242 1398.46 80.7812C1397.22 81.2383 1395.64 81.625 1393.72 81.9414C1392.06 82.2109 1390.73 82.8965 1389.73 83.998C1388.72 85.0996 1388.13 86.5762 1387.95 88.4277C1388 88.3574 1388.08 88.2637 1388.2 88.1465C1388.33 88.0176 1388.58 87.8008 1388.95 87.4961C1389.33 87.1797 1389.72 86.9043 1390.13 86.6699C1390.55 86.4238 1391.09 86.207 1391.73 86.0195C1392.39 85.8203 1393.05 85.7207 1393.72 85.7207C1395.9 85.7207 1397.82 86.5938 1399.48 88.3398C1401.16 90.0742 1402 92.1426 1402 94.5449ZM1389.81 90.5723C1388.82 91.6387 1388.32 92.9629 1388.32 94.5449C1388.32 96.127 1388.82 97.4512 1389.81 98.5176C1390.81 99.584 1391.99 100.117 1393.35 100.117C1394.72 100.117 1395.9 99.584 1396.9 98.5176C1397.89 97.4512 1398.39 96.127 1398.39 94.5449C1398.39 92.9629 1397.89 91.6387 1396.9 90.5723C1395.9 89.4941 1394.72 88.9551 1393.35 88.9551C1391.99 88.9551 1390.81 89.4941 1389.81 90.5723ZM1410.45 104.793L1411.17 103L1404.14 85.7207H1407.92L1412.96 98.3242L1418.01 85.7207H1421.79L1414.04 104.793C1413.15 106.926 1412.26 108.42 1411.38 109.275C1410.52 110.131 1409.43 110.559 1408.11 110.559C1407.63 110.559 1407.18 110.529 1406.76 110.471C1406.34 110.412 1406.03 110.348 1405.83 110.277L1405.58 110.207V106.955C1406.18 107.189 1406.78 107.312 1407.39 107.324C1408.76 107.312 1409.78 106.469 1410.45 104.793ZM1439.96 85.7207L1433.3 92.9277L1440.49 103H1436.54L1430.96 95.2656L1428.26 98.1484V103H1424.65V85.7207H1428.26V93.4551L1435.64 85.7207H1439.96Z" fill="black"/>
<circle cx="1830" cy="90" r="70" fill="#CD93AF"/>
<path d="M1794.67 61H1863.17L1794.67 91H1863.17L1794.67 119.5H1863.17" stroke="black" stroke-width="3"/>
<rect x="960.5" y="0.5" width="959" height="179" rx="89.5" stroke="black"/>
<path d="M228.338 110.559V103.352C225.338 103.352 222.906 102.496 221.043 100.785C219.191 99.0742 218.266 96.9355 218.266 94.3691C218.266 91.791 219.191 89.6465 221.043 87.9355C222.906 86.2129 225.338 85.3516 228.338 85.3516V77.793H231.941V85.3516C234.941 85.3516 237.367 86.2129 239.219 87.9355C241.082 89.6465 242.014 91.791 242.014 94.3691C242.014 96.9355 241.082 99.0742 239.219 100.785C237.367 102.496 234.941 103.352 231.941 103.352V110.559H228.338ZM228.338 100.117V88.6035C226.299 88.6035 224.705 89.125 223.557 90.168C222.42 91.2109 221.852 92.6113 221.852 94.3691C221.852 96.1152 222.42 97.5098 223.557 98.5527C224.705 99.5957 226.299 100.117 228.338 100.117ZM231.941 88.6035V100.117C233.98 100.117 235.568 99.5957 236.705 98.5527C237.854 97.5098 238.428 96.1152 238.428 94.3691C238.428 92.6113 237.854 91.2109 236.705 90.168C235.568 89.125 233.98 88.6035 231.941 88.6035ZM258.59 85.7207H261.824V103H258.221V91.6621L249.221 103H245.986V85.7207H249.59V97.0586L258.59 85.7207ZM276.045 103.352C275.4 103.352 274.773 103.275 274.164 103.123C273.555 102.971 273.033 102.783 272.6 102.561C272.166 102.326 271.779 102.092 271.439 101.857C271.111 101.611 270.871 101.418 270.719 101.277L270.473 101.014V110.559H266.869V85.7207H270.473V87.707C270.637 87.543 270.865 87.3262 271.158 87.0566C271.463 86.7871 272.102 86.4355 273.074 86.002C274.047 85.5684 275.037 85.3516 276.045 85.3516C278.33 85.3516 280.311 86.2305 281.986 87.9883C283.674 89.7344 284.518 91.8555 284.518 94.3516C284.518 96.8477 283.674 98.9746 281.986 100.732C280.311 102.479 278.33 103.352 276.045 103.352ZM279.332 90.291C278.277 89.166 277.064 88.6035 275.693 88.6035C274.322 88.6035 273.109 89.166 272.055 90.291C271 91.416 270.473 92.7754 270.473 94.3691C270.473 95.9512 271 97.3047 272.055 98.4297C273.109 99.5547 274.322 100.117 275.693 100.117C277.064 100.117 278.277 99.5547 279.332 98.4297C280.387 97.3047 280.914 95.9512 280.914 94.3691C280.914 92.7754 280.387 91.416 279.332 90.291ZM297.631 93.2793L303.941 85.7207H306.824V103H303.221V91.6621L297.631 98.3242L292.059 91.6621V103H288.455V85.7207H291.338L297.631 93.2793ZM327.883 95.6172H314.383C314.57 96.8359 315.168 97.8906 316.176 98.7812C317.195 99.6719 318.402 100.117 319.797 100.117C320.805 100.117 321.742 99.8887 322.609 99.4316C323.488 98.9746 324.109 98.5293 324.473 98.0957L325.018 97.4277L327.355 99.7656C327.285 99.8594 327.174 99.9941 327.021 100.17C326.881 100.334 326.57 100.621 326.09 101.031C325.609 101.43 325.1 101.787 324.561 102.104C324.021 102.408 323.318 102.695 322.451 102.965C321.596 103.223 320.711 103.352 319.797 103.352C317.348 103.352 315.232 102.455 313.451 100.662C311.682 98.8574 310.797 96.6953 310.797 94.1758C310.797 91.75 311.658 89.6758 313.381 87.9531C315.115 86.2188 317.189 85.3516 319.604 85.3516C322.029 85.3516 324.045 86.1602 325.65 87.7773C327.268 89.3828 328.076 91.3984 328.076 93.8242L327.883 95.6172ZM319.604 88.4277C318.303 88.4277 317.207 88.8145 316.316 89.5879C315.438 90.3496 314.846 91.3398 314.541 92.5586H324.543C324.332 91.3398 323.787 90.3496 322.908 89.5879C322.029 88.8145 320.928 88.4277 319.604 88.4277ZM335.617 95.793V103H332.014V85.7207H335.617V92.5586H344.072V85.7207H347.676V103H344.072V95.793H335.617ZM356.324 95.793V103H352.721V85.7207H356.324V92.5586H364.779V85.7207H368.383V103H364.779V95.793H356.324ZM377.031 99.9414H380.811C381.631 99.9414 382.316 99.666 382.867 99.1152C383.418 98.5645 383.693 97.8789 383.693 97.0586C383.693 96.2383 383.418 95.5527 382.867 95.002C382.316 94.4512 381.631 94.1758 380.811 94.1758H377.031V99.9414ZM385.504 92.8047C386.699 93.918 387.297 95.3418 387.297 97.0762C387.297 98.7988 386.699 100.217 385.504 101.33C384.32 102.443 382.756 103 380.811 103H373.428V85.7207H377.031V91.1172H380.811C382.756 91.1172 384.32 91.6797 385.504 92.8047ZM393.414 85.7207V103H389.811V85.7207H393.414ZM414.473 95.6172H400.973C401.16 96.8359 401.758 97.8906 402.766 98.7812C403.785 99.6719 404.992 100.117 406.387 100.117C407.395 100.117 408.332 99.8887 409.199 99.4316C410.078 98.9746 410.699 98.5293 411.062 98.0957L411.607 97.4277L413.945 99.7656C413.875 99.8594 413.764 99.9941 413.611 100.17C413.471 100.334 413.16 100.621 412.68 101.031C412.199 101.43 411.689 101.787 411.15 102.104C410.611 102.408 409.908 102.695 409.041 102.965C408.186 103.223 407.301 103.352 406.387 103.352C403.938 103.352 401.822 102.455 400.041 100.662C398.271 98.8574 397.387 96.6953 397.387 94.1758C397.387 91.75 398.248 89.6758 399.971 87.9531C401.705 86.2188 403.779 85.3516 406.193 85.3516C408.619 85.3516 410.635 86.1602 412.24 87.7773C413.857 89.3828 414.666 91.3984 414.666 93.8242L414.473 95.6172ZM406.193 88.4277C404.893 88.4277 403.797 88.8145 402.906 89.5879C402.027 90.3496 401.436 91.3398 401.131 92.5586H411.133C410.922 91.3398 410.377 90.3496 409.498 89.5879C408.619 88.8145 407.518 88.4277 406.193 88.4277ZM429.414 95.793V103H425.811V85.7207H429.414V92.5586H437.869V85.7207H441.473V103H437.869V95.793H429.414ZM458.242 98.4473C459.309 97.334 459.842 95.9746 459.842 94.3691C459.842 92.752 459.309 91.3867 458.242 90.2734C457.176 89.1602 455.91 88.6035 454.445 88.6035C452.98 88.6035 451.709 89.1602 450.631 90.2734C449.564 91.3867 449.031 92.752 449.031 94.3691C449.031 95.9746 449.564 97.334 450.631 98.4473C451.709 99.5605 452.98 100.117 454.445 100.117C455.91 100.117 457.176 99.5605 458.242 98.4473ZM448.117 100.68C446.336 98.8867 445.445 96.7832 445.445 94.3691C445.445 91.9434 446.336 89.834 448.117 88.041C449.91 86.248 452.02 85.3516 454.445 85.3516C456.871 85.3516 458.975 86.248 460.756 88.041C462.549 89.834 463.445 91.9434 463.445 94.3691C463.445 96.7832 462.549 98.8867 460.756 100.68C458.975 102.461 456.871 103.352 454.445 103.352C452.02 103.352 449.91 102.461 448.117 100.68ZM469 100.68C467.219 98.8867 466.328 96.7832 466.328 94.3691C466.328 91.9434 467.219 89.834 469 88.041C470.793 86.248 472.902 85.3516 475.328 85.3516C476.676 85.3516 477.93 85.6445 479.09 86.2305C480.25 86.8047 481.082 87.3789 481.586 87.9531L482.342 88.7793L480.004 91.1172C479.887 90.9297 479.705 90.7012 479.459 90.4316C479.225 90.1504 478.703 89.7754 477.895 89.3066C477.098 88.8379 476.242 88.6035 475.328 88.6035C473.863 88.6035 472.592 89.1602 471.514 90.2734C470.447 91.3867 469.914 92.752 469.914 94.3691C469.914 95.9746 470.447 97.334 471.514 98.4473C472.592 99.5605 473.863 100.117 475.328 100.117C476.242 100.117 477.098 99.8887 477.895 99.4316C478.703 98.9746 479.283 98.5293 479.635 98.0957L480.18 97.4277L482.518 99.7656C482.447 99.8594 482.342 99.9941 482.201 100.17C482.061 100.334 481.756 100.621 481.287 101.031C480.818 101.43 480.326 101.787 479.811 102.104C479.295 102.408 478.627 102.695 477.807 102.965C476.986 103.223 476.16 103.352 475.328 103.352C472.902 103.352 470.793 102.461 469 100.68ZM498.707 85.7207H501.941V103H498.338V91.6621L489.338 103H486.104V85.7207H489.707V97.0586L498.707 85.7207ZM505.193 88.9551V85.7207H520.662V88.9551H514.721V103H511.135V88.9551H505.193ZM539.91 95.6172H526.41C526.598 96.8359 527.195 97.8906 528.203 98.7812C529.223 99.6719 530.43 100.117 531.824 100.117C532.832 100.117 533.77 99.8887 534.637 99.4316C535.516 98.9746 536.137 98.5293 536.5 98.0957L537.045 97.4277L539.383 99.7656C539.312 99.8594 539.201 99.9941 539.049 100.17C538.908 100.334 538.598 100.621 538.117 101.031C537.637 101.43 537.127 101.787 536.588 102.104C536.049 102.408 535.346 102.695 534.479 102.965C533.623 103.223 532.738 103.352 531.824 103.352C529.375 103.352 527.26 102.455 525.479 100.662C523.709 98.8574 522.824 96.6953 522.824 94.1758C522.824 91.75 523.686 89.6758 525.408 87.9531C527.143 86.2188 529.217 85.3516 531.631 85.3516C534.057 85.3516 536.072 86.1602 537.678 87.7773C539.295 89.3828 540.104 91.3984 540.104 93.8242L539.91 95.6172ZM531.631 88.4277C530.33 88.4277 529.234 88.8145 528.344 89.5879C527.465 90.3496 526.873 91.3398 526.568 92.5586H536.57C536.359 91.3398 535.814 90.3496 534.936 89.5879C534.057 88.8145 532.955 88.4277 531.631 88.4277ZM546.027 85.7207H559.352V103H555.748V88.9551H549.631V90.7656C549.631 94.0586 549.367 96.6602 548.84 98.5703C548.324 100.469 547.656 101.74 546.836 102.385C546.027 103.029 544.979 103.352 543.689 103.352C543.373 103.352 543.033 103.322 542.67 103.264C542.318 103.205 542.043 103.141 541.844 103.07L541.527 103V99.5723C542.008 99.6895 542.424 99.7539 542.775 99.7656C543.514 99.7656 544.094 99.5664 544.516 99.168C544.949 98.7695 545.307 97.8906 545.588 96.5312C545.881 95.1602 546.027 93.2383 546.027 90.7656V85.7207ZM577 85.7207H580.234V103H576.631V91.6621L567.631 103H564.396V85.7207H568V97.0586L577 85.7207Z" fill="black"/>
<circle cx="870" cy="90" r="70" fill="#70A16D"/>
<rect x="842" y="66" width="47" height="57" stroke="black" stroke-width="4"/>
<path d="M849 65V55H900V116H888.5" stroke="black" stroke-width="4"/>
<rect x="0.5" y="0.5" width="959" height="179" rx="89.5" stroke="black"/>
</svg>
