<svg width="1916" height="188" viewBox="0 0 1916 188" fill="none" xmlns="http://www.w3.org/2000/svg">
<path d="M155.617 98.5449C155.617 100.971 154.762 103.045 153.051 104.768C151.352 106.49 149.33 107.352 146.986 107.352C144.279 107.352 142.1 106.385 140.447 104.451C138.807 102.506 137.986 99.6934 137.986 96.0137C137.986 91.8184 138.766 88.6719 140.324 86.5742C141.883 84.4766 144.104 83.1875 146.986 82.707C148.264 82.4961 149.406 82.2266 150.414 81.8984C151.434 81.5703 152.137 81.2949 152.523 81.0723L153.104 80.7207L154.721 83.4277C154.65 83.5215 154.504 83.6562 154.281 83.832C154.07 84.0078 153.338 84.3242 152.084 84.7812C150.842 85.2383 149.26 85.625 147.338 85.9414C145.686 86.2109 144.355 86.8965 143.348 87.998C142.34 89.0996 141.748 90.5762 141.572 92.4277C141.619 92.3574 141.701 92.2637 141.818 92.1465C141.947 92.0176 142.199 91.8008 142.574 91.4961C142.949 91.1797 143.342 90.9043 143.752 90.6699C144.174 90.4238 144.707 90.207 145.352 90.0195C146.008 89.8203 146.67 89.7207 147.338 89.7207C149.518 89.7207 151.439 90.5938 153.104 92.3398C154.779 94.0742 155.617 96.1426 155.617 98.5449ZM143.436 94.5723C142.439 95.6387 141.941 96.9629 141.941 98.5449C141.941 100.127 142.439 101.451 143.436 102.518C144.432 103.584 145.609 104.117 146.969 104.117C148.34 104.117 149.523 103.584 150.52 102.518C151.516 101.451 152.014 100.127 152.014 98.5449C152.014 96.9629 151.516 95.6387 150.52 94.5723C149.523 93.4941 148.34 92.9551 146.969 92.9551C145.609 92.9551 144.432 93.4941 143.436 94.5723ZM169.1 107.352C168.455 107.352 167.828 107.275 167.219 107.123C166.609 106.971 166.088 106.783 165.654 106.561C165.221 106.326 164.834 106.092 164.494 105.857C164.166 105.611 163.926 105.418 163.773 105.277L163.527 105.014V114.559H159.924V89.7207H163.527V91.707C163.691 91.543 163.92 91.3262 164.213 91.0566C164.518 90.7871 165.156 90.4355 166.129 90.002C167.102 89.5684 168.092 89.3516 169.1 89.3516C171.385 89.3516 173.365 90.2305 175.041 91.9883C176.729 93.7344 177.572 95.8555 177.572 98.3516C177.572 100.848 176.729 102.975 175.041 104.732C173.365 106.479 171.385 107.352 169.1 107.352ZM172.387 94.291C171.332 93.166 170.119 92.6035 168.748 92.6035C167.377 92.6035 166.164 93.166 165.109 94.291C164.055 95.416 163.527 96.7754 163.527 98.3691C163.527 99.9512 164.055 101.305 165.109 102.43C166.164 103.555 167.377 104.117 168.748 104.117C170.119 104.117 171.332 103.555 172.387 102.43C173.441 101.305 173.969 99.9512 173.969 98.3691C173.969 96.7754 173.441 95.416 172.387 94.291ZM194.113 89.7207H197.348V107H193.744V95.6621L184.744 107H181.51V89.7207H185.113V101.059L194.113 89.7207ZM211.393 114.559V107.352C208.393 107.352 205.961 106.496 204.098 104.785C202.246 103.074 201.32 100.936 201.32 98.3691C201.32 95.791 202.246 93.6465 204.098 91.9355C205.961 90.2129 208.393 89.3516 211.393 89.3516V81.793H214.996V89.3516C217.996 89.3516 220.422 90.2129 222.273 91.9355C224.137 93.6465 225.068 95.791 225.068 98.3691C225.068 100.936 224.137 103.074 222.273 104.785C220.422 106.496 217.996 107.352 214.996 107.352V114.559H211.393ZM211.393 104.117V92.6035C209.354 92.6035 207.76 93.125 206.611 94.168C205.475 95.2109 204.906 96.6113 204.906 98.3691C204.906 100.115 205.475 101.51 206.611 102.553C207.76 103.596 209.354 104.117 211.393 104.117ZM214.996 92.6035V104.117C217.035 104.117 218.623 103.596 219.76 102.553C220.908 101.51 221.482 100.115 221.482 98.3691C221.482 96.6113 220.908 95.2109 219.76 94.168C218.623 93.125 217.035 92.6035 214.996 92.6035ZM241.645 89.7207H244.879V107H241.275V95.6621L232.275 107H229.041V89.7207H232.645V101.059L241.645 89.7207ZM253.527 99.793V107H249.924V89.7207H253.527V96.5586H261.982V89.7207H265.586V107H261.982V99.793H253.527ZM282.689 89.7207V92.9551H274.234V107H270.631V89.7207H282.689Z" fill="black"/>
<circle cx="490" cy="94" r="70" fill="#F1C376"/>
<path d="M538.223 107C538.223 101.907 534.093 97.7774 529 97.7774H474C468.907 97.7774 464.777 101.907 464.777 107V112.054C464.777 117.147 468.907 121.276 474 121.276H523.001C524.912 121.276 526.798 121.705 528.521 122.53L538.223 127.178V123.054V107Z" stroke="black" stroke-width="3.55484"/>
<path d="M441.777 69C441.777 63.9065 445.907 59.7774 451 59.7774H506C511.093 59.7774 515.223 63.9065 515.223 69V74.0538C515.223 79.1473 511.093 83.2763 506 83.2763H456.999C455.088 83.2763 453.202 83.7049 451.479 84.5304L441.777 89.1777V85.0538V69Z" stroke="black" stroke-width="3.55484"/>
<rect x="0.5" y="0.5" width="579" height="187" rx="93.5" stroke="black"/>
<circle cx="670" cy="94" r="89.5" stroke="black"/>
<path d="M664.243 148.738L718.731 94.2495M718.731 94.2495L664.243 39.7606M718.731 94.2495H609.754" stroke="black" stroke-width="2"/>
<circle cx="856" cy="94" r="68.2218" stroke="black" stroke-width="3.55644"/>
<path d="M816.656 96.6429C815.711 95.5786 814.95 94.6693 814.392 93.9817C814.95 93.294 815.711 92.3847 816.656 91.3205C818.857 88.8422 822.04 85.5402 825.965 82.2438C833.886 75.5929 844.496 69.2455 855.975 69.2455C867.453 69.2455 878.063 75.5929 885.984 82.2438C889.909 85.5402 893.092 88.8422 895.293 91.3205C896.238 92.3847 896.999 93.294 897.558 93.9817C896.999 94.6693 896.238 95.5786 895.293 96.6429C893.092 99.1211 889.909 102.423 885.984 105.72C878.063 112.37 867.453 118.718 855.975 118.718C844.496 118.718 833.886 112.37 825.965 105.72C822.04 102.423 818.857 99.1211 816.656 96.6429Z" stroke="black" stroke-width="4.74193"/>
<circle cx="855.103" cy="93.1037" r="17.4885" fill="black"/>
<path d="M971.062 81.4473C972.129 80.334 972.662 78.9746 972.662 77.3691C972.662 75.752 972.129 74.3867 971.062 73.2734C969.996 72.1602 968.73 71.6035 967.266 71.6035C965.801 71.6035 964.529 72.1602 963.451 73.2734C962.385 74.3867 961.852 75.752 961.852 77.3691C961.852 78.9746 962.385 80.334 963.451 81.4473C964.529 82.5605 965.801 83.1172 967.266 83.1172C968.73 83.1172 969.996 82.5605 971.062 81.4473ZM960.938 83.6797C959.156 81.8867 958.266 79.7832 958.266 77.3691C958.266 74.9434 959.156 72.834 960.938 71.041C962.73 69.248 964.84 68.3516 967.266 68.3516C969.691 68.3516 971.795 69.248 973.576 71.041C975.369 72.834 976.266 74.9434 976.266 77.3691C976.266 79.7832 975.369 81.8867 973.576 83.6797C971.795 85.4609 969.691 86.3516 967.266 86.3516C964.84 86.3516 962.73 85.4609 960.938 83.6797ZM983.824 71.9551V86H980.221V68.7207H995.883V86H992.279V71.9551H983.824ZM1010.1 86.3516C1009.46 86.3516 1008.83 86.2754 1008.22 86.123C1007.61 85.9707 1007.09 85.7832 1006.66 85.5605C1006.22 85.3262 1005.84 85.0918 1005.5 84.8574C1005.17 84.6113 1004.93 84.418 1004.78 84.2773L1004.53 84.0137V93.5586H1000.93V68.7207H1004.53V70.707C1004.7 70.543 1004.92 70.3262 1005.22 70.0566C1005.52 69.7871 1006.16 69.4355 1007.13 69.002C1008.11 68.5684 1009.1 68.3516 1010.1 68.3516C1012.39 68.3516 1014.37 69.2305 1016.04 70.9883C1017.73 72.7344 1018.58 74.8555 1018.58 77.3516C1018.58 79.8477 1017.73 81.9746 1016.04 83.7324C1014.37 85.4785 1012.39 86.3516 1010.1 86.3516ZM1013.39 73.291C1012.34 72.166 1011.12 71.6035 1009.75 71.6035C1008.38 71.6035 1007.17 72.166 1006.11 73.291C1005.06 74.416 1004.53 75.7754 1004.53 77.3691C1004.53 78.9512 1005.06 80.3047 1006.11 81.4297C1007.17 82.5547 1008.38 83.1172 1009.75 83.1172C1011.12 83.1172 1012.34 82.5547 1013.39 81.4297C1014.45 80.3047 1014.97 78.9512 1014.97 77.3691C1014.97 75.7754 1014.45 74.416 1013.39 73.291ZM1038.53 78.6172H1025.03C1025.21 79.8359 1025.81 80.8906 1026.82 81.7812C1027.84 82.6719 1029.05 83.1172 1030.44 83.1172C1031.45 83.1172 1032.39 82.8887 1033.25 82.4316C1034.13 81.9746 1034.75 81.5293 1035.12 81.0957L1035.66 80.4277L1038 82.7656C1037.93 82.8594 1037.82 82.9941 1037.67 83.1699C1037.53 83.334 1037.21 83.6211 1036.73 84.0312C1036.25 84.4297 1035.74 84.7871 1035.21 85.1035C1034.67 85.4082 1033.96 85.6953 1033.1 85.9648C1032.24 86.2227 1031.36 86.3516 1030.44 86.3516C1027.99 86.3516 1025.88 85.4551 1024.1 83.6621C1022.33 81.8574 1021.44 79.6953 1021.44 77.1758C1021.44 74.75 1022.3 72.6758 1024.03 70.9531C1025.76 69.2188 1027.83 68.3516 1030.25 68.3516C1032.67 68.3516 1034.69 69.1602 1036.29 70.7773C1037.91 72.3828 1038.72 74.3984 1038.72 76.8242L1038.53 78.6172ZM1030.25 71.4277C1028.95 71.4277 1027.85 71.8145 1026.96 72.5879C1026.08 73.3496 1025.49 74.3398 1025.19 75.5586H1035.19C1034.98 74.3398 1034.43 73.3496 1033.55 72.5879C1032.67 71.8145 1031.57 71.4277 1030.25 71.4277ZM1040.14 82.7656H1041.39C1041.46 82.6953 1041.56 82.584 1041.69 82.4316C1041.83 82.2676 1042.07 81.9102 1042.39 81.3594C1042.73 80.8086 1043.03 80.2168 1043.27 79.584C1043.53 78.9395 1043.76 78.0957 1043.96 77.0527C1044.17 76.0098 1044.28 74.9141 1044.28 73.7656V68.7207H1056.88V82.7656H1059.39V90.3242H1055.81V86H1043.75V90.3242H1040.14V82.7656ZM1047.88 71.9551V73.7656C1047.88 74.9141 1047.78 76.0039 1047.58 77.0352C1047.39 78.0664 1047.15 78.9219 1046.86 79.6016C1046.58 80.2695 1046.29 80.8496 1046 81.3418C1045.72 81.834 1045.48 82.1855 1045.29 82.3965L1045 82.7656H1053.28V71.9551H1047.88ZM1079.03 78.6172H1065.53C1065.71 79.8359 1066.31 80.8906 1067.32 81.7812C1068.34 82.6719 1069.55 83.1172 1070.94 83.1172C1071.95 83.1172 1072.89 82.8887 1073.75 82.4316C1074.63 81.9746 1075.25 81.5293 1075.62 81.0957L1076.16 80.4277L1078.5 82.7656C1078.43 82.8594 1078.32 82.9941 1078.17 83.1699C1078.03 83.334 1077.71 83.6211 1077.23 84.0312C1076.75 84.4297 1076.24 84.7871 1075.71 85.1035C1075.17 85.4082 1074.46 85.6953 1073.6 85.9648C1072.74 86.2227 1071.86 86.3516 1070.94 86.3516C1068.49 86.3516 1066.38 85.4551 1064.6 83.6621C1062.83 81.8574 1061.94 79.6953 1061.94 77.1758C1061.94 74.75 1062.8 72.6758 1064.53 70.9531C1066.26 69.2188 1068.33 68.3516 1070.75 68.3516C1073.17 68.3516 1075.19 69.1602 1076.79 70.7773C1078.41 72.3828 1079.22 74.3984 1079.22 76.8242L1079.03 78.6172ZM1070.75 71.4277C1069.45 71.4277 1068.35 71.8145 1067.46 72.5879C1066.58 73.3496 1065.99 74.3398 1065.69 75.5586H1075.69C1075.48 74.3398 1074.93 73.3496 1074.05 72.5879C1073.17 71.8145 1072.07 71.4277 1070.75 71.4277ZM1085.14 68.7207H1098.47V86H1094.87V71.9551H1088.75V73.7656C1088.75 77.0586 1088.48 79.6602 1087.96 81.5703C1087.44 83.4688 1086.77 84.7402 1085.95 85.3848C1085.14 86.0293 1084.1 86.3516 1082.81 86.3516C1082.49 86.3516 1082.15 86.3223 1081.79 86.2637C1081.44 86.2051 1081.16 86.1406 1080.96 86.0703L1080.64 86V82.5723C1081.12 82.6895 1081.54 82.7539 1081.89 82.7656C1082.63 82.7656 1083.21 82.5664 1083.63 82.168C1084.07 81.7695 1084.42 80.8906 1084.71 79.5312C1085 78.1602 1085.14 76.2383 1085.14 73.7656V68.7207ZM1119.53 78.6172H1106.03C1106.21 79.8359 1106.81 80.8906 1107.82 81.7812C1108.84 82.6719 1110.05 83.1172 1111.44 83.1172C1112.45 83.1172 1113.39 82.8887 1114.25 82.4316C1115.13 81.9746 1115.75 81.5293 1116.12 81.0957L1116.66 80.4277L1119 82.7656C1118.93 82.8594 1118.82 82.9941 1118.67 83.1699C1118.53 83.334 1118.21 83.6211 1117.73 84.0312C1117.25 84.4297 1116.74 84.7871 1116.21 85.1035C1115.67 85.4082 1114.96 85.6953 1114.1 85.9648C1113.24 86.2227 1112.36 86.3516 1111.44 86.3516C1108.99 86.3516 1106.88 85.4551 1105.1 83.6621C1103.33 81.8574 1102.44 79.6953 1102.44 77.1758C1102.44 74.75 1103.3 72.6758 1105.03 70.9531C1106.76 69.2188 1108.83 68.3516 1111.25 68.3516C1113.67 68.3516 1115.69 69.1602 1117.29 70.7773C1118.91 72.3828 1119.72 74.3984 1119.72 76.8242L1119.53 78.6172ZM1111.25 71.4277C1109.95 71.4277 1108.85 71.8145 1107.96 72.5879C1107.08 73.3496 1106.49 74.3398 1106.19 75.5586H1116.19C1115.98 74.3398 1115.43 73.3496 1114.55 72.5879C1113.67 71.8145 1112.57 71.4277 1111.25 71.4277ZM1127.26 78.793V86H1123.66V68.7207H1127.26V75.5586H1135.72V68.7207H1139.32V86H1135.72V78.793H1127.26ZM1156.97 68.7207H1160.2V86H1156.6V74.6621L1147.6 86H1144.37V68.7207H1147.97V80.0586L1156.97 68.7207ZM1181.26 78.6172H1167.76C1167.95 79.8359 1168.55 80.8906 1169.55 81.7812C1170.57 82.6719 1171.78 83.1172 1173.18 83.1172C1174.18 83.1172 1175.12 82.8887 1175.99 82.4316C1176.87 81.9746 1177.49 81.5293 1177.85 81.0957L1178.4 80.4277L1180.73 82.7656C1180.66 82.8594 1180.55 82.9941 1180.4 83.1699C1180.26 83.334 1179.95 83.6211 1179.47 84.0312C1178.99 84.4297 1178.48 84.7871 1177.94 85.1035C1177.4 85.4082 1176.7 85.6953 1175.83 85.9648C1174.97 86.2227 1174.09 86.3516 1173.18 86.3516C1170.73 86.3516 1168.61 85.4551 1166.83 83.6621C1165.06 81.8574 1164.18 79.6953 1164.18 77.1758C1164.18 74.75 1165.04 72.6758 1166.76 70.9531C1168.49 69.2188 1170.57 68.3516 1172.98 68.3516C1175.41 68.3516 1177.42 69.1602 1179.03 70.7773C1180.65 72.3828 1181.46 74.3984 1181.46 76.8242L1181.26 78.6172ZM1172.98 71.4277C1171.68 71.4277 1170.59 71.8145 1169.7 72.5879C1168.82 73.3496 1168.22 74.3398 1167.92 75.5586H1177.92C1177.71 74.3398 1177.17 73.3496 1176.29 72.5879C1175.41 71.8145 1174.31 71.4277 1172.98 71.4277ZM1196.2 71.9551V86H1192.6V68.7207H1208.26V86H1204.66V71.9551H1196.2ZM1222.48 86.3516C1221.84 86.3516 1221.21 86.2754 1220.6 86.123C1219.99 85.9707 1219.47 85.7832 1219.04 85.5605C1218.6 85.3262 1218.22 85.0918 1217.88 84.8574C1217.55 84.6113 1217.31 84.418 1217.16 84.2773L1216.91 84.0137V93.5586H1213.31V68.7207H1216.91V70.707C1217.07 70.543 1217.3 70.3262 1217.6 70.0566C1217.9 69.7871 1218.54 69.4355 1219.51 69.002C1220.48 68.5684 1221.47 68.3516 1222.48 68.3516C1224.77 68.3516 1226.75 69.2305 1228.42 70.9883C1230.11 72.7344 1230.96 74.8555 1230.96 77.3516C1230.96 79.8477 1230.11 81.9746 1228.42 83.7324C1226.75 85.4785 1224.77 86.3516 1222.48 86.3516ZM1225.77 73.291C1224.71 72.166 1223.5 71.6035 1222.13 71.6035C1220.76 71.6035 1219.55 72.166 1218.49 73.291C1217.44 74.416 1216.91 75.7754 1216.91 77.3691C1216.91 78.9512 1217.44 80.3047 1218.49 81.4297C1219.55 82.5547 1220.76 83.1172 1222.13 83.1172C1223.5 83.1172 1224.71 82.5547 1225.77 81.4297C1226.82 80.3047 1227.35 78.9512 1227.35 77.3691C1227.35 75.7754 1226.82 74.416 1225.77 73.291ZM1246.62 81.4473C1247.68 80.334 1248.22 78.9746 1248.22 77.3691C1248.22 75.752 1247.68 74.3867 1246.62 73.2734C1245.55 72.1602 1244.29 71.6035 1242.82 71.6035C1241.36 71.6035 1240.08 72.1602 1239.01 73.2734C1237.94 74.3867 1237.41 75.752 1237.41 77.3691C1237.41 78.9746 1237.94 80.334 1239.01 81.4473C1240.08 82.5605 1241.36 83.1172 1242.82 83.1172C1244.29 83.1172 1245.55 82.5605 1246.62 81.4473ZM1236.49 83.6797C1234.71 81.8867 1233.82 79.7832 1233.82 77.3691C1233.82 74.9434 1234.71 72.834 1236.49 71.041C1238.29 69.248 1240.39 68.3516 1242.82 68.3516C1245.25 68.3516 1247.35 69.248 1249.13 71.041C1250.92 72.834 1251.82 74.9434 1251.82 77.3691C1251.82 79.7832 1250.92 81.8867 1249.13 83.6797C1247.35 85.4609 1245.25 86.3516 1242.82 86.3516C1240.39 86.3516 1238.29 85.4609 1236.49 83.6797ZM1273.05 77.5449C1273.05 79.9707 1272.2 82.0449 1270.49 83.7676C1268.79 85.4902 1266.77 86.3516 1264.42 86.3516C1261.72 86.3516 1259.54 85.3848 1257.88 83.4512C1256.24 81.5059 1255.42 78.6934 1255.42 75.0137C1255.42 70.8184 1256.2 67.6719 1257.76 65.5742C1259.32 63.4766 1261.54 62.1875 1264.42 61.707C1265.7 61.4961 1266.84 61.2266 1267.85 60.8984C1268.87 60.5703 1269.57 60.2949 1269.96 60.0723L1270.54 59.7207L1272.16 62.4277C1272.09 62.5215 1271.94 62.6562 1271.72 62.832C1271.51 63.0078 1270.78 63.3242 1269.52 63.7812C1268.28 64.2383 1266.7 64.625 1264.78 64.9414C1263.12 65.2109 1261.79 65.8965 1260.79 66.998C1259.78 68.0996 1259.19 69.5762 1259.01 71.4277C1259.06 71.3574 1259.14 71.2637 1259.26 71.1465C1259.38 71.0176 1259.64 70.8008 1260.01 70.4961C1260.39 70.1797 1260.78 69.9043 1261.19 69.6699C1261.61 69.4238 1262.14 69.207 1262.79 69.0195C1263.45 68.8203 1264.11 68.7207 1264.78 68.7207C1266.96 68.7207 1268.88 69.5938 1270.54 71.3398C1272.22 73.0742 1273.05 75.1426 1273.05 77.5449ZM1260.87 73.5723C1259.88 74.6387 1259.38 75.9629 1259.38 77.5449C1259.38 79.127 1259.88 80.4512 1260.87 81.5176C1261.87 82.584 1263.05 83.1172 1264.41 83.1172C1265.78 83.1172 1266.96 82.584 1267.96 81.5176C1268.95 80.4512 1269.45 79.127 1269.45 77.5449C1269.45 75.9629 1268.95 74.6387 1267.96 73.5723C1266.96 72.4941 1265.78 71.9551 1264.41 71.9551C1263.05 71.9551 1261.87 72.4941 1260.87 73.5723ZM1279.35 68.7207H1292.67V86H1289.07V71.9551H1282.95V73.7656C1282.95 77.0586 1282.69 79.6602 1282.16 81.5703C1281.64 83.4688 1280.98 84.7402 1280.16 85.3848C1279.35 86.0293 1278.3 86.3516 1277.01 86.3516C1276.69 86.3516 1276.35 86.3223 1275.99 86.2637C1275.64 86.2051 1275.36 86.1406 1275.16 86.0703L1274.85 86V82.5723C1275.33 82.6895 1275.74 82.7539 1276.1 82.7656C1276.83 82.7656 1277.41 82.5664 1277.84 82.168C1278.27 81.7695 1278.63 80.8906 1278.91 79.5312C1279.2 78.1602 1279.35 76.2383 1279.35 73.7656V68.7207ZM1313.73 78.6172H1300.23C1300.42 79.8359 1301.02 80.8906 1302.02 81.7812C1303.04 82.6719 1304.25 83.1172 1305.64 83.1172C1306.65 83.1172 1307.59 82.8887 1308.46 82.4316C1309.34 81.9746 1309.96 81.5293 1310.32 81.0957L1310.87 80.4277L1313.2 82.7656C1313.13 82.8594 1313.02 82.9941 1312.87 83.1699C1312.73 83.334 1312.42 83.6211 1311.94 84.0312C1311.46 84.4297 1310.95 84.7871 1310.41 85.1035C1309.87 85.4082 1309.17 85.6953 1308.3 85.9648C1307.44 86.2227 1306.56 86.3516 1305.64 86.3516C1303.2 86.3516 1301.08 85.4551 1299.3 83.6621C1297.53 81.8574 1296.64 79.6953 1296.64 77.1758C1296.64 74.75 1297.51 72.6758 1299.23 70.9531C1300.96 69.2188 1303.04 68.3516 1305.45 68.3516C1307.88 68.3516 1309.89 69.1602 1311.5 70.7773C1313.12 72.3828 1313.92 74.3984 1313.92 76.8242L1313.73 78.6172ZM1305.45 71.4277C1304.15 71.4277 1303.05 71.8145 1302.16 72.5879C1301.29 73.3496 1300.69 74.3398 1300.39 75.5586H1310.39C1310.18 74.3398 1309.63 73.3496 1308.76 72.5879C1307.88 71.8145 1306.78 71.4277 1305.45 71.4277ZM1327.04 76.2793L1333.35 68.7207H1336.23V86H1332.63V74.6621L1327.04 81.3242L1321.46 74.6621V86H1317.86V68.7207H1320.74L1327.04 76.2793ZM1344.88 82.9414H1348.66C1349.48 82.9414 1350.16 82.666 1350.71 82.1152C1351.27 81.5645 1351.54 80.8789 1351.54 80.0586C1351.54 79.2383 1351.27 78.5527 1350.71 78.002C1350.16 77.4512 1349.48 77.1758 1348.66 77.1758H1344.88V82.9414ZM1353.35 75.8047C1354.55 76.918 1355.14 78.3418 1355.14 80.0762C1355.14 81.7988 1354.55 83.2168 1353.35 84.3301C1352.17 85.4434 1350.6 86 1348.66 86H1341.28V68.7207H1344.88V74.1172H1348.66C1350.6 74.1172 1352.17 74.6797 1353.35 75.8047ZM1361.26 68.7207V86H1357.66V68.7207H1361.26ZM1367.57 81.6758L1370.81 83.4863L1366.31 90.6758L1363.97 89.4277L1367.57 81.6758ZM959.338 128V110.721H962.941V124.766H971.045V110.721H974.648V124.766H977.162V132.324H973.559V128H959.338ZM996.762 120.617H983.262C983.449 121.836 984.047 122.891 985.055 123.781C986.074 124.672 987.281 125.117 988.676 125.117C989.684 125.117 990.621 124.889 991.488 124.432C992.367 123.975 992.988 123.529 993.352 123.096L993.896 122.428L996.234 124.766C996.164 124.859 996.053 124.994 995.9 125.17C995.76 125.334 995.449 125.621 994.969 126.031C994.488 126.43 993.979 126.787 993.439 127.104C992.9 127.408 992.197 127.695 991.33 127.965C990.475 128.223 989.59 128.352 988.676 128.352C986.227 128.352 984.111 127.455 982.33 125.662C980.561 123.857 979.676 121.695 979.676 119.176C979.676 116.75 980.537 114.676 982.26 112.953C983.994 111.219 986.068 110.352 988.482 110.352C990.908 110.352 992.924 111.16 994.529 112.777C996.146 114.383 996.955 116.398 996.955 118.824L996.762 120.617ZM988.482 113.428C987.182 113.428 986.086 113.814 985.195 114.588C984.316 115.35 983.725 116.34 983.42 117.559H993.422C993.211 116.34 992.666 115.35 991.787 114.588C990.908 113.814 989.807 113.428 988.482 113.428ZM1002.88 110.721H1016.2V128H1012.6V113.955H1006.48V115.766C1006.48 119.059 1006.22 121.66 1005.69 123.57C1005.18 125.469 1004.51 126.74 1003.69 127.385C1002.88 128.029 1001.83 128.352 1000.54 128.352C1000.22 128.352 999.885 128.322 999.521 128.264C999.17 128.205 998.895 128.141 998.695 128.07L998.379 128V124.572C998.859 124.689 999.275 124.754 999.627 124.766C1000.37 124.766 1000.95 124.566 1001.37 124.168C1001.8 123.77 1002.16 122.891 1002.44 121.531C1002.73 120.16 1002.88 118.238 1002.88 115.766V110.721ZM1037.26 120.617H1023.76C1023.95 121.836 1024.55 122.891 1025.55 123.781C1026.57 124.672 1027.78 125.117 1029.18 125.117C1030.18 125.117 1031.12 124.889 1031.99 124.432C1032.87 123.975 1033.49 123.529 1033.85 123.096L1034.4 122.428L1036.73 124.766C1036.66 124.859 1036.55 124.994 1036.4 125.17C1036.26 125.334 1035.95 125.621 1035.47 126.031C1034.99 126.43 1034.48 126.787 1033.94 127.104C1033.4 127.408 1032.7 127.695 1031.83 127.965C1030.97 128.223 1030.09 128.352 1029.18 128.352C1026.73 128.352 1024.61 127.455 1022.83 125.662C1021.06 123.857 1020.18 121.695 1020.18 119.176C1020.18 116.75 1021.04 114.676 1022.76 112.953C1024.49 111.219 1026.57 110.352 1028.98 110.352C1031.41 110.352 1033.42 111.16 1035.03 112.777C1036.65 114.383 1037.46 116.398 1037.46 118.824L1037.26 120.617ZM1028.98 113.428C1027.68 113.428 1026.59 113.814 1025.7 114.588C1024.82 115.35 1024.22 116.34 1023.92 117.559H1033.92C1033.71 116.34 1033.17 115.35 1032.29 114.588C1031.41 113.814 1030.31 113.428 1028.98 113.428ZM1054 110.721H1057.23V128H1053.63V116.662L1044.63 128H1041.39V110.721H1045V122.059L1054 110.721ZM1047.51 104.604C1047.99 105.084 1048.59 105.324 1049.3 105.324C1050.03 105.324 1050.63 105.084 1051.11 104.604C1051.59 104.123 1051.83 103.52 1051.83 102.793H1054.54C1054.54 104.234 1054.05 105.436 1053.06 106.396C1052.08 107.357 1050.83 107.838 1049.32 107.838C1047.81 107.838 1046.56 107.357 1045.58 106.396C1044.59 105.436 1044.1 104.234 1044.1 102.793H1046.79C1046.79 103.508 1047.03 104.111 1047.51 104.604ZM1082.09 110.721H1085.32V128H1081.72V116.662L1072.72 128H1069.48V110.721H1073.09V122.059L1082.09 110.721ZM1109.09 115.221C1109.09 116.018 1108.86 116.715 1108.42 117.312C1107.98 117.91 1107.54 118.303 1107.08 118.49L1106.4 118.824C1106.49 118.848 1106.61 118.889 1106.77 118.947C1106.93 119.006 1107.2 119.146 1107.57 119.369C1107.96 119.58 1108.3 119.838 1108.59 120.143C1108.9 120.436 1109.17 120.846 1109.42 121.373C1109.68 121.9 1109.81 122.492 1109.81 123.148C1109.81 124.59 1109.16 125.82 1107.87 126.84C1106.6 127.848 1104.84 128.352 1102.62 128.352C1101.77 128.352 1100.96 128.246 1100.17 128.035C1099.4 127.824 1098.76 127.572 1098.24 127.279C1097.72 126.986 1097.27 126.693 1096.89 126.4C1096.5 126.096 1096.21 125.838 1096.03 125.627L1095.78 125.293L1098.12 122.955C1098.26 123.119 1098.45 123.324 1098.68 123.57C1098.93 123.816 1099.44 124.139 1100.23 124.537C1101.02 124.924 1101.82 125.117 1102.62 125.117C1103.81 125.117 1104.71 124.895 1105.31 124.449C1105.92 124.004 1106.22 123.447 1106.22 122.779C1106.22 122.111 1105.92 121.555 1105.31 121.109C1104.71 120.664 1103.81 120.441 1102.62 120.441H1100.63V117.559H1102.62C1103.55 117.559 1104.27 117.377 1104.76 117.014C1105.25 116.639 1105.5 116.164 1105.5 115.59C1105.5 115.004 1105.25 114.529 1104.76 114.166C1104.27 113.791 1103.55 113.604 1102.62 113.604C1101.93 113.604 1101.25 113.738 1100.58 114.008C1099.92 114.266 1099.44 114.535 1099.12 114.816L1098.66 115.221L1096.31 112.883C1096.47 112.695 1096.71 112.461 1097.03 112.18C1097.34 111.898 1098.05 111.523 1099.14 111.055C1100.23 110.586 1101.39 110.352 1102.62 110.352C1104.61 110.352 1106.19 110.832 1107.35 111.793C1108.51 112.754 1109.09 113.896 1109.09 115.221ZM1127.65 128H1124.04V126.207C1124 126.254 1123.92 126.33 1123.8 126.436C1123.69 126.541 1123.47 126.717 1123.13 126.963C1122.8 127.197 1122.45 127.414 1122.06 127.613C1121.67 127.801 1121.19 127.971 1120.6 128.123C1120.01 128.275 1119.42 128.352 1118.82 128.352C1117.07 128.352 1115.61 127.842 1114.45 126.822C1113.29 125.803 1112.71 124.637 1112.71 123.324C1112.71 121.906 1113.15 120.717 1114.04 119.756C1114.95 118.795 1116.18 118.186 1117.73 117.928L1124.04 116.838C1124.04 115.924 1123.71 115.156 1123.03 114.535C1122.36 113.914 1121.5 113.604 1120.44 113.604C1119.53 113.604 1118.7 113.797 1117.95 114.184C1117.21 114.559 1116.7 114.939 1116.42 115.326L1115.94 115.941L1113.6 113.604C1113.67 113.51 1113.77 113.393 1113.88 113.252C1114.01 113.1 1114.29 112.842 1114.71 112.479C1115.14 112.104 1115.6 111.77 1116.08 111.477C1116.56 111.184 1117.2 110.926 1117.98 110.703C1118.78 110.469 1119.6 110.352 1120.44 110.352C1122.55 110.352 1124.28 110.979 1125.63 112.232C1126.97 113.475 1127.65 115.01 1127.65 116.838V128ZM1119.37 125.117C1120.83 125.117 1121.98 124.684 1122.8 123.816C1123.63 122.938 1124.04 121.689 1124.04 120.072V119.721L1118.46 120.617C1117.81 120.734 1117.29 120.998 1116.89 121.408C1116.49 121.818 1116.29 122.334 1116.29 122.955C1116.29 123.529 1116.57 124.033 1117.12 124.467C1117.68 124.9 1118.43 125.117 1119.37 125.117ZM1130.18 124.766H1131.43C1131.5 124.695 1131.6 124.584 1131.73 124.432C1131.87 124.268 1132.1 123.91 1132.43 123.359C1132.77 122.809 1133.06 122.217 1133.31 121.584C1133.57 120.939 1133.79 120.096 1133.99 119.053C1134.21 118.01 1134.31 116.914 1134.31 115.766V110.721H1146.91V124.766H1149.43V132.324H1145.84V128H1133.78V132.324H1130.18V124.766ZM1137.91 113.955V115.766C1137.91 116.914 1137.81 118.004 1137.62 119.035C1137.43 120.066 1137.19 120.922 1136.89 121.602C1136.61 122.27 1136.33 122.85 1136.03 123.342C1135.75 123.834 1135.52 124.186 1135.33 124.396L1135.03 124.766H1143.31V113.955H1137.91ZM1166.92 128H1163.31V126.207C1163.27 126.254 1163.19 126.33 1163.07 126.436C1162.96 126.541 1162.74 126.717 1162.4 126.963C1162.07 127.197 1161.71 127.414 1161.33 127.613C1160.94 127.801 1160.46 127.971 1159.87 128.123C1159.28 128.275 1158.69 128.352 1158.09 128.352C1156.34 128.352 1154.88 127.842 1153.72 126.822C1152.56 125.803 1151.98 124.637 1151.98 123.324C1151.98 121.906 1152.42 120.717 1153.31 119.756C1154.21 118.795 1155.45 118.186 1157 117.928L1163.31 116.838C1163.31 115.924 1162.97 115.156 1162.29 114.535C1161.63 113.914 1160.77 113.604 1159.71 113.604C1158.8 113.604 1157.96 113.797 1157.21 114.184C1156.48 114.559 1155.97 114.939 1155.69 115.326L1155.21 115.941L1152.87 113.604C1152.94 113.51 1153.04 113.393 1153.15 113.252C1153.28 113.1 1153.56 112.842 1153.98 112.479C1154.41 112.104 1154.87 111.77 1155.35 111.477C1155.83 111.184 1156.46 110.926 1157.25 110.703C1158.05 110.469 1158.87 110.352 1159.71 110.352C1161.82 110.352 1163.55 110.979 1164.9 112.232C1166.24 113.475 1166.92 115.01 1166.92 116.838V128ZM1158.64 125.117C1160.1 125.117 1161.25 124.684 1162.07 123.816C1162.9 122.938 1163.31 121.689 1163.31 120.072V119.721L1157.72 120.617C1157.08 120.734 1156.56 120.998 1156.16 121.408C1155.76 121.818 1155.56 122.334 1155.56 122.955C1155.56 123.529 1155.84 124.033 1156.39 124.467C1156.95 124.9 1157.7 125.117 1158.64 125.117ZM1182.77 128V121.514C1181.58 122.357 1180.14 122.779 1178.45 122.779C1176.36 122.779 1174.7 122.152 1173.46 120.898C1172.23 119.633 1171.61 117.922 1171.61 115.766V110.721H1175.2V115.766C1175.2 116.844 1175.54 117.746 1176.23 118.473C1176.94 119.188 1177.79 119.545 1178.8 119.545C1179.54 119.545 1180.24 119.428 1180.89 119.193C1181.56 118.947 1182.04 118.701 1182.33 118.455L1182.77 118.104V110.721H1186.36V128H1182.77Z" fill="black"/>
<rect x="760.5" y="0.5" width="660" height="187" rx="93.5" stroke="black"/>
<circle cx="1513" cy="94" r="70" fill="#9BCECA"/>
<path d="M1474.64 74.7515C1474.64 85.6599 1483.48 94.503 1494.39 94.503C1505.3 94.503 1514.14 85.6599 1514.14 74.7515C1514.14 63.8431 1505.3 55 1494.39 55C1483.48 55 1474.64 63.8431 1474.64 74.7515Z" stroke="black" stroke-width="4.00001"/>
<path d="M1479.16 89L1467 101.155" stroke="black" stroke-width="4.00001"/>
<path d="M1547.5 110.752C1547.5 121.66 1538.66 130.503 1527.75 130.503C1516.84 130.503 1508 121.66 1508 110.752C1508 99.8431 1516.84 91 1527.75 91C1538.66 91 1547.5 99.8431 1547.5 110.752Z" stroke="black" stroke-width="4.00001"/>
<path d="M1542.99 125L1555.14 137.155" stroke="black" stroke-width="4.00001"/>
<path d="M1611.34 68.7207H1619.62C1621.27 68.7207 1622.58 69.1484 1623.55 70.0039C1624.53 70.8477 1625.01 71.9199 1625.01 73.2207C1625.01 73.959 1624.85 74.6328 1624.52 75.2422C1624.21 75.8398 1623.88 76.2559 1623.54 76.4902L1623.04 76.8242C1623.12 76.8477 1623.21 76.8887 1623.34 76.9473C1623.47 77.0059 1623.71 77.1582 1624.05 77.4043C1624.39 77.6387 1624.68 77.9023 1624.93 78.1953C1625.18 78.4766 1625.41 78.8633 1625.61 79.3555C1625.82 79.8477 1625.93 80.3809 1625.93 80.9551C1625.93 82.4434 1625.39 83.6562 1624.33 84.5938C1623.27 85.5312 1621.83 86 1619.99 86H1611.34V68.7207ZM1619.99 78.2656H1614.94V82.9414H1619.99C1620.7 82.9414 1621.27 82.7305 1621.69 82.3086C1622.11 81.8867 1622.32 81.3184 1622.32 80.6035C1622.32 79.959 1622.11 79.4082 1621.67 78.9512C1621.24 78.4941 1620.68 78.2656 1619.99 78.2656ZM1620.94 74.9082C1621.26 74.5801 1621.43 74.1406 1621.43 73.5898C1621.43 73.0273 1621.26 72.5879 1620.94 72.2715C1620.61 71.9434 1620.17 71.7793 1619.62 71.7793H1614.94V75.3828H1619.62C1620.17 75.3828 1620.61 75.2246 1620.94 74.9082ZM1633.47 82.9414H1637.25C1638.07 82.9414 1638.75 82.666 1639.3 82.1152C1639.86 81.5645 1640.13 80.8789 1640.13 80.0586C1640.13 79.2383 1639.86 78.5527 1639.3 78.002C1638.75 77.4512 1638.07 77.1758 1637.25 77.1758H1633.47V82.9414ZM1641.94 75.8047C1643.14 76.918 1643.73 78.3418 1643.73 80.0762C1643.73 81.7988 1643.14 83.2168 1641.94 84.3301C1640.76 85.4434 1639.19 86 1637.25 86H1629.87V68.7207H1633.47V74.1172H1637.25C1639.19 74.1172 1640.76 74.6797 1641.94 75.8047ZM1649.85 68.7207V86H1646.25V68.7207H1649.85ZM1672.18 77.5449C1672.18 79.9707 1671.32 82.0449 1669.61 83.7676C1667.91 85.4902 1665.89 86.3516 1663.54 86.3516C1660.84 86.3516 1658.66 85.3848 1657.01 83.4512C1655.37 81.5059 1654.54 78.6934 1654.54 75.0137C1654.54 70.8184 1655.32 67.6719 1656.88 65.5742C1658.44 63.4766 1660.66 62.1875 1663.54 61.707C1664.82 61.4961 1665.96 61.2266 1666.97 60.8984C1667.99 60.5703 1668.7 60.2949 1669.08 60.0723L1669.66 59.7207L1671.28 62.4277C1671.21 62.5215 1671.06 62.6562 1670.84 62.832C1670.63 63.0078 1669.9 63.3242 1668.64 63.7812C1667.4 64.2383 1665.82 64.625 1663.9 64.9414C1662.24 65.2109 1660.91 65.8965 1659.91 66.998C1658.9 68.0996 1658.31 69.5762 1658.13 71.4277C1658.18 71.3574 1658.26 71.2637 1658.38 71.1465C1658.51 71.0176 1658.76 70.8008 1659.13 70.4961C1659.51 70.1797 1659.9 69.9043 1660.31 69.6699C1660.73 69.4238 1661.27 69.207 1661.91 69.0195C1662.57 68.8203 1663.23 68.7207 1663.9 68.7207C1666.08 68.7207 1668 69.5938 1669.66 71.3398C1671.34 73.0742 1672.18 75.1426 1672.18 77.5449ZM1659.99 73.5723C1659 74.6387 1658.5 75.9629 1658.5 77.5449C1658.5 79.127 1659 80.4512 1659.99 81.5176C1660.99 82.584 1662.17 83.1172 1663.53 83.1172C1664.9 83.1172 1666.08 82.584 1667.08 81.5176C1668.07 80.4512 1668.57 79.127 1668.57 77.5449C1668.57 75.9629 1668.07 74.6387 1667.08 73.5723C1666.08 72.4941 1664.9 71.9551 1663.53 71.9551C1662.17 71.9551 1660.99 72.4941 1659.99 73.5723ZM1688.21 81.4473C1689.27 80.334 1689.81 78.9746 1689.81 77.3691C1689.81 75.752 1689.27 74.3867 1688.21 73.2734C1687.14 72.1602 1685.88 71.6035 1684.41 71.6035C1682.95 71.6035 1681.67 72.1602 1680.6 73.2734C1679.53 74.3867 1679 75.752 1679 77.3691C1679 78.9746 1679.53 80.334 1680.6 81.4473C1681.67 82.5605 1682.95 83.1172 1684.41 83.1172C1685.88 83.1172 1687.14 82.5605 1688.21 81.4473ZM1678.08 83.6797C1676.3 81.8867 1675.41 79.7832 1675.41 77.3691C1675.41 74.9434 1676.3 72.834 1678.08 71.041C1679.88 69.248 1681.98 68.3516 1684.41 68.3516C1686.84 68.3516 1688.94 69.248 1690.72 71.041C1692.51 72.834 1693.41 74.9434 1693.41 77.3691C1693.41 79.7832 1692.51 81.8867 1690.72 83.6797C1688.94 85.4609 1686.84 86.3516 1684.41 86.3516C1681.98 86.3516 1679.88 85.4609 1678.08 83.6797ZM1706.54 86.3516C1705.9 86.3516 1705.27 86.2754 1704.66 86.123C1704.05 85.9707 1703.53 85.7832 1703.1 85.5605C1702.66 85.3262 1702.28 85.0918 1701.94 84.8574C1701.61 84.6113 1701.37 84.418 1701.21 84.2773L1700.97 84.0137V93.5586H1697.37V68.7207H1700.97V70.707C1701.13 70.543 1701.36 70.3262 1701.65 70.0566C1701.96 69.7871 1702.6 69.4355 1703.57 69.002C1704.54 68.5684 1705.53 68.3516 1706.54 68.3516C1708.83 68.3516 1710.81 69.2305 1712.48 70.9883C1714.17 72.7344 1715.01 74.8555 1715.01 77.3516C1715.01 79.8477 1714.17 81.9746 1712.48 83.7324C1710.81 85.4785 1708.83 86.3516 1706.54 86.3516ZM1709.83 73.291C1708.77 72.166 1707.56 71.6035 1706.19 71.6035C1704.82 71.6035 1703.61 72.166 1702.55 73.291C1701.5 74.416 1700.97 75.7754 1700.97 77.3691C1700.97 78.9512 1701.5 80.3047 1702.55 81.4297C1703.61 82.5547 1704.82 83.1172 1706.19 83.1172C1707.56 83.1172 1708.77 82.5547 1709.83 81.4297C1710.88 80.3047 1711.41 78.9512 1711.41 77.3691C1711.41 75.7754 1710.88 74.416 1709.83 73.291ZM1724.37 71.9551V68.7207H1739.83V71.9551H1733.89V86H1730.31V71.9551H1724.37ZM1755.67 68.7207H1758.91V86H1755.3V74.6621L1746.3 86H1743.07V68.7207H1746.67V80.0586L1755.67 68.7207ZM1767.55 71.9551V86H1763.95V68.7207H1779.61V86H1776.01V71.9551H1767.55ZM1798.53 86H1794.92V84.207C1794.88 84.2539 1794.79 84.3301 1794.68 84.4355C1794.57 84.541 1794.35 84.7168 1794.01 84.9629C1793.68 85.1973 1793.32 85.4141 1792.94 85.6133C1792.55 85.8008 1792.06 85.9707 1791.48 86.123C1790.89 86.2754 1790.3 86.3516 1789.7 86.3516C1787.95 86.3516 1786.49 85.8418 1785.33 84.8223C1784.17 83.8027 1783.59 82.6367 1783.59 81.3242C1783.59 79.9062 1784.03 78.7168 1784.92 77.7559C1785.82 76.7949 1787.05 76.1855 1788.61 75.9277L1794.92 74.8379C1794.92 73.9238 1794.58 73.1562 1793.9 72.5352C1793.24 71.9141 1792.38 71.6035 1791.32 71.6035C1790.41 71.6035 1789.57 71.7969 1788.82 72.1836C1788.09 72.5586 1787.58 72.9395 1787.29 73.3262L1786.82 73.9414L1784.48 71.6035C1784.55 71.5098 1784.65 71.3926 1784.76 71.252C1784.89 71.0996 1785.17 70.8418 1785.59 70.4785C1786.02 70.1035 1786.48 69.7695 1786.96 69.4766C1787.44 69.1836 1788.07 68.9258 1788.86 68.7031C1789.66 68.4688 1790.48 68.3516 1791.32 68.3516C1793.43 68.3516 1795.16 68.9785 1796.51 70.2324C1797.85 71.4746 1798.53 73.0098 1798.53 74.8379V86ZM1790.25 83.1172C1791.71 83.1172 1792.86 82.6836 1793.68 81.8164C1794.51 80.9375 1794.92 79.6895 1794.92 78.0723V77.7207L1789.33 78.6172C1788.69 78.7344 1788.17 78.998 1787.77 79.4082C1787.37 79.8184 1787.17 80.334 1787.17 80.9551C1787.17 81.5293 1787.45 82.0332 1788 82.4668C1788.56 82.9004 1789.31 83.1172 1790.25 83.1172ZM1623.94 110.721H1627.18V128H1623.57V116.662L1614.57 128H1611.34V110.721H1614.94V122.059L1623.94 110.721ZM1633.82 125.68C1632.04 123.887 1631.15 121.783 1631.15 119.369C1631.15 116.943 1632.04 114.834 1633.82 113.041C1635.61 111.248 1637.72 110.352 1640.15 110.352C1641.5 110.352 1642.75 110.645 1643.91 111.23C1645.07 111.805 1645.9 112.379 1646.41 112.953L1647.16 113.779L1644.82 116.117C1644.71 115.93 1644.53 115.701 1644.28 115.432C1644.04 115.15 1643.52 114.775 1642.71 114.307C1641.92 113.838 1641.06 113.604 1640.15 113.604C1638.68 113.604 1637.41 114.16 1636.33 115.273C1635.27 116.387 1634.73 117.752 1634.73 119.369C1634.73 120.975 1635.27 122.334 1636.33 123.447C1637.41 124.561 1638.68 125.117 1640.15 125.117C1641.06 125.117 1641.92 124.889 1642.71 124.432C1643.52 123.975 1644.1 123.529 1644.46 123.096L1645 122.428L1647.34 124.766C1647.27 124.859 1647.16 124.994 1647.02 125.17C1646.88 125.334 1646.58 125.621 1646.11 126.031C1645.64 126.43 1645.15 126.787 1644.63 127.104C1644.12 127.408 1643.45 127.695 1642.63 127.965C1641.81 128.223 1640.98 128.352 1640.15 128.352C1637.72 128.352 1635.61 127.461 1633.82 125.68ZM1651.79 125.68C1650 123.887 1649.11 121.783 1649.11 119.369C1649.11 116.943 1650 114.834 1651.79 113.041C1653.58 111.248 1655.69 110.352 1658.11 110.352C1659.46 110.352 1660.71 110.645 1661.88 111.23C1663.04 111.805 1663.87 112.379 1664.37 112.953L1665.13 113.779L1662.79 116.117C1662.67 115.93 1662.49 115.701 1662.24 115.432C1662.01 115.15 1661.49 114.775 1660.68 114.307C1659.88 113.838 1659.03 113.604 1658.11 113.604C1656.65 113.604 1655.38 114.16 1654.3 115.273C1653.23 116.387 1652.7 117.752 1652.7 119.369C1652.7 120.975 1653.23 122.334 1654.3 123.447C1655.38 124.561 1656.65 125.117 1658.11 125.117C1659.03 125.117 1659.88 124.889 1660.68 124.432C1661.49 123.975 1662.07 123.529 1662.42 123.096L1662.96 122.428L1665.3 124.766C1665.23 124.859 1665.13 124.994 1664.99 125.17C1664.85 125.334 1664.54 125.621 1664.07 126.031C1663.6 126.43 1663.11 126.787 1662.6 127.104C1662.08 127.408 1661.41 127.695 1660.59 127.965C1659.77 128.223 1658.95 128.352 1658.11 128.352C1655.69 128.352 1653.58 127.461 1651.79 125.68ZM1670.88 110.721H1684.2V128H1680.6V113.955H1674.48V115.766C1674.48 119.059 1674.21 121.66 1673.69 123.57C1673.17 125.469 1672.5 126.74 1671.68 127.385C1670.88 128.029 1669.83 128.352 1668.54 128.352C1668.22 128.352 1667.88 128.322 1667.52 128.264C1667.17 128.205 1666.89 128.141 1666.69 128.07L1666.38 128V124.572C1666.86 124.689 1667.27 124.754 1667.62 124.766C1668.36 124.766 1668.94 124.566 1669.36 124.168C1669.8 123.77 1670.15 122.891 1670.44 121.531C1670.73 120.16 1670.88 118.238 1670.88 115.766V110.721ZM1705.26 120.617H1691.76C1691.95 121.836 1692.54 122.891 1693.55 123.781C1694.57 124.672 1695.78 125.117 1697.17 125.117C1698.18 125.117 1699.12 124.889 1699.98 124.432C1700.86 123.975 1701.48 123.529 1701.85 123.096L1702.39 122.428L1704.73 124.766C1704.66 124.859 1704.55 124.994 1704.4 125.17C1704.26 125.334 1703.95 125.621 1703.46 126.031C1702.98 126.43 1702.47 126.787 1701.94 127.104C1701.4 127.408 1700.69 127.695 1699.83 127.965C1698.97 128.223 1698.09 128.352 1697.17 128.352C1694.72 128.352 1692.61 127.455 1690.83 125.662C1689.06 123.857 1688.17 121.695 1688.17 119.176C1688.17 116.75 1689.03 114.676 1690.76 112.953C1692.49 111.219 1694.56 110.352 1696.98 110.352C1699.4 110.352 1701.42 111.16 1703.03 112.777C1704.64 114.383 1705.45 116.398 1705.45 118.824L1705.26 120.617ZM1696.98 113.428C1695.68 113.428 1694.58 113.814 1693.69 114.588C1692.81 115.35 1692.22 116.34 1691.92 117.559H1701.92C1701.71 116.34 1701.16 115.35 1700.28 114.588C1699.4 113.814 1698.3 113.428 1696.98 113.428ZM1706.88 124.766H1708.12C1708.19 124.695 1708.29 124.584 1708.42 124.432C1708.56 124.268 1708.8 123.91 1709.12 123.359C1709.46 122.809 1709.76 122.217 1710 121.584C1710.26 120.939 1710.49 120.096 1710.69 119.053C1710.9 118.01 1711.01 116.914 1711.01 115.766V110.721H1723.61V124.766H1726.12V132.324H1722.54V128H1710.48V132.324H1706.88V124.766ZM1714.61 113.955V115.766C1714.61 116.914 1714.51 118.004 1714.31 119.035C1714.12 120.066 1713.88 120.922 1713.59 121.602C1713.31 122.27 1713.02 122.85 1712.73 123.342C1712.45 123.834 1712.21 124.186 1712.03 124.396L1711.73 124.766H1720.01V113.955H1714.61ZM1741.47 123.447C1742.54 122.334 1743.07 120.975 1743.07 119.369C1743.07 117.752 1742.54 116.387 1741.47 115.273C1740.4 114.16 1739.14 113.604 1737.67 113.604C1736.21 113.604 1734.94 114.16 1733.86 115.273C1732.79 116.387 1732.26 117.752 1732.26 119.369C1732.26 120.975 1732.79 122.334 1733.86 123.447C1734.94 124.561 1736.21 125.117 1737.67 125.117C1739.14 125.117 1740.4 124.561 1741.47 123.447ZM1731.34 125.68C1729.56 123.887 1728.67 121.783 1728.67 119.369C1728.67 116.943 1729.56 114.834 1731.34 113.041C1733.14 111.248 1735.25 110.352 1737.67 110.352C1740.1 110.352 1742.2 111.248 1743.98 113.041C1745.78 114.834 1746.67 116.943 1746.67 119.369C1746.67 121.783 1745.78 123.887 1743.98 125.68C1742.2 127.461 1740.1 128.352 1737.67 128.352C1735.25 128.352 1733.14 127.461 1731.34 125.68ZM1750.63 110.721H1758.91C1760.56 110.721 1761.87 111.148 1762.84 112.004C1763.82 112.848 1764.3 113.92 1764.3 115.221C1764.3 115.959 1764.14 116.633 1763.81 117.242C1763.49 117.84 1763.17 118.256 1762.83 118.49L1762.33 118.824C1762.4 118.848 1762.5 118.889 1762.63 118.947C1762.76 119.006 1763 119.158 1763.34 119.404C1763.68 119.639 1763.97 119.902 1764.21 120.195C1764.47 120.477 1764.7 120.863 1764.9 121.355C1765.11 121.848 1765.22 122.381 1765.22 122.955C1765.22 124.443 1764.68 125.656 1763.62 126.594C1762.56 127.531 1761.12 128 1759.28 128H1750.63V110.721ZM1759.28 120.266H1754.23V124.941H1759.28C1759.99 124.941 1760.56 124.73 1760.98 124.309C1761.4 123.887 1761.61 123.318 1761.61 122.604C1761.61 121.959 1761.4 121.408 1760.96 120.951C1760.53 120.494 1759.97 120.266 1759.28 120.266ZM1760.22 116.908C1760.55 116.58 1760.72 116.141 1760.72 115.59C1760.72 115.027 1760.55 114.588 1760.22 114.271C1759.9 113.943 1759.46 113.779 1758.91 113.779H1754.23V117.383H1758.91C1759.46 117.383 1759.9 117.225 1760.22 116.908ZM1783.02 128H1779.42V126.207C1779.37 126.254 1779.29 126.33 1779.17 126.436C1779.07 126.541 1778.85 126.717 1778.51 126.963C1778.18 127.197 1777.82 127.414 1777.43 127.613C1777.05 127.801 1776.56 127.971 1775.97 128.123C1775.39 128.275 1774.8 128.352 1774.2 128.352C1772.44 128.352 1770.98 127.842 1769.82 126.822C1768.66 125.803 1768.08 124.637 1768.08 123.324C1768.08 121.906 1768.53 120.717 1769.42 119.756C1770.32 118.795 1771.55 118.186 1773.11 117.928L1779.42 116.838C1779.42 115.924 1779.08 115.156 1778.4 114.535C1777.73 113.914 1776.87 113.604 1775.82 113.604C1774.9 113.604 1774.07 113.797 1773.32 114.184C1772.58 114.559 1772.07 114.939 1771.79 115.326L1771.32 115.941L1768.98 113.604C1769.05 113.51 1769.14 113.393 1769.26 113.252C1769.39 113.1 1769.66 112.842 1770.09 112.479C1770.52 112.104 1770.98 111.77 1771.46 111.477C1771.94 111.184 1772.57 110.926 1773.36 110.703C1774.15 110.469 1774.97 110.352 1775.82 110.352C1777.93 110.352 1779.65 110.979 1781 112.232C1782.35 113.475 1783.02 115.01 1783.02 116.838V128ZM1774.74 125.117C1776.21 125.117 1777.35 124.684 1778.17 123.816C1779 122.938 1779.42 121.689 1779.42 120.072V119.721L1773.83 120.617C1773.19 120.734 1772.66 120.998 1772.27 121.408C1771.87 121.818 1771.67 122.334 1771.67 122.955C1771.67 123.529 1771.94 124.033 1772.49 124.467C1773.06 124.9 1773.81 125.117 1774.74 125.117ZM1791.67 120.793V128H1788.07V110.721H1791.67V117.559H1800.13V110.721H1803.73V128H1800.13V120.793H1791.67ZM1821.38 110.721H1824.61V128H1821.01V116.662L1812.01 128H1808.78V110.721H1812.38V122.059L1821.38 110.721ZM1835.42 110.721H1843.33V128H1839.75V122.604H1835.97L1832.54 128H1828.59L1832.37 122.059C1832.27 122.035 1832.14 121.982 1831.98 121.9C1831.83 121.818 1831.56 121.637 1831.17 121.355C1830.78 121.062 1830.44 120.729 1830.13 120.354C1829.84 119.979 1829.56 119.463 1829.31 118.807C1829.06 118.139 1828.94 117.424 1828.94 116.662C1828.94 114.939 1829.53 113.521 1830.71 112.408C1831.91 111.283 1833.48 110.721 1835.42 110.721ZM1839.75 113.779H1835.42C1834.6 113.779 1833.92 114.055 1833.37 114.605C1832.82 115.156 1832.54 115.842 1832.54 116.662C1832.54 117.482 1832.82 118.168 1833.37 118.719C1833.92 119.27 1834.6 119.545 1835.42 119.545H1839.75V113.779Z" fill="black"/>
<rect x="1421.5" y="0.5" width="494" height="187" rx="93.5" stroke="black"/>
</svg>
