<svg width="1920" height="204" viewBox="0 0 1920 204" fill="none" xmlns="http://www.w3.org/2000/svg">
<path d="M237.941 100.955V115H234.338V97.7207H250V115H246.396V100.955H237.941ZM257.031 97.7207H270.355V115H266.752V100.955H260.635V102.766C260.635 106.059 260.371 108.66 259.844 110.57C259.328 112.469 258.66 113.74 257.84 114.385C257.031 115.029 255.982 115.352 254.693 115.352C254.377 115.352 254.037 115.322 253.674 115.264C253.322 115.205 253.047 115.141 252.848 115.07L252.531 115V111.572C253.012 111.689 253.428 111.754 253.779 111.766C254.518 111.766 255.098 111.566 255.52 111.168C255.953 110.77 256.311 109.891 256.592 108.531C256.885 107.16 257.031 105.238 257.031 102.766V97.7207ZM289.27 115H285.666V113.207C285.619 113.254 285.537 113.33 285.42 113.436C285.314 113.541 285.092 113.717 284.752 113.963C284.424 114.197 284.066 114.414 283.68 114.613C283.293 114.801 282.807 114.971 282.221 115.123C281.635 115.275 281.043 115.352 280.445 115.352C278.688 115.352 277.229 114.842 276.068 113.822C274.908 112.803 274.328 111.637 274.328 110.324C274.328 108.906 274.773 107.717 275.664 106.756C276.566 105.795 277.797 105.186 279.355 104.928L285.666 103.838C285.666 102.924 285.326 102.156 284.646 101.535C283.979 100.914 283.117 100.604 282.062 100.604C281.148 100.604 280.316 100.797 279.566 101.184C278.828 101.559 278.318 101.939 278.037 102.326L277.562 102.941L275.225 100.604C275.295 100.51 275.389 100.393 275.506 100.252C275.635 100.1 275.91 99.8418 276.332 99.4785C276.766 99.1035 277.223 98.7695 277.703 98.4766C278.184 98.1836 278.816 97.9258 279.602 97.7031C280.398 97.4688 281.219 97.3516 282.062 97.3516C284.172 97.3516 285.9 97.9785 287.248 99.2324C288.596 100.475 289.27 102.01 289.27 103.838V115ZM280.99 112.117C282.455 112.117 283.598 111.684 284.418 110.816C285.25 109.938 285.666 108.689 285.666 107.072V106.721L280.076 107.617C279.432 107.734 278.91 107.998 278.512 108.408C278.113 108.818 277.914 109.334 277.914 109.955C277.914 110.529 278.189 111.033 278.74 111.467C279.303 111.9 280.053 112.117 280.99 112.117ZM297.918 107.793V115H294.314V97.7207H297.918V104.559H306.373V97.7207H309.977V115H306.373V107.793H297.918ZM319.715 111.766H320.963C321.033 111.695 321.133 111.584 321.262 111.432C321.402 111.268 321.637 110.91 321.965 110.359C322.305 109.809 322.598 109.217 322.844 108.584C323.102 107.939 323.33 107.096 323.529 106.053C323.74 105.01 323.846 103.914 323.846 102.766V97.7207H336.449V111.766H338.963V119.324H335.377V115H323.318V119.324H319.715V111.766ZM327.449 100.955V102.766C327.449 103.914 327.35 105.004 327.15 106.035C326.963 107.066 326.723 107.922 326.43 108.602C326.148 109.27 325.861 109.85 325.568 110.342C325.287 110.834 325.053 111.186 324.865 111.396L324.566 111.766H332.846V100.955H327.449ZM358.598 107.617H345.098C345.285 108.836 345.883 109.891 346.891 110.781C347.91 111.672 349.117 112.117 350.512 112.117C351.52 112.117 352.457 111.889 353.324 111.432C354.203 110.975 354.824 110.529 355.188 110.096L355.732 109.428L358.07 111.766C358 111.859 357.889 111.994 357.736 112.17C357.596 112.334 357.285 112.621 356.805 113.031C356.324 113.43 355.814 113.787 355.275 114.104C354.736 114.408 354.033 114.695 353.166 114.965C352.311 115.223 351.426 115.352 350.512 115.352C348.062 115.352 345.947 114.455 344.166 112.662C342.396 110.857 341.512 108.695 341.512 106.176C341.512 103.75 342.373 101.676 344.096 99.9531C345.83 98.2188 347.904 97.3516 350.318 97.3516C352.744 97.3516 354.76 98.1602 356.365 99.7773C357.982 101.383 358.791 103.398 358.791 105.824L358.598 107.617ZM350.318 100.428C349.018 100.428 347.922 100.814 347.031 101.588C346.152 102.35 345.561 103.34 345.256 104.559H355.258C355.047 103.34 354.502 102.35 353.623 101.588C352.744 100.814 351.643 100.428 350.318 100.428ZM375.332 97.7207H378.566V115H374.963V103.662L365.963 115H362.729V97.7207H366.332V109.059L375.332 97.7207ZM368.846 91.6035C369.326 92.084 369.924 92.3242 370.639 92.3242C371.365 92.3242 371.969 92.084 372.449 91.6035C372.93 91.123 373.17 90.5195 373.17 89.793H375.877C375.877 91.2344 375.385 92.4355 374.4 93.3965C373.416 94.3574 372.168 94.8379 370.656 94.8379C369.145 94.8379 367.896 94.3574 366.912 93.3965C365.928 92.4355 365.436 91.2344 365.436 89.793H368.125C368.125 90.5078 368.365 91.1113 368.846 91.6035ZM385.211 112.68C383.43 110.887 382.539 108.783 382.539 106.369C382.539 103.943 383.43 101.834 385.211 100.041C387.004 98.248 389.113 97.3516 391.539 97.3516C392.887 97.3516 394.141 97.6445 395.301 98.2305C396.461 98.8047 397.293 99.3789 397.797 99.9531L398.553 100.779L396.215 103.117C396.098 102.93 395.916 102.701 395.67 102.432C395.436 102.15 394.914 101.775 394.105 101.307C393.309 100.838 392.453 100.604 391.539 100.604C390.074 100.604 388.803 101.16 387.725 102.273C386.658 103.387 386.125 104.752 386.125 106.369C386.125 107.975 386.658 109.334 387.725 110.447C388.803 111.561 390.074 112.117 391.539 112.117C392.453 112.117 393.309 111.889 394.105 111.432C394.914 110.975 395.494 110.529 395.846 110.096L396.391 109.428L398.729 111.766C398.658 111.859 398.553 111.994 398.412 112.17C398.271 112.334 397.967 112.621 397.498 113.031C397.029 113.43 396.537 113.787 396.021 114.104C395.506 114.408 394.838 114.695 394.018 114.965C393.197 115.223 392.371 115.352 391.539 115.352C389.113 115.352 387.004 114.461 385.211 112.68ZM400.521 100.955V97.7207H415.99V100.955H410.049V115H406.463V100.955H400.521ZM419.225 97.7207H427.504C429.156 97.7207 430.469 98.1484 431.441 99.0039C432.414 99.8477 432.9 100.92 432.9 102.221C432.9 102.959 432.736 103.633 432.408 104.242C432.092 104.84 431.764 105.256 431.424 105.49L430.932 105.824C431.002 105.848 431.102 105.889 431.23 105.947C431.359 106.006 431.594 106.158 431.934 106.404C432.273 106.639 432.566 106.902 432.812 107.195C433.07 107.477 433.299 107.863 433.498 108.355C433.709 108.848 433.814 109.381 433.814 109.955C433.814 111.443 433.281 112.656 432.215 113.594C431.16 114.531 429.713 115 427.873 115H419.225V97.7207ZM427.873 107.266H422.828V111.941H427.873C428.588 111.941 429.156 111.73 429.578 111.309C430 110.887 430.211 110.318 430.211 109.604C430.211 108.959 429.994 108.408 429.561 107.951C429.127 107.494 428.564 107.266 427.873 107.266ZM428.822 103.908C429.15 103.58 429.314 103.141 429.314 102.59C429.314 102.027 429.15 101.588 428.822 101.271C428.494 100.943 428.055 100.779 427.504 100.779H422.828V104.383H427.504C428.055 104.383 428.494 104.225 428.822 103.908ZM450.355 97.7207H453.59V115H449.986V103.662L440.986 115H437.752V97.7207H441.355V109.059L450.355 97.7207ZM471.238 97.7207H474.473V115H470.869V103.662L461.869 115H458.635V97.7207H462.238V109.059L471.238 97.7207ZM464.752 91.6035C465.232 92.084 465.83 92.3242 466.545 92.3242C467.271 92.3242 467.875 92.084 468.355 91.6035C468.836 91.123 469.076 90.5195 469.076 89.793H471.783C471.783 91.2344 471.291 92.4355 470.307 93.3965C469.322 94.3574 468.074 94.8379 466.562 94.8379C465.051 94.8379 463.803 94.3574 462.818 93.3965C461.834 92.4355 461.342 91.2344 461.342 89.793H464.031C464.031 90.5078 464.271 91.1113 464.752 91.6035Z" fill="black"/>
<circle cx="780" cy="102" r="70" fill="#70A16D"/>
<path d="M734.413 102.309L826.205 102.309" stroke="black" stroke-width="4"/>
<path d="M780.309 148.205L780.309 56.4125" stroke="black" stroke-width="4"/>
<circle cx="780.309" cy="102.308" r="29.2484" stroke="black" stroke-width="4"/>
<rect x="0.5" y="0.5" width="869" height="203" rx="101.5" stroke="black"/>
<g clip-path="url(#clip0_1226_5019)">
<circle r="89.5" transform="matrix(1 -8.74228e-08 -8.74228e-08 -1 960 102)" stroke="black"/>
<path d="M954.243 47.2616L1008.73 101.75M1008.73 101.75L954.243 156.239M1008.73 101.75L899.754 101.75" stroke="black" stroke-width="2"/>
</g>
<rect x="1050.5" y="1.5" width="869" height="201" rx="100.5" fill="#9BCECA"/>
<path d="M1452.85 102.221C1452.85 103.018 1452.63 103.715 1452.18 104.312C1451.75 104.91 1451.3 105.303 1450.85 105.49L1450.16 105.824C1450.26 105.848 1450.38 105.889 1450.53 105.947C1450.7 106.006 1450.96 106.146 1451.34 106.369C1451.73 106.58 1452.07 106.838 1452.36 107.143C1452.66 107.436 1452.94 107.846 1453.19 108.373C1453.44 108.9 1453.57 109.492 1453.57 110.148C1453.57 111.59 1452.93 112.82 1451.64 113.84C1450.36 114.848 1448.61 115.352 1446.38 115.352C1445.54 115.352 1444.72 115.246 1443.94 115.035C1443.17 114.824 1442.52 114.572 1442.01 114.279C1441.49 113.986 1441.04 113.693 1440.65 113.4C1440.27 113.096 1439.98 112.838 1439.79 112.627L1439.54 112.293L1441.88 109.955C1442.02 110.119 1442.21 110.324 1442.45 110.57C1442.69 110.816 1443.21 111.139 1443.99 111.537C1444.79 111.924 1445.59 112.117 1446.38 112.117C1447.58 112.117 1448.47 111.895 1449.07 111.449C1449.68 111.004 1449.99 110.447 1449.99 109.779C1449.99 109.111 1449.68 108.555 1449.07 108.109C1448.47 107.664 1447.58 107.441 1446.38 107.441H1444.4V104.559H1446.38C1447.32 104.559 1448.04 104.377 1448.53 104.014C1449.02 103.639 1449.27 103.164 1449.27 102.59C1449.27 102.004 1449.02 101.529 1448.53 101.166C1448.04 100.791 1447.32 100.604 1446.38 100.604C1445.69 100.604 1445.01 100.738 1444.34 101.008C1443.69 101.266 1443.2 101.535 1442.88 101.816L1442.43 102.221L1440.07 99.8828C1440.24 99.6953 1440.48 99.4609 1440.79 99.1797C1441.11 98.8984 1441.81 98.5234 1442.9 98.0547C1443.99 97.5859 1445.15 97.3516 1446.38 97.3516C1448.38 97.3516 1449.95 97.832 1451.11 98.793C1452.27 99.7539 1452.85 100.896 1452.85 102.221ZM1471.41 115H1467.81V113.207C1467.76 113.254 1467.68 113.33 1467.56 113.436C1467.46 113.541 1467.24 113.717 1466.9 113.963C1466.57 114.197 1466.21 114.414 1465.82 114.613C1465.44 114.801 1464.95 114.971 1464.37 115.123C1463.78 115.275 1463.19 115.352 1462.59 115.352C1460.83 115.352 1459.37 114.842 1458.21 113.822C1457.05 112.803 1456.47 111.637 1456.47 110.324C1456.47 108.906 1456.92 107.717 1457.81 106.756C1458.71 105.795 1459.94 105.186 1461.5 104.928L1467.81 103.838C1467.81 102.924 1467.47 102.156 1466.79 101.535C1466.12 100.914 1465.26 100.604 1464.21 100.604C1463.29 100.604 1462.46 100.797 1461.71 101.184C1460.97 101.559 1460.46 101.939 1460.18 102.326L1459.71 102.941L1457.37 100.604C1457.44 100.51 1457.53 100.393 1457.65 100.252C1457.78 100.1 1458.05 99.8418 1458.48 99.4785C1458.91 99.1035 1459.37 98.7695 1459.85 98.4766C1460.33 98.1836 1460.96 97.9258 1461.75 97.7031C1462.54 97.4688 1463.36 97.3516 1464.21 97.3516C1466.32 97.3516 1468.04 97.9785 1469.39 99.2324C1470.74 100.475 1471.41 102.01 1471.41 103.838V115ZM1463.13 112.117C1464.6 112.117 1465.74 111.684 1466.56 110.816C1467.39 109.938 1467.81 108.689 1467.81 107.072V106.721L1462.22 107.617C1461.58 107.734 1461.05 107.998 1460.66 108.408C1460.26 108.818 1460.06 109.334 1460.06 109.955C1460.06 110.529 1460.33 111.033 1460.88 111.467C1461.45 111.9 1462.2 112.117 1463.13 112.117ZM1480.06 100.955V115H1476.46V97.7207H1492.12V115H1488.52V100.955H1480.06ZM1501.31 116.793L1502.04 115L1495 97.7207H1498.78L1503.83 110.324L1508.87 97.7207H1512.65L1504.9 116.793C1504.01 118.926 1503.12 120.42 1502.25 121.275C1501.38 122.131 1500.29 122.559 1498.98 122.559C1498.5 122.559 1498.04 122.529 1497.62 122.471C1497.2 122.412 1496.89 122.348 1496.69 122.277L1496.45 122.207V118.955C1497.04 119.189 1497.65 119.312 1498.26 119.324C1499.63 119.312 1500.65 118.469 1501.31 116.793ZM1517.12 112.68C1515.34 110.887 1514.45 108.783 1514.45 106.369C1514.45 103.943 1515.34 101.834 1517.12 100.041C1518.91 98.248 1521.02 97.3516 1523.45 97.3516C1524.79 97.3516 1526.05 97.6445 1527.21 98.2305C1528.37 98.8047 1529.2 99.3789 1529.7 99.9531L1530.46 100.779L1528.12 103.117C1528 102.93 1527.82 102.701 1527.58 102.432C1527.34 102.15 1526.82 101.775 1526.01 101.307C1525.21 100.838 1524.36 100.604 1523.45 100.604C1521.98 100.604 1520.71 101.16 1519.63 102.273C1518.56 103.387 1518.03 104.752 1518.03 106.369C1518.03 107.975 1518.56 109.334 1519.63 110.447C1520.71 111.561 1521.98 112.117 1523.45 112.117C1524.36 112.117 1525.21 111.889 1526.01 111.432C1526.82 110.975 1527.4 110.529 1527.75 110.096L1528.3 109.428L1530.63 111.766C1530.56 111.859 1530.46 111.994 1530.32 112.17C1530.18 112.334 1529.87 112.621 1529.4 113.031C1528.94 113.43 1528.44 113.787 1527.93 114.104C1527.41 114.408 1526.74 114.695 1525.92 114.965C1525.1 115.223 1524.28 115.352 1523.45 115.352C1521.02 115.352 1518.91 114.461 1517.12 112.68ZM1549.53 97.7207L1542.87 104.928L1550.06 115H1546.1L1540.53 107.266L1537.82 110.148V115H1534.22V97.7207H1537.82V105.455L1545.21 97.7207H1549.53Z" fill="black"/>
<rect x="1050.5" y="1.5" width="869" height="201" rx="100.5" stroke="black"/>
<defs>
<clipPath id="clip0_1226_5019">
<rect width="180" height="180" fill="white" transform="matrix(1 -8.74228e-08 -8.74228e-08 -1 870 192)"/>
</clipPath>
</defs>
</svg>
