<svg width="1920" height="180" viewBox="0 0 1920 180" fill="none" xmlns="http://www.w3.org/2000/svg">
<circle r="89.5" transform="matrix(1 -8.74228e-08 -8.74228e-08 -1 90 90)" stroke="black"/>
<path d="M84.2426 35.2611L138.731 89.75M138.731 89.75L84.2426 144.239M138.731 89.75L29.7537 89.75" stroke="black" stroke-width="2"/>
<path d="M434.457 103H430.854V101.207C430.807 101.254 430.725 101.33 430.607 101.436C430.502 101.541 430.279 101.717 429.939 101.963C429.611 102.197 429.254 102.414 428.867 102.613C428.48 102.801 427.994 102.971 427.408 103.123C426.822 103.275 426.23 103.352 425.633 103.352C423.875 103.352 422.416 102.842 421.256 101.822C420.096 100.803 419.516 99.6367 419.516 98.3242C419.516 96.9062 419.961 95.7168 420.852 94.7559C421.754 93.7949 422.984 93.1855 424.543 92.9277L430.854 91.8379C430.854 90.9238 430.514 90.1562 429.834 89.5352C429.166 88.9141 428.305 88.6035 427.25 88.6035C426.336 88.6035 425.504 88.7969 424.754 89.1836C424.016 89.5586 423.506 89.9395 423.225 90.3262L422.75 90.9414L420.412 88.6035C420.482 88.5098 420.576 88.3926 420.693 88.252C420.822 88.0996 421.098 87.8418 421.52 87.4785C421.953 87.1035 422.41 86.7695 422.891 86.4766C423.371 86.1836 424.004 85.9258 424.789 85.7031C425.586 85.4688 426.406 85.3516 427.25 85.3516C429.359 85.3516 431.088 85.9785 432.436 87.2324C433.783 88.4746 434.457 90.0098 434.457 91.8379V103ZM426.178 100.117C427.643 100.117 428.785 99.6836 429.605 98.8164C430.438 97.9375 430.854 96.6895 430.854 95.0723V94.7207L425.264 95.6172C424.619 95.7344 424.098 95.998 423.699 96.4082C423.301 96.8184 423.102 97.334 423.102 97.9551C423.102 98.5293 423.377 99.0332 423.928 99.4668C424.49 99.9004 425.24 100.117 426.178 100.117ZM452.105 85.7207H455.34V103H451.736V91.6621L442.736 103H439.502V85.7207H443.105V97.0586L452.105 85.7207ZM445.619 79.6035C446.1 80.084 446.697 80.3242 447.412 80.3242C448.139 80.3242 448.742 80.084 449.223 79.6035C449.703 79.123 449.943 78.5195 449.943 77.793H452.65C452.65 79.2344 452.158 80.4355 451.174 81.3965C450.189 82.3574 448.941 82.8379 447.43 82.8379C445.918 82.8379 444.67 82.3574 443.686 81.3965C442.701 80.4355 442.209 79.2344 442.209 77.793H444.898C444.898 78.5078 445.139 79.1113 445.619 79.6035ZM457.871 99.7656H459.119C459.189 99.6953 459.289 99.584 459.418 99.4316C459.559 99.2676 459.793 98.9102 460.121 98.3594C460.461 97.8086 460.754 97.2168 461 96.584C461.258 95.9395 461.486 95.0957 461.686 94.0527C461.896 93.0098 462.002 91.9141 462.002 90.7656V85.7207H474.605V99.7656H477.119V107.324H473.533V103H461.475V107.324H457.871V99.7656ZM465.605 88.9551V90.7656C465.605 91.9141 465.506 93.0039 465.307 94.0352C465.119 95.0664 464.879 95.9219 464.586 96.6016C464.305 97.2695 464.018 97.8496 463.725 98.3418C463.443 98.834 463.209 99.1855 463.021 99.3965L462.723 99.7656H471.002V88.9551H465.605ZM496.754 95.6172H483.254C483.441 96.8359 484.039 97.8906 485.047 98.7812C486.066 99.6719 487.273 100.117 488.668 100.117C489.676 100.117 490.613 99.8887 491.48 99.4316C492.359 98.9746 492.98 98.5293 493.344 98.0957L493.889 97.4277L496.227 99.7656C496.156 99.8594 496.045 99.9941 495.893 100.17C495.752 100.334 495.441 100.621 494.961 101.031C494.48 101.43 493.971 101.787 493.432 102.104C492.893 102.408 492.189 102.695 491.322 102.965C490.467 103.223 489.582 103.352 488.668 103.352C486.219 103.352 484.104 102.455 482.322 100.662C480.553 98.8574 479.668 96.6953 479.668 94.1758C479.668 91.75 480.529 89.6758 482.252 87.9531C483.986 86.2188 486.061 85.3516 488.475 85.3516C490.9 85.3516 492.916 86.1602 494.521 87.7773C496.139 89.3828 496.947 91.3984 496.947 93.8242L496.754 95.6172ZM488.475 88.4277C487.174 88.4277 486.078 88.8145 485.188 89.5879C484.309 90.3496 483.717 91.3398 483.412 92.5586H493.414C493.203 91.3398 492.658 90.3496 491.779 89.5879C490.9 88.8145 489.799 88.4277 488.475 88.4277ZM504.488 95.793V103H500.885V85.7207H504.488V92.5586H512.943V85.7207H516.547V103H512.943V95.793H504.488ZM519.799 88.9551V85.7207H535.268V88.9551H529.326V103H525.74V88.9551H519.799ZM551.105 85.7207H554.34V103H550.736V91.6621L541.736 103H538.502V85.7207H542.105V97.0586L551.105 85.7207ZM574.695 85.7207L568.033 92.9277L575.223 103H571.268L565.695 95.2656L562.988 98.1484V103H559.385V85.7207H562.988V93.4551L570.371 85.7207H574.695ZM591.957 103H588.354V101.207C588.307 101.254 588.225 101.33 588.107 101.436C588.002 101.541 587.779 101.717 587.439 101.963C587.111 102.197 586.754 102.414 586.367 102.613C585.98 102.801 585.494 102.971 584.908 103.123C584.322 103.275 583.73 103.352 583.133 103.352C581.375 103.352 579.916 102.842 578.756 101.822C577.596 100.803 577.016 99.6367 577.016 98.3242C577.016 96.9062 577.461 95.7168 578.352 94.7559C579.254 93.7949 580.484 93.1855 582.043 92.9277L588.354 91.8379C588.354 90.9238 588.014 90.1562 587.334 89.5352C586.666 88.9141 585.805 88.6035 584.75 88.6035C583.836 88.6035 583.004 88.7969 582.254 89.1836C581.516 89.5586 581.006 89.9395 580.725 90.3262L580.25 90.9414L577.912 88.6035C577.982 88.5098 578.076 88.3926 578.193 88.252C578.322 88.0996 578.598 87.8418 579.02 87.4785C579.453 87.1035 579.91 86.7695 580.391 86.4766C580.871 86.1836 581.504 85.9258 582.289 85.7031C583.086 85.4688 583.906 85.3516 584.75 85.3516C586.859 85.3516 588.588 85.9785 589.936 87.2324C591.283 88.4746 591.957 90.0098 591.957 91.8379V103ZM583.678 100.117C585.143 100.117 586.285 99.6836 587.105 98.8164C587.938 97.9375 588.354 96.6895 588.354 95.0723V94.7207L582.764 95.6172C582.119 95.7344 581.598 95.998 581.199 96.4082C580.801 96.8184 580.602 97.334 580.602 97.9551C580.602 98.5293 580.877 99.0332 581.428 99.4668C581.99 99.9004 582.74 100.117 583.678 100.117Z" fill="black"/>
<circle cx="903.5" cy="90" r="70" fill="#9BCECA"/>
<path d="M932.603 109.839C934.1 109.839 935.646 109.689 937.142 109.365C943.701 107.994 947.965 104.529 950.16 98.7949C951.606 95.0555 952.005 90.967 951.357 86.355C950.808 82.4162 949.512 79.275 947.342 76.7571C943.701 72.5191 938.863 70.5496 932.055 70.5496C931.83 70.5496 931.581 70.5496 931.356 70.5496C927.815 70.6244 924.299 71.7463 919.96 74.1644C915.296 76.7821 910.732 80.3221 905.994 85.0088C905.67 85.3329 905.271 85.657 904.747 85.657C904.223 85.657 903.824 85.3329 903.5 85.0088C898.862 80.3969 894.298 76.8568 889.535 74.1395C885.27 71.6964 881.13 70.4998 876.966 70.4998V69.8018V70.4998C875.469 70.4998 873.923 70.6494 872.427 70.9735C868.661 71.7712 865.594 73.2919 863.3 75.5106C860.98 77.7543 859.384 80.7459 858.511 84.4604C858.337 85.2083 858.212 86.006 858.087 86.7788C858.038 87.1279 857.963 87.4769 857.913 87.8259V92.388C858.087 92.6872 858.087 93.0112 858.087 93.2356C858.087 93.3104 858.087 93.3603 858.087 93.4101C858.611 97.6731 859.933 101.014 862.177 103.631C865.793 107.869 870.656 109.839 877.44 109.839C877.689 109.839 877.913 109.839 878.163 109.839C881.704 109.764 885.22 108.642 889.56 106.199C894.223 103.581 898.787 100.016 903.525 95.3546C903.849 95.0305 904.248 94.7065 904.772 94.7065C905.296 94.7065 905.695 95.0305 906.019 95.3546C910.682 99.9666 915.246 103.532 919.984 106.224C924.324 108.642 928.439 109.839 932.603 109.839ZM900.134 91.1665C895.096 96.1025 890.532 99.5677 885.794 102.111C882.826 103.681 879.933 104.454 876.941 104.454C875.794 104.454 874.646 104.329 873.499 104.105C867.863 102.983 864.447 99.4182 863.574 93.7591C863.374 92.5127 863.349 91.2911 863.324 90.1443C863.3 87.7511 863.624 85.7069 864.247 83.887C865.818 79.4745 869.135 76.9067 874.422 76.084C875.27 75.9594 876.118 75.8846 876.941 75.8846C880.283 75.8846 883.549 76.9067 887.265 79.0756C891.505 81.5685 895.694 84.8593 900.059 89.1222C900.308 89.3466 900.632 89.6707 900.632 90.1693C900.632 90.618 900.358 90.9421 900.134 91.1665ZM909.436 91.1415C909.236 90.967 908.912 90.6679 908.912 90.1942C908.912 89.8701 909.061 89.571 909.361 89.2718C913.6 85.1584 918.787 80.5464 925.321 77.5299C927.74 76.4081 930.209 75.8347 932.628 75.8347C935.072 75.8347 937.516 76.4081 939.91 77.5549C943.277 79.1753 945.272 82.1419 946.02 86.6542C946.22 87.801 946.245 88.9477 946.27 90.0696V90.1693C946.245 92.8118 945.97 96.2022 943.925 99.2437C941.481 102.858 937.691 103.831 935.072 104.255C934.249 104.379 933.401 104.454 932.578 104.454C929.286 104.454 926.02 103.432 922.304 101.263C918.039 98.77 913.85 95.4793 909.51 91.1914C909.485 91.1914 909.46 91.1665 909.436 91.1415Z" fill="black"/>
<rect x="180.5" y="0.5" width="812.5" height="179" rx="89.5" stroke="black"/>
<path d="M1050 146.5L1106.5 90M1106.5 90L1050 33.5M1106.5 90L993.5 90" stroke="black" stroke-width="2"/>
<path d="M1368.65 85.7207V88.9551H1360.19V103H1356.59V85.7207H1368.65ZM1385.4 103H1381.79V101.207C1381.75 101.254 1381.67 101.33 1381.55 101.436C1381.44 101.541 1381.22 101.717 1380.88 101.963C1380.55 102.197 1380.2 102.414 1379.81 102.613C1379.42 102.801 1378.94 102.971 1378.35 103.123C1377.76 103.275 1377.17 103.352 1376.57 103.352C1374.82 103.352 1373.36 102.842 1372.2 101.822C1371.04 100.803 1370.46 99.6367 1370.46 98.3242C1370.46 96.9062 1370.9 95.7168 1371.79 94.7559C1372.7 93.7949 1373.93 93.1855 1375.48 92.9277L1381.79 91.8379C1381.79 90.9238 1381.46 90.1562 1380.78 89.5352C1380.11 88.9141 1379.25 88.6035 1378.19 88.6035C1377.28 88.6035 1376.45 88.7969 1375.7 89.1836C1374.96 89.5586 1374.45 89.9395 1374.17 90.3262L1373.69 90.9414L1371.35 88.6035C1371.42 88.5098 1371.52 88.3926 1371.63 88.252C1371.76 88.0996 1372.04 87.8418 1372.46 87.4785C1372.89 87.1035 1373.35 86.7695 1373.83 86.4766C1374.31 86.1836 1374.95 85.9258 1375.73 85.7031C1376.53 85.4688 1377.35 85.3516 1378.19 85.3516C1380.3 85.3516 1382.03 85.9785 1383.38 87.2324C1384.72 88.4746 1385.4 90.0098 1385.4 91.8379V103ZM1377.12 100.117C1378.58 100.117 1379.73 99.6836 1380.55 98.8164C1381.38 97.9375 1381.79 96.6895 1381.79 95.0723V94.7207L1376.21 95.6172C1375.56 95.7344 1375.04 95.998 1374.64 96.4082C1374.24 96.8184 1374.04 97.334 1374.04 97.9551C1374.04 98.5293 1374.32 99.0332 1374.87 99.4668C1375.43 99.9004 1376.18 100.117 1377.12 100.117ZM1403.05 85.7207H1406.28V103H1402.68V91.6621L1393.68 103H1390.44V85.7207H1394.05V97.0586L1403.05 85.7207ZM1396.56 79.6035C1397.04 80.084 1397.64 80.3242 1398.35 80.3242C1399.08 80.3242 1399.68 80.084 1400.16 79.6035C1400.64 79.123 1400.88 78.5195 1400.88 77.793H1403.59C1403.59 79.2344 1403.1 80.4355 1402.12 81.3965C1401.13 82.3574 1399.88 82.8379 1398.37 82.8379C1396.86 82.8379 1395.61 82.3574 1394.63 81.3965C1393.64 80.4355 1393.15 79.2344 1393.15 77.793H1395.84C1395.84 78.5078 1396.08 79.1113 1396.56 79.6035ZM1408.81 99.7656H1410.06C1410.13 99.6953 1410.23 99.584 1410.36 99.4316C1410.5 99.2676 1410.73 98.9102 1411.06 98.3594C1411.4 97.8086 1411.7 97.2168 1411.94 96.584C1412.2 95.9395 1412.43 95.0957 1412.63 94.0527C1412.84 93.0098 1412.94 91.9141 1412.94 90.7656V85.7207H1425.55V99.7656H1428.06V107.324H1424.47V103H1412.42V107.324H1408.81V99.7656ZM1416.55 88.9551V90.7656C1416.55 91.9141 1416.45 93.0039 1416.25 94.0352C1416.06 95.0664 1415.82 95.9219 1415.53 96.6016C1415.25 97.2695 1414.96 97.8496 1414.67 98.3418C1414.38 98.834 1414.15 99.1855 1413.96 99.3965L1413.66 99.7656H1421.94V88.9551H1416.55ZM1434.76 85.7207H1448.08V103H1444.48V88.9551H1438.36V90.7656C1438.36 94.0586 1438.1 96.6602 1437.57 98.5703C1437.05 100.469 1436.39 101.74 1435.57 102.385C1434.76 103.029 1433.71 103.352 1432.42 103.352C1432.1 103.352 1431.76 103.322 1431.4 103.264C1431.05 103.205 1430.77 103.141 1430.57 103.07L1430.26 103V99.5723C1430.74 99.6895 1431.15 99.7539 1431.51 99.7656C1432.24 99.7656 1432.82 99.5664 1433.25 99.168C1433.68 98.7695 1434.04 97.8906 1434.32 96.5312C1434.61 95.1602 1434.76 93.2383 1434.76 90.7656V85.7207ZM1467 103H1463.39V101.207C1463.35 101.254 1463.26 101.33 1463.15 101.436C1463.04 101.541 1462.82 101.717 1462.48 101.963C1462.15 102.197 1461.79 102.414 1461.41 102.613C1461.02 102.801 1460.53 102.971 1459.95 103.123C1459.36 103.275 1458.77 103.352 1458.17 103.352C1456.41 103.352 1454.96 102.842 1453.79 101.822C1452.63 100.803 1452.05 99.6367 1452.05 98.3242C1452.05 96.9062 1452.5 95.7168 1453.39 94.7559C1454.29 93.7949 1455.52 93.1855 1457.08 92.9277L1463.39 91.8379C1463.39 90.9238 1463.05 90.1562 1462.37 89.5352C1461.71 88.9141 1460.84 88.6035 1459.79 88.6035C1458.88 88.6035 1458.04 88.7969 1457.29 89.1836C1456.55 89.5586 1456.04 89.9395 1455.76 90.3262L1455.29 90.9414L1452.95 88.6035C1453.02 88.5098 1453.12 88.3926 1453.23 88.252C1453.36 88.0996 1453.64 87.8418 1454.06 87.4785C1454.49 87.1035 1454.95 86.7695 1455.43 86.4766C1455.91 86.1836 1456.54 85.9258 1457.33 85.7031C1458.12 85.4688 1458.95 85.3516 1459.79 85.3516C1461.9 85.3516 1463.63 85.9785 1464.97 87.2324C1466.32 88.4746 1467 90.0098 1467 91.8379V103ZM1458.72 100.117C1460.18 100.117 1461.32 99.6836 1462.14 98.8164C1462.98 97.9375 1463.39 96.6895 1463.39 95.0723V94.7207L1457.8 95.6172C1457.16 95.7344 1456.64 95.998 1456.24 96.4082C1455.84 96.8184 1455.64 97.334 1455.64 97.9551C1455.64 98.5293 1455.92 99.0332 1456.47 99.4668C1457.03 99.9004 1457.78 100.117 1458.72 100.117ZM1484.64 85.7207H1487.88V103H1484.28V91.6621L1475.28 103H1472.04V85.7207H1475.64V97.0586L1484.64 85.7207ZM1478.16 79.6035C1478.64 80.084 1479.24 80.3242 1479.95 80.3242C1480.68 80.3242 1481.28 80.084 1481.76 79.6035C1482.24 79.123 1482.48 78.5195 1482.48 77.793H1485.19C1485.19 79.2344 1484.7 80.4355 1483.71 81.3965C1482.73 82.3574 1481.48 82.8379 1479.97 82.8379C1478.46 82.8379 1477.21 82.3574 1476.22 81.3965C1475.24 80.4355 1474.75 79.2344 1474.75 77.793H1477.44C1477.44 78.5078 1477.68 79.1113 1478.16 79.6035ZM1496.53 95.793V103H1492.92V85.7207H1496.53V92.5586H1504.98V85.7207H1508.59V103H1504.98V95.793H1496.53Z" fill="black"/>
<circle cx="1830" cy="90" r="68.2218" stroke="black" stroke-width="3.55644"/>
<path d="M1794.67 61H1863.17L1794.67 91H1863.17L1794.67 119.5H1863.17" stroke="black" stroke-width="3"/>
<rect x="1107" y="0.5" width="812.5" height="179" rx="89.5" stroke="black"/>
</svg>
