<svg width="1920" height="188" viewBox="0 0 1920 188" fill="none" xmlns="http://www.w3.org/2000/svg">
<path d="M65.0625 102.447C66.1289 101.334 66.6621 99.9746 66.6621 98.3691C66.6621 96.752 66.1289 95.3867 65.0625 94.2734C63.9961 93.1602 62.7305 92.6035 61.2656 92.6035C59.8008 92.6035 58.5293 93.1602 57.4512 94.2734C56.3848 95.3867 55.8516 96.752 55.8516 98.3691C55.8516 99.9746 56.3848 101.334 57.4512 102.447C58.5293 103.561 59.8008 104.117 61.2656 104.117C62.7305 104.117 63.9961 103.561 65.0625 102.447ZM54.9375 104.68C53.1562 102.887 52.2656 100.783 52.2656 98.3691C52.2656 95.9434 53.1562 93.834 54.9375 92.041C56.7305 90.248 58.8398 89.3516 61.2656 89.3516C63.6914 89.3516 65.7949 90.248 67.5762 92.041C69.3691 93.834 70.2656 95.9434 70.2656 98.3691C70.2656 100.783 69.3691 102.887 67.5762 104.68C65.7949 106.461 63.6914 107.352 61.2656 107.352C58.8398 107.352 56.7305 106.461 54.9375 104.68ZM74.2207 107V89.7207H77.8242V103.766H85.9277V89.7207H89.5312V103.766H92.0449V111.324H88.4414V107H74.2207ZM111.645 99.6172H98.1445C98.332 100.836 98.9297 101.891 99.9375 102.781C100.957 103.672 102.164 104.117 103.559 104.117C104.566 104.117 105.504 103.889 106.371 103.432C107.25 102.975 107.871 102.529 108.234 102.096L108.779 101.428L111.117 103.766C111.047 103.859 110.936 103.994 110.783 104.17C110.643 104.334 110.332 104.621 109.852 105.031C109.371 105.43 108.861 105.787 108.322 106.104C107.783 106.408 107.08 106.695 106.213 106.965C105.357 107.223 104.473 107.352 103.559 107.352C101.109 107.352 98.9941 106.455 97.2129 104.662C95.4434 102.857 94.5586 100.695 94.5586 98.1758C94.5586 95.75 95.4199 93.6758 97.1426 91.9531C98.877 90.2188 100.951 89.3516 103.365 89.3516C105.791 89.3516 107.807 90.1602 109.412 91.7773C111.029 93.3828 111.838 95.3984 111.838 97.8242L111.645 99.6172ZM103.365 92.4277C102.064 92.4277 100.969 92.8145 100.078 93.5879C99.1992 94.3496 98.6074 95.3398 98.3027 96.5586H108.305C108.094 95.3398 107.549 94.3496 106.67 93.5879C105.791 92.8145 104.689 92.4277 103.365 92.4277ZM119.379 99.793V107H115.775V89.7207H119.379V96.5586H127.834V89.7207H131.438V107H127.834V99.793H119.379ZM151.793 89.7207L145.131 96.9277L152.32 107H148.365L142.793 99.2656L140.086 102.148V107H136.482V89.7207H140.086V97.4551L147.469 89.7207H151.793ZM169.055 107H165.451V105.207C165.404 105.254 165.322 105.33 165.205 105.436C165.1 105.541 164.877 105.717 164.537 105.963C164.209 106.197 163.852 106.414 163.465 106.613C163.078 106.801 162.592 106.971 162.006 107.123C161.42 107.275 160.828 107.352 160.23 107.352C158.473 107.352 157.014 106.842 155.854 105.822C154.693 104.803 154.113 103.637 154.113 102.324C154.113 100.906 154.559 99.7168 155.449 98.7559C156.352 97.7949 157.582 97.1855 159.141 96.9277L165.451 95.8379C165.451 94.9238 165.111 94.1562 164.432 93.5352C163.764 92.9141 162.902 92.6035 161.848 92.6035C160.934 92.6035 160.102 92.7969 159.352 93.1836C158.613 93.5586 158.104 93.9395 157.822 94.3262L157.348 94.9414L155.01 92.6035C155.08 92.5098 155.174 92.3926 155.291 92.252C155.42 92.0996 155.695 91.8418 156.117 91.4785C156.551 91.1035 157.008 90.7695 157.488 90.4766C157.969 90.1836 158.602 89.9258 159.387 89.7031C160.184 89.4688 161.004 89.3516 161.848 89.3516C163.957 89.3516 165.686 89.9785 167.033 91.2324C168.381 92.4746 169.055 94.0098 169.055 95.8379V107ZM160.775 104.117C162.24 104.117 163.383 103.684 164.203 102.816C165.035 101.938 165.451 100.689 165.451 99.0723V98.7207L159.861 99.6172C159.217 99.7344 158.695 99.998 158.297 100.408C157.898 100.818 157.699 101.334 157.699 101.955C157.699 102.529 157.975 103.033 158.525 103.467C159.088 103.9 159.838 104.117 160.775 104.117ZM193.91 89.7207H197.145V107H193.541V95.6621L184.541 107H181.307V89.7207H184.91V101.059L193.91 89.7207ZM221.121 102.447C222.188 101.334 222.721 99.9746 222.721 98.3691C222.721 96.752 222.188 95.3867 221.121 94.2734C220.055 93.1602 218.789 92.6035 217.324 92.6035C215.859 92.6035 214.588 93.1602 213.51 94.2734C212.443 95.3867 211.91 96.752 211.91 98.3691C211.91 99.9746 212.443 101.334 213.51 102.447C214.588 103.561 215.859 104.117 217.324 104.117C218.789 104.117 220.055 103.561 221.121 102.447ZM210.996 104.68C209.215 102.887 208.324 100.783 208.324 98.3691C208.324 95.9434 209.215 93.834 210.996 92.041C212.789 90.248 214.898 89.3516 217.324 89.3516C219.75 89.3516 221.854 90.248 223.635 92.041C225.428 93.834 226.324 95.9434 226.324 98.3691C226.324 100.783 225.428 102.887 223.635 104.68C221.854 106.461 219.75 107.352 217.324 107.352C214.898 107.352 212.789 106.461 210.996 104.68ZM228.486 92.9551V89.7207H243.955V92.9551H238.014V107H234.428V92.9551H228.486ZM264.469 98.5449C264.469 100.971 263.613 103.045 261.902 104.768C260.203 106.49 258.182 107.352 255.838 107.352C253.131 107.352 250.951 106.385 249.299 104.451C247.658 102.506 246.838 99.6934 246.838 96.0137C246.838 91.8184 247.617 88.6719 249.176 86.5742C250.734 84.4766 252.955 83.1875 255.838 82.707C257.115 82.4961 258.258 82.2266 259.266 81.8984C260.285 81.5703 260.988 81.2949 261.375 81.0723L261.955 80.7207L263.572 83.4277C263.502 83.5215 263.355 83.6562 263.133 83.832C262.922 84.0078 262.189 84.3242 260.936 84.7812C259.693 85.2383 258.111 85.625 256.189 85.9414C254.537 86.2109 253.207 86.8965 252.199 87.998C251.191 89.0996 250.6 90.5762 250.424 92.4277C250.471 92.3574 250.553 92.2637 250.67 92.1465C250.799 92.0176 251.051 91.8008 251.426 91.4961C251.801 91.1797 252.193 90.9043 252.604 90.6699C253.025 90.4238 253.559 90.207 254.203 90.0195C254.859 89.8203 255.521 89.7207 256.189 89.7207C258.369 89.7207 260.291 90.5938 261.955 92.3398C263.631 94.0742 264.469 96.1426 264.469 98.5449ZM252.287 94.5723C251.291 95.6387 250.793 96.9629 250.793 98.5449C250.793 100.127 251.291 101.451 252.287 102.518C253.283 103.584 254.461 104.117 255.82 104.117C257.191 104.117 258.375 103.584 259.371 102.518C260.367 101.451 260.865 100.127 260.865 98.5449C260.865 96.9629 260.367 95.6387 259.371 94.5723C258.375 93.4941 257.191 92.9551 255.82 92.9551C254.461 92.9551 253.283 93.4941 252.287 94.5723ZM280.5 102.447C281.566 101.334 282.1 99.9746 282.1 98.3691C282.1 96.752 281.566 95.3867 280.5 94.2734C279.434 93.1602 278.168 92.6035 276.703 92.6035C275.238 92.6035 273.967 93.1602 272.889 94.2734C271.822 95.3867 271.289 96.752 271.289 98.3691C271.289 99.9746 271.822 101.334 272.889 102.447C273.967 103.561 275.238 104.117 276.703 104.117C278.168 104.117 279.434 103.561 280.5 102.447ZM270.375 104.68C268.594 102.887 267.703 100.783 267.703 98.3691C267.703 95.9434 268.594 93.834 270.375 92.041C272.168 90.248 274.277 89.3516 276.703 89.3516C279.129 89.3516 281.232 90.248 283.014 92.041C284.807 93.834 285.703 95.9434 285.703 98.3691C285.703 100.783 284.807 102.887 283.014 104.68C281.232 106.461 279.129 107.352 276.703 107.352C274.277 107.352 272.168 106.461 270.375 104.68ZM298.834 107.352C298.189 107.352 297.562 107.275 296.953 107.123C296.344 106.971 295.822 106.783 295.389 106.561C294.955 106.326 294.568 106.092 294.229 105.857C293.9 105.611 293.66 105.418 293.508 105.277L293.262 105.014V114.559H289.658V89.7207H293.262V91.707C293.426 91.543 293.654 91.3262 293.947 91.0566C294.252 90.7871 294.891 90.4355 295.863 90.002C296.836 89.5684 297.826 89.3516 298.834 89.3516C301.119 89.3516 303.1 90.2305 304.775 91.9883C306.463 93.7344 307.307 95.8555 307.307 98.3516C307.307 100.848 306.463 102.975 304.775 104.732C303.1 106.479 301.119 107.352 298.834 107.352ZM302.121 94.291C301.066 93.166 299.854 92.6035 298.482 92.6035C297.111 92.6035 295.898 93.166 294.844 94.291C293.789 95.416 293.262 96.7754 293.262 98.3691C293.262 99.9512 293.789 101.305 294.844 102.43C295.898 103.555 297.111 104.117 298.482 104.117C299.854 104.117 301.066 103.555 302.121 102.43C303.176 101.305 303.703 99.9512 303.703 98.3691C303.703 96.7754 303.176 95.416 302.121 94.291Z" fill="black"/>
<ellipse cx="430.496" cy="94" rx="69.5035" ry="70" fill="#CD93AF"/>
<path d="M460.284 61H401.702V128L431.986 114.5L460.284 128V61Z" stroke="black" stroke-width="4"/>
<rect x="0.5" y="0.5" width="519" height="187" rx="93.5" stroke="black"/>
<circle cx="610" cy="94" r="89.5" stroke="black"/>
<path d="M604.243 148.738L658.732 94.2495M658.732 94.2495L604.243 39.7606M658.732 94.2495H549.754" stroke="black" stroke-width="2"/>
<circle cx="792" cy="94" r="68.2218" stroke="black" stroke-width="3.55644"/>
<rect x="750" y="61" width="83" height="65" rx="7" stroke="black" stroke-width="4"/>
<rect x="759" y="70" width="65" height="47" rx="7" stroke="black" stroke-width="4"/>
<path d="M906.941 71.9551V86H903.338V68.7207H919V86H915.396V71.9551H906.941ZM933.221 86.3516C932.576 86.3516 931.949 86.2754 931.34 86.123C930.73 85.9707 930.209 85.7832 929.775 85.5605C929.342 85.3262 928.955 85.0918 928.615 84.8574C928.287 84.6113 928.047 84.418 927.895 84.2773L927.648 84.0137V93.5586H924.045V68.7207H927.648V70.707C927.812 70.543 928.041 70.3262 928.334 70.0566C928.639 69.7871 929.277 69.4355 930.25 69.002C931.223 68.5684 932.213 68.3516 933.221 68.3516C935.506 68.3516 937.486 69.2305 939.162 70.9883C940.85 72.7344 941.693 74.8555 941.693 77.3516C941.693 79.8477 940.85 81.9746 939.162 83.7324C937.486 85.4785 935.506 86.3516 933.221 86.3516ZM936.508 73.291C935.453 72.166 934.24 71.6035 932.869 71.6035C931.498 71.6035 930.285 72.166 929.23 73.291C928.176 74.416 927.648 75.7754 927.648 77.3691C927.648 78.9512 928.176 80.3047 929.23 81.4297C930.285 82.5547 931.498 83.1172 932.869 83.1172C934.24 83.1172 935.453 82.5547 936.508 81.4297C937.562 80.3047 938.09 78.9512 938.09 77.3691C938.09 75.7754 937.562 74.416 936.508 73.291ZM961.645 78.6172H948.145C948.332 79.8359 948.93 80.8906 949.938 81.7812C950.957 82.6719 952.164 83.1172 953.559 83.1172C954.566 83.1172 955.504 82.8887 956.371 82.4316C957.25 81.9746 957.871 81.5293 958.234 81.0957L958.779 80.4277L961.117 82.7656C961.047 82.8594 960.936 82.9941 960.783 83.1699C960.643 83.334 960.332 83.6211 959.852 84.0312C959.371 84.4297 958.861 84.7871 958.322 85.1035C957.783 85.4082 957.08 85.6953 956.213 85.9648C955.357 86.2227 954.473 86.3516 953.559 86.3516C951.109 86.3516 948.994 85.4551 947.213 83.6621C945.443 81.8574 944.559 79.6953 944.559 77.1758C944.559 74.75 945.42 72.6758 947.143 70.9531C948.877 69.2188 950.951 68.3516 953.365 68.3516C955.791 68.3516 957.807 69.1602 959.412 70.7773C961.029 72.3828 961.838 74.3984 961.838 76.8242L961.645 78.6172ZM953.365 71.4277C952.064 71.4277 950.969 71.8145 950.078 72.5879C949.199 73.3496 948.607 74.3398 948.303 75.5586H958.305C958.094 74.3398 957.549 73.3496 956.67 72.5879C955.791 71.8145 954.689 71.4277 953.365 71.4277ZM977.289 73.2207C977.289 74.0176 977.066 74.7148 976.621 75.3125C976.188 75.9102 975.742 76.3027 975.285 76.4902L974.6 76.8242C974.693 76.8477 974.816 76.8887 974.969 76.9473C975.133 77.0059 975.402 77.1465 975.777 77.3691C976.164 77.5801 976.504 77.8379 976.797 78.1426C977.102 78.4355 977.377 78.8457 977.623 79.373C977.881 79.9004 978.01 80.4922 978.01 81.1484C978.01 82.5898 977.365 83.8203 976.076 84.8398C974.799 85.8477 973.047 86.3516 970.82 86.3516C969.977 86.3516 969.162 86.2461 968.377 86.0352C967.604 85.8242 966.959 85.5723 966.443 85.2793C965.928 84.9863 965.477 84.6934 965.09 84.4004C964.703 84.0957 964.416 83.8379 964.229 83.627L963.982 83.293L966.32 80.9551C966.461 81.1191 966.648 81.3242 966.883 81.5703C967.129 81.8164 967.645 82.1387 968.43 82.5371C969.227 82.9238 970.023 83.1172 970.82 83.1172C972.016 83.1172 972.912 82.8945 973.51 82.4492C974.119 82.0039 974.424 81.4473 974.424 80.7793C974.424 80.1113 974.119 79.5547 973.51 79.1094C972.912 78.6641 972.016 78.4414 970.82 78.4414H968.834V75.5586H970.82C971.758 75.5586 972.473 75.377 972.965 75.0137C973.457 74.6387 973.703 74.1641 973.703 73.5898C973.703 73.0039 973.457 72.5293 972.965 72.166C972.473 71.791 971.758 71.6035 970.82 71.6035C970.129 71.6035 969.449 71.7383 968.781 72.0078C968.125 72.2656 967.639 72.5352 967.322 72.8164L966.865 73.2207L964.51 70.8828C964.674 70.6953 964.914 70.4609 965.23 70.1797C965.547 69.8984 966.25 69.5234 967.34 69.0547C968.43 68.5859 969.59 68.3516 970.82 68.3516C972.812 68.3516 974.389 68.832 975.549 69.793C976.709 70.7539 977.289 71.8965 977.289 73.2207ZM997.996 78.6172H984.496C984.684 79.8359 985.281 80.8906 986.289 81.7812C987.309 82.6719 988.516 83.1172 989.91 83.1172C990.918 83.1172 991.855 82.8887 992.723 82.4316C993.602 81.9746 994.223 81.5293 994.586 81.0957L995.131 80.4277L997.469 82.7656C997.398 82.8594 997.287 82.9941 997.135 83.1699C996.994 83.334 996.684 83.6211 996.203 84.0312C995.723 84.4297 995.213 84.7871 994.674 85.1035C994.135 85.4082 993.432 85.6953 992.564 85.9648C991.709 86.2227 990.824 86.3516 989.91 86.3516C987.461 86.3516 985.346 85.4551 983.564 83.6621C981.795 81.8574 980.91 79.6953 980.91 77.1758C980.91 74.75 981.771 72.6758 983.494 70.9531C985.229 69.2188 987.303 68.3516 989.717 68.3516C992.143 68.3516 994.158 69.1602 995.764 70.7773C997.381 72.3828 998.189 74.3984 998.189 76.8242L997.996 78.6172ZM989.717 71.4277C988.416 71.4277 987.32 71.8145 986.43 72.5879C985.551 73.3496 984.959 74.3398 984.654 75.5586H994.656C994.445 74.3398 993.9 73.3496 993.021 72.5879C992.143 71.8145 991.041 71.4277 989.717 71.4277ZM1005.73 78.793V86H1002.13V68.7207H1005.73V75.5586H1014.19V68.7207H1017.79V86H1014.19V78.793H1005.73ZM1021.04 71.9551V68.7207H1036.51V71.9551H1030.57V86H1026.98V71.9551H1021.04ZM1053.61 86H1050.01V84.207C1049.96 84.2539 1049.88 84.3301 1049.76 84.4355C1049.66 84.541 1049.44 84.7168 1049.1 84.9629C1048.77 85.1973 1048.41 85.4141 1048.02 85.6133C1047.64 85.8008 1047.15 85.9707 1046.56 86.123C1045.98 86.2754 1045.39 86.3516 1044.79 86.3516C1043.03 86.3516 1041.57 85.8418 1040.41 84.8223C1039.25 83.8027 1038.67 82.6367 1038.67 81.3242C1038.67 79.9062 1039.12 78.7168 1040.01 77.7559C1040.91 76.7949 1042.14 76.1855 1043.7 75.9277L1050.01 74.8379C1050.01 73.9238 1049.67 73.1562 1048.99 72.5352C1048.32 71.9141 1047.46 71.6035 1046.41 71.6035C1045.49 71.6035 1044.66 71.7969 1043.91 72.1836C1043.17 72.5586 1042.66 72.9395 1042.38 73.3262L1041.91 73.9414L1039.57 71.6035C1039.64 71.5098 1039.73 71.3926 1039.85 71.252C1039.98 71.0996 1040.25 70.8418 1040.68 70.4785C1041.11 70.1035 1041.57 69.7695 1042.05 69.4766C1042.53 69.1836 1043.16 68.9258 1043.95 68.7031C1044.74 68.4688 1045.56 68.3516 1046.41 68.3516C1048.52 68.3516 1050.24 68.9785 1051.59 70.2324C1052.94 71.4746 1053.61 73.0098 1053.61 74.8379V86ZM1045.33 83.1172C1046.8 83.1172 1047.94 82.6836 1048.76 81.8164C1049.59 80.9375 1050.01 79.6895 1050.01 78.0723V77.7207L1044.42 78.6172C1043.78 78.7344 1043.25 78.998 1042.86 79.4082C1042.46 79.8184 1042.26 80.334 1042.26 80.9551C1042.26 81.5293 1042.53 82.0332 1043.08 82.4668C1043.65 82.9004 1044.4 83.1172 1045.33 83.1172ZM1058.66 86V68.7207H1062.26V82.7656H1070.37V68.7207H1073.97V82.7656H1076.48V90.3242H1072.88V86H1058.66ZM1092.67 68.7207H1095.91V86H1092.3V74.6621L1083.3 86H1080.07V68.7207H1083.67V80.0586L1092.67 68.7207ZM1106.72 68.7207H1114.63V86H1111.04V80.6035H1107.26L1103.83 86H1099.88L1103.66 80.0586C1103.56 80.0352 1103.44 79.9824 1103.27 79.9004C1103.12 79.8184 1102.85 79.6367 1102.46 79.3555C1102.08 79.0625 1101.73 78.7285 1101.43 78.3535C1101.13 77.9785 1100.86 77.4629 1100.6 76.8066C1100.35 76.1387 1100.23 75.4238 1100.23 74.6621C1100.23 72.9395 1100.82 71.5215 1102.01 70.4082C1103.2 69.2832 1104.77 68.7207 1106.72 68.7207ZM1111.04 71.7793H1106.72C1105.9 71.7793 1105.21 72.0547 1104.66 72.6055C1104.11 73.1562 1103.83 73.8418 1103.83 74.6621C1103.83 75.4824 1104.11 76.168 1104.66 76.7188C1105.21 77.2695 1105.9 77.5449 1106.72 77.5449H1111.04V71.7793ZM905.324 110.721H918.648V128H915.045V113.955H908.928V115.766C908.928 119.059 908.664 121.66 908.137 123.57C907.621 125.469 906.953 126.74 906.133 127.385C905.324 128.029 904.275 128.352 902.986 128.352C902.67 128.352 902.33 128.322 901.967 128.264C901.615 128.205 901.34 128.141 901.141 128.07L900.824 128V124.572C901.305 124.689 901.721 124.754 902.072 124.766C902.811 124.766 903.391 124.566 903.812 124.168C904.246 123.77 904.604 122.891 904.885 121.531C905.178 120.16 905.324 118.238 905.324 115.766V110.721ZM927.842 129.793L928.562 128L921.531 110.721H925.311L930.355 123.324L935.4 110.721H939.18L931.428 129.793C930.537 131.926 929.652 133.42 928.773 134.275C927.906 135.131 926.816 135.559 925.504 135.559C925.023 135.559 924.572 135.529 924.15 135.471C923.729 135.412 923.418 135.348 923.219 135.277L922.973 135.207V131.955C923.57 132.189 924.174 132.312 924.783 132.324C926.154 132.312 927.174 131.469 927.842 129.793ZM952.855 128V121.514C951.66 122.357 950.219 122.779 948.531 122.779C946.445 122.779 944.781 122.152 943.539 120.898C942.309 119.633 941.693 117.922 941.693 115.766V110.721H945.279V115.766C945.279 116.844 945.625 117.746 946.316 118.473C947.02 119.188 947.875 119.545 948.883 119.545C949.621 119.545 950.318 119.428 950.975 119.193C951.643 118.947 952.123 118.701 952.416 118.455L952.855 118.104V110.721H956.441V128H952.855ZM961.486 128V110.721H965.09V124.766H971.383V110.721H974.986V124.766H981.297V110.721H984.883V128H961.486ZM1002.53 110.721H1005.77V128H1002.16V116.662L993.162 128H989.928V110.721H993.531V122.059L1002.53 110.721ZM1019.46 119L1025.93 128H1021.8L1017.3 121.707L1012.8 128H1008.65L1015.13 119L1009.19 110.721H1013.32L1017.3 116.293L1021.25 110.721H1025.4L1019.46 119ZM1039.62 120.793V128H1036.02V110.721H1039.62V117.559H1048.08V110.721H1051.68V128H1048.08V120.793H1039.62ZM1070.59 128H1066.99V126.207C1066.94 126.254 1066.86 126.33 1066.74 126.436C1066.64 126.541 1066.42 126.717 1066.08 126.963C1065.75 127.197 1065.39 127.414 1065 127.613C1064.62 127.801 1064.13 127.971 1063.54 128.123C1062.96 128.275 1062.37 128.352 1061.77 128.352C1060.01 128.352 1058.55 127.842 1057.39 126.822C1056.23 125.803 1055.65 124.637 1055.65 123.324C1055.65 121.906 1056.1 120.717 1056.99 119.756C1057.89 118.795 1059.12 118.186 1060.68 117.928L1066.99 116.838C1066.99 115.924 1066.65 115.156 1065.97 114.535C1065.3 113.914 1064.44 113.604 1063.39 113.604C1062.47 113.604 1061.64 113.797 1060.89 114.184C1060.15 114.559 1059.64 114.939 1059.36 115.326L1058.89 115.941L1056.55 113.604C1056.62 113.51 1056.71 113.393 1056.83 113.252C1056.96 113.1 1057.23 112.842 1057.66 112.479C1058.09 112.104 1058.55 111.77 1059.03 111.477C1059.51 111.184 1060.14 110.926 1060.93 110.703C1061.72 110.469 1062.54 110.352 1063.39 110.352C1065.5 110.352 1067.22 110.979 1068.57 112.232C1069.92 113.475 1070.59 115.01 1070.59 116.838V128ZM1062.31 125.117C1063.78 125.117 1064.92 124.684 1065.74 123.816C1066.57 122.938 1066.99 121.689 1066.99 120.072V119.721L1061.4 120.617C1060.76 120.734 1060.23 120.998 1059.84 121.408C1059.44 121.818 1059.24 122.334 1059.24 122.955C1059.24 123.529 1059.51 124.033 1060.06 124.467C1060.63 124.9 1061.38 125.117 1062.31 125.117ZM1087.15 115.221C1087.15 116.018 1086.93 116.715 1086.48 117.312C1086.05 117.91 1085.61 118.303 1085.15 118.49L1084.46 118.824C1084.56 118.848 1084.68 118.889 1084.83 118.947C1085 119.006 1085.27 119.146 1085.64 119.369C1086.03 119.58 1086.37 119.838 1086.66 120.143C1086.96 120.436 1087.24 120.846 1087.49 121.373C1087.74 121.9 1087.87 122.492 1087.87 123.148C1087.87 124.59 1087.23 125.82 1085.94 126.84C1084.66 127.848 1082.91 128.352 1080.68 128.352C1079.84 128.352 1079.03 128.246 1078.24 128.035C1077.47 127.824 1076.82 127.572 1076.31 127.279C1075.79 126.986 1075.34 126.693 1074.95 126.4C1074.57 126.096 1074.28 125.838 1074.09 125.627L1073.85 125.293L1076.18 122.955C1076.32 123.119 1076.51 123.324 1076.75 123.57C1076.99 123.816 1077.51 124.139 1078.29 124.537C1079.09 124.924 1079.89 125.117 1080.68 125.117C1081.88 125.117 1082.78 124.895 1083.37 124.449C1083.98 124.004 1084.29 123.447 1084.29 122.779C1084.29 122.111 1083.98 121.555 1083.37 121.109C1082.78 120.664 1081.88 120.441 1080.68 120.441H1078.7V117.559H1080.68C1081.62 117.559 1082.34 117.377 1082.83 117.014C1083.32 116.639 1083.57 116.164 1083.57 115.59C1083.57 115.004 1083.32 114.529 1082.83 114.166C1082.34 113.791 1081.62 113.604 1080.68 113.604C1079.99 113.604 1079.31 113.738 1078.64 114.008C1077.99 114.266 1077.5 114.535 1077.19 114.816L1076.73 115.221L1074.37 112.883C1074.54 112.695 1074.78 112.461 1075.09 112.18C1075.41 111.898 1076.11 111.523 1077.2 111.055C1078.29 110.586 1079.45 110.352 1080.68 110.352C1082.68 110.352 1084.25 110.832 1085.41 111.793C1086.57 112.754 1087.15 113.896 1087.15 115.221ZM1091.85 110.721H1100.12C1101.78 110.721 1103.09 111.148 1104.06 112.004C1105.04 112.848 1105.52 113.92 1105.52 115.221C1105.52 115.959 1105.36 116.633 1105.03 117.242C1104.71 117.84 1104.38 118.256 1104.04 118.49L1103.55 118.824C1103.62 118.848 1103.72 118.889 1103.85 118.947C1103.98 119.006 1104.21 119.158 1104.55 119.404C1104.89 119.639 1105.19 119.902 1105.43 120.195C1105.69 120.477 1105.92 120.863 1106.12 121.355C1106.33 121.848 1106.44 122.381 1106.44 122.955C1106.44 124.443 1105.9 125.656 1104.84 126.594C1103.78 127.531 1102.33 128 1100.49 128H1091.85V110.721ZM1100.49 120.266H1095.45V124.941H1100.49C1101.21 124.941 1101.78 124.73 1102.2 124.309C1102.62 123.887 1102.83 123.318 1102.83 122.604C1102.83 121.959 1102.62 121.408 1102.18 120.951C1101.75 120.494 1101.19 120.266 1100.49 120.266ZM1101.44 116.908C1101.77 116.58 1101.94 116.141 1101.94 115.59C1101.94 115.027 1101.77 114.588 1101.44 114.271C1101.12 113.943 1100.68 113.779 1100.12 113.779H1095.45V117.383H1100.12C1100.68 117.383 1101.12 117.225 1101.44 116.908ZM1124.24 128H1120.64V126.207C1120.59 126.254 1120.51 126.33 1120.39 126.436C1120.29 126.541 1120.06 126.717 1119.72 126.963C1119.4 127.197 1119.04 127.414 1118.65 127.613C1118.27 127.801 1117.78 127.971 1117.19 128.123C1116.61 128.275 1116.02 128.352 1115.42 128.352C1113.66 128.352 1112.2 127.842 1111.04 126.822C1109.88 125.803 1109.3 124.637 1109.3 123.324C1109.3 121.906 1109.75 120.717 1110.64 119.756C1111.54 118.795 1112.77 118.186 1114.33 117.928L1120.64 116.838C1120.64 115.924 1120.3 115.156 1119.62 114.535C1118.95 113.914 1118.09 113.604 1117.04 113.604C1116.12 113.604 1115.29 113.797 1114.54 114.184C1113.8 114.559 1113.29 114.939 1113.01 115.326L1112.54 115.941L1110.2 113.604C1110.27 113.51 1110.36 113.393 1110.48 113.252C1110.61 113.1 1110.88 112.842 1111.3 112.479C1111.74 112.104 1112.2 111.77 1112.68 111.477C1113.16 111.184 1113.79 110.926 1114.57 110.703C1115.37 110.469 1116.19 110.352 1117.04 110.352C1119.14 110.352 1120.87 110.979 1122.22 112.232C1123.57 113.475 1124.24 115.01 1124.24 116.838V128ZM1115.96 125.117C1117.43 125.117 1118.57 124.684 1119.39 123.816C1120.22 122.938 1120.64 121.689 1120.64 120.072V119.721L1115.05 120.617C1114.4 120.734 1113.88 120.998 1113.48 121.408C1113.09 121.818 1112.89 122.334 1112.89 122.955C1112.89 123.529 1113.16 124.033 1113.71 124.467C1114.28 124.9 1115.03 125.117 1115.96 125.117ZM1132.89 120.793V128H1129.29V110.721H1132.89V117.559H1141.35V110.721H1144.95V128H1141.35V120.793H1132.89ZM1162.6 110.721H1165.83V128H1162.23V116.662L1153.23 128H1149.99V110.721H1153.6V122.059L1162.6 110.721ZM1183.48 110.721H1186.71V128H1183.11V116.662L1174.11 128H1170.88V110.721H1174.48V122.059L1183.48 110.721ZM1176.99 104.604C1177.47 105.084 1178.07 105.324 1178.79 105.324C1179.51 105.324 1180.12 105.084 1180.6 104.604C1181.08 104.123 1181.32 103.52 1181.32 102.793H1184.03C1184.03 104.234 1183.53 105.436 1182.55 106.396C1181.56 107.357 1180.32 107.838 1178.8 107.838C1177.29 107.838 1176.04 107.357 1175.06 106.396C1174.08 105.436 1173.58 104.234 1173.58 102.793H1176.27C1176.27 103.508 1176.51 104.111 1176.99 104.604Z" fill="black"/>
<rect x="700.5" y="0.5" width="519" height="187" rx="93.5" stroke="black"/>
<circle cx="1310" cy="94" r="89.5" stroke="black"/>
<path d="M1304.24 148.738L1358.73 94.2495M1358.73 94.2495L1304.24 39.7606M1358.73 94.2495H1249.75" stroke="black" stroke-width="2"/>
<circle cx="1490" cy="94" r="70" fill="#F1C376"/>
<circle cx="1486" cy="88" r="32" stroke="black" stroke-width="4"/>
<path d="M1503 115.5L1522 134.5" stroke="black" stroke-width="4"/>
<path d="M1638.94 71.9551V86H1635.34V68.7207H1651V86H1647.4V71.9551H1638.94ZM1665.22 86.3516C1664.58 86.3516 1663.95 86.2754 1663.34 86.123C1662.73 85.9707 1662.21 85.7832 1661.78 85.5605C1661.34 85.3262 1660.96 85.0918 1660.62 84.8574C1660.29 84.6113 1660.05 84.418 1659.89 84.2773L1659.65 84.0137V93.5586H1656.04V68.7207H1659.65V70.707C1659.81 70.543 1660.04 70.3262 1660.33 70.0566C1660.64 69.7871 1661.28 69.4355 1662.25 69.002C1663.22 68.5684 1664.21 68.3516 1665.22 68.3516C1667.51 68.3516 1669.49 69.2305 1671.16 70.9883C1672.85 72.7344 1673.69 74.8555 1673.69 77.3516C1673.69 79.8477 1672.85 81.9746 1671.16 83.7324C1669.49 85.4785 1667.51 86.3516 1665.22 86.3516ZM1668.51 73.291C1667.45 72.166 1666.24 71.6035 1664.87 71.6035C1663.5 71.6035 1662.29 72.166 1661.23 73.291C1660.18 74.416 1659.65 75.7754 1659.65 77.3691C1659.65 78.9512 1660.18 80.3047 1661.23 81.4297C1662.29 82.5547 1663.5 83.1172 1664.87 83.1172C1666.24 83.1172 1667.45 82.5547 1668.51 81.4297C1669.56 80.3047 1670.09 78.9512 1670.09 77.3691C1670.09 75.7754 1669.56 74.416 1668.51 73.291ZM1689.36 81.4473C1690.42 80.334 1690.96 78.9746 1690.96 77.3691C1690.96 75.752 1690.42 74.3867 1689.36 73.2734C1688.29 72.1602 1687.02 71.6035 1685.56 71.6035C1684.09 71.6035 1682.82 72.1602 1681.74 73.2734C1680.68 74.3867 1680.14 75.752 1680.14 77.3691C1680.14 78.9746 1680.68 80.334 1681.74 81.4473C1682.82 82.5605 1684.09 83.1172 1685.56 83.1172C1687.02 83.1172 1688.29 82.5605 1689.36 81.4473ZM1679.23 83.6797C1677.45 81.8867 1676.56 79.7832 1676.56 77.3691C1676.56 74.9434 1677.45 72.834 1679.23 71.041C1681.02 69.248 1683.13 68.3516 1685.56 68.3516C1687.98 68.3516 1690.09 69.248 1691.87 71.041C1693.66 72.834 1694.56 74.9434 1694.56 77.3691C1694.56 79.7832 1693.66 81.8867 1691.87 83.6797C1690.09 85.4609 1687.98 86.3516 1685.56 86.3516C1683.13 86.3516 1681.02 85.4609 1679.23 83.6797ZM1698.51 68.7207H1706.79C1708.45 68.7207 1709.76 69.1484 1710.73 70.0039C1711.7 70.8477 1712.19 71.9199 1712.19 73.2207C1712.19 73.959 1712.03 74.6328 1711.7 75.2422C1711.38 75.8398 1711.05 76.2559 1710.71 76.4902L1710.22 76.8242C1710.29 76.8477 1710.39 76.8887 1710.52 76.9473C1710.65 77.0059 1710.88 77.1582 1711.22 77.4043C1711.56 77.6387 1711.86 77.9023 1712.1 78.1953C1712.36 78.4766 1712.59 78.8633 1712.79 79.3555C1713 79.8477 1713.1 80.3809 1713.1 80.9551C1713.1 82.4434 1712.57 83.6562 1711.5 84.5938C1710.45 85.5312 1709 86 1707.16 86H1698.51V68.7207ZM1707.16 78.2656H1702.12V82.9414H1707.16C1707.88 82.9414 1708.45 82.7305 1708.87 82.3086C1709.29 81.8867 1709.5 81.3184 1709.5 80.6035C1709.5 79.959 1709.28 79.4082 1708.85 78.9512C1708.42 78.4941 1707.85 78.2656 1707.16 78.2656ZM1708.11 74.9082C1708.44 74.5801 1708.6 74.1406 1708.6 73.5898C1708.6 73.0273 1708.44 72.5879 1708.11 72.2715C1707.78 71.9434 1707.34 71.7793 1706.79 71.7793H1702.12V75.3828H1706.79C1707.34 75.3828 1707.78 75.2246 1708.11 74.9082ZM1733.05 78.6172H1719.55C1719.74 79.8359 1720.34 80.8906 1721.35 81.7812C1722.37 82.6719 1723.57 83.1172 1724.97 83.1172C1725.98 83.1172 1726.91 82.8887 1727.78 82.4316C1728.66 81.9746 1729.28 81.5293 1729.64 81.0957L1730.19 80.4277L1732.53 82.7656C1732.46 82.8594 1732.35 82.9941 1732.19 83.1699C1732.05 83.334 1731.74 83.6211 1731.26 84.0312C1730.78 84.4297 1730.27 84.7871 1729.73 85.1035C1729.19 85.4082 1728.49 85.6953 1727.62 85.9648C1726.77 86.2227 1725.88 86.3516 1724.97 86.3516C1722.52 86.3516 1720.4 85.4551 1718.62 83.6621C1716.85 81.8574 1715.97 79.6953 1715.97 77.1758C1715.97 74.75 1716.83 72.6758 1718.55 70.9531C1720.29 69.2188 1722.36 68.3516 1724.78 68.3516C1727.2 68.3516 1729.22 69.1602 1730.82 70.7773C1732.44 72.3828 1733.25 74.3984 1733.25 76.8242L1733.05 78.6172ZM1724.78 71.4277C1723.47 71.4277 1722.38 71.8145 1721.49 72.5879C1720.61 73.3496 1720.02 74.3398 1719.71 75.5586H1729.71C1729.5 74.3398 1728.96 73.3496 1728.08 72.5879C1727.2 71.8145 1726.1 71.4277 1724.78 71.4277ZM1746.36 86.3516C1745.72 86.3516 1745.09 86.2754 1744.48 86.123C1743.87 85.9707 1743.35 85.7832 1742.92 85.5605C1742.48 85.3262 1742.1 85.0918 1741.76 84.8574C1741.43 84.6113 1741.19 84.418 1741.04 84.2773L1740.79 84.0137V93.5586H1737.19V68.7207H1740.79V70.707C1740.95 70.543 1741.18 70.3262 1741.47 70.0566C1741.78 69.7871 1742.42 69.4355 1743.39 69.002C1744.36 68.5684 1745.35 68.3516 1746.36 68.3516C1748.65 68.3516 1750.63 69.2305 1752.3 70.9883C1753.99 72.7344 1754.83 74.8555 1754.83 77.3516C1754.83 79.8477 1753.99 81.9746 1752.3 83.7324C1750.63 85.4785 1748.65 86.3516 1746.36 86.3516ZM1749.65 73.291C1748.59 72.166 1747.38 71.6035 1746.01 71.6035C1744.64 71.6035 1743.43 72.166 1742.37 73.291C1741.32 74.416 1740.79 75.7754 1740.79 77.3691C1740.79 78.9512 1741.32 80.3047 1742.37 81.4297C1743.43 82.5547 1744.64 83.1172 1746.01 83.1172C1747.38 83.1172 1748.59 82.5547 1749.65 81.4297C1750.7 80.3047 1751.23 78.9512 1751.23 77.3691C1751.23 75.7754 1750.7 74.416 1749.65 73.291ZM1774.08 68.7207L1767.42 75.9277L1774.61 86H1770.65L1765.08 78.2656L1762.38 81.1484V86H1758.77V68.7207H1762.38V76.4551L1769.76 68.7207H1774.08ZM1791.34 86H1787.74V84.207C1787.69 84.2539 1787.61 84.3301 1787.49 84.4355C1787.39 84.541 1787.17 84.7168 1786.83 84.9629C1786.5 85.1973 1786.14 85.4141 1785.75 85.6133C1785.37 85.8008 1784.88 85.9707 1784.29 86.123C1783.71 86.2754 1783.12 86.3516 1782.52 86.3516C1780.76 86.3516 1779.3 85.8418 1778.14 84.8223C1776.98 83.8027 1776.4 82.6367 1776.4 81.3242C1776.4 79.9062 1776.85 78.7168 1777.74 77.7559C1778.64 76.7949 1779.87 76.1855 1781.43 75.9277L1787.74 74.8379C1787.74 73.9238 1787.4 73.1562 1786.72 72.5352C1786.05 71.9141 1785.19 71.6035 1784.14 71.6035C1783.22 71.6035 1782.39 71.7969 1781.64 72.1836C1780.9 72.5586 1780.39 72.9395 1780.11 73.3262L1779.64 73.9414L1777.3 71.6035C1777.37 71.5098 1777.46 71.3926 1777.58 71.252C1777.71 71.0996 1777.98 70.8418 1778.41 70.4785C1778.84 70.1035 1779.3 69.7695 1779.78 69.4766C1780.26 69.1836 1780.89 68.9258 1781.68 68.7031C1782.47 68.4688 1783.29 68.3516 1784.14 68.3516C1786.25 68.3516 1787.97 68.9785 1789.32 70.2324C1790.67 71.4746 1791.34 73.0098 1791.34 74.8379V86ZM1783.06 83.1172C1784.53 83.1172 1785.67 82.6836 1786.49 81.8164C1787.32 80.9375 1787.74 79.6895 1787.74 78.0723V77.7207L1782.15 78.6172C1781.51 78.7344 1780.98 78.998 1780.59 79.4082C1780.19 79.8184 1779.99 80.334 1779.99 80.9551C1779.99 81.5293 1780.26 82.0332 1780.81 82.4668C1781.38 82.9004 1782.13 83.1172 1783.06 83.1172ZM1646.15 128V121.514C1644.95 122.357 1643.51 122.779 1641.82 122.779C1639.74 122.779 1638.07 122.152 1636.83 120.898C1635.6 119.633 1634.99 117.922 1634.99 115.766V110.721H1638.57V115.766C1638.57 116.844 1638.92 117.746 1639.61 118.473C1640.31 119.188 1641.17 119.545 1642.18 119.545C1642.91 119.545 1643.61 119.428 1644.27 119.193C1644.94 118.947 1645.42 118.701 1645.71 118.455L1646.15 118.104V110.721H1649.73V128H1646.15ZM1670.79 120.617H1657.29C1657.48 121.836 1658.08 122.891 1659.09 123.781C1660.11 124.672 1661.31 125.117 1662.71 125.117C1663.71 125.117 1664.65 124.889 1665.52 124.432C1666.4 123.975 1667.02 123.529 1667.38 123.096L1667.93 122.428L1670.27 124.766C1670.2 124.859 1670.08 124.994 1669.93 125.17C1669.79 125.334 1669.48 125.621 1669 126.031C1668.52 126.43 1668.01 126.787 1667.47 127.104C1666.93 127.408 1666.23 127.695 1665.36 127.965C1664.51 128.223 1663.62 128.352 1662.71 128.352C1660.26 128.352 1658.14 127.455 1656.36 125.662C1654.59 123.857 1653.71 121.695 1653.71 119.176C1653.71 116.75 1654.57 114.676 1656.29 112.953C1658.03 111.219 1660.1 110.352 1662.51 110.352C1664.94 110.352 1666.96 111.16 1668.56 112.777C1670.18 114.383 1670.99 116.398 1670.99 118.824L1670.79 120.617ZM1662.51 113.428C1661.21 113.428 1660.12 113.814 1659.23 114.588C1658.35 115.35 1657.76 116.34 1657.45 117.559H1667.45C1667.24 116.34 1666.7 115.35 1665.82 114.588C1664.94 113.814 1663.84 113.428 1662.51 113.428ZM1684.1 128.352C1683.46 128.352 1682.83 128.275 1682.22 128.123C1681.61 127.971 1681.09 127.783 1680.65 127.561C1680.22 127.326 1679.83 127.092 1679.49 126.857C1679.17 126.611 1678.93 126.418 1678.77 126.277L1678.53 126.014V135.559H1674.92V110.721H1678.53V112.707C1678.69 112.543 1678.92 112.326 1679.21 112.057C1679.52 111.787 1680.16 111.436 1681.13 111.002C1682.1 110.568 1683.09 110.352 1684.1 110.352C1686.38 110.352 1688.37 111.23 1690.04 112.988C1691.73 114.734 1692.57 116.855 1692.57 119.352C1692.57 121.848 1691.73 123.975 1690.04 125.732C1688.37 127.479 1686.38 128.352 1684.1 128.352ZM1687.39 115.291C1686.33 114.166 1685.12 113.604 1683.75 113.604C1682.38 113.604 1681.16 114.166 1680.11 115.291C1679.05 116.416 1678.53 117.775 1678.53 119.369C1678.53 120.951 1679.05 122.305 1680.11 123.43C1681.16 124.555 1682.38 125.117 1683.75 125.117C1685.12 125.117 1686.33 124.555 1687.39 123.43C1688.44 122.305 1688.97 120.951 1688.97 119.369C1688.97 117.775 1688.44 116.416 1687.39 115.291ZM1712.52 120.617H1699.02C1699.21 121.836 1699.81 122.891 1700.82 123.781C1701.84 124.672 1703.04 125.117 1704.44 125.117C1705.45 125.117 1706.38 124.889 1707.25 124.432C1708.13 123.975 1708.75 123.529 1709.11 123.096L1709.66 122.428L1712 124.766C1711.93 124.859 1711.81 124.994 1711.66 125.17C1711.52 125.334 1711.21 125.621 1710.73 126.031C1710.25 126.43 1709.74 126.787 1709.2 127.104C1708.66 127.408 1707.96 127.695 1707.09 127.965C1706.24 128.223 1705.35 128.352 1704.44 128.352C1701.99 128.352 1699.87 127.455 1698.09 125.662C1696.32 123.857 1695.44 121.695 1695.44 119.176C1695.44 116.75 1696.3 114.676 1698.02 112.953C1699.76 111.219 1701.83 110.352 1704.24 110.352C1706.67 110.352 1708.69 111.16 1710.29 112.777C1711.91 114.383 1712.72 116.398 1712.72 118.824L1712.52 120.617ZM1704.24 113.428C1702.94 113.428 1701.85 113.814 1700.96 114.588C1700.08 115.35 1699.49 116.34 1699.18 117.559H1709.18C1708.97 116.34 1708.43 115.35 1707.55 114.588C1706.67 113.814 1705.57 113.428 1704.24 113.428ZM1728.17 115.221C1728.17 116.018 1727.95 116.715 1727.5 117.312C1727.07 117.91 1726.62 118.303 1726.16 118.49L1725.48 118.824C1725.57 118.848 1725.7 118.889 1725.85 118.947C1726.01 119.006 1726.28 119.146 1726.66 119.369C1727.04 119.58 1727.38 119.838 1727.68 120.143C1727.98 120.436 1728.26 120.846 1728.5 121.373C1728.76 121.9 1728.89 122.492 1728.89 123.148C1728.89 124.59 1728.24 125.82 1726.96 126.84C1725.68 127.848 1723.93 128.352 1721.7 128.352C1720.86 128.352 1720.04 128.246 1719.26 128.035C1718.48 127.824 1717.84 127.572 1717.32 127.279C1716.81 126.986 1716.36 126.693 1715.97 126.4C1715.58 126.096 1715.29 125.838 1715.11 125.627L1714.86 125.293L1717.2 122.955C1717.34 123.119 1717.53 123.324 1717.76 123.57C1718.01 123.816 1718.52 124.139 1719.31 124.537C1720.11 124.924 1720.9 125.117 1721.7 125.117C1722.89 125.117 1723.79 124.895 1724.39 124.449C1725 124.004 1725.3 123.447 1725.3 122.779C1725.3 122.111 1725 121.555 1724.39 121.109C1723.79 120.664 1722.89 120.441 1721.7 120.441H1719.71V117.559H1721.7C1722.64 117.559 1723.35 117.377 1723.84 117.014C1724.34 116.639 1724.58 116.164 1724.58 115.59C1724.58 115.004 1724.34 114.529 1723.84 114.166C1723.35 113.791 1722.64 113.604 1721.7 113.604C1721.01 113.604 1720.33 113.738 1719.66 114.008C1719 114.266 1718.52 114.535 1718.2 114.816L1717.74 115.221L1715.39 112.883C1715.55 112.695 1715.79 112.461 1716.11 112.18C1716.43 111.898 1717.13 111.523 1718.22 111.055C1719.31 110.586 1720.47 110.352 1721.7 110.352C1723.69 110.352 1725.27 110.832 1726.43 111.793C1727.59 112.754 1728.17 113.896 1728.17 115.221ZM1763.36 107.838C1765.47 109.783 1766.52 112.186 1766.52 115.045C1766.52 117.893 1765.47 120.289 1763.36 122.234C1761.25 124.18 1758.47 125.199 1755.01 125.293V128.721H1751.05V125.293C1747.6 125.199 1744.81 124.18 1742.69 122.234C1740.58 120.289 1739.52 117.893 1739.52 115.045C1739.52 112.186 1740.58 109.783 1742.69 107.838C1744.81 105.893 1747.6 104.873 1751.05 104.779V102.072H1755.01V104.779C1758.47 104.873 1761.25 105.893 1763.36 107.838ZM1760.58 119.914C1761.91 118.684 1762.57 117.061 1762.57 115.045C1762.57 113.029 1761.91 111.412 1760.58 110.193C1759.27 108.963 1757.41 108.301 1755.01 108.207V121.883C1757.41 121.789 1759.27 121.133 1760.58 119.914ZM1745.46 110.193C1744.15 111.412 1743.5 113.029 1743.5 115.045C1743.5 117.061 1744.15 118.684 1745.46 119.914C1746.79 121.133 1748.65 121.789 1751.05 121.883V108.207C1748.65 108.301 1746.79 108.963 1745.46 110.193ZM1793.33 128H1789.38V109.824L1775.33 128H1771.92V102.793H1775.88V120.986L1789.92 102.793H1793.33V128ZM1820.88 102.793V128H1816.92V106.396H1804.49V128H1800.54V102.793H1820.88ZM1839.95 102.441C1841.22 102.441 1842.45 102.611 1843.62 102.951C1844.79 103.279 1845.76 103.684 1846.52 104.164C1847.29 104.645 1847.97 105.119 1848.54 105.588C1849.12 106.057 1849.54 106.461 1849.81 106.801L1850.2 107.293L1847.68 109.824C1847.61 109.73 1847.51 109.602 1847.37 109.438C1847.24 109.262 1846.93 108.951 1846.45 108.506C1845.97 108.061 1845.46 107.68 1844.9 107.363C1844.35 107.035 1843.63 106.736 1842.74 106.467C1841.86 106.186 1840.93 106.045 1839.95 106.045C1837.33 106.045 1835.12 106.953 1833.3 108.77C1831.49 110.574 1830.58 112.783 1830.58 115.396C1830.58 118.01 1831.48 120.225 1833.29 122.041C1835.1 123.857 1837.32 124.766 1839.95 124.766C1840.93 124.766 1841.87 124.631 1842.76 124.361C1843.66 124.08 1844.41 123.746 1844.99 123.359C1845.59 122.973 1846.11 122.592 1846.56 122.217C1847.01 121.83 1847.35 121.502 1847.58 121.232L1847.86 120.793L1850.39 123.324C1850.29 123.465 1850.15 123.652 1849.95 123.887C1849.76 124.109 1849.33 124.508 1848.67 125.082C1848.01 125.656 1847.31 126.166 1846.56 126.611C1845.82 127.057 1844.85 127.461 1843.64 127.824C1842.44 128.176 1841.21 128.352 1839.95 128.352C1836.17 128.352 1833.01 127.098 1830.46 124.59C1827.9 122.082 1826.62 119.018 1826.62 115.396C1826.62 111.775 1827.9 108.711 1830.46 106.203C1833.01 103.695 1836.17 102.441 1839.95 102.441Z" fill="black"/>
<rect x="1400.5" y="0.5" width="519" height="187" rx="93.5" stroke="black"/>
</svg>
