<svg width="1920" height="180" viewBox="0 0 1920 180" fill="none" xmlns="http://www.w3.org/2000/svg">
<path d="M76.0049 64.7207H84.2842C85.9365 64.7207 87.249 65.1484 88.2217 66.0039C89.1943 66.8477 89.6807 67.9199 89.6807 69.2207C89.6807 69.959 89.5166 70.6328 89.1885 71.2422C88.8721 71.8398 88.5439 72.2559 88.2041 72.4902L87.7119 72.8242C87.7822 72.8477 87.8818 72.8887 88.0107 72.9473C88.1396 73.0059 88.374 73.1582 88.7139 73.4043C89.0537 73.6387 89.3467 73.9023 89.5928 74.1953C89.8506 74.4766 90.0791 74.8633 90.2783 75.3555C90.4893 75.8477 90.5947 76.3809 90.5947 76.9551C90.5947 78.4434 90.0615 79.6562 88.9951 80.5938C87.9404 81.5312 86.4932 82 84.6533 82H76.0049V64.7207ZM84.6533 74.2656H79.6084V78.9414H84.6533C85.3682 78.9414 85.9365 78.7305 86.3584 78.3086C86.7803 77.8867 86.9912 77.3184 86.9912 76.6035C86.9912 75.959 86.7744 75.4082 86.3408 74.9512C85.9072 74.4941 85.3447 74.2656 84.6533 74.2656ZM85.6025 70.9082C85.9307 70.5801 86.0947 70.1406 86.0947 69.5898C86.0947 69.0273 85.9307 68.5879 85.6025 68.2715C85.2744 67.9434 84.835 67.7793 84.2842 67.7793H79.6084V71.3828H84.2842C84.835 71.3828 85.2744 71.2246 85.6025 70.9082ZM98.1357 78.9414H101.915C102.735 78.9414 103.421 78.666 103.972 78.1152C104.522 77.5645 104.798 76.8789 104.798 76.0586C104.798 75.2383 104.522 74.5527 103.972 74.002C103.421 73.4512 102.735 73.1758 101.915 73.1758H98.1357V78.9414ZM106.608 71.8047C107.804 72.918 108.401 74.3418 108.401 76.0762C108.401 77.7988 107.804 79.2168 106.608 80.3301C105.425 81.4434 103.86 82 101.915 82H94.5322V64.7207H98.1357V70.1172H101.915C103.86 70.1172 105.425 70.6797 106.608 71.8047ZM114.519 64.7207V82H110.915V64.7207H114.519ZM136.843 73.5449C136.843 75.9707 135.987 78.0449 134.276 79.7676C132.577 81.4902 130.556 82.3516 128.212 82.3516C125.505 82.3516 123.325 81.3848 121.673 79.4512C120.032 77.5059 119.212 74.6934 119.212 71.0137C119.212 66.8184 119.991 63.6719 121.55 61.5742C123.108 59.4766 125.329 58.1875 128.212 57.707C129.489 57.4961 130.632 57.2266 131.64 56.8984C132.659 56.5703 133.362 56.2949 133.749 56.0723L134.329 55.7207L135.946 58.4277C135.876 58.5215 135.729 58.6562 135.507 58.832C135.296 59.0078 134.563 59.3242 133.31 59.7812C132.067 60.2383 130.485 60.625 128.563 60.9414C126.911 61.2109 125.581 61.8965 124.573 62.998C123.565 64.0996 122.974 65.5762 122.798 67.4277C122.845 67.3574 122.927 67.2637 123.044 67.1465C123.173 67.0176 123.425 66.8008 123.8 66.4961C124.175 66.1797 124.567 65.9043 124.978 65.6699C125.399 65.4238 125.933 65.207 126.577 65.0195C127.233 64.8203 127.896 64.7207 128.563 64.7207C130.743 64.7207 132.665 65.5938 134.329 67.3398C136.005 69.0742 136.843 71.1426 136.843 73.5449ZM124.661 69.5723C123.665 70.6387 123.167 71.9629 123.167 73.5449C123.167 75.127 123.665 76.4512 124.661 77.5176C125.657 78.584 126.835 79.1172 128.194 79.1172C129.565 79.1172 130.749 78.584 131.745 77.5176C132.741 76.4512 133.239 75.127 133.239 73.5449C133.239 71.9629 132.741 70.6387 131.745 69.5723C130.749 68.4941 129.565 67.9551 128.194 67.9551C126.835 67.9551 125.657 68.4941 124.661 69.5723ZM152.874 77.4473C153.94 76.334 154.474 74.9746 154.474 73.3691C154.474 71.752 153.94 70.3867 152.874 69.2734C151.808 68.1602 150.542 67.6035 149.077 67.6035C147.612 67.6035 146.341 68.1602 145.263 69.2734C144.196 70.3867 143.663 71.752 143.663 73.3691C143.663 74.9746 144.196 76.334 145.263 77.4473C146.341 78.5605 147.612 79.1172 149.077 79.1172C150.542 79.1172 151.808 78.5605 152.874 77.4473ZM142.749 79.6797C140.968 77.8867 140.077 75.7832 140.077 73.3691C140.077 70.9434 140.968 68.834 142.749 67.041C144.542 65.248 146.651 64.3516 149.077 64.3516C151.503 64.3516 153.606 65.248 155.388 67.041C157.181 68.834 158.077 70.9434 158.077 73.3691C158.077 75.7832 157.181 77.8867 155.388 79.6797C153.606 81.4609 151.503 82.3516 149.077 82.3516C146.651 82.3516 144.542 81.4609 142.749 79.6797ZM171.208 82.3516C170.563 82.3516 169.937 82.2754 169.327 82.123C168.718 81.9707 168.196 81.7832 167.763 81.5605C167.329 81.3262 166.942 81.0918 166.603 80.8574C166.274 80.6113 166.034 80.418 165.882 80.2773L165.636 80.0137V89.5586H162.032V64.7207H165.636V66.707C165.8 66.543 166.028 66.3262 166.321 66.0566C166.626 65.7871 167.265 65.4355 168.237 65.002C169.21 64.5684 170.2 64.3516 171.208 64.3516C173.493 64.3516 175.474 65.2305 177.149 66.9883C178.837 68.7344 179.681 70.8555 179.681 73.3516C179.681 75.8477 178.837 77.9746 177.149 79.7324C175.474 81.4785 173.493 82.3516 171.208 82.3516ZM174.495 69.291C173.44 68.166 172.228 67.6035 170.856 67.6035C169.485 67.6035 168.272 68.166 167.218 69.291C166.163 70.416 165.636 71.7754 165.636 73.3691C165.636 74.9512 166.163 76.3047 167.218 77.4297C168.272 78.5547 169.485 79.1172 170.856 79.1172C172.228 79.1172 173.44 78.5547 174.495 77.4297C175.55 76.3047 176.077 74.9512 176.077 73.3691C176.077 71.7754 175.55 70.416 174.495 69.291ZM194.429 74.793V82H190.825V64.7207H194.429V71.5586H202.884V64.7207H206.487V82H202.884V74.793H194.429ZM223.257 77.4473C224.323 76.334 224.856 74.9746 224.856 73.3691C224.856 71.752 224.323 70.3867 223.257 69.2734C222.19 68.1602 220.925 67.6035 219.46 67.6035C217.995 67.6035 216.724 68.1602 215.646 69.2734C214.579 70.3867 214.046 71.752 214.046 73.3691C214.046 74.9746 214.579 76.334 215.646 77.4473C216.724 78.5605 217.995 79.1172 219.46 79.1172C220.925 79.1172 222.19 78.5605 223.257 77.4473ZM213.132 79.6797C211.351 77.8867 210.46 75.7832 210.46 73.3691C210.46 70.9434 211.351 68.834 213.132 67.041C214.925 65.248 217.034 64.3516 219.46 64.3516C221.886 64.3516 223.989 65.248 225.771 67.041C227.563 68.834 228.46 70.9434 228.46 73.3691C228.46 75.7832 227.563 77.8867 225.771 79.6797C223.989 81.4609 221.886 82.3516 219.46 82.3516C217.034 82.3516 214.925 81.4609 213.132 79.6797ZM234.015 79.6797C232.233 77.8867 231.343 75.7832 231.343 73.3691C231.343 70.9434 232.233 68.834 234.015 67.041C235.808 65.248 237.917 64.3516 240.343 64.3516C241.69 64.3516 242.944 64.6445 244.104 65.2305C245.265 65.8047 246.097 66.3789 246.601 66.9531L247.356 67.7793L245.019 70.1172C244.901 69.9297 244.72 69.7012 244.474 69.4316C244.239 69.1504 243.718 68.7754 242.909 68.3066C242.112 67.8379 241.257 67.6035 240.343 67.6035C238.878 67.6035 237.606 68.1602 236.528 69.2734C235.462 70.3867 234.929 71.752 234.929 73.3691C234.929 74.9746 235.462 76.334 236.528 77.4473C237.606 78.5605 238.878 79.1172 240.343 79.1172C241.257 79.1172 242.112 78.8887 242.909 78.4316C243.718 77.9746 244.298 77.5293 244.649 77.0957L245.194 76.4277L247.532 78.7656C247.462 78.8594 247.356 78.9941 247.216 79.1699C247.075 79.334 246.771 79.6211 246.302 80.0312C245.833 80.4297 245.341 80.7871 244.825 81.1035C244.31 81.4082 243.642 81.6953 242.821 81.9648C242.001 82.2227 241.175 82.3516 240.343 82.3516C237.917 82.3516 235.808 81.4609 234.015 79.6797ZM263.722 64.7207H266.956V82H263.353V70.6621L254.353 82H251.118V64.7207H254.722V76.0586L263.722 64.7207ZM270.208 67.9551V64.7207H285.677V67.9551H279.735V82H276.149V67.9551H270.208ZM304.925 74.6172H291.425C291.612 75.8359 292.21 76.8906 293.218 77.7812C294.237 78.6719 295.444 79.1172 296.839 79.1172C297.847 79.1172 298.784 78.8887 299.651 78.4316C300.53 77.9746 301.151 77.5293 301.515 77.0957L302.06 76.4277L304.397 78.7656C304.327 78.8594 304.216 78.9941 304.063 79.1699C303.923 79.334 303.612 79.6211 303.132 80.0312C302.651 80.4297 302.142 80.7871 301.603 81.1035C301.063 81.4082 300.36 81.6953 299.493 81.9648C298.638 82.2227 297.753 82.3516 296.839 82.3516C294.39 82.3516 292.274 81.4551 290.493 79.6621C288.724 77.8574 287.839 75.6953 287.839 73.1758C287.839 70.75 288.7 68.6758 290.423 66.9531C292.157 65.2188 294.231 64.3516 296.646 64.3516C299.071 64.3516 301.087 65.1602 302.692 66.7773C304.31 68.3828 305.118 70.3984 305.118 72.8242L304.925 74.6172ZM296.646 67.4277C295.345 67.4277 294.249 67.8145 293.358 68.5879C292.479 69.3496 291.888 70.3398 291.583 71.5586H301.585C301.374 70.3398 300.829 69.3496 299.95 68.5879C299.071 67.8145 297.97 67.4277 296.646 67.4277ZM311.042 64.7207H324.366V82H320.763V67.9551H314.646V69.7656C314.646 73.0586 314.382 75.6602 313.854 77.5703C313.339 79.4688 312.671 80.7402 311.851 81.3848C311.042 82.0293 309.993 82.3516 308.704 82.3516C308.388 82.3516 308.048 82.3223 307.685 82.2637C307.333 82.2051 307.058 82.1406 306.858 82.0703L306.542 82V78.5723C307.022 78.6895 307.438 78.7539 307.79 78.7656C308.528 78.7656 309.108 78.5664 309.53 78.168C309.964 77.7695 310.321 76.8906 310.603 75.5312C310.896 74.1602 311.042 72.2383 311.042 69.7656V64.7207ZM345.425 74.6172H331.925C332.112 75.8359 332.71 76.8906 333.718 77.7812C334.737 78.6719 335.944 79.1172 337.339 79.1172C338.347 79.1172 339.284 78.8887 340.151 78.4316C341.03 77.9746 341.651 77.5293 342.015 77.0957L342.56 76.4277L344.897 78.7656C344.827 78.8594 344.716 78.9941 344.563 79.1699C344.423 79.334 344.112 79.6211 343.632 80.0312C343.151 80.4297 342.642 80.7871 342.103 81.1035C341.563 81.4082 340.86 81.6953 339.993 81.9648C339.138 82.2227 338.253 82.3516 337.339 82.3516C334.89 82.3516 332.774 81.4551 330.993 79.6621C329.224 77.8574 328.339 75.6953 328.339 73.1758C328.339 70.75 329.2 68.6758 330.923 66.9531C332.657 65.2188 334.731 64.3516 337.146 64.3516C339.571 64.3516 341.587 65.1602 343.192 66.7773C344.81 68.3828 345.618 70.3984 345.618 72.8242L345.425 74.6172ZM337.146 67.4277C335.845 67.4277 334.749 67.8145 333.858 68.5879C332.979 69.3496 332.388 70.3398 332.083 71.5586H342.085C341.874 70.3398 341.329 69.3496 340.45 68.5879C339.571 67.8145 338.47 67.4277 337.146 67.4277ZM362.159 64.7207H365.394V82H361.79V70.6621L352.79 82H349.556V64.7207H353.159V76.0586L362.159 64.7207ZM355.673 58.6035C356.153 59.084 356.751 59.3242 357.466 59.3242C358.192 59.3242 358.796 59.084 359.276 58.6035C359.757 58.123 359.997 57.5195 359.997 56.793H362.704C362.704 58.2344 362.212 59.4355 361.228 60.3965C360.243 61.3574 358.995 61.8379 357.483 61.8379C355.972 61.8379 354.724 61.3574 353.739 60.3965C352.755 59.4355 352.263 58.2344 352.263 56.793H354.952C354.952 57.5078 355.192 58.1113 355.673 58.6035ZM77.6045 121.68C75.8232 119.887 74.9326 117.783 74.9326 115.369C74.9326 112.943 75.8232 110.834 77.6045 109.041C79.3975 107.248 81.5068 106.352 83.9326 106.352C85.2803 106.352 86.5342 106.645 87.6943 107.23C88.8545 107.805 89.6865 108.379 90.1904 108.953L90.9463 109.779L88.6084 112.117C88.4912 111.93 88.3096 111.701 88.0635 111.432C87.8291 111.15 87.3076 110.775 86.499 110.307C85.7021 109.838 84.8467 109.604 83.9326 109.604C82.4678 109.604 81.1963 110.16 80.1182 111.273C79.0518 112.387 78.5186 113.752 78.5186 115.369C78.5186 116.975 79.0518 118.334 80.1182 119.447C81.1963 120.561 82.4678 121.117 83.9326 121.117C84.8467 121.117 85.7021 120.889 86.499 120.432C87.3076 119.975 87.8877 119.529 88.2393 119.096L88.7842 118.428L91.1221 120.766C91.0518 120.859 90.9463 120.994 90.8057 121.17C90.665 121.334 90.3604 121.621 89.8916 122.031C89.4229 122.43 88.9307 122.787 88.415 123.104C87.8994 123.408 87.2314 123.695 86.4111 123.965C85.5908 124.223 84.7646 124.352 83.9326 124.352C81.5068 124.352 79.3975 123.461 77.6045 121.68ZM106.433 119.447C107.499 118.334 108.032 116.975 108.032 115.369C108.032 113.752 107.499 112.387 106.433 111.273C105.366 110.16 104.101 109.604 102.636 109.604C101.171 109.604 99.8994 110.16 98.8213 111.273C97.7549 112.387 97.2217 113.752 97.2217 115.369C97.2217 116.975 97.7549 118.334 98.8213 119.447C99.8994 120.561 101.171 121.117 102.636 121.117C104.101 121.117 105.366 120.561 106.433 119.447ZM96.3076 121.68C94.5264 119.887 93.6357 117.783 93.6357 115.369C93.6357 112.943 94.5264 110.834 96.3076 109.041C98.1006 107.248 100.21 106.352 102.636 106.352C105.062 106.352 107.165 107.248 108.946 109.041C110.739 110.834 111.636 112.943 111.636 115.369C111.636 117.783 110.739 119.887 108.946 121.68C107.165 123.461 105.062 124.352 102.636 124.352C100.21 124.352 98.1006 123.461 96.3076 121.68ZM127.315 119.447C128.382 118.334 128.915 116.975 128.915 115.369C128.915 113.752 128.382 112.387 127.315 111.273C126.249 110.16 124.983 109.604 123.519 109.604C122.054 109.604 120.782 110.16 119.704 111.273C118.638 112.387 118.104 113.752 118.104 115.369C118.104 116.975 118.638 118.334 119.704 119.447C120.782 120.561 122.054 121.117 123.519 121.117C124.983 121.117 126.249 120.561 127.315 119.447ZM117.19 121.68C115.409 119.887 114.519 117.783 114.519 115.369C114.519 112.943 115.409 110.834 117.19 109.041C118.983 107.248 121.093 106.352 123.519 106.352C125.944 106.352 128.048 107.248 129.829 109.041C131.622 110.834 132.519 112.943 132.519 115.369C132.519 117.783 131.622 119.887 129.829 121.68C128.048 123.461 125.944 124.352 123.519 124.352C121.093 124.352 118.983 123.461 117.19 121.68ZM153.753 115.545C153.753 117.971 152.897 120.045 151.187 121.768C149.487 123.49 147.466 124.352 145.122 124.352C142.415 124.352 140.235 123.385 138.583 121.451C136.942 119.506 136.122 116.693 136.122 113.014C136.122 108.818 136.901 105.672 138.46 103.574C140.019 101.477 142.239 100.188 145.122 99.707C146.399 99.4961 147.542 99.2266 148.55 98.8984C149.569 98.5703 150.272 98.2949 150.659 98.0723L151.239 97.7207L152.856 100.428C152.786 100.521 152.64 100.656 152.417 100.832C152.206 101.008 151.474 101.324 150.22 101.781C148.978 102.238 147.396 102.625 145.474 102.941C143.821 103.211 142.491 103.896 141.483 104.998C140.476 106.1 139.884 107.576 139.708 109.428C139.755 109.357 139.837 109.264 139.954 109.146C140.083 109.018 140.335 108.801 140.71 108.496C141.085 108.18 141.478 107.904 141.888 107.67C142.31 107.424 142.843 107.207 143.487 107.02C144.144 106.82 144.806 106.721 145.474 106.721C147.653 106.721 149.575 107.594 151.239 109.34C152.915 111.074 153.753 113.143 153.753 115.545ZM141.571 111.572C140.575 112.639 140.077 113.963 140.077 115.545C140.077 117.127 140.575 118.451 141.571 119.518C142.567 120.584 143.745 121.117 145.104 121.117C146.476 121.117 147.659 120.584 148.655 119.518C149.651 118.451 150.149 117.127 150.149 115.545C150.149 113.963 149.651 112.639 148.655 111.572C147.659 110.494 146.476 109.955 145.104 109.955C143.745 109.955 142.567 110.494 141.571 111.572ZM158.06 124V106.721H161.663V120.766H167.956V106.721H171.56V120.766H177.87V106.721H181.456V120.766H183.987V128.324H180.384V124H158.06ZM203.604 116.617H190.104C190.292 117.836 190.89 118.891 191.897 119.781C192.917 120.672 194.124 121.117 195.519 121.117C196.526 121.117 197.464 120.889 198.331 120.432C199.21 119.975 199.831 119.529 200.194 119.096L200.739 118.428L203.077 120.766C203.007 120.859 202.896 120.994 202.743 121.17C202.603 121.334 202.292 121.621 201.812 122.031C201.331 122.43 200.821 122.787 200.282 123.104C199.743 123.408 199.04 123.695 198.173 123.965C197.317 124.223 196.433 124.352 195.519 124.352C193.069 124.352 190.954 123.455 189.173 121.662C187.403 119.857 186.519 117.695 186.519 115.176C186.519 112.75 187.38 110.676 189.103 108.953C190.837 107.219 192.911 106.352 195.325 106.352C197.751 106.352 199.767 107.16 201.372 108.777C202.989 110.383 203.798 112.398 203.798 114.824L203.604 116.617ZM195.325 109.428C194.024 109.428 192.929 109.814 192.038 110.588C191.159 111.35 190.567 112.34 190.263 113.559H200.265C200.054 112.34 199.509 111.35 198.63 110.588C197.751 109.814 196.649 109.428 195.325 109.428ZM211.339 116.793V124H207.735V106.721H211.339V113.559H219.794V106.721H223.397V124H219.794V116.793H211.339ZM241.046 106.721H244.28V124H240.677V112.662L231.677 124H228.442V106.721H232.046V118.059L241.046 106.721ZM255.091 106.721H263.001V124H259.415V118.604H255.636L252.208 124H248.253L252.032 118.059C251.938 118.035 251.81 117.982 251.646 117.9C251.493 117.818 251.224 117.637 250.837 117.355C250.45 117.062 250.104 116.729 249.8 116.354C249.507 115.979 249.231 115.463 248.974 114.807C248.728 114.139 248.604 113.424 248.604 112.662C248.604 110.939 249.196 109.521 250.38 108.408C251.575 107.283 253.146 106.721 255.091 106.721ZM259.415 109.779H255.091C254.271 109.779 253.585 110.055 253.034 110.605C252.483 111.156 252.208 111.842 252.208 112.662C252.208 113.482 252.483 114.168 253.034 114.719C253.585 115.27 254.271 115.545 255.091 115.545H259.415V109.779Z" fill="black"/>
<circle cx="512.333" cy="90" r="70" fill="#70A16D"/>
<rect x="484.333" y="66" width="47" height="57" stroke="black" stroke-width="4"/>
<path d="M491.333 65V55H542.333V116H530.833" stroke="black" stroke-width="4"/>
<rect x="0.5" y="0.5" width="601.333" height="179" rx="89.5" stroke="black"/>
<path d="M658.833 146.5L715.333 90M715.333 90L658.833 33.5M715.333 90L602.333 90" stroke="black" stroke-width="2"/>
<circle cx="805.333" cy="90" r="68" stroke="black" stroke-width="4"/>
<path d="M826.059 48.853C826.059 48.853 808.689 61.0705 796.854 65.9732C785.629 70.6232 767.358 74.0298 767.358 74.0298C767.358 74.0298 764.628 80.5758 764.628 90.6465C764.628 100.717 767.358 107.263 767.358 107.263C800.882 112.299 824.045 131.433 824.045 131.433" stroke="black" stroke-width="4"/>
<path d="M844.201 90.6464C844.201 102.399 842.148 112.944 838.907 120.477C837.285 124.246 835.406 127.169 833.42 129.121C831.443 131.064 829.469 131.95 827.57 131.95C825.671 131.95 823.697 131.064 821.72 129.121C819.735 127.169 817.855 124.246 816.233 120.477C812.993 112.944 810.939 102.399 810.939 90.6464C810.939 78.8935 812.993 68.3484 816.233 60.8162C817.855 57.0466 819.735 54.1235 821.72 52.1715C823.697 50.2283 825.671 49.3423 827.57 49.3423C829.469 49.3423 831.443 50.2283 833.42 52.1715C835.406 54.1235 837.285 57.0466 838.907 60.8162C842.148 68.3484 844.201 78.8935 844.201 90.6464Z" stroke="black" stroke-width="4"/>
<path d="M824.045 89.136C824.045 95.5322 819.458 100.717 813.8 100.717C808.142 100.717 810.385 95.5322 810.385 89.136C810.385 82.7398 808.142 77.5547 813.8 77.5547C819.458 77.5547 824.045 82.7398 824.045 89.136Z" fill="black"/>
<path d="M984.514 82.3516C983.869 82.3516 983.242 82.2754 982.633 82.123C982.023 81.9707 981.502 81.7832 981.068 81.5605C980.635 81.3262 980.248 81.0918 979.908 80.8574C979.58 80.6113 979.34 80.418 979.188 80.2773L978.941 80.0137V89.5586H975.338V64.7207H978.941V66.707C979.105 66.543 979.334 66.3262 979.627 66.0566C979.932 65.7871 980.57 65.4355 981.543 65.002C982.516 64.5684 983.506 64.3516 984.514 64.3516C986.799 64.3516 988.779 65.2305 990.455 66.9883C992.143 68.7344 992.986 70.8555 992.986 73.3516C992.986 75.8477 992.143 77.9746 990.455 79.7324C988.779 81.4785 986.799 82.3516 984.514 82.3516ZM987.801 69.291C986.746 68.166 985.533 67.6035 984.162 67.6035C982.791 67.6035 981.578 68.166 980.523 69.291C979.469 70.416 978.941 71.7754 978.941 73.3691C978.941 74.9512 979.469 76.3047 980.523 77.4297C981.578 78.5547 982.791 79.1172 984.162 79.1172C985.533 79.1172 986.746 78.5547 987.801 77.4297C988.855 76.3047 989.383 74.9512 989.383 73.3691C989.383 71.7754 988.855 70.416 987.801 69.291ZM1012.94 74.6172H999.438C999.625 75.8359 1000.22 76.8906 1001.23 77.7812C1002.25 78.6719 1003.46 79.1172 1004.85 79.1172C1005.86 79.1172 1006.8 78.8887 1007.66 78.4316C1008.54 77.9746 1009.16 77.5293 1009.53 77.0957L1010.07 76.4277L1012.41 78.7656C1012.34 78.8594 1012.23 78.9941 1012.08 79.1699C1011.94 79.334 1011.62 79.6211 1011.14 80.0312C1010.66 80.4297 1010.15 80.7871 1009.62 81.1035C1009.08 81.4082 1008.37 81.6953 1007.51 81.9648C1006.65 82.2227 1005.77 82.3516 1004.85 82.3516C1002.4 82.3516 1000.29 81.4551 998.506 79.6621C996.736 77.8574 995.852 75.6953 995.852 73.1758C995.852 70.75 996.713 68.6758 998.436 66.9531C1000.17 65.2188 1002.24 64.3516 1004.66 64.3516C1007.08 64.3516 1009.1 65.1602 1010.71 66.7773C1012.32 68.3828 1013.13 70.3984 1013.13 72.8242L1012.94 74.6172ZM1004.66 67.4277C1003.36 67.4277 1002.26 67.8145 1001.37 68.5879C1000.49 69.3496 999.9 70.3398 999.596 71.5586H1009.6C1009.39 70.3398 1008.84 69.3496 1007.96 68.5879C1007.08 67.8145 1005.98 67.4277 1004.66 67.4277ZM1030.94 82H1027.33V80.207C1027.29 80.2539 1027.21 80.3301 1027.09 80.4355C1026.98 80.541 1026.76 80.7168 1026.42 80.9629C1026.09 81.1973 1025.73 81.4141 1025.35 81.6133C1024.96 81.8008 1024.47 81.9707 1023.89 82.123C1023.3 82.2754 1022.71 82.3516 1022.11 82.3516C1020.36 82.3516 1018.9 81.8418 1017.74 80.8223C1016.58 79.8027 1016 78.6367 1016 77.3242C1016 75.9062 1016.44 74.7168 1017.33 73.7559C1018.23 72.7949 1019.46 72.1855 1021.02 71.9277L1027.33 70.8379C1027.33 69.9238 1026.99 69.1562 1026.31 68.5352C1025.65 67.9141 1024.79 67.6035 1023.73 67.6035C1022.82 67.6035 1021.98 67.7969 1021.23 68.1836C1020.5 68.5586 1019.99 68.9395 1019.71 69.3262L1019.23 69.9414L1016.89 67.6035C1016.96 67.5098 1017.06 67.3926 1017.17 67.252C1017.3 67.0996 1017.58 66.8418 1018 66.4785C1018.43 66.1035 1018.89 65.7695 1019.37 65.4766C1019.85 65.1836 1020.48 64.9258 1021.27 64.7031C1022.07 64.4688 1022.89 64.3516 1023.73 64.3516C1025.84 64.3516 1027.57 64.9785 1028.92 66.2324C1030.26 67.4746 1030.94 69.0098 1030.94 70.8379V82ZM1022.66 79.1172C1024.12 79.1172 1025.27 78.6836 1026.09 77.8164C1026.92 76.9375 1027.33 75.6895 1027.33 74.0723V73.7207L1021.74 74.6172C1021.1 74.7344 1020.58 74.998 1020.18 75.4082C1019.78 75.8184 1019.58 76.334 1019.58 76.9551C1019.58 77.5293 1019.86 78.0332 1020.41 78.4668C1020.97 78.9004 1021.72 79.1172 1022.66 79.1172ZM1037.97 64.7207H1051.29V82H1047.69V67.9551H1041.57V69.7656C1041.57 73.0586 1041.31 75.6602 1040.78 77.5703C1040.27 79.4688 1039.6 80.7402 1038.78 81.3848C1037.97 82.0293 1036.92 82.3516 1035.63 82.3516C1035.31 82.3516 1034.97 82.3223 1034.61 82.2637C1034.26 82.2051 1033.98 82.1406 1033.79 82.0703L1033.47 82V78.5723C1033.95 78.6895 1034.37 78.7539 1034.72 78.7656C1035.46 78.7656 1036.04 78.5664 1036.46 78.168C1036.89 77.7695 1037.25 76.8906 1037.53 75.5312C1037.82 74.1602 1037.97 72.2383 1037.97 69.7656V64.7207ZM1068.94 64.7207H1072.18V82H1068.57V70.6621L1059.57 82H1056.34V64.7207H1059.94V76.0586L1068.94 64.7207ZM1088.73 69.2207C1088.73 70.0176 1088.51 70.7148 1088.07 71.3125C1087.63 71.9102 1087.19 72.3027 1086.73 72.4902L1086.04 72.8242C1086.14 72.8477 1086.26 72.8887 1086.41 72.9473C1086.58 73.0059 1086.85 73.1465 1087.22 73.3691C1087.61 73.5801 1087.95 73.8379 1088.24 74.1426C1088.55 74.4355 1088.82 74.8457 1089.07 75.373C1089.33 75.9004 1089.46 76.4922 1089.46 77.1484C1089.46 78.5898 1088.81 79.8203 1087.52 80.8398C1086.24 81.8477 1084.49 82.3516 1082.27 82.3516C1081.42 82.3516 1080.61 82.2461 1079.82 82.0352C1079.05 81.8242 1078.4 81.5723 1077.89 81.2793C1077.37 80.9863 1076.92 80.6934 1076.54 80.4004C1076.15 80.0957 1075.86 79.8379 1075.67 79.627L1075.43 79.293L1077.77 76.9551C1077.91 77.1191 1078.09 77.3242 1078.33 77.5703C1078.57 77.8164 1079.09 78.1387 1079.88 78.5371C1080.67 78.9238 1081.47 79.1172 1082.27 79.1172C1083.46 79.1172 1084.36 78.8945 1084.96 78.4492C1085.56 78.0039 1085.87 77.4473 1085.87 76.7793C1085.87 76.1113 1085.56 75.5547 1084.96 75.1094C1084.36 74.6641 1083.46 74.4414 1082.27 74.4414H1080.28V71.5586H1082.27C1083.2 71.5586 1083.92 71.377 1084.41 71.0137C1084.9 70.6387 1085.15 70.1641 1085.15 69.5898C1085.15 69.0039 1084.9 68.5293 1084.41 68.166C1083.92 67.791 1083.2 67.6035 1082.27 67.6035C1081.57 67.6035 1080.89 67.7383 1080.23 68.0078C1079.57 68.2656 1079.08 68.5352 1078.77 68.8164L1078.31 69.2207L1075.96 66.8828C1076.12 66.6953 1076.36 66.4609 1076.68 66.1797C1076.99 65.8984 1077.7 65.5234 1078.79 65.0547C1079.88 64.5859 1081.04 64.3516 1082.27 64.3516C1084.26 64.3516 1085.83 64.832 1086.99 65.793C1088.15 66.7539 1088.73 67.8965 1088.73 69.2207ZM1107.3 82H1103.69V80.207C1103.65 80.2539 1103.56 80.3301 1103.45 80.4355C1103.34 80.541 1103.12 80.7168 1102.78 80.9629C1102.45 81.1973 1102.09 81.4141 1101.71 81.6133C1101.32 81.8008 1100.83 81.9707 1100.25 82.123C1099.66 82.2754 1099.07 82.3516 1098.47 82.3516C1096.71 82.3516 1095.26 81.8418 1094.1 80.8223C1092.94 79.8027 1092.36 78.6367 1092.36 77.3242C1092.36 75.9062 1092.8 74.7168 1093.69 73.7559C1094.59 72.7949 1095.82 72.1855 1097.38 71.9277L1103.69 70.8379C1103.69 69.9238 1103.35 69.1562 1102.67 68.5352C1102.01 67.9141 1101.14 67.6035 1100.09 67.6035C1099.18 67.6035 1098.34 67.7969 1097.59 68.1836C1096.86 68.5586 1096.35 68.9395 1096.06 69.3262L1095.59 69.9414L1093.25 67.6035C1093.32 67.5098 1093.42 67.3926 1093.53 67.252C1093.66 67.0996 1093.94 66.8418 1094.36 66.4785C1094.79 66.1035 1095.25 65.7695 1095.73 65.4766C1096.21 65.1836 1096.84 64.9258 1097.63 64.7031C1098.43 64.4688 1099.25 64.3516 1100.09 64.3516C1102.2 64.3516 1103.93 64.9785 1105.28 66.2324C1106.62 67.4746 1107.3 69.0098 1107.3 70.8379V82ZM1099.02 79.1172C1100.48 79.1172 1101.62 78.6836 1102.45 77.8164C1103.28 76.9375 1103.69 75.6895 1103.69 74.0723V73.7207L1098.1 74.6172C1097.46 74.7344 1096.94 74.998 1096.54 75.4082C1096.14 75.8184 1095.94 76.334 1095.94 76.9551C1095.94 77.5293 1096.22 78.0332 1096.77 78.4668C1097.33 78.9004 1098.08 79.1172 1099.02 79.1172ZM1112.34 82V64.7207H1115.95V78.7656H1124.05V64.7207H1127.65V78.7656H1130.17V86.3242H1126.56V82H1112.34ZM1146.36 64.7207H1149.59V82H1145.99V70.6621L1136.99 82H1133.75V64.7207H1137.36V76.0586L1146.36 64.7207ZM1160.4 64.7207H1168.31V82H1164.72V76.6035H1160.95L1157.52 82H1153.56L1157.34 76.0586C1157.25 76.0352 1157.12 75.9824 1156.96 75.9004C1156.8 75.8184 1156.53 75.6367 1156.15 75.3555C1155.76 75.0625 1155.41 74.7285 1155.11 74.3535C1154.82 73.9785 1154.54 73.4629 1154.28 72.8066C1154.04 72.1387 1153.91 71.4238 1153.91 70.6621C1153.91 68.9395 1154.51 67.5215 1155.69 66.4082C1156.88 65.2832 1158.46 64.7207 1160.4 64.7207ZM1164.72 67.7793H1160.4C1159.58 67.7793 1158.89 68.0547 1158.34 68.6055C1157.79 69.1562 1157.52 69.8418 1157.52 70.6621C1157.52 71.4824 1157.79 72.168 1158.34 72.7188C1158.89 73.2695 1159.58 73.5449 1160.4 73.5449H1164.72V67.7793ZM990.648 106.721L983.986 113.928L991.176 124H987.221L981.648 116.266L978.941 119.148V124H975.338V106.721H978.941V114.455L986.324 106.721H990.648ZM1005.03 119.447C1006.09 118.334 1006.63 116.975 1006.63 115.369C1006.63 113.752 1006.09 112.387 1005.03 111.273C1003.96 110.16 1002.7 109.604 1001.23 109.604C999.766 109.604 998.494 110.16 997.416 111.273C996.35 112.387 995.816 113.752 995.816 115.369C995.816 116.975 996.35 118.334 997.416 119.447C998.494 120.561 999.766 121.117 1001.23 121.117C1002.7 121.117 1003.96 120.561 1005.03 119.447ZM994.902 121.68C993.121 119.887 992.23 117.783 992.23 115.369C992.23 112.943 993.121 110.834 994.902 109.041C996.695 107.248 998.805 106.352 1001.23 106.352C1003.66 106.352 1005.76 107.248 1007.54 109.041C1009.33 110.834 1010.23 112.943 1010.23 115.369C1010.23 117.783 1009.33 119.887 1007.54 121.68C1005.76 123.461 1003.66 124.352 1001.23 124.352C998.805 124.352 996.695 123.461 994.902 121.68ZM1023.36 114.279L1029.67 106.721H1032.55V124H1028.95V112.662L1023.36 119.324L1017.79 112.662V124H1014.19V106.721H1017.07L1023.36 114.279ZM1046.78 114.279L1053.09 106.721H1055.97V124H1052.37V112.662L1046.78 119.324L1041.2 112.662V124H1037.6V106.721H1040.48L1046.78 114.279ZM1065.16 125.793L1065.88 124L1058.85 106.721H1062.63L1067.68 119.324L1072.72 106.721H1076.5L1068.75 125.793C1067.86 127.926 1066.97 129.42 1066.09 130.275C1065.23 131.131 1064.14 131.559 1062.82 131.559C1062.34 131.559 1061.89 131.529 1061.47 131.471C1061.05 131.412 1060.74 131.348 1060.54 131.277L1060.29 131.207V127.955C1060.89 128.189 1061.49 128.312 1062.1 128.324C1063.47 128.312 1064.49 127.469 1065.16 125.793ZM1082.97 116.793V124H1079.37V106.721H1082.97V113.559H1091.42V106.721H1095.03V124H1091.42V116.793H1082.97ZM1112.68 106.721H1115.91V124H1112.31V112.662L1103.31 124H1100.07V106.721H1103.68V118.059L1112.68 106.721ZM1136.27 106.721L1129.6 113.928L1136.79 124H1132.84L1127.27 116.266L1124.56 119.148V124H1120.96V106.721H1124.56V114.455L1131.94 106.721H1136.27ZM1153.53 124H1149.92V122.207C1149.88 122.254 1149.79 122.33 1149.68 122.436C1149.57 122.541 1149.35 122.717 1149.01 122.963C1148.68 123.197 1148.32 123.414 1147.94 123.613C1147.55 123.801 1147.06 123.971 1146.48 124.123C1145.89 124.275 1145.3 124.352 1144.7 124.352C1142.95 124.352 1141.49 123.842 1140.33 122.822C1139.17 121.803 1138.59 120.637 1138.59 119.324C1138.59 117.906 1139.03 116.717 1139.92 115.756C1140.82 114.795 1142.05 114.186 1143.61 113.928L1149.92 112.838C1149.92 111.924 1149.58 111.156 1148.9 110.535C1148.24 109.914 1147.38 109.604 1146.32 109.604C1145.41 109.604 1144.57 109.797 1143.82 110.184C1143.09 110.559 1142.58 110.939 1142.29 111.326L1141.82 111.941L1139.48 109.604C1139.55 109.51 1139.65 109.393 1139.76 109.252C1139.89 109.1 1140.17 108.842 1140.59 108.479C1141.02 108.104 1141.48 107.77 1141.96 107.477C1142.44 107.184 1143.07 106.926 1143.86 106.703C1144.66 106.469 1145.48 106.352 1146.32 106.352C1148.43 106.352 1150.16 106.979 1151.51 108.232C1152.85 109.475 1153.53 111.01 1153.53 112.838V124ZM1145.25 121.117C1146.71 121.117 1147.86 120.684 1148.68 119.816C1149.51 118.938 1149.92 117.689 1149.92 116.072V115.721L1144.33 116.617C1143.69 116.734 1143.17 116.998 1142.77 117.408C1142.37 117.818 1142.17 118.334 1142.17 118.955C1142.17 119.529 1142.45 120.033 1143 120.467C1143.56 120.9 1144.31 121.117 1145.25 121.117ZM1158.57 124V106.721H1162.18V120.766H1170.28V106.721H1173.88V120.766H1176.4V128.324H1172.79V124H1158.57ZM1192.59 106.721H1195.82V124H1192.22V112.662L1183.22 124H1179.98V106.721H1183.59V118.059L1192.59 106.721ZM1213.47 106.721H1216.7V124H1213.1V112.662L1204.1 124H1200.87V106.721H1204.47V118.059L1213.47 106.721Z" fill="black"/>
<rect x="715.833" y="0.5" width="601.333" height="179" rx="89.5" stroke="black"/>
<circle cx="1407.67" cy="90" r="68.2218" stroke="black" stroke-width="3.55644"/>
<path d="M1368.32 92.6429C1367.38 91.5786 1366.62 90.6693 1366.06 89.9817C1366.62 89.294 1367.38 88.3847 1368.32 87.3205C1370.52 84.8422 1373.71 81.5402 1377.63 78.2438C1385.55 71.5929 1396.16 65.2455 1407.64 65.2455C1419.12 65.2455 1429.73 71.5929 1437.65 78.2438C1441.58 81.5402 1444.76 84.8422 1446.96 87.3205C1447.9 88.3847 1448.67 89.294 1449.22 89.9817C1448.67 90.6693 1447.9 91.5786 1446.96 92.6429C1444.76 95.1211 1441.58 98.4232 1437.65 101.72C1429.73 108.37 1419.12 114.718 1407.64 114.718C1396.16 114.718 1385.55 108.37 1377.63 101.72C1373.71 98.4232 1370.52 95.1211 1368.32 92.6429Z" stroke="black" stroke-width="4.74193"/>
<circle cx="1406.77" cy="89.1037" r="17.4885" fill="black"/>
<path d="M1565.61 43.7207H1568.84V61H1565.24V49.6621L1556.24 61H1553V43.7207H1556.61V55.0586L1565.61 43.7207ZM1575.49 58.6797C1573.71 56.8867 1572.82 54.7832 1572.82 52.3691C1572.82 49.9434 1573.71 47.834 1575.49 46.041C1577.28 44.248 1579.39 43.3516 1581.82 43.3516C1583.16 43.3516 1584.42 43.6445 1585.58 44.2305C1586.74 44.8047 1587.57 45.3789 1588.07 45.9531L1588.83 46.7793L1586.49 49.1172C1586.37 48.9297 1586.19 48.7012 1585.95 48.4316C1585.71 48.1504 1585.19 47.7754 1584.38 47.3066C1583.58 46.8379 1582.73 46.6035 1581.82 46.6035C1580.35 46.6035 1579.08 47.1602 1578 48.2734C1576.93 49.3867 1576.4 50.752 1576.4 52.3691C1576.4 53.9746 1576.93 55.334 1578 56.4473C1579.08 57.5605 1580.35 58.1172 1581.82 58.1172C1582.73 58.1172 1583.58 57.8887 1584.38 57.4316C1585.19 56.9746 1585.77 56.5293 1586.12 56.0957L1586.67 55.4277L1589 57.7656C1588.93 57.8594 1588.83 57.9941 1588.69 58.1699C1588.55 58.334 1588.24 58.6211 1587.77 59.0312C1587.31 59.4297 1586.81 59.7871 1586.3 60.1035C1585.78 60.4082 1585.11 60.6953 1584.29 60.9648C1583.47 61.2227 1582.65 61.3516 1581.82 61.3516C1579.39 61.3516 1577.28 60.4609 1575.49 58.6797ZM1593.45 58.6797C1591.67 56.8867 1590.78 54.7832 1590.78 52.3691C1590.78 49.9434 1591.67 47.834 1593.45 46.041C1595.25 44.248 1597.35 43.3516 1599.78 43.3516C1601.13 43.3516 1602.38 43.6445 1603.54 44.2305C1604.7 44.8047 1605.53 45.3789 1606.04 45.9531L1606.79 46.7793L1604.46 49.1172C1604.34 48.9297 1604.16 48.7012 1603.91 48.4316C1603.68 48.1504 1603.16 47.7754 1602.35 47.3066C1601.55 46.8379 1600.69 46.6035 1599.78 46.6035C1598.32 46.6035 1597.04 47.1602 1595.97 48.2734C1594.9 49.3867 1594.37 50.752 1594.37 52.3691C1594.37 53.9746 1594.9 55.334 1595.97 56.4473C1597.04 57.5605 1598.32 58.1172 1599.78 58.1172C1600.69 58.1172 1601.55 57.8887 1602.35 57.4316C1603.16 56.9746 1603.74 56.5293 1604.09 56.0957L1604.63 55.4277L1606.97 57.7656C1606.9 57.8594 1606.79 57.9941 1606.65 58.1699C1606.51 58.334 1606.21 58.6211 1605.74 59.0312C1605.27 59.4297 1604.78 59.7871 1604.26 60.1035C1603.75 60.4082 1603.08 60.6953 1602.26 60.9648C1601.44 61.2227 1600.61 61.3516 1599.78 61.3516C1597.35 61.3516 1595.25 60.4609 1593.45 58.6797ZM1612.54 43.7207H1625.87V61H1622.26V46.9551H1616.15V48.7656C1616.15 52.0586 1615.88 54.6602 1615.35 56.5703C1614.84 58.4688 1614.17 59.7402 1613.35 60.3848C1612.54 61.0293 1611.49 61.3516 1610.2 61.3516C1609.89 61.3516 1609.55 61.3223 1609.18 61.2637C1608.83 61.2051 1608.56 61.1406 1608.36 61.0703L1608.04 61V57.5723C1608.52 57.6895 1608.94 57.7539 1609.29 57.7656C1610.03 57.7656 1610.61 57.5664 1611.03 57.168C1611.46 56.7695 1611.82 55.8906 1612.1 54.5312C1612.4 53.1602 1612.54 51.2383 1612.54 48.7656V43.7207ZM1646.92 53.6172H1633.42C1633.61 54.8359 1634.21 55.8906 1635.22 56.7812C1636.24 57.6719 1637.44 58.1172 1638.84 58.1172C1639.85 58.1172 1640.78 57.8887 1641.65 57.4316C1642.53 56.9746 1643.15 56.5293 1643.51 56.0957L1644.06 55.4277L1646.4 57.7656C1646.33 57.8594 1646.22 57.9941 1646.06 58.1699C1645.92 58.334 1645.61 58.6211 1645.13 59.0312C1644.65 59.4297 1644.14 59.7871 1643.6 60.1035C1643.06 60.4082 1642.36 60.6953 1641.49 60.9648C1640.64 61.2227 1639.75 61.3516 1638.84 61.3516C1636.39 61.3516 1634.27 60.4551 1632.49 58.6621C1630.72 56.8574 1629.84 54.6953 1629.84 52.1758C1629.84 49.75 1630.7 47.6758 1632.42 45.9531C1634.16 44.2188 1636.23 43.3516 1638.65 43.3516C1641.07 43.3516 1643.09 44.1602 1644.69 45.7773C1646.31 47.3828 1647.12 49.3984 1647.12 51.8242L1646.92 53.6172ZM1638.65 46.4277C1637.34 46.4277 1636.25 46.8145 1635.36 47.5879C1634.48 48.3496 1633.89 49.3398 1633.58 50.5586H1643.58C1643.37 49.3398 1642.83 48.3496 1641.95 47.5879C1641.07 46.8145 1639.97 46.4277 1638.65 46.4277ZM1648.54 57.7656H1649.79C1649.86 57.6953 1649.96 57.584 1650.09 57.4316C1650.23 57.2676 1650.46 56.9102 1650.79 56.3594C1651.13 55.8086 1651.42 55.2168 1651.67 54.584C1651.93 53.9395 1652.16 53.0957 1652.36 52.0527C1652.57 51.0098 1652.67 49.9141 1652.67 48.7656V43.7207H1665.28V57.7656H1667.79V65.3242H1664.2V61H1652.15V65.3242H1648.54V57.7656ZM1656.28 46.9551V48.7656C1656.28 49.9141 1656.18 51.0039 1655.98 52.0352C1655.79 53.0664 1655.55 53.9219 1655.26 54.6016C1654.98 55.2695 1654.69 55.8496 1654.4 56.3418C1654.11 56.834 1653.88 57.1855 1653.69 57.3965L1653.39 57.7656H1661.67V46.9551H1656.28ZM1683.14 56.4473C1684.2 55.334 1684.74 53.9746 1684.74 52.3691C1684.74 50.752 1684.2 49.3867 1683.14 48.2734C1682.07 47.1602 1680.8 46.6035 1679.34 46.6035C1677.87 46.6035 1676.6 47.1602 1675.52 48.2734C1674.46 49.3867 1673.92 50.752 1673.92 52.3691C1673.92 53.9746 1674.46 55.334 1675.52 56.4473C1676.6 57.5605 1677.87 58.1172 1679.34 58.1172C1680.8 58.1172 1682.07 57.5605 1683.14 56.4473ZM1673.01 58.6797C1671.23 56.8867 1670.34 54.7832 1670.34 52.3691C1670.34 49.9434 1671.23 47.834 1673.01 46.041C1674.8 44.248 1676.91 43.3516 1679.34 43.3516C1681.76 43.3516 1683.87 44.248 1685.65 46.041C1687.44 47.834 1688.34 49.9434 1688.34 52.3691C1688.34 54.7832 1687.44 56.8867 1685.65 58.6797C1683.87 60.4609 1681.76 61.3516 1679.34 61.3516C1676.91 61.3516 1674.8 60.4609 1673.01 58.6797ZM1692.29 43.7207H1700.57C1702.23 43.7207 1703.54 44.1484 1704.51 45.0039C1705.48 45.8477 1705.97 46.9199 1705.97 48.2207C1705.97 48.959 1705.81 49.6328 1705.48 50.2422C1705.16 50.8398 1704.83 51.2559 1704.49 51.4902L1704 51.8242C1704.07 51.8477 1704.17 51.8887 1704.3 51.9473C1704.43 52.0059 1704.66 52.1582 1705 52.4043C1705.34 52.6387 1705.64 52.9023 1705.88 53.1953C1706.14 53.4766 1706.37 53.8633 1706.57 54.3555C1706.78 54.8477 1706.88 55.3809 1706.88 55.9551C1706.88 57.4434 1706.35 58.6562 1705.28 59.5938C1704.23 60.5312 1702.78 61 1700.94 61H1692.29V43.7207ZM1700.94 53.2656H1695.9V57.9414H1700.94C1701.66 57.9414 1702.23 57.7305 1702.65 57.3086C1703.07 56.8867 1703.28 56.3184 1703.28 55.6035C1703.28 54.959 1703.06 54.4082 1702.63 53.9512C1702.2 53.4941 1701.63 53.2656 1700.94 53.2656ZM1701.89 49.9082C1702.22 49.5801 1702.38 49.1406 1702.38 48.5898C1702.38 48.0273 1702.22 47.5879 1701.89 47.2715C1701.56 46.9434 1701.12 46.7793 1700.57 46.7793H1695.9V50.3828H1700.57C1701.12 50.3828 1701.56 50.2246 1701.89 49.9082ZM1724.69 61H1721.09V59.207C1721.04 59.2539 1720.96 59.3301 1720.84 59.4355C1720.74 59.541 1720.51 59.7168 1720.17 59.9629C1719.84 60.1973 1719.49 60.4141 1719.1 60.6133C1718.71 60.8008 1718.23 60.9707 1717.64 61.123C1717.06 61.2754 1716.46 61.3516 1715.87 61.3516C1714.11 61.3516 1712.65 60.8418 1711.49 59.8223C1710.33 58.8027 1709.75 57.6367 1709.75 56.3242C1709.75 54.9062 1710.19 53.7168 1711.08 52.7559C1711.99 51.7949 1713.22 51.1855 1714.78 50.9277L1721.09 49.8379C1721.09 48.9238 1720.75 48.1562 1720.07 47.5352C1719.4 46.9141 1718.54 46.6035 1717.48 46.6035C1716.57 46.6035 1715.74 46.7969 1714.99 47.1836C1714.25 47.5586 1713.74 47.9395 1713.46 48.3262L1712.98 48.9414L1710.65 46.6035C1710.72 46.5098 1710.81 46.3926 1710.93 46.252C1711.06 46.0996 1711.33 45.8418 1711.75 45.4785C1712.19 45.1035 1712.64 44.7695 1713.12 44.4766C1713.6 44.1836 1714.24 43.9258 1715.02 43.7031C1715.82 43.4688 1716.64 43.3516 1717.48 43.3516C1719.59 43.3516 1721.32 43.9785 1722.67 45.2324C1724.02 46.4746 1724.69 48.0098 1724.69 49.8379V61ZM1716.41 58.1172C1717.88 58.1172 1719.02 57.6836 1719.84 56.8164C1720.67 55.9375 1721.09 54.6895 1721.09 53.0723V52.7207L1715.5 53.6172C1714.85 53.7344 1714.33 53.998 1713.93 54.4082C1713.53 54.8184 1713.33 55.334 1713.33 55.9551C1713.33 56.5293 1713.61 57.0332 1714.16 57.4668C1714.72 57.9004 1715.47 58.1172 1716.41 58.1172ZM1733.34 53.793V61H1729.74V43.7207H1733.34V50.5586H1741.79V43.7207H1745.4V61H1741.79V53.793H1733.34ZM1763.05 43.7207H1766.28V61H1762.68V49.6621L1753.68 61H1750.44V43.7207H1754.05V55.0586L1763.05 43.7207ZM1787.34 53.6172H1773.84C1774.03 54.8359 1774.62 55.8906 1775.63 56.7812C1776.65 57.6719 1777.86 58.1172 1779.25 58.1172C1780.26 58.1172 1781.2 57.8887 1782.07 57.4316C1782.94 56.9746 1783.57 56.5293 1783.93 56.0957L1784.47 55.4277L1786.81 57.7656C1786.74 57.8594 1786.63 57.9941 1786.48 58.1699C1786.34 58.334 1786.03 58.6211 1785.55 59.0312C1785.07 59.4297 1784.56 59.7871 1784.02 60.1035C1783.48 60.4082 1782.77 60.6953 1781.91 60.9648C1781.05 61.2227 1780.17 61.3516 1779.25 61.3516C1776.8 61.3516 1774.69 60.4551 1772.91 58.6621C1771.14 56.8574 1770.25 54.6953 1770.25 52.1758C1770.25 49.75 1771.11 47.6758 1772.84 45.9531C1774.57 44.2188 1776.65 43.3516 1779.06 43.3516C1781.49 43.3516 1783.5 44.1602 1785.11 45.7773C1786.72 47.3828 1787.53 49.3984 1787.53 51.8242L1787.34 53.6172ZM1779.06 46.4277C1777.76 46.4277 1776.66 46.8145 1775.77 47.5879C1774.89 48.3496 1774.3 49.3398 1774 50.5586H1784C1783.79 49.3398 1783.24 48.3496 1782.36 47.5879C1781.49 46.8145 1780.38 46.4277 1779.06 46.4277ZM1565.08 88.041C1566.87 89.834 1567.77 91.9434 1567.77 94.3691C1567.77 96.7832 1566.87 98.8867 1565.08 100.68C1563.3 102.461 1561.2 103.352 1558.77 103.352C1557.93 103.352 1557.1 103.229 1556.29 102.982C1555.5 102.725 1554.83 102.426 1554.29 102.086C1553.75 101.734 1553.26 101.389 1552.83 101.049C1552.4 100.697 1552.08 100.387 1551.9 100.117L1551.56 99.7656L1553.9 97.4277C1553.95 97.498 1554.02 97.5918 1554.11 97.709C1554.22 97.8262 1554.42 98.043 1554.73 98.3594C1555.04 98.6641 1555.37 98.9395 1555.71 99.1855C1556.06 99.4199 1556.51 99.6367 1557.07 99.8359C1557.63 100.023 1558.2 100.117 1558.77 100.117C1559.59 100.117 1560.32 99.9648 1560.97 99.6602C1561.61 99.3438 1562.11 98.9688 1562.46 98.5352C1562.83 98.1016 1563.12 97.6621 1563.36 97.2168C1563.6 96.7715 1563.77 96.3965 1563.85 96.0918L1563.99 95.6172H1556.06V92.5586H1563.82C1563.79 92.4648 1563.74 92.3301 1563.66 92.1543C1563.59 91.9668 1563.42 91.6445 1563.15 91.1875C1562.89 90.7305 1562.59 90.332 1562.25 89.9922C1561.92 89.6406 1561.44 89.3242 1560.81 89.043C1560.19 88.75 1559.51 88.6035 1558.77 88.6035C1557.86 88.6035 1557.01 88.8145 1556.22 89.2363C1555.45 89.6465 1554.89 90.0566 1554.55 90.4668L1554.09 91.1172L1551.74 88.7793C1551.81 88.6855 1551.91 88.5625 1552.04 88.4102C1552.18 88.2461 1552.47 87.9766 1552.92 87.6016C1553.36 87.2148 1553.84 86.8691 1554.34 86.5645C1554.84 86.2598 1555.5 85.9844 1556.29 85.7383C1557.1 85.4805 1557.93 85.3516 1558.77 85.3516C1561.2 85.3516 1563.3 86.248 1565.08 88.041ZM1580.71 110.559V103.352C1577.71 103.352 1575.28 102.496 1573.41 100.785C1571.56 99.0742 1570.64 96.9355 1570.64 94.3691C1570.64 91.791 1571.56 89.6465 1573.41 87.9355C1575.28 86.2129 1577.71 85.3516 1580.71 85.3516V77.793H1584.31V85.3516C1587.31 85.3516 1589.74 86.2129 1591.59 87.9355C1593.45 89.6465 1594.38 91.791 1594.38 94.3691C1594.38 96.9355 1593.45 99.0742 1591.59 100.785C1589.74 102.496 1587.31 103.352 1584.31 103.352V110.559H1580.71ZM1580.71 100.117V88.6035C1578.67 88.6035 1577.08 89.125 1575.93 90.168C1574.79 91.2109 1574.22 92.6113 1574.22 94.3691C1574.22 96.1152 1574.79 97.5098 1575.93 98.5527C1577.08 99.5957 1578.67 100.117 1580.71 100.117ZM1584.31 88.6035V100.117C1586.35 100.117 1587.94 99.5957 1589.08 98.5527C1590.22 97.5098 1590.8 96.1152 1590.8 94.3691C1590.8 92.6113 1590.22 91.2109 1589.08 90.168C1587.94 89.125 1586.35 88.6035 1584.31 88.6035ZM1607.36 110.559V103.352C1604.36 103.352 1601.92 102.496 1600.06 100.785C1598.21 99.0742 1597.28 96.9355 1597.28 94.3691C1597.28 91.791 1598.21 89.6465 1600.06 87.9355C1601.92 86.2129 1604.36 85.3516 1607.36 85.3516V77.793H1610.96V85.3516C1613.96 85.3516 1616.39 86.2129 1618.24 87.9355C1620.1 89.6465 1621.03 91.791 1621.03 94.3691C1621.03 96.9355 1620.1 99.0742 1618.24 100.785C1616.39 102.496 1613.96 103.352 1610.96 103.352V110.559H1607.36ZM1607.36 100.117V88.6035C1605.32 88.6035 1603.72 89.125 1602.58 90.168C1601.44 91.2109 1600.87 92.6113 1600.87 94.3691C1600.87 96.1152 1601.44 97.5098 1602.58 98.5527C1603.72 99.5957 1605.32 100.117 1607.36 100.117ZM1610.96 88.6035V100.117C1613 100.117 1614.59 99.5957 1615.72 98.5527C1616.87 97.5098 1617.45 96.1152 1617.45 94.3691C1617.45 92.6113 1616.87 91.2109 1615.72 90.168C1614.59 89.125 1613 88.6035 1610.96 88.6035ZM1641.02 95.6172H1627.52C1627.71 96.8359 1628.3 97.8906 1629.31 98.7812C1630.33 99.6719 1631.54 100.117 1632.93 100.117C1633.94 100.117 1634.88 99.8887 1635.75 99.4316C1636.62 98.9746 1637.25 98.5293 1637.61 98.0957L1638.15 97.4277L1640.49 99.7656C1640.42 99.8594 1640.31 99.9941 1640.16 100.17C1640.02 100.334 1639.71 100.621 1639.23 101.031C1638.75 101.43 1638.24 101.787 1637.7 102.104C1637.16 102.408 1636.45 102.695 1635.59 102.965C1634.73 103.223 1633.85 103.352 1632.93 103.352C1630.48 103.352 1628.37 102.455 1626.59 100.662C1624.82 98.8574 1623.93 96.6953 1623.93 94.1758C1623.93 91.75 1624.79 89.6758 1626.52 87.9531C1628.25 86.2188 1630.33 85.3516 1632.74 85.3516C1635.17 85.3516 1637.18 86.1602 1638.79 87.7773C1640.4 89.3828 1641.21 91.3984 1641.21 93.8242L1641.02 95.6172ZM1632.74 88.4277C1631.44 88.4277 1630.34 88.8145 1629.45 89.5879C1628.57 90.3496 1627.98 91.3398 1627.68 92.5586H1637.68C1637.47 91.3398 1636.92 90.3496 1636.04 89.5879C1635.17 88.8145 1634.06 88.4277 1632.74 88.4277ZM1660.46 85.7207L1653.8 92.9277L1660.99 103H1657.03L1651.46 95.2656L1648.75 98.1484V103H1645.15V85.7207H1648.75V93.4551L1656.14 85.7207H1660.46ZM1662.06 88.9551V85.7207H1677.53V88.9551H1671.59V103H1668V88.9551H1662.06ZM1693.37 85.7207H1696.6V103H1693V91.6621L1684 103H1680.76V85.7207H1684.37V97.0586L1693.37 85.7207ZM1701.65 85.7207H1709.92C1711.58 85.7207 1712.89 86.1484 1713.86 87.0039C1714.83 87.8477 1715.32 88.9199 1715.32 90.2207C1715.32 90.959 1715.16 91.6328 1714.83 92.2422C1714.51 92.8398 1714.18 93.2559 1713.84 93.4902L1713.35 93.8242C1713.42 93.8477 1713.52 93.8887 1713.65 93.9473C1713.78 94.0059 1714.01 94.1582 1714.35 94.4043C1714.69 94.6387 1714.99 94.9023 1715.23 95.1953C1715.49 95.4766 1715.72 95.8633 1715.92 96.3555C1716.13 96.8477 1716.24 97.3809 1716.24 97.9551C1716.24 99.4434 1715.7 100.656 1714.64 101.594C1713.58 102.531 1712.13 103 1710.29 103H1701.65V85.7207ZM1710.29 95.2656H1705.25V99.9414H1710.29C1711.01 99.9414 1711.58 99.7305 1712 99.3086C1712.42 98.8867 1712.63 98.3184 1712.63 97.6035C1712.63 96.959 1712.42 96.4082 1711.98 95.9512C1711.55 95.4941 1710.99 95.2656 1710.29 95.2656ZM1711.24 91.9082C1711.57 91.5801 1711.74 91.1406 1711.74 90.5898C1711.74 90.0273 1711.57 89.5879 1711.24 89.2715C1710.92 88.9434 1710.48 88.7793 1709.92 88.7793H1705.25V92.3828H1709.92C1710.48 92.3828 1710.92 92.2246 1711.24 91.9082ZM1723.78 95.793V103H1720.17V85.7207H1723.78V92.5586H1732.23V85.7207H1735.83V103H1732.23V95.793H1723.78ZM1752.6 98.4473C1753.67 97.334 1754.2 95.9746 1754.2 94.3691C1754.2 92.752 1753.67 91.3867 1752.6 90.2734C1751.54 89.1602 1750.27 88.6035 1748.81 88.6035C1747.34 88.6035 1746.07 89.1602 1744.99 90.2734C1743.93 91.3867 1743.39 92.752 1743.39 94.3691C1743.39 95.9746 1743.93 97.334 1744.99 98.4473C1746.07 99.5605 1747.34 100.117 1748.81 100.117C1750.27 100.117 1751.54 99.5605 1752.6 98.4473ZM1742.48 100.68C1740.7 98.8867 1739.81 96.7832 1739.81 94.3691C1739.81 91.9434 1740.7 89.834 1742.48 88.041C1744.27 86.248 1746.38 85.3516 1748.81 85.3516C1751.23 85.3516 1753.34 86.248 1755.12 88.041C1756.91 89.834 1757.81 91.9434 1757.81 94.3691C1757.81 96.7832 1756.91 98.8867 1755.12 100.68C1753.34 102.461 1751.23 103.352 1748.81 103.352C1746.38 103.352 1744.27 102.461 1742.48 100.68ZM1763.36 100.68C1761.58 98.8867 1760.69 96.7832 1760.69 94.3691C1760.69 91.9434 1761.58 89.834 1763.36 88.041C1765.16 86.248 1767.26 85.3516 1769.69 85.3516C1771.04 85.3516 1772.29 85.6445 1773.45 86.2305C1774.61 86.8047 1775.44 87.3789 1775.95 87.9531L1776.7 88.7793L1774.37 91.1172C1774.25 90.9297 1774.07 90.7012 1773.82 90.4316C1773.59 90.1504 1773.07 89.7754 1772.26 89.3066C1771.46 88.8379 1770.6 88.6035 1769.69 88.6035C1768.23 88.6035 1766.95 89.1602 1765.88 90.2734C1764.81 91.3867 1764.28 92.752 1764.28 94.3691C1764.28 95.9746 1764.81 97.334 1765.88 98.4473C1766.95 99.5605 1768.23 100.117 1769.69 100.117C1770.6 100.117 1771.46 99.8887 1772.26 99.4316C1773.07 98.9746 1773.65 98.5293 1774 98.0957L1774.54 97.4277L1776.88 99.7656C1776.81 99.8594 1776.7 99.9941 1776.56 100.17C1776.42 100.334 1776.12 100.621 1775.65 101.031C1775.18 101.43 1774.69 101.787 1774.17 102.104C1773.66 102.408 1772.99 102.695 1772.17 102.965C1771.35 103.223 1770.52 103.352 1769.69 103.352C1767.26 103.352 1765.16 102.461 1763.36 100.68ZM1778.67 88.9551V85.7207H1794.14V88.9551H1788.2V103H1784.61V88.9551H1778.67ZM1809.98 85.7207H1813.21V103H1809.61V91.6621L1800.61 103H1797.38V85.7207H1800.98V97.0586L1809.98 85.7207ZM1568.32 127.721L1561.65 134.928L1568.84 145H1564.89L1559.32 137.266L1556.61 140.148V145H1553V127.721H1556.61V135.455L1563.99 127.721H1568.32ZM1582.69 140.447C1583.76 139.334 1584.29 137.975 1584.29 136.369C1584.29 134.752 1583.76 133.387 1582.69 132.273C1581.63 131.16 1580.36 130.604 1578.9 130.604C1577.43 130.604 1576.16 131.16 1575.08 132.273C1574.02 133.387 1573.48 134.752 1573.48 136.369C1573.48 137.975 1574.02 139.334 1575.08 140.447C1576.16 141.561 1577.43 142.117 1578.9 142.117C1580.36 142.117 1581.63 141.561 1582.69 140.447ZM1572.57 142.68C1570.79 140.887 1569.9 138.783 1569.9 136.369C1569.9 133.943 1570.79 131.834 1572.57 130.041C1574.36 128.248 1576.47 127.352 1578.9 127.352C1581.32 127.352 1583.43 128.248 1585.21 130.041C1587 131.834 1587.9 133.943 1587.9 136.369C1587.9 138.783 1587 140.887 1585.21 142.68C1583.43 144.461 1581.32 145.352 1578.9 145.352C1576.47 145.352 1574.36 144.461 1572.57 142.68ZM1601.03 135.279L1607.34 127.721H1610.22V145H1606.62V133.662L1601.03 140.324L1595.46 133.662V145H1591.85V127.721H1594.74L1601.03 135.279ZM1624.44 135.279L1630.75 127.721H1633.64V145H1630.03V133.662L1624.44 140.324L1618.87 133.662V145H1615.27V127.721H1618.15L1624.44 135.279ZM1642.83 146.793L1643.55 145L1636.52 127.721H1640.3L1645.34 140.324L1650.39 127.721H1654.17L1646.42 146.793C1645.52 148.926 1644.64 150.42 1643.76 151.275C1642.89 152.131 1641.8 152.559 1640.49 152.559C1640.01 152.559 1639.56 152.529 1639.14 152.471C1638.72 152.412 1638.41 152.348 1638.21 152.277L1637.96 152.207V148.955C1638.56 149.189 1639.16 149.312 1639.77 149.324C1641.14 149.312 1642.16 148.469 1642.83 146.793ZM1660.64 137.793V145H1657.03V127.721H1660.64V134.559H1669.09V127.721H1672.69V145H1669.09V137.793H1660.64ZM1690.34 127.721H1693.58V145H1689.97V133.662L1680.97 145H1677.74V127.721H1681.34V139.059L1690.34 127.721ZM1713.93 127.721L1707.27 134.928L1714.46 145H1710.5L1704.93 137.266L1702.23 140.148V145H1698.62V127.721H1702.23V135.455L1709.61 127.721H1713.93ZM1731.19 145H1727.59V143.207C1727.54 143.254 1727.46 143.33 1727.34 143.436C1727.24 143.541 1727.02 143.717 1726.68 143.963C1726.35 144.197 1725.99 144.414 1725.6 144.613C1725.22 144.801 1724.73 144.971 1724.15 145.123C1723.56 145.275 1722.97 145.352 1722.37 145.352C1720.61 145.352 1719.15 144.842 1717.99 143.822C1716.83 142.803 1716.25 141.637 1716.25 140.324C1716.25 138.906 1716.7 137.717 1717.59 136.756C1718.49 135.795 1719.72 135.186 1721.28 134.928L1727.59 133.838C1727.59 132.924 1727.25 132.156 1726.57 131.535C1725.9 130.914 1725.04 130.604 1723.99 130.604C1723.07 130.604 1722.24 130.797 1721.49 131.184C1720.75 131.559 1720.24 131.939 1719.96 132.326L1719.49 132.941L1717.15 130.604C1717.22 130.51 1717.31 130.393 1717.43 130.252C1717.56 130.1 1717.83 129.842 1718.26 129.479C1718.69 129.104 1719.15 128.77 1719.63 128.477C1720.11 128.184 1720.74 127.926 1721.53 127.703C1722.32 127.469 1723.14 127.352 1723.99 127.352C1726.1 127.352 1727.83 127.979 1729.17 129.232C1730.52 130.475 1731.19 132.01 1731.19 133.838V145ZM1722.92 142.117C1724.38 142.117 1725.52 141.684 1726.34 140.816C1727.17 139.938 1727.59 138.689 1727.59 137.072V136.721L1722 137.617C1721.36 137.734 1720.83 137.998 1720.44 138.408C1720.04 138.818 1719.84 139.334 1719.84 139.955C1719.84 140.529 1720.11 141.033 1720.67 141.467C1721.23 141.9 1721.98 142.117 1722.92 142.117ZM1736.24 145V127.721H1739.84V141.766H1747.95V127.721H1751.55V141.766H1754.06V149.324H1750.46V145H1736.24ZM1770.25 127.721H1773.49V145H1769.88V133.662L1760.88 145H1757.65V127.721H1761.25V139.059L1770.25 127.721ZM1791.14 127.721H1794.37V145H1790.77V133.662L1781.77 145H1778.53V127.721H1782.14V139.059L1791.14 127.721Z" fill="black"/>
<rect x="1318.17" y="0.5" width="601.333" height="179" rx="89.5" stroke="black"/>
</svg>
