<svg width="1920" height="180" viewBox="0 0 1920 180" fill="none" xmlns="http://www.w3.org/2000/svg">
<circle r="89.5" transform="matrix(1 -8.74228e-08 -8.74228e-08 -1 104 90)" stroke="black"/>
<path d="M98.2428 35.2616L152.732 89.7505M152.732 89.7505L98.2428 144.239M152.732 89.7505L43.7539 89.7505" stroke="black" stroke-width="2"/>
<path d="M276.062 98.4473C277.129 97.334 277.662 95.9746 277.662 94.3691C277.662 92.752 277.129 91.3867 276.062 90.2734C274.996 89.1602 273.73 88.6035 272.266 88.6035C270.801 88.6035 269.529 89.1602 268.451 90.2734C267.385 91.3867 266.852 92.752 266.852 94.3691C266.852 95.9746 267.385 97.334 268.451 98.4473C269.529 99.5605 270.801 100.117 272.266 100.117C273.73 100.117 274.996 99.5605 276.062 98.4473ZM265.938 100.68C264.156 98.8867 263.266 96.7832 263.266 94.3691C263.266 91.9434 264.156 89.834 265.938 88.041C267.73 86.248 269.84 85.3516 272.266 85.3516C274.691 85.3516 276.795 86.248 278.576 88.041C280.369 89.834 281.266 91.9434 281.266 94.3691C281.266 96.7832 280.369 98.8867 278.576 100.68C276.795 102.461 274.691 103.352 272.266 103.352C269.84 103.352 267.73 102.461 265.938 100.68ZM288.824 88.9551V103H285.221V85.7207H300.883V103H297.279V88.9551H288.824ZM315.104 103.352C314.459 103.352 313.832 103.275 313.223 103.123C312.613 102.971 312.092 102.783 311.658 102.561C311.225 102.326 310.838 102.092 310.498 101.857C310.17 101.611 309.93 101.418 309.777 101.277L309.531 101.014V110.559H305.928V85.7207H309.531V87.707C309.695 87.543 309.924 87.3262 310.217 87.0566C310.521 86.7871 311.16 86.4355 312.133 86.002C313.105 85.5684 314.096 85.3516 315.104 85.3516C317.389 85.3516 319.369 86.2305 321.045 87.9883C322.732 89.7344 323.576 91.8555 323.576 94.3516C323.576 96.8477 322.732 98.9746 321.045 100.732C319.369 102.479 317.389 103.352 315.104 103.352ZM318.391 90.291C317.336 89.166 316.123 88.6035 314.752 88.6035C313.381 88.6035 312.168 89.166 311.113 90.291C310.059 91.416 309.531 92.7754 309.531 94.3691C309.531 95.9512 310.059 97.3047 311.113 98.4297C312.168 99.5547 313.381 100.117 314.752 100.117C316.123 100.117 317.336 99.5547 318.391 98.4297C319.445 97.3047 319.973 95.9512 319.973 94.3691C319.973 92.7754 319.445 91.416 318.391 90.291ZM343.527 95.6172H330.027C330.215 96.8359 330.812 97.8906 331.82 98.7812C332.84 99.6719 334.047 100.117 335.441 100.117C336.449 100.117 337.387 99.8887 338.254 99.4316C339.133 98.9746 339.754 98.5293 340.117 98.0957L340.662 97.4277L343 99.7656C342.93 99.8594 342.818 99.9941 342.666 100.17C342.525 100.334 342.215 100.621 341.734 101.031C341.254 101.43 340.744 101.787 340.205 102.104C339.666 102.408 338.963 102.695 338.096 102.965C337.24 103.223 336.355 103.352 335.441 103.352C332.992 103.352 330.877 102.455 329.096 100.662C327.326 98.8574 326.441 96.6953 326.441 94.1758C326.441 91.75 327.303 89.6758 329.025 87.9531C330.76 86.2188 332.834 85.3516 335.248 85.3516C337.674 85.3516 339.689 86.1602 341.295 87.7773C342.912 89.3828 343.721 91.3984 343.721 93.8242L343.527 95.6172ZM335.248 88.4277C333.947 88.4277 332.852 88.8145 331.961 89.5879C331.082 90.3496 330.49 91.3398 330.186 92.5586H340.188C339.977 91.3398 339.432 90.3496 338.553 89.5879C337.674 88.8145 336.572 88.4277 335.248 88.4277ZM345.145 99.7656H346.393C346.463 99.6953 346.562 99.584 346.691 99.4316C346.832 99.2676 347.066 98.9102 347.395 98.3594C347.734 97.8086 348.027 97.2168 348.273 96.584C348.531 95.9395 348.76 95.0957 348.959 94.0527C349.17 93.0098 349.275 91.9141 349.275 90.7656V85.7207H361.879V99.7656H364.393V107.324H360.807V103H348.748V107.324H345.145V99.7656ZM352.879 88.9551V90.7656C352.879 91.9141 352.779 93.0039 352.58 94.0352C352.393 95.0664 352.152 95.9219 351.859 96.6016C351.578 97.2695 351.291 97.8496 350.998 98.3418C350.717 98.834 350.482 99.1855 350.295 99.3965L349.996 99.7656H358.275V88.9551H352.879ZM384.027 95.6172H370.527C370.715 96.8359 371.312 97.8906 372.32 98.7812C373.34 99.6719 374.547 100.117 375.941 100.117C376.949 100.117 377.887 99.8887 378.754 99.4316C379.633 98.9746 380.254 98.5293 380.617 98.0957L381.162 97.4277L383.5 99.7656C383.43 99.8594 383.318 99.9941 383.166 100.17C383.025 100.334 382.715 100.621 382.234 101.031C381.754 101.43 381.244 101.787 380.705 102.104C380.166 102.408 379.463 102.695 378.596 102.965C377.74 103.223 376.855 103.352 375.941 103.352C373.492 103.352 371.377 102.455 369.596 100.662C367.826 98.8574 366.941 96.6953 366.941 94.1758C366.941 91.75 367.803 89.6758 369.525 87.9531C371.26 86.2188 373.334 85.3516 375.748 85.3516C378.174 85.3516 380.189 86.1602 381.795 87.7773C383.412 89.3828 384.221 91.3984 384.221 93.8242L384.027 95.6172ZM375.748 88.4277C374.447 88.4277 373.352 88.8145 372.461 89.5879C371.582 90.3496 370.99 91.3398 370.686 92.5586H380.688C380.477 91.3398 379.932 90.3496 379.053 89.5879C378.174 88.8145 377.072 88.4277 375.748 88.4277ZM390.145 85.7207H403.469V103H399.865V88.9551H393.748V90.7656C393.748 94.0586 393.484 96.6602 392.957 98.5703C392.441 100.469 391.773 101.74 390.953 102.385C390.145 103.029 389.096 103.352 387.807 103.352C387.49 103.352 387.15 103.322 386.787 103.264C386.436 103.205 386.16 103.141 385.961 103.07L385.645 103V99.5723C386.125 99.6895 386.541 99.7539 386.893 99.7656C387.631 99.7656 388.211 99.5664 388.633 99.168C389.066 98.7695 389.424 97.8906 389.705 96.5312C389.998 95.1602 390.145 93.2383 390.145 90.7656V85.7207ZM424.527 95.6172H411.027C411.215 96.8359 411.812 97.8906 412.82 98.7812C413.84 99.6719 415.047 100.117 416.441 100.117C417.449 100.117 418.387 99.8887 419.254 99.4316C420.133 98.9746 420.754 98.5293 421.117 98.0957L421.662 97.4277L424 99.7656C423.93 99.8594 423.818 99.9941 423.666 100.17C423.525 100.334 423.215 100.621 422.734 101.031C422.254 101.43 421.744 101.787 421.205 102.104C420.666 102.408 419.963 102.695 419.096 102.965C418.24 103.223 417.355 103.352 416.441 103.352C413.992 103.352 411.877 102.455 410.096 100.662C408.326 98.8574 407.441 96.6953 407.441 94.1758C407.441 91.75 408.303 89.6758 410.025 87.9531C411.76 86.2188 413.834 85.3516 416.248 85.3516C418.674 85.3516 420.689 86.1602 422.295 87.7773C423.912 89.3828 424.721 91.3984 424.721 93.8242L424.527 95.6172ZM416.248 88.4277C414.947 88.4277 413.852 88.8145 412.961 89.5879C412.082 90.3496 411.49 91.3398 411.186 92.5586H421.188C420.977 91.3398 420.432 90.3496 419.553 89.5879C418.674 88.8145 417.572 88.4277 416.248 88.4277ZM432.262 95.793V103H428.658V85.7207H432.262V92.5586H440.717V85.7207H444.32V103H440.717V95.793H432.262ZM461.969 85.7207H465.203V103H461.6V91.6621L452.6 103H449.365V85.7207H452.969V97.0586L461.969 85.7207ZM486.262 95.6172H472.762C472.949 96.8359 473.547 97.8906 474.555 98.7812C475.574 99.6719 476.781 100.117 478.176 100.117C479.184 100.117 480.121 99.8887 480.988 99.4316C481.867 98.9746 482.488 98.5293 482.852 98.0957L483.396 97.4277L485.734 99.7656C485.664 99.8594 485.553 99.9941 485.4 100.17C485.26 100.334 484.949 100.621 484.469 101.031C483.988 101.43 483.479 101.787 482.939 102.104C482.4 102.408 481.697 102.695 480.83 102.965C479.975 103.223 479.09 103.352 478.176 103.352C475.727 103.352 473.611 102.455 471.83 100.662C470.061 98.8574 469.176 96.6953 469.176 94.1758C469.176 91.75 470.037 89.6758 471.76 87.9531C473.494 86.2188 475.568 85.3516 477.982 85.3516C480.408 85.3516 482.424 86.1602 484.029 87.7773C485.646 89.3828 486.455 91.3984 486.455 93.8242L486.262 95.6172ZM477.982 88.4277C476.682 88.4277 475.586 88.8145 474.695 89.5879C473.816 90.3496 473.225 91.3398 472.92 92.5586H482.922C482.711 91.3398 482.166 90.3496 481.287 89.5879C480.408 88.8145 479.307 88.4277 477.982 88.4277ZM498.865 103V77.793H502.82V99.3965H514.879V77.793H518.834V99.3965H521.91V108.396H517.938V103H498.865ZM523.686 103L534.127 77.793H538.082L548.523 103H544.393L541.686 96.3379H530.523L527.816 103H523.686ZM536.113 82.293L531.965 92.7344H540.244L536.113 82.293Z" fill="black"/>
<circle cx="688" cy="90" r="70" fill="#9BCECA"/>
<circle cx="688" cy="75" r="21" stroke="black" stroke-width="4"/>
<path d="M654 127.5V127.5C654 111.208 667.208 98 683.5 98H692C708.292 98 721.5 111.208 721.5 127.5V127.5" stroke="black" stroke-width="4"/>
<rect x="194.5" y="0.5" width="583" height="179" rx="89.5" stroke="black"/>
<path d="M871.838 85.7207H880.117C881.77 85.7207 883.082 86.1484 884.055 87.0039C885.027 87.8477 885.514 88.9199 885.514 90.2207C885.514 90.959 885.35 91.6328 885.021 92.2422C884.705 92.8398 884.377 93.2559 884.037 93.4902L883.545 93.8242C883.615 93.8477 883.715 93.8887 883.844 93.9473C883.973 94.0059 884.207 94.1582 884.547 94.4043C884.887 94.6387 885.18 94.9023 885.426 95.1953C885.684 95.4766 885.912 95.8633 886.111 96.3555C886.322 96.8477 886.428 97.3809 886.428 97.9551C886.428 99.4434 885.895 100.656 884.828 101.594C883.773 102.531 882.326 103 880.486 103H871.838V85.7207ZM880.486 95.2656H875.441V99.9414H880.486C881.201 99.9414 881.77 99.7305 882.191 99.3086C882.613 98.8867 882.824 98.3184 882.824 97.6035C882.824 96.959 882.607 96.4082 882.174 95.9512C881.74 95.4941 881.178 95.2656 880.486 95.2656ZM881.436 91.9082C881.764 91.5801 881.928 91.1406 881.928 90.5898C881.928 90.0273 881.764 89.5879 881.436 89.2715C881.107 88.9434 880.668 88.7793 880.117 88.7793H875.441V92.3828H880.117C880.668 92.3828 881.107 92.2246 881.436 91.9082ZM893.969 99.9414H897.748C898.568 99.9414 899.254 99.666 899.805 99.1152C900.355 98.5645 900.631 97.8789 900.631 97.0586C900.631 96.2383 900.355 95.5527 899.805 95.002C899.254 94.4512 898.568 94.1758 897.748 94.1758H893.969V99.9414ZM902.441 92.8047C903.637 93.918 904.234 95.3418 904.234 97.0762C904.234 98.7988 903.637 100.217 902.441 101.33C901.258 102.443 899.693 103 897.748 103H890.365V85.7207H893.969V91.1172H897.748C899.693 91.1172 901.258 91.6797 902.441 92.8047ZM910.352 85.7207V103H906.748V85.7207H910.352ZM932.676 94.5449C932.676 96.9707 931.82 99.0449 930.109 100.768C928.41 102.49 926.389 103.352 924.045 103.352C921.338 103.352 919.158 102.385 917.506 100.451C915.865 98.5059 915.045 95.6934 915.045 92.0137C915.045 87.8184 915.824 84.6719 917.383 82.5742C918.941 80.4766 921.162 79.1875 924.045 78.707C925.322 78.4961 926.465 78.2266 927.473 77.8984C928.492 77.5703 929.195 77.2949 929.582 77.0723L930.162 76.7207L931.779 79.4277C931.709 79.5215 931.562 79.6562 931.34 79.832C931.129 80.0078 930.396 80.3242 929.143 80.7812C927.9 81.2383 926.318 81.625 924.396 81.9414C922.744 82.2109 921.414 82.8965 920.406 83.998C919.398 85.0996 918.807 86.5762 918.631 88.4277C918.678 88.3574 918.76 88.2637 918.877 88.1465C919.006 88.0176 919.258 87.8008 919.633 87.4961C920.008 87.1797 920.4 86.9043 920.811 86.6699C921.232 86.4238 921.766 86.207 922.41 86.0195C923.066 85.8203 923.729 85.7207 924.396 85.7207C926.576 85.7207 928.498 86.5938 930.162 88.3398C931.838 90.0742 932.676 92.1426 932.676 94.5449ZM920.494 90.5723C919.498 91.6387 919 92.9629 919 94.5449C919 96.127 919.498 97.4512 920.494 98.5176C921.49 99.584 922.668 100.117 924.027 100.117C925.398 100.117 926.582 99.584 927.578 98.5176C928.574 97.4512 929.072 96.127 929.072 94.5449C929.072 92.9629 928.574 91.6387 927.578 90.5723C926.582 89.4941 925.398 88.9551 924.027 88.9551C922.668 88.9551 921.49 89.4941 920.494 90.5723ZM948.707 98.4473C949.773 97.334 950.307 95.9746 950.307 94.3691C950.307 92.752 949.773 91.3867 948.707 90.2734C947.641 89.1602 946.375 88.6035 944.91 88.6035C943.445 88.6035 942.174 89.1602 941.096 90.2734C940.029 91.3867 939.496 92.752 939.496 94.3691C939.496 95.9746 940.029 97.334 941.096 98.4473C942.174 99.5605 943.445 100.117 944.91 100.117C946.375 100.117 947.641 99.5605 948.707 98.4473ZM938.582 100.68C936.801 98.8867 935.91 96.7832 935.91 94.3691C935.91 91.9434 936.801 89.834 938.582 88.041C940.375 86.248 942.484 85.3516 944.91 85.3516C947.336 85.3516 949.439 86.248 951.221 88.041C953.014 89.834 953.91 91.9434 953.91 94.3691C953.91 96.7832 953.014 98.8867 951.221 100.68C949.439 102.461 947.336 103.352 944.91 103.352C942.484 103.352 940.375 102.461 938.582 100.68ZM967.041 103.352C966.396 103.352 965.77 103.275 965.16 103.123C964.551 102.971 964.029 102.783 963.596 102.561C963.162 102.326 962.775 102.092 962.436 101.857C962.107 101.611 961.867 101.418 961.715 101.277L961.469 101.014V110.559H957.865V85.7207H961.469V87.707C961.633 87.543 961.861 87.3262 962.154 87.0566C962.459 86.7871 963.098 86.4355 964.07 86.002C965.043 85.5684 966.033 85.3516 967.041 85.3516C969.326 85.3516 971.307 86.2305 972.982 87.9883C974.67 89.7344 975.514 91.8555 975.514 94.3516C975.514 96.8477 974.67 98.9746 972.982 100.732C971.307 102.479 969.326 103.352 967.041 103.352ZM970.328 90.291C969.273 89.166 968.061 88.6035 966.689 88.6035C965.318 88.6035 964.105 89.166 963.051 90.291C961.996 91.416 961.469 92.7754 961.469 94.3691C961.469 95.9512 961.996 97.3047 963.051 98.4297C964.105 99.5547 965.318 100.117 966.689 100.117C968.061 100.117 969.273 99.5547 970.328 98.4297C971.383 97.3047 971.91 95.9512 971.91 94.3691C971.91 92.7754 971.383 91.416 970.328 90.291ZM990.262 88.9551V103H986.658V85.7207H1002.32V103H998.717V88.9551H990.262ZM1009.35 85.7207H1022.68V103H1019.07V88.9551H1012.96V90.7656C1012.96 94.0586 1012.69 96.6602 1012.16 98.5703C1011.65 100.469 1010.98 101.74 1010.16 102.385C1009.35 103.029 1008.3 103.352 1007.01 103.352C1006.7 103.352 1006.36 103.322 1005.99 103.264C1005.64 103.205 1005.37 103.141 1005.17 103.07L1004.85 103V99.5723C1005.33 99.6895 1005.75 99.7539 1006.1 99.7656C1006.84 99.7656 1007.42 99.5664 1007.84 99.168C1008.27 98.7695 1008.63 97.8906 1008.91 96.5312C1009.21 95.1602 1009.35 93.2383 1009.35 90.7656V85.7207ZM1039.45 98.4473C1040.51 97.334 1041.04 95.9746 1041.04 94.3691C1041.04 92.752 1040.51 91.3867 1039.45 90.2734C1038.38 89.1602 1037.11 88.6035 1035.65 88.6035C1034.18 88.6035 1032.91 89.1602 1031.83 90.2734C1030.77 91.3867 1030.23 92.752 1030.23 94.3691C1030.23 95.9746 1030.77 97.334 1031.83 98.4473C1032.91 99.5605 1034.18 100.117 1035.65 100.117C1037.11 100.117 1038.38 99.5605 1039.45 98.4473ZM1029.32 100.68C1027.54 98.8867 1026.65 96.7832 1026.65 94.3691C1026.65 91.9434 1027.54 89.834 1029.32 88.041C1031.11 86.248 1033.22 85.3516 1035.65 85.3516C1038.07 85.3516 1040.18 86.248 1041.96 88.041C1043.75 89.834 1044.65 91.9434 1044.65 94.3691C1044.65 96.7832 1043.75 98.8867 1041.96 100.68C1040.18 102.461 1038.07 103.352 1035.65 103.352C1033.22 103.352 1031.11 102.461 1029.32 100.68ZM1048.6 103V85.7207H1052.21V99.7656H1058.5V85.7207H1062.1V99.7656H1068.41V85.7207H1072V99.7656H1074.53V107.324H1070.93V103H1048.6ZM1092 103H1088.4V101.207C1088.35 101.254 1088.27 101.33 1088.15 101.436C1088.05 101.541 1087.83 101.717 1087.49 101.963C1087.16 102.197 1086.8 102.414 1086.41 102.613C1086.03 102.801 1085.54 102.971 1084.96 103.123C1084.37 103.275 1083.78 103.352 1083.18 103.352C1081.42 103.352 1079.96 102.842 1078.8 101.822C1077.64 100.803 1077.06 99.6367 1077.06 98.3242C1077.06 96.9062 1077.51 95.7168 1078.4 94.7559C1079.3 93.7949 1080.53 93.1855 1082.09 92.9277L1088.4 91.8379C1088.4 90.9238 1088.06 90.1562 1087.38 89.5352C1086.71 88.9141 1085.85 88.6035 1084.8 88.6035C1083.88 88.6035 1083.05 88.7969 1082.3 89.1836C1081.56 89.5586 1081.05 89.9395 1080.77 90.3262L1080.3 90.9414L1077.96 88.6035C1078.03 88.5098 1078.12 88.3926 1078.24 88.252C1078.37 88.0996 1078.64 87.8418 1079.07 87.4785C1079.5 87.1035 1079.96 86.7695 1080.44 86.4766C1080.92 86.1836 1081.55 85.9258 1082.34 85.7031C1083.13 85.4688 1083.95 85.3516 1084.8 85.3516C1086.91 85.3516 1088.63 85.9785 1089.98 87.2324C1091.33 88.4746 1092 90.0098 1092 91.8379V103ZM1083.72 100.117C1085.19 100.117 1086.33 99.6836 1087.15 98.8164C1087.98 97.9375 1088.4 96.6895 1088.4 95.0723V94.7207L1082.81 95.6172C1082.17 95.7344 1081.64 95.998 1081.25 96.4082C1080.85 96.8184 1080.65 97.334 1080.65 97.9551C1080.65 98.5293 1080.92 99.0332 1081.47 99.4668C1082.04 99.9004 1082.79 100.117 1083.72 100.117ZM1094.54 99.7656H1095.78C1095.85 99.6953 1095.95 99.584 1096.08 99.4316C1096.22 99.2676 1096.46 98.9102 1096.79 98.3594C1097.12 97.8086 1097.42 97.2168 1097.66 96.584C1097.92 95.9395 1098.15 95.0957 1098.35 94.0527C1098.56 93.0098 1098.67 91.9141 1098.67 90.7656V85.7207H1111.27V99.7656H1113.78V107.324H1110.2V103H1098.14V107.324H1094.54V99.7656ZM1102.27 88.9551V90.7656C1102.27 91.9141 1102.17 93.0039 1101.97 94.0352C1101.78 95.0664 1101.54 95.9219 1101.25 96.6016C1100.97 97.2695 1100.68 97.8496 1100.39 98.3418C1100.11 98.834 1099.87 99.1855 1099.69 99.3965L1099.39 99.7656H1107.67V88.9551H1102.27ZM1129.13 98.4473C1130.2 97.334 1130.73 95.9746 1130.73 94.3691C1130.73 92.752 1130.2 91.3867 1129.13 90.2734C1128.06 89.1602 1126.8 88.6035 1125.33 88.6035C1123.87 88.6035 1122.6 89.1602 1121.52 90.2734C1120.45 91.3867 1119.92 92.752 1119.92 94.3691C1119.92 95.9746 1120.45 97.334 1121.52 98.4473C1122.6 99.5605 1123.87 100.117 1125.33 100.117C1126.8 100.117 1128.06 99.5605 1129.13 98.4473ZM1119 100.68C1117.22 98.8867 1116.33 96.7832 1116.33 94.3691C1116.33 91.9434 1117.22 89.834 1119 88.041C1120.8 86.248 1122.91 85.3516 1125.33 85.3516C1127.76 85.3516 1129.86 86.248 1131.64 88.041C1133.44 89.834 1134.33 91.9434 1134.33 94.3691C1134.33 96.7832 1133.44 98.8867 1131.64 100.68C1129.86 102.461 1127.76 103.352 1125.33 103.352C1122.91 103.352 1120.8 102.461 1119 100.68ZM1153.6 85.7207L1146.94 92.9277L1154.12 103H1150.17L1144.6 95.2656L1141.89 98.1484V103H1138.29V85.7207H1141.89V93.4551L1149.27 85.7207H1153.6Z" fill="black"/>
<circle cx="1275" cy="90" r="68" stroke="black" stroke-width="4"/>
<circle cx="1271" cy="84" r="32" stroke="black" stroke-width="4"/>
<path d="M1288 111.5L1307 130.5" stroke="black" stroke-width="4"/>
<rect x="778.5" y="0.5" width="586" height="179" rx="89.5" stroke="black"/>
<path d="M1476.51 61.3516C1475.87 61.3516 1475.24 61.2754 1474.63 61.123C1474.02 60.9707 1473.5 60.7832 1473.07 60.5605C1472.63 60.3262 1472.25 60.0918 1471.91 59.8574C1471.58 59.6113 1471.34 59.418 1471.19 59.2773L1470.94 59.0137V68.5586H1467.34V43.7207H1470.94V45.707C1471.11 45.543 1471.33 45.3262 1471.63 45.0566C1471.93 44.7871 1472.57 44.4355 1473.54 44.002C1474.52 43.5684 1475.51 43.3516 1476.51 43.3516C1478.8 43.3516 1480.78 44.2305 1482.46 45.9883C1484.14 47.7344 1484.99 49.8555 1484.99 52.3516C1484.99 54.8477 1484.14 56.9746 1482.46 58.7324C1480.78 60.4785 1478.8 61.3516 1476.51 61.3516ZM1479.8 48.291C1478.75 47.166 1477.53 46.6035 1476.16 46.6035C1474.79 46.6035 1473.58 47.166 1472.52 48.291C1471.47 49.416 1470.94 50.7754 1470.94 52.3691C1470.94 53.9512 1471.47 55.3047 1472.52 56.4297C1473.58 57.5547 1474.79 58.1172 1476.16 58.1172C1477.53 58.1172 1478.75 57.5547 1479.8 56.4297C1480.86 55.3047 1481.38 53.9512 1481.38 52.3691C1481.38 50.7754 1480.86 49.416 1479.8 48.291ZM1502.79 61H1499.19V59.207C1499.14 59.2539 1499.06 59.3301 1498.94 59.4355C1498.84 59.541 1498.62 59.7168 1498.28 59.9629C1497.95 60.1973 1497.59 60.4141 1497.2 60.6133C1496.82 60.8008 1496.33 60.9707 1495.74 61.123C1495.16 61.2754 1494.57 61.3516 1493.97 61.3516C1492.21 61.3516 1490.75 60.8418 1489.59 59.8223C1488.43 58.8027 1487.85 57.6367 1487.85 56.3242C1487.85 54.9062 1488.3 53.7168 1489.19 52.7559C1490.09 51.7949 1491.32 51.1855 1492.88 50.9277L1499.19 49.8379C1499.19 48.9238 1498.85 48.1562 1498.17 47.5352C1497.5 46.9141 1496.64 46.6035 1495.59 46.6035C1494.67 46.6035 1493.84 46.7969 1493.09 47.1836C1492.35 47.5586 1491.84 47.9395 1491.56 48.3262L1491.09 48.9414L1488.75 46.6035C1488.82 46.5098 1488.91 46.3926 1489.03 46.252C1489.16 46.0996 1489.43 45.8418 1489.86 45.4785C1490.29 45.1035 1490.75 44.7695 1491.23 44.4766C1491.71 44.1836 1492.34 43.9258 1493.12 43.7031C1493.92 43.4688 1494.74 43.3516 1495.59 43.3516C1497.7 43.3516 1499.42 43.9785 1500.77 45.2324C1502.12 46.4746 1502.79 48.0098 1502.79 49.8379V61ZM1494.51 58.1172C1495.98 58.1172 1497.12 57.6836 1497.94 56.8164C1498.77 55.9375 1499.19 54.6895 1499.19 53.0723V52.7207L1493.6 53.6172C1492.96 53.7344 1492.43 53.998 1492.04 54.4082C1491.64 54.8184 1491.44 55.334 1491.44 55.9551C1491.44 56.5293 1491.71 57.0332 1492.26 57.4668C1492.83 57.9004 1493.58 58.1172 1494.51 58.1172ZM1519.35 48.2207C1519.35 49.0176 1519.13 49.7148 1518.68 50.3125C1518.25 50.9102 1517.8 51.3027 1517.35 51.4902L1516.66 51.8242C1516.76 51.8477 1516.88 51.8887 1517.03 51.9473C1517.2 52.0059 1517.46 52.1465 1517.84 52.3691C1518.23 52.5801 1518.57 52.8379 1518.86 53.1426C1519.16 53.4355 1519.44 53.8457 1519.69 54.373C1519.94 54.9004 1520.07 55.4922 1520.07 56.1484C1520.07 57.5898 1519.43 58.8203 1518.14 59.8398C1516.86 60.8477 1515.11 61.3516 1512.88 61.3516C1512.04 61.3516 1511.22 61.2461 1510.44 61.0352C1509.67 60.8242 1509.02 60.5723 1508.51 60.2793C1507.99 59.9863 1507.54 59.6934 1507.15 59.4004C1506.77 59.0957 1506.48 58.8379 1506.29 58.627L1506.04 58.293L1508.38 55.9551C1508.52 56.1191 1508.71 56.3242 1508.95 56.5703C1509.19 56.8164 1509.71 57.1387 1510.49 57.5371C1511.29 57.9238 1512.09 58.1172 1512.88 58.1172C1514.08 58.1172 1514.97 57.8945 1515.57 57.4492C1516.18 57.0039 1516.49 56.4473 1516.49 55.7793C1516.49 55.1113 1516.18 54.5547 1515.57 54.1094C1514.97 53.6641 1514.08 53.4414 1512.88 53.4414H1510.9V50.5586H1512.88C1513.82 50.5586 1514.54 50.377 1515.03 50.0137C1515.52 49.6387 1515.77 49.1641 1515.77 48.5898C1515.77 48.0039 1515.52 47.5293 1515.03 47.166C1514.54 46.791 1513.82 46.6035 1512.88 46.6035C1512.19 46.6035 1511.51 46.7383 1510.84 47.0078C1510.19 47.2656 1509.7 47.5352 1509.38 47.8164L1508.93 48.2207L1506.57 45.8828C1506.74 45.6953 1506.98 45.4609 1507.29 45.1797C1507.61 44.8984 1508.31 44.5234 1509.4 44.0547C1510.49 43.5859 1511.65 43.3516 1512.88 43.3516C1514.88 43.3516 1516.45 43.832 1517.61 44.793C1518.77 45.7539 1519.35 46.8965 1519.35 48.2207ZM1533.22 61.3516C1532.58 61.3516 1531.95 61.2754 1531.34 61.123C1530.73 60.9707 1530.21 60.7832 1529.78 60.5605C1529.34 60.3262 1528.96 60.0918 1528.62 59.8574C1528.29 59.6113 1528.05 59.418 1527.89 59.2773L1527.65 59.0137V68.5586H1524.04V43.7207H1527.65V45.707C1527.81 45.543 1528.04 45.3262 1528.33 45.0566C1528.64 44.7871 1529.28 44.4355 1530.25 44.002C1531.22 43.5684 1532.21 43.3516 1533.22 43.3516C1535.51 43.3516 1537.49 44.2305 1539.16 45.9883C1540.85 47.7344 1541.69 49.8555 1541.69 52.3516C1541.69 54.8477 1540.85 56.9746 1539.16 58.7324C1537.49 60.4785 1535.51 61.3516 1533.22 61.3516ZM1536.51 48.291C1535.45 47.166 1534.24 46.6035 1532.87 46.6035C1531.5 46.6035 1530.29 47.166 1529.23 48.291C1528.18 49.416 1527.65 50.7754 1527.65 52.3691C1527.65 53.9512 1528.18 55.3047 1529.23 56.4297C1530.29 57.5547 1531.5 58.1172 1532.87 58.1172C1534.24 58.1172 1535.45 57.5547 1536.51 56.4297C1537.56 55.3047 1538.09 53.9512 1538.09 52.3691C1538.09 50.7754 1537.56 49.416 1536.51 48.291ZM1559.5 61H1555.9V59.207C1555.85 59.2539 1555.77 59.3301 1555.65 59.4355C1555.54 59.541 1555.32 59.7168 1554.98 59.9629C1554.65 60.1973 1554.3 60.4141 1553.91 60.6133C1553.52 60.8008 1553.04 60.9707 1552.45 61.123C1551.87 61.2754 1551.27 61.3516 1550.68 61.3516C1548.92 61.3516 1547.46 60.8418 1546.3 59.8223C1545.14 58.8027 1544.56 57.6367 1544.56 56.3242C1544.56 54.9062 1545 53.7168 1545.89 52.7559C1546.8 51.7949 1548.03 51.1855 1549.59 50.9277L1555.9 49.8379C1555.9 48.9238 1555.56 48.1562 1554.88 47.5352C1554.21 46.9141 1553.35 46.6035 1552.29 46.6035C1551.38 46.6035 1550.55 46.7969 1549.8 47.1836C1549.06 47.5586 1548.55 47.9395 1548.27 48.3262L1547.79 48.9414L1545.46 46.6035C1545.53 46.5098 1545.62 46.3926 1545.74 46.252C1545.87 46.0996 1546.14 45.8418 1546.56 45.4785C1547 45.1035 1547.45 44.7695 1547.93 44.4766C1548.41 44.1836 1549.05 43.9258 1549.83 43.7031C1550.63 43.4688 1551.45 43.3516 1552.29 43.3516C1554.4 43.3516 1556.13 43.9785 1557.48 45.2324C1558.83 46.4746 1559.5 48.0098 1559.5 49.8379V61ZM1551.22 58.1172C1552.69 58.1172 1553.83 57.6836 1554.65 56.8164C1555.48 55.9375 1555.9 54.6895 1555.9 53.0723V52.7207L1550.31 53.6172C1549.66 53.7344 1549.14 53.998 1548.74 54.4082C1548.34 54.8184 1548.14 55.334 1548.14 55.9551C1548.14 56.5293 1548.42 57.0332 1548.97 57.4668C1549.53 57.9004 1550.28 58.1172 1551.22 58.1172ZM1581.82 52.5449C1581.82 54.9707 1580.97 57.0449 1579.26 58.7676C1577.56 60.4902 1575.54 61.3516 1573.19 61.3516C1570.49 61.3516 1568.31 60.3848 1566.65 58.4512C1565.01 56.5059 1564.19 53.6934 1564.19 50.0137C1564.19 45.8184 1564.97 42.6719 1566.53 40.5742C1568.09 38.4766 1570.31 37.1875 1573.19 36.707C1574.47 36.4961 1575.61 36.2266 1576.62 35.8984C1577.64 35.5703 1578.34 35.2949 1578.73 35.0723L1579.31 34.7207L1580.93 37.4277C1580.86 37.5215 1580.71 37.6562 1580.49 37.832C1580.28 38.0078 1579.54 38.3242 1578.29 38.7812C1577.05 39.2383 1575.47 39.625 1573.54 39.9414C1571.89 40.2109 1570.56 40.8965 1569.55 41.998C1568.55 43.0996 1567.96 44.5762 1567.78 46.4277C1567.83 46.3574 1567.91 46.2637 1568.03 46.1465C1568.15 46.0176 1568.41 45.8008 1568.78 45.4961C1569.16 45.1797 1569.55 44.9043 1569.96 44.6699C1570.38 44.4238 1570.91 44.207 1571.56 44.0195C1572.21 43.8203 1572.88 43.7207 1573.54 43.7207C1575.72 43.7207 1577.65 44.5938 1579.31 46.3398C1580.99 48.0742 1581.82 50.1426 1581.82 52.5449ZM1569.64 48.5723C1568.65 49.6387 1568.15 50.9629 1568.15 52.5449C1568.15 54.127 1568.65 55.4512 1569.64 56.5176C1570.64 57.584 1571.82 58.1172 1573.18 58.1172C1574.55 58.1172 1575.73 57.584 1576.73 56.5176C1577.72 55.4512 1578.22 54.127 1578.22 52.5449C1578.22 50.9629 1577.72 49.6387 1576.73 48.5723C1575.73 47.4941 1574.55 46.9551 1573.18 46.9551C1571.82 46.9551 1570.64 47.4941 1569.64 48.5723ZM1597.86 56.4473C1598.92 55.334 1599.46 53.9746 1599.46 52.3691C1599.46 50.752 1598.92 49.3867 1597.86 48.2734C1596.79 47.1602 1595.52 46.6035 1594.06 46.6035C1592.59 46.6035 1591.32 47.1602 1590.24 48.2734C1589.18 49.3867 1588.64 50.752 1588.64 52.3691C1588.64 53.9746 1589.18 55.334 1590.24 56.4473C1591.32 57.5605 1592.59 58.1172 1594.06 58.1172C1595.52 58.1172 1596.79 57.5605 1597.86 56.4473ZM1587.73 58.6797C1585.95 56.8867 1585.06 54.7832 1585.06 52.3691C1585.06 49.9434 1585.95 47.834 1587.73 46.041C1589.52 44.248 1591.63 43.3516 1594.06 43.3516C1596.48 43.3516 1598.59 44.248 1600.37 46.041C1602.16 47.834 1603.06 49.9434 1603.06 52.3691C1603.06 54.7832 1602.16 56.8867 1600.37 58.6797C1598.59 60.4609 1596.48 61.3516 1594.06 61.3516C1591.63 61.3516 1589.52 60.4609 1587.73 58.6797ZM1605.22 46.9551V43.7207H1620.69V46.9551H1614.75V61H1611.16V46.9551H1605.22ZM1639.23 43.7207L1632.57 50.9277L1639.76 61H1635.81L1630.23 53.2656L1627.53 56.1484V61H1623.92V43.7207H1627.53V51.4551L1634.91 43.7207H1639.23ZM1656.5 61H1652.89V59.207C1652.85 59.2539 1652.76 59.3301 1652.65 59.4355C1652.54 59.541 1652.32 59.7168 1651.98 59.9629C1651.65 60.1973 1651.29 60.4141 1650.91 60.6133C1650.52 60.8008 1650.03 60.9707 1649.45 61.123C1648.86 61.2754 1648.27 61.3516 1647.67 61.3516C1645.91 61.3516 1644.46 60.8418 1643.29 59.8223C1642.13 58.8027 1641.55 57.6367 1641.55 56.3242C1641.55 54.9062 1642 53.7168 1642.89 52.7559C1643.79 51.7949 1645.02 51.1855 1646.58 50.9277L1652.89 49.8379C1652.89 48.9238 1652.55 48.1562 1651.87 47.5352C1651.21 46.9141 1650.34 46.6035 1649.29 46.6035C1648.38 46.6035 1647.54 46.7969 1646.79 47.1836C1646.05 47.5586 1645.54 47.9395 1645.26 48.3262L1644.79 48.9414L1642.45 46.6035C1642.52 46.5098 1642.62 46.3926 1642.73 46.252C1642.86 46.0996 1643.14 45.8418 1643.56 45.4785C1643.99 45.1035 1644.45 44.7695 1644.93 44.4766C1645.41 44.1836 1646.04 43.9258 1646.83 43.7031C1647.62 43.4688 1648.45 43.3516 1649.29 43.3516C1651.4 43.3516 1653.13 43.9785 1654.47 45.2324C1655.82 46.4746 1656.5 48.0098 1656.5 49.8379V61ZM1648.22 58.1172C1649.68 58.1172 1650.82 57.6836 1651.64 56.8164C1652.48 55.9375 1652.89 54.6895 1652.89 53.0723V52.7207L1647.3 53.6172C1646.66 53.7344 1646.14 53.998 1645.74 54.4082C1645.34 54.8184 1645.14 55.334 1645.14 55.9551C1645.14 56.5293 1645.42 57.0332 1645.97 57.4668C1646.53 57.9004 1647.28 58.1172 1648.22 58.1172ZM1482.65 85.7207L1475.99 92.9277L1483.18 103H1479.22L1473.65 95.2656L1470.94 98.1484V103H1467.34V85.7207H1470.94V93.4551L1478.32 85.7207H1482.65ZM1497.03 98.4473C1498.09 97.334 1498.63 95.9746 1498.63 94.3691C1498.63 92.752 1498.09 91.3867 1497.03 90.2734C1495.96 89.1602 1494.7 88.6035 1493.23 88.6035C1491.77 88.6035 1490.49 89.1602 1489.42 90.2734C1488.35 91.3867 1487.82 92.752 1487.82 94.3691C1487.82 95.9746 1488.35 97.334 1489.42 98.4473C1490.49 99.5605 1491.77 100.117 1493.23 100.117C1494.7 100.117 1495.96 99.5605 1497.03 98.4473ZM1486.9 100.68C1485.12 98.8867 1484.23 96.7832 1484.23 94.3691C1484.23 91.9434 1485.12 89.834 1486.9 88.041C1488.7 86.248 1490.8 85.3516 1493.23 85.3516C1495.66 85.3516 1497.76 86.248 1499.54 88.041C1501.33 89.834 1502.23 91.9434 1502.23 94.3691C1502.23 96.7832 1501.33 98.8867 1499.54 100.68C1497.76 102.461 1495.66 103.352 1493.23 103.352C1490.8 103.352 1488.7 102.461 1486.9 100.68ZM1509.79 95.793V103H1506.19V85.7207H1509.79V92.5586H1518.24V85.7207H1521.85V103H1518.24V95.793H1509.79ZM1526.89 103V85.7207H1530.5V99.7656H1538.6V85.7207H1542.2V99.7656H1544.72V107.324H1541.11V103H1526.89ZM1564.32 95.6172H1550.82C1551 96.8359 1551.6 97.8906 1552.61 98.7812C1553.63 99.6719 1554.84 100.117 1556.23 100.117C1557.24 100.117 1558.18 99.8887 1559.04 99.4316C1559.92 98.9746 1560.54 98.5293 1560.91 98.0957L1561.45 97.4277L1563.79 99.7656C1563.72 99.8594 1563.61 99.9941 1563.46 100.17C1563.31 100.334 1563 100.621 1562.52 101.031C1562.04 101.43 1561.53 101.787 1560.99 102.104C1560.46 102.408 1559.75 102.695 1558.88 102.965C1558.03 103.223 1557.14 103.352 1556.23 103.352C1553.78 103.352 1551.67 102.455 1549.88 100.662C1548.12 98.8574 1547.23 96.6953 1547.23 94.1758C1547.23 91.75 1548.09 89.6758 1549.81 87.9531C1551.55 86.2188 1553.62 85.3516 1556.04 85.3516C1558.46 85.3516 1560.48 86.1602 1562.08 87.7773C1563.7 89.3828 1564.51 91.3984 1564.51 93.8242L1564.32 95.6172ZM1556.04 88.4277C1554.74 88.4277 1553.64 88.8145 1552.75 89.5879C1551.87 90.3496 1551.28 91.3398 1550.97 92.5586H1560.98C1560.77 91.3398 1560.22 90.3496 1559.34 89.5879C1558.46 88.8145 1557.36 88.4277 1556.04 88.4277ZM1572.05 88.9551V103H1568.45V85.7207H1584.11V103H1580.51V88.9551H1572.05ZM1589.15 103V85.7207H1592.76V99.7656H1600.86V85.7207H1604.46V99.7656H1606.98V107.324H1603.38V103H1589.15ZM1623.17 85.7207H1626.4V103H1622.8V91.6621L1613.8 103H1610.56V85.7207H1614.17V97.0586L1623.17 85.7207ZM1644.05 85.7207H1647.29V103H1643.68V91.6621L1634.68 103H1631.45V85.7207H1635.05V97.0586L1644.05 85.7207ZM1468.94 142.68C1467.16 140.887 1466.27 138.783 1466.27 136.369C1466.27 133.943 1467.16 131.834 1468.94 130.041C1470.73 128.248 1472.84 127.352 1475.27 127.352C1476.61 127.352 1477.87 127.645 1479.03 128.23C1480.19 128.805 1481.02 129.379 1481.52 129.953L1482.28 130.779L1479.94 133.117C1479.82 132.93 1479.64 132.701 1479.4 132.432C1479.16 132.15 1478.64 131.775 1477.83 131.307C1477.04 130.838 1476.18 130.604 1475.27 130.604C1473.8 130.604 1472.53 131.16 1471.45 132.273C1470.38 133.387 1469.85 134.752 1469.85 136.369C1469.85 137.975 1470.38 139.334 1471.45 140.447C1472.53 141.561 1473.8 142.117 1475.27 142.117C1476.18 142.117 1477.04 141.889 1477.83 141.432C1478.64 140.975 1479.22 140.529 1479.57 140.096L1480.12 139.428L1482.46 141.766C1482.38 141.859 1482.28 141.994 1482.14 142.17C1482 142.334 1481.69 142.621 1481.22 143.031C1480.76 143.43 1480.26 143.787 1479.75 144.104C1479.23 144.408 1478.56 144.695 1477.74 144.965C1476.92 145.223 1476.1 145.352 1475.27 145.352C1472.84 145.352 1470.73 144.461 1468.94 142.68ZM1497.77 140.447C1498.83 139.334 1499.37 137.975 1499.37 136.369C1499.37 134.752 1498.83 133.387 1497.77 132.273C1496.7 131.16 1495.43 130.604 1493.97 130.604C1492.5 130.604 1491.23 131.16 1490.15 132.273C1489.09 133.387 1488.55 134.752 1488.55 136.369C1488.55 137.975 1489.09 139.334 1490.15 140.447C1491.23 141.561 1492.5 142.117 1493.97 142.117C1495.43 142.117 1496.7 141.561 1497.77 140.447ZM1487.64 142.68C1485.86 140.887 1484.97 138.783 1484.97 136.369C1484.97 133.943 1485.86 131.834 1487.64 130.041C1489.43 128.248 1491.54 127.352 1493.97 127.352C1496.39 127.352 1498.5 128.248 1500.28 130.041C1502.07 131.834 1502.97 133.943 1502.97 136.369C1502.97 138.783 1502.07 140.887 1500.28 142.68C1498.5 144.461 1496.39 145.352 1493.97 145.352C1491.54 145.352 1489.43 144.461 1487.64 142.68ZM1518.65 140.447C1519.71 139.334 1520.25 137.975 1520.25 136.369C1520.25 134.752 1519.71 133.387 1518.65 132.273C1517.58 131.16 1516.32 130.604 1514.85 130.604C1513.39 130.604 1512.12 131.16 1511.04 132.273C1509.97 133.387 1509.44 134.752 1509.44 136.369C1509.44 137.975 1509.97 139.334 1511.04 140.447C1512.12 141.561 1513.39 142.117 1514.85 142.117C1516.32 142.117 1517.58 141.561 1518.65 140.447ZM1508.52 142.68C1506.74 140.887 1505.85 138.783 1505.85 136.369C1505.85 133.943 1506.74 131.834 1508.52 130.041C1510.32 128.248 1512.43 127.352 1514.85 127.352C1517.28 127.352 1519.38 128.248 1521.16 130.041C1522.96 131.834 1523.85 133.943 1523.85 136.369C1523.85 138.783 1522.96 140.887 1521.16 142.68C1519.38 144.461 1517.28 145.352 1514.85 145.352C1512.43 145.352 1510.32 144.461 1508.52 142.68ZM1545.09 136.545C1545.09 138.971 1544.23 141.045 1542.52 142.768C1540.82 144.49 1538.8 145.352 1536.46 145.352C1533.75 145.352 1531.57 144.385 1529.92 142.451C1528.28 140.506 1527.46 137.693 1527.46 134.014C1527.46 129.818 1528.23 126.672 1529.79 124.574C1531.35 122.477 1533.57 121.188 1536.46 120.707C1537.73 120.496 1538.88 120.227 1539.88 119.898C1540.9 119.57 1541.61 119.295 1541.99 119.072L1542.57 118.721L1544.19 121.428C1544.12 121.521 1543.97 121.656 1543.75 121.832C1543.54 122.008 1542.81 122.324 1541.55 122.781C1540.31 123.238 1538.73 123.625 1536.81 123.941C1535.15 124.211 1533.82 124.896 1532.82 125.998C1531.81 127.1 1531.22 128.576 1531.04 130.428C1531.09 130.357 1531.17 130.264 1531.29 130.146C1531.42 130.018 1531.67 129.801 1532.04 129.496C1532.42 129.18 1532.81 128.904 1533.22 128.67C1533.64 128.424 1534.18 128.207 1534.82 128.02C1535.48 127.82 1536.14 127.721 1536.81 127.721C1538.99 127.721 1540.91 128.594 1542.57 130.34C1544.25 132.074 1545.09 134.143 1545.09 136.545ZM1532.9 132.572C1531.91 133.639 1531.41 134.963 1531.41 136.545C1531.41 138.127 1531.91 139.451 1532.9 140.518C1533.9 141.584 1535.08 142.117 1536.44 142.117C1537.81 142.117 1538.99 141.584 1539.99 140.518C1540.98 139.451 1541.48 138.127 1541.48 136.545C1541.48 134.963 1540.98 133.639 1539.99 132.572C1538.99 131.494 1537.81 130.955 1536.44 130.955C1535.08 130.955 1533.9 131.494 1532.9 132.572ZM1549.39 145V127.721H1553V141.766H1559.29V127.721H1562.89V141.766H1569.2V127.721H1572.79V141.766H1575.32V149.324H1571.72V145H1549.39ZM1594.94 137.617H1581.44C1581.62 138.836 1582.22 139.891 1583.23 140.781C1584.25 141.672 1585.46 142.117 1586.85 142.117C1587.86 142.117 1588.8 141.889 1589.66 141.432C1590.54 140.975 1591.16 140.529 1591.53 140.096L1592.07 139.428L1594.41 141.766C1594.34 141.859 1594.23 141.994 1594.08 142.17C1593.94 142.334 1593.62 142.621 1593.14 143.031C1592.66 143.43 1592.15 143.787 1591.62 144.104C1591.08 144.408 1590.37 144.695 1589.51 144.965C1588.65 145.223 1587.77 145.352 1586.85 145.352C1584.4 145.352 1582.29 144.455 1580.51 142.662C1578.74 140.857 1577.85 138.695 1577.85 136.176C1577.85 133.75 1578.71 131.676 1580.44 129.953C1582.17 128.219 1584.24 127.352 1586.66 127.352C1589.08 127.352 1591.1 128.16 1592.71 129.777C1594.32 131.383 1595.13 133.398 1595.13 135.824L1594.94 137.617ZM1586.66 130.428C1585.36 130.428 1584.26 130.814 1583.37 131.588C1582.49 132.35 1581.9 133.34 1581.6 134.559H1591.6C1591.39 133.34 1590.84 132.35 1589.96 131.588C1589.08 130.814 1587.98 130.428 1586.66 130.428ZM1602.67 137.793V145H1599.07V127.721H1602.67V134.559H1611.13V127.721H1614.73V145H1611.13V137.793H1602.67ZM1632.38 127.721H1635.61V145H1632.01V133.662L1623.01 145H1619.78V127.721H1623.38V139.059L1632.38 127.721ZM1646.42 127.721H1654.33V145H1650.75V139.604H1646.97L1643.54 145H1639.59L1643.37 139.059C1643.27 139.035 1643.14 138.982 1642.98 138.9C1642.83 138.818 1642.56 138.637 1642.17 138.355C1641.78 138.062 1641.44 137.729 1641.13 137.354C1640.84 136.979 1640.56 136.463 1640.31 135.807C1640.06 135.139 1639.94 134.424 1639.94 133.662C1639.94 131.939 1640.53 130.521 1641.71 129.408C1642.91 128.283 1644.48 127.721 1646.42 127.721ZM1650.75 130.779H1646.42C1645.6 130.779 1644.92 131.055 1644.37 131.605C1643.82 132.156 1643.54 132.842 1643.54 133.662C1643.54 134.482 1643.82 135.168 1644.37 135.719C1644.92 136.27 1645.6 136.545 1646.42 136.545H1650.75V130.779Z" fill="black"/>
<circle cx="1830" cy="90" r="70" fill="#E3966F"/>
<circle cx="1830.5" cy="87.5" r="49.7218" stroke="black" stroke-width="3.55644"/>
<circle cx="1830.5" cy="87.5" r="34.7218" stroke="black" stroke-width="3.55644"/>
<circle cx="1830.5" cy="87.5" r="18.7218" stroke="black" stroke-width="3.55644"/>
<circle cx="1830.5" cy="87.5" r="8.5" fill="black"/>
<rect x="1365.5" y="0.5" width="554" height="179" rx="89.5" stroke="black"/>
</svg>
