<svg width="1920" height="180" viewBox="0 0 1920 180" fill="none" xmlns="http://www.w3.org/2000/svg">
<circle r="89.5" transform="matrix(1 -8.74228e-08 -8.74228e-08 -1 90 90)" stroke="black"/>
<path d="M84.2428 35.2616L138.732 89.7505M138.732 89.7505L84.2428 144.239M138.732 89.7505L29.7539 89.7505" stroke="black" stroke-width="2"/>
<path d="M323.648 85.7207L316.986 92.9277L324.176 103H320.221L314.648 95.2656L311.941 98.1484V103H308.338V85.7207H311.941V93.4551L319.324 85.7207H323.648ZM338.027 98.4473C339.094 97.334 339.627 95.9746 339.627 94.3691C339.627 92.752 339.094 91.3867 338.027 90.2734C336.961 89.1602 335.695 88.6035 334.23 88.6035C332.766 88.6035 331.494 89.1602 330.416 90.2734C329.35 91.3867 328.816 92.752 328.816 94.3691C328.816 95.9746 329.35 97.334 330.416 98.4473C331.494 99.5605 332.766 100.117 334.23 100.117C335.695 100.117 336.961 99.5605 338.027 98.4473ZM327.902 100.68C326.121 98.8867 325.23 96.7832 325.23 94.3691C325.23 91.9434 326.121 89.834 327.902 88.041C329.695 86.248 331.805 85.3516 334.23 85.3516C336.656 85.3516 338.76 86.248 340.541 88.041C342.334 89.834 343.23 91.9434 343.23 94.3691C343.23 96.7832 342.334 98.8867 340.541 100.68C338.76 102.461 336.656 103.352 334.23 103.352C331.805 103.352 329.695 102.461 327.902 100.68ZM350.789 95.793V103H347.186V85.7207H350.789V92.5586H359.244V85.7207H362.848V103H359.244V95.793H350.789ZM366.1 88.9551V85.7207H381.568V88.9551H375.627V103H372.041V88.9551H366.1ZM400.816 95.6172H387.316C387.504 96.8359 388.102 97.8906 389.109 98.7812C390.129 99.6719 391.336 100.117 392.73 100.117C393.738 100.117 394.676 99.8887 395.543 99.4316C396.422 98.9746 397.043 98.5293 397.406 98.0957L397.951 97.4277L400.289 99.7656C400.219 99.8594 400.107 99.9941 399.955 100.17C399.814 100.334 399.504 100.621 399.023 101.031C398.543 101.43 398.033 101.787 397.494 102.104C396.955 102.408 396.252 102.695 395.385 102.965C394.529 103.223 393.645 103.352 392.73 103.352C390.281 103.352 388.166 102.455 386.385 100.662C384.615 98.8574 383.73 96.6953 383.73 94.1758C383.73 91.75 384.592 89.6758 386.314 87.9531C388.049 86.2188 390.123 85.3516 392.537 85.3516C394.963 85.3516 396.979 86.1602 398.584 87.7773C400.201 89.3828 401.01 91.3984 401.01 93.8242L400.816 95.6172ZM392.537 88.4277C391.236 88.4277 390.141 88.8145 389.25 89.5879C388.371 90.3496 387.779 91.3398 387.475 92.5586H397.477C397.266 91.3398 396.721 90.3496 395.842 89.5879C394.963 88.8145 393.861 88.4277 392.537 88.4277ZM408.551 95.793V103H404.947V85.7207H408.551V92.5586H417.006V85.7207H420.609V103H417.006V95.793H408.551ZM423.861 88.9551V85.7207H439.33V88.9551H433.389V103H429.803V88.9551H423.861ZM446.168 95.793V103H442.564V85.7207H446.168V92.5586H454.623V85.7207H458.227V103H454.623V95.793H446.168ZM477.141 103H473.537V101.207C473.49 101.254 473.408 101.33 473.291 101.436C473.186 101.541 472.963 101.717 472.623 101.963C472.295 102.197 471.938 102.414 471.551 102.613C471.164 102.801 470.678 102.971 470.092 103.123C469.506 103.275 468.914 103.352 468.316 103.352C466.559 103.352 465.1 102.842 463.939 101.822C462.779 100.803 462.199 99.6367 462.199 98.3242C462.199 96.9062 462.645 95.7168 463.535 94.7559C464.438 93.7949 465.668 93.1855 467.227 92.9277L473.537 91.8379C473.537 90.9238 473.197 90.1562 472.518 89.5352C471.85 88.9141 470.988 88.6035 469.934 88.6035C469.02 88.6035 468.188 88.7969 467.438 89.1836C466.699 89.5586 466.189 89.9395 465.908 90.3262L465.434 90.9414L463.096 88.6035C463.166 88.5098 463.26 88.3926 463.377 88.252C463.506 88.0996 463.781 87.8418 464.203 87.4785C464.637 87.1035 465.094 86.7695 465.574 86.4766C466.055 86.1836 466.688 85.9258 467.473 85.7031C468.27 85.4688 469.09 85.3516 469.934 85.3516C472.043 85.3516 473.771 85.9785 475.119 87.2324C476.467 88.4746 477.141 90.0098 477.141 91.8379V103ZM468.861 100.117C470.326 100.117 471.469 99.6836 472.289 98.8164C473.121 97.9375 473.537 96.6895 473.537 95.0723V94.7207L467.947 95.6172C467.303 95.7344 466.781 95.998 466.383 96.4082C465.984 96.8184 465.785 97.334 465.785 97.9551C465.785 98.5293 466.061 99.0332 466.611 99.4668C467.174 99.9004 467.924 100.117 468.861 100.117ZM487.951 85.7207H495.861V103H492.275V97.6035H488.496L485.068 103H481.113L484.893 97.0586C484.799 97.0352 484.67 96.9824 484.506 96.9004C484.354 96.8184 484.084 96.6367 483.697 96.3555C483.311 96.0625 482.965 95.7285 482.66 95.3535C482.367 94.9785 482.092 94.4629 481.834 93.8066C481.588 93.1387 481.465 92.4238 481.465 91.6621C481.465 89.9395 482.057 88.5215 483.24 87.4082C484.436 86.2832 486.006 85.7207 487.951 85.7207ZM492.275 88.7793H487.951C487.131 88.7793 486.445 89.0547 485.895 89.6055C485.344 90.1562 485.068 90.8418 485.068 91.6621C485.068 92.4824 485.344 93.168 485.895 93.7188C486.445 94.2695 487.131 94.5449 487.951 94.5449H492.275V88.7793ZM509.695 100.68C507.914 98.8867 507.023 96.7832 507.023 94.3691C507.023 91.9434 507.914 89.834 509.695 88.041C511.488 86.248 513.598 85.3516 516.023 85.3516C517.371 85.3516 518.625 85.6445 519.785 86.2305C520.945 86.8047 521.777 87.3789 522.281 87.9531L523.037 88.7793L520.699 91.1172C520.582 90.9297 520.4 90.7012 520.154 90.4316C519.92 90.1504 519.398 89.7754 518.59 89.3066C517.793 88.8379 516.938 88.6035 516.023 88.6035C514.559 88.6035 513.287 89.1602 512.209 90.2734C511.143 91.3867 510.609 92.752 510.609 94.3691C510.609 95.9746 511.143 97.334 512.209 98.4473C513.287 99.5605 514.559 100.117 516.023 100.117C516.938 100.117 517.793 99.8887 518.59 99.4316C519.398 98.9746 519.979 98.5293 520.33 98.0957L520.875 97.4277L523.213 99.7656C523.143 99.8594 523.037 99.9941 522.896 100.17C522.756 100.334 522.451 100.621 521.982 101.031C521.514 101.43 521.021 101.787 520.506 102.104C519.99 102.408 519.322 102.695 518.502 102.965C517.682 103.223 516.855 103.352 516.023 103.352C513.598 103.352 511.488 102.461 509.695 100.68ZM525.006 88.9551V85.7207H540.475V88.9551H534.533V103H530.947V88.9551H525.006ZM552.885 103.352C552.24 103.352 551.613 103.275 551.004 103.123C550.395 102.971 549.873 102.783 549.439 102.561C549.006 102.326 548.619 102.092 548.279 101.857C547.951 101.611 547.711 101.418 547.559 101.277L547.312 101.014V110.559H543.709V85.7207H547.312V87.707C547.477 87.543 547.705 87.3262 547.998 87.0566C548.303 86.7871 548.941 86.4355 549.914 86.002C550.887 85.5684 551.877 85.3516 552.885 85.3516C555.17 85.3516 557.15 86.2305 558.826 87.9883C560.514 89.7344 561.357 91.8555 561.357 94.3516C561.357 96.8477 560.514 98.9746 558.826 100.732C557.15 102.479 555.17 103.352 552.885 103.352ZM556.172 90.291C555.117 89.166 553.904 88.6035 552.533 88.6035C551.162 88.6035 549.949 89.166 548.895 90.291C547.84 91.416 547.312 92.7754 547.312 94.3691C547.312 95.9512 547.84 97.3047 548.895 98.4297C549.949 99.5547 551.162 100.117 552.533 100.117C553.904 100.117 555.117 99.5547 556.172 98.4297C557.227 97.3047 557.754 95.9512 557.754 94.3691C557.754 92.7754 557.227 91.416 556.172 90.291ZM579.164 103H575.561V101.207C575.514 101.254 575.432 101.33 575.314 101.436C575.209 101.541 574.986 101.717 574.646 101.963C574.318 102.197 573.961 102.414 573.574 102.613C573.188 102.801 572.701 102.971 572.115 103.123C571.529 103.275 570.938 103.352 570.34 103.352C568.582 103.352 567.123 102.842 565.963 101.822C564.803 100.803 564.223 99.6367 564.223 98.3242C564.223 96.9062 564.668 95.7168 565.559 94.7559C566.461 93.7949 567.691 93.1855 569.25 92.9277L575.561 91.8379C575.561 90.9238 575.221 90.1562 574.541 89.5352C573.873 88.9141 573.012 88.6035 571.957 88.6035C571.043 88.6035 570.211 88.7969 569.461 89.1836C568.723 89.5586 568.213 89.9395 567.932 90.3262L567.457 90.9414L565.119 88.6035C565.189 88.5098 565.283 88.3926 565.4 88.252C565.529 88.0996 565.805 87.8418 566.227 87.4785C566.66 87.1035 567.117 86.7695 567.598 86.4766C568.078 86.1836 568.711 85.9258 569.496 85.7031C570.293 85.4688 571.113 85.3516 571.957 85.3516C574.066 85.3516 575.795 85.9785 577.143 87.2324C578.49 88.4746 579.164 90.0098 579.164 91.8379V103ZM570.885 100.117C572.35 100.117 573.492 99.6836 574.312 98.8164C575.145 97.9375 575.561 96.6895 575.561 95.0723V94.7207L569.971 95.6172C569.326 95.7344 568.805 95.998 568.406 96.4082C568.008 96.8184 567.809 97.334 567.809 97.9551C567.809 98.5293 568.084 99.0332 568.635 99.4668C569.197 99.9004 569.947 100.117 570.885 100.117ZM582.416 88.9551V85.7207H597.885V88.9551H591.943V103H588.357V88.9551H582.416ZM617.133 95.6172H603.633C603.82 96.8359 604.418 97.8906 605.426 98.7812C606.445 99.6719 607.652 100.117 609.047 100.117C610.055 100.117 610.992 99.8887 611.859 99.4316C612.738 98.9746 613.359 98.5293 613.723 98.0957L614.268 97.4277L616.605 99.7656C616.535 99.8594 616.424 99.9941 616.271 100.17C616.131 100.334 615.82 100.621 615.34 101.031C614.859 101.43 614.35 101.787 613.811 102.104C613.271 102.408 612.568 102.695 611.701 102.965C610.846 103.223 609.961 103.352 609.047 103.352C606.598 103.352 604.482 102.455 602.701 100.662C600.932 98.8574 600.047 96.6953 600.047 94.1758C600.047 91.75 600.908 89.6758 602.631 87.9531C604.365 86.2188 606.439 85.3516 608.854 85.3516C611.279 85.3516 613.295 86.1602 614.9 87.7773C616.518 89.3828 617.326 91.3984 617.326 93.8242L617.133 95.6172ZM608.854 88.4277C607.553 88.4277 606.457 88.8145 605.566 89.5879C604.688 90.3496 604.096 91.3398 603.791 92.5586H613.793C613.582 91.3398 613.037 90.3496 612.158 89.5879C611.279 88.8145 610.178 88.4277 608.854 88.4277ZM633.322 85.7207V88.9551H624.867V103H621.264V85.7207H633.322ZM648.809 85.7207H652.043V103H648.439V91.6621L639.439 103H636.205V85.7207H639.809V97.0586L648.809 85.7207ZM662.854 85.7207H670.764V103H667.178V97.6035H663.398L659.971 103H656.016L659.795 97.0586C659.701 97.0352 659.572 96.9824 659.408 96.9004C659.256 96.8184 658.986 96.6367 658.6 96.3555C658.213 96.0625 657.867 95.7285 657.562 95.3535C657.27 94.9785 656.994 94.4629 656.736 93.8066C656.49 93.1387 656.367 92.4238 656.367 91.6621C656.367 89.9395 656.959 88.5215 658.143 87.4082C659.338 86.2832 660.908 85.7207 662.854 85.7207ZM667.178 88.7793H662.854C662.033 88.7793 661.348 89.0547 660.797 89.6055C660.246 90.1562 659.971 90.8418 659.971 91.6621C659.971 92.4824 660.246 93.168 660.797 93.7188C661.348 94.2695 662.033 94.5449 662.854 94.5449H667.178V88.7793Z" fill="black"/>
<circle cx="870" cy="90" r="70" fill="#CD93AF"/>
<path d="M881.703 49.0239L850.103 89.918L889.138 84.3415L857.538 130.812" stroke="black" stroke-width="4.74193"/>
<rect x="180.5" y="0.5" width="779" height="179" rx="89.5" stroke="black"/>
<path d="M1177.34 64.7207H1185.62C1187.27 64.7207 1188.58 65.1484 1189.55 66.0039C1190.53 66.8477 1191.01 67.9199 1191.01 69.2207C1191.01 69.959 1190.85 70.6328 1190.52 71.2422C1190.21 71.8398 1189.88 72.2559 1189.54 72.4902L1189.04 72.8242C1189.12 72.8477 1189.21 72.8887 1189.34 72.9473C1189.47 73.0059 1189.71 73.1582 1190.05 73.4043C1190.39 73.6387 1190.68 73.9023 1190.93 74.1953C1191.18 74.4766 1191.41 74.8633 1191.61 75.3555C1191.82 75.8477 1191.93 76.3809 1191.93 76.9551C1191.93 78.4434 1191.39 79.6562 1190.33 80.5938C1189.27 81.5312 1187.83 82 1185.99 82H1177.34V64.7207ZM1185.99 74.2656H1180.94V78.9414H1185.99C1186.7 78.9414 1187.27 78.7305 1187.69 78.3086C1188.11 77.8867 1188.32 77.3184 1188.32 76.6035C1188.32 75.959 1188.11 75.4082 1187.67 74.9512C1187.24 74.4941 1186.68 74.2656 1185.99 74.2656ZM1186.94 70.9082C1187.26 70.5801 1187.43 70.1406 1187.43 69.5898C1187.43 69.0273 1187.26 68.5879 1186.94 68.2715C1186.61 67.9434 1186.17 67.7793 1185.62 67.7793H1180.94V71.3828H1185.62C1186.17 71.3828 1186.61 71.2246 1186.94 70.9082ZM1208.47 64.7207H1211.7V82H1208.1V70.6621L1199.1 82H1195.87V64.7207H1199.47V76.0586L1208.47 64.7207ZM1228.26 69.2207C1228.26 70.0176 1228.04 70.7148 1227.59 71.3125C1227.16 71.9102 1226.71 72.3027 1226.26 72.4902L1225.57 72.8242C1225.67 72.8477 1225.79 72.8887 1225.94 72.9473C1226.11 73.0059 1226.38 73.1465 1226.75 73.3691C1227.14 73.5801 1227.48 73.8379 1227.77 74.1426C1228.07 74.4355 1228.35 74.8457 1228.6 75.373C1228.85 75.9004 1228.98 76.4922 1228.98 77.1484C1228.98 78.5898 1228.34 79.8203 1227.05 80.8398C1225.77 81.8477 1224.02 82.3516 1221.79 82.3516C1220.95 82.3516 1220.13 82.2461 1219.35 82.0352C1218.58 81.8242 1217.93 81.5723 1217.42 81.2793C1216.9 80.9863 1216.45 80.6934 1216.06 80.4004C1215.68 80.0957 1215.39 79.8379 1215.2 79.627L1214.96 79.293L1217.29 76.9551C1217.43 77.1191 1217.62 77.3242 1217.86 77.5703C1218.1 77.8164 1218.62 78.1387 1219.4 78.5371C1220.2 78.9238 1221 79.1172 1221.79 79.1172C1222.99 79.1172 1223.88 78.8945 1224.48 78.4492C1225.09 78.0039 1225.4 77.4473 1225.4 76.7793C1225.4 76.1113 1225.09 75.5547 1224.48 75.1094C1223.88 74.6641 1222.99 74.4414 1221.79 74.4414H1219.81V71.5586H1221.79C1222.73 71.5586 1223.45 71.377 1223.94 71.0137C1224.43 70.6387 1224.68 70.1641 1224.68 69.5898C1224.68 69.0039 1224.43 68.5293 1223.94 68.166C1223.45 67.791 1222.73 67.6035 1221.79 67.6035C1221.1 67.6035 1220.42 67.7383 1219.75 68.0078C1219.1 68.2656 1218.61 68.5352 1218.29 68.8164L1217.84 69.2207L1215.48 66.8828C1215.65 66.6953 1215.89 66.4609 1216.2 66.1797C1216.52 65.8984 1217.22 65.5234 1218.31 65.0547C1219.4 64.5859 1220.56 64.3516 1221.79 64.3516C1223.79 64.3516 1225.36 64.832 1226.52 65.793C1227.68 66.7539 1228.26 67.8965 1228.26 69.2207ZM1237.1 83.793L1237.82 82L1230.79 64.7207H1234.57L1239.62 77.3242L1244.66 64.7207H1248.44L1240.69 83.793C1239.8 85.9258 1238.91 87.4199 1238.04 88.2754C1237.17 89.1309 1236.08 89.5586 1234.77 89.5586C1234.29 89.5586 1233.83 89.5293 1233.41 89.4707C1232.99 89.4121 1232.68 89.3477 1232.48 89.2773L1232.23 89.207V85.9551C1232.83 86.1895 1233.44 86.3125 1234.04 86.3242C1235.42 86.3125 1236.44 85.4688 1237.1 83.793ZM1265.18 82H1261.57V80.207C1261.53 80.2539 1261.44 80.3301 1261.33 80.4355C1261.22 80.541 1261 80.7168 1260.66 80.9629C1260.33 81.1973 1259.97 81.4141 1259.59 81.6133C1259.2 81.8008 1258.71 81.9707 1258.13 82.123C1257.54 82.2754 1256.95 82.3516 1256.35 82.3516C1254.59 82.3516 1253.13 81.8418 1251.97 80.8223C1250.81 79.8027 1250.23 78.6367 1250.23 77.3242C1250.23 75.9062 1250.68 74.7168 1251.57 73.7559C1252.47 72.7949 1253.7 72.1855 1255.26 71.9277L1261.57 70.8379C1261.57 69.9238 1261.23 69.1562 1260.55 68.5352C1259.88 67.9141 1259.02 67.6035 1257.97 67.6035C1257.05 67.6035 1256.22 67.7969 1255.47 68.1836C1254.73 68.5586 1254.22 68.9395 1253.94 69.3262L1253.47 69.9414L1251.13 67.6035C1251.2 67.5098 1251.29 67.3926 1251.41 67.252C1251.54 67.0996 1251.82 66.8418 1252.24 66.4785C1252.67 66.1035 1253.13 65.7695 1253.61 65.4766C1254.09 65.1836 1254.72 64.9258 1255.51 64.7031C1256.3 64.4688 1257.12 64.3516 1257.97 64.3516C1260.08 64.3516 1261.81 64.9785 1263.15 66.2324C1264.5 67.4746 1265.18 69.0098 1265.18 70.8379V82ZM1256.9 79.1172C1258.36 79.1172 1259.5 78.6836 1260.32 77.8164C1261.16 76.9375 1261.57 75.6895 1261.57 74.0723V73.7207L1255.98 74.6172C1255.34 74.7344 1254.82 74.998 1254.42 75.4082C1254.02 75.8184 1253.82 76.334 1253.82 76.9551C1253.82 77.5293 1254.1 78.0332 1254.65 78.4668C1255.21 78.9004 1255.96 79.1172 1256.9 79.1172ZM1272.21 64.7207H1285.53V82H1281.93V67.9551H1275.81V69.7656C1275.81 73.0586 1275.55 75.6602 1275.02 77.5703C1274.5 79.4688 1273.84 80.7402 1273.02 81.3848C1272.21 82.0293 1271.16 82.3516 1269.87 82.3516C1269.55 82.3516 1269.21 82.3223 1268.85 82.2637C1268.5 82.2051 1268.22 82.1406 1268.02 82.0703L1267.71 82V78.5723C1268.19 78.6895 1268.6 78.7539 1268.96 78.7656C1269.69 78.7656 1270.27 78.5664 1270.7 78.168C1271.13 77.7695 1271.49 76.8906 1271.77 75.5312C1272.06 74.1602 1272.21 72.2383 1272.21 69.7656V64.7207ZM1294.18 78.9414H1298.13C1298.96 78.9414 1299.64 78.666 1300.19 78.1152C1300.74 77.5645 1301.02 76.8789 1301.02 76.0586C1301.02 75.2383 1300.74 74.5527 1300.19 74.002C1299.64 73.4512 1298.96 73.1758 1298.13 73.1758H1294.18V78.9414ZM1302.83 71.8047C1304.02 72.918 1304.62 74.3418 1304.62 76.0762C1304.62 77.7988 1304.02 79.2168 1302.83 80.3301C1301.64 81.4434 1300.08 82 1298.13 82H1290.58V64.7207H1294.18V70.1172H1298.13C1300.08 70.1172 1301.64 70.6797 1302.83 71.8047ZM1312.18 74.793V82H1308.58V64.7207H1312.18V71.5586H1320.63V64.7207H1324.24V82H1320.63V74.793H1312.18ZM1343.15 82H1339.55V80.207C1339.5 80.2539 1339.42 80.3301 1339.3 80.4355C1339.2 80.541 1338.97 80.7168 1338.63 80.9629C1338.31 81.1973 1337.95 81.4141 1337.56 81.6133C1337.18 81.8008 1336.69 81.9707 1336.1 82.123C1335.52 82.2754 1334.93 82.3516 1334.33 82.3516C1332.57 82.3516 1331.11 81.8418 1329.95 80.8223C1328.79 79.8027 1328.21 78.6367 1328.21 77.3242C1328.21 75.9062 1328.66 74.7168 1329.55 73.7559C1330.45 72.7949 1331.68 72.1855 1333.24 71.9277L1339.55 70.8379C1339.55 69.9238 1339.21 69.1562 1338.53 68.5352C1337.86 67.9141 1337 67.6035 1335.95 67.6035C1335.03 67.6035 1334.2 67.7969 1333.45 68.1836C1332.71 68.5586 1332.2 68.9395 1331.92 69.3262L1331.45 69.9414L1329.11 67.6035C1329.18 67.5098 1329.27 67.3926 1329.39 67.252C1329.52 67.0996 1329.79 66.8418 1330.21 66.4785C1330.65 66.1035 1331.11 65.7695 1331.59 65.4766C1332.07 65.1836 1332.7 64.9258 1333.48 64.7031C1334.28 64.4688 1335.1 64.3516 1335.95 64.3516C1338.05 64.3516 1339.78 64.9785 1341.13 66.2324C1342.48 67.4746 1343.15 69.0098 1343.15 70.8379V82ZM1334.87 79.1172C1336.34 79.1172 1337.48 78.6836 1338.3 77.8164C1339.13 76.9375 1339.55 75.6895 1339.55 74.0723V73.7207L1333.96 74.6172C1333.31 74.7344 1332.79 74.998 1332.39 75.4082C1332 75.8184 1331.8 76.334 1331.8 76.9551C1331.8 77.5293 1332.07 78.0332 1332.62 78.4668C1333.19 78.9004 1333.94 79.1172 1334.87 79.1172ZM1353.96 64.7207H1361.87V82H1358.29V76.6035H1354.51L1351.08 82H1347.12L1350.9 76.0586C1350.81 76.0352 1350.68 75.9824 1350.52 75.9004C1350.37 75.8184 1350.1 75.6367 1349.71 75.3555C1349.32 75.0625 1348.98 74.7285 1348.67 74.3535C1348.38 73.9785 1348.1 73.4629 1347.85 72.8066C1347.6 72.1387 1347.48 71.4238 1347.48 70.6621C1347.48 68.9395 1348.07 67.5215 1349.25 66.4082C1350.45 65.2832 1352.02 64.7207 1353.96 64.7207ZM1358.29 67.7793H1353.96C1353.14 67.7793 1352.46 68.0547 1351.91 68.6055C1351.36 69.1562 1351.08 69.8418 1351.08 70.6621C1351.08 71.4824 1351.36 72.168 1351.91 72.7188C1352.46 73.2695 1353.14 73.5449 1353.96 73.5449H1358.29V67.7793ZM1192.65 106.721L1185.99 113.928L1193.18 124H1189.22L1183.65 116.266L1180.94 119.148V124H1177.34V106.721H1180.94V114.455L1188.32 106.721H1192.65ZM1207.03 119.447C1208.09 118.334 1208.63 116.975 1208.63 115.369C1208.63 113.752 1208.09 112.387 1207.03 111.273C1205.96 110.16 1204.7 109.604 1203.23 109.604C1201.77 109.604 1200.49 110.16 1199.42 111.273C1198.35 112.387 1197.82 113.752 1197.82 115.369C1197.82 116.975 1198.35 118.334 1199.42 119.447C1200.49 120.561 1201.77 121.117 1203.23 121.117C1204.7 121.117 1205.96 120.561 1207.03 119.447ZM1196.9 121.68C1195.12 119.887 1194.23 117.783 1194.23 115.369C1194.23 112.943 1195.12 110.834 1196.9 109.041C1198.7 107.248 1200.8 106.352 1203.23 106.352C1205.66 106.352 1207.76 107.248 1209.54 109.041C1211.33 110.834 1212.23 112.943 1212.23 115.369C1212.23 117.783 1211.33 119.887 1209.54 121.68C1207.76 123.461 1205.66 124.352 1203.23 124.352C1200.8 124.352 1198.7 123.461 1196.9 121.68ZM1219.79 116.793V124H1216.19V106.721H1219.79V113.559H1228.24V106.721H1231.85V124H1228.24V116.793H1219.79ZM1236.89 124V106.721H1240.5V120.766H1248.6V106.721H1252.2V120.766H1254.72V128.324H1251.11V124H1236.89ZM1274.32 116.617H1260.82C1261 117.836 1261.6 118.891 1262.61 119.781C1263.63 120.672 1264.84 121.117 1266.23 121.117C1267.24 121.117 1268.18 120.889 1269.04 120.432C1269.92 119.975 1270.54 119.529 1270.91 119.096L1271.45 118.428L1273.79 120.766C1273.72 120.859 1273.61 120.994 1273.46 121.17C1273.31 121.334 1273 121.621 1272.52 122.031C1272.04 122.43 1271.53 122.787 1270.99 123.104C1270.46 123.408 1269.75 123.695 1268.88 123.965C1268.03 124.223 1267.14 124.352 1266.23 124.352C1263.78 124.352 1261.67 123.455 1259.88 121.662C1258.12 119.857 1257.23 117.695 1257.23 115.176C1257.23 112.75 1258.09 110.676 1259.81 108.953C1261.55 107.219 1263.62 106.352 1266.04 106.352C1268.46 106.352 1270.48 107.16 1272.08 108.777C1273.7 110.383 1274.51 112.398 1274.51 114.824L1274.32 116.617ZM1266.04 109.428C1264.74 109.428 1263.64 109.814 1262.75 110.588C1261.87 111.35 1261.28 112.34 1260.97 113.559H1270.98C1270.77 112.34 1270.22 111.35 1269.34 110.588C1268.46 109.814 1267.36 109.428 1266.04 109.428ZM1282.05 109.955V124H1278.45V106.721H1294.11V124H1290.51V109.955H1282.05ZM1299.15 124V106.721H1302.76V120.766H1310.86V106.721H1314.46V120.766H1316.98V128.324H1313.38V124H1299.15ZM1333.17 106.721H1336.4V124H1332.8V112.662L1323.8 124H1320.56V106.721H1324.17V118.059L1333.17 106.721ZM1347.21 106.721H1355.12V124H1351.54V118.604H1347.76L1344.33 124H1340.38L1344.15 118.059C1344.06 118.035 1343.93 117.982 1343.77 117.9C1343.62 117.818 1343.35 117.637 1342.96 117.355C1342.57 117.062 1342.23 116.729 1341.92 116.354C1341.63 115.979 1341.35 115.463 1341.1 114.807C1340.85 114.139 1340.73 113.424 1340.73 112.662C1340.73 110.939 1341.32 109.521 1342.5 108.408C1343.7 107.283 1345.27 106.721 1347.21 106.721ZM1351.54 109.779H1347.21C1346.39 109.779 1345.71 110.055 1345.16 110.605C1344.61 111.156 1344.33 111.842 1344.33 112.662C1344.33 113.482 1344.61 114.168 1345.16 114.719C1345.71 115.27 1346.39 115.545 1347.21 115.545H1351.54V109.779Z" fill="black"/>
<circle cx="1650" cy="90" r="68" stroke="black" stroke-width="4"/>
<circle cx="1650.5" cy="87.5" r="49.7218" stroke="black" stroke-width="3.55644"/>
<circle cx="1650.5" cy="87.5" r="34.7218" stroke="black" stroke-width="3.55644"/>
<circle cx="1650.5" cy="87.5" r="18.7218" stroke="black" stroke-width="3.55644"/>
<circle cx="1650.5" cy="87.5" r="8.5" fill="black"/>
<rect x="960.5" y="0.5" width="779" height="179" rx="89.5" stroke="black"/>
<circle cx="1830" cy="90" r="89.5" stroke="black"/>
<path d="M1824.24 144.738L1878.73 90.2495M1878.73 90.2495L1824.24 35.7606M1878.73 90.2495L1769.75 90.2495" stroke="black" stroke-width="2"/>
</svg>
