<svg width="1920" height="180" viewBox="0 0 1920 180" fill="none" xmlns="http://www.w3.org/2000/svg">
<path d="M155.617 94.5449C155.617 96.9707 154.762 99.0449 153.051 100.768C151.352 102.49 149.33 103.352 146.986 103.352C144.279 103.352 142.1 102.385 140.447 100.451C138.807 98.5059 137.986 95.6934 137.986 92.0137C137.986 87.8184 138.766 84.6719 140.324 82.5742C141.883 80.4766 144.104 79.1875 146.986 78.707C148.264 78.4961 149.406 78.2266 150.414 77.8984C151.434 77.5703 152.137 77.2949 152.523 77.0723L153.104 76.7207L154.721 79.4277C154.65 79.5215 154.504 79.6562 154.281 79.832C154.07 80.0078 153.338 80.3242 152.084 80.7812C150.842 81.2383 149.26 81.625 147.338 81.9414C145.686 82.2109 144.355 82.8965 143.348 83.998C142.34 85.0996 141.748 86.5762 141.572 88.4277C141.619 88.3574 141.701 88.2637 141.818 88.1465C141.947 88.0176 142.199 87.8008 142.574 87.4961C142.949 87.1797 143.342 86.9043 143.752 86.6699C144.174 86.4238 144.707 86.207 145.352 86.0195C146.008 85.8203 146.67 85.7207 147.338 85.7207C149.518 85.7207 151.439 86.5938 153.104 88.3398C154.779 90.0742 155.617 92.1426 155.617 94.5449ZM143.436 90.5723C142.439 91.6387 141.941 92.9629 141.941 94.5449C141.941 96.127 142.439 97.4512 143.436 98.5176C144.432 99.584 145.609 100.117 146.969 100.117C148.34 100.117 149.523 99.584 150.52 98.5176C151.516 97.4512 152.014 96.127 152.014 94.5449C152.014 92.9629 151.516 91.6387 150.52 90.5723C149.523 89.4941 148.34 88.9551 146.969 88.9551C145.609 88.9551 144.432 89.4941 143.436 90.5723ZM169.1 103.352C168.455 103.352 167.828 103.275 167.219 103.123C166.609 102.971 166.088 102.783 165.654 102.561C165.221 102.326 164.834 102.092 164.494 101.857C164.166 101.611 163.926 101.418 163.773 101.277L163.527 101.014V110.559H159.924V85.7207H163.527V87.707C163.691 87.543 163.92 87.3262 164.213 87.0566C164.518 86.7871 165.156 86.4355 166.129 86.002C167.102 85.5684 168.092 85.3516 169.1 85.3516C171.385 85.3516 173.365 86.2305 175.041 87.9883C176.729 89.7344 177.572 91.8555 177.572 94.3516C177.572 96.8477 176.729 98.9746 175.041 100.732C173.365 102.479 171.385 103.352 169.1 103.352ZM172.387 90.291C171.332 89.166 170.119 88.6035 168.748 88.6035C167.377 88.6035 166.164 89.166 165.109 90.291C164.055 91.416 163.527 92.7754 163.527 94.3691C163.527 95.9512 164.055 97.3047 165.109 98.4297C166.164 99.5547 167.377 100.117 168.748 100.117C170.119 100.117 171.332 99.5547 172.387 98.4297C173.441 97.3047 173.969 95.9512 173.969 94.3691C173.969 92.7754 173.441 91.416 172.387 90.291ZM194.113 85.7207H197.348V103H193.744V91.6621L184.744 103H181.51V85.7207H185.113V97.0586L194.113 85.7207ZM211.393 110.559V103.352C208.393 103.352 205.961 102.496 204.098 100.785C202.246 99.0742 201.32 96.9355 201.32 94.3691C201.32 91.791 202.246 89.6465 204.098 87.9355C205.961 86.2129 208.393 85.3516 211.393 85.3516V77.793H214.996V85.3516C217.996 85.3516 220.422 86.2129 222.273 87.9355C224.137 89.6465 225.068 91.791 225.068 94.3691C225.068 96.9355 224.137 99.0742 222.273 100.785C220.422 102.496 217.996 103.352 214.996 103.352V110.559H211.393ZM211.393 100.117V88.6035C209.354 88.6035 207.76 89.125 206.611 90.168C205.475 91.2109 204.906 92.6113 204.906 94.3691C204.906 96.1152 205.475 97.5098 206.611 98.5527C207.76 99.5957 209.354 100.117 211.393 100.117ZM214.996 88.6035V100.117C217.035 100.117 218.623 99.5957 219.76 98.5527C220.908 97.5098 221.482 96.1152 221.482 94.3691C221.482 92.6113 220.908 91.2109 219.76 90.168C218.623 89.125 217.035 88.6035 214.996 88.6035ZM241.645 85.7207H244.879V103H241.275V91.6621L232.275 103H229.041V85.7207H232.645V97.0586L241.645 85.7207ZM253.527 95.793V103H249.924V85.7207H253.527V92.5586H261.982V85.7207H265.586V103H261.982V95.793H253.527ZM282.689 85.7207V88.9551H274.234V103H270.631V85.7207H282.689Z" fill="black"/>
<circle cx="490" cy="90" r="70" fill="#F1C376"/>
<path d="M538.223 103C538.223 97.9065 534.093 93.7774 529 93.7774H474C468.907 93.7774 464.777 97.9065 464.777 103V108.054C464.777 113.147 468.907 117.276 474 117.276H523.001C524.912 117.276 526.798 117.705 528.521 118.53L538.223 123.178V119.054V103Z" stroke="black" stroke-width="3.55484"/>
<path d="M441.777 65C441.777 59.9065 445.907 55.7774 451 55.7774H506C511.093 55.7774 515.223 59.9065 515.223 65V70.0538C515.223 75.1473 511.093 79.2763 506 79.2763H456.999C455.088 79.2763 453.202 79.7049 451.479 80.5304L441.777 85.1777V81.0538V65Z" stroke="black" stroke-width="3.55484"/>
<rect x="0.5" y="0.5" width="579" height="179" rx="89.5" stroke="black"/>
<circle cx="670" cy="90" r="89.5" stroke="black"/>
<path d="M664.243 144.738L718.732 90.2495M718.732 90.2495L664.243 35.7606M718.732 90.2495H609.754" stroke="black" stroke-width="2"/>
<circle cx="850" cy="90" r="68.2218" stroke="black" stroke-width="3.55644"/>
<path d="M810.656 92.6429C809.711 91.5786 808.95 90.6693 808.392 89.9817C808.95 89.294 809.711 88.3847 810.656 87.3205C812.857 84.8422 816.04 81.5402 819.965 78.2438C827.886 71.5929 838.496 65.2455 849.975 65.2455C861.453 65.2455 872.063 71.5929 879.984 78.2438C883.909 81.5402 887.092 84.8422 889.293 87.3205C890.238 88.3847 890.999 89.294 891.558 89.9817C890.999 90.6693 890.238 91.5786 889.293 92.6429C887.092 95.1211 883.909 98.4232 879.984 101.72C872.063 108.37 861.453 114.718 849.975 114.718C838.496 114.718 827.886 108.37 819.965 101.72C816.04 98.4232 812.857 95.1211 810.656 92.6429Z" stroke="black" stroke-width="4.74193"/>
<circle cx="849.103" cy="89.1037" r="17.4885" fill="black"/>
<path d="M1025.44 85.7207H1028.68V103H1025.07V91.6621L1016.07 103H1012.84V85.7207H1016.44V97.0586L1025.44 85.7207ZM1035.32 100.68C1033.54 98.8867 1032.65 96.7832 1032.65 94.3691C1032.65 91.9434 1033.54 89.834 1035.32 88.041C1037.11 86.248 1039.22 85.3516 1041.65 85.3516C1043 85.3516 1044.25 85.6445 1045.41 86.2305C1046.57 86.8047 1047.4 87.3789 1047.91 87.9531L1048.66 88.7793L1046.32 91.1172C1046.21 90.9297 1046.03 90.7012 1045.78 90.4316C1045.54 90.1504 1045.02 89.7754 1044.21 89.3066C1043.42 88.8379 1042.56 88.6035 1041.65 88.6035C1040.18 88.6035 1038.91 89.1602 1037.83 90.2734C1036.77 91.3867 1036.23 92.752 1036.23 94.3691C1036.23 95.9746 1036.77 97.334 1037.83 98.4473C1038.91 99.5605 1040.18 100.117 1041.65 100.117C1042.56 100.117 1043.42 99.8887 1044.21 99.4316C1045.02 98.9746 1045.6 98.5293 1045.96 98.0957L1046.5 97.4277L1048.84 99.7656C1048.77 99.8594 1048.66 99.9941 1048.52 100.17C1048.38 100.334 1048.08 100.621 1047.61 101.031C1047.14 101.43 1046.65 101.787 1046.13 102.104C1045.62 102.408 1044.95 102.695 1044.13 102.965C1043.31 103.223 1042.48 103.352 1041.65 103.352C1039.22 103.352 1037.11 102.461 1035.32 100.68ZM1053.29 100.68C1051.5 98.8867 1050.61 96.7832 1050.61 94.3691C1050.61 91.9434 1051.5 89.834 1053.29 88.041C1055.08 86.248 1057.19 85.3516 1059.61 85.3516C1060.96 85.3516 1062.21 85.6445 1063.38 86.2305C1064.54 86.8047 1065.37 87.3789 1065.87 87.9531L1066.63 88.7793L1064.29 91.1172C1064.17 90.9297 1063.99 90.7012 1063.74 90.4316C1063.51 90.1504 1062.99 89.7754 1062.18 89.3066C1061.38 88.8379 1060.53 88.6035 1059.61 88.6035C1058.15 88.6035 1056.88 89.1602 1055.8 90.2734C1054.73 91.3867 1054.2 92.752 1054.2 94.3691C1054.2 95.9746 1054.73 97.334 1055.8 98.4473C1056.88 99.5605 1058.15 100.117 1059.61 100.117C1060.53 100.117 1061.38 99.8887 1062.18 99.4316C1062.99 98.9746 1063.57 98.5293 1063.92 98.0957L1064.46 97.4277L1066.8 99.7656C1066.73 99.8594 1066.63 99.9941 1066.49 100.17C1066.35 100.334 1066.04 100.621 1065.57 101.031C1065.1 101.43 1064.61 101.787 1064.1 102.104C1063.58 102.408 1062.91 102.695 1062.09 102.965C1061.27 103.223 1060.45 103.352 1059.61 103.352C1057.19 103.352 1055.08 102.461 1053.29 100.68ZM1072.38 85.7207H1085.7V103H1082.1V88.9551H1075.98V90.7656C1075.98 94.0586 1075.71 96.6602 1075.19 98.5703C1074.67 100.469 1074 101.74 1073.18 102.385C1072.38 103.029 1071.33 103.352 1070.04 103.352C1069.72 103.352 1069.38 103.322 1069.02 103.264C1068.67 103.205 1068.39 103.141 1068.19 103.07L1067.88 103V99.5723C1068.36 99.6895 1068.77 99.7539 1069.12 99.7656C1069.86 99.7656 1070.44 99.5664 1070.86 99.168C1071.3 98.7695 1071.65 97.8906 1071.94 96.5312C1072.23 95.1602 1072.38 93.2383 1072.38 90.7656V85.7207ZM1106.76 95.6172H1093.26C1093.45 96.8359 1094.04 97.8906 1095.05 98.7812C1096.07 99.6719 1097.28 100.117 1098.67 100.117C1099.68 100.117 1100.62 99.8887 1101.48 99.4316C1102.36 98.9746 1102.98 98.5293 1103.35 98.0957L1103.89 97.4277L1106.23 99.7656C1106.16 99.8594 1106.05 99.9941 1105.9 100.17C1105.76 100.334 1105.45 100.621 1104.96 101.031C1104.48 101.43 1103.97 101.787 1103.44 102.104C1102.9 102.408 1102.19 102.695 1101.33 102.965C1100.47 103.223 1099.59 103.352 1098.67 103.352C1096.22 103.352 1094.11 102.455 1092.33 100.662C1090.56 98.8574 1089.67 96.6953 1089.67 94.1758C1089.67 91.75 1090.53 89.6758 1092.26 87.9531C1093.99 86.2188 1096.06 85.3516 1098.48 85.3516C1100.9 85.3516 1102.92 86.1602 1104.53 87.7773C1106.14 89.3828 1106.95 91.3984 1106.95 93.8242L1106.76 95.6172ZM1098.48 88.4277C1097.18 88.4277 1096.08 88.8145 1095.19 89.5879C1094.31 90.3496 1093.72 91.3398 1093.42 92.5586H1103.42C1103.21 91.3398 1102.66 90.3496 1101.78 89.5879C1100.9 88.8145 1099.8 88.4277 1098.48 88.4277ZM1108.38 99.7656H1109.62C1109.69 99.6953 1109.79 99.584 1109.92 99.4316C1110.06 99.2676 1110.3 98.9102 1110.62 98.3594C1110.96 97.8086 1111.26 97.2168 1111.5 96.584C1111.76 95.9395 1111.99 95.0957 1112.19 94.0527C1112.4 93.0098 1112.51 91.9141 1112.51 90.7656V85.7207H1125.11V99.7656H1127.62V107.324H1124.04V103H1111.98V107.324H1108.38V99.7656ZM1116.11 88.9551V90.7656C1116.11 91.9141 1116.01 93.0039 1115.81 94.0352C1115.62 95.0664 1115.38 95.9219 1115.09 96.6016C1114.81 97.2695 1114.52 97.8496 1114.23 98.3418C1113.95 98.834 1113.71 99.1855 1113.53 99.3965L1113.23 99.7656H1121.51V88.9551H1116.11ZM1142.97 98.4473C1144.04 97.334 1144.57 95.9746 1144.57 94.3691C1144.57 92.752 1144.04 91.3867 1142.97 90.2734C1141.9 89.1602 1140.64 88.6035 1139.17 88.6035C1137.71 88.6035 1136.44 89.1602 1135.36 90.2734C1134.29 91.3867 1133.76 92.752 1133.76 94.3691C1133.76 95.9746 1134.29 97.334 1135.36 98.4473C1136.44 99.5605 1137.71 100.117 1139.17 100.117C1140.64 100.117 1141.9 99.5605 1142.97 98.4473ZM1132.84 100.68C1131.06 98.8867 1130.17 96.7832 1130.17 94.3691C1130.17 91.9434 1131.06 89.834 1132.84 88.041C1134.64 86.248 1136.75 85.3516 1139.17 85.3516C1141.6 85.3516 1143.7 86.248 1145.48 88.041C1147.28 89.834 1148.17 91.9434 1148.17 94.3691C1148.17 96.7832 1147.28 98.8867 1145.48 100.68C1143.7 102.461 1141.6 103.352 1139.17 103.352C1136.75 103.352 1134.64 102.461 1132.84 100.68ZM1152.13 85.7207H1160.41C1162.06 85.7207 1163.37 86.1484 1164.34 87.0039C1165.32 87.8477 1165.8 88.9199 1165.8 90.2207C1165.8 90.959 1165.64 91.6328 1165.31 92.2422C1164.99 92.8398 1164.67 93.2559 1164.33 93.4902L1163.83 93.8242C1163.9 93.8477 1164 93.8887 1164.13 93.9473C1164.26 94.0059 1164.5 94.1582 1164.84 94.4043C1165.18 94.6387 1165.47 94.9023 1165.71 95.1953C1165.97 95.4766 1166.2 95.8633 1166.4 96.3555C1166.61 96.8477 1166.72 97.3809 1166.72 97.9551C1166.72 99.4434 1166.18 100.656 1165.12 101.594C1164.06 102.531 1162.62 103 1160.78 103H1152.13V85.7207ZM1160.78 95.2656H1155.73V99.9414H1160.78C1161.49 99.9414 1162.06 99.7305 1162.48 99.3086C1162.9 98.8867 1163.11 98.3184 1163.11 97.6035C1163.11 96.959 1162.9 96.4082 1162.46 95.9512C1162.03 95.4941 1161.47 95.2656 1160.78 95.2656ZM1161.72 91.9082C1162.05 91.5801 1162.22 91.1406 1162.22 90.5898C1162.22 90.0273 1162.05 89.5879 1161.72 89.2715C1161.4 88.9434 1160.96 88.7793 1160.41 88.7793H1155.73V92.3828H1160.41C1160.96 92.3828 1161.4 92.2246 1161.72 91.9082ZM1184.52 103H1180.92V101.207C1180.87 101.254 1180.79 101.33 1180.67 101.436C1180.57 101.541 1180.35 101.717 1180.01 101.963C1179.68 102.197 1179.32 102.414 1178.93 102.613C1178.55 102.801 1178.06 102.971 1177.47 103.123C1176.89 103.275 1176.3 103.352 1175.7 103.352C1173.94 103.352 1172.48 102.842 1171.32 101.822C1170.16 100.803 1169.58 99.6367 1169.58 98.3242C1169.58 96.9062 1170.03 95.7168 1170.92 94.7559C1171.82 93.7949 1173.05 93.1855 1174.61 92.9277L1180.92 91.8379C1180.92 90.9238 1180.58 90.1562 1179.9 89.5352C1179.23 88.9141 1178.37 88.6035 1177.32 88.6035C1176.4 88.6035 1175.57 88.7969 1174.82 89.1836C1174.08 89.5586 1173.57 89.9395 1173.29 90.3262L1172.82 90.9414L1170.48 88.6035C1170.55 88.5098 1170.64 88.3926 1170.76 88.252C1170.89 88.0996 1171.16 87.8418 1171.59 87.4785C1172.02 87.1035 1172.48 86.7695 1172.96 86.4766C1173.44 86.1836 1174.07 85.9258 1174.86 85.7031C1175.65 85.4688 1176.47 85.3516 1177.32 85.3516C1179.43 85.3516 1181.15 85.9785 1182.5 87.2324C1183.85 88.4746 1184.52 90.0098 1184.52 91.8379V103ZM1176.24 100.117C1177.71 100.117 1178.85 99.6836 1179.67 98.8164C1180.5 97.9375 1180.92 96.6895 1180.92 95.0723V94.7207L1175.33 95.6172C1174.69 95.7344 1174.16 95.998 1173.77 96.4082C1173.37 96.8184 1173.17 97.334 1173.17 97.9551C1173.17 98.5293 1173.44 99.0332 1173.99 99.4668C1174.56 99.9004 1175.31 100.117 1176.24 100.117ZM1193.17 95.793V103H1189.57V85.7207H1193.17V92.5586H1201.63V85.7207H1205.23V103H1201.63V95.793H1193.17ZM1222.88 85.7207H1226.11V103H1222.51V91.6621L1213.51 103H1210.28V85.7207H1213.88V97.0586L1222.88 85.7207ZM1247.17 95.6172H1233.67C1233.86 96.8359 1234.46 97.8906 1235.46 98.7812C1236.48 99.6719 1237.69 100.117 1239.09 100.117C1240.09 100.117 1241.03 99.8887 1241.9 99.4316C1242.78 98.9746 1243.4 98.5293 1243.76 98.0957L1244.31 97.4277L1246.64 99.7656C1246.57 99.8594 1246.46 99.9941 1246.31 100.17C1246.17 100.334 1245.86 100.621 1245.38 101.031C1244.9 101.43 1244.39 101.787 1243.85 102.104C1243.31 102.408 1242.61 102.695 1241.74 102.965C1240.88 103.223 1240 103.352 1239.09 103.352C1236.64 103.352 1234.52 102.455 1232.74 100.662C1230.97 98.8574 1230.09 96.6953 1230.09 94.1758C1230.09 91.75 1230.95 89.6758 1232.67 87.9531C1234.4 86.2188 1236.48 85.3516 1238.89 85.3516C1241.32 85.3516 1243.33 86.1602 1244.94 87.7773C1246.56 89.3828 1247.37 91.3984 1247.37 93.8242L1247.17 95.6172ZM1238.89 88.4277C1237.59 88.4277 1236.5 88.8145 1235.61 89.5879C1234.73 90.3496 1234.13 91.3398 1233.83 92.5586H1243.83C1243.62 91.3398 1243.08 90.3496 1242.2 89.5879C1241.32 88.8145 1240.22 88.4277 1238.89 88.4277Z" fill="black"/>
<rect x="760.5" y="0.5" width="579" height="179" rx="89.5" stroke="black"/>
<circle cx="1430" cy="90" r="68.2218" stroke="black" stroke-width="3.55644"/>
<path d="M1441.7 49.0239L1410.1 89.918L1449.14 84.3415L1417.54 130.812" stroke="black" stroke-width="4.74193"/>
<path d="M1578.94 67.9551V82H1575.34V64.7207H1591V82H1587.4V67.9551H1578.94ZM1607.77 77.4473C1608.84 76.334 1609.37 74.9746 1609.37 73.3691C1609.37 71.752 1608.84 70.3867 1607.77 69.2734C1606.7 68.1602 1605.44 67.6035 1603.97 67.6035C1602.51 67.6035 1601.24 68.1602 1600.16 69.2734C1599.09 70.3867 1598.56 71.752 1598.56 73.3691C1598.56 74.9746 1599.09 76.334 1600.16 77.4473C1601.24 78.5605 1602.51 79.1172 1603.97 79.1172C1605.44 79.1172 1606.7 78.5605 1607.77 77.4473ZM1597.64 79.6797C1595.86 77.8867 1594.97 75.7832 1594.97 73.3691C1594.97 70.9434 1595.86 68.834 1597.64 67.041C1599.44 65.248 1601.55 64.3516 1603.97 64.3516C1606.4 64.3516 1608.5 65.248 1610.28 67.041C1612.08 68.834 1612.97 70.9434 1612.97 73.3691C1612.97 75.7832 1612.08 77.8867 1610.28 79.6797C1608.5 81.4609 1606.4 82.3516 1603.97 82.3516C1601.55 82.3516 1599.44 81.4609 1597.64 79.6797ZM1618.53 79.6797C1616.75 77.8867 1615.86 75.7832 1615.86 73.3691C1615.86 70.9434 1616.75 68.834 1618.53 67.041C1620.32 65.248 1622.43 64.3516 1624.86 64.3516C1626.2 64.3516 1627.46 64.6445 1628.62 65.2305C1629.78 65.8047 1630.61 66.3789 1631.11 66.9531L1631.87 67.7793L1629.53 70.1172C1629.41 69.9297 1629.23 69.7012 1628.99 69.4316C1628.75 69.1504 1628.23 68.7754 1627.42 68.3066C1626.62 67.8379 1625.77 67.6035 1624.86 67.6035C1623.39 67.6035 1622.12 68.1602 1621.04 69.2734C1619.97 70.3867 1619.44 71.752 1619.44 73.3691C1619.44 74.9746 1619.97 76.334 1621.04 77.4473C1622.12 78.5605 1623.39 79.1172 1624.86 79.1172C1625.77 79.1172 1626.62 78.8887 1627.42 78.4316C1628.23 77.9746 1628.81 77.5293 1629.16 77.0957L1629.71 76.4277L1632.04 78.7656C1631.97 78.8594 1631.87 78.9941 1631.73 79.1699C1631.59 79.334 1631.28 79.6211 1630.81 80.0312C1630.35 80.4297 1629.85 80.7871 1629.34 81.1035C1628.82 81.4082 1628.15 81.6953 1627.33 81.9648C1626.51 82.2227 1625.69 82.3516 1624.86 82.3516C1622.43 82.3516 1620.32 81.4609 1618.53 79.6797ZM1633.84 67.9551V64.7207H1649.31V67.9551H1643.37V82H1639.78V67.9551H1633.84ZM1666.41 82H1662.81V80.207C1662.76 80.2539 1662.68 80.3301 1662.56 80.4355C1662.46 80.541 1662.23 80.7168 1661.89 80.9629C1661.56 81.1973 1661.21 81.4141 1660.82 81.6133C1660.43 81.8008 1659.95 81.9707 1659.36 82.123C1658.78 82.2754 1658.18 82.3516 1657.59 82.3516C1655.83 82.3516 1654.37 81.8418 1653.21 80.8223C1652.05 79.8027 1651.47 78.6367 1651.47 77.3242C1651.47 75.9062 1651.91 74.7168 1652.8 73.7559C1653.71 72.7949 1654.94 72.1855 1656.5 71.9277L1662.81 70.8379C1662.81 69.9238 1662.47 69.1562 1661.79 68.5352C1661.12 67.9141 1660.26 67.6035 1659.2 67.6035C1658.29 67.6035 1657.46 67.7969 1656.71 68.1836C1655.97 68.5586 1655.46 68.9395 1655.18 69.3262L1654.7 69.9414L1652.37 67.6035C1652.44 67.5098 1652.53 67.3926 1652.65 67.252C1652.78 67.0996 1653.05 66.8418 1653.47 66.4785C1653.91 66.1035 1654.36 65.7695 1654.84 65.4766C1655.32 65.1836 1655.96 64.9258 1656.74 64.7031C1657.54 64.4688 1658.36 64.3516 1659.2 64.3516C1661.31 64.3516 1663.04 64.9785 1664.39 66.2324C1665.74 67.4746 1666.41 69.0098 1666.41 70.8379V82ZM1658.13 79.1172C1659.6 79.1172 1660.74 78.6836 1661.56 77.8164C1662.39 76.9375 1662.81 75.6895 1662.81 74.0723V73.7207L1657.22 74.6172C1656.57 74.7344 1656.05 74.998 1655.65 75.4082C1655.25 75.8184 1655.05 76.334 1655.05 76.9551C1655.05 77.5293 1655.33 78.0332 1655.88 78.4668C1656.44 78.9004 1657.19 79.1172 1658.13 79.1172ZM1675.06 74.793V82H1671.46V64.7207H1675.06V71.5586H1683.51V64.7207H1687.12V82H1683.51V74.793H1675.06ZM1703.89 77.4473C1704.95 76.334 1705.49 74.9746 1705.49 73.3691C1705.49 71.752 1704.95 70.3867 1703.89 69.2734C1702.82 68.1602 1701.55 67.6035 1700.09 67.6035C1698.62 67.6035 1697.35 68.1602 1696.28 69.2734C1695.21 70.3867 1694.68 71.752 1694.68 73.3691C1694.68 74.9746 1695.21 76.334 1696.28 77.4473C1697.35 78.5605 1698.62 79.1172 1700.09 79.1172C1701.55 79.1172 1702.82 78.5605 1703.89 77.4473ZM1693.76 79.6797C1691.98 77.8867 1691.09 75.7832 1691.09 73.3691C1691.09 70.9434 1691.98 68.834 1693.76 67.041C1695.55 65.248 1697.66 64.3516 1700.09 64.3516C1702.52 64.3516 1704.62 65.248 1706.4 67.041C1708.19 68.834 1709.09 70.9434 1709.09 73.3691C1709.09 75.7832 1708.19 77.8867 1706.4 79.6797C1704.62 81.4609 1702.52 82.3516 1700.09 82.3516C1697.66 82.3516 1695.55 81.4609 1693.76 79.6797ZM1713.04 64.7207H1721.32C1722.98 64.7207 1724.29 65.1484 1725.26 66.0039C1726.23 66.8477 1726.72 67.9199 1726.72 69.2207C1726.72 69.959 1726.56 70.6328 1726.23 71.2422C1725.91 71.8398 1725.58 72.2559 1725.24 72.4902L1724.75 72.8242C1724.82 72.8477 1724.92 72.8887 1725.05 72.9473C1725.18 73.0059 1725.41 73.1582 1725.75 73.4043C1726.09 73.6387 1726.39 73.9023 1726.63 74.1953C1726.89 74.4766 1727.12 74.8633 1727.32 75.3555C1727.53 75.8477 1727.63 76.3809 1727.63 76.9551C1727.63 78.4434 1727.1 79.6562 1726.04 80.5938C1724.98 81.5312 1723.53 82 1721.69 82H1713.04V64.7207ZM1721.69 74.2656H1716.65V78.9414H1721.69C1722.41 78.9414 1722.98 78.7305 1723.4 78.3086C1723.82 77.8867 1724.03 77.3184 1724.03 76.6035C1724.03 75.959 1723.81 75.4082 1723.38 74.9512C1722.95 74.4941 1722.38 74.2656 1721.69 74.2656ZM1722.64 70.9082C1722.97 70.5801 1723.13 70.1406 1723.13 69.5898C1723.13 69.0273 1722.97 68.5879 1722.64 68.2715C1722.31 67.9434 1721.88 67.7793 1721.32 67.7793H1716.65V71.3828H1721.32C1721.88 71.3828 1722.31 71.2246 1722.64 70.9082ZM1746.88 64.7207L1740.22 71.9277L1747.41 82H1743.46L1737.88 74.2656L1735.18 77.1484V82H1731.57V64.7207H1735.18V72.4551L1742.56 64.7207H1746.88ZM1764.14 82H1760.54V80.207C1760.49 80.2539 1760.41 80.3301 1760.29 80.4355C1760.19 80.541 1759.97 80.7168 1759.63 80.9629C1759.3 81.1973 1758.94 81.4141 1758.55 81.6133C1758.17 81.8008 1757.68 81.9707 1757.1 82.123C1756.51 82.2754 1755.92 82.3516 1755.32 82.3516C1753.56 82.3516 1752.1 81.8418 1750.94 80.8223C1749.78 79.8027 1749.2 78.6367 1749.2 77.3242C1749.2 75.9062 1749.65 74.7168 1750.54 73.7559C1751.44 72.7949 1752.67 72.1855 1754.23 71.9277L1760.54 70.8379C1760.54 69.9238 1760.2 69.1562 1759.52 68.5352C1758.85 67.9141 1757.99 67.6035 1756.94 67.6035C1756.02 67.6035 1755.19 67.7969 1754.44 68.1836C1753.7 68.5586 1753.19 68.9395 1752.91 69.3262L1752.44 69.9414L1750.1 67.6035C1750.17 67.5098 1750.26 67.3926 1750.38 67.252C1750.51 67.0996 1750.79 66.8418 1751.21 66.4785C1751.64 66.1035 1752.1 65.7695 1752.58 65.4766C1753.06 65.1836 1753.69 64.9258 1754.48 64.7031C1755.27 64.4688 1756.09 64.3516 1756.94 64.3516C1759.05 64.3516 1760.78 64.9785 1762.12 66.2324C1763.47 67.4746 1764.14 69.0098 1764.14 70.8379V82ZM1755.87 79.1172C1757.33 79.1172 1758.47 78.6836 1759.29 77.8164C1760.12 76.9375 1760.54 75.6895 1760.54 74.0723V73.7207L1754.95 74.6172C1754.31 74.7344 1753.79 74.998 1753.39 75.4082C1752.99 75.8184 1752.79 76.334 1752.79 76.9551C1752.79 77.5293 1753.06 78.0332 1753.62 78.4668C1754.18 78.9004 1754.93 79.1172 1755.87 79.1172ZM1586.85 111.221C1586.85 112.018 1586.63 112.715 1586.18 113.312C1585.75 113.91 1585.3 114.303 1584.85 114.49L1584.16 114.824C1584.26 114.848 1584.38 114.889 1584.53 114.947C1584.7 115.006 1584.96 115.146 1585.34 115.369C1585.73 115.58 1586.07 115.838 1586.36 116.143C1586.66 116.436 1586.94 116.846 1587.19 117.373C1587.44 117.9 1587.57 118.492 1587.57 119.148C1587.57 120.59 1586.93 121.82 1585.64 122.84C1584.36 123.848 1582.61 124.352 1580.38 124.352C1579.54 124.352 1578.72 124.246 1577.94 124.035C1577.17 123.824 1576.52 123.572 1576.01 123.279C1575.49 122.986 1575.04 122.693 1574.65 122.4C1574.27 122.096 1573.98 121.838 1573.79 121.627L1573.54 121.293L1575.88 118.955C1576.02 119.119 1576.21 119.324 1576.45 119.57C1576.69 119.816 1577.21 120.139 1577.99 120.537C1578.79 120.924 1579.59 121.117 1580.38 121.117C1581.58 121.117 1582.47 120.895 1583.07 120.449C1583.68 120.004 1583.99 119.447 1583.99 118.779C1583.99 118.111 1583.68 117.555 1583.07 117.109C1582.47 116.664 1581.58 116.441 1580.38 116.441H1578.4V113.559H1580.38C1581.32 113.559 1582.04 113.377 1582.53 113.014C1583.02 112.639 1583.27 112.164 1583.27 111.59C1583.27 111.004 1583.02 110.529 1582.53 110.166C1582.04 109.791 1581.32 109.604 1580.38 109.604C1579.69 109.604 1579.01 109.738 1578.34 110.008C1577.69 110.266 1577.2 110.535 1576.88 110.816L1576.43 111.221L1574.07 108.883C1574.24 108.695 1574.48 108.461 1574.79 108.18C1575.11 107.898 1575.81 107.523 1576.9 107.055C1577.99 106.586 1579.15 106.352 1580.38 106.352C1582.38 106.352 1583.95 106.832 1585.11 107.793C1586.27 108.754 1586.85 109.896 1586.85 111.221ZM1605.41 124H1601.81V122.207C1601.76 122.254 1601.68 122.33 1601.56 122.436C1601.46 122.541 1601.24 122.717 1600.9 122.963C1600.57 123.197 1600.21 123.414 1599.82 123.613C1599.44 123.801 1598.95 123.971 1598.37 124.123C1597.78 124.275 1597.19 124.352 1596.59 124.352C1594.83 124.352 1593.37 123.842 1592.21 122.822C1591.05 121.803 1590.47 120.637 1590.47 119.324C1590.47 117.906 1590.92 116.717 1591.81 115.756C1592.71 114.795 1593.94 114.186 1595.5 113.928L1601.81 112.838C1601.81 111.924 1601.47 111.156 1600.79 110.535C1600.12 109.914 1599.26 109.604 1598.21 109.604C1597.29 109.604 1596.46 109.797 1595.71 110.184C1594.97 110.559 1594.46 110.939 1594.18 111.326L1593.71 111.941L1591.37 109.604C1591.44 109.51 1591.53 109.393 1591.65 109.252C1591.78 109.1 1592.05 108.842 1592.48 108.479C1592.91 108.104 1593.37 107.77 1593.85 107.477C1594.33 107.184 1594.96 106.926 1595.75 106.703C1596.54 106.469 1597.36 106.352 1598.21 106.352C1600.32 106.352 1602.04 106.979 1603.39 108.232C1604.74 109.475 1605.41 111.01 1605.41 112.838V124ZM1597.13 121.117C1598.6 121.117 1599.74 120.684 1600.56 119.816C1601.39 118.938 1601.81 117.689 1601.81 116.072V115.721L1596.22 116.617C1595.58 116.734 1595.05 116.998 1594.66 117.408C1594.26 117.818 1594.06 118.334 1594.06 118.955C1594.06 119.529 1594.33 120.033 1594.88 120.467C1595.45 120.9 1596.2 121.117 1597.13 121.117ZM1607.95 120.766H1609.19C1609.26 120.695 1609.36 120.584 1609.49 120.432C1609.63 120.268 1609.87 119.91 1610.2 119.359C1610.54 118.809 1610.83 118.217 1611.07 117.584C1611.33 116.939 1611.56 116.096 1611.76 115.053C1611.97 114.01 1612.08 112.914 1612.08 111.766V106.721H1624.68V120.766H1627.19V128.324H1623.61V124H1611.55V128.324H1607.95V120.766ZM1615.68 109.955V111.766C1615.68 112.914 1615.58 114.004 1615.38 115.035C1615.19 116.066 1614.95 116.922 1614.66 117.602C1614.38 118.27 1614.09 118.85 1613.8 119.342C1613.52 119.834 1613.28 120.186 1613.1 120.396L1612.8 120.766H1621.08V109.955H1615.68ZM1644.68 124H1641.08V122.207C1641.03 122.254 1640.95 122.33 1640.83 122.436C1640.73 122.541 1640.51 122.717 1640.17 122.963C1639.84 123.197 1639.48 123.414 1639.09 123.613C1638.71 123.801 1638.22 123.971 1637.63 124.123C1637.05 124.275 1636.46 124.352 1635.86 124.352C1634.1 124.352 1632.64 123.842 1631.48 122.822C1630.32 121.803 1629.74 120.637 1629.74 119.324C1629.74 117.906 1630.19 116.717 1631.08 115.756C1631.98 114.795 1633.21 114.186 1634.77 113.928L1641.08 112.838C1641.08 111.924 1640.74 111.156 1640.06 110.535C1639.39 109.914 1638.53 109.604 1637.48 109.604C1636.56 109.604 1635.73 109.797 1634.98 110.184C1634.24 110.559 1633.73 110.939 1633.45 111.326L1632.98 111.941L1630.64 109.604C1630.71 109.51 1630.8 109.393 1630.92 109.252C1631.05 109.1 1631.32 108.842 1631.75 108.479C1632.18 108.104 1632.64 107.77 1633.12 107.477C1633.6 107.184 1634.23 106.926 1635.02 106.703C1635.81 106.469 1636.63 106.352 1637.48 106.352C1639.59 106.352 1641.31 106.979 1642.66 108.232C1644.01 109.475 1644.68 111.01 1644.68 112.838V124ZM1636.4 121.117C1637.87 121.117 1639.01 120.684 1639.83 119.816C1640.66 118.938 1641.08 117.689 1641.08 116.072V115.721L1635.49 116.617C1634.85 116.734 1634.32 116.998 1633.93 117.408C1633.53 117.818 1633.33 118.334 1633.33 118.955C1633.33 119.529 1633.6 120.033 1634.15 120.467C1634.72 120.9 1635.47 121.117 1636.4 121.117ZM1660.54 124V117.514C1659.34 118.357 1657.9 118.779 1656.21 118.779C1654.13 118.779 1652.46 118.152 1651.22 116.898C1649.99 115.633 1649.38 113.922 1649.38 111.766V106.721H1652.96V111.766C1652.96 112.844 1653.31 113.746 1654 114.473C1654.7 115.188 1655.56 115.545 1656.57 115.545C1657.3 115.545 1658 115.428 1658.66 115.193C1659.33 114.947 1659.81 114.701 1660.1 114.455L1660.54 114.104V106.721H1664.12V124H1660.54ZM1681.77 106.721H1685.01V124H1681.4V112.662L1672.4 124H1669.17V106.721H1672.77V118.059L1681.77 106.721ZM1706.44 124.352C1705.79 124.352 1705.16 124.275 1704.55 124.123C1703.95 123.971 1703.42 123.783 1702.99 123.561C1702.56 123.326 1702.17 123.092 1701.83 122.857C1701.5 122.611 1701.26 122.418 1701.11 122.277L1700.86 122.014V131.559H1697.26V106.721H1700.86V108.707C1701.03 108.543 1701.26 108.326 1701.55 108.057C1701.85 107.787 1702.49 107.436 1703.46 107.002C1704.44 106.568 1705.43 106.352 1706.44 106.352C1708.72 106.352 1710.7 107.23 1712.38 108.988C1714.06 110.734 1714.91 112.855 1714.91 115.352C1714.91 117.848 1714.06 119.975 1712.38 121.732C1710.7 123.479 1708.72 124.352 1706.44 124.352ZM1709.72 111.291C1708.67 110.166 1707.46 109.604 1706.08 109.604C1704.71 109.604 1703.5 110.166 1702.45 111.291C1701.39 112.416 1700.86 113.775 1700.86 115.369C1700.86 116.951 1701.39 118.305 1702.45 119.43C1703.5 120.555 1704.71 121.117 1706.08 121.117C1707.46 121.117 1708.67 120.555 1709.72 119.43C1710.78 118.305 1711.3 116.951 1711.3 115.369C1711.3 113.775 1710.78 112.416 1709.72 111.291ZM1734.86 116.617H1721.36C1721.55 117.836 1722.14 118.891 1723.15 119.781C1724.17 120.672 1725.38 121.117 1726.77 121.117C1727.78 121.117 1728.72 120.889 1729.59 120.432C1730.46 119.975 1731.09 119.529 1731.45 119.096L1731.99 118.428L1734.33 120.766C1734.26 120.859 1734.15 120.994 1734 121.17C1733.86 121.334 1733.55 121.621 1733.07 122.031C1732.59 122.43 1732.08 122.787 1731.54 123.104C1731 123.408 1730.29 123.695 1729.43 123.965C1728.57 124.223 1727.69 124.352 1726.77 124.352C1724.32 124.352 1722.21 123.455 1720.43 121.662C1718.66 119.857 1717.77 117.695 1717.77 115.176C1717.77 112.75 1718.63 110.676 1720.36 108.953C1722.09 107.219 1724.17 106.352 1726.58 106.352C1729.01 106.352 1731.02 107.16 1732.63 108.777C1734.24 110.383 1735.05 112.398 1735.05 114.824L1734.86 116.617ZM1726.58 109.428C1725.28 109.428 1724.18 109.814 1723.29 110.588C1722.41 111.35 1721.82 112.34 1721.52 113.559H1731.52C1731.31 112.34 1730.76 111.35 1729.88 110.588C1729.01 109.814 1727.9 109.428 1726.58 109.428ZM1754.3 106.721L1747.64 113.928L1754.83 124H1750.87L1745.3 116.266L1742.59 119.148V124H1738.99V106.721H1742.59V114.455L1749.98 106.721H1754.3ZM1759.68 106.721H1773V124H1769.4V109.955H1763.28V111.766C1763.28 115.059 1763.02 117.66 1762.49 119.57C1761.98 121.469 1761.31 122.74 1760.49 123.385C1759.68 124.029 1758.63 124.352 1757.34 124.352C1757.03 124.352 1756.69 124.322 1756.32 124.264C1755.97 124.205 1755.7 124.141 1755.5 124.07L1755.18 124V120.572C1755.66 120.689 1756.08 120.754 1756.43 120.766C1757.17 120.766 1757.75 120.566 1758.17 120.168C1758.6 119.77 1758.96 118.891 1759.24 117.531C1759.53 116.16 1759.68 114.238 1759.68 111.766V106.721ZM1791.92 124H1788.31V122.207C1788.27 122.254 1788.19 122.33 1788.07 122.436C1787.96 122.541 1787.74 122.717 1787.4 122.963C1787.07 123.197 1786.71 123.414 1786.33 123.613C1785.94 123.801 1785.46 123.971 1784.87 124.123C1784.28 124.275 1783.69 124.352 1783.09 124.352C1781.34 124.352 1779.88 123.842 1778.72 122.822C1777.56 121.803 1776.98 120.637 1776.98 119.324C1776.98 117.906 1777.42 116.717 1778.31 115.756C1779.21 114.795 1780.45 114.186 1782 113.928L1788.31 112.838C1788.31 111.924 1787.97 111.156 1787.29 110.535C1786.63 109.914 1785.77 109.604 1784.71 109.604C1783.8 109.604 1782.96 109.797 1782.21 110.184C1781.48 110.559 1780.97 110.939 1780.69 111.326L1780.21 111.941L1777.87 109.604C1777.94 109.51 1778.04 109.393 1778.15 109.252C1778.28 109.1 1778.56 108.842 1778.98 108.479C1779.41 108.104 1779.87 107.77 1780.35 107.477C1780.83 107.184 1781.46 106.926 1782.25 106.703C1783.05 106.469 1783.87 106.352 1784.71 106.352C1786.82 106.352 1788.55 106.979 1789.9 108.232C1791.24 109.475 1791.92 111.01 1791.92 112.838V124ZM1783.64 121.117C1785.1 121.117 1786.25 120.684 1787.07 119.816C1787.9 118.938 1788.31 117.689 1788.31 116.072V115.721L1782.72 116.617C1782.08 116.734 1781.56 116.998 1781.16 117.408C1780.76 117.818 1780.56 118.334 1780.56 118.955C1780.56 119.529 1780.84 120.033 1781.39 120.467C1781.95 120.9 1782.7 121.117 1783.64 121.117ZM1806.14 114.279L1812.45 106.721H1815.33V124H1811.73V112.662L1806.14 119.324L1800.57 112.662V124H1796.96V106.721H1799.85L1806.14 114.279ZM1823.98 120.941H1827.76C1828.58 120.941 1829.27 120.666 1829.82 120.115C1830.37 119.564 1830.64 118.879 1830.64 118.059C1830.64 117.238 1830.37 116.553 1829.82 116.002C1829.27 115.451 1828.58 115.176 1827.76 115.176H1823.98V120.941ZM1832.45 113.805C1833.65 114.918 1834.25 116.342 1834.25 118.076C1834.25 119.799 1833.65 121.217 1832.45 122.33C1831.27 123.443 1829.71 124 1827.76 124H1820.38V106.721H1823.98V112.117H1827.76C1829.71 112.117 1831.27 112.68 1832.45 113.805ZM1840.36 106.721V124H1836.76V106.721H1840.36Z" fill="black"/>
<rect x="1340.5" y="0.5" width="579" height="179" rx="89.5" stroke="black"/>
</svg>
