<svg width="737" height="199" viewBox="0 0 737 199" fill="none" xmlns="http://www.w3.org/2000/svg">
<circle cx="99.1875" cy="99.1875" r="95.2306" stroke="white" stroke-width="7.91383"/>
<path d="M92.8414 159.514L152.893 99.4629M152.893 99.4629L92.8413 39.4116M152.893 99.4629L32.79 99.4629" stroke="white" stroke-width="7.89305"/>
<path d="M486.421 120.504C486.421 118.31 485.723 116.481 484.327 115.019C482.931 113.523 481.119 112.36 478.892 111.529C476.698 110.664 474.255 109.9 471.563 109.235C468.87 108.537 466.178 107.689 463.485 106.692C460.793 105.695 458.333 104.498 456.106 103.102C453.912 101.706 452.117 99.7284 450.721 97.1689C449.325 94.5762 448.627 91.4682 448.627 87.845C448.627 82.3272 450.738 77.7234 454.959 74.0337C459.181 70.3108 464.898 68.4494 472.111 68.4494C474.77 68.4494 477.313 68.7818 479.74 69.4466C482.2 70.0782 484.227 70.8427 485.823 71.7402C487.452 72.6044 488.864 73.4853 490.061 74.3828C491.291 75.247 492.188 75.9949 492.753 76.6265L493.551 77.6237L486.421 84.8036C486.288 84.6706 486.089 84.4545 485.823 84.1554C485.59 83.823 485.025 83.3244 484.128 82.6596C483.263 81.9615 482.316 81.3466 481.285 80.8147C480.288 80.2497 478.959 79.7511 477.297 79.3189C475.668 78.8868 473.939 78.6707 472.111 78.6707C468.422 78.6707 465.447 79.5849 463.186 81.4131C460.959 83.2413 459.846 85.3853 459.846 87.845C459.846 90.0389 460.544 91.8837 461.94 93.3795C463.336 94.8754 465.131 96.0554 467.325 96.9196C469.552 97.7506 472.011 98.5152 474.704 99.2132C477.396 99.878 480.089 100.709 482.781 101.706C485.474 102.67 487.917 103.85 490.111 105.246C492.338 106.642 494.149 108.637 495.546 111.23C496.942 113.822 497.64 116.914 497.64 120.504C497.64 126.819 495.379 131.971 490.859 135.96C486.338 139.949 480.089 141.943 472.111 141.943C468.854 141.943 465.746 141.561 462.787 140.797C459.862 139.999 457.452 139.068 455.558 138.005C453.663 136.908 452.017 135.811 450.621 134.714C449.225 133.617 448.211 132.703 447.58 131.971L446.583 130.725L453.713 123.595C453.846 123.794 454.062 124.094 454.361 124.492C454.693 124.858 455.408 125.523 456.505 126.487C457.635 127.418 458.848 128.249 460.145 128.98C461.441 129.678 463.153 130.326 465.28 130.924C467.441 131.489 469.718 131.772 472.111 131.772C476.532 131.772 480.022 130.692 482.582 128.531C485.141 126.37 486.421 123.695 486.421 120.504ZM550.192 104.199L577.765 69.4466H587.488V140.946H576.269V88.8921L550.192 121.551L524.165 88.8921V140.946H512.947V69.4466H522.62L550.192 104.199ZM645.126 104.199L672.699 69.4466H682.422V140.946H671.203V88.8921L645.126 121.551L619.099 88.8921V140.946H607.881V69.4466H617.554L645.126 104.199Z" fill="white"/>
<path fill-rule="evenodd" clip-rule="evenodd" d="M307.669 198.375C362.449 198.375 406.856 153.967 406.856 99.1875C406.856 44.4078 362.449 0 307.669 0C252.889 0 208.481 44.4078 208.481 99.1875C208.481 153.967 252.889 198.375 307.669 198.375ZM328.255 162.132L298.039 119.681L246.167 114.739L234.012 113.581L244.019 106.585L338.823 40.3056L347.28 34.3936L346.388 44.6731L336.391 159.916L335.335 172.08L328.255 162.132ZM298.79 111.803L256.175 107.743L337.932 50.5851L329.31 149.968L304.486 115.092L302.389 112.146L298.79 111.803Z" fill="white"/>
</svg>
