<svg width="93" height="92" viewBox="0 0 93 92" fill="none" xmlns="http://www.w3.org/2000/svg">
<path fill-rule="evenodd" clip-rule="evenodd" d="M46.6325 91.4153C71.8497 91.4153 92.2923 70.9727 92.2923 45.7555C92.2923 20.5383 71.8497 0.0957031 46.6325 0.0957031C21.4152 0.0957031 0.972656 20.5383 0.972656 45.7555C0.972656 70.9727 21.4152 91.4153 46.6325 91.4153ZM56.1089 74.7319L42.1994 55.1899L18.3209 52.915L12.7253 52.3818L17.332 49.1612L60.9741 18.6503L64.8669 15.9288L64.4564 20.6608L59.8542 73.7114L59.3684 79.3112L56.1089 74.7319ZM42.5449 51.5633L22.9276 49.6943L60.5635 23.3824L56.5947 69.132L45.1674 53.0774L44.2021 51.7212L42.5449 51.5633Z" fill="black"/>
</svg>
