<svg width="339" height="92" viewBox="0 0 339 92" fill="none" xmlns="http://www.w3.org/2000/svg">
<circle cx="45.6598" cy="45.7555" r="43.8383" stroke="black" stroke-width="3.64304"/>
<path d="M42.7377 73.5267L70.3816 45.8828M70.3816 45.8828L42.7377 18.2389M70.3816 45.8828H15.0938" stroke="black" stroke-width="3.63347"/>
<path d="M223.917 55.5982C223.917 54.5883 223.595 53.7467 222.953 53.0734C222.31 52.3849 221.476 51.8493 220.451 51.4667C219.441 51.0689 218.316 50.717 217.077 50.4109C215.837 50.0896 214.598 49.6994 213.358 49.2403C212.119 48.7813 210.987 48.2304 209.961 47.5878C208.951 46.9451 208.125 46.0346 207.482 44.8564C206.84 43.6629 206.518 42.2321 206.518 40.5643C206.518 38.0242 207.49 35.9049 209.433 34.2064C211.377 32.4926 214.009 31.6357 217.329 31.6357C218.553 31.6357 219.724 31.7887 220.841 32.0947C221.973 32.3855 222.907 32.7374 223.641 33.1506C224.391 33.5484 225.041 33.9539 225.592 34.367C226.158 34.7649 226.571 35.1092 226.832 35.3999L227.199 35.859L223.917 39.1641C223.855 39.1029 223.764 39.0035 223.641 38.8658C223.534 38.7127 223.274 38.4832 222.861 38.1772C222.463 37.8558 222.027 37.5728 221.552 37.3279C221.093 37.0678 220.481 36.8383 219.716 36.6394C218.966 36.4404 218.171 36.341 217.329 36.341C215.631 36.341 214.261 36.7618 213.221 37.6034C212.195 38.445 211.683 39.4319 211.683 40.5643C211.683 41.5742 212.004 42.4234 212.647 43.112C213.29 43.8006 214.116 44.3438 215.126 44.7416C216.151 45.1242 217.283 45.4761 218.523 45.7974C219.762 46.1035 221.002 46.486 222.241 46.9451C223.48 47.3888 224.605 47.932 225.615 48.5747C226.64 49.2174 227.474 50.1355 228.117 51.329C228.76 52.5226 229.081 53.9456 229.081 55.5982C229.081 58.5055 228.04 60.8773 225.959 62.7135C223.878 64.5497 221.002 65.4678 217.329 65.4678C215.83 65.4678 214.399 65.2919 213.037 64.9399C211.69 64.5727 210.581 64.1442 209.709 63.6546C208.837 63.1496 208.079 62.6447 207.437 62.1397C206.794 61.6348 206.327 61.214 206.036 60.8773L205.577 60.3035L208.86 57.0213C208.921 57.1131 209.02 57.2508 209.158 57.4344C209.311 57.6027 209.64 57.9088 210.145 58.3525C210.665 58.781 211.224 59.1635 211.821 59.5002C212.417 59.8215 213.205 60.1199 214.185 60.3953C215.179 60.6554 216.227 60.7855 217.329 60.7855C219.364 60.7855 220.971 60.2882 222.149 59.2936C223.327 58.299 223.917 57.0672 223.917 55.5982ZM253.273 48.0927L265.966 32.0947H270.442V65.0088H265.277V41.0463L253.273 56.0802L241.292 41.0463V65.0088H236.127V32.0947H240.58L253.273 48.0927ZM296.975 48.0927L309.668 32.0947H314.143V65.0088H308.979V41.0463L296.975 56.0802L284.993 41.0463V65.0088H279.829V32.0947H284.282L296.975 48.0927Z" fill="black"/>
<path fill-rule="evenodd" clip-rule="evenodd" d="M141.632 91.4153C166.85 91.4153 187.292 70.9727 187.292 45.7555C187.292 20.5383 166.85 0.0957031 141.632 0.0957031C116.415 0.0957031 95.9727 20.5383 95.9727 45.7555C95.9727 70.9727 116.415 91.4153 141.632 91.4153ZM151.109 74.7319L137.199 55.1899L113.321 52.915L107.725 52.3818L112.332 49.1612L155.974 18.6503L159.867 15.9288L159.456 20.6608L154.854 73.7114L154.368 79.3112L151.109 74.7319ZM137.545 51.5633L117.928 49.6943L155.564 23.3824L151.595 69.132L140.167 53.0774L139.202 51.7212L137.545 51.5633Z" fill="black"/>
</svg>
