<svg width="1429" height="504" viewBox="0 0 1429 504" fill="none" xmlns="http://www.w3.org/2000/svg">
<path d="M29.9005 198.139C17.2657 185.069 10.9483 169.253 10.9483 150.693C10.9483 132.133 17.2657 116.361 29.9005 103.378C42.6224 90.3075 57.697 83.7723 75.1244 83.7723C85.1451 83.7723 94.4687 85.9507 103.095 90.3075C111.809 94.5772 118.039 98.8469 121.786 103.117L127.406 109.26L113.944 122.592C113.595 122.069 113.072 121.328 112.375 120.37C111.678 119.411 110.11 117.668 107.67 115.141C105.317 112.615 102.747 110.436 99.9583 108.606C97.1699 106.689 93.5538 104.99 89.1098 103.509C84.6658 102.027 80.004 101.287 75.1244 101.287C62.8381 101.287 52.1639 106.079 43.1017 115.664C34.1266 125.162 29.6391 136.882 29.6391 150.824C29.6391 164.679 34.1266 176.398 43.1017 185.984C52.1639 195.481 62.8381 200.23 75.1244 200.23C82.6181 200.23 89.7197 198.444 96.4293 194.871C103.139 191.299 108.018 187.726 111.068 184.154L115.381 178.925L128.713 190.95C128.191 191.647 127.363 192.649 126.23 193.957C125.184 195.176 122.919 197.311 119.433 200.361C115.948 203.324 112.288 205.981 108.454 208.334C104.62 210.6 99.6533 212.734 93.5538 214.739C87.5413 216.656 81.3982 217.614 75.1244 217.614C57.6099 217.614 42.5353 211.122 29.9005 198.139ZM270.528 119.978L223.605 178.925L176.813 119.978V215H158.122V86.5171H172.761L223.605 150.693L274.449 86.5171H289.219V215H270.528V119.978ZM469.069 103.901V86.5171H578.73V103.901H533.245V215H514.554V103.901H469.069ZM638.332 116.187C629.008 126.034 624.346 137.579 624.346 150.824C624.346 163.982 629.008 175.527 638.332 185.461C647.742 195.307 658.242 200.23 669.832 200.23C680.898 200.23 690.788 195.438 699.502 185.853C708.302 176.181 712.703 164.504 712.703 150.824C712.703 137.056 708.302 125.38 699.502 115.795C690.788 106.123 680.898 101.287 669.832 101.287C658.242 101.287 647.742 106.254 638.332 116.187ZM624.346 194.871V271.203H605.655V86.5171H624.346V106.646C624.695 106.123 625.305 105.339 626.176 104.293C627.135 103.16 629.008 101.287 631.796 98.6727C634.672 96.0586 637.765 93.7494 641.076 91.7453C644.388 89.654 648.614 87.8242 653.755 86.2557C658.983 84.6001 664.342 83.7723 669.832 83.7723C686.213 83.7723 700.547 90.3511 712.833 103.509C725.207 116.666 731.394 132.438 731.394 150.824C731.394 169.123 725.25 184.851 712.964 198.008C700.678 211.079 686.3 217.614 669.832 217.614C664.342 217.614 659.027 216.83 653.886 215.261C648.832 213.693 644.562 211.82 641.076 209.641C637.591 207.463 634.541 205.284 631.927 203.106C629.4 200.84 627.483 198.923 626.176 197.355L624.346 194.871ZM861.184 86.5171H877.26V215H858.439V118.671L780.8 215H764.854V86.5171H783.545V182.847L861.184 86.5171ZM112.637 447V336.162H39.0498V447H20.359V318.517H131.458V447H112.637ZM408.814 358.644V376.027H319.15V358.644H408.814ZM560.039 429.616V479.153H541.349V447H438.223V479.153H419.532V429.616H428.812C429.335 429.093 430.119 428.222 431.164 427.002C432.297 425.695 434.171 422.82 436.785 418.376C439.399 413.932 441.708 409.139 443.712 403.998C445.803 398.77 447.633 391.843 449.202 383.216C450.857 374.502 451.685 365.44 451.685 356.029V318.517H539.911V429.616H560.039ZM470.376 335.901V356.029C470.376 370.668 468.59 384.087 465.017 396.287C461.444 408.486 457.872 417.112 454.299 422.166L448.94 429.616H521.22V335.901H470.376ZM622.124 348.187C612.801 358.034 608.139 369.579 608.139 382.824C608.139 395.982 612.801 407.527 622.124 417.461C631.535 427.307 642.035 432.23 653.624 432.23C664.691 432.23 674.581 427.438 683.294 417.853C692.095 408.181 696.495 396.504 696.495 382.824C696.495 369.056 692.095 357.38 683.294 347.795C674.581 338.123 664.691 333.287 653.624 333.287C642.035 333.287 631.535 338.254 622.124 348.187ZM608.139 426.871V503.203H589.448V318.517H608.139V338.646C608.487 338.123 609.097 337.339 609.969 336.293C610.927 335.16 612.801 333.287 615.589 330.673C618.465 328.059 621.558 325.749 624.869 323.745C628.18 321.654 632.406 319.824 637.547 318.256C642.776 316.6 648.135 315.772 653.624 315.772C670.006 315.772 684.34 322.351 696.626 335.509C708.999 348.666 715.186 364.438 715.186 382.824C715.186 401.123 709.043 416.851 696.757 430.008C684.471 443.079 670.093 449.614 653.624 449.614C648.135 449.614 642.819 448.83 637.678 447.261C632.624 445.693 628.355 443.82 624.869 441.641C621.384 439.463 618.334 437.284 615.72 435.106C613.193 432.84 611.276 430.923 609.969 429.355L608.139 426.871ZM776.748 465.691L783.414 447L731.132 318.517H751.261L792.825 422.95L834.258 318.517H854.387L795.439 465.691C790.124 479.284 784.416 488.913 778.317 494.577C772.217 500.328 764.549 503.203 755.313 503.203C752.437 503.203 749.649 502.985 746.947 502.55C744.333 502.114 742.373 501.635 741.066 501.112L739.236 500.589V483.075C743.68 484.817 748.124 485.732 752.568 485.819C763.896 485.819 771.956 479.11 776.748 465.691ZM965.486 318.517V335.901H898.565V447H879.874V318.517H965.486ZM1255 351.978L1208.07 410.925L1161.28 351.978V447H1142.59V318.517H1157.23L1208.07 382.693L1258.92 318.517H1273.69V447H1255V351.978ZM1344.79 465.691L1351.46 447L1299.18 318.517H1319.3L1360.87 422.95L1402.3 318.517H1422.43L1363.48 465.691C1358.17 479.284 1352.46 488.913 1346.36 494.577C1340.26 500.328 1332.59 503.203 1323.36 503.203C1320.48 503.203 1317.69 502.985 1314.99 502.55C1312.38 502.114 1310.42 501.635 1309.11 501.112L1307.28 500.589V483.075C1311.72 484.817 1316.17 485.732 1320.61 485.819C1331.94 485.819 1340 479.11 1344.79 465.691Z" fill="black"/>
<circle cx="383.726" cy="151.266" r="69.3071" stroke="black" stroke-width="9.79171"/>
<path d="M337.855 154.054C337.297 153.426 336.796 152.846 336.354 152.324C336.796 151.801 337.297 151.221 337.855 150.593C340.393 147.735 344.063 143.928 348.582 140.133C357.763 132.423 369.762 125.34 382.519 125.34C395.275 125.34 407.274 132.423 416.455 140.133C420.975 143.928 424.644 147.735 427.183 150.593C427.74 151.221 428.241 151.801 428.684 152.324C428.241 152.846 427.74 153.426 427.183 154.054C424.644 156.912 420.975 160.719 416.455 164.514C407.274 172.224 395.275 179.307 382.519 179.307C369.762 179.307 357.763 172.224 348.582 164.514C344.063 160.719 340.393 156.912 337.855 154.054Z" stroke="black" stroke-width="9.79171"/>
<circle cx="381.493" cy="151.292" r="20.5672" fill="black"/>
<circle cx="222.247" cy="379.388" r="74.3777" fill="#6970B1"/>
<path d="M217.515 424.299L262.546 379.269M262.546 379.269L217.515 334.238M262.546 379.269H172.484" stroke="white" stroke-width="9.73439"/>
<circle cx="1049.67" cy="379.39" r="74.3788" fill="#E3966F"/>
<path d="M1002.57 391.824C1007.55 412.633 1026.26 428.103 1048.6 428.103C1070.93 428.103 1089.65 412.633 1094.62 391.824" stroke="white" stroke-width="9.73439"/>
</svg>
