<svg width="325" height="351" viewBox="0 0 325 351" fill="none" xmlns="http://www.w3.org/2000/svg">
<path d="M17.6359 100.653V106.039H16.1699V102.119H2.30665V106.039H0.840653V100.653H2.1473C2.21104 100.568 2.30665 100.451 2.43413 100.303C2.5616 100.143 2.78469 99.7767 3.10339 99.2031C3.42208 98.6188 3.70359 97.9867 3.94793 97.3068C4.20288 96.6163 4.42597 95.7081 4.61719 94.582C4.81903 93.4453 4.91995 92.2608 4.91995 91.0286V86.4553H15.1979V100.653H17.6359ZM6.38594 87.9213V91.0286C6.38594 92.9195 6.16817 94.667 5.73262 96.2711C5.29707 97.8646 4.86152 98.9853 4.42597 99.6333L3.77264 100.653H13.7319V87.9213H6.38594ZM34.941 94.9326H21.7152C21.8001 96.5685 22.4482 97.9867 23.6592 99.1871C24.8702 100.377 26.2884 100.972 27.9138 100.972C28.5405 100.972 29.1514 100.882 29.7463 100.701C30.3518 100.52 30.8511 100.292 31.2441 100.016C31.6372 99.7396 31.9771 99.4687 32.264 99.2031C32.5614 98.9269 32.7898 98.7038 32.9492 98.5338L33.1404 98.2311L34.1283 99.1871C34.0646 99.2721 33.9743 99.3943 33.8574 99.5536C33.7512 99.7024 33.5016 99.9626 33.1085 100.334C32.7154 100.696 32.3011 101.02 31.8656 101.306C31.43 101.583 30.8511 101.843 30.1287 102.087C29.417 102.321 28.6786 102.438 27.9138 102.438C25.8423 102.438 24.0469 101.646 22.5278 100.064C21.0087 98.4701 20.2492 96.542 20.2492 94.2792C20.2492 92.0378 20.9981 90.1203 22.496 88.5268C24.0045 86.9227 25.7573 86.1207 27.7544 86.1207C29.7622 86.1207 31.4619 86.8855 32.8535 88.4153C34.2452 89.9344 34.941 91.889 34.941 94.2792V94.9326ZM27.7544 87.6026C26.2141 87.6026 24.8437 88.1922 23.6433 89.3713C22.4535 90.5399 21.8108 91.905 21.7152 93.4666H33.475C33.39 91.7669 32.8057 90.3646 31.7222 89.2598C30.6386 88.155 29.316 87.6026 27.7544 87.6026ZM40.9643 86.4553H51.8956V102.119H50.4296V87.9213H42.4303V91.0286C42.4303 93.3125 42.3188 95.2353 42.0957 96.7969C41.8832 98.3479 41.5645 99.5218 41.1396 100.319C40.7253 101.105 40.2685 101.657 39.7692 101.976C39.2806 102.284 38.7016 102.438 38.0323 102.438C37.788 102.438 37.5384 102.411 37.2834 102.358C37.0391 102.305 36.8532 102.247 36.7257 102.183L36.5663 102.119V100.717C37.0019 100.887 37.4374 100.972 37.873 100.972C38.4785 100.972 38.9937 100.749 39.4187 100.303C39.8436 99.8564 40.2048 98.8685 40.5022 97.3387C40.8103 95.809 40.9643 93.7056 40.9643 91.0286V86.4553ZM60.8668 93.3072L67.0654 92.3352C67.0654 90.9861 66.6458 89.86 65.8066 88.957C64.9674 88.0541 63.9157 87.6026 62.6515 87.6026C61.8017 87.6026 60.9943 87.7938 60.2294 88.1762C59.4752 88.5481 58.9228 88.9305 58.5722 89.3235L58.0942 89.8813L57.1062 88.9092C57.17 88.8455 57.2496 88.7499 57.3452 88.6224C57.4515 88.4843 57.6799 88.2559 58.0304 87.9372C58.3916 87.6185 58.7741 87.337 59.1777 87.0927C59.5814 86.8377 60.0966 86.6146 60.7234 86.4234C61.3608 86.2216 62.0035 86.1207 62.6515 86.1207C64.33 86.1207 65.7269 86.7156 66.8423 87.9054C67.9684 89.0951 68.5314 90.5718 68.5314 92.3352V102.119H67.0654V99.5058C67.0229 99.5908 66.9486 99.7024 66.8423 99.8405C66.7467 99.968 66.5237 100.202 66.1731 100.542C65.8331 100.871 65.4613 101.168 65.0577 101.434C64.654 101.7 64.1175 101.933 63.4482 102.135C62.7896 102.337 62.0885 102.438 61.3449 102.438C59.847 102.438 58.6041 102.002 57.6161 101.131C56.6282 100.249 56.1342 99.219 56.1342 98.0398C56.1342 96.8182 56.5591 95.7771 57.409 94.9166C58.2588 94.0562 59.4114 93.5197 60.8668 93.3072ZM61.3449 100.972C62.9808 100.972 64.3406 100.43 65.4242 99.3465C66.5183 98.2629 67.0654 96.9032 67.0654 95.2672V93.8012L61.1855 94.7732C58.7953 95.1663 57.6002 96.2552 57.6002 98.0398C57.6002 98.826 57.9508 99.5112 58.6519 100.095C59.3636 100.68 60.2613 100.972 61.3449 100.972ZM78.6341 81.5793C79.1652 82.1104 79.877 82.376 80.7693 82.376C81.6617 82.376 82.3734 82.1104 82.9046 81.5793C83.4357 81.0481 83.7013 80.3363 83.7013 79.444H85.008C85.008 80.6657 84.6043 81.6802 83.7969 82.4875C83.0002 83.2843 81.991 83.6826 80.7693 83.6826C79.5476 83.6826 78.5331 83.279 77.7258 82.4716C76.929 81.6642 76.5307 80.655 76.5307 79.444H77.8373C77.8373 80.3363 78.1029 81.0481 78.6341 81.5793ZM85.9959 86.4553H87.3026V102.119H85.8206V89.0686L75.3834 102.119H74.0767V86.4553H75.5427V99.5058L85.9959 86.4553ZM90.7126 87.9213V86.4553H103.938V87.9213H98.0585V102.119H96.5925V87.9213H90.7126ZM120.734 94.9326H107.508C107.593 96.5685 108.241 97.9867 109.452 99.1871C110.663 100.377 112.081 100.972 113.706 100.972C114.333 100.972 114.944 100.882 115.539 100.701C116.144 100.52 116.644 100.292 117.037 100.016C117.43 99.7396 117.77 99.4687 118.057 99.2031C118.354 98.9269 118.582 98.7038 118.742 98.5338L118.933 98.2311L119.921 99.1871C119.857 99.2721 119.767 99.3943 119.65 99.5536C119.544 99.7024 119.294 99.9626 118.901 100.334C118.508 100.696 118.094 101.02 117.658 101.306C117.223 101.583 116.644 101.843 115.921 102.087C115.21 102.321 114.471 102.438 113.706 102.438C111.635 102.438 109.84 101.646 108.32 100.064C106.801 98.4701 106.042 96.542 106.042 94.2792C106.042 92.0378 106.791 90.1203 108.289 88.5268C109.797 86.9227 111.55 86.1207 113.547 86.1207C115.555 86.1207 117.255 86.8855 118.646 88.4153C120.038 89.9344 120.734 91.889 120.734 94.2792V94.9326ZM113.547 87.6026C112.007 87.6026 110.636 88.1922 109.436 89.3713C108.246 90.5399 107.603 91.905 107.508 93.4666H119.268C119.183 91.7669 118.598 90.3646 117.515 89.2598C116.431 88.155 115.109 87.6026 113.547 87.6026ZM128.86 87.9213V86.4553H142.086V87.9213H136.206V102.119H134.74V87.9213H128.86ZM146.5 100.064C144.96 98.4701 144.19 96.542 144.19 94.2792C144.19 92.0165 144.96 90.0937 146.5 88.5109C148.051 86.9174 149.889 86.1207 152.014 86.1207C154.149 86.1207 155.987 86.9174 157.527 88.5109C159.078 90.0937 159.853 92.0165 159.853 94.2792C159.853 96.542 159.078 98.4701 157.527 100.064C155.987 101.646 154.149 102.438 152.014 102.438C149.889 102.438 148.051 101.646 146.5 100.064ZM156.507 99.0278C157.761 97.7212 158.387 96.1436 158.387 94.2952C158.387 92.4361 157.761 90.8586 156.507 89.5626C155.264 88.2559 153.772 87.6026 152.029 87.6026C150.287 87.6026 148.789 88.2559 147.536 89.5626C146.282 90.8586 145.656 92.4361 145.656 94.2952C145.656 96.1436 146.282 97.7212 147.536 99.0278C148.789 100.324 150.287 100.972 152.029 100.972C153.772 100.972 155.264 100.324 156.507 99.0278ZM164.427 99.8405L166.052 100.812L162.626 106.198L161.654 105.704L164.427 99.8405Z" fill="black"/>
<path d="M3.11932 112.455H10.6246C12.1224 112.455 13.3122 112.843 14.194 113.619C15.0757 114.383 15.5165 115.355 15.5165 116.535C15.5165 117.204 15.3678 117.815 15.0704 118.367C14.7836 118.909 14.4861 119.286 14.178 119.498L13.7319 119.801C13.7956 119.822 13.8859 119.86 14.0027 119.913C14.1196 119.966 14.3321 120.104 14.6401 120.327C14.9482 120.54 15.2138 120.779 15.4369 121.044C15.6706 121.299 15.8777 121.65 16.0583 122.096C16.2495 122.542 16.3452 123.025 16.3452 123.546C16.3452 124.895 15.8618 125.995 14.8951 126.844C13.939 127.694 12.627 128.119 10.9592 128.119H3.11932V112.455ZM10.9592 121.108H6.38594V125.346H10.9592C11.6072 125.346 12.1224 125.155 12.5049 124.773C12.8873 124.39 13.0785 123.875 13.0785 123.227C13.0785 122.643 12.882 122.144 12.4889 121.729C12.0959 121.315 11.586 121.108 10.9592 121.108ZM11.8197 118.064C12.1171 117.767 12.2659 117.369 12.2659 116.869C12.2659 116.359 12.1171 115.961 11.8197 115.674C11.5222 115.377 11.1239 115.228 10.6246 115.228H6.38594V118.495H10.6246C11.1239 118.495 11.5222 118.351 11.8197 118.064ZM36.2476 128.119V122.239C35.1641 123.004 33.8574 123.387 32.3277 123.387C30.4368 123.387 28.9283 122.818 27.8022 121.682C26.6868 120.534 26.1291 118.983 26.1291 117.029V112.455H29.3798V117.029C29.3798 118.006 29.6932 118.824 30.3199 119.483C30.9573 120.131 31.7328 120.455 32.6464 120.455C33.3157 120.455 33.9477 120.348 34.5426 120.136C35.1481 119.913 35.5837 119.69 35.8493 119.467L36.2476 119.148V112.455H39.4983V128.119H36.2476ZM58.5882 121.427H46.3503C46.5202 122.531 47.062 123.487 47.9756 124.295C48.8998 125.102 49.994 125.506 51.2582 125.506C52.1718 125.506 53.0216 125.299 53.8077 124.884C54.6045 124.47 55.1675 124.066 55.4968 123.673L55.9908 123.068L58.1101 125.187C58.0464 125.272 57.9455 125.394 57.8074 125.554C57.6799 125.702 57.3984 125.963 56.9628 126.334C56.5273 126.696 56.0652 127.02 55.5765 127.306C55.0878 127.583 54.4504 127.843 53.6643 128.087C52.8888 128.321 52.0868 128.438 51.2582 128.438C49.0379 128.438 47.1205 127.625 45.5057 126C43.9016 124.364 43.0996 122.404 43.0996 120.12C43.0996 117.921 43.8804 116.041 45.442 114.479C47.0142 112.907 48.8945 112.121 51.0829 112.121C53.2819 112.121 55.1091 112.854 56.5644 114.32C58.0304 115.775 58.7634 117.602 58.7634 119.801L58.5882 121.427ZM51.0829 114.909C49.9037 114.909 48.9105 115.26 48.1031 115.961C47.3064 116.651 46.7699 117.549 46.4937 118.654H55.5606C55.3693 117.549 54.8754 116.651 54.0786 115.961C53.2819 115.26 52.2833 114.909 51.0829 114.909ZM70.6508 119.307L76.3713 112.455H78.9846V128.119H75.718V117.841L70.6508 123.88L65.5994 117.841V128.119H62.3328V112.455H64.9461L70.6508 119.307ZM90.0911 112.455H97.5964C99.0943 112.455 100.284 112.843 101.166 113.619C102.048 114.383 102.488 115.355 102.488 116.535C102.488 117.204 102.34 117.815 102.042 118.367C101.755 118.909 101.458 119.286 101.15 119.498L100.704 119.801C100.767 119.822 100.858 119.86 100.975 119.913C101.091 119.966 101.304 120.104 101.612 120.327C101.92 120.54 102.186 120.779 102.409 121.044C102.642 121.299 102.85 121.65 103.03 122.096C103.221 122.542 103.317 123.025 103.317 123.546C103.317 124.895 102.834 125.995 101.867 126.844C100.911 127.694 99.5989 128.119 97.931 128.119H90.0911V112.455ZM97.931 121.108H93.3578V125.346H97.931C98.579 125.346 99.0943 125.155 99.4767 124.773C99.8591 124.39 100.05 123.875 100.05 123.227C100.05 122.643 99.8538 122.144 99.4608 121.729C99.0677 121.315 98.5578 121.108 97.931 121.108ZM98.7915 118.064C99.089 117.767 99.2377 117.369 99.2377 116.869C99.2377 116.359 99.089 115.961 98.7915 115.674C98.4941 115.377 98.0957 115.228 97.5964 115.228H93.3578V118.495H97.5964C98.0957 118.495 98.4941 118.351 98.7915 118.064ZM110.153 125.346H113.579C114.323 125.346 114.944 125.097 115.443 124.598C115.943 124.098 116.192 123.477 116.192 122.733C116.192 121.99 115.943 121.368 115.443 120.869C114.944 120.37 114.323 120.12 113.579 120.12H110.153V125.346ZM117.834 118.877C118.917 119.886 119.459 121.177 119.459 122.749C119.459 124.311 118.917 125.596 117.834 126.605C116.761 127.615 115.342 128.119 113.579 128.119H106.886V112.455H110.153V117.347H113.579C115.342 117.347 116.761 117.857 117.834 118.877ZM125.004 112.455V128.119H121.738V112.455H125.004ZM137.561 126.016C135.946 124.39 135.139 122.484 135.139 120.295C135.139 118.096 135.946 116.184 137.561 114.559C139.186 112.933 141.098 112.121 143.297 112.121C144.519 112.121 145.656 112.386 146.707 112.917C147.759 113.438 148.513 113.958 148.97 114.479L149.655 115.228L147.536 117.347C147.43 117.177 147.265 116.97 147.042 116.726C146.829 116.471 146.357 116.131 145.624 115.706C144.901 115.281 144.126 115.069 143.297 115.069C141.969 115.069 140.817 115.573 139.839 116.582C138.873 117.592 138.389 118.829 138.389 120.295C138.389 121.751 138.873 122.983 139.839 123.992C140.817 125.001 141.969 125.506 143.297 125.506C144.126 125.506 144.901 125.299 145.624 124.884C146.357 124.47 146.883 124.066 147.201 123.673L147.695 123.068L149.815 125.187C149.751 125.272 149.655 125.394 149.528 125.554C149.4 125.702 149.124 125.963 148.699 126.334C148.274 126.696 147.828 127.02 147.361 127.306C146.893 127.583 146.288 127.843 145.544 128.087C144.8 128.321 144.051 128.438 143.297 128.438C141.098 128.438 139.186 127.63 137.561 126.016ZM164.49 112.455H167.422V128.119H164.156V117.841L155.997 128.119H153.065V112.455H156.332V122.733L164.49 112.455ZM173.796 112.455H185.875V128.119H182.608V115.387H177.063V117.029C177.063 120.014 176.824 122.372 176.346 124.104C175.878 125.825 175.273 126.977 174.529 127.561C173.796 128.146 172.846 128.438 171.677 128.438C171.39 128.438 171.082 128.411 170.753 128.358C170.434 128.305 170.184 128.247 170.004 128.183L169.717 128.119V125.012C170.153 125.118 170.53 125.177 170.848 125.187C171.518 125.187 172.044 125.007 172.426 124.645C172.819 124.284 173.143 123.487 173.398 122.255C173.664 121.012 173.796 119.27 173.796 117.029V112.455ZM193.715 125.346H197.3C198.044 125.346 198.665 125.097 199.164 124.598C199.664 124.098 199.913 123.477 199.913 122.733C199.913 121.99 199.664 121.368 199.164 120.869C198.665 120.37 198.044 120.12 197.3 120.12H193.715V125.346ZM201.555 118.877C202.638 119.886 203.18 121.177 203.18 122.749C203.18 124.311 202.638 125.596 201.555 126.605C200.482 127.615 199.064 128.119 197.3 128.119H190.448V112.455H193.715V117.347H197.3C199.064 117.347 200.482 117.857 201.555 118.877ZM210.032 121.586V128.119H206.765V112.455H210.032V118.654H217.697V112.455H220.963V128.119H217.697V121.586H210.032ZM228.803 125.346H232.229C232.973 125.346 233.594 125.097 234.093 124.598C234.593 124.098 234.842 123.477 234.842 122.733C234.842 121.99 234.593 121.368 234.093 120.869C233.594 120.37 232.973 120.12 232.229 120.12H228.803V125.346ZM236.484 118.877C237.567 119.886 238.109 121.177 238.109 122.749C238.109 124.311 237.567 125.596 236.484 126.605C235.411 127.615 233.992 128.119 232.229 128.119H225.536V112.455H228.803V117.347H232.229C233.992 117.347 235.411 117.857 236.484 118.877ZM243.654 112.455V128.119H240.388V112.455H243.654Z" fill="#E3966F"/>
<path d="M17.6359 202.908V208.294H16.1699V204.374H2.30665V208.294H0.840653V202.908H2.1473C2.21104 202.823 2.30665 202.706 2.43413 202.557C2.5616 202.398 2.78469 202.032 3.10339 201.458C3.42208 200.874 3.70359 200.242 3.94793 199.562C4.20288 198.871 4.42597 197.963 4.61719 196.837C4.81903 195.7 4.91995 194.516 4.91995 193.283V188.71H15.1979V202.908H17.6359ZM6.38594 190.176V193.283C6.38594 195.174 6.16817 196.922 5.73262 198.526C5.29707 200.119 4.86152 201.24 4.42597 201.888L3.77264 202.908H13.7319V190.176H6.38594ZM34.941 197.187H21.7152C21.8001 198.823 22.4482 200.242 23.6592 201.442C24.8702 202.632 26.2884 203.227 27.9138 203.227C28.5405 203.227 29.1514 203.136 29.7463 202.956C30.3518 202.775 30.8511 202.547 31.2441 202.271C31.6372 201.994 31.9771 201.724 32.264 201.458C32.5614 201.182 32.7898 200.959 32.9492 200.789L33.1404 200.486L34.1283 201.442C34.0646 201.527 33.9743 201.649 33.8574 201.809C33.7512 201.957 33.5016 202.218 33.1085 202.589C32.7154 202.951 32.3011 203.275 31.8656 203.561C31.43 203.838 30.8511 204.098 30.1287 204.342C29.417 204.576 28.6786 204.693 27.9138 204.693C25.8423 204.693 24.0469 203.901 22.5278 202.318C21.0087 200.725 20.2492 198.797 20.2492 196.534C20.2492 194.293 20.9981 192.375 22.496 190.782C24.0045 189.178 25.7573 188.376 27.7544 188.376C29.7622 188.376 31.4619 189.14 32.8535 190.67C34.2452 192.189 34.941 194.144 34.941 196.534V197.187ZM27.7544 189.857C26.2141 189.857 24.8437 190.447 23.6433 191.626C22.4535 192.795 21.8108 194.16 21.7152 195.721H33.475C33.39 194.022 32.8057 192.619 31.7222 191.515C30.6386 190.41 29.316 189.857 27.7544 189.857ZM42.7809 191.817C41.5699 193.113 40.9643 194.691 40.9643 196.55C40.9643 198.398 41.5752 199.976 42.7968 201.283C44.0185 202.579 45.4207 203.227 47.0036 203.227C48.5015 203.227 49.8559 202.573 51.067 201.267C52.278 199.949 52.8835 198.377 52.8835 196.55C52.8835 194.712 52.278 193.14 51.067 191.833C49.8559 190.516 48.5015 189.857 47.0036 189.857C45.4101 189.857 44.0026 190.511 42.7809 191.817ZM40.9643 201.267V211.226H39.4983V188.71H40.9643V191.817C41.0068 191.732 41.0812 191.616 41.1874 191.467C41.3043 191.308 41.5433 191.026 41.9045 190.622C42.2763 190.219 42.68 189.873 43.1155 189.587C43.5511 189.289 44.1141 189.013 44.8046 188.758C45.5057 188.503 46.2387 188.376 47.0036 188.376C48.9158 188.376 50.6155 189.178 52.1027 190.782C53.6006 192.386 54.3495 194.309 54.3495 196.55C54.3495 198.781 53.6006 200.698 52.1027 202.303C50.6155 203.896 48.9158 204.693 47.0036 204.693C46.2387 204.693 45.5057 204.576 44.8046 204.342C44.1141 204.098 43.5458 203.816 43.0996 203.498C42.6534 203.168 42.2604 202.834 41.9204 202.494C41.5911 202.154 41.3521 201.867 41.2034 201.633L40.9643 201.267ZM67.7028 199.147V204.374H66.2368V199.147L63.6235 196.215H63.4642L57.5843 204.374H55.7836L62.4762 195.068L56.6122 188.71H58.5722L66.2368 197.028V188.71H67.7028V197.028L75.3674 188.71H77.3274L71.4634 195.068L78.1401 204.374H76.3554L70.4755 196.215H70.3161L67.7028 199.147ZM93.4852 188.71H94.7919V204.374H93.31V191.323L82.8727 204.374H81.566V188.71H83.032V201.761L93.4852 188.71ZM98.2019 190.176V188.71H111.428V190.176H105.548V204.374H104.082V190.176H98.2019ZM128.223 197.187H114.997C115.082 198.823 115.73 200.242 116.941 201.442C118.152 202.632 119.57 203.227 121.196 203.227C121.823 203.227 122.433 203.136 123.028 202.956C123.634 202.775 124.133 202.547 124.526 202.271C124.919 201.994 125.259 201.724 125.546 201.458C125.843 201.182 126.072 200.959 126.231 200.789L126.422 200.486L127.41 201.442C127.347 201.527 127.256 201.649 127.139 201.809C127.033 201.957 126.784 202.218 126.39 202.589C125.997 202.951 125.583 203.275 125.148 203.561C124.712 203.838 124.133 204.098 123.411 204.342C122.699 204.576 121.961 204.693 121.196 204.693C119.124 204.693 117.329 203.901 115.81 202.318C114.291 200.725 113.531 198.797 113.531 196.534C113.531 194.293 114.28 192.375 115.778 190.782C117.286 189.178 119.039 188.376 121.036 188.376C123.044 188.376 124.744 189.14 126.136 190.67C127.527 192.189 128.223 194.144 128.223 196.534V197.187ZM121.036 189.857C119.496 189.857 118.126 190.447 116.925 191.626C115.735 192.795 115.093 194.16 114.997 195.721H126.757C126.672 194.022 126.088 192.619 125.004 191.515C123.921 190.41 122.598 189.857 121.036 189.857ZM141.034 191.77C139.653 193.034 138.963 194.627 138.963 196.55C138.963 198.462 139.653 200.056 141.034 201.33C142.416 202.595 144.227 203.227 146.468 203.227V189.857C144.227 189.857 142.416 190.495 141.034 191.77ZM153.384 201.33C154.765 200.056 155.455 198.462 155.455 196.55C155.455 194.627 154.76 193.034 153.368 191.77C151.987 190.495 150.181 189.857 147.95 189.857V203.227C150.192 203.227 152.003 202.595 153.384 201.33ZM147.95 204.693V211.226H146.468V204.693C143.812 204.693 141.651 203.917 139.983 202.366C138.326 200.815 137.497 198.877 137.497 196.55C137.497 194.213 138.331 192.269 139.999 190.718C141.667 189.156 143.823 188.376 146.468 188.376V181.524H147.95V188.376C150.606 188.376 152.762 189.156 154.42 190.718C156.088 192.269 156.921 194.213 156.921 196.55C156.921 198.877 156.088 200.815 154.42 202.366C152.762 203.917 150.606 204.693 147.95 204.693ZM162.499 202.318C160.958 200.725 160.188 198.797 160.188 196.534C160.188 194.271 160.958 192.349 162.499 190.766C164.05 189.172 165.887 188.376 168.012 188.376C170.147 188.376 171.985 189.172 173.525 190.766C175.076 192.349 175.852 194.271 175.852 196.534C175.852 198.797 175.076 200.725 173.525 202.318C171.985 203.901 170.147 204.693 168.012 204.693C165.887 204.693 164.05 203.901 162.499 202.318ZM172.506 201.283C173.759 199.976 174.386 198.398 174.386 196.55C174.386 194.691 173.759 193.113 172.506 191.817C171.263 190.511 169.77 189.857 168.028 189.857C166.286 189.857 164.788 190.511 163.534 191.817C162.281 193.113 161.654 194.691 161.654 196.55C161.654 198.398 162.281 199.976 163.534 201.283C164.788 202.579 166.286 203.227 168.028 203.227C169.77 203.227 171.263 202.579 172.506 201.283ZM181.891 200.135V204.374H180.425V188.71H181.891V198.016L190.544 188.71H192.504L186.624 195.068L193.316 204.374H191.516L185.652 196.215H185.492L181.891 200.135ZM199.674 207.306L200.822 204.374L194.464 188.71H196.089L201.634 202.414L207.18 188.71H208.821L201.316 207.306C200.753 208.719 200.131 209.723 199.451 210.318C198.782 210.923 197.879 211.226 196.742 211.226C196.498 211.226 196.248 211.199 195.993 211.146C195.749 211.093 195.574 211.035 195.468 210.971L195.276 210.907V209.425C195.712 209.638 196.201 209.749 196.742 209.76C197.465 209.76 198.049 209.563 198.495 209.17C198.952 208.777 199.345 208.156 199.674 207.306ZM213.394 202.318C211.875 200.725 211.116 198.797 211.116 196.534C211.116 194.271 211.875 192.349 213.394 190.766C214.924 189.172 216.719 188.376 218.78 188.376C219.545 188.376 220.278 188.492 220.979 188.726C221.691 188.949 222.275 189.22 222.732 189.539C223.189 189.857 223.598 190.176 223.959 190.495C224.32 190.803 224.575 191.079 224.724 191.323L224.995 191.642L223.847 192.63C223.805 192.566 223.736 192.471 223.64 192.343C223.555 192.205 223.353 191.982 223.035 191.674C222.727 191.355 222.392 191.074 222.031 190.829C221.67 190.575 221.197 190.351 220.613 190.16C220.028 189.958 219.418 189.857 218.78 189.857C217.123 189.857 215.673 190.511 214.43 191.817C213.198 193.113 212.581 194.691 212.581 196.55C212.581 198.398 213.203 199.976 214.446 201.283C215.689 202.579 217.134 203.227 218.78 203.227C219.8 203.227 220.729 202.993 221.569 202.526C222.408 202.058 223.003 201.596 223.353 201.139L223.847 200.454L224.995 201.442C224.931 201.527 224.841 201.649 224.724 201.809C224.618 201.957 224.368 202.218 223.975 202.589C223.582 202.951 223.167 203.275 222.732 203.561C222.296 203.838 221.717 204.098 220.995 204.342C220.283 204.576 219.545 204.693 218.78 204.693C216.709 204.693 214.913 203.901 213.394 202.318Z" fill="black"/>
<path d="M6.38594 226.841V233.374H3.11932V217.71H6.38594V223.909H14.0506V217.71H17.3172V233.374H14.0506V226.841H6.38594ZM34.463 233.374H31.1963V231.749C31.1538 231.791 31.0795 231.86 30.9732 231.956C30.8776 232.051 30.6758 232.211 30.3677 232.434C30.0703 232.646 29.7463 232.843 29.3957 233.023C29.0451 233.193 28.6043 233.347 28.0731 233.486C27.542 233.624 27.0055 233.693 26.4637 233.693C24.8702 233.693 23.5477 233.231 22.496 232.306C21.4443 231.382 20.9184 230.325 20.9184 229.135C20.9184 227.85 21.3221 226.772 22.1295 225.901C22.9475 225.03 24.0629 224.477 25.4758 224.243L31.1963 223.255C31.1963 222.427 30.8883 221.731 30.2721 221.168C29.6666 220.605 28.8858 220.323 27.9297 220.323C27.1011 220.323 26.3469 220.499 25.667 220.849C24.9977 221.189 24.5356 221.535 24.2807 221.885L23.8504 222.443L21.7311 220.323C21.7948 220.238 21.8798 220.132 21.9861 220.005C22.1029 219.867 22.3526 219.633 22.735 219.304C23.128 218.964 23.5423 218.661 23.9779 218.395C24.4134 218.13 24.9871 217.896 25.6988 217.694C26.4212 217.482 27.1648 217.376 27.9297 217.376C29.8419 217.376 31.4088 217.944 32.6305 219.081C33.8521 220.207 34.463 221.598 34.463 223.255V233.374ZM26.9577 230.761C28.2856 230.761 29.3213 230.368 30.065 229.582C30.8192 228.785 31.1963 227.653 31.1963 226.187V225.869L26.1291 226.681C25.5448 226.788 25.0721 227.027 24.7109 227.398C24.3497 227.77 24.1691 228.238 24.1691 228.801C24.1691 229.321 24.4188 229.778 24.918 230.171C25.428 230.564 26.1078 230.761 26.9577 230.761ZM45.5695 233.374V217.71H48.8361V230.442H56.182V217.71H59.4486V230.442H61.7273V237.294H58.4607V233.374H45.5695ZM79.4945 226.681H67.2567C67.4266 227.786 67.9684 228.742 68.882 229.55C69.8062 230.357 70.9004 230.761 72.1646 230.761C73.0781 230.761 73.928 230.554 74.7141 230.139C75.5108 229.725 76.0739 229.321 76.4032 228.928L76.8972 228.323L79.0165 230.442C78.9528 230.527 78.8518 230.649 78.7137 230.809C78.5863 230.957 78.3047 231.218 77.8692 231.589C77.4336 231.951 76.9715 232.275 76.4829 232.561C75.9942 232.838 75.3568 233.098 74.5707 233.342C73.7952 233.576 72.9932 233.693 72.1646 233.693C69.9443 233.693 68.0268 232.88 66.4121 231.255C64.808 229.619 64.006 227.659 64.006 225.375C64.006 223.176 64.7868 221.295 66.3484 219.734C67.9206 218.162 69.8009 217.376 71.9893 217.376C74.1883 217.376 76.0155 218.109 77.4708 219.575C78.9368 221.03 79.6698 222.857 79.6698 225.056L79.4945 226.681ZM71.9893 220.164C70.8101 220.164 69.8168 220.515 69.0095 221.216C68.2127 221.906 67.6763 222.804 67.4001 223.909H76.4669C76.2757 222.804 75.7817 221.906 74.985 221.216C74.1883 220.515 73.1897 220.164 71.9893 220.164ZM85.0398 217.71H97.1184V233.374H93.8517V220.642H88.3064V222.283C88.3064 225.269 88.0674 227.627 87.5894 229.358C87.122 231.079 86.5164 232.232 85.7728 232.816C85.0398 233.401 84.0891 233.693 82.9205 233.693C82.6337 233.693 82.3256 233.666 81.9963 233.613C81.6776 233.56 81.428 233.502 81.2474 233.438L80.9605 233.374V230.267C81.3961 230.373 81.7732 230.431 82.0919 230.442C82.7612 230.442 83.287 230.261 83.6694 229.9C84.0625 229.539 84.3865 228.742 84.6415 227.51C84.907 226.267 85.0398 224.525 85.0398 222.283V217.71ZM113.117 217.71H116.049V233.374H112.782V223.096L104.624 233.374H101.692V217.71H104.958V227.988L113.117 217.71Z" fill="#70A16D"/>
<path d="M3.77264 9.33615H10.6246C11.995 9.33615 13.0998 9.72389 13.939 10.4994C14.7782 11.2643 15.1979 12.2363 15.1979 13.4154C15.1979 14.0847 15.0332 14.6955 14.7039 15.2479C14.3746 15.7897 14.0506 16.1668 13.7319 16.3793L13.2379 16.6821C13.3016 16.7033 13.3919 16.7352 13.5088 16.7777C13.6362 16.8202 13.8487 16.937 14.1462 17.1282C14.4542 17.3088 14.7198 17.5319 14.9429 17.7975C15.1766 18.0525 15.3838 18.4296 15.5644 18.9289C15.7556 19.4282 15.8512 19.9859 15.8512 20.602C15.8512 21.9087 15.4156 22.971 14.5445 23.789C13.6734 24.5963 12.4783 25 10.9592 25H3.77264V9.33615ZM10.9592 17.4947H5.23864V23.534H10.9592C12.064 23.534 12.9086 23.2737 13.4928 22.7532C14.0877 22.2327 14.3852 21.5156 14.3852 20.602C14.3852 18.5305 13.2432 17.4947 10.9592 17.4947ZM10.6246 16.0287C12.6961 16.0287 13.7319 15.1576 13.7319 13.4154C13.7319 11.6732 12.6961 10.8021 10.6246 10.8021H5.23864V16.0287H10.6246ZM21.3805 22.9444C19.8614 21.3509 19.1019 19.4228 19.1019 17.1601C19.1019 14.8974 19.8614 12.9746 21.3805 11.3917C22.9103 9.79826 24.7056 9.00152 26.7665 9.00152C27.5313 9.00152 28.2643 9.11837 28.9655 9.35208C29.6772 9.57517 30.2615 9.84606 30.7183 10.1648C31.1751 10.4835 31.5841 10.8021 31.9453 11.1208C32.3065 11.4289 32.5614 11.7051 32.7101 11.9494L32.981 12.2681L31.8337 13.2561C31.7912 13.1924 31.7222 13.0967 31.6266 12.9693C31.5416 12.8312 31.3397 12.6081 31.0211 12.3C30.713 11.9813 30.3784 11.6998 30.0172 11.4555C29.656 11.2005 29.1832 10.9774 28.599 10.7862C28.0147 10.5844 27.4039 10.4835 26.7665 10.4835C25.1093 10.4835 23.6592 11.1368 22.4163 12.4434C21.184 13.7394 20.5679 15.317 20.5679 17.176C20.5679 19.0245 21.1893 20.602 22.4322 21.9087C23.6751 23.2047 25.1199 23.8527 26.7665 23.8527C27.7863 23.8527 28.7158 23.619 29.5551 23.1516C30.3943 22.6842 30.9892 22.222 31.3397 21.7652L31.8337 21.0801L32.981 22.068C32.9173 22.153 32.827 22.2752 32.7101 22.4345C32.6039 22.5832 32.3543 22.8435 31.9612 23.2153C31.5681 23.5765 31.1538 23.9005 30.7183 24.1873C30.2827 24.4635 29.7038 24.7238 28.9814 24.9681C28.2697 25.2018 27.5313 25.3187 26.7665 25.3187C24.695 25.3187 22.8996 24.5273 21.3805 22.9444ZM50.5889 17.8134H37.3631C37.4481 19.4494 38.0961 20.8676 39.3071 22.068C40.5182 23.2578 41.9364 23.8527 43.5617 23.8527C44.1885 23.8527 44.7993 23.7624 45.3942 23.5818C45.9997 23.4012 46.499 23.1728 46.8921 22.8966C47.2851 22.6204 47.6251 22.3495 47.9119 22.0839C48.2093 21.8077 48.4377 21.5847 48.5971 21.4147L48.7883 21.1119L49.7762 22.068C49.7125 22.153 49.6222 22.2752 49.5054 22.4345C49.3991 22.5832 49.1495 22.8435 48.7564 23.2153C48.3634 23.5765 47.9491 23.9005 47.5135 24.1873C47.078 24.4635 46.499 24.7238 45.7766 24.9681C45.0649 25.2018 44.3266 25.3187 43.5617 25.3187C41.4902 25.3187 39.6949 24.5273 38.1758 22.9444C36.6566 21.3509 35.8971 19.4228 35.8971 17.1601C35.8971 14.9186 36.646 13.0011 38.1439 11.4077C39.6524 9.80357 41.4052 9.00152 43.4023 9.00152C45.4101 9.00152 47.1098 9.76639 48.5015 11.2961C49.8931 12.8152 50.5889 14.7699 50.5889 17.1601V17.8134ZM43.4023 10.4835C41.862 10.4835 40.4916 11.073 39.2912 12.2522C38.1014 13.4208 37.4587 14.7858 37.3631 16.3474H49.1229C49.0379 14.6477 48.4537 13.2455 47.3701 12.1407C46.2865 11.0359 44.964 10.4835 43.4023 10.4835ZM65.1055 9.33615V10.8021H56.6122V25H55.1462V9.33615H65.1055ZM82.3947 23.534V28.9199H80.9287V25H67.0654V28.9199H65.5994V23.534H66.9061C66.9698 23.449 67.0654 23.3322 67.1929 23.1834C67.3204 23.0241 67.5435 22.6576 67.8622 22.0839C68.1809 21.4997 68.4624 20.8676 68.7067 20.1877C68.9617 19.4972 69.1848 18.5889 69.376 17.4629C69.5778 16.3262 69.6787 15.1417 69.6787 13.9094V9.33615H79.9566V23.534H82.3947ZM71.1447 10.8021V13.9094C71.1447 15.8003 70.927 17.5479 70.4914 19.152C70.0559 20.7454 69.6203 21.8662 69.1848 22.5142L68.5314 23.534H78.4906V10.8021H71.1447ZM89.4219 16.1881L95.6205 15.2161C95.6205 13.8669 95.2009 12.7409 94.3617 11.8379C93.5224 10.9349 92.4707 10.4835 91.2066 10.4835C90.3567 10.4835 89.5494 10.6747 88.7845 11.0571C88.0302 11.4289 87.4778 11.8113 87.1273 12.2044L86.6492 12.7621L85.6613 11.7901C85.725 11.7264 85.8047 11.6308 85.9003 11.5033C86.0065 11.3652 86.2349 11.1368 86.5855 10.8181C86.9467 10.4994 87.3291 10.2179 87.7328 9.97354C88.1365 9.71858 88.6517 9.4955 89.2785 9.30428C89.9159 9.10244 90.5586 9.00152 91.2066 9.00152C92.885 9.00152 94.282 9.59642 95.3974 10.7862C96.5235 11.976 97.0865 13.4526 97.0865 15.2161V25H95.6205V22.3867C95.578 22.4717 95.5036 22.5832 95.3974 22.7213C95.3018 22.8488 95.0787 23.0825 94.7281 23.4225C94.3882 23.7518 94.0164 24.0492 93.6127 24.3148C93.209 24.5804 92.6726 24.8141 92.0033 25.0159C91.3447 25.2178 90.6435 25.3187 89.8999 25.3187C88.4021 25.3187 87.1591 24.8831 86.1712 24.012C85.1832 23.1303 84.6893 22.0999 84.6893 20.9207C84.6893 19.699 85.1142 18.658 85.964 17.7975C86.8139 16.937 87.9665 16.4006 89.4219 16.1881ZM89.8999 23.8527C91.5359 23.8527 92.8957 23.3109 93.9792 22.2274C95.0734 21.1438 95.6205 19.784 95.6205 18.1481V16.6821L89.7406 17.6541C87.3504 18.0471 86.1553 19.136 86.1553 20.9207C86.1553 21.7068 86.5058 22.392 87.207 22.9763C87.9187 23.5606 88.8164 23.8527 89.8999 23.8527ZM120.24 25V17.8134H110.121V25H108.655V9.33615H110.121V16.3474H120.24V9.33615H121.706V25H120.24ZM130.693 16.1881L136.891 15.2161C136.891 13.8669 136.472 12.7409 135.633 11.8379C134.793 10.9349 133.742 10.4835 132.478 10.4835C131.628 10.4835 130.82 10.6747 130.055 11.0571C129.301 11.4289 128.749 11.8113 128.398 12.2044L127.92 12.7621L126.932 11.7901C126.996 11.7264 127.076 11.6308 127.171 11.5033C127.278 11.3652 127.506 11.1368 127.856 10.8181C128.218 10.4994 128.6 10.2179 129.004 9.97354C129.407 9.71858 129.923 9.4955 130.549 9.30428C131.187 9.10244 131.83 9.00152 132.478 9.00152C134.156 9.00152 135.553 9.59642 136.668 10.7862C137.794 11.976 138.357 13.4526 138.357 15.2161V25H136.891V22.3867C136.849 22.4717 136.775 22.5832 136.668 22.7213C136.573 22.8488 136.35 23.0825 135.999 23.4225C135.659 23.7518 135.287 24.0492 134.884 24.3148C134.48 24.5804 133.944 24.8141 133.274 25.0159C132.616 25.2178 131.915 25.3187 131.171 25.3187C129.673 25.3187 128.43 24.8831 127.442 24.012C126.454 23.1303 125.96 22.0999 125.96 20.9207C125.96 19.699 126.385 18.658 127.235 17.7975C128.085 16.937 129.237 16.4006 130.693 16.1881ZM131.171 23.8527C132.807 23.8527 134.167 23.3109 135.25 22.2274C136.344 21.1438 136.891 19.784 136.891 18.1481V16.6821L131.012 17.6541C128.621 18.0471 127.426 19.136 127.426 20.9207C127.426 21.7068 127.777 22.392 128.478 22.9763C129.19 23.5606 130.087 23.8527 131.171 23.8527ZM154.34 25V18.3074C153.033 19.1785 151.403 19.6141 149.448 19.6141C147.663 19.6141 146.24 19.0935 145.178 18.0525C144.115 17.0008 143.584 15.6197 143.584 13.9094V9.33615H145.05V13.9094C145.05 15.2161 145.438 16.2518 146.213 17.0167C146.999 17.7709 148.078 18.1481 149.448 18.1481C150.319 18.1481 151.164 18.0312 151.982 17.7975C152.8 17.5532 153.405 17.2982 153.798 17.0326L154.34 16.6821V9.33615H155.822V25H154.34ZM173.605 9.33615H174.912V25H173.43V11.9494L162.993 25H161.686V9.33615H163.152V22.3867L173.605 9.33615ZM192.36 25V17.8134H182.242V25H180.776V9.33615H182.242V16.3474H192.36V9.33615H193.826V25H192.36ZM202.813 16.1881L209.012 15.2161C209.012 13.8669 208.592 12.7409 207.753 11.8379C206.914 10.9349 205.862 10.4835 204.598 10.4835C203.748 10.4835 202.941 10.6747 202.176 11.0571C201.422 11.4289 200.869 11.8113 200.519 12.2044L200.041 12.7621L199.053 11.7901C199.117 11.7264 199.196 11.6308 199.292 11.5033C199.398 11.3652 199.627 11.1368 199.977 10.8181C200.338 10.4994 200.721 10.2179 201.124 9.97354C201.528 9.71858 202.043 9.4955 202.67 9.30428C203.307 9.10244 203.95 9.00152 204.598 9.00152C206.277 9.00152 207.674 9.59642 208.789 10.7862C209.915 11.976 210.478 13.4526 210.478 15.2161V25H209.012V22.3867C208.97 22.4717 208.895 22.5832 208.789 22.7213C208.693 22.8488 208.47 23.0825 208.12 23.4225C207.78 23.7518 207.408 24.0492 207.004 24.3148C206.601 24.5804 206.064 24.8141 205.395 25.0159C204.736 25.2178 204.035 25.3187 203.292 25.3187C201.794 25.3187 200.551 24.8831 199.563 24.012C198.575 23.1303 198.081 22.0999 198.081 20.9207C198.081 19.699 198.506 18.658 199.356 17.7975C200.206 16.937 201.358 16.4006 202.813 16.1881ZM203.292 23.8527C204.928 23.8527 206.287 23.3109 207.371 22.2274C208.465 21.1438 209.012 19.784 209.012 18.1481V16.6821L203.132 17.6541C200.742 18.0471 199.547 19.136 199.547 20.9207C199.547 21.7068 199.897 22.392 200.599 22.9763C201.31 23.5606 202.208 23.8527 203.292 23.8527ZM220.581 4.46012C221.112 4.99128 221.824 5.25686 222.716 5.25686C223.608 5.25686 224.32 4.99128 224.851 4.46012C225.382 3.92896 225.648 3.21721 225.648 2.32486H226.955C226.955 3.54653 226.551 4.56104 225.744 5.3684C224.947 6.16514 223.938 6.5635 222.716 6.5635C221.494 6.5635 220.48 6.15982 219.672 5.35246C218.876 4.5451 218.477 3.5359 218.477 2.32486H219.784C219.784 3.21721 220.05 3.92896 220.581 4.46012ZM227.943 9.33615H229.249V25H227.767V11.9494L217.33 25H216.023V9.33615H217.489V22.3867L227.943 9.33615ZM232.659 10.8021V9.33615H245.885V10.8021H240.005V25H238.539V10.8021H232.659ZM262.68 17.8134H249.454C249.539 19.4494 250.187 20.8676 251.399 22.068C252.61 23.2578 254.028 23.8527 255.653 23.8527C256.28 23.8527 256.891 23.7624 257.486 23.5818C258.091 23.4012 258.59 23.1728 258.983 22.8966C259.377 22.6204 259.716 22.3495 260.003 22.0839C260.301 21.8077 260.529 21.5847 260.688 21.4147L260.88 21.1119L261.868 22.068C261.804 22.153 261.714 22.2752 261.597 22.4345C261.491 22.5832 261.241 22.8435 260.848 23.2153C260.455 23.5765 260.04 23.9005 259.605 24.1873C259.169 24.4635 258.59 24.7238 257.868 24.9681C257.156 25.2018 256.418 25.3187 255.653 25.3187C253.582 25.3187 251.786 24.5273 250.267 22.9444C248.748 21.3509 247.988 19.4228 247.988 17.1601C247.988 14.9186 248.737 13.0011 250.235 11.4077C251.744 9.80357 253.497 9.00152 255.494 9.00152C257.502 9.00152 259.201 9.76639 260.593 11.2961C261.985 12.8152 262.68 14.7699 262.68 17.1601V17.8134ZM255.494 10.4835C253.953 10.4835 252.583 11.073 251.383 12.2522C250.193 13.4208 249.55 14.7858 249.454 16.3474H261.214C261.129 14.6477 260.545 13.2455 259.462 12.1407C258.378 11.0359 257.055 10.4835 255.494 10.4835Z" fill="black"/>
<path d="M4.56938 47.8966C2.95466 46.2713 2.1473 44.3644 2.1473 42.176C2.1473 39.977 2.95466 38.0649 4.56938 36.4395C6.19473 34.8142 8.10689 34.0015 10.3059 34.0015C11.5276 34.0015 12.6642 34.2671 13.7159 34.7983C14.7676 35.3188 15.5219 35.8393 15.9787 36.3599L16.6639 37.1088L14.5445 39.2281C14.4383 39.0581 14.2736 38.851 14.0506 38.6067C13.8381 38.3517 13.3654 38.0118 12.6324 37.5868C11.91 37.1619 11.1345 36.9494 10.3059 36.9494C8.97799 36.9494 7.82538 37.454 6.84805 38.4632C5.88134 39.4724 5.39799 40.71 5.39799 42.176C5.39799 43.6314 5.88134 44.8637 6.84805 45.8729C7.82538 46.8821 8.97799 47.3867 10.3059 47.3867C11.1345 47.3867 11.91 47.1796 12.6324 46.7652C13.3654 46.3509 13.8912 45.9473 14.2099 45.5542L14.7039 44.9487L16.8232 47.068C16.7595 47.153 16.6639 47.2752 16.5364 47.4345C16.4089 47.5832 16.1327 47.8435 15.7078 48.2153C15.2828 48.5765 14.8367 48.9005 14.3692 49.1873C13.9018 49.4635 13.2963 49.7238 12.5527 49.9681C11.8091 50.2018 11.0601 50.3187 10.3059 50.3187C8.10689 50.3187 6.19473 49.5113 4.56938 47.8966ZM39.1796 50H35.913V48.3747C35.8705 48.4171 35.7962 48.4862 35.6899 48.5818C35.5943 48.6774 35.3925 48.8368 35.0844 49.0599C34.787 49.2723 34.463 49.4688 34.1124 49.6494C33.7618 49.8194 33.321 49.9734 32.7898 50.1115C32.2587 50.2496 31.7222 50.3187 31.1804 50.3187C29.5869 50.3187 28.2643 49.8566 27.2126 48.9324C26.161 48.0082 25.6351 46.9512 25.6351 45.7614C25.6351 44.476 26.0388 43.3977 26.8461 42.5266C27.6641 41.6555 28.7796 41.1031 30.1924 40.8694L35.913 39.8814C35.913 39.0528 35.6049 38.357 34.9888 37.794C34.3833 37.231 33.6025 36.9494 32.6464 36.9494C31.8178 36.9494 31.0635 37.1247 30.3837 37.4753C29.7144 37.8152 29.2523 38.1605 28.9973 38.5111L28.5671 39.0688L26.4478 36.9494C26.5115 36.8645 26.5965 36.7582 26.7027 36.6308C26.8196 36.4927 27.0692 36.2589 27.4517 35.9296C27.8447 35.5897 28.259 35.2869 28.6946 35.0213C29.1301 34.7558 29.7038 34.5221 30.4155 34.3202C31.1379 34.1078 31.8815 34.0015 32.6464 34.0015C34.5586 34.0015 36.1255 34.5699 37.3471 35.7065C38.5688 36.8326 39.1796 38.2242 39.1796 39.8814V50ZM31.6744 47.3867C33.0023 47.3867 34.038 46.9936 34.7817 46.2075C35.5359 45.4108 35.913 44.2794 35.913 42.8134V42.4947L30.8458 43.3074C30.2615 43.4136 29.7888 43.6527 29.4276 44.0245C29.0664 44.3963 28.8858 44.8637 28.8858 45.4267C28.8858 45.9473 29.1354 46.4041 29.6347 46.7971C30.1446 47.1902 30.8245 47.3867 31.6744 47.3867ZM47.0195 43.4668V50H43.7529V34.3361H47.0195V40.5348H54.6841V34.3361H57.9508V50H54.6841V43.4668H47.0195ZM75.0965 50H71.8299V48.3747C71.7874 48.4171 71.7131 48.4862 71.6068 48.5818C71.5112 48.6774 71.3094 48.8368 71.0013 49.0599C70.7039 49.2723 70.3799 49.4688 70.0293 49.6494C69.6787 49.8194 69.2379 49.9734 68.7067 50.1115C68.1756 50.2496 67.6391 50.3187 67.0973 50.3187C65.5038 50.3187 64.1813 49.8566 63.1296 48.9324C62.0779 48.0082 61.552 46.9512 61.552 45.7614C61.552 44.476 61.9557 43.3977 62.7631 42.5266C63.581 41.6555 64.6965 41.1031 66.1094 40.8694L71.8299 39.8814C71.8299 39.0528 71.5219 38.357 70.9057 37.794C70.3002 37.231 69.5194 36.9494 68.5633 36.9494C67.7347 36.9494 66.9805 37.1247 66.3006 37.4753C65.6313 37.8152 65.1692 38.1605 64.9142 38.5111L64.484 39.0688L62.3647 36.9494C62.4284 36.8645 62.5134 36.7582 62.6196 36.6308C62.7365 36.4927 62.9861 36.2589 63.3686 35.9296C63.7616 35.5897 64.1759 35.2869 64.6115 35.0213C65.047 34.7558 65.6207 34.5221 66.3324 34.3202C67.0548 34.1078 67.7984 34.0015 68.5633 34.0015C70.4755 34.0015 72.0424 34.5699 73.2641 35.7065C74.4857 36.8326 75.0965 38.2242 75.0965 39.8814V50ZM67.5913 47.3867C68.9192 47.3867 69.9549 46.9936 70.6986 46.2075C71.4528 45.4108 71.8299 44.2794 71.8299 42.8134V42.4947L66.7627 43.3074C66.1784 43.4136 65.7057 43.6527 65.3445 44.0245C64.9833 44.3963 64.8027 44.8637 64.8027 45.4267C64.8027 45.9473 65.0523 46.4041 65.5516 46.7971C66.0615 47.1902 66.7414 47.3867 67.5913 47.3867ZM81.4704 34.3361H93.549V50H90.2824V37.2681H84.7371V38.9094C84.7371 41.8945 84.498 44.2529 84.02 45.9844C83.5526 47.7054 82.9471 48.858 82.2034 49.4423C81.4704 50.0266 80.5197 50.3187 79.3511 50.3187C79.0643 50.3187 78.7562 50.2921 78.4269 50.239C78.1082 50.1859 77.8586 50.1275 77.678 50.0637L77.3912 50V46.8927C77.8267 46.999 78.2038 47.0574 78.5225 47.068C79.1918 47.068 79.7176 46.8874 80.1001 46.5262C80.4931 46.165 80.8171 45.3683 81.0721 44.136C81.3377 42.8931 81.4704 41.1509 81.4704 38.9094V34.3361ZM109.547 34.3361H112.479V50H109.213V39.7221L101.054 50H98.1223V34.3361H101.389V44.6141L109.547 34.3361ZM127.49 38.4154C127.49 39.1378 127.288 39.7699 126.884 40.3117C126.491 40.8535 126.088 41.2093 125.673 41.3793L125.052 41.6821C125.137 41.7033 125.248 41.7405 125.387 41.7936C125.535 41.8467 125.78 41.9742 126.12 42.176C126.47 42.3673 126.778 42.601 127.044 42.8772C127.32 43.1427 127.57 43.5146 127.793 43.9926C128.026 44.4706 128.143 45.0071 128.143 45.602C128.143 46.9087 127.559 48.0241 126.39 48.9483C125.233 49.8619 123.644 50.3187 121.626 50.3187C120.861 50.3187 120.123 50.2231 119.411 50.0319C118.71 49.8407 118.126 49.6123 117.658 49.3467C117.191 49.0811 116.782 48.8155 116.431 48.5499C116.081 48.2737 115.82 48.04 115.65 47.8488L115.427 47.546L117.547 45.4267C117.674 45.5755 117.844 45.7614 118.057 45.9844C118.28 46.2075 118.747 46.4997 119.459 46.8609C120.181 47.2114 120.904 47.3867 121.626 47.3867C122.71 47.3867 123.522 47.1849 124.064 46.7812C124.616 46.3775 124.893 45.8729 124.893 45.2674C124.893 44.6619 124.616 44.1573 124.064 43.7536C123.522 43.3499 122.71 43.1481 121.626 43.1481H119.825V40.5348H121.626C122.476 40.5348 123.124 40.3701 123.57 40.0408C124.016 39.7008 124.239 39.2706 124.239 38.7501C124.239 38.2189 124.016 37.7887 123.57 37.4594C123.124 37.1194 122.476 36.9494 121.626 36.9494C120.999 36.9494 120.383 37.0716 119.778 37.3159C119.183 37.5497 118.742 37.794 118.455 38.0489L118.041 38.4154L115.905 36.2961C116.054 36.1262 116.272 35.9137 116.559 35.6587C116.846 35.4038 117.483 35.0638 118.471 34.6389C119.459 34.214 120.511 34.0015 121.626 34.0015C123.432 34.0015 124.861 34.4371 125.912 35.3082C126.964 36.1793 127.49 37.215 127.49 38.4154ZM144.317 50H141.05V48.3747C141.008 48.4171 140.934 48.4862 140.827 48.5818C140.732 48.6774 140.53 48.8368 140.222 49.0599C139.924 49.2723 139.6 49.4688 139.25 49.6494C138.899 49.8194 138.458 49.9734 137.927 50.1115C137.396 50.2496 136.86 50.3187 136.318 50.3187C134.724 50.3187 133.402 49.8566 132.35 48.9324C131.298 48.0082 130.773 46.9512 130.773 45.7614C130.773 44.476 131.176 43.3977 131.984 42.5266C132.802 41.6555 133.917 41.1031 135.33 40.8694L141.05 39.8814C141.05 39.0528 140.742 38.357 140.126 37.794C139.521 37.231 138.74 36.9494 137.784 36.9494C136.955 36.9494 136.201 37.1247 135.521 37.4753C134.852 37.8152 134.39 38.1605 134.135 38.5111L133.705 39.0688L131.585 36.9494C131.649 36.8645 131.734 36.7582 131.84 36.6308C131.957 36.4927 132.207 36.2589 132.589 35.9296C132.982 35.5897 133.396 35.2869 133.832 35.0213C134.268 34.7558 134.841 34.5221 135.553 34.3202C136.275 34.1078 137.019 34.0015 137.784 34.0015C139.696 34.0015 141.263 34.5699 142.485 35.7065C143.706 36.8326 144.317 38.2242 144.317 39.8814V50ZM136.812 47.3867C138.14 47.3867 139.175 46.9936 139.919 46.2075C140.673 45.4108 141.05 44.2794 141.05 42.8134V42.4947L135.983 43.3074C135.399 43.4136 134.926 43.6527 134.565 44.0245C134.204 44.3963 134.023 44.8637 134.023 45.4267C134.023 45.9473 134.273 46.4041 134.772 46.7971C135.282 47.1902 135.962 47.3867 136.812 47.3867Z" fill="#6970B1"/>
<path d="M6.38594 302.609V315.341H3.11932V299.677H17.3172V315.341H14.0506V302.609H6.38594ZM25.651 316.966L26.3044 315.341L19.9305 299.677H23.3564L27.9297 311.102L32.503 299.677H35.929L28.9017 316.966C28.0944 318.9 27.2923 320.254 26.4956 321.03C25.7095 321.805 24.7215 322.193 23.5317 322.193C23.0962 322.193 22.6872 322.166 22.3047 322.113C21.9223 322.06 21.6408 322.002 21.4602 321.938L21.2371 321.874V318.926C21.7789 319.139 22.326 319.25 22.8784 319.261C24.1213 319.25 25.0455 318.485 25.651 316.966ZM39.9764 313.237C38.3617 311.612 37.5543 309.705 37.5543 307.517C37.5543 305.318 38.3617 303.406 39.9764 301.78C41.6017 300.155 43.5139 299.342 45.7129 299.342C46.9345 299.342 48.0712 299.608 49.1229 300.139C50.1746 300.66 50.9289 301.18 51.3857 301.701L52.0708 302.45L49.9515 304.569C49.8453 304.399 49.6806 304.192 49.4576 303.947C49.2451 303.693 48.7724 303.353 48.0394 302.928C47.317 302.503 46.5415 302.29 45.7129 302.29C44.385 302.29 43.2324 302.795 42.255 303.804C41.2883 304.813 40.805 306.051 40.805 307.517C40.805 308.972 41.2883 310.205 42.255 311.214C43.2324 312.223 44.385 312.728 45.7129 312.728C46.5415 312.728 47.317 312.52 48.0394 312.106C48.7724 311.692 49.2982 311.288 49.6169 310.895L50.1109 310.29L52.2302 312.409C52.1665 312.494 52.0708 312.616 51.9434 312.775C51.8159 312.924 51.5397 313.184 51.1148 313.556C50.6898 313.917 50.2437 314.241 49.7762 314.528C49.3088 314.804 48.7033 315.065 47.9597 315.309C47.2161 315.543 46.4671 315.66 45.7129 315.66C43.5139 315.66 41.6017 314.852 39.9764 313.237ZM53.8555 302.609V299.677H67.8781V302.609H62.4922V315.341H59.2415V302.609H53.8555ZM74.0767 312.568H77.662C78.4057 312.568 79.0271 312.319 79.5264 311.819C80.0257 311.32 80.2753 310.698 80.2753 309.955C80.2753 309.211 80.0257 308.59 79.5264 308.091C79.0271 307.591 78.4057 307.342 77.662 307.342H74.0767V312.568ZM81.9166 306.099C83.0002 307.108 83.542 308.399 83.542 309.971C83.542 311.532 83.0002 312.818 81.9166 313.827C80.8437 314.836 79.4255 315.341 77.662 315.341H70.8101V299.677H74.0767V304.569H77.662C79.4255 304.569 80.8437 305.079 81.9166 306.099ZM104.098 303.756C104.098 304.479 103.896 305.111 103.492 305.652C103.099 306.194 102.696 306.55 102.281 306.72L101.66 307.023C101.745 307.044 101.856 307.081 101.994 307.134C102.143 307.188 102.387 307.315 102.727 307.517C103.078 307.708 103.386 307.942 103.652 308.218C103.928 308.484 104.177 308.855 104.401 309.333C104.634 309.811 104.751 310.348 104.751 310.943C104.751 312.249 104.167 313.365 102.998 314.289C101.84 315.203 100.252 315.66 98.2338 315.66C97.4689 315.66 96.7306 315.564 96.0189 315.373C95.3177 315.181 94.7335 314.953 94.266 314.687C93.7986 314.422 93.3896 314.156 93.0391 313.891C92.6885 313.615 92.4282 313.381 92.2583 313.19L92.0352 312.887L94.1545 310.768C94.282 310.916 94.4519 311.102 94.6644 311.325C94.8875 311.548 95.3549 311.84 96.0667 312.202C96.789 312.552 97.5114 312.728 98.2338 312.728C99.3174 312.728 100.13 312.526 100.672 312.122C101.224 311.718 101.5 311.214 101.5 310.608C101.5 310.003 101.224 309.498 100.672 309.094C100.13 308.691 99.3174 308.489 98.2338 308.489H96.4332V305.876H98.2338C99.0836 305.876 99.7317 305.711 100.178 305.382C100.624 305.042 100.847 304.611 100.847 304.091C100.847 303.56 100.624 303.129 100.178 302.8C99.7317 302.46 99.0836 302.29 98.2338 302.29C97.607 302.29 96.9909 302.412 96.3854 302.657C95.7905 302.89 95.3496 303.135 95.0628 303.39L94.6485 303.756L92.5132 301.637C92.6619 301.467 92.8797 301.255 93.1665 301C93.4534 300.745 94.0908 300.405 95.0787 299.98C96.0667 299.555 97.1184 299.342 98.2338 299.342C100.04 299.342 101.469 299.778 102.52 300.649C103.572 301.52 104.098 302.556 104.098 303.756ZM106.074 312.409H107.205C107.269 312.345 107.359 312.244 107.476 312.106C107.603 311.957 107.816 311.633 108.113 311.134C108.421 310.635 108.687 310.098 108.91 309.525C109.144 308.94 109.351 308.175 109.532 307.23C109.723 306.285 109.818 305.291 109.818 304.25V299.677H121.244V312.409H123.522V319.261H120.272V315.341H109.34V319.261H106.074V312.409ZM113.085 302.609V304.25C113.085 305.291 112.995 306.279 112.814 307.214C112.644 308.149 112.426 308.924 112.161 309.541C111.906 310.146 111.646 310.672 111.38 311.118C111.125 311.564 110.913 311.883 110.743 312.074L110.472 312.409H117.977V302.609H113.085ZM135.123 315.66C134.538 315.66 133.97 315.59 133.418 315.452C132.865 315.314 132.393 315.144 132 314.942C131.606 314.73 131.256 314.518 130.948 314.305C130.65 314.082 130.433 313.907 130.294 313.779L130.071 313.54V322.193H126.805V299.677H130.071V301.478C130.22 301.329 130.427 301.132 130.693 300.888C130.969 300.644 131.548 300.325 132.43 299.932C133.311 299.539 134.209 299.342 135.123 299.342C137.194 299.342 138.99 300.139 140.509 301.733C142.038 303.315 142.803 305.238 142.803 307.501C142.803 309.764 142.038 311.692 140.509 313.285C138.99 314.868 137.194 315.66 135.123 315.66ZM138.103 303.82C137.146 302.8 136.047 302.29 134.804 302.29C133.561 302.29 132.462 302.8 131.506 303.82C130.549 304.84 130.071 306.072 130.071 307.517C130.071 308.951 130.549 310.178 131.506 311.198C132.462 312.218 133.561 312.728 134.804 312.728C136.047 312.728 137.146 312.218 138.103 311.198C139.059 310.178 139.537 308.951 139.537 307.517C139.537 306.072 139.059 304.84 138.103 303.82ZM158.945 315.341H155.679V313.715C155.636 313.758 155.562 313.827 155.455 313.923C155.36 314.018 155.158 314.178 154.85 314.401C154.552 314.613 154.228 314.81 153.878 314.99C153.527 315.16 153.086 315.314 152.555 315.452C152.024 315.59 151.488 315.66 150.946 315.66C149.352 315.66 148.03 315.197 146.978 314.273C145.926 313.349 145.401 312.292 145.401 311.102C145.401 309.817 145.804 308.739 146.612 307.867C147.43 306.996 148.545 306.444 149.958 306.21L155.679 305.222C155.679 304.394 155.37 303.698 154.754 303.135C154.149 302.572 153.368 302.29 152.412 302.29C151.583 302.29 150.829 302.466 150.149 302.816C149.48 303.156 149.018 303.501 148.763 303.852L148.333 304.41L146.213 302.29C146.277 302.205 146.362 302.099 146.468 301.972C146.585 301.833 146.835 301.6 147.217 301.27C147.61 300.931 148.025 300.628 148.46 300.362C148.896 300.097 149.469 299.863 150.181 299.661C150.903 299.449 151.647 299.342 152.412 299.342C154.324 299.342 155.891 299.911 157.113 301.047C158.334 302.173 158.945 303.565 158.945 305.222V315.341ZM151.44 312.728C152.768 312.728 153.804 312.334 154.547 311.548C155.301 310.752 155.679 309.62 155.679 308.154V307.836L150.611 308.648C150.027 308.754 149.554 308.993 149.193 309.365C148.832 309.737 148.651 310.205 148.651 310.768C148.651 311.288 148.901 311.745 149.4 312.138C149.91 312.531 150.59 312.728 151.44 312.728ZM163.518 299.677H171.024C172.522 299.677 173.711 300.065 174.593 300.84C175.475 301.605 175.916 302.577 175.916 303.756C175.916 304.426 175.767 305.036 175.469 305.589C175.183 306.131 174.885 306.508 174.577 306.72L174.131 307.023C174.195 307.044 174.285 307.081 174.402 307.134C174.519 307.188 174.731 307.326 175.039 307.549C175.347 307.761 175.613 308 175.836 308.266C176.07 308.521 176.277 308.871 176.457 309.317C176.649 309.764 176.744 310.247 176.744 310.768C176.744 312.117 176.261 313.216 175.294 314.066C174.338 314.916 173.026 315.341 171.358 315.341H163.518V299.677ZM171.358 308.33H166.785V312.568H171.358C172.006 312.568 172.522 312.377 172.904 311.995C173.286 311.612 173.478 311.097 173.478 310.449C173.478 309.865 173.281 309.365 172.888 308.951C172.495 308.537 171.985 308.33 171.358 308.33ZM172.219 305.286C172.516 304.989 172.665 304.59 172.665 304.091C172.665 303.581 172.516 303.183 172.219 302.896C171.921 302.598 171.523 302.45 171.024 302.45H166.785V305.716H171.024C171.523 305.716 171.921 305.573 172.219 305.286ZM183.58 312.568H187.006C187.75 312.568 188.371 312.319 188.871 311.819C189.37 311.32 189.62 310.698 189.62 309.955C189.62 309.211 189.37 308.59 188.871 308.091C188.371 307.591 187.75 307.342 187.006 307.342H183.58V312.568ZM191.261 306.099C192.344 307.108 192.886 308.399 192.886 309.971C192.886 311.532 192.344 312.818 191.261 313.827C190.188 314.836 188.77 315.341 187.006 315.341H180.314V299.677H183.58V304.569H187.006C188.77 304.569 190.188 305.079 191.261 306.099ZM198.431 299.677V315.341H195.165V299.677H198.431ZM214.43 299.677H217.362V315.341H214.095V305.063L205.937 315.341H203.005V299.677H206.271V309.955L214.43 299.677ZM208.55 294.132C208.986 294.567 209.527 294.785 210.175 294.785C210.834 294.785 211.381 294.567 211.817 294.132C212.252 293.696 212.47 293.149 212.47 292.49H214.924C214.924 293.797 214.478 294.886 213.585 295.757C212.693 296.628 211.562 297.064 210.191 297.064C208.821 297.064 207.69 296.628 206.797 295.757C205.905 294.886 205.459 293.797 205.459 292.49H207.897C207.897 293.138 208.114 293.686 208.55 294.132ZM229.918 313.237C228.304 311.612 227.496 309.705 227.496 307.517C227.496 305.318 228.304 303.406 229.918 301.78C231.544 300.155 233.456 299.342 235.655 299.342C236.877 299.342 238.013 299.608 239.065 300.139C240.117 300.66 240.871 301.18 241.328 301.701L242.013 302.45L239.894 304.569C239.787 304.399 239.623 304.192 239.4 303.947C239.187 303.693 238.714 303.353 237.981 302.928C237.259 302.503 236.484 302.29 235.655 302.29C234.327 302.29 233.174 302.795 232.197 303.804C231.23 304.813 230.747 306.051 230.747 307.517C230.747 308.972 231.23 310.205 232.197 311.214C233.174 312.223 234.327 312.728 235.655 312.728C236.484 312.728 237.259 312.52 237.981 312.106C238.714 311.692 239.24 311.288 239.559 310.895L240.053 310.29L242.172 312.409C242.109 312.494 242.013 312.616 241.885 312.775C241.758 312.924 241.482 313.184 241.057 313.556C240.632 313.917 240.186 314.241 239.718 314.528C239.251 314.804 238.645 315.065 237.902 315.309C237.158 315.543 236.409 315.66 235.655 315.66C233.456 315.66 231.544 314.852 229.918 313.237ZM253.741 306.529L259.462 299.677H262.075V315.341H258.808V305.063L253.741 311.102L248.69 305.063V315.341H245.423V299.677H248.036L253.741 306.529ZM269.915 312.568H273.341C274.084 312.568 274.706 312.319 275.205 311.819C275.704 311.32 275.954 310.698 275.954 309.955C275.954 309.211 275.704 308.59 275.205 308.091C274.706 307.591 274.084 307.342 273.341 307.342H269.915V312.568ZM277.595 306.099C278.679 307.108 279.221 308.399 279.221 309.971C279.221 311.532 278.679 312.818 277.595 313.827C276.522 314.836 275.104 315.341 273.341 315.341H266.648V299.677H269.915V304.569H273.341C275.104 304.569 276.522 305.079 277.595 306.099ZM284.766 299.677V315.341H281.499V299.677H284.766ZM290.789 313.237C289.174 311.612 288.367 309.705 288.367 307.517C288.367 305.318 289.174 303.406 290.789 301.78C292.415 300.155 294.327 299.342 296.526 299.342C297.747 299.342 298.884 299.608 299.936 300.139C300.987 300.66 301.742 301.18 302.198 301.701L302.884 302.45L300.764 304.569C300.658 304.399 300.493 304.192 300.27 303.947C300.058 303.693 299.585 303.353 298.852 302.928C298.13 302.503 297.354 302.29 296.526 302.29C295.198 302.29 294.045 302.795 293.068 303.804C292.101 304.813 291.618 306.051 291.618 307.517C291.618 308.972 292.101 310.205 293.068 311.214C294.045 312.223 295.198 312.728 296.526 312.728C297.354 312.728 298.13 312.52 298.852 312.106C299.585 311.692 300.111 311.288 300.43 310.895L300.924 310.29L303.043 312.409C302.979 312.494 302.884 312.616 302.756 312.775C302.629 312.924 302.353 313.184 301.928 313.556C301.503 313.917 301.056 314.241 300.589 314.528C300.122 314.804 299.516 315.065 298.773 315.309C298.029 315.543 297.28 315.66 296.526 315.66C294.327 315.66 292.415 314.852 290.789 313.237ZM308.094 299.677H320.173V315.341H316.906V302.609H311.361V304.25C311.361 307.235 311.122 309.594 310.644 311.325C310.176 313.046 309.571 314.199 308.827 314.783C308.094 315.367 307.144 315.66 305.975 315.66C305.688 315.66 305.38 315.633 305.051 315.58C304.732 315.527 304.482 315.468 304.302 315.405L304.015 315.341V312.234C304.451 312.34 304.828 312.398 305.146 312.409C305.816 312.409 306.342 312.228 306.724 311.867C307.117 311.506 307.441 310.709 307.696 309.477C307.962 308.234 308.094 306.492 308.094 304.25V299.677ZM6.38594 343.808V350.341H3.11932V334.677H6.38594V340.876H14.0506V334.677H17.3172V350.341H14.0506V343.808H6.38594ZM36.407 343.648H24.1691C24.3391 344.753 24.8809 345.709 25.7945 346.516C26.7187 347.324 27.8129 347.728 29.077 347.728C29.9906 347.728 30.8405 347.52 31.6266 347.106C32.4233 346.692 32.9863 346.288 33.3157 345.895L33.8096 345.29L35.929 347.409C35.8652 347.494 35.7643 347.616 35.6262 347.775C35.4987 347.924 35.2172 348.184 34.7817 348.556C34.3461 348.917 33.884 349.241 33.3953 349.528C32.9067 349.804 32.2693 350.065 31.4832 350.309C30.7077 350.543 29.9056 350.66 29.077 350.66C26.8568 350.66 24.9393 349.847 23.3246 348.221C21.7205 346.586 20.9184 344.626 20.9184 342.342C20.9184 340.143 21.6992 338.262 23.2608 336.701C24.8331 335.128 26.7134 334.342 28.9017 334.342C31.1007 334.342 32.9279 335.075 34.3833 336.541C35.8493 337.997 36.5823 339.824 36.5823 342.023L36.407 343.648ZM28.9017 337.131C27.7226 337.131 26.7293 337.481 25.9219 338.183C25.1252 338.873 24.5887 339.771 24.3125 340.876H33.3794C33.1882 339.771 32.6942 338.873 31.8975 338.183C31.1007 337.481 30.1021 337.131 28.9017 337.131ZM57.3134 346.214C58.2801 345.205 58.7634 343.972 58.7634 342.517C58.7634 341.051 58.2801 339.813 57.3134 338.804C56.3467 337.795 55.1994 337.29 53.8715 337.29C52.5436 337.29 51.391 337.795 50.4136 338.804C49.4469 339.813 48.9636 341.051 48.9636 342.517C48.9636 343.972 49.4469 345.205 50.4136 346.214C51.391 347.223 52.5436 347.728 53.8715 347.728C55.1994 347.728 56.3467 347.223 57.3134 346.214ZM48.135 348.237C46.5202 346.612 45.7129 344.705 45.7129 342.517C45.7129 340.318 46.5202 338.406 48.135 336.78C49.7603 335.155 51.6725 334.342 53.8715 334.342C56.0705 334.342 57.9773 335.155 59.592 336.78C61.2174 338.406 62.0301 340.318 62.0301 342.517C62.0301 344.705 61.2174 346.612 59.592 348.237C57.9773 349.852 56.0705 350.66 53.8715 350.66C51.6725 350.66 49.7603 349.852 48.135 348.237ZM67.0654 348.237C65.4507 346.612 64.6434 344.705 64.6434 342.517C64.6434 340.318 65.4507 338.406 67.0654 336.78C68.6908 335.155 70.603 334.342 72.8019 334.342C74.0236 334.342 75.1603 334.608 76.212 335.139C77.2637 335.66 78.0179 336.18 78.4747 336.701L79.1599 337.45L77.0406 339.569C76.9344 339.399 76.7697 339.192 76.5466 338.947C76.3341 338.693 75.8614 338.353 75.1284 337.928C74.406 337.503 73.6306 337.29 72.8019 337.29C71.474 337.29 70.3214 337.795 69.3441 338.804C68.3774 339.813 67.894 341.051 67.894 342.517C67.894 343.972 68.3774 345.205 69.3441 346.214C70.3214 347.223 71.474 347.728 72.8019 347.728C73.6306 347.728 74.406 347.52 75.1284 347.106C75.8614 346.692 76.3873 346.288 76.706 345.895L77.1999 345.29L79.3193 347.409C79.2555 347.494 79.1599 347.616 79.0324 347.775C78.905 347.924 78.6287 348.184 78.2038 348.556C77.7789 348.917 77.3327 349.241 76.8653 349.528C76.3979 349.804 75.7924 350.065 75.0487 350.309C74.3051 350.543 73.5562 350.66 72.8019 350.66C70.603 350.66 68.6908 349.852 67.0654 348.237ZM80.9446 337.609V334.677H94.9672V337.609H89.5812V350.341H86.3305V337.609H80.9446ZM110.472 350.341H107.205V348.715C107.163 348.758 107.088 348.827 106.982 348.923C106.886 349.018 106.685 349.178 106.376 349.401C106.079 349.613 105.755 349.81 105.404 349.99C105.054 350.16 104.613 350.314 104.082 350.452C103.551 350.59 103.014 350.66 102.472 350.66C100.879 350.66 99.5564 350.197 98.5047 349.273C97.453 348.349 96.9271 347.292 96.9271 346.102C96.9271 344.817 97.3308 343.739 98.1382 342.867C98.9562 341.996 100.072 341.444 101.484 341.21L107.205 340.222C107.205 339.394 106.897 338.698 106.281 338.135C105.675 337.572 104.895 337.29 103.938 337.29C103.11 337.29 102.356 337.466 101.676 337.816C101.006 338.156 100.544 338.501 100.289 338.852L99.8591 339.41L97.7398 337.29C97.8036 337.205 97.8885 337.099 97.9948 336.972C98.1116 336.833 98.3613 336.6 98.7437 336.27C99.1368 335.931 99.5511 335.628 99.9866 335.362C100.422 335.097 100.996 334.863 101.708 334.661C102.43 334.449 103.174 334.342 103.938 334.342C105.851 334.342 107.418 334.911 108.639 336.047C109.861 337.173 110.472 338.565 110.472 340.222V350.341ZM102.966 347.728C104.294 347.728 105.33 347.334 106.074 346.548C106.828 345.752 107.205 344.62 107.205 343.154V342.836L102.138 343.648C101.554 343.754 101.081 343.993 100.72 344.365C100.358 344.737 100.178 345.205 100.178 345.768C100.178 346.288 100.427 346.745 100.927 347.138C101.437 347.531 102.117 347.728 102.966 347.728ZM115.045 334.677H122.55C124.048 334.677 125.238 335.065 126.12 335.84C127.001 336.605 127.442 337.577 127.442 338.756C127.442 339.426 127.293 340.036 126.996 340.589C126.709 341.131 126.412 341.508 126.104 341.72L125.657 342.023C125.721 342.044 125.812 342.081 125.928 342.134C126.045 342.188 126.258 342.326 126.566 342.549C126.874 342.761 127.139 343 127.362 343.266C127.596 343.521 127.803 343.871 127.984 344.317C128.175 344.764 128.271 345.247 128.271 345.768C128.271 347.117 127.787 348.216 126.821 349.066C125.865 349.916 124.553 350.341 122.885 350.341H115.045V334.677ZM122.885 343.33H118.312V347.568H122.885C123.533 347.568 124.048 347.377 124.431 346.995C124.813 346.612 125.004 346.097 125.004 345.449C125.004 344.865 124.808 344.365 124.415 343.951C124.022 343.537 123.512 343.33 122.885 343.33ZM123.745 340.286C124.043 339.989 124.191 339.59 124.191 339.091C124.191 338.581 124.043 338.183 123.745 337.896C123.448 337.598 123.049 337.45 122.55 337.45H118.312V340.716H122.55C123.049 340.716 123.448 340.573 123.745 340.286ZM143.265 334.677H146.197V350.341H142.931V340.063L134.772 350.341H131.84V334.677H135.107V344.955L143.265 334.677ZM149.145 337.609V334.677H163.168V337.609H157.782V350.341H154.531V337.609H149.145ZM172.633 334.677H180.138C181.636 334.677 182.826 335.065 183.708 335.84C184.589 336.605 185.03 337.577 185.03 338.756C185.03 339.426 184.882 340.036 184.584 340.589C184.297 341.131 184 341.508 183.692 341.72L183.246 342.023C183.309 342.044 183.4 342.081 183.517 342.134C183.633 342.188 183.846 342.326 184.154 342.549C184.462 342.761 184.728 343 184.951 343.266C185.184 343.521 185.392 343.871 185.572 344.317C185.763 344.764 185.859 345.247 185.859 345.768C185.859 347.117 185.376 348.216 184.409 349.066C183.453 349.916 182.141 350.341 180.473 350.341H172.633V334.677ZM180.473 343.33H175.9V347.568H180.473C181.121 347.568 181.636 347.377 182.019 346.995C182.401 346.612 182.592 346.097 182.592 345.449C182.592 344.865 182.396 344.365 182.003 343.951C181.61 343.537 181.1 343.33 180.473 343.33ZM181.333 340.286C181.631 339.989 181.78 339.59 181.78 339.091C181.78 338.581 181.631 338.183 181.333 337.896C181.036 337.598 180.638 337.45 180.138 337.45H175.9V340.716H180.138C180.638 340.716 181.036 340.573 181.333 340.286ZM202.001 350.341H198.734V348.715C198.692 348.758 198.617 348.827 198.511 348.923C198.416 349.018 198.214 349.178 197.906 349.401C197.608 349.613 197.284 349.81 196.934 349.99C196.583 350.16 196.142 350.314 195.611 350.452C195.08 350.59 194.543 350.66 194.002 350.66C192.408 350.66 191.086 350.197 190.034 349.273C188.982 348.349 188.456 347.292 188.456 346.102C188.456 344.817 188.86 343.739 189.667 342.867C190.485 341.996 191.601 341.444 193.014 341.21L198.734 340.222C198.734 339.394 198.426 338.698 197.81 338.135C197.204 337.572 196.424 337.29 195.468 337.29C194.639 337.29 193.885 337.466 193.205 337.816C192.536 338.156 192.073 338.501 191.819 338.852L191.388 339.41L189.269 337.29C189.333 337.205 189.418 337.099 189.524 336.972C189.641 336.833 189.89 336.6 190.273 336.27C190.666 335.931 191.08 335.628 191.516 335.362C191.951 335.097 192.525 334.863 193.237 334.661C193.959 334.449 194.703 334.342 195.468 334.342C197.38 334.342 198.947 334.911 200.168 336.047C201.39 337.173 202.001 338.565 202.001 340.222V350.341ZM194.496 347.728C195.823 347.728 196.859 347.334 197.603 346.548C198.357 345.752 198.734 344.62 198.734 343.154V342.836L193.667 343.648C193.083 343.754 192.61 343.993 192.249 344.365C191.888 344.737 191.707 345.205 191.707 345.768C191.707 346.288 191.957 346.745 192.456 347.138C192.966 347.531 193.646 347.728 194.496 347.728ZM208.024 348.237C206.409 346.612 205.602 344.705 205.602 342.517C205.602 340.318 206.409 338.406 208.024 336.78C209.649 335.155 211.562 334.342 213.761 334.342C214.982 334.342 216.119 334.608 217.171 335.139C218.222 335.66 218.977 336.18 219.433 336.701L220.119 337.45L217.999 339.569C217.893 339.399 217.728 339.192 217.505 338.947C217.293 338.693 216.82 338.353 216.087 337.928C215.365 337.503 214.589 337.29 213.761 337.29C212.433 337.29 211.28 337.795 210.303 338.804C209.336 339.813 208.853 341.051 208.853 342.517C208.853 343.972 209.336 345.205 210.303 346.214C211.28 347.223 212.433 347.728 213.761 347.728C214.589 347.728 215.365 347.52 216.087 347.106C216.82 346.692 217.346 346.288 217.665 345.895L218.159 345.29L220.278 347.409C220.214 347.494 220.119 347.616 219.991 347.775C219.864 347.924 219.587 348.184 219.163 348.556C218.738 348.917 218.291 349.241 217.824 349.528C217.357 349.804 216.751 350.065 216.007 350.309C215.264 350.543 214.515 350.66 213.761 350.66C211.562 350.66 209.649 349.852 208.024 348.237ZM228.102 344.302H225.489L224.835 327.49H228.755L228.102 344.302ZM225.313 350.038C224.888 349.613 224.676 349.119 224.676 348.556C224.676 347.982 224.888 347.483 225.313 347.058C225.738 346.633 226.232 346.421 226.795 346.421C227.358 346.421 227.852 346.633 228.277 347.058C228.702 347.483 228.915 347.982 228.915 348.556C228.915 349.119 228.702 349.613 228.277 350.038C227.852 350.452 227.358 350.66 226.795 350.66C226.232 350.66 225.738 350.452 225.313 350.038Z" fill="black"/>
</svg>
