<svg width="31" height="27" viewBox="0 0 31 27" fill="none" xmlns="http://www.w3.org/2000/svg">
<path d="M0.49707 12.5003C0.49707 12.3418 0.49707 12.1891 0.49707 12.0306C0.65559 11.5139 1.03134 11.2321 1.51864 11.0384C8.71662 8.18501 15.9146 5.31991 23.1067 2.46068C25.0089 1.70331 26.9112 0.951807 28.8075 0.194435C29.2655 0.0124307 29.6882 0.0535284 30.0698 0.370568C30.4338 0.669994 30.5571 1.0751 30.4749 1.52718C30.2988 2.47829 30.1109 3.42354 29.9289 4.36879C29.2596 7.89145 28.5844 11.4141 27.9151 14.9309C27.24 18.4829 26.553 22.0291 25.8955 25.5811C25.778 26.2034 25.5373 26.679 24.9326 26.9138C24.7565 26.9138 24.5803 26.9138 24.4042 26.9138C24.1341 26.7847 23.8699 26.6438 23.6234 26.4735C21.316 24.9059 19.0087 23.3442 16.7072 21.7707C16.5017 21.6298 16.3725 21.6416 16.1729 21.7825C14.9635 22.669 13.7364 23.5438 12.5152 24.4186C11.658 25.0292 10.7774 24.7122 10.5073 23.6965C9.86148 21.2717 9.22153 18.8411 8.58745 16.4104C8.54048 16.2226 8.45829 16.1227 8.27041 16.0523C6.03939 15.2069 3.81424 14.3438 1.58322 13.5042C1.07244 13.3105 0.673203 13.0345 0.49707 12.5003ZM27.422 4.83261C27.3985 4.82674 27.3809 4.82087 27.3574 4.80912C27.3221 4.83848 27.2869 4.87371 27.2517 4.90306C23.0128 8.98348 18.7797 13.058 14.5349 17.1267C14.3646 17.2911 14.4116 17.3498 14.576 17.4614C17.5937 19.4986 20.6056 21.5418 23.6175 23.5849C23.6703 23.6201 23.729 23.6554 23.823 23.7082C25.0207 17.3968 26.2243 11.1147 27.422 4.83261ZM4.97085 12.2361C5.10002 12.2889 5.15873 12.3124 5.22331 12.3359C6.74393 12.9171 8.25867 13.5042 9.77929 14.0796C10.2783 14.2675 10.5954 14.5904 10.701 15.1188C10.7304 15.2538 10.7715 15.383 10.8067 15.5121C10.9594 16.0699 11.1062 16.6335 11.2588 17.1913C11.3997 16.8566 11.6287 16.6277 11.8694 16.3928C15.8265 12.5942 19.7778 8.78973 23.729 4.98526C23.8112 4.90306 23.911 4.83848 23.9991 4.76215C23.9756 4.73867 23.9521 4.70931 23.9286 4.68583C17.629 7.19866 11.3293 9.70563 4.97085 12.2361ZM12.4095 21.5594C13.026 21.1191 13.6072 20.6963 14.1944 20.2795C14.347 20.1738 14.2648 20.121 14.165 20.0505C13.8186 19.8157 13.4722 19.5808 13.1258 19.346C12.615 18.9996 12.1042 18.6532 11.5406 18.2657C11.84 19.3988 12.1219 20.4615 12.4095 21.5594Z" fill="white"/>
</svg>
