<svg width="27" height="25" viewBox="0 0 27 25" fill="none" xmlns="http://www.w3.org/2000/svg">
<path d="M23.1876 22.7603C23.0812 22.9241 23.032 22.9897 22.9911 23.0552C22.0655 24.4722 20.6731 25.0619 19.0432 24.7179C17.4214 24.3821 16.3894 23.2927 16.0864 21.6218C15.9881 21.0649 15.9963 20.5079 15.9963 19.9509C15.9963 18.7387 15.9963 17.5183 15.9963 16.3061C15.9963 15.5689 15.9963 15.5689 15.2345 15.5689C15.0298 15.5689 14.825 15.5607 14.6202 15.5689C14.4237 15.5771 14.3581 15.4952 14.3581 15.3068C14.3663 14.8809 14.3745 14.4632 14.3581 14.0373C14.3499 13.7834 14.44 13.7178 14.6858 13.7178C15.6277 13.7342 16.5696 13.7342 17.5115 13.7178C17.8392 13.7097 17.9211 13.8079 17.9211 14.1274C17.9047 16.1341 17.9129 18.1408 17.9129 20.1475C17.9129 20.557 17.9456 20.9666 18.0439 21.3679C18.3879 22.7767 19.551 23.4074 20.9188 22.9241C22.0901 22.5146 22.9255 21.3597 22.9501 20.0246C22.9747 18.6486 22.9501 17.2726 22.9665 15.8884C22.9665 15.6181 22.86 15.5689 22.6225 15.5771C22.213 15.5935 21.8034 15.5689 21.3939 15.5853C21.14 15.5935 21.0663 15.5034 21.0745 15.2577C21.0908 14.8482 21.0827 14.4386 21.0745 14.0291C21.0663 13.8325 21.1072 13.726 21.3366 13.7342C22.4259 13.7424 23.5235 13.7424 24.6128 13.7342C24.8913 13.7342 24.8749 13.898 24.8749 14.0782C24.8749 15.0857 24.8667 16.1013 24.8749 17.1088C24.8913 18.8534 24.9241 20.598 24.9323 22.3508C24.9323 22.6456 24.9978 22.7767 25.3172 22.7439C25.5875 22.7194 25.866 22.7439 26.1363 22.7357C26.3083 22.7276 26.382 22.8013 26.382 22.9733C26.3738 23.4074 26.3738 23.8497 26.382 24.2838C26.382 24.4558 26.3083 24.5213 26.1363 24.5213C25.3172 24.5131 24.4982 24.5131 23.6791 24.5213C23.4416 24.5213 23.4252 24.3739 23.4006 24.2019C23.3269 23.7514 23.2614 23.3091 23.1876 22.7603Z" fill="white"/>
<path d="M25.3415 3.02124C25.3415 3.37344 25.3251 3.73383 25.3497 4.08602C25.3578 4.32355 25.2678 4.38908 25.0466 4.38089C24.6207 4.36451 24.203 4.36451 23.7771 4.38089C23.5641 4.38908 23.4904 4.30717 23.4986 4.09421C23.5068 3.66011 23.4986 3.21781 23.5068 2.78371C23.5068 2.60352 23.474 2.48066 23.2938 2.39056C21.6966 1.55511 19.1166 1.62883 17.9371 4.00412C16.8969 6.10092 17.8143 8.67278 19.8701 9.45909C21.2871 9.99967 22.9334 9.61471 23.9818 8.45983C24.1784 8.23868 24.3013 8.19773 24.5306 8.40249C24.8173 8.6564 25.1203 8.88574 25.4398 9.0987C25.6855 9.26251 25.6363 9.36899 25.4807 9.56556C23.0481 12.4732 18.3303 12.121 16.3563 8.84479C15.1277 6.80532 15.1441 4.69213 16.4628 2.71C17.7815 0.711478 19.7391 -0.0584421 22.1225 0.252802C23.1955 0.392043 24.1784 0.760622 25.0466 1.42406C25.2596 1.58788 25.366 1.75988 25.3497 2.03836C25.3169 2.36599 25.3415 2.69361 25.3415 3.02124Z" fill="white"/>
<path d="M9.11597 8.48425C9.41903 7.60785 9.68113 6.83793 9.95142 6.0762C10.5575 4.31522 11.1718 2.55423 11.7615 0.785049C11.8516 0.522949 11.9745 0.432852 12.253 0.441042C13.0721 0.465614 13.8911 0.457424 14.7102 0.441042C15.005 0.432852 15.0869 0.531139 15.0706 0.817812C15.0542 1.21096 15.0542 1.6123 15.0706 2.00546C15.0788 2.21841 14.9969 2.30032 14.7839 2.29213C14.4317 2.28394 14.0713 2.3167 13.7191 2.28394C13.3833 2.25117 13.2441 2.38222 13.1294 2.68528C12.1056 5.45372 11.0653 8.22215 10.0415 10.9906C9.92685 11.31 9.7876 11.4575 9.43541 11.4165C9.00949 11.3674 8.46891 11.5803 8.16586 11.3264C7.88737 11.0889 7.83004 10.5811 7.68261 10.1797C6.80621 7.69795 5.90524 5.208 5.02884 2.71804C4.91417 2.38222 4.75855 2.23479 4.38997 2.26756C4.0132 2.30851 3.62824 2.26756 3.24328 2.27575C3.07128 2.27575 2.95661 2.24298 2.9648 2.03003C2.97299 1.57954 2.97299 1.12906 2.9648 0.678571C2.95661 0.465614 3.06309 0.432852 3.24328 0.432852C4.20159 0.441042 5.1517 0.449233 6.11001 0.432852C6.38849 0.432852 6.41306 0.613046 6.47039 0.79324C7.29765 3.21767 8.13309 5.63391 8.96035 8.05834C8.99311 8.15663 9.03407 8.26311 9.11597 8.48425Z" fill="white"/>
<path d="M7.2321 15.7005C7.91193 14.8077 8.69004 14.1361 9.75482 13.8412C10.5329 13.6201 11.3274 13.7429 12.1137 13.7102C12.2775 13.702 12.3185 13.7921 12.3185 13.9395C12.3185 14.8814 12.3103 15.8233 12.3185 16.7653C12.3185 16.9373 12.2612 17.011 12.081 17.0028C11.6141 16.9946 11.1554 16.9946 10.6886 17.0028C10.5002 17.0028 10.4592 16.9209 10.4674 16.7489C10.492 16.3967 10.4838 16.0363 10.5084 15.6841C10.5329 15.3974 10.4183 15.3483 10.148 15.3892C8.66547 15.6104 7.46963 16.9373 7.43687 18.4853C7.4123 19.7958 7.43687 21.1063 7.42868 22.4168C7.42868 22.6953 7.53516 22.7526 7.78907 22.7526C9.08319 22.7444 10.3855 22.7608 11.6796 22.7444C11.9909 22.7444 12.0892 22.8345 12.0646 23.1376C12.04 23.4652 12.04 23.7928 12.0646 24.1205C12.0892 24.4235 11.9991 24.5218 11.6796 24.5136C10.4346 24.4972 9.19786 24.5054 7.95288 24.5054C6.66695 24.5054 5.38921 24.4972 4.10328 24.5136C3.81661 24.5136 3.71013 24.4317 3.7347 24.145C3.75927 23.7765 3.75108 23.4079 3.7347 23.0393C3.71832 22.7772 3.8248 22.7117 4.07052 22.7199C4.46367 22.7362 4.86501 22.7117 5.25816 22.728C5.47112 22.7362 5.53664 22.6625 5.53664 22.4496C5.52845 20.1971 5.52845 17.9447 5.53664 15.6923C5.53664 15.4793 5.46293 15.4056 5.25816 15.4138C4.84863 15.422 4.4391 15.4056 4.02956 15.422C3.81661 15.4302 3.7347 15.3483 3.74289 15.1353C3.75108 14.7504 3.75108 14.3736 3.74289 13.9886C3.7347 13.7921 3.8248 13.7265 4.01318 13.7347C4.95511 13.7429 5.89703 13.7429 6.83895 13.7347C7.07648 13.7347 7.14201 13.833 7.1502 14.046C7.16658 14.5865 7.19934 15.1435 7.2321 15.7005Z" fill="white"/>
<path d="M1.89204 23.6127C1.89204 24.5383 1.89204 24.5383 0.950115 24.5383C0 24.5383 0 24.5383 0 23.6127C0 22.6544 0 22.6544 0.966496 22.6544C1.88385 22.6544 1.88385 22.6544 1.89204 23.6127Z" fill="white"/>
</svg>
