<svg width="96" height="95" viewBox="0 0 96 95" fill="none" xmlns="http://www.w3.org/2000/svg">
<path d="M94.499 47.5C94.499 73.1812 73.6803 94 47.999 94C22.3178 94 1.49902 73.1812 1.49902 47.5C1.49902 21.8188 22.3178 1 47.999 1C73.6803 1 94.499 21.8188 94.499 47.5Z" stroke="white" stroke-width="2"/>
<path d="M66.499 36.3793C66.499 36.1698 66.3292 36 66.1197 36H28.8783C28.6688 36 28.499 36.1698 28.499 36.3793V59.1379C28.499 59.3474 28.6688 59.5172 28.8783 59.5172H57.4201C57.8964 59.5172 58.3618 59.6602 58.756 59.9277L65.9067 64.78C66.1586 64.9509 66.499 64.7705 66.499 64.4661V60.5172V36.3793Z" stroke="white" stroke-width="2"/>
</svg>
